<svg width="58" height="59" viewBox="0 0 58 59" fill="none" xmlns="http://www.w3.org/2000/svg">
<path d="M40 31.225H32C31.4 31.225 31 30.825 31 30.225C31 29.625 31.4 29.225 32 29.225H40C40.6 29.225 41 29.625 41 30.225C41 30.825 40.6 31.225 40 31.225Z" fill="#FFFFFF"/>
<path d="M29 28.225C28.4 28.225 28 27.825 28 27.225V16.225C28 15.625 28.4 15.225 29 15.225C29.6 15.225 30 15.625 30 16.225V27.225C30 27.825 29.6 28.225 29 28.225Z" fill="#FFFFFF"/>
<path d="M13 58.225C12.7 58.225 12.5 58.125 12.3 57.925C12.1 57.725 12 57.525 12 57.225C12 56.925 12.1 56.725 12.3 56.525L16.2 52.625C16.6 52.225 17.2 52.225 17.6 52.625C17.8 52.825 17.9 53.125 17.9 53.325C17.9 53.525 17.8 53.825 17.6 54.025L13.7 57.925C13.5 58.125 13.3 58.225 13 58.225Z" fill="#FFFFFF"/>
<path d="M45 58.225C44.7 58.225 44.5 58.125 44.3 57.925L40.3 53.925C40.1 53.725 40 53.425 40 53.225C40 53.025 40.1 52.725 40.3 52.525C40.7 52.125 41.3 52.125 41.7 52.525L45.7 56.525C45.9 56.725 46 57.025 46 57.225C46 57.425 45.9 57.725 45.7 57.925C45.5 58.125 45.3 58.225 45 58.225Z" fill="#FFFFFF"/>
<path d="M54.9 14.225C54.6 14.225 54.4 14.125 54.2 13.925L44.1 3.825C43.9 3.625 43.8 3.425 43.8 3.125C43.8 2.825 43.9 2.625 44.1 2.425C47.3 -0.675 52.4 -0.675 55.6 2.425C58.8 5.625 58.8 10.725 55.6 13.925C55.4 14.125 55.2 14.225 54.9 14.225ZM46.3 3.225L54.9 11.825C56.6 9.425 56.4 6.025 54.3 3.925C52 1.725 48.7 1.525 46.3 3.225Z" fill="#FFFFFF"/>
<path d="M47.1 12.425C46.8 12.425 46.6 12.325 46.4 12.125C46.2 11.925 46.1 11.625 46.1 11.425C46.1 11.225 46.2 10.925 46.4 10.725L49.4 7.725C49.8 7.325 50.4 7.325 50.8 7.725C51 7.925 51.1 8.125 51.1 8.425C51.1 8.725 51 8.925 50.8 9.125L47.8 12.125C47.6 12.325 47.4 12.425 47.1 12.425Z" fill="#FFFFFF"/>
<path d="M3.1 14.225C2.8 14.225 2.6 14.125 2.4 13.925C0.8 12.425 0 10.325 0 8.125C0 5.925 0.8 3.925 2.4 2.325C5.6 -0.775 10.7 -0.775 13.9 2.325C14.1 2.525 14.2 2.725 14.2 3.025C14.2 3.325 14.1 3.525 13.9 3.725L3.8 13.925C3.6 14.125 3.4 14.225 3.1 14.225ZM3.8 3.825C2.6 5.025 2 6.525 2 8.125C2 9.425 2.4 10.625 3.2 11.725L11.8 3.125C9.3 1.525 6 1.725 3.8 3.825Z" fill="#FFFFFF"/>
<path d="M10.9 12.425C10.6 12.425 10.4 12.325 10.2 12.125L7.2 9.125C7 8.925 6.9 8.725 6.9 8.425C6.9 8.125 7 7.925 7.2 7.725C7.6 7.325 8.2 7.325 8.6 7.725L11.6 10.725C11.8 10.925 11.9 11.225 11.9 11.425C11.9 11.625 11.8 11.925 11.6 12.125C11.4 12.325 11.2 12.425 10.9 12.425Z" fill="#FFFFFF"/>
<path d="M29 57.225C14.1 57.225 2 45.125 2 30.225C2 15.325 14.1 3.225 29 3.225C43.9 3.225 56 15.325 56 30.225C56 45.125 43.9 57.225 29 57.225ZM29 5.225C15.2 5.225 4 16.425 4 30.225C4 44.025 15.2 55.225 29 55.225C42.8 55.225 54 44.025 54 30.225C54 16.425 42.8 5.225 29 5.225Z" fill="#FFFFFF"/>
<path d="M29 34.225C26.8 34.225 25 32.425 25 30.225C25 28.025 26.8 26.225 29 26.225C31.2 26.225 33 28.025 33 30.225C33 32.425 31.2 34.225 29 34.225ZM29 28.225C27.9 28.225 27 29.125 27 30.225C27 31.325 27.9 32.225 29 32.225C30.1 32.225 31 31.325 31 30.225C31 29.125 30.1 28.225 29 28.225Z" fill="#FFFFFF"/>
<path d="M29 53.225C16.3 53.225 6 42.925 6 30.225C6 17.525 16.3 7.225 29 7.225C41.7 7.225 52 17.525 52 30.225C52 42.925 41.7 53.225 29 53.225ZM29 9.225C17.4 9.225 8 18.625 8 30.225C8 41.825 17.4 51.225 29 51.225C40.6 51.225 50 41.825 50 30.225C50 18.625 40.6 9.225 29 9.225Z" fill="#FFFFFF"/>
<path d="M29 11.225C28.4 11.225 28 10.825 28 10.225V8.225C28 7.625 28.4 7.225 29 7.225C29.6 7.225 30 7.625 30 8.225V10.225C30 10.825 29.6 11.225 29 11.225Z" fill="#FFFFFF"/>
<path d="M29 53.225C28.4 53.225 28 52.825 28 52.225V50.225C28 49.625 28.4 49.225 29 49.225C29.6 49.225 30 49.625 30 50.225V52.225C30 52.825 29.6 53.225 29 53.225Z" fill="#FFFFFF"/>
<path d="M51 31.225H49C48.4 31.225 48 30.825 48 30.225C48 29.625 48.4 29.225 49 29.225H51C51.6 29.225 52 29.625 52 30.225C52 30.825 51.6 31.225 51 31.225Z" fill="#FFFFFF"/>
<path d="M9 31.225H7C6.4 31.225 6 30.825 6 30.225C6 29.625 6.4 29.225 7 29.225H9C9.6 29.225 10 29.625 10 30.225C10 30.825 9.6 31.225 9 31.225Z" fill="#FFFFFF"/>
<path d="M19 13.925C18.7 13.925 18.3 13.725 18.1 13.425L17.1 11.725C17 11.525 17 11.425 17 11.225C17 10.925 17.2 10.525 17.5 10.325C18 10.025 18.6 10.225 18.9 10.725L19.9 12.425C20 12.625 20 12.725 20 12.925C20 13.225 19.8 13.625 19.5 13.825C19.3 13.925 19.2 13.925 19 13.925Z" fill="#FFFFFF"/>
<path d="M40 50.225C39.7 50.225 39.3 50.025 39.1 49.725L38.1 48.025C38 47.825 38 47.725 38 47.525C38 47.225 38.2 46.825 38.5 46.625C39 46.325 39.6 46.525 39.9 47.025L40.9 48.725C41 48.925 41 49.025 41 49.225C41 49.525 40.8 49.925 40.5 50.125C40.3 50.225 40.2 50.225 40 50.225Z" fill="#FFFFFF"/>
<path d="M11.6 21.225C11.4 21.225 11.3 21.225 11.1 21.125L9.4 20.125C9.1 19.925 8.9 19.625 8.9 19.225C8.9 19.025 8.9 18.925 9 18.725C9.3 18.225 9.9 18.125 10.4 18.325L12.1 19.325C12.4 19.525 12.6 19.825 12.6 20.225C12.6 20.425 12.6 20.525 12.5 20.725C12.3 21.025 11.9 21.225 11.6 21.225Z" fill="#FFFFFF"/>
<path d="M48 42.225C47.8 42.225 47.7 42.225 47.5 42.125L45.8 41.125C45.5 40.925 45.3 40.625 45.3 40.225C45.3 40.025 45.3 39.925 45.4 39.725C45.7 39.225 46.3 39.125 46.8 39.325L48.5 40.325C48.8 40.525 49 40.825 49 41.225C49 41.425 49 41.525 48.9 41.725C48.7 42.025 48.3 42.225 48 42.225Z" fill="#FFFFFF"/>
<path d="M9.9 42.225C9.6 42.225 9.2 42.025 9 41.725C8.9 41.525 8.9 41.425 8.9 41.225C8.9 40.925 9.1 40.525 9.4 40.325L11.1 39.325C11.6 39.025 12.2 39.225 12.5 39.725C12.6 39.925 12.6 40.025 12.6 40.225C12.6 40.525 12.4 40.925 12.1 41.125L10.4 42.125C10.2 42.225 10.1 42.225 9.9 42.225Z" fill="#FFFFFF"/>
<path d="M46.3 21.225C46 21.225 45.6 21.025 45.4 20.725C45.3 20.525 45.3 20.425 45.3 20.225C45.3 19.925 45.5 19.525 45.8 19.325L47.5 18.325C48 18.025 48.6 18.225 48.9 18.725C49 18.925 49 19.025 49 19.225C49 19.525 48.8 19.925 48.5 20.125L46.8 21.125C46.6 21.225 46.5 21.225 46.3 21.225Z" fill="#FFFFFF"/>
<path d="M18 50.325C17.8 50.325 17.7 50.325 17.5 50.225C17.2 50.025 17 49.725 17 49.325C17 49.125 17 49.025 17.1 48.825L18.1 47.125C18.4 46.625 19 46.525 19.5 46.725C19.8 46.925 20 47.225 20 47.625C20 47.825 20 47.925 19.9 48.125L18.9 49.825C18.7 50.125 18.3 50.325 18 50.325Z" fill="#FFFFFF"/>
<path d="M39 13.925C38.8 13.925 38.7 13.925 38.5 13.825C38.2 13.625 38 13.325 38 12.925C38 12.725 38 12.625 38.1 12.425L39.1 10.725C39.4 10.225 40 10.125 40.5 10.325C40.8 10.525 41 10.825 41 11.225C41 11.425 41 11.525 40.9 11.725L39.9 13.425C39.7 13.725 39.3 13.925 39 13.925Z" fill="#FFFFFF"/>
</svg>
