<svg width="60" height="60" viewBox="0 0 60 60" fill="none" xmlns="http://www.w3.org/2000/svg">
<path d="M5.50313 36.957C5.79763 37.1537 6.1903 37.3503 6.4848 37.547C6.87746 37.7437 7.6628 38.137 7.6628 38.432C7.76096 38.727 7.6628 39.1203 7.56463 39.4154C7.46646 39.7104 7.27013 40.0054 7.17196 40.202C6.7793 40.792 6.1903 41.8737 7.0738 42.6604C7.27013 42.857 7.6628 43.1521 7.9573 43.3487C7.6628 43.7421 7.56463 44.2337 7.6628 44.7254C7.76096 45.1187 7.9573 45.4137 8.2518 45.7087C8.44813 45.9054 8.74263 46.0037 8.93896 46.1021C9.52797 46.3971 9.7243 46.5937 9.82246 46.8887C9.92063 47.2821 9.82246 47.6754 9.7243 48.0688C9.62613 48.3638 9.62613 48.5604 9.52797 48.8554C9.4298 49.7404 9.52796 50.6255 9.82246 51.5105C10.3133 53.3788 12.1785 54.5588 14.1418 54.0671C16.9886 53.3788 19.7373 52.5921 22.486 51.6088C24.7438 52.8871 26.1181 56.8205 26.5108 58.3938C26.609 58.7872 27.0016 59.1805 27.4925 59.1805L52.2305 59.0822C52.525 59.0822 52.8195 58.8855 53.0158 58.6889C53.2121 58.3938 53.2121 58.0988 53.2121 57.8038C53.0158 57.1155 52.6231 56.5255 52.2305 55.9355C52.0341 55.6405 51.7396 55.2472 51.6415 54.8538C51.1506 53.9688 50.8561 52.9855 50.5616 52.0021C49.9726 50.1338 49.58 48.1671 49.3836 46.2004C48.991 43.2504 49.4818 40.3004 50.6598 37.547C51.347 36.072 52.3286 34.597 53.3103 33.3186C53.8993 32.532 54.4883 31.6469 55.0773 30.8603C56.648 28.5003 57.4333 25.6486 57.5315 22.7969C57.6296 19.9452 57.237 17.1918 56.4516 14.4385C55.47 11.0951 53.4085 8.04675 50.5616 5.98173C44.9661 1.75336 39.7633 -0.114992 33.677 0.180011C30.4375 0.376679 27.2961 0.86835 24.1548 1.55669C19.7373 2.4417 16.4978 4.01504 14.24 6.27673C12.473 8.14508 11.0986 10.3084 10.3133 12.6685C9.92063 13.7501 9.62613 14.8318 9.4298 15.9135L9.33163 16.2085C9.1353 16.9952 8.8408 17.6835 8.44813 18.4702C8.2518 18.9618 8.05546 19.3552 7.85913 19.8468C7.6628 20.3385 7.56463 20.9285 7.56463 21.5185C7.76096 22.4035 8.2518 23.1902 9.03713 23.6819C9.4298 24.0752 9.82246 24.3702 9.82246 24.6652C9.82246 24.7636 9.7243 24.9602 9.62613 25.0586C8.44813 27.5169 6.97563 29.8769 5.3068 32.0403C4.61963 32.9253 3.8343 33.9086 4.03063 34.892C4.22696 35.8753 4.7178 36.5637 5.50313 36.957ZM48.7946 36.8587C48.6965 37.1537 48.5001 37.4487 48.402 37.7437C46.5368 32.0403 41.923 28.3036 37.0146 25.4519V21.0269C40.4505 22.6985 44.6716 21.6169 46.9295 18.3718H49.2855C50.0708 18.3718 50.758 19.0602 50.758 19.8468V24.9602H48.7946V24.4686C48.7946 23.6819 48.1075 22.9935 47.3221 22.9935H45.3588C44.5735 22.9935 43.8863 23.6819 43.8863 24.4686V26.4352C43.8863 27.2219 44.5735 27.9103 45.3588 27.9103H47.3221C48.1075 27.9103 48.7946 27.2219 48.7946 26.4352V25.9436H50.758V33.6136C49.9726 34.597 49.2855 35.6786 48.7946 36.8587ZM39.9596 8.34175V10.8984C38.389 11.0951 37.211 12.4718 37.211 14.1435C37.211 15.8151 38.389 17.0935 39.9596 17.3885V19.9452C36.9165 19.7485 34.5605 17.1918 34.5605 14.1435C34.5605 11.0951 37.0146 8.53842 39.9596 8.34175ZM46.3405 14.1435C46.3405 17.1918 43.9845 19.6502 40.9413 19.9452V17.3885C42.512 17.1918 43.69 15.8151 43.69 14.1435C43.69 12.4718 42.512 11.1934 40.9413 10.8984V8.34175C43.9845 8.53842 46.3405 11.0951 46.3405 14.1435ZM40.4505 12.8651C41.1376 12.8651 41.7266 13.4551 41.7266 14.1435C41.7266 14.8318 41.1376 15.4218 40.4505 15.4218C39.7633 15.4218 39.1743 14.8318 39.1743 14.1435C39.1743 13.4551 39.7633 12.8651 40.4505 12.8651ZM47.813 26.5336C47.813 26.8286 47.6166 27.0252 47.3221 27.0252H45.3588C45.0643 27.0252 44.868 26.8286 44.868 26.5336V24.5669C44.868 24.2719 45.0643 24.0752 45.3588 24.0752H47.3221C47.6166 24.0752 47.813 24.2719 47.813 24.5669V26.5336ZM53.4085 29.8769C52.9176 30.6636 52.3286 31.4503 51.7396 32.237V19.9452C51.7396 18.5685 50.6598 17.4868 49.2855 17.4868H47.5185C48.402 15.7168 48.5983 13.5535 47.9111 11.6851H53.0158C53.703 12.7668 54.1938 13.8485 54.4883 15.0285C55.1755 17.5852 55.47 20.1418 55.47 22.7969C55.47 25.3536 54.7828 27.8119 53.4085 29.8769ZM52.4268 10.7018H47.5185C45.7515 7.0634 41.334 5.39172 37.6036 6.86674V2.34336C41.923 2.93337 45.9478 4.80172 49.3836 7.65341C50.4635 8.53842 51.5433 9.52176 52.4268 10.7018ZM33.7751 2.14669C34.3641 2.14669 35.0513 2.14669 35.6403 2.14669V8.04675C33.9715 9.42342 32.8916 11.4884 32.6953 13.6518H26.8053C26.02 13.6518 25.3328 12.9635 25.3328 12.1768V7.55507H26.3145V8.04675C26.3145 8.83342 27.0016 9.52176 27.787 9.52176H29.7503C30.5356 9.52176 31.2228 8.83342 31.2228 8.04675V6.08006C31.2228 5.29339 30.5356 4.60505 29.7503 4.60505H27.787C27.0016 4.60505 26.3145 5.29339 26.3145 6.08006V6.57173H25.3328V3.3267C28.0815 2.7367 30.9283 2.34336 33.7751 2.14669ZM27.2961 6.08006C27.2961 5.78506 27.4925 5.58839 27.787 5.58839H29.7503C30.0448 5.58839 30.2411 5.78506 30.2411 6.08006V8.04675C30.2411 8.34175 30.0448 8.53842 29.7503 8.53842H27.787C27.4925 8.53842 27.2961 8.34175 27.2961 8.04675V6.08006ZM24.3511 3.52337V12.1768C24.3511 13.5535 25.431 14.6351 26.8053 14.6351H32.6953C32.8916 16.9952 34.0696 19.2568 36.1311 20.5352V24.9602C34.1678 23.8785 32.2045 22.9935 30.4375 22.1085C29.6521 21.7152 28.965 21.4202 28.2778 21.0269C21.9951 17.8802 21.897 6.86674 21.897 4.11338C22.6823 3.91671 23.4676 3.72004 24.3511 3.52337ZM6.87746 33.417C8.64446 31.1553 10.117 28.6969 11.3931 26.1402C11.6876 25.7469 11.7858 25.2552 11.7858 24.7636C11.6876 23.7802 11.1968 22.8952 10.3133 22.3052C9.92063 21.9119 9.52797 21.6169 9.52797 21.3219C9.52797 21.1252 9.62613 20.8302 9.7243 20.6335C9.92063 20.2402 10.117 19.7485 10.2151 19.3552C10.6078 18.5685 10.9023 17.6835 11.1968 16.7985L11.295 16.5035C11.4913 15.5201 11.7858 14.5368 12.0803 13.5535C12.8656 11.3901 14.0436 9.42342 15.6143 7.75174C16.8905 6.4734 18.2648 5.58839 19.9336 4.90005C19.9336 8.83342 20.5226 19.4535 27.3943 22.7969C28.0815 23.1902 28.8668 23.4852 29.6521 23.8785C37.4073 27.6152 47.0276 32.237 47.3221 42.6604C47.224 43.9387 47.224 45.2171 47.3221 46.5937C47.5185 48.6588 47.9111 50.7238 48.5983 52.7888C48.8928 53.8705 49.2855 54.8538 49.7763 55.8372C49.9726 56.2305 50.2671 56.7222 50.5616 57.1155C50.5616 57.1155 50.5616 57.2138 50.6598 57.2138H28.2778C27.5906 54.8538 26.4126 52.6905 24.842 50.9204C25.1365 50.8221 25.3328 50.7238 25.5291 50.6254C26.3145 50.3304 26.8053 50.1338 27.0998 50.0354C31.321 48.7571 33.4806 46.7904 33.3825 44.3321C33.3825 43.8404 32.8916 43.3487 32.4008 43.3487C31.8118 43.3487 31.4191 43.8404 31.4191 44.3321C31.4191 45.3154 30.6338 46.7904 26.5108 48.0688C26.2163 48.1671 25.6273 48.3638 24.842 48.6588C24.1548 48.9538 23.2713 49.2488 22.2896 49.5438C19.541 50.5271 16.6941 51.4121 13.8473 52.1005C12.9638 52.2971 11.9821 51.7071 11.7858 50.8221C11.5895 50.2321 11.4913 49.6421 11.5895 49.0521C11.5895 48.8554 11.6876 48.6588 11.6876 48.4621C11.884 47.7738 11.884 47.0854 11.7858 46.3971C11.4913 45.5121 10.8041 44.7254 9.92063 44.4304C9.82246 44.4304 9.82246 44.3321 9.7243 44.3321C9.82246 44.1354 9.92063 43.9387 10.117 43.7421C10.3133 43.5454 10.3133 43.2504 10.3133 42.9554C10.3133 42.6604 10.117 42.4637 9.92063 42.3654C9.7243 42.1687 9.1353 41.7754 8.74263 41.4804C8.74263 41.382 8.8408 41.2837 8.93896 41.1854C9.1353 40.8904 9.23347 40.5954 9.4298 40.3004C9.7243 39.612 9.82246 38.8253 9.7243 38.137C9.52796 36.957 8.34996 36.367 7.46646 35.8753C7.17196 35.777 6.87746 35.5803 6.68113 35.3836C6.4848 35.2853 6.28846 35.0886 6.09213 34.892C5.99396 34.6953 6.09213 34.302 6.87746 33.417Z" fill="#FFFFFF"/>
</svg>
