<svg width="60" height="60" viewBox="0 0 60 60" fill="none" xmlns="http://www.w3.org/2000/svg">
<path d="M34.4515 10.9789C34.7465 10.9789 34.9432 10.8789 35.1399 10.6789C35.3365 10.4789 35.4349 10.2789 35.4349 9.97895C35.4349 9.37895 35.8282 8.97895 36.4182 8.97895C37.0082 8.97895 37.4016 8.57895 37.4016 7.97895C37.4016 7.37895 37.0082 6.97895 36.4182 6.97895C34.7465 6.97895 33.4682 8.27895 33.4682 9.97895C33.4682 10.2789 33.5665 10.4789 33.7632 10.6789C33.9598 10.8789 34.1565 10.9789 34.4515 10.9789Z" fill="#FFFFFF"/>
<path d="M1.21429 35.6789C1.41096 35.8789 1.70596 36.0789 2.00097 36.1789L3.96767 36.8789V38.9789C3.96767 39.2789 4.066 39.5789 4.16434 39.8789L8.39274 48.9789C8.78608 49.8789 9.76943 50.3789 10.6544 50.0789L16.6529 48.6789C17.3412 48.4789 17.8329 47.9789 18.1279 47.2789C18.3246 46.5789 18.1279 45.8789 17.6362 45.3789L14.2928 41.7789L13.8012 39.9789L23.6347 44.8789L25.503 50.1789C25.798 50.9789 26.4864 51.4789 27.2731 51.5789C28.0597 51.5789 28.8464 51.1789 29.1414 50.3789L29.8298 48.7789V48.6789L33.4682 44.8789L34.6482 47.3789C34.7465 47.5789 34.8448 47.7789 35.0415 47.8789L36.6149 49.5789L37.4016 53.9789C37.4999 54.4789 37.7949 54.9789 38.1882 55.2789L39.9583 56.4789C40.6466 56.9789 41.5316 56.9789 42.22 56.4789C42.9083 55.9789 43.2033 55.1789 43.0067 54.3789L42.7117 53.0789V51.1789H43.4983L43.7933 51.2789C44.3833 51.5789 45.17 51.5789 45.76 51.1789C46.35 50.7789 46.7434 50.1789 46.7434 49.4789V48.5789C46.7434 47.9789 46.5467 47.4789 46.055 47.0789L43.3017 44.5789L46.5467 43.3789C47.4317 43.0789 47.9234 42.1789 47.8251 41.2789L47.1367 35.5789C47.0384 34.7789 47.2351 33.8789 47.6284 33.1789L49.3001 30.0789C50.2834 28.1789 50.1851 25.8789 49.1034 24.0789L47.8251 21.9789H49.7918C50.1851 21.9789 50.4801 22.1789 50.6768 22.5789L50.8735 23.0789C51.0701 23.5789 51.4635 23.8789 51.9551 24.0789L55.2985 25.4789C56.0852 25.7789 56.9702 25.5789 57.5602 24.9789C58.1502 24.3789 58.2486 23.4789 57.8552 22.6789L56.6752 20.2789L58.3469 18.8789C58.9369 18.3789 59.1336 17.6789 59.0353 16.9789C58.9369 16.2789 58.3469 15.6789 57.6586 15.4789L51.5618 13.4789C50.4801 13.0789 49.3001 12.8789 48.2184 12.8789L42.81 12.6789C43.99 9.77895 43.105 6.57895 40.7449 4.57895C38.3849 2.57895 35.0415 2.47895 32.5831 4.27895C30.1248 6.07895 28.9448 9.17895 29.9281 12.1789L26.1914 11.9789C25.8964 11.9789 25.6014 11.8789 25.3064 11.7789L24.8147 11.5789C24.1263 11.1789 23.2413 11.0789 22.4546 11.1789L16.7512 11.9789C15.7679 12.0789 14.9812 12.9789 14.9812 13.9789V15.0789H13.8012C13.1128 15.0789 12.4245 15.4789 12.1295 16.0789L11.8345 16.4789C10.9494 17.9789 10.6544 19.7789 11.2445 21.4789L12.1295 24.3789L11.2445 24.6789C10.7528 24.8789 10.2611 25.2789 10.0644 25.7789C9.86776 26.2789 9.86776 26.8789 10.0644 27.3789L12.6211 33.0789H10.7528L7.7044 30.5789C7.21272 30.1789 6.52438 30.0789 5.83603 30.2789L1.31262 31.6789C0.624277 31.8789 0.132602 32.3789 0.0342667 33.0789C-0.0640683 33.7789 0.0342667 34.4789 0.525942 34.9789L1.21429 35.6789ZM36.4182 4.97895C39.1716 4.97895 41.335 7.17895 41.335 9.97895C41.335 12.7789 39.1716 14.9789 36.4182 14.9789C33.6648 14.9789 31.5015 12.7789 31.5015 9.97895C31.5015 7.17895 33.6648 4.97895 36.4182 4.97895ZM37.4016 16.9789V28.9789C37.4016 29.5789 37.0082 29.9789 36.4182 29.9789C35.8282 29.9789 35.4349 29.5789 35.4349 28.9789V16.9789H37.4016ZM6.52437 32.1789L9.57276 34.5789C9.9661 34.8789 10.3594 35.0789 10.8511 35.0789H12.6211C13.3095 35.0789 13.8995 34.6789 14.2928 34.1789C14.6862 33.5789 14.6862 32.8789 14.3912 32.2789L11.8345 26.5789L12.7195 26.2789C13.7028 25.8789 14.2928 24.7789 13.9978 23.7789L13.1128 20.8789C12.7195 19.7789 12.9161 18.5789 13.5062 17.5789L13.8995 16.9789H15.0795C16.1612 16.9789 17.0462 16.0789 17.0462 14.9789V13.8789L22.7496 13.0789C23.143 12.9789 23.5363 13.0789 23.9297 13.2789L24.4213 13.4789C24.913 13.7789 25.503 13.8789 26.093 13.9789L30.9115 14.1789C31.5998 15.0789 32.4848 15.8789 33.4682 16.3789V28.9789C33.4682 30.6789 34.7465 31.9789 36.4182 31.9789C38.0899 31.9789 39.3683 30.6789 39.3683 28.9789V16.2789C40.2533 15.8789 41.04 15.2789 41.63 14.5789L48.1201 14.8789C49.1034 14.8789 50.0868 15.0789 50.9718 15.3789L57.0686 17.3789L55.3969 18.6789C54.7085 19.2789 54.4135 20.2789 54.9052 21.1789L56.0852 23.5789L52.7418 22.1789L52.5451 21.6789C52.0535 20.5789 50.9718 19.9789 49.8901 19.9789H47.9234C47.2351 19.9789 46.5467 20.3789 46.1534 20.9789C45.76 21.5789 45.8584 22.3789 46.2517 22.9789L47.5301 25.0789C48.3167 26.2789 48.3167 27.8789 47.6284 29.0789L45.9567 32.1789C45.3667 33.2789 45.17 34.4789 45.2684 35.7789L45.9567 41.4789L42.7117 42.6789C42.0233 42.8789 41.5316 43.4789 41.4333 44.1789C41.335 44.8789 41.5316 45.5789 42.0233 46.0789L44.875 48.6789V49.5789L44.58 49.4789C44.285 49.3789 43.99 49.2789 43.695 49.2789H42.9083C41.8266 49.2789 40.9416 50.1789 40.9416 51.2789V53.1789C40.9416 53.3789 40.9416 53.4789 41.04 53.6789L41.335 54.9789L39.5649 53.7789L38.7783 49.4789C38.6799 49.0789 38.5816 48.6789 38.2866 48.4789L36.7132 46.7789L35.4349 44.1789C35.1399 43.5789 34.5498 43.1789 33.9598 43.0789C33.2715 42.9789 32.6815 43.1789 32.1898 43.6789L28.5514 47.4789C28.4531 47.6789 28.3547 47.7789 28.2564 47.9789L27.4697 49.5789L25.6014 44.2789C25.4047 43.7789 25.1097 43.3789 24.618 43.1789L14.7845 38.2789C14.0962 37.8789 13.2112 37.9789 12.6211 38.4789C12.0311 38.9789 11.7361 39.7789 11.9328 40.4789L12.3261 42.1789C12.4245 42.4789 12.5228 42.8789 12.8178 43.0789L16.1612 46.6789L10.1628 48.0789L5.83603 38.9789V36.8789C5.83603 35.9789 5.34436 35.2789 4.55768 34.9789L2.59098 34.2789L2.00097 33.5789L6.52437 32.1789Z" fill="#FFFFFF"/>
</svg>
