<svg width="60" height="60" viewBox="0 0 60 60" fill="none" xmlns="http://www.w3.org/2000/svg">
<path d="M14.0465 8C14.0465 7.4 13.6465 7 13.0465 7C11.3465 7 10.0465 8.3 10.0465 10C10.0465 10.6 10.4465 11 11.0465 11C11.6465 11 12.0465 10.6 12.0465 10C12.0465 9.4 12.4465 9 13.0465 9C13.6465 9 14.0465 8.6 14.0465 8Z" fill="#FFFFFF"/>
<path d="M4.94649 30L3.64649 37.9C3.64649 38.1 3.54649 38.3 3.44649 38.5L0.446492 44.4C-0.353508 46 -0.0535085 47.8 1.14649 49.1L1.24649 49.2C2.44649 50.4 4.34649 50.7 5.84649 50.1L12.6465 47.1C12.9465 46.9 13.3465 46.8 13.7465 46.8L25.0465 45.1C25.5465 45 26.0465 45.3 26.2465 45.8L27.0465 47.8C27.6465 49.2 29.1465 50 30.6465 49.7L30.8465 49.6C31.1465 49.5 31.4465 49.6 31.7465 49.7C32.0465 49.9 32.1465 50.1 32.2465 50.4L32.7465 53.2C32.9465 54.3 33.7465 55.3 34.8465 55.6L39.1465 57C39.9465 57.3 40.7465 57.2 41.5465 56.8L45.8465 54.7C46.7465 54.2 47.6465 53.6 48.2465 52.7L58.6465 39.9C59.7465 38.6 60.1465 36.9 59.9465 35.3L59.3465 30.5C59.2465 29.5 58.8465 28.5 58.2465 27.7L54.9465 23.1C54.3465 22.2 53.9465 21.2 53.9465 20.1V11.3C53.9465 10.5 53.7465 9.7 53.4465 9L51.9465 6.1C51.5465 5.3 50.7465 4.9 49.9465 5C49.1465 5.1 48.4465 5.7 48.1465 6.5L45.4465 16.5C45.3465 16.8 45.0465 17.1 44.7465 17.2C44.3465 17.3 44.0465 17.3 43.7465 17L38.3465 13C38.1465 12.9 38.0465 12.7 37.9465 12.5L37.6465 11.6C37.1465 10.2 35.7465 9.3 34.2465 9.5L29.7465 10.1C28.7465 10.2 27.8465 10.9 27.4465 11.8L26.7465 13.2C26.3465 14.1 25.4465 14.7 24.5465 14.9L22.5465 15.3C21.5465 15.5 20.6465 16 19.8465 16.7L16.0465 20.5V16.3C19.0465 14.9 20.5465 11.6 19.8465 8.4C19.1465 5.3 16.3465 3 13.0465 3C9.74649 3 6.94649 5.3 6.24649 8.5C5.54649 11.7 7.04649 14.9 10.0465 16.3V23.7C7.34649 24.8 5.44649 27.1 4.94649 30ZM16.9465 22.4L21.2465 18.2C21.6465 17.8 22.2465 17.5 22.8465 17.3L24.8465 16.9C26.4465 16.6 27.7465 15.6 28.4465 14.1L29.1465 12.7C29.3465 12.4 29.6465 12.2 29.9465 12.1L34.4465 11.5C34.9465 11.4 35.4465 11.7 35.6465 12.2L35.9465 13.1C36.1465 13.7 36.5465 14.2 37.0465 14.6L42.4465 18.6C43.2465 19.2 44.3465 19.4 45.3465 19C46.3465 18.7 47.0465 17.9 47.3465 16.9L50.0465 7L49.0465 6.7L50.1465 7L51.6465 9.9C51.8465 10.3 51.9465 10.8 51.9465 11.3V19.8C51.9465 21.3 52.4465 22.8 53.3465 24L56.6465 28.6C57.0465 29.2 57.3465 29.8 57.4465 30.5L58.0465 35.3C58.1465 36.4 57.8465 37.6 57.1465 38.4L46.7465 51.3C46.2465 51.9 45.6465 52.4 44.9465 52.7L40.6465 54.8C40.3465 54.9 40.0465 54.9 39.7465 54.9L35.4465 53.5C35.0465 53.4 34.7465 53.1 34.7465 52.7L34.2465 49.9C34.1465 49.1 33.6465 48.3 32.8465 47.8C32.1465 47.3 31.2465 47.2 30.4465 47.4L30.2465 47.5C29.7465 47.6 29.1465 47.4 28.9465 46.8L28.1465 44.8C27.6465 43.5 26.2465 42.7 24.7465 42.9L13.4465 44.6C12.9465 44.7 12.3465 44.8 11.8465 45.1L5.04649 48.1C4.24649 48.4 3.34649 48.3 2.64649 47.7C2.64649 47.7 2.64649 47.6 2.54649 47.6C2.04649 47 1.84649 46 2.24649 45.2L5.24649 39.3C5.44649 38.9 5.54649 38.5 5.64649 38.1L6.94649 30.2C7.24649 28.3 8.44649 26.7 10.0465 25.8V29C10.0465 30.7 11.3465 32 13.0465 32C14.7465 32 16.0465 30.7 16.0465 29V23.2C16.3465 23 16.6465 22.7 16.9465 22.4ZM8.04649 10C8.04649 7.2 10.2465 5 13.0465 5C15.8465 5 18.0465 7.2 18.0465 10C18.0465 12.8 15.8465 15 13.0465 15C10.2465 15 8.04649 12.8 8.04649 10ZM14.0465 17V29C14.0465 29.6 13.6465 30 13.0465 30C12.4465 30 12.0465 29.6 12.0465 29V17H14.0465Z" fill="#FFFFFF"/>
</svg>
