<svg width="38" height="60" viewBox="0 0 38 60" fill="none" xmlns="http://www.w3.org/2000/svg">
<path fill-rule="evenodd" clip-rule="evenodd" d="M19 7C9.626 7 2 14.626 2 24C2 33.374 9.626 41 19 41C28.374 41 36 33.374 36 24C36 14.626 28.374 7 19 7ZM19 43C8.523 43 0 34.477 0 24C0 13.523 8.523 5 19 5C29.477 5 38 13.523 38 24C38 34.477 29.477 43 19 43Z" fill="#FFFFFF"/>
<path fill-rule="evenodd" clip-rule="evenodd" d="M19 5C22.574 5 25.995 5.983 29 7.859V2H9V7.859C12.005 5.983 15.426 5 19 5ZM30 10.774C29.782 10.774 29.566 10.703 29.388 10.564C26.376 8.232 22.784 7 19 7C15.216 7 11.624 8.232 8.612 10.564C8.311 10.8 7.901 10.84 7.56 10.672C7.217 10.504 7 10.155 7 9.774V1C7 0.448 7.447 0 8 0H30C30.553 0 31 0.448 31 1V9.774C31 10.155 30.783 10.504 30.44 10.672C30.301 10.74 30.15 10.774 30 10.774Z" fill="#FFFFFF"/>
<path fill-rule="evenodd" clip-rule="evenodd" d="M19 47C19.256 47 19.512 47.098 19.707 47.293L29 56.586V40.141C25.995 42.017 22.574 43 19 43C15.426 43 12.005 42.017 9 40.141V56.586L18.293 47.293C18.488 47.098 18.744 47 19 47ZM30 60C29.74 60 29.484 59.898 29.293 59.707L19 49.414L8.707 59.707C8.421 59.993 7.991 60.078 7.617 59.924C7.243 59.769 7 59.404 7 59V38.226C7 37.845 7.217 37.496 7.56 37.328C7.901 37.161 8.311 37.202 8.612 37.436C11.624 39.768 15.216 41 19 41C22.784 41 26.376 39.768 29.388 37.436C29.69 37.202 30.1 37.161 30.44 37.328C30.783 37.496 31 37.845 31 38.226V59C31 59.404 30.757 59.769 30.383 59.924C30.259 59.975 30.129 60 30 60Z" fill="#FFFFFF"/>
<path fill-rule="evenodd" clip-rule="evenodd" d="M19 29.519C19.136 29.519 19.271 29.547 19.399 29.602L25.591 32.296L24.225 26.234C24.15 25.906 24.247 25.563 24.48 25.32L28.944 20.691L22.678 19.714C22.357 19.664 22.08 19.461 21.937 19.17L19 13.25L16.063 19.17C15.92 19.461 15.643 19.664 15.322 19.714L9.056 20.691L13.52 25.32C13.753 25.563 13.85 25.906 13.775 26.234L12.409 32.296L18.601 29.602C18.729 29.547 18.864 29.519 19 29.519ZM27 35C26.865 35 26.729 34.973 26.601 34.917L19 31.609L11.399 34.917C11.052 35.067 10.652 35.011 10.362 34.77C10.072 34.53 9.941 34.147 10.024 33.78L11.706 26.321L6.28 20.694C6.021 20.425 5.934 20.035 6.052 19.681C6.171 19.328 6.478 19.069 6.846 19.012L14.502 17.818L18.104 10.556C18.442 9.875 19.558 9.875 19.896 10.556L23.498 17.818L31.154 19.012C31.522 19.069 31.829 19.328 31.948 19.681C32.066 20.035 31.979 20.425 31.72 20.694L26.294 26.321L27.976 33.78C28.059 34.147 27.928 34.53 27.638 34.77C27.455 34.921 27.229 35 27 35Z" fill="#FFFFFF"/>
</svg>
