<svg width="60" height="60" viewBox="0 0 60 60" fill="none" xmlns="http://www.w3.org/2000/svg">
<path d="M32.6154 56.7094C32.3154 56.7094 32.1154 56.6095 31.9154 56.4095L29.1154 53.6094C29.0154 53.5094 28.9154 53.3094 28.9154 53.2094C25.9154 43.7094 24.6154 40.6094 22.6154 37.5094C20.3154 34.0094 19.5154 29.4094 20.4154 25.9094C21.7154 21.8094 24.6154 19.5094 29.2154 19.2094C32.5154 18.9094 35.9154 19.9094 39.1154 22.1094C42.0154 24.0094 45.6154 25.2094 54.2154 28.0094C54.4154 28.0094 54.5154 28.1094 54.6154 28.2094L57.4154 31.0094C57.7154 31.3094 57.8154 31.8095 57.6154 32.2094C57.3154 32.8095 49.4154 46.7094 33.2154 56.6094C33.0154 56.7094 32.8154 56.7094 32.6154 56.7094ZM30.7154 52.4095L32.8154 54.5094C46.1154 46.2094 53.7154 34.7094 55.4154 31.9094L53.3154 29.8094C44.7154 27.1094 41.0154 25.8094 37.9154 23.8094C35.2154 21.9094 32.2154 21.0094 29.3154 21.3094C25.6154 21.6094 23.3154 23.3095 22.3154 26.6094C21.5154 29.5094 22.3154 33.6094 24.3154 36.6094C26.4154 39.7094 27.6154 42.8094 30.7154 52.4095Z" fill="#FFFFFF"/>
<path d="M21.6154 26.4094C21.4154 26.4094 21.1154 26.3095 21.0154 26.2094L5.91543 13.4094C4.81543 12.5094 4.11543 11.1094 4.01543 9.50945C3.91543 7.80945 4.61543 6.00945 5.81543 4.80945C7.01543 3.60945 8.81543 2.90945 10.5154 3.00945C12.1154 3.10945 13.4154 3.70945 14.3154 4.90945L27.0154 20.1094C27.2154 20.4094 27.3154 20.7094 27.2154 21.0094C27.1154 21.3094 26.9154 21.6094 26.6154 21.7094C24.7154 22.4095 23.3154 23.7094 22.5154 25.8094C22.4154 26.1094 22.1154 26.3094 21.8154 26.4094C21.8154 26.4094 21.7154 26.4094 21.6154 26.4094ZM10.2154 5.00945C9.11543 5.00945 8.01543 5.50945 7.21543 6.20945C6.41543 7.00945 5.91543 8.30945 6.01543 9.40945C6.11543 10.4094 6.51543 11.2094 7.11543 11.8095L21.2154 23.8094C22.0154 22.3094 23.2154 21.1094 24.6154 20.3094L12.8154 6.10945C12.3154 5.50945 11.4154 5.10945 10.4154 5.00945C10.4154 5.00945 10.3154 5.00945 10.2154 5.00945Z" fill="#FFFFFF"/>
<path d="M29.0154 13.3095C28.6154 13.3095 28.2154 13.0094 28.0154 12.6095L25.9154 5.70945C25.7154 5.20945 26.0154 4.60945 26.6154 4.50945C27.1154 4.30945 27.7154 4.60945 27.8154 5.20945L30.0154 12.0094C30.2154 12.5094 29.9154 13.1094 29.3154 13.2094C29.2154 13.3095 29.1154 13.3095 29.0154 13.3095Z" fill="#FFFFFF"/>
<path d="M40.5154 16.8095C40.2154 16.8095 39.9154 16.7094 39.7154 16.4094C39.3154 16.0094 39.4154 15.3095 39.8154 15.0094L45.3154 10.4094C45.7154 10.0094 46.4154 10.1094 46.7154 10.5094C47.1154 11.0094 47.1154 11.6095 46.6154 12.0094L41.1154 16.6095C41.0154 16.7095 40.7154 16.8095 40.5154 16.8095Z" fill="#FFFFFF"/>
<path d="M34.7154 15.0094C34.6154 15.0094 34.5154 15.0094 34.4154 15.0094C33.9154 14.8095 33.6154 14.3095 33.7154 13.7094L35.2154 8.90945C35.4154 8.40945 35.9154 8.10945 36.5154 8.20945C37.0154 8.40945 37.3154 9.00945 37.2154 9.50945L35.7154 14.3095C35.5154 14.7094 35.1154 15.0094 34.7154 15.0094Z" fill="#FFFFFF"/>
<path d="M13.3154 47.0094C13.1154 47.0094 12.9154 47.0094 12.8154 46.8094C12.3154 46.5094 12.2154 45.9095 12.5154 45.4095L16.3154 39.3094C16.6154 38.8094 17.2154 38.7094 17.7154 39.0094C18.2154 39.3094 18.3154 39.9095 18.0154 40.4095L14.2154 46.5094C14.0154 46.8094 13.6154 47.0094 13.3154 47.0094Z" fill="#FFFFFF"/>
<path d="M12.1154 30.0094C12.0154 30.0094 12.0154 30.0094 11.9154 30.0094L4.81543 28.8094C4.31543 28.7094 3.91543 28.2094 4.01543 27.6094C4.11543 27.1094 4.61543 26.7094 5.21543 26.8094L12.3154 28.0094C12.8154 28.1094 13.2154 28.6094 13.1154 29.2094C13.0154 29.7094 12.6154 30.0094 12.1154 30.0094Z" fill="#FFFFFF"/>
<path d="M10.1154 37.5094C9.71543 37.5094 9.41543 37.3095 9.21543 36.9095C9.01543 36.4095 9.21543 35.8094 9.71543 35.6094L14.2154 33.5094C14.7154 33.3094 15.3154 33.5094 15.5154 34.0094C15.7154 34.5094 15.5154 35.1094 15.0154 35.3094L10.5154 37.4095C10.4154 37.5094 10.2154 37.5094 10.1154 37.5094Z" fill="#FFFFFF"/>
<path d="M29.5154 39.0094C29.1154 39.0094 28.8154 38.8095 28.6154 38.4095C27.9154 37.0094 27.5154 36.6095 27.1154 36.2094C26.6154 35.7094 26.0154 35.1094 25.1154 33.5094V33.4094C24.9154 32.8094 22.9154 27.9094 24.8154 25.4094C25.1154 25.0094 25.8154 24.9095 26.2154 25.2094C26.6154 25.5094 26.7154 26.2094 26.4154 26.6094C25.5154 27.8095 26.3154 31.1094 26.9154 32.6094C27.7154 34.0094 28.1154 34.4094 28.5154 34.8094C29.0154 35.3094 29.5154 35.9095 30.4154 37.5094C30.6154 38.0094 30.4154 38.6094 30.0154 38.8094C29.8154 39.0094 29.7154 39.0094 29.5154 39.0094Z" fill="#FFFFFF"/>
<path d="M46.0154 54.0094C43.5154 54.0094 41.1154 52.9094 39.4154 51.1094L38.7154 50.3094L39.5154 49.6094C43.5154 46.3094 47.3154 42.6095 50.7154 38.4095L51.4154 37.6094L52.2154 38.3094C54.1154 40.0094 55.1154 42.5094 55.1154 44.9095C55.0154 50.0094 51.0154 54.0094 46.0154 54.0094ZM41.6154 50.4095C42.9154 51.4095 44.4154 52.0094 46.0154 52.0094C49.9154 52.0094 53.0154 48.9095 53.0154 45.0094C53.0154 43.4095 52.5154 41.9094 51.4154 40.6094C48.4154 44.2094 45.1154 47.5094 41.6154 50.4095Z" fill="#FFFFFF"/>
</svg>
