<svg width="60" height="60" viewBox="0 0 60 60" fill="none" xmlns="http://www.w3.org/2000/svg">
<path d="M55.0881 24.3877C54.7932 23.7977 54.5965 23.2076 54.3998 22.716C54.3015 22.4209 54.2032 22.2243 54.1048 21.9293L54.0065 21.6342C53.7115 20.7492 53.4165 19.7658 53.2199 18.8808C53.1215 18.3891 53.0232 17.9958 52.9249 17.6024V17.5041C52.8265 17.1107 52.8265 16.619 52.8265 16.2257C52.8265 14.5539 53.1215 12.8822 53.8098 11.3088C54.3015 10.1288 54.4982 8.94871 54.4982 7.67032C54.4982 3.34347 52.0399 0 48.795 0C45.55 0 43.0918 3.34347 43.0918 7.67032C43.0918 8.94871 43.2884 10.1288 43.7801 11.3088C44.4684 12.8822 44.7634 14.5539 44.7634 16.2257C44.7634 16.619 44.7634 17.0124 44.6651 17.5041V17.6024C44.5667 17.9958 44.4684 18.3891 44.3701 18.8808C44.1734 19.7658 43.8784 20.7492 43.5834 21.6342L43.2884 22.0276C43.1901 22.3226 43.0918 22.5193 42.9934 22.8143C42.8951 23.2076 42.6985 23.601 42.5018 23.9943C40.3385 22.3226 37.8802 21.1426 35.3236 20.4542C35.2253 19.9625 35.0286 19.4708 34.9303 18.9791C34.832 18.4874 34.7337 18.0941 34.6353 17.7007V17.6024C34.537 17.2091 34.537 16.7174 34.537 16.324C34.537 14.6523 34.832 12.9805 35.5203 11.4071C36.012 10.2271 36.2086 9.04705 36.2086 7.76866C36.2086 3.44181 33.652 0.0983375 30.5054 0.0983375C27.3588 0.0983375 24.8022 3.44181 24.8022 7.76866C24.8022 9.04705 24.9989 10.2271 25.4905 11.4071C26.1789 12.9805 26.4739 14.6523 26.4739 16.324C26.4739 16.7174 26.4739 17.1107 26.3755 17.6024V17.7007C26.2772 18.0941 26.1789 18.4874 26.0805 18.9791C25.9822 19.4708 25.8839 19.9625 25.6872 20.4542C23.0323 21.1426 20.574 22.3226 18.5091 23.9943C18.3124 23.601 18.1157 23.2076 18.0174 22.8143C17.9191 22.5193 17.8207 22.3226 17.7224 22.0276L17.6241 21.7326C17.3291 20.8475 17.0341 19.8642 16.8374 18.9791C16.7391 18.4874 16.6408 18.0941 16.5424 17.7007V17.6024C16.4441 17.2091 16.4441 16.7174 16.4441 16.324C16.4441 14.6523 16.7391 12.9805 17.4274 11.4071C17.9191 10.2271 18.1157 9.04705 18.1157 7.76866C18.1157 3.44181 15.6575 0.0983375 12.4125 0.0983375C9.16762 0.0983375 6.61101 3.44181 6.61101 7.76866C6.61101 9.04705 6.80768 10.2271 7.29933 11.4071C7.98765 12.9805 8.28264 14.6523 8.28264 16.324C8.28264 16.7174 8.28264 17.1107 8.18431 17.6024V17.7007C8.08598 18.0941 7.98765 18.4874 7.88932 18.9791C7.69265 19.8642 7.39766 20.8475 7.10267 21.7326L6.90601 22.0276C6.80768 22.3226 6.70934 22.5193 6.61101 22.8143C6.41435 23.306 6.21769 23.896 5.9227 24.486C5.43104 25.4694 4.93939 26.4528 4.15274 27.7312C1.98946 31.763 0.907822 36.3849 1.00615 41.0067C1.00615 49.0704 4.05441 56.3474 8.4793 59.0025C8.67596 59.1008 8.87262 59.1008 8.97096 59.1008H15.5591C15.7558 59.1008 15.9524 59.1008 16.0508 59.0025C17.4274 58.2158 18.5091 57.0357 19.394 55.7574C26.0805 60.2809 34.7336 60.2809 41.4202 55.7574C42.3051 57.0357 43.4851 58.1175 44.7634 59.0025C45.0584 59.1008 45.2551 59.1008 45.3534 59.1008H51.9416C52.1382 59.1008 52.3349 59.1008 52.4332 59.0025C56.9564 56.3474 59.9064 49.1687 59.9064 41.0067C60.0047 36.3849 58.923 31.763 56.6614 27.6328C56.0715 26.3544 55.4815 25.3711 55.0881 24.3877ZM27.3588 10.6204C26.9655 9.73541 26.8672 8.75204 26.8672 7.76866C26.7688 4.62186 28.5388 2.06509 30.5054 2.06509C32.472 2.06509 34.242 4.62186 34.242 7.76866C34.242 8.75204 34.0453 9.73541 33.7503 10.6204C32.9637 12.3905 32.5704 14.3573 32.6687 16.324C32.6687 16.8157 32.767 17.4057 32.767 17.8974V17.9958C32.8654 18.3891 32.9637 18.8808 33.062 19.3725C33.062 19.5692 33.1604 19.7658 33.2587 19.9625C32.2754 19.8642 31.3904 19.7658 30.5054 19.7658C29.6204 19.7658 28.7355 19.8642 27.8505 19.9625C27.9488 19.7658 27.9488 19.5692 28.0471 19.3725C28.1455 18.8808 28.2438 18.4874 28.3421 17.9958V17.7991C28.4405 17.3074 28.4405 16.8157 28.4405 16.2257C28.4405 14.3573 28.0471 12.3905 27.3588 10.6204ZM15.3625 57.1341H9.26595C5.52937 54.774 2.97277 48.1854 2.97277 41.0067C2.87444 36.6799 3.85775 32.4514 5.9227 28.6162C6.70934 27.2395 7.29933 26.2561 7.69265 25.2727C7.98765 24.5844 8.28264 23.9943 8.4793 23.5027C8.57763 23.2076 8.67596 22.9126 8.77429 22.716L8.87262 22.3226C9.16762 21.3392 9.46261 20.3559 9.7576 19.3725C9.85593 18.8808 9.95426 18.4874 10.0526 17.9958V17.7991C10.1509 17.3074 10.1509 16.8157 10.1509 16.2257C10.1509 14.2589 9.85593 12.2922 9.06929 10.5221C8.77429 9.73541 8.57763 8.75204 8.57763 7.76866C8.57763 4.7202 10.2493 2.06509 12.3142 2.06509C14.3792 2.06509 16.0508 4.62186 16.0508 7.76866C16.0508 8.75204 15.8541 9.73541 15.5591 10.6204C14.7725 12.3905 14.3792 14.3573 14.4775 16.324C14.4775 16.8157 14.5758 17.4057 14.5758 17.8974V17.9958C14.6741 18.3891 14.7725 18.8808 14.8708 19.3725C15.0675 20.3559 15.3625 21.3392 15.7558 22.3226L15.8541 22.6176C15.9524 22.9126 16.0508 23.1093 16.1491 23.4043C16.3458 23.9943 16.6408 24.5844 16.9358 25.1744C12.8059 29.1079 10.6426 34.5165 10.8392 40.1217C11.0359 45.7269 13.5925 50.9388 17.9191 54.5773C17.2308 55.5607 16.3458 56.4457 15.3625 57.1341ZM12.8059 39.4333C12.8059 29.6979 20.7707 21.7326 30.5054 21.7326C40.2402 21.7326 48.205 29.6979 48.205 39.4333C48.205 49.1687 40.2402 57.1341 30.5054 57.1341C20.7707 57.1341 12.8059 49.1687 12.8059 39.4333ZM51.7449 57.1341H45.6484C44.6651 56.4457 43.7801 55.5607 43.0918 54.5773C47.4183 51.0372 49.9749 45.7269 50.1716 40.1217C50.3683 34.5165 48.205 29.1079 44.0751 25.2727C44.3701 24.5844 44.6651 23.9943 44.8617 23.5027C44.9601 23.2076 45.0584 22.9126 45.1567 22.716L45.2551 22.4209C45.55 21.4376 45.845 20.4542 46.14 19.4708C46.2384 18.9791 46.3367 18.5858 46.435 18.0941V17.8974C46.5334 17.4057 46.5334 16.914 46.5334 16.324C46.5334 14.3573 46.2384 12.3905 45.4517 10.6204C45.0584 9.73541 44.9601 8.75204 44.9601 7.76866C44.9601 4.7202 46.6317 2.06509 48.6966 2.06509C50.7616 2.06509 52.4332 4.62186 52.4332 7.76866C52.4332 8.75204 52.2365 9.73541 51.9416 10.6204C51.1549 12.3905 50.7616 14.3573 50.8599 16.324C50.8599 16.8157 50.9582 17.4057 50.9582 17.8974V17.9958C51.0566 18.3891 51.1549 18.8808 51.2532 19.3725C51.4499 20.3559 51.7449 21.3392 52.1382 22.3226L52.2365 22.6176C52.3349 22.9126 52.4332 23.1093 52.5315 23.4043C52.7282 23.9943 53.0232 24.5844 53.3182 25.2727C53.8098 26.2561 54.3015 27.3378 55.0881 28.6162C57.1531 32.4514 58.1364 36.6799 58.0381 41.0067C58.0381 48.1854 55.4815 54.774 51.7449 57.1341Z" fill="#FFFFFF"/>
<path d="M38.3719 29.1079C38.3719 27.2395 36.7986 25.6661 34.9303 25.6661C33.062 25.6661 31.4887 27.2395 31.4887 29.1079C31.4887 30.9763 33.062 32.5497 34.9303 32.5497C36.7986 32.5497 38.3719 30.9763 38.3719 29.1079ZM34.9303 30.583C34.1437 30.583 33.4553 29.8946 33.4553 29.1079C33.4553 28.3212 34.1437 27.6328 34.9303 27.6328C35.717 27.6328 36.4053 28.3212 36.4053 29.1079C36.4053 29.8946 35.717 30.583 34.9303 30.583Z" fill="#FFFFFF"/>
<path d="M30.0138 33.5331C28.1455 33.5331 26.5722 35.1065 26.5722 36.9749C26.5722 38.8433 28.1455 40.4167 30.0138 40.4167C31.8821 40.4167 33.4553 38.8433 33.4553 36.9749C33.4553 35.1065 31.8821 33.5331 30.0138 33.5331ZM30.0138 38.45C29.2271 38.45 28.5388 37.7616 28.5388 36.9749C28.5388 36.1882 29.2271 35.4998 30.0138 35.4998C30.8004 35.4998 31.4887 36.1882 31.4887 36.9749C31.4887 37.7616 30.8004 38.45 30.0138 38.45Z" fill="#FFFFFF"/>
<path d="M39.8469 33.5331C37.9786 33.5331 36.4053 35.1065 36.4053 36.9749C36.4053 38.8433 37.9786 40.4167 39.8469 40.4167C41.7151 40.4167 43.2884 38.8433 43.2884 36.9749C43.2884 35.1065 41.7151 33.5331 39.8469 33.5331ZM39.8469 38.45C39.0602 38.45 38.3719 37.7616 38.3719 36.9749C38.3719 36.1882 39.0602 35.4998 39.8469 35.4998C40.6335 35.4998 41.3218 36.1882 41.3218 36.9749C41.3218 37.7616 40.6335 38.45 39.8469 38.45Z" fill="#FFFFFF"/>
</svg>
