<svg width="41" height="61" viewBox="0 0 41 61" fill="none" xmlns="http://www.w3.org/2000/svg">
<path d="M11.0838 60.1022C10.4838 60.1022 10.0838 59.7022 10.0838 59.1022V52.1022C10.0838 51.7022 10.2838 51.4022 10.5838 51.2022C10.8838 51.0022 11.2838 51.0022 11.5838 51.2022C11.9838 51.5022 12.4838 51.8022 12.9838 52.1022C13.4838 52.4022 13.9838 52.8022 14.3838 53.1022C14.7838 53.4022 15.1838 53.6022 15.4838 53.9022C16.8838 54.9022 18.1838 55.9022 19.8838 55.9022C21.5838 55.9022 22.8838 54.9022 24.2838 53.9022C24.6838 53.6022 24.9838 53.4022 25.3838 53.1022C25.7838 52.8022 26.1838 52.6022 26.4838 52.3022C27.0838 51.9022 27.6838 51.5022 28.1838 51.1022C28.4838 50.9022 28.8838 50.8022 29.2838 51.0022C29.5838 51.2022 29.8838 51.5022 29.8838 51.9022V58.9022C29.8838 59.5022 29.4838 59.9022 28.8838 59.9022C28.2838 59.9022 27.8838 59.5022 27.8838 58.9022V53.8022C27.7838 53.8022 27.7838 53.9022 27.6838 53.9022C27.2838 54.1022 26.9838 54.4022 26.5838 54.6022C26.1838 54.8022 25.8838 55.1022 25.4838 55.4022C24.0838 56.7022 22.2838 58.0022 19.9838 58.0022C17.6838 58.0022 15.8838 56.7022 14.3838 55.6022C14.0838 55.3022 13.6838 55.1022 13.2838 54.8022C12.8838 54.5022 12.4838 54.3022 12.0838 54.0022V59.1022C12.0838 59.7022 11.6838 60.1022 11.0838 60.1022Z" fill="#FFFFFF"/>
<path d="M19.8838 58.0022C17.5838 58.0022 15.7838 56.7022 14.2838 55.6022C13.9838 55.3022 13.5838 55.1022 13.1838 54.8022L12.4838 54.3022C10.7838 53.1022 8.9838 51.9022 7.4838 50.5022C2.6838 45.9022 1.9838 38.9022 1.9838 32.1022V23.0022C1.9838 22.3022 2.0838 21.2022 2.5838 20.3022C3.8838 17.2022 7.4838 15.8022 10.8838 17.0022C12.2838 17.5022 15.0838 18.0022 19.9838 18.0022C24.8838 18.0022 27.5838 17.4022 29.0838 17.0022C32.4838 15.8022 36.1838 17.3022 37.3838 20.4022C37.7838 21.3022 37.9838 22.2022 37.9838 23.1022V32.1022C37.9838 39.0022 37.2838 46.0022 32.2838 50.6022C30.7838 52.1022 28.9838 53.3022 27.2838 54.4022L26.5838 54.9022C26.1838 55.1022 25.8838 55.4022 25.4838 55.7022C23.9838 56.7022 22.1838 58.0022 19.8838 58.0022ZM8.4838 18.5022C6.6838 18.5022 5.0838 19.5022 4.3838 21.0022C4.3838 21.0022 4.3838 21.1022 4.2838 21.1022C4.0838 21.6022 3.9838 22.2022 3.9838 23.0022V32.1022C3.9838 38.0022 4.3838 44.8022 8.8838 49.1022C10.2838 50.5022 11.9838 51.6022 13.6838 52.7022L14.3838 53.2022C14.7838 53.5022 15.0838 53.7022 15.4838 54.0022C16.8838 55.0022 18.1838 56.0022 19.8838 56.0022C21.5838 56.0022 22.8838 55.0022 24.2838 54.0022C24.6838 53.7022 24.9838 53.5022 25.3838 53.2022L26.0838 52.7022C27.7838 51.6022 29.4838 50.4022 30.8838 49.1022C35.5838 44.8022 35.9838 38.0022 35.9838 32.0022V23.0022C35.9838 22.4022 35.8838 21.7022 35.5838 21.1022C34.6838 19.0022 32.1838 18.0022 29.7838 18.8022C27.3838 19.6022 24.1838 20.0022 19.9838 20.0022C15.7838 20.0022 12.5838 19.6022 10.2838 18.8022C9.6838 18.6022 9.0838 18.5022 8.4838 18.5022Z" fill="#FFFFFF"/>
<path d="M36.9838 29.9022C36.8838 29.9022 36.8838 29.9022 36.7838 29.9022C36.2838 29.8022 35.9838 29.4022 35.9838 28.9022V23.0022C35.9838 22.4022 35.8838 21.7022 35.5838 21.1022C34.6838 19.0022 32.1838 18.0022 29.7838 18.8022C27.3838 19.6022 24.1838 20.0022 19.9838 20.0022C15.7838 20.0022 12.5838 19.6022 10.2838 18.8022C7.8838 17.9022 5.2838 18.9022 4.3838 21.0022C4.0838 21.7022 3.9838 22.4022 3.9838 23.0022L3.9838 27.0022C3.9838 27.5022 3.5838 27.9022 3.1838 28.0022C2.6838 28.1022 2.1838 27.8022 2.0838 27.3022C-1.7162 15.5022 0.783803 10.2022 1.0838 9.60219C5.3838 -0.397805 19.3838 0.00219479 19.9838 0.00219479C20.4838 0.00219479 33.1838 -0.097805 38.6838 5.3022C38.9838 5.6022 39.0838 6.00219 38.8838 6.3022C38.6838 6.6022 38.4838 7.00219 38.0838 7.00219C36.2838 7.10219 34.3838 7.70219 33.9838 8.10219C34.0838 8.40219 34.3838 10.1022 36.0838 10.7022C38.6838 11.7022 40.5838 14.1022 40.8838 16.9022C41.2838 20.3022 40.2838 24.5022 37.8838 29.4022C37.6838 29.7022 37.3838 29.9022 36.9838 29.9022ZM31.4838 16.5022C34.0838 16.5022 36.4838 17.9022 37.3838 20.3022C37.7838 21.2022 37.9838 22.1022 37.9838 23.0022V23.7022C38.7838 21.1022 39.0838 18.9022 38.8838 17.0022C38.6838 15.0022 37.2838 13.2022 35.4838 12.5022C32.2838 11.4022 31.9838 8.2022 31.9838 8.10219C31.9838 6.50219 33.7838 5.8022 35.5838 5.40219C29.9838 1.90219 20.0838 2.00219 19.9838 2.00219C19.7838 2.00219 6.6838 1.60219 2.8838 10.4022V10.5022C2.8838 10.5022 1.2838 13.6022 2.4838 20.6022C2.4838 20.5022 2.5838 20.4022 2.5838 20.3022C3.8838 17.2022 7.4838 15.7022 10.9838 17.0022C12.3838 17.5022 15.1838 18.0022 20.0838 18.0022C24.9838 18.0022 27.6838 17.4022 29.1838 17.0022C29.8838 16.7022 30.6838 16.5022 31.4838 16.5022Z" fill="#FFFFFF"/>
</svg>
