<svg width="60" height="58" viewBox="0 0 60 58" fill="none" xmlns="http://www.w3.org/2000/svg">
<path fill-rule="evenodd" clip-rule="evenodd" d="M26.9999 0C27.5522 0 27.9999 0.447715 27.9999 1V2H31.9999V1C31.9999 0.447715 32.4476 0 32.9999 0C33.5522 0 33.9999 0.447715 33.9999 1V2H43C43.5523 2 44 2.44772 44 3V12H47.9999V11C47.9999 10.4477 48.4476 10 48.9999 10C49.5522 10 49.9999 10.4477 49.9999 11V12H53.9999V11C53.9999 10.4477 54.4476 10 54.9999 10C55.5522 10 55.9999 10.4477 55.9999 11V12H59C59.5523 12 60 12.4477 60 13V57C60 57.5523 59.5523 58 59 58H1C0.447715 58 0 57.5523 0 57V13C0 12.4477 0.447715 12 1 12H3.9999V11C3.9999 10.4477 4.44762 10 4.9999 10C5.55219 10 5.9999 10.4477 5.9999 11V12H9.9999V11C9.9999 10.4477 10.4476 10 10.9999 10C11.5522 10 11.9999 10.4477 11.9999 11V12H16V3C16 2.44772 16.4477 2 17 2H25.9999V1C25.9999 0.447715 26.4476 0 26.9999 0ZM18 4V56H21V47C21 46.4477 21.4477 46 22 46H38C38.5523 46 39 46.4477 39 47V56H42V4H18ZM44 56H58V50H44V56ZM44 48H58V14H44V48ZM37 56V48H30.9999V56H37ZM28.9999 56V48H23V56H28.9999ZM16 56V50H2V56H16ZM2 48H16V14H2V48ZM21.9999 10.999C21.9999 9.89472 22.8956 8.999 23.9999 8.999H25.9999C27.1042 8.999 27.9999 9.89472 27.9999 10.999V12.999C27.9999 14.1033 27.1042 14.999 25.9999 14.999H23.9999C22.8956 14.999 21.9999 14.1033 21.9999 12.999V10.999ZM25.9999 10.999H23.9999V12.999H25.9999V10.999ZM31.9999 10.999C31.9999 9.89472 32.8956 8.999 33.9999 8.999H35.9999C37.1042 8.999 37.9999 9.89472 37.9999 10.999V12.999C37.9999 14.1033 37.1042 14.999 35.9999 14.999H33.9999C32.8956 14.999 31.9999 14.1033 31.9999 12.999V10.999ZM35.9999 10.999H33.9999V12.999H35.9999V10.999ZM5.9999 18C5.9999 16.8957 6.89562 16 7.9999 16H9.9999C11.1042 16 11.9999 16.8957 11.9999 18V20C11.9999 21.1043 11.1042 22 9.9999 22H7.9999C6.89562 22 5.9999 21.1043 5.9999 20V18ZM9.9999 18H7.9999V20H9.9999V18ZM47.9999 18C47.9999 16.8957 48.8956 16 49.9999 16H51.9999C53.1042 16 53.9999 16.8957 53.9999 18V20C53.9999 21.1043 53.1042 22 51.9999 22H49.9999C48.8956 22 47.9999 21.1043 47.9999 20V18ZM51.9999 18H49.9999V20H51.9999V18ZM21.9999 19C21.9999 17.8957 22.8956 17 23.9999 17H25.9999C27.1042 17 27.9999 17.8957 27.9999 19V21C27.9999 22.1043 27.1042 23 25.9999 23H23.9999C22.8956 23 21.9999 22.1043 21.9999 21V19ZM25.9999 19H23.9999V21H25.9999V19ZM31.9999 19C31.9999 17.8957 32.8956 17 33.9999 17H35.9999C37.1042 17 37.9999 17.8957 37.9999 19V21C37.9999 22.1043 37.1042 23 35.9999 23H33.9999C32.8956 23 31.9999 22.1043 31.9999 21V19ZM35.9999 19H33.9999V21H35.9999V19ZM5.9999 26C5.9999 24.8957 6.89562 24 7.9999 24H9.9999C11.1042 24 11.9999 24.8957 11.9999 26V28C11.9999 29.1043 11.1042 30 9.9999 30H7.9999C6.89562 30 5.9999 29.1043 5.9999 28V26ZM9.9999 26H7.9999V28H9.9999V26ZM47.9999 26C47.9999 24.8957 48.8956 24 49.9999 24H51.9999C53.1042 24 53.9999 24.8957 53.9999 26V28C53.9999 29.1043 53.1042 30 51.9999 30H49.9999C48.8956 30 47.9999 29.1043 47.9999 28V26ZM51.9999 26H49.9999V28H51.9999V26ZM21.9999 27C21.9999 25.8957 22.8956 25 23.9999 25H25.9999C27.1042 25 27.9999 25.8957 27.9999 27V29C27.9999 30.1043 27.1042 31 25.9999 31H23.9999C22.8956 31 21.9999 30.1043 21.9999 29V27ZM25.9999 27H23.9999V29H25.9999V27ZM31.9999 27C31.9999 25.8957 32.8956 25 33.9999 25H35.9999C37.1042 25 37.9999 25.8957 37.9999 27V29C37.9999 30.1043 37.1042 31 35.9999 31H33.9999C32.8956 31 31.9999 30.1043 31.9999 29V27ZM35.9999 27H33.9999V29H35.9999V27ZM5.9999 34C5.9999 32.8957 6.89562 32 7.9999 32H9.9999C11.1042 32 11.9999 32.8957 11.9999 34V36C11.9999 37.1043 11.1042 38 9.9999 38H7.9999C6.89562 38 5.9999 37.1043 5.9999 36V34ZM9.9999 34H7.9999V36H9.9999V34ZM47.9999 34C47.9999 32.8957 48.8956 32 49.9999 32H51.9999C53.1042 32 53.9999 32.8957 53.9999 34V36C53.9999 37.1043 53.1042 38 51.9999 38H49.9999C48.8956 38 47.9999 37.1043 47.9999 36V34ZM51.9999 34H49.9999V36H51.9999V34ZM21.9999 35C21.9999 33.8957 22.8956 33 23.9999 33H25.9999C27.1042 33 27.9999 33.8957 27.9999 35V37C27.9999 38.1043 27.1042 39 25.9999 39H23.9999C22.8956 39 21.9999 38.1043 21.9999 37V35ZM25.9999 35H23.9999V37H25.9999V35ZM31.9999 35C31.9999 33.8957 32.8956 33 33.9999 33H35.9999C37.1042 33 37.9999 33.8957 37.9999 35V37C37.9999 38.1043 37.1042 39 35.9999 39H33.9999C32.8956 39 31.9999 38.1043 31.9999 37V35ZM35.9999 35H33.9999V37H35.9999V35ZM5.9999 42C5.9999 40.8957 6.89562 40 7.9999 40H9.9999C11.1042 40 11.9999 40.8957 11.9999 42V44C11.9999 45.1043 11.1042 46 9.9999 46H7.9999C6.89562 46 5.9999 45.1043 5.9999 44V42ZM9.9999 42H7.9999V44H9.9999V42ZM47.9999 42C47.9999 40.8957 48.8956 40 49.9999 40H51.9999C53.1042 40 53.9999 40.8957 53.9999 42V44C53.9999 45.1043 53.1042 46 51.9999 46H49.9999C48.8956 46 47.9999 45.1043 47.9999 44V42ZM51.9999 42H49.9999V44H51.9999V42Z" fill="#FFFFFF"/>
</svg>
