<svg width="60" height="60" viewBox="0 0 60 60" fill="none" xmlns="http://www.w3.org/2000/svg">
<path fill-rule="evenodd" clip-rule="evenodd" d="M4 1C4 0.447715 4.44772 0 5 0H55C55.5523 0 56 0.447715 56 1V54H59C59.5523 54 60 54.4477 60 55V59C60 59.5523 59.5523 60 59 60H1C0.447715 60 0 59.5523 0 59V55C0 54.4477 0.447715 54 1 54H4V1ZM6 54H21V43C21 42.4477 21.4477 42 22 42H38C38.5523 42 39 42.4477 39 43V54H54V2H6V54ZM37 54V44H31V54H37ZM29 54V44H23V54H29ZM2 56V58H58V56H2ZM10 6C10 5.44772 10.4477 5 11 5H19C19.5523 5 20 5.44772 20 6V12C20 12.5523 19.5523 13 19 13H11C10.4477 13 10 12.5523 10 12V6ZM12 7V11H18V7H12ZM25 6C25 5.44772 25.4477 5 26 5H34C34.5523 5 35 5.44772 35 6V12C35 12.5523 34.5523 13 34 13H26C25.4477 13 25 12.5523 25 12V6ZM27 7V11H33V7H27ZM40 6C40 5.44772 40.4477 5 41 5H49C49.5523 5 50 5.44772 50 6V12C50 12.5523 49.5523 13 49 13H41C40.4477 13 40 12.5523 40 12V6ZM42 7V11H48V7H42ZM10 17C10 16.4477 10.4477 16 11 16H19C19.5523 16 20 16.4477 20 17V23C20 23.5523 19.5523 24 19 24H11C10.4477 24 10 23.5523 10 23V17ZM12 18V22H18V18H12ZM25 17C25 16.4477 25.4477 16 26 16H34C34.5523 16 35 16.4477 35 17V23C35 23.5523 34.5523 24 34 24H26C25.4477 24 25 23.5523 25 23V17ZM27 18V22H33V18H27ZM40 17C40 16.4477 40.4477 16 41 16H49C49.5523 16 50 16.4477 50 17V23C50 23.5523 49.5523 24 49 24H41C40.4477 24 40 23.5523 40 23V17ZM42 18V22H48V18H42ZM10 28C10 27.4477 10.4477 27 11 27H19C19.5523 27 20 27.4477 20 28V34C20 34.5523 19.5523 35 19 35H11C10.4477 35 10 34.5523 10 34V28ZM12 29V33H18V29H12ZM25 28C25 27.4477 25.4477 27 26 27H34C34.5523 27 35 27.4477 35 28V34C35 34.5523 34.5523 35 34 35H26C25.4477 35 25 34.5523 25 34V28ZM27 29V33H33V29H27ZM40 28C40 27.4477 40.4477 27 41 27H49C49.5523 27 50 27.4477 50 28V34C50 34.5523 49.5523 35 49 35H41C40.4477 35 40 34.5523 40 34V28ZM42 29V33H48V29H42ZM22.9999 39C22.9999 38.4477 23.4476 38 23.9999 38H35.9999C36.5522 38 36.9999 38.4477 36.9999 39C36.9999 39.5523 36.5522 40 35.9999 40H23.9999C23.4476 40 22.9999 39.5523 22.9999 39Z" fill="#FFFFFF"/>
</svg>
