<svg width="60" height="60" viewBox="0 0 60 60" fill="none" xmlns="http://www.w3.org/2000/svg">
<path d="M20 56.9H5V37.4L5.4 37.1C5.8 36.8 14.2 30.4 19 34C20.6 35.2 22.6 35.9 24.7 35.9H28.6C31.6 35.9 34.3 37.3 35.8 39.6C36.6 40.9 36.8 42 36.4 42.9C38.9 42.9 41.5 42.6 42.8 42L51.4 36.7C55.7 34.4 57.5 34.4 59.3 36.8C60.2 38.1 60 39.9 58.8 40.8L43.7 52.7C43 53.4 41.9 54.2 40.4 54.3C40.1 54.3 40 54.3 39.8 54.3C39.6 54.3 39.3 54.3 39.1 54.4L26.2 56.4C23.9 56.7 21.8 56.9 20 56.9ZM7 54.9H20C21.7 54.9 23.7 54.7 25.9 54.4L39 52.4C39.2 52.4 39.4 52.4 39.5 52.4C39.8 52.4 40 52.3 40.3 52.3C40.9 52.2 41.6 51.9 42.4 51.1L57.7 39.3C58 39 58.1 38.5 57.8 38.1C56.9 36.9 56.5 36.3 52.5 38.5L43.8 43.8C41.2 45.1 35.9 45 32.4 45C32.3 45 32.1 45 32 45C31.4 45 30.9 45 30.7 45L30.8 43C31.1 43 31.5 43 32 43C33.2 42.9 34.5 42.7 34.7 42.2C34.8 42 34.7 41.4 34.3 40.8C33 39 30.9 37.9 28.6 37.9H24.7C22.1 37.9 19.7 37.1 17.8 35.6C15 33.5 9.4 36.7 7 38.4V54.9Z" fill="#FFFFFF"/>
<path d="M7 59.9H0V33.9H7V59.9ZM2 57.9H5V35.9H2V57.9Z" fill="#FFFFFF"/>
<path d="M17 47.9C16.4 47.9 16 47.5 16 46.9C16 44.4 17.9 42.9 21 42.9H30.7C31.3 42.9 31.7 43.3 31.7 43.9C31.7 44.5 31.3 44.9 30.7 44.9H21C18 44.9 18 46.4 18 46.9C18 47.5 17.6 47.9 17 47.9Z" fill="#FFFFFF"/>
<path d="M29 37.9C28.4 37.9 28 37.5 28 36.9V22.9C28 22.3 28.4 21.9 29 21.9C29.6 21.9 30 22.3 30 22.9V36.9C30 37.5 29.6 37.9 29 37.9Z" fill="#FFFFFF"/>
<path d="M30 25.9H28C26.3 25.9 25 24.6 25 22.9V20.9C25 19.2 26.3 17.9 28 17.9H30C31.7 17.9 33 19.2 33 20.9V22.9C33 24.6 31.7 25.9 30 25.9ZM28 19.9C27.4 19.9 27 20.3 27 20.9V22.9C27 23.5 27.4 23.9 28 23.9H30C30.6 23.9 31 23.5 31 22.9V20.9C31 20.3 30.6 19.9 30 19.9H28Z" fill="#FFFFFF"/>
<path d="M20 56.9H5V37.4L5.4 37.1C5.8 36.8 14.2 30.4 19 34C20.6 35.2 22.6 35.9 24.7 35.9H28.6C31.6 35.9 34.3 37.3 35.8 39.6C36.6 40.9 36.8 42 36.4 42.9C38.9 42.9 41.5 42.6 42.8 42L51.4 36.7C55.7 34.4 57.5 34.4 59.3 36.8C60.2 38.1 60 39.9 58.8 40.8L43.7 52.7C43 53.4 41.9 54.2 40.4 54.3C40.1 54.3 40 54.3 39.8 54.3C39.6 54.3 39.3 54.3 39.1 54.4L26.2 56.4C23.9 56.7 21.8 56.9 20 56.9ZM7 54.9H20C21.7 54.9 23.7 54.7 25.9 54.4L39 52.4C39.2 52.4 39.4 52.4 39.5 52.4C39.8 52.4 40 52.3 40.3 52.3C40.9 52.2 41.6 51.9 42.4 51.1L57.7 39.3C58 39 58.1 38.5 57.8 38.1C56.9 36.9 56.5 36.3 52.5 38.5L43.8 43.8C41.2 45.1 35.9 45 32.4 45C32.3 45 32.1 45 32 45C31.4 45 30.9 45 30.7 45L30.8 43C31.1 43 31.5 43 32 43C33.2 42.9 34.5 42.7 34.7 42.2C34.8 42 34.7 41.4 34.3 40.8C33 39 30.9 37.9 28.6 37.9H24.7C22.1 37.9 19.7 37.1 17.8 35.6C15 33.5 9.4 36.7 7 38.4V54.9Z" fill="#FFFFFF"/>
<path d="M36 40.9H34.3L34 40.5C32.7 38.9 30.7 37.9 28.6 37.9H24.7C24 37.9 23.2 37.8 22.6 37.7L21.9 37.6L21.8 36.9C21.2 32.5 20.1 29.3 18.8 28.1C15.3 24.6 13.6 19.8 14.1 15C14.8 7.9 21.1 0 29 0C37.8 0 45 7.5 45 16.8C45 21.6 43.3 25.7 40.2 28.5C38 30.5 36 36.5 36 40V40.9ZM23.7 35.8C24 35.8 24.4 35.9 24.7 35.9H28.6C30.6 35.9 32.6 36.6 34.2 37.9C34.7 34.2 36.4 29.2 38.9 27C41.6 24.6 43.1 21 43.1 16.7C43 8.5 36.7 1.9 29 1.9C22.4 1.9 16.7 8.9 16.1 15.1C15.7 19.3 17.2 23.5 20.2 26.6C22.1 28.4 23.1 32.5 23.7 35.8Z" fill="#FFFFFF"/>
</svg>
