<svg width="61" height="61" viewBox="0 0 61 61" fill="none" xmlns="http://www.w3.org/2000/svg">
<path d="M17 60.0154H1C0.4 60.0154 0 59.6154 0 59.0154V3.01543C0 2.41543 0.4 2.01543 1 2.01543H17C17.6 2.01543 18 2.41543 18 3.01543V59.0154C18 59.6154 17.6 60.0154 17 60.0154ZM2 58.0154H16V4.01543H2V58.0154Z" fill="#FFFFFF"/>
<path d="M43 60.0154C42.8 60.0154 42.6 59.9154 42.4 59.8154C42.2 59.6154 42 59.4154 42 59.2154L32.2 4.01543C32.2 3.71543 32.2 3.51543 32.4 3.31543C32.5 3.01543 32.8 2.91543 33 2.81543L48.8 0.0154261C49.3 -0.0845739 49.9 0.315426 50 0.815426L60 55.8154C60.1 56.3154 59.7 56.9154 59.2 57.0154L43.2 60.0154C43.1 60.0154 43.1 60.0154 43 60.0154ZM34.4 4.61543L43.8 57.8154L57.8 55.2154L48.2 2.21543L34.4 4.61543Z" fill="#FFFFFF"/>
<path d="M13 27.0154H5C4.4 27.0154 4 26.6154 4 26.0154V10.0154C4 9.41543 4.4 9.01543 5 9.01543H13C13.6 9.01543 14 9.41543 14 10.0154V26.0154C14 26.6154 13.6 27.0154 13 27.0154ZM6 25.0154H12V11.0154H6V25.0154Z" fill="#FFFFFF"/>
<path d="M9 56.0154C6.2 56.0154 4 53.8154 4 51.0154C4 48.2154 6.2 46.0154 9 46.0154C11.8 46.0154 14 48.2154 14 51.0154C14 53.8154 11.8 56.0154 9 56.0154ZM9 48.0154C7.3 48.0154 6 49.3154 6 51.0154C6 52.7154 7.3 54.0154 9 54.0154C10.7 54.0154 12 52.7154 12 51.0154C12 49.3154 10.7 48.0154 9 48.0154Z" fill="#FFFFFF"/>
<path d="M13 23.0154H5C4.4 23.0154 4 22.6154 4 22.0154C4 21.4154 4.4 21.0154 5 21.0154H13C13.6 21.0154 14 21.4154 14 22.0154C14 22.6154 13.6 23.0154 13 23.0154Z" fill="#FFFFFF"/>
<path d="M13 19.0154H5C4.4 19.0154 4 18.6154 4 18.0154C4 17.4154 4.4 17.0154 5 17.0154H13C13.6 17.0154 14 17.4154 14 18.0154C14 18.6154 13.6 19.0154 13 19.0154Z" fill="#FFFFFF"/>
<path d="M13 15.0154H5C4.4 15.0154 4 14.6154 4 14.0154C4 13.4154 4.4 13.0154 5 13.0154H13C13.6 13.0154 14 13.4154 14 14.0154C14 14.6154 13.6 15.0154 13 15.0154Z" fill="#FFFFFF"/>
<path d="M33 60.0154H17C16.4 60.0154 16 59.6154 16 59.0154V3.01543C16 2.41543 16.4 2.01543 17 2.01543H33C33.6 2.01543 34 2.41543 34 3.01543V59.0154C34 59.6154 33.6 60.0154 33 60.0154ZM18 58.0154H32V4.01543H18V58.0154Z" fill="#FFFFFF"/>
<path d="M29 27.0154H21C20.4 27.0154 20 26.6154 20 26.0154V10.0154C20 9.41543 20.4 9.01543 21 9.01543H29C29.6 9.01543 30 9.41543 30 10.0154V26.0154C30 26.6154 29.6 27.0154 29 27.0154ZM22 25.0154H28V11.0154H22V25.0154Z" fill="#FFFFFF"/>
<path d="M25 56.0154C22.2 56.0154 20 53.8154 20 51.0154C20 48.2154 22.2 46.0154 25 46.0154C27.8 46.0154 30 48.2154 30 51.0154C30 53.8154 27.8 56.0154 25 56.0154ZM25 48.0154C23.3 48.0154 22 49.3154 22 51.0154C22 52.7154 23.3 54.0154 25 54.0154C26.7 54.0154 28 52.7154 28 51.0154C28 49.3154 26.7 48.0154 25 48.0154Z" fill="#FFFFFF"/>
<path d="M29 23.0154H21C20.4 23.0154 20 22.6154 20 22.0154C20 21.4154 20.4 21.0154 21 21.0154H29C29.6 21.0154 30 21.4154 30 22.0154C30 22.6154 29.6 23.0154 29 23.0154Z" fill="#FFFFFF"/>
<path d="M29 19.0154H21C20.4 19.0154 20 18.6154 20 18.0154C20 17.4154 20.4 17.0154 21 17.0154H29C29.6 17.0154 30 17.4154 30 18.0154C30 18.6154 29.6 19.0154 29 19.0154Z" fill="#FFFFFF"/>
<path d="M29 15.0154H21C20.4 15.0154 20 14.6154 20 14.0154C20 13.4154 20.4 13.0154 21 13.0154H29C29.6 13.0154 30 13.4154 30 14.0154C30 14.6154 29.6 15.0154 29 15.0154Z" fill="#FFFFFF"/>
<path d="M41.2 26.7154C40.7 26.7154 40.3 26.4154 40.2 25.9154L37.4 10.2154C37.4 9.91543 37.4 9.71543 37.6 9.51543C37.7 9.21543 38 9.11543 38.2 9.01543L46.1 7.61543C46.7 7.51543 47.2 7.91543 47.3 8.41543L50.1 24.1154C50.1 24.4154 50.1 24.6154 49.9 24.8154C49.7 25.0154 49.5 25.2154 49.3 25.2154L41.4 26.6154C41.3 26.7154 41.3 26.7154 41.2 26.7154ZM39.6 10.8154L42 24.5154L47.9 23.4154L45.5 9.81543L39.6 10.8154Z" fill="#FFFFFF"/>
<path d="M49.5 54.7154C48.5 54.7154 47.6 54.4154 46.7 53.8154C45.6 53.0154 44.9 51.9154 44.6 50.6154C44.4 49.3154 44.6 48.0154 45.4 46.9154C46.2 45.8154 47.3 45.1154 48.6 44.8154C49.9 44.6154 51.2 44.8154 52.3 45.6154C53.4 46.4154 54.1 47.5154 54.4 48.8154C54.9 51.4154 53.1 54.1154 50.4 54.6154C50.1 54.6154 49.8 54.7154 49.5 54.7154ZM49.5 46.7154C49.3 46.7154 49.1 46.7154 49 46.8154C48.2 46.9154 47.5 47.4154 47.1 48.0154C46.7 48.6154 46.5 49.4154 46.6 50.2154C46.7 51.0154 47.2 51.7154 47.8 52.1154C48.5 52.5154 49.2 52.7154 50 52.6154C50.8 52.5154 51.4 52.0154 51.9 51.3154C52.4 50.6154 52.5 49.9154 52.4 49.1154C52.3 48.3154 51.8 47.6154 51.2 47.2154C50.7 46.9154 50.1 46.7154 49.5 46.7154Z" fill="#FFFFFF"/>
<path d="M40.5 22.8154C40 22.8154 39.6 22.5154 39.5 22.0154C39.4 21.5154 39.8 20.9154 40.3 20.8154L48.2 19.4154C48.8 19.3154 49.3 19.7154 49.4 20.2154C49.5 20.7154 49.1 21.3154 48.6 21.4154L40.7 22.8154C40.6 22.8154 40.6 22.8154 40.5 22.8154Z" fill="#FFFFFF"/>
<path d="M39.8 18.9154C39.3 18.9154 38.9 18.6154 38.8 18.1154C38.7 17.6154 39.1 17.0154 39.6 16.9154L47.5 15.5154C48.1 15.4154 48.6 15.8154 48.7 16.3154C48.8 16.8154 48.4 17.4154 47.9 17.5154L40 18.9154C39.9 18.9154 39.9 18.9154 39.8 18.9154Z" fill="#FFFFFF"/>
<path d="M39.1 14.9154C38.6 14.9154 38.2 14.6154 38.1 14.1154C38 13.6154 38.4 13.0154 38.9 12.9154L46.8 11.5154C47.4 11.4154 47.9 11.8154 48 12.3154C48.1 12.8154 47.7 13.4154 47.2 13.5154L39.3 14.9154C39.2 14.9154 39.2 14.9154 39.1 14.9154Z" fill="#FFFFFF"/>
</svg>
