<svg width="60" height="60" viewBox="0 0 60 60" fill="none" xmlns="http://www.w3.org/2000/svg">
<path fill-rule="evenodd" clip-rule="evenodd" d="M16 7C16 6.44772 16.4477 6 17 6H20C20.5523 6 21 6.44772 21 7C21 7.55228 20.5523 8 20 8H17C16.4477 8 16 7.55228 16 7Z" fill="#FFFFFF"/>
<path fill-rule="evenodd" clip-rule="evenodd" d="M1 7C1 6.44772 1.44772 6 2 6H17C17.5523 6 18 6.44772 18 7C18 7.55228 17.5523 8 17 8H3V18C3 18.5523 2.55228 19 2 19C1.44772 19 1 18.5523 1 18V7Z" fill="#FFFFFF"/>
<path fill-rule="evenodd" clip-rule="evenodd" d="M42 7C42 6.44772 42.4477 6 43 6H58C58.5523 6 59 6.44772 59 7V18C59 18.5523 58.5523 19 58 19C57.4477 19 57 18.5523 57 18V8H43C42.4477 8 42 7.55228 42 7Z" fill="#FFFFFF"/>
<path fill-rule="evenodd" clip-rule="evenodd" d="M1 7C1 6.44772 1.44772 6 2 6H17C17.5523 6 18 6.44772 18 7C18 7.55228 17.5523 8 17 8H3V57H57V8H43C42.4477 8 42 7.55228 42 7C42 6.44772 42.4477 6 43 6H58C58.5523 6 59 6.44772 59 7V58C59 58.5523 58.5523 59 58 59H2C1.44772 59 1 58.5523 1 58V7Z" fill="#FFFFFF"/>
<path fill-rule="evenodd" clip-rule="evenodd" d="M21 4C19.3433 4 18 5.34328 18 7C18 7.55228 17.5523 8 17 8C16.4477 8 16 7.55228 16 7C16 4.23872 18.2387 2 21 2C23.7613 2 26 4.23872 26 7C26 9.76128 23.7613 12 21 12C20.4477 12 20 11.5523 20 11C20 10.4477 20.4477 10 21 10C22.6567 10 24 8.65672 24 7C24 5.34328 22.6567 4 21 4Z" fill="#FFFFFF"/>
<path fill-rule="evenodd" clip-rule="evenodd" d="M26 3C26 2.44772 26.4477 2 27 2C29.7613 2 32 4.23872 32 7C32 9.76128 29.7613 12 27 12C26.4477 12 26 11.5523 26 11C26 10.4477 26.4477 10 27 10C28.6567 10 30 8.65672 30 7C30 5.34328 28.6567 4 27 4C26.4477 4 26 3.55228 26 3Z" fill="#FFFFFF"/>
<path fill-rule="evenodd" clip-rule="evenodd" d="M32 3C32 2.44772 32.4477 2 33 2C35.7613 2 38 4.23872 38 7C38 9.76128 35.7613 12 33 12C32.4477 12 32 11.5523 32 11C32 10.4477 32.4477 10 33 10C34.6567 10 36 8.65672 36 7C36 5.34328 34.6567 4 33 4C32.4477 4 32 3.55228 32 3Z" fill="#FFFFFF"/>
<path fill-rule="evenodd" clip-rule="evenodd" d="M38 3C38 2.44772 38.4477 2 39 2C41.7613 2 44 4.23872 44 7C44 9.76128 41.7613 12 39 12C38.4477 12 38 11.5523 38 11C38 10.4477 38.4477 10 39 10C40.6567 10 42 8.65672 42 7C42 5.34328 40.6567 4 39 4C38.4477 4 38 3.55228 38 3Z" fill="#FFFFFF"/>
<path fill-rule="evenodd" clip-rule="evenodd" d="M1 16C1 15.4477 1.44772 15 2 15H16C16.5523 15 17 15.4477 17 16V30C17 30.5523 16.5523 31 16 31H2C1.44772 31 1 30.5523 1 30V16ZM3 17V29H15V17H3Z" fill="#FFFFFF"/>
<path fill-rule="evenodd" clip-rule="evenodd" d="M1 30C1 29.4477 1.44772 29 2 29H16C16.5523 29 17 29.4477 17 30V44C17 44.5523 16.5523 45 16 45H2C1.44772 45 1 44.5523 1 44V30ZM3 31V43H15V31H3Z" fill="#FFFFFF"/>
<path fill-rule="evenodd" clip-rule="evenodd" d="M1 44C1 43.4477 1.44772 43 2 43H16C16.5523 43 17 43.4477 17 44V58C17 58.5523 16.5523 59 16 59H2C1.44772 59 1 58.5523 1 58V44ZM3 45V57H15V45H3Z" fill="#FFFFFF"/>
<path fill-rule="evenodd" clip-rule="evenodd" d="M15 16C15 15.4477 15.4477 15 16 15H30C30.5523 15 31 15.4477 31 16V30C31 30.5523 30.5523 31 30 31H16C15.4477 31 15 30.5523 15 30V16ZM17 17V29H29V17H17Z" fill="#FFFFFF"/>
<path fill-rule="evenodd" clip-rule="evenodd" d="M15 30C15 29.4477 15.4477 29 16 29H30C30.5523 29 31 29.4477 31 30V44C31 44.5523 30.5523 45 30 45H16C15.4477 45 15 44.5523 15 44V30ZM17 31V43H29V31H17Z" fill="#FFFFFF"/>
<path fill-rule="evenodd" clip-rule="evenodd" d="M15 44C15 43.4477 15.4477 43 16 43H30C30.5523 43 31 43.4477 31 44V58C31 58.5523 30.5523 59 30 59H16C15.4477 59 15 58.5523 15 58V44ZM17 45V57H29V45H17Z" fill="#FFFFFF"/>
<path fill-rule="evenodd" clip-rule="evenodd" d="M29 16C29 15.4477 29.4477 15 30 15H44C44.5523 15 45 15.4477 45 16V30C45 30.5523 44.5523 31 44 31H30C29.4477 31 29 30.5523 29 30V16ZM31 17V29H43V17H31Z" fill="#FFFFFF"/>
<path fill-rule="evenodd" clip-rule="evenodd" d="M29 30C29 29.4477 29.4477 29 30 29H44C44.5523 29 45 29.4477 45 30V44C45 44.5523 44.5523 45 44 45H30C29.4477 45 29 44.5523 29 44V30ZM31 31V43H43V31H31Z" fill="#FFFFFF"/>
<path fill-rule="evenodd" clip-rule="evenodd" d="M29 44C29 43.4477 29.4477 43 30 43H44C44.5523 43 45 43.4477 45 44V58C45 58.5523 44.5523 59 44 59H30C29.4477 59 29 58.5523 29 58V44ZM31 45V57H43V45H31Z" fill="#FFFFFF"/>
<path fill-rule="evenodd" clip-rule="evenodd" d="M43 16C43 15.4477 43.4477 15 44 15H58C58.5523 15 59 15.4477 59 16V30C59 30.5523 58.5523 31 58 31H44C43.4477 31 43 30.5523 43 30V16ZM45 17V29H57V17H45Z" fill="#FFFFFF"/>
<path fill-rule="evenodd" clip-rule="evenodd" d="M43 30C43 29.4477 43.4477 29 44 29H58C58.5523 29 59 29.4477 59 30V44C59 44.5523 58.5523 45 58 45H44C43.4477 45 43 44.5523 43 44V30ZM45 31V43H57V31H45Z" fill="#FFFFFF"/>
<path fill-rule="evenodd" clip-rule="evenodd" d="M32.2929 32.2929C32.6834 31.9024 33.3166 31.9024 33.7071 32.2929L37 35.5858L40.2929 32.2929C40.6834 31.9024 41.3166 31.9024 41.7071 32.2929C42.0976 32.6834 42.0976 33.3166 41.7071 33.7071L38.4142 37L41.7071 40.2929C42.0976 40.6834 42.0976 41.3166 41.7071 41.7071C41.3166 42.0976 40.6834 42.0976 40.2929 41.7071L37 38.4142L33.7071 41.7071C33.3166 42.0976 32.6834 42.0976 32.2929 41.7071C31.9024 41.3166 31.9024 40.6834 32.2929 40.2929L35.5858 37L32.2929 33.7071C31.9024 33.3166 31.9024 32.6834 32.2929 32.2929ZM43 44C43 43.4477 43.4477 43 44 43H58C58.5523 43 59 43.4477 59 44V58C59 58.5523 58.5523 59 58 59H44C43.4477 59 43 58.5523 43 58V44ZM45 45V57H57V45H45Z" fill="#FFFFFF"/>
</svg>
