<svg width="60" height="60" viewBox="0 0 60 60" fill="none" xmlns="http://www.w3.org/2000/svg">
<path d="M58 11H57.6L56.5 8.6C56.5 8.6 56.5 8.5 56.4 8.5C55.8 7.7 54.9 7.2 53.9 7.2H50C49 7.2 48.1 7.7 47.5 8.5L47.4 8.6L46.4 11H35.2L35.4 10.9C35.8 10.7 36 10.4 36 10V9C36 8.4 35.6 8 35 8C34.4 8 34 8.4 34 9V9.4L32.8 10H27.3L26 9.4V9C26 8.4 25.6 8 25 8C24.4 8 24 8.4 24 9V10C24 10.4 24.2 10.7 24.6 10.9L24.8 11H21V9C21 7.9 20.1 7 19 7H17C15.9 7 15 7.9 15 9V11H13.6L12.5 8.6C12.5 8.6 12.5 8.5 12.4 8.5C11.8 7.7 10.9 7.2 9.9 7.2H6.1C5.1 7.2 4.2 7.7 3.6 8.5L3.5 8.6L2.4 11H2C0.9 11 0 11.9 0 13V51C0 52.1 0.9 53 2 53H58C59.1 53 60 52.1 60 51V13C60 11.9 59.1 11 58 11ZM43.9 46.4C44.2 46 44.5 45.6 44.8 45.2C44.9 45.1 45 45 45 44.8C45.2 44.4 45.5 44.1 45.7 43.7C45.7 43.6 45.8 43.5 45.8 43.5C46 43 46.3 42.6 46.5 42.1C46.6 42 46.6 41.9 46.6 41.7C46.8 41.3 46.9 40.9 47 40.5C47 40.4 47.1 40.3 47.1 40.1C47.2 39.7 47.3 39.3 47.4 38.8C49 39.1 50.5 38.4 51.4 37C52.3 35.7 52.3 34 51.4 32.6C50.5 31.3 49 30.6 47.4 30.8C47.3 30.3 47.2 29.8 47 29.3C46.7 28.4 46.3 27.5 45.9 26.6C45.4 25.6 44.8 24.7 44.1 23.8H58V46.8H43.4C43.6 46.8 43.7 46.6 43.9 46.4ZM47.9 36.6C47.9 36.1 48 35.5 48 35C48 34.3 48 33.7 47.9 33H48C49.1 33 50 33.9 50 35C50 36.1 49.1 37 48 37H47.9C47.9 36.9 47.9 36.8 47.9 36.6ZM40.6 20.5C40.1 20.1 39.5 19.8 39 19.4V17H47V22H42.4C42.2 21.8 42 21.6 41.8 21.5C41.6 21.3 41.5 21.2 41.3 21C41.1 20.8 40.8 20.7 40.6 20.5ZM35.5 17.9C35.3 17.8 35 17.8 34.8 17.7C34.4 17.6 34.1 17.5 33.7 17.4C33.6 17.4 33.5 17.4 33.3 17.3C32.5 17.1 31.7 17 30.9 17H36.9V18.4C36.6 18.3 36.4 18.2 36.1 18.1C36 18 35.7 17.9 35.5 17.9ZM54 17V22H49V17H54ZM49.3 9.5C49.5 9.3 49.8 9.1 50.1 9.1H54C54.3 9.1 54.6 9.2 54.8 9.5L55.4 11H48.5L49.3 9.5ZM17 9H19V11H17V9ZM5.3 9.5C5.5 9.3 5.8 9.1 6.1 9.1H10C10.3 9.1 10.6 9.2 10.8 9.5L11.4 11H4.6L5.3 9.5ZM58 13V22H56V17C56 15.9 55.1 15 54 15H31C30.5 15 30 15.2 29.6 15.6C29.2 16 29 16.5 29 17C24.7 17.2 20.7 19 17.6 21.9H2V13H58ZM12.1 36.6C12.1 36.7 12.1 36.9 12.1 37C12.2 37.4 12.2 37.9 12.3 38.3C12.3 38.4 12.3 38.5 12.4 38.6C12.5 39.1 12.6 39.6 12.8 40.1C12.8 40.2 12.9 40.3 12.9 40.5C13 40.9 13.2 41.3 13.3 41.7C13.3 41.8 13.4 41.9 13.4 42.1C13.6 42.6 13.8 43 14.1 43.5C14.1 43.6 14.2 43.7 14.2 43.7C14.4 44.1 14.6 44.4 14.9 44.8C15 44.9 15.1 45 15.1 45.2C15.4 45.6 15.7 46 16 46.4C16.2 46.6 16.3 46.8 16.5 47H2V24H15.8C13.3 27.1 12 31 12 35C12 35.6 12 36.1 12.1 36.6ZM21.8 51H2V49H18.7C19.1 49.3 19.5 49.6 19.8 49.8C19.9 49.9 20 49.9 20.1 50C20.4 50.2 20.8 50.4 21.2 50.6C21.3 50.7 21.4 50.7 21.5 50.8C21.6 50.9 21.7 51 21.8 51ZM14 35C14 30.8 15.7 26.7 18.6 23.8L18.7 23.7C21.7 20.7 25.7 19.1 29.9 19.1C30.3 19.1 30.8 19.1 31.2 19.2C31.4 19.2 31.7 19.2 31.9 19.3C32.2 19.3 32.4 19.4 32.7 19.4C33 19.4 33.2 19.5 33.5 19.5C33.7 19.5 33.9 19.6 34.1 19.7C34.4 19.8 34.7 19.9 34.9 19.9C35.1 20 35.2 20 35.4 20.1C35.7 20.2 36 20.3 36.3 20.5C36.4 20.5 36.5 20.6 36.6 20.6C37.6 21.1 38.5 21.6 39.4 22.2C39.6 22.4 39.8 22.5 40 22.7C40.2 22.8 40.3 23 40.5 23.1C40.8 23.3 41.1 23.6 41.3 23.8C42.5 25 43.5 26.3 44.2 27.8C44.6 28.6 44.9 29.4 45.2 30.2C47.1 36.2 45.3 42.8 40.6 47C35.9 51.2 29.2 52.3 23.4 49.7C17.6 47.1 14 41.3 14 35ZM38.2 51C38.3 51 38.3 50.9 38.4 50.9C38.5 50.8 38.6 50.8 38.7 50.7C39.1 50.5 39.4 50.3 39.8 50.1C39.9 50 40 50 40.1 49.9C40.5 49.6 40.9 49.4 41.2 49.1H58V51.1H38.2V51Z" fill="#FFFFFF"/>
<path d="M44 35C44 33.6 43.8 32.1 43.3 30.7C43.1 30 42.8 29.3 42.4 28.6C41.7 27.3 40.9 26.1 39.8 25.1C35.1 20.4 27.7 19.6 22.1 23.3C16.5 27 14.4 34.1 16.9 40.3C19.4 46.5 26 50 32.6 48.7C39.3 47.4 44 41.7 44 35ZM18 35C18 30.1 20.9 25.8 25.4 23.9C29.9 22 35.1 23.1 38.5 26.5C39.4 27.4 40.1 28.4 40.7 29.5C41 30.1 41.3 30.7 41.4 31.3C42.8 35.8 41.5 40.7 38 43.9C34.5 47.1 29.4 47.8 25.1 45.9C20.8 44 18 39.7 18 35Z" fill="#FFFFFF"/>
<path d="M40 35C40 34 39.8 32.9 39.5 32C39.3 31.5 39.1 31 38.9 30.5C38.4 29.6 37.8 28.7 37.1 28C33.7 24.6 28.4 24.1 24.5 26.7C20.6 29.3 19 34.4 20.8 38.8C22.6 43.2 27.3 45.7 32 44.8C36.7 43.9 40 39.8 40 35ZM22 35C22 31.8 24 28.8 26.9 27.6C29.9 26.4 33.3 27.1 35.6 29.3C36.2 29.9 36.7 30.6 37.1 31.3C37.3 31.7 37.5 32.1 37.6 32.5C38.6 35.5 37.7 38.8 35.3 40.9C32.9 43 29.6 43.5 26.7 42.2C23.9 41 22 38.2 22 35Z" fill="#FFFFFF"/>
<path d="M34 35C34 35.6 33.9 36.1 33.7 36.6C33.6 36.9 33.6 37.3 33.8 37.6C34 37.9 34.4 38 34.7 38C35.1 38 35.4 37.7 35.5 37.4C35.8 36.6 36 35.8 36 35C36 34.4 35.6 34 35 34C34.4 34 34 34.4 34 35Z" fill="#FFFFFF"/>
<path d="M32.8 32.2C33.2 32.6 33.8 32.6 34.2 32.2C34.6 31.8 34.6 31.2 34.2 30.8C33 29.6 31.3 28.9 29.5 29C27.8 29.1 26.2 30 25.1 31.4C24.8 31.8 24.9 32.5 25.3 32.8C25.7 33.1 26.4 33 26.7 32.6C27.4 31.7 28.5 31.1 29.6 31C30.9 30.9 32 31.4 32.8 32.2Z" fill="#FFFFFF"/>
<path d="M5 20H7C7.6 20 8 19.6 8 19C8 18.4 7.6 18 7 18H5C4.4 18 4 18.4 4 19C4 19.6 4.4 20 5 20Z" fill="#FFFFFF"/>
<path d="M11 20H16C16.6 20 17 19.6 17 19C17 18.4 16.6 18 16 18H11C10.4 18 10 18.4 10 19C10 19.6 10.4 20 11 20Z" fill="#FFFFFF"/>
</svg>
