<svg width="60" height="60" viewBox="0 0 60 60" fill="none" xmlns="http://www.w3.org/2000/svg">
<path d="M11.98 47.0433C8.08652 47.0433 4.99168 43.9484 4.99168 40.0549C4.99168 36.1614 8.08652 33.0666 11.98 33.0666C15.8735 33.0666 18.9684 36.1614 18.9684 40.0549C18.9684 43.9484 15.8735 47.0433 11.98 47.0433ZM11.98 35.0632C9.18469 35.0632 6.98835 37.2596 6.98835 40.0549C6.98835 42.8502 9.18469 45.0466 11.98 45.0466C14.7754 45.0466 16.9717 42.8502 16.9717 40.0549C16.9717 37.2596 14.7754 35.0632 11.98 35.0632Z" fill="#FFFFFF"/>
<path d="M13.9767 40.0549C13.9767 41.1531 13.0782 42.0516 11.98 42.0516C10.8819 42.0516 9.98336 41.1531 9.98336 40.0549C9.98336 38.9567 10.8819 38.0582 11.98 38.0582C13.0782 38.0582 13.9767 38.9567 13.9767 40.0549Z" fill="#FFFFFF"/>
<path d="M47.9201 47.0433C44.0266 47.0433 40.9318 43.9484 40.9318 40.0549C40.9318 36.1614 44.0266 33.0666 47.9201 33.0666C51.8136 33.0666 54.9085 36.1614 54.9085 40.0549C54.9085 43.9484 51.8136 47.0433 47.9201 47.0433ZM47.9201 35.0632C45.1248 35.0632 42.9285 37.2596 42.9285 40.0549C42.9285 42.8502 45.1248 45.0466 47.9201 45.0466C50.7155 45.0466 52.9118 42.8502 52.9118 40.0549C52.9118 37.2596 50.7155 35.0632 47.9201 35.0632Z" fill="#FFFFFF"/>
<path d="M49.9168 40.0549C49.9168 41.1531 49.0183 42.0516 47.9201 42.0516C46.822 42.0516 45.9235 41.1531 45.9235 40.0549C45.9235 38.9567 46.822 38.0582 47.9201 38.0582C49.0183 38.0582 49.9168 38.9567 49.9168 40.0549Z" fill="#FFFFFF"/>
<path d="M55.9068 41.0532H52.9118V40.0549C52.9118 37.2596 50.7155 35.0632 47.9201 35.0632C45.1248 35.0632 42.9285 37.2596 42.9285 40.0549V41.0532H16.9717V40.0549C16.9717 37.2596 14.7754 35.0632 11.98 35.0632C9.18469 35.0632 6.98835 37.2596 6.98835 40.0549V41.0532H3.49418C1.4975 41.0532 0 39.5557 0 37.5591V28.574C0 27.1764 1.198 26.0782 2.59567 26.0782C3.79368 26.0782 4.79201 25.4792 5.29118 24.4809L10.2829 16.2945C11.5807 14.198 13.8769 13 16.2729 13H36.5391C39.0349 13 41.2313 14.198 42.5291 16.2945L46.0233 21.8852C47.5208 24.381 50.2163 25.9784 53.411 26.0782H57.5042C58.9018 26.0782 60 27.1764 60 28.574V37.0599C59.9002 39.2562 58.1032 41.0532 55.9068 41.0532ZM54.8087 39.0566H55.9068C57.005 39.0566 57.9035 38.1581 57.9035 37.0599V28.6739C57.9035 28.4742 57.604 28.1747 57.4043 28.1747H53.3111C49.5175 28.0749 46.1231 26.178 44.2263 22.9834L40.7321 17.3927C39.8336 15.8952 38.3361 15.0965 36.5391 15.0965H16.2729C14.5757 15.0965 12.9784 15.995 11.98 17.3927L6.98835 25.4792C6.18968 27.0765 4.49251 28.0749 2.59567 28.0749C2.19634 28.0749 1.99667 28.3744 1.99667 28.574V37.5591C1.99667 38.3577 2.69551 39.0566 3.49418 39.0566H5.09151C5.59068 35.6622 8.48586 33.0666 11.98 33.0666C15.4742 33.0666 18.3694 35.6622 18.8686 39.0566H40.9318C41.431 35.6622 44.3261 33.0666 47.8203 33.0666C51.3145 33.0666 54.3095 35.6622 54.8087 39.0566Z" fill="#FFFFFF"/>
<path d="M48.7188 24.98H15.7737C14.7754 24.98 13.9767 24.1814 13.9767 23.183V18.8902C13.9767 17.8918 14.7754 17.0932 15.7737 17.0932H43.0283L46.0233 22.0849C46.223 22.584 46.7221 22.9834 47.0216 23.2829L48.7188 24.98ZM15.9734 22.9834H44.2263L41.8303 19.0898H15.9734V22.9834Z" fill="#FFFFFF"/>
<path d="M30.9484 18.0915H28.9517V24.0815H30.9484V18.0915Z" fill="#FFFFFF"/>
<path d="M34.9418 30.0715H29.9501C29.3511 30.0715 28.9517 29.6722 28.9517 29.0732C28.9517 28.4742 29.3511 28.0749 29.9501 28.0749H34.9418C35.5408 28.0749 35.9401 28.4742 35.9401 29.0732C35.9401 29.6722 35.5408 30.0715 34.9418 30.0715Z" fill="#FFFFFF"/>
<path d="M34.9418 32.0682C34.3428 32.0682 33.9434 31.6689 33.9434 31.0699V29.0732C33.9434 28.4742 34.3428 28.0749 34.9418 28.0749C35.5408 28.0749 35.9401 28.4742 35.9401 29.0732V31.0699C35.9401 31.6689 35.5408 32.0682 34.9418 32.0682Z" fill="#FFFFFF"/>
<path d="M58.9018 33.0666H54.9085C54.3095 33.0666 53.9102 32.6672 53.9102 32.0682C53.9102 31.4692 54.3095 31.0699 54.9085 31.0699H58.9018C59.5008 31.0699 59.9002 31.4692 59.9002 32.0682C59.9002 32.6672 59.5008 33.0666 58.9018 33.0666Z" fill="#FFFFFF"/>
<path d="M4.99168 33.0666H0.998336C0.399334 33.0666 0 32.6672 0 32.0682C0 31.4692 0.399334 31.0699 0.998336 31.0699H4.99168C5.59068 31.0699 5.99002 31.4692 5.99002 32.0682C5.99002 32.6672 5.59068 33.0666 4.99168 33.0666Z" fill="#FFFFFF"/>
</svg>
