<svg width="61" height="44" viewBox="0 0 61 44" fill="none" xmlns="http://www.w3.org/2000/svg">
<path d="M40.8234 11H36.7234C36.3234 11 35.9234 10.7 35.7234 10.3C34.9234 7.7 32.6234 6 30.0234 6C27.4234 6 25.1234 7.7 24.3234 10.3C24.2234 10.7 23.8234 11 23.3234 11H19.2234C18.9234 11 18.6234 10.9 18.4234 10.6C18.2234 10.4 18.1234 10.1 18.2234 9.8C19.2234 4.1 24.2234 0 30.0234 0C35.8234 0 40.8234 4.1 41.8234 9.8C41.9234 10.1 41.8234 10.4 41.6234 10.6C41.4234 10.9 41.1234 11 40.8234 11ZM37.4234 9H39.5234C38.2234 4.9 34.4234 2 30.0234 2C25.6234 2 21.7234 4.9 20.5234 9H22.6234C23.8234 6 26.7234 4 30.0234 4C33.3234 4 36.2234 6 37.4234 9Z" fill="#FFFFFF"/>
<path d="M30.0234 30C26.6234 30 24.0234 27.4 24.0234 24C24.0234 20.6 26.6234 18 30.0234 18C33.4234 18 36.0234 20.6 36.0234 24C36.0234 27.4 33.4234 30 30.0234 30ZM30.0234 20C27.8234 20 26.0234 21.8 26.0234 24C26.0234 26.2 27.8234 28 30.0234 28C32.2234 28 34.0234 26.2 34.0234 24C34.0234 21.8 32.2234 20 30.0234 20Z" fill="#FFFFFF"/>
<path d="M40.0234 25H35.0234C34.4234 25 34.0234 24.6 34.0234 24C34.0234 21.8 32.2234 20 30.0234 20C27.8234 20 26.0234 21.8 26.0234 24C26.0234 24.6 25.6234 25 25.0234 25H20.0234C17.2234 25 15.0234 22.8 15.0234 20V14C15.0234 11.2 17.2234 9 20.0234 9H40.0234C42.8234 9 45.0234 11.2 45.0234 14V20C45.0234 22.8 42.8234 25 40.0234 25ZM35.9234 23H40.0234C41.7234 23 43.0234 21.7 43.0234 20V14C43.0234 12.3 41.7234 11 40.0234 11H20.0234C18.3234 11 17.0234 12.3 17.0234 14V20C17.0234 21.7 18.3234 23 20.0234 23H24.1234C24.6234 20.1 27.0234 18 30.0234 18C33.0234 18 35.5234 20.1 35.9234 23Z" fill="#FFFFFF"/>
<path d="M53.5234 44H6.72341C4.72341 44 2.82341 43.1 1.52341 41.6C0.323409 40.1 -0.276591 38.2 0.123409 36.3L3.32341 17.5C3.82341 14.4 6.62341 12 9.82341 12H16.1234C16.7234 12 17.1234 12.4 17.1234 13C17.1234 13.2 17.1234 13.4 17.0234 13.6C17.0234 13.7 17.0234 13.9 17.0234 14V20C17.0234 21.7 18.3234 23 20.0234 23H25.0234C25.6234 23 26.0234 23.4 26.0234 24C26.0234 26.2 27.8234 28 30.0234 28C32.2234 28 34.0234 26.2 34.0234 24C34.0234 23.4 34.4234 23 35.0234 23H40.0234C41.7234 23 43.0234 21.7 43.0234 20V14C43.0234 13.8 43.0234 13.5 43.0234 13.3C42.9234 13 43.0234 12.7 43.1234 12.4C43.3234 12.1 43.6234 12 43.9234 12H50.3234C53.5234 12 56.3234 14.4 56.9234 17.5L60.0234 36.3C60.3234 38.2 59.7234 40.2 58.4234 41.7C57.2234 43.2 55.4234 44 53.5234 44ZM9.82341 14C7.62341 14 5.62341 15.7 5.32341 17.8L2.12341 36.7C1.92341 38 2.22341 39.3 3.12341 40.4C4.02341 41.4 5.32341 42 6.72341 42H53.5234C54.8234 42 56.0234 41.4 56.9234 40.4C57.8234 39.4 58.2234 38 58.0234 36.6L54.9234 17.8C54.5234 15.6 52.5234 13.9 50.3234 13.9H45.0234V19.9C45.0234 22.7 42.8234 24.9 40.0234 24.9H35.9234C35.4234 27.8 33.0234 29.9 30.0234 29.9C27.0234 29.9 24.5234 27.8 24.1234 24.9H20.0234C17.2234 24.9 15.0234 22.7 15.0234 19.9V13.9H9.82341V14Z" fill="#FFFFFF"/>
<path d="M31.0234 24C31.0234 24.6 30.6234 25 30.0234 25C29.4234 25 29.0234 24.6 29.0234 24C29.0234 23.4 29.4234 23 30.0234 23C30.6234 23 31.0234 23.4 31.0234 24Z" fill="#FFFFFF"/>
<path d="M53.4234 44H48.0234C47.4234 44 47.0234 43.6 47.0234 43C47.0234 42.8 47.0234 42.7 47.1234 42.6V35C47.1234 32.2 49.3234 30 52.1234 30H58.1234C58.6234 30 59.0234 30.4 59.1234 30.9L59.9234 36.4C60.2234 38.3 59.7234 40.2 58.5234 41.7C57.2234 43.1 55.4234 44 53.4234 44ZM49.1234 42H53.4234C54.8234 42 56.1234 41.4 56.9234 40.4C57.8234 39.4 58.1234 38 57.9234 36.7L57.2234 32H52.1234C50.4234 32 49.1234 33.3 49.1234 35V42Z" fill="#FFFFFF"/>
<path d="M12.0234 44H6.72341C4.72341 44 2.82341 43.1 1.52341 41.6C0.323409 40.1 -0.276591 38.2 0.123409 36.3L1.02341 30.8C1.12341 30.4 1.52341 30 2.02341 30H8.02341C10.8234 30 13.0234 32.2 13.0234 35V43C13.0234 43.6 12.6234 44 12.0234 44ZM2.82341 32L2.02341 36.7C1.82341 38 2.12341 39.3 3.02341 40.4C4.02341 41.4 5.32341 42 6.72341 42H11.0234V35C11.0234 33.3 9.72341 32 8.02341 32H2.82341Z" fill="#FFFFFF"/>
<path d="M30.0234 44C29.4234 44 29.0234 43.6 29.0234 43V29C29.0234 28.4 29.4234 28 30.0234 28C30.6234 28 31.0234 28.4 31.0234 29V43C31.0234 43.6 30.6234 44 30.0234 44Z" fill="#FFFFFF"/>
</svg>
