<svg width="60" height="60" viewBox="0 0 60 60" fill="none" xmlns="http://www.w3.org/2000/svg">
<path d="M57 60H3C1.3 60 0 58.7 0 57V54C0 52.3 1.3 51 3 51H57C58.7 51 60 52.3 60 54V57C60 58.7 58.7 60 57 60ZM3 53C2.4 53 2 53.4 2 54V57C2 57.6 2.4 58 3 58H57C57.6 58 58 57.6 58 57V54C58 53.4 57.6 53 57 53H3Z" fill="#FFFFFF"/>
<path d="M22 53H6C5.4 53 5 52.6 5 52V24.6C5 22.9 6.3 21.6 8 21.6H20C21.7 21.6 23 22.9 23 24.6V52C23 52.6 22.6 53 22 53ZM7 51H21V24.6C21 24 20.6 23.6 20 23.6H8C7.4 23.6 7 24 7 24.6V51Z" fill="#FFFFFF"/>
<path d="M38 53H22C21.4 53 21 52.6 21 52V14.9C21 13.2 22.3 11.9 24 11.9H36C37.7 11.9 39 13.2 39 14.9V52C39 52.6 38.6 53 38 53ZM23 51H37V14.9C37 14.3 36.6 13.9 36 13.9H24C23.4 13.9 23 14.3 23 14.9V51Z" fill="#FFFFFF"/>
<path d="M54 53H38C37.4 53 37 52.6 37 52V3C37 1.3 38.3 0 40 0H52C53.7 0 55 1.3 55 3V52C55 52.6 54.6 53 54 53ZM39 51H53V3C53 2.4 52.6 2 52 2H40C39.4 2 39 2.4 39 3V51Z" fill="#FFFFFF"/>
<path d="M6 48C5.7 48 5.5 47.9 5.3 47.7C4.9 47.3 4.9 46.7 5.3 46.3L21.3 30.3C21.7 29.9 22.3 29.9 22.7 30.3C23.1 30.7 23.1 31.3 22.7 31.7L6.7 47.7C6.5 47.9 6.3 48 6 48Z" fill="#FFFFFF"/>
<path d="M22 48C21.7 48 21.5 47.9 21.3 47.7C20.9 47.3 20.9 46.7 21.3 46.3L37.3 30.3C37.7 29.9 38.3 29.9 38.7 30.3C39.1 30.7 39.1 31.3 38.7 31.7L22.7 47.7C22.5 47.9 22.3 48 22 48Z" fill="#FFFFFF"/>
<path d="M38 48C37.7 48 37.5 47.9 37.3 47.7C36.9 47.3 36.9 46.7 37.3 46.3L53.3 30.3C53.7 29.9 54.3 29.9 54.7 30.3C55.1 30.7 55.1 31.3 54.7 31.7L38.7 47.7C38.5 47.9 38.3 48 38 48Z" fill="#FFFFFF"/>
</svg>
