<svg width="60" height="60" viewBox="0 0 60 60" fill="none" xmlns="http://www.w3.org/2000/svg">
<path fill-rule="evenodd" clip-rule="evenodd" d="M30 32C30.5523 32 31 32.4477 31 33V51C31 51.5523 30.5523 52 30 52C29.4477 52 29 51.5523 29 51V33C29 32.4477 29.4477 32 30 32Z" fill="#FFFFFF"/>
<path fill-rule="evenodd" clip-rule="evenodd" d="M16 44C12.6863 44 10 46.6863 10 50V51C10 51.5523 9.55228 52 9 52C8.44772 52 8 51.5523 8 51V50C8 45.5817 11.5817 42 16 42H44C48.4183 42 52 45.5817 52 50V51C52 51.5523 51.5523 52 51 52C50.4477 52 50 51.5523 50 51V50C50 46.6863 47.3137 44 44 44H16Z" fill="#FFFFFF"/>
<path fill-rule="evenodd" clip-rule="evenodd" d="M2 51C2 50.4477 2.44772 50 3 50H15C15.5523 50 16 50.4477 16 51V59C16 59.5523 15.5523 60 15 60H3C2.44772 60 2 59.5523 2 59V51ZM4 52V58H14V52H4Z" fill="#FFFFFF"/>
<path fill-rule="evenodd" clip-rule="evenodd" d="M2 1C2 0.447715 2.44772 0 3 0H57C57.5523 0 58 0.447715 58 1V33C58 33.5523 57.5523 34 57 34H3C2.44772 34 2 33.5523 2 33V1ZM4 2V32H56V2H4Z" fill="#FFFFFF"/>
<path fill-rule="evenodd" clip-rule="evenodd" d="M23 51C23 50.4477 23.4477 50 24 50H36C36.5523 50 37 50.4477 37 51V59C37 59.5523 36.5523 60 36 60H24C23.4477 60 23 59.5523 23 59V51ZM25 52V58H35V52H25Z" fill="#FFFFFF"/>
<path fill-rule="evenodd" clip-rule="evenodd" d="M44 51C44 50.4477 44.4477 50 45 50H57C57.5523 50 58 50.4477 58 51V59C58 59.5523 57.5523 60 57 60H45C44.4477 60 44 59.5523 44 59V51ZM46 52V58H56V52H46Z" fill="#FFFFFF"/>
<path fill-rule="evenodd" clip-rule="evenodd" d="M2 1C2 0.447715 2.44772 0 3 0H57C57.5523 0 58 0.447715 58 1V9C58 9.55229 57.5523 10 57 10H3C2.44772 10 2 9.55229 2 9V1ZM4 2V8H56V2H4Z" fill="#FFFFFF"/>
<path fill-rule="evenodd" clip-rule="evenodd" d="M6 5C6 4.44772 6.44772 4 7 4H8C8.55228 4 9 4.44772 9 5C9 5.55228 8.55228 6 8 6H7C6.44772 6 6 5.55228 6 5Z" fill="#FFFFFF"/>
<path fill-rule="evenodd" clip-rule="evenodd" d="M11 5C11 4.44772 11.4477 4 12 4H13C13.5523 4 14 4.44772 14 5C14 5.55228 13.5523 6 13 6H12C11.4477 6 11 5.55228 11 5Z" fill="#FFFFFF"/>
<path fill-rule="evenodd" clip-rule="evenodd" d="M16 5C16 4.44772 16.4477 4 17 4H18C18.5523 4 19 4.44772 19 5C19 5.55228 18.5523 6 18 6H17C16.4477 6 16 5.55228 16 5Z" fill="#FFFFFF"/>
<path fill-rule="evenodd" clip-rule="evenodd" d="M16 16C16 15.4477 16.4477 15 17 15H43C43.5523 15 44 15.4477 44 16C44 16.5523 43.5523 17 43 17H17C16.4477 17 16 16.5523 16 16Z" fill="#FFFFFF"/>
<path fill-rule="evenodd" clip-rule="evenodd" d="M14 21C14 20.4477 14.4477 20 15 20H45C45.5523 20 46 20.4477 46 21C46 21.5523 45.5523 22 45 22H15C14.4477 22 14 21.5523 14 21Z" fill="#FFFFFF"/>
<path fill-rule="evenodd" clip-rule="evenodd" d="M12 26C12 25.4477 12.4477 25 13 25H47C47.5523 25 48 25.4477 48 26C48 26.5523 47.5523 27 47 27H13C12.4477 27 12 26.5523 12 26Z" fill="#FFFFFF"/>
</svg>
