<svg width="60" height="60" viewBox="0 0 60 60" fill="none" xmlns="http://www.w3.org/2000/svg">
<path d="M60 4H31V1C31 0.4 30.6 0 30 0C29.4 0 29 0.4 29 1V4H0V46H27.6L15.3 58.3C14.9 58.7 14.9 59.3 15.3 59.7C15.5 59.9 15.8 60 16 60C16.3 60 16.5 59.9 16.7 59.7L29 47.4V57C29 57.6 29.4 58 30 58C30.6 58 31 57.6 31 57V47.4L43.3 59.7C43.5 59.9 43.8 60 44 60C44.2 60 44.5 59.9 44.7 59.7C45.1 59.3 45.1 58.7 44.7 58.3L32.4 46H60V4ZM2 6H58V44H2V6Z" fill="#FFFFFF"/>
<path d="M36 42C36.6 42 37 41.6 37 41V38C37 37.4 36.6 37 36 37C35.4 37 35 37.4 35 38V41C35 41.6 35.4 42 36 42Z" fill="#FFFFFF"/>
<path d="M40 33C39.4 33 39 33.4 39 34V41C39 41.6 39.4 42 40 42C40.6 42 41 41.6 41 41V34C41 33.4 40.6 33 40 33Z" fill="#FFFFFF"/>
<path d="M44 35C43.4 35 43 35.4 43 36V41C43 41.6 43.4 42 44 42C44.6 42 45 41.6 45 41V36C45 35.4 44.6 35 44 35Z" fill="#FFFFFF"/>
<path d="M48 28C47.4 28 47 28.4 47 29V41C47 41.6 47.4 42 48 42C48.6 42 49 41.6 49 41V29C49 28.4 48.6 28 48 28Z" fill="#FFFFFF"/>
<path d="M52 32C51.4 32 51 32.4 51 33V41C51 41.6 51.4 42 52 42C52.6 42 53 41.6 53 41V33C53 32.4 52.6 32 52 32Z" fill="#FFFFFF"/>
<path d="M8 38H18C18.6 38 19 37.6 19 37C19 36.4 18.6 36 18 36H8C7.4 36 7 36.4 7 37C7 37.6 7.4 38 8 38Z" fill="#FFFFFF"/>
<path d="M8 42H23C23.6 42 24 41.6 24 41C24 40.4 23.6 40 23 40H8C7.4 40 7 40.4 7 41C7 41.6 7.4 42 8 42Z" fill="#FFFFFF"/>
<path d="M39 15H47C47.6 15 48 14.6 48 14C48 13.4 47.6 13 47 13H39C38.4 13 38 13.4 38 14C38 14.6 38.4 15 39 15Z" fill="#FFFFFF"/>
<path d="M51.3 13.3C51.1 13.5 51 13.7 51 14C51 14.3 51.1 14.5 51.3 14.7C51.5 14.9 51.7 15 52 15C52.3 15 52.5 14.9 52.7 14.7C52.9 14.5 53 14.3 53 14C53 13.7 52.9 13.5 52.7 13.3C52.3 12.9 51.6 12.9 51.3 13.3Z" fill="#FFFFFF"/>
<path d="M49 10H52C52.6 10 53 9.6 53 9C53 8.4 52.6 8 52 8H49C48.4 8 48 8.4 48 9C48 9.6 48.4 10 49 10Z" fill="#FFFFFF"/>
<path d="M39 10H41C41.6 10 42 9.6 42 9C42 8.4 41.6 8 41 8H39C38.4 8 38 8.4 38 9C38 9.6 38.4 10 39 10Z" fill="#FFFFFF"/>
<path d="M45 10C45.3 10 45.5 9.9 45.7 9.7C45.9 9.5 46 9.3 46 9C46 8.7 45.9 8.5 45.7 8.3C45.3 7.9 44.6 7.9 44.3 8.3C44.1 8.5 44 8.7 44 9C44 9.3 44.1 9.5 44.3 9.7C44.5 9.9 44.7 10 45 10Z" fill="#FFFFFF"/>
<path d="M26.9 27.4C28.5 25.7 29.6 23.5 30 21H20.5L26.9 27.4Z" fill="#FFFFFF"/>
<path d="M18.5 31C21.1 31 23.4 30.2 25.3 28.7L17.7 21H17V20.1C17 20 17 19.2 17 19.1V8.1C11.4 8.8 7 13.6 7 19.5C7 25.8 12.2 31 18.5 31Z" fill="#FFFFFF"/>
<path d="M19 8V19H30C29.7 13 25 8.3 19 8Z" fill="#FFFFFF"/>
</svg>
