<svg width="60" height="60" viewBox="0 0 60 60" fill="none" xmlns="http://www.w3.org/2000/svg">
<path d="M60 8H0V0H60V8ZM2 6H58V2H2V6Z" fill="#FFFFFF"/>
<path d="M59 50H1C0.4 50 0 49.6 0 49C0 48.4 0.4 48 1 48H59C59.6 48 60 48.4 60 49C60 49.6 59.6 50 59 50Z" fill="#FFFFFF"/>
<path d="M30 53C29.4 53 29 52.6 29 52V49C29 48.4 29.4 48 30 48C30.6 48 31 48.4 31 49V52C31 52.6 30.6 53 30 53Z" fill="#FFFFFF"/>
<path d="M30 60C27.8 60 26 58.2 26 56C26 53.8 27.8 52 30 52C32.2 52 34 53.8 34 56C34 58.2 32.2 60 30 60ZM30 54C28.9 54 28 54.9 28 56C28 57.1 28.9 58 30 58C31.1 58 32 57.1 32 56C32 54.9 31.1 54 30 54Z" fill="#FFFFFF"/>
<path d="M58 50H2V6H58V50ZM4 48H56V8H4V48Z" fill="#FFFFFF"/>
<path d="M18 20C18 20.6 18.4 21 19 21C19.6 21 20 20.6 20 20C20 19.4 19.6 19 19 19C18.4 19 18 19.4 18 20Z" fill="#FFFFFF"/>
<path d="M22 20C22 20.6 22.4 21 23 21C23.6 21 24 20.6 24 20C24 19.4 23.6 19 23 19C22.4 19 22 19.4 22 20Z" fill="#FFFFFF"/>
<path d="M20 22C20 22.6 20.4 23 21 23C21.6 23 22 22.6 22 22C22 21.4 21.6 21 21 21C20.4 21 20 21.4 20 22Z" fill="#FFFFFF"/>
<path d="M18 24C18 24.6 18.4 25 19 25C19.6 25 20 24.6 20 24C20 23.4 19.6 23 19 23C18.4 23 18 23.4 18 24Z" fill="#FFFFFF"/>
<path d="M22 24C22 24.6 22.4 25 23 25C23.6 25 24 24.6 24 24C24 23.4 23.6 23 23 23C22.4 23 22 23.4 22 24Z" fill="#FFFFFF"/>
<path d="M20 26C20 26.6 20.4 27 21 27C21.6 27 22 26.6 22 26C22 25.4 21.6 25 21 25C20.4 25 20 25.4 20 26Z" fill="#FFFFFF"/>
<path d="M18 28C18 28.6 18.4 29 19 29C19.6 29 20 28.6 20 28C20 27.4 19.6 27 19 27C18.4 27 18 27.4 18 28Z" fill="#FFFFFF"/>
<path d="M22 28C22 28.6 22.4 29 23 29C23.6 29 24 28.6 24 28C24 27.4 23.6 27 23 27C22.4 27 22 27.4 22 28Z" fill="#FFFFFF"/>
<path d="M20 30C20 30.6 20.4 31 21 31C21.6 31 22 30.6 22 30C22 29.4 21.6 29 21 29C20.4 29 20 29.4 20 30Z" fill="#FFFFFF"/>
<path d="M18 32C18 32.6 18.4 33 19 33C19.6 33 20 32.6 20 32C20 31.4 19.6 31 19 31C18.4 31 18 31.4 18 32Z" fill="#FFFFFF"/>
<path d="M22 32C22 32.6 22.4 33 23 33C23.6 33 24 32.6 24 32C24 31.4 23.6 31 23 31C22.4 31 22 31.4 22 32Z" fill="#FFFFFF"/>
<path d="M20 34C20 34.6 20.4 35 21 35C21.6 35 22 34.6 22 34C22 33.4 21.6 33 21 33C20.4 33 20 33.4 20 34Z" fill="#FFFFFF"/>
<path d="M18 36C18 36.6 18.4 37 19 37C19.6 37 20 36.6 20 36C20 35.4 19.6 35 19 35C18.4 35 18 35.4 18 36Z" fill="#FFFFFF"/>
<path d="M22 36C22 36.6 22.4 37 23 37C23.6 37 24 36.6 24 36C24 35.4 23.6 35 23 35C22.4 35 22 35.4 22 36Z" fill="#FFFFFF"/>
<path d="M18 40C18 40.6 18.4 41 19 41C19.6 41 20 40.6 20 40C20 39.4 19.6 39 19 39C18.4 39 18 39.4 18 40Z" fill="#FFFFFF"/>
<path d="M22 40C22 40.6 22.4 41 23 41C23.6 41 24 40.6 24 40C24 39.4 23.6 39 23 39C22.4 39 22 39.4 22 40Z" fill="#FFFFFF"/>
<path d="M20 38C20 38.6 20.4 39 21 39C21.6 39 22 38.6 22 38C22 37.4 21.6 37 21 37C20.4 37 20 37.4 20 38Z" fill="#FFFFFF"/>
<path d="M19 42H11V24H19V42ZM13 40H17V26H13V40Z" fill="#FFFFFF"/>
<path d="M25 42H17V18H25V42ZM19 40H23V20H19V40Z" fill="#FFFFFF"/>
<path d="M31 42H23V28H31V42ZM25 40H29V30H25V40Z" fill="#FFFFFF"/>
<path d="M37 42H29V22H37V42ZM31 40H35V24H31V40Z" fill="#FFFFFF"/>
<path d="M43 42H35V15H43V42ZM37 40H41V17H37V40Z" fill="#FFFFFF"/>
<path d="M49 42H41V18H49V42ZM43 40H47V20H43V40Z" fill="#FFFFFF"/>
<path d="M52 42H8C7.4 42 7 41.6 7 41C7 40.4 7.4 40 8 40H52C52.6 40 53 40.4 53 41C53 41.6 52.6 42 52 42Z" fill="#FFFFFF"/>
</svg>
