<svg width="60" height="60" viewBox="0 0 60 60" fill="none" xmlns="http://www.w3.org/2000/svg">
<path d="M23 16H8C7.4 16 7 15.6 7 15C7 14.4 7.4 14 8 14H23C23.6 14 24 14.4 24 15C24 15.6 23.6 16 23 16Z" fill="#FFFFFF"/>
<path d="M17 13H8C7.4 13 7 12.6 7 12C7 11.4 7.4 11 8 11H17C17.6 11 18 11.4 18 12C18 12.6 17.6 13 17 13Z" fill="#FFFFFF"/>
<path d="M23 19H8C7.4 19 7 18.6 7 18C7 17.4 7.4 17 8 17H23C23.6 17 24 17.4 24 18C24 18.6 23.6 19 23 19Z" fill="#FFFFFF"/>
<path d="M60 46H0V4H60V46ZM2 44H58V6H2V44Z" fill="#FFFFFF"/>
<path d="M30 6C29.4 6 29 5.6 29 5V1C29 0.4 29.4 0 30 0C30.6 0 31 0.4 31 1V5C31 5.6 30.6 6 30 6Z" fill="#FFFFFF"/>
<path d="M30 58C29.4 58 29 57.6 29 57V45C29 44.4 29.4 44 30 44C30.6 44 31 44.4 31 45V57C31 57.6 30.6 58 30 58Z" fill="#FFFFFF"/>
<path d="M44 60C43.7 60 43.5 59.9 43.3 59.7L29.3 45.7C28.9 45.3 28.9 44.7 29.3 44.3C29.7 43.9 30.3 43.9 30.7 44.3L44.7 58.3C45.1 58.7 45.1 59.3 44.7 59.7C44.5 59.9 44.3 60 44 60Z" fill="#FFFFFF"/>
<path d="M16 60C15.7 60 15.5 59.9 15.3 59.7C14.9 59.3 14.9 58.7 15.3 58.3L29.3 44.3C29.7 43.9 30.3 43.9 30.7 44.3C31.1 44.7 31.1 45.3 30.7 45.7L16.7 59.7C16.5 59.9 16.3 60 16 60Z" fill="#FFFFFF"/>
<path d="M12 38C11.7 38 11.5 37.9 11.3 37.7C10.9 37.3 10.9 36.7 11.3 36.3L23.9 23.7C24.3 23.3 24.9 23.3 25.3 23.7C25.7 24.1 25.7 24.7 25.3 25.1L12.7 37.7C12.5 37.9 12.3 38 12 38Z" fill="#FFFFFF"/>
<path d="M33.6 34.4C33.3 34.4 33.1 34.3 32.9 34.1L23.9 25.1C23.5 24.7 23.5 24.1 23.9 23.7C24.3 23.3 24.9 23.3 25.3 23.7L34.3 32.7C34.7 33.1 34.7 33.7 34.3 34.1C34.1 34.3 33.9 34.4 33.6 34.4Z" fill="#FFFFFF"/>
<path d="M33.6 34.4C33.3 34.4 33.1 34.3 32.9 34.1C32.5 33.7 32.5 33.1 32.9 32.7L47.3 18.3C47.7 17.9 48.3 17.9 48.7 18.3C49.1 18.7 49.1 19.3 48.7 19.7L34.3 34.1C34.1 34.3 33.9 34.4 33.6 34.4Z" fill="#FFFFFF"/>
<path d="M48 27C47.4 27 47 26.6 47 26V19C47 18.4 47.4 18 48 18C48.6 18 49 18.4 49 19V26C49 26.6 48.6 27 48 27Z" fill="#FFFFFF"/>
<path d="M48 20H41C40.4 20 40 19.6 40 19C40 18.4 40.4 18 41 18H48C48.6 18 49 18.4 49 19C49 19.6 48.6 20 48 20Z" fill="#FFFFFF"/>
</svg>
