<svg width="60" height="60" viewBox="0 0 60 60" fill="none" xmlns="http://www.w3.org/2000/svg">
<path d="M60 8H0V0H60V8ZM2 6H58V2H2V6Z" fill="#FFFFFF"/>
<path d="M59 50H1C0.4 50 0 49.6 0 49C0 48.4 0.4 48 1 48H59C59.6 48 60 48.4 60 49C60 49.6 59.6 50 59 50Z" fill="#FFFFFF"/>
<path d="M30 53C29.4 53 29 52.6 29 52V49C29 48.4 29.4 48 30 48C30.6 48 31 48.4 31 49V52C31 52.6 30.6 53 30 53Z" fill="#FFFFFF"/>
<path d="M30 60C27.8 60 26 58.2 26 56C26 53.8 27.8 52 30 52C32.2 52 34 53.8 34 56C34 58.2 32.2 60 30 60ZM30 54C28.9 54 28 54.9 28 56C28 57.1 28.9 58 30 58C31.1 58 32 57.1 32 56C32 54.9 31.1 54 30 54Z" fill="#FFFFFF"/>
<path d="M58 50H2V6H58V50ZM4 48H56V8H4V48Z" fill="#FFFFFF"/>
<path d="M19 19H8C7.4 19 7 18.6 7 18C7 17.4 7.4 17 8 17H19C19.6 17 20 17.4 20 18C20 18.6 19.6 19 19 19Z" fill="#FFFFFF"/>
<path d="M13 15H8C7.4 15 7 14.6 7 14C7 13.4 7.4 13 8 13H13C13.6 13 14 13.4 14 14C14 14.6 13.6 15 13 15Z" fill="#FFFFFF"/>
<path d="M19 23H8C7.4 23 7 22.6 7 22C7 21.4 7.4 21 8 21H19C19.6 21 20 21.4 20 22C20 22.6 19.6 23 19 23Z" fill="#FFFFFF"/>
<path d="M19 36C16.8 36 15 34.2 15 32C15 29.8 16.8 28 19 28C21.2 28 23 29.8 23 32C23 34.2 21.2 36 19 36ZM19 30C17.9 30 17 30.9 17 32C17 33.1 17.9 34 19 34C20.1 34 21 33.1 21 32C21 30.9 20.1 30 19 30Z" fill="#FFFFFF"/>
<path d="M39 31C36.8 31 35 29.2 35 27C35 24.8 36.8 23 39 23C41.2 23 43 24.8 43 27C43 29.2 41.2 31 39 31ZM39 25C37.9 25 37 25.9 37 27C37 28.1 37.9 29 39 29C40.1 29 41 28.1 41 27C41 25.9 40.1 25 39 25Z" fill="#FFFFFF"/>
<path d="M49 41C46.8 41 45 39.2 45 37C45 34.8 46.8 33 49 33C51.2 33 53 34.8 53 37C53 39.2 51.2 41 49 41ZM49 35C47.9 35 47 35.9 47 37C47 38.1 47.9 39 49 39C50.1 39 51 38.1 51 37C51 35.9 50.1 35 49 35Z" fill="#FFFFFF"/>
<path d="M26 43C23.8 43 22 41.2 22 39C22 36.8 23.8 35 26 35C28.2 35 30 36.8 30 39C30 41.2 28.2 43 26 43ZM26 37C24.9 37 24 37.9 24 39C24 40.1 24.9 41 26 41C27.1 41 28 40.1 28 39C28 37.9 27.1 37 26 37Z" fill="#FFFFFF"/>
<path d="M12 43C9.8 43 8 41.2 8 39C8 36.8 9.8 35 12 35C14.2 35 16 36.8 16 39C16 41.2 14.2 43 12 43ZM12 37C10.9 37 10 37.9 10 39C10 40.1 10.9 41 12 41C13.1 41 14 40.1 14 39C14 37.9 13.1 37 12 37Z" fill="#FFFFFF"/>
<path d="M13.6 37.4C13.3 37.4 13.1 37.3 12.9 37.1C12.5 36.7 12.5 36.1 12.9 35.7L15.8 32.8C16.2 32.4 16.8 32.4 17.2 32.8C17.6 33.2 17.6 33.8 17.2 34.2L14.3 37.1C14.1 37.3 13.8 37.4 13.6 37.4Z" fill="#FFFFFF"/>
<path d="M24.4 37.4C24.1 37.4 23.9 37.3 23.7 37.1L20.8 34.2C20.4 33.8 20.4 33.2 20.8 32.8C21.2 32.4 21.8 32.4 22.2 32.8L25.1 35.7C25.5 36.1 25.5 36.7 25.1 37.1C25 37.3 24.7 37.4 24.4 37.4Z" fill="#FFFFFF"/>
<path d="M28.1 37.9C27.8 37.9 27.6 37.8 27.4 37.6C27 37.2 27 36.6 27.4 36.2L35.7 27.9C36.1 27.5 36.7 27.5 37.1 27.9C37.5 28.3 37.5 28.9 37.1 29.3L28.8 37.6C28.6 37.8 28.4 37.9 28.1 37.9Z" fill="#FFFFFF"/>
<path d="M47.4 35.4C47.1 35.4 46.9 35.3 46.7 35.1L40.8 29.2C40.4 28.8 40.4 28.2 40.8 27.8C41.2 27.4 41.8 27.4 42.2 27.8L48.1 33.7C48.5 34.1 48.5 34.7 48.1 35.1C48 35.3 47.7 35.4 47.4 35.4Z" fill="#FFFFFF"/>
</svg>
