<svg width="60" height="60" viewBox="0 0 60 60" fill="none" xmlns="http://www.w3.org/2000/svg">
<path d="M0.987564 58C0.59423 58 0.299229 57.8069 0.102562 57.4207C-0.0941051 57.0345 0.00422842 56.6483 0.299229 56.2621C2.2659 54.331 3.54424 50.2759 4.0359 44.9655C1.3809 41.4897 0.00422844 37.2414 0.00422844 32.8966C0.00422844 20.4414 11.5093 10.3034 25.571 10.3034C39.6327 10.3034 51.1377 20.4414 51.1377 32.8966C51.1377 45.3517 39.6327 55.4897 25.571 55.4897C21.8343 55.4897 18.3926 54.8138 15.2459 53.5586C9.44425 56.8414 1.47923 57.9034 1.18423 58C1.0859 58 0.987564 58 0.987564 58ZM25.571 12.2345C12.5909 12.2345 1.9709 21.5034 1.9709 32.8966C1.9709 36.9517 3.24924 40.9103 5.80591 44.1931C5.90424 44.3862 6.00258 44.5793 6.00258 44.869C5.80591 47.669 5.11757 52.4 3.24924 55.6828C6.10091 55.1034 11.0176 53.8483 14.6559 51.7241C14.9509 51.531 15.2459 51.531 15.5409 51.6276C18.5893 52.8828 21.9326 53.5586 25.571 53.5586C38.551 53.5586 49.171 44.2897 49.171 32.8966C49.171 21.5034 38.551 12.2345 25.571 12.2345Z" fill="#FFFFFF"/>
<path d="M15.1476 53.3655C14.8526 53.3655 14.4593 53.1724 14.3609 52.8828C14.0659 52.4 14.1643 51.8207 14.6559 51.531L19.1793 48.6345C19.4743 48.4414 19.8676 48.4414 20.1626 48.5379C20.4576 48.731 20.6543 49.0207 20.7526 49.4069C20.7526 50.0828 20.7526 50.1793 15.7376 53.1724C15.5409 53.3655 15.3443 53.3655 15.1476 53.3655Z" fill="#FFFFFF"/>
<path d="M58.021 49.6966H57.9227C57.6277 49.6966 51.0394 48.6345 45.4343 46.0276C45.1393 45.931 44.9427 45.6414 44.9427 45.3517C44.8443 45.0621 44.9427 44.7724 45.1393 44.5793C47.7943 41.2 49.171 37.1448 49.171 32.8966C49.171 21.5034 38.551 12.2345 25.571 12.2345C20.4576 12.2345 15.7376 13.5862 11.7059 16.0966C11.3126 16.3862 10.8209 16.2897 10.5259 16C10.2309 15.7103 10.1326 15.2276 10.3293 14.8414C14.5576 6.92414 23.4076 2 33.4376 2C47.4993 2 59.0044 12.1379 59.0044 24.5931C59.0044 28.9379 57.6277 33.1862 54.9727 36.7586C55.366 42.069 56.7427 46.1241 58.7094 48.0552C59.0044 48.3448 59.1027 48.8276 58.906 49.2138C58.7094 49.5034 58.4144 49.6966 58.021 49.6966ZM47.3027 44.7724C50.351 46.0276 53.596 46.8966 55.7594 47.2828C53.891 44 53.2027 39.269 53.006 36.469C53.006 36.2759 53.1044 35.9862 53.2027 35.7931C55.7594 32.5103 57.0377 28.5517 57.0377 24.4965C57.0377 13.2 46.4177 3.93103 33.4376 3.93103C25.7676 3.93103 18.5893 7.21379 14.1643 12.6207C17.6059 11.0759 21.5393 10.3034 25.571 10.3034C39.6327 10.3034 51.1377 20.4414 51.1377 32.8966C51.1377 37.1448 49.8593 41.2 47.3027 44.7724Z" fill="#FFFFFF"/>
<path d="M12.7876 36.7586C10.6243 36.7586 8.85425 35.0207 8.85425 32.8966C8.85425 30.7724 10.6243 29.0345 12.7876 29.0345C14.9509 29.0345 16.7209 30.7724 16.7209 32.8966C16.7209 35.0207 14.9509 36.7586 12.7876 36.7586ZM12.7876 30.9655C11.7059 30.9655 10.8209 31.8345 10.8209 32.8966C10.8209 33.9586 11.7059 34.8276 12.7876 34.8276C13.8693 34.8276 14.7543 33.9586 14.7543 32.8966C14.7543 31.8345 13.8693 30.9655 12.7876 30.9655Z" fill="#FFFFFF"/>
<path d="M25.571 36.7586C23.4076 36.7586 21.6376 35.0207 21.6376 32.8966C21.6376 30.7724 23.4076 29.0345 25.571 29.0345C27.7343 29.0345 29.5043 30.7724 29.5043 32.8966C29.5043 35.0207 27.7343 36.7586 25.571 36.7586ZM25.571 30.9655C24.4893 30.9655 23.6043 31.8345 23.6043 32.8966C23.6043 33.9586 24.4893 34.8276 25.571 34.8276C26.6526 34.8276 27.5376 33.9586 27.5376 32.8966C27.5376 31.8345 26.6526 30.9655 25.571 30.9655Z" fill="#FFFFFF"/>
<path d="M38.3543 36.7586C36.191 36.7586 34.421 35.0207 34.421 32.8966C34.421 30.7724 36.191 29.0345 38.3543 29.0345C40.5177 29.0345 42.2877 30.7724 42.2877 32.8966C42.2877 35.0207 40.5177 36.7586 38.3543 36.7586ZM38.3543 30.9655C37.2726 30.9655 36.3876 31.8345 36.3876 32.8966C36.3876 33.9586 37.2726 34.8276 38.3543 34.8276C39.436 34.8276 40.321 33.9586 40.321 32.8966C40.321 31.8345 39.436 30.9655 38.3543 30.9655Z" fill="#FFFFFF"/>
</svg>
