<svg width="60" height="60" viewBox="0 0 60 60" fill="none" xmlns="http://www.w3.org/2000/svg">
<path fill-rule="evenodd" clip-rule="evenodd" d="M19 2C17.346 2 16 3.346 16 5V27C16 28.654 17.346 30 19 30H31C31.553 30 32 30.448 32 31V36.586L38.293 30.293C38.48 30.105 38.734 30 39 30H45C46.654 30 48 28.654 48 27V5C48 3.346 46.654 2 45 2H19ZM31 40C30.871 40 30.741 39.975 30.617 39.924C30.243 39.769 30 39.404 30 39V32H19C16.243 32 14 29.757 14 27V5C14 2.243 16.243 0 19 0H45C47.757 0 50 2.243 50 5V27C50 29.757 47.757 32 45 32H39.414L31.707 39.707C31.516 39.898 31.26 40 31 40Z" fill="#FFFFFF"/>
<path fill-rule="evenodd" clip-rule="evenodd" d="M13 52C12.871 52 12.741 51.975 12.617 51.924C12.243 51.769 12 51.404 12 51V44H5C2.243 44 0 41.757 0 39V17C0 14.243 2.243 12 5 12H15C15.553 12 16 12.448 16 13C16 13.552 15.553 14 15 14H5C3.346 14 2 15.346 2 17V39C2 40.654 3.346 42 5 42H13C13.553 42 14 42.448 14 43V48.586L20.293 42.293C20.48 42.105 20.734 42 21 42H24V31C24 30.448 24.447 30 25 30C25.553 30 26 30.448 26 31V43C26 43.552 25.553 44 25 44H21.414L13.707 51.707C13.516 51.898 13.26 52 13 52Z" fill="#FFFFFF"/>
<path fill-rule="evenodd" clip-rule="evenodd" d="M39.0001 60C38.8711 60 38.7411 59.975 38.6171 59.924C38.2431 59.769 38.0001 59.404 38.0001 59V52H29.0001C26.2431 52 24.0001 49.757 24.0001 47V43C24.0001 42.448 24.4471 42 25.0001 42C25.5531 42 26 42.448 26 43L26.0001 47C26.0001 48.654 27.3461 50 29.0001 50H39.0001C39.5531 50 40.0001 50.448 40.0001 51V56.586L46.2931 50.293C46.4801 50.105 46.7341 50 47.0001 50H55.0001C56.6541 50 58.0001 48.654 58.0001 47V25C58.0001 23.346 56.6541 22 55.0001 22H49.0001C48.4471 22 48.0001 21.552 48.0001 21C48.0001 20.448 48.4471 20 49.0001 20H55.0001C57.7571 20 60.0001 22.243 60.0001 25V47C60.0001 49.757 57.7571 52 55.0001 52H47.4141L39.7071 59.707C39.5161 59.898 39.2601 60 39.0001 60Z" fill="#FFFFFF"/>
<path fill-rule="evenodd" clip-rule="evenodd" d="M37.0001 8H23.0001C22.4471 8 22.0001 7.552 22.0001 7C22.0001 6.448 22.4471 6 23.0001 6H37.0001C37.5531 6 38.0001 6.448 38.0001 7C38.0001 7.552 37.5531 8 37.0001 8Z" fill="#FFFFFF"/>
<path fill-rule="evenodd" clip-rule="evenodd" d="M41.0001 14H23.0001C22.4471 14 22.0001 13.552 22.0001 13C22.0001 12.448 22.4471 12 23.0001 12H41.0001C41.5531 12 42.0001 12.448 42.0001 13C42.0001 13.552 41.5531 14 41.0001 14Z" fill="#FFFFFF"/>
<path fill-rule="evenodd" clip-rule="evenodd" d="M31.0001 20H23.0001C22.4471 20 22.0001 19.552 22.0001 19C22.0001 18.448 22.4471 18 23.0001 18H31.0001C31.5531 18 32.0001 18.448 32.0001 19C32.0001 19.552 31.5531 20 31.0001 20Z" fill="#FFFFFF"/>
<path fill-rule="evenodd" clip-rule="evenodd" d="M39.0001 26H23.0001C22.4471 26 22.0001 25.552 22.0001 25C22.0001 24.448 22.4471 24 23.0001 24H39.0001C39.5531 24 40.0001 24.448 40.0001 25C40.0001 25.552 39.5531 26 39.0001 26Z" fill="#FFFFFF"/>
<path fill-rule="evenodd" clip-rule="evenodd" d="M11 20H9C8.447 20 8 19.552 8 19C8 18.448 8.447 18 9 18H11C11.553 18 12 18.448 12 19C12 19.552 11.553 20 11 20Z" fill="#FFFFFF"/>
<path fill-rule="evenodd" clip-rule="evenodd" d="M11 26H9C8.447 26 8 25.552 8 25C8 24.448 8.447 24 9 24H11C11.553 24 12 24.448 12 25C12 25.552 11.553 26 11 26Z" fill="#FFFFFF"/>
<path fill-rule="evenodd" clip-rule="evenodd" d="M13 32H9C8.447 32 8 31.552 8 31C8 30.448 8.447 30 9 30H13C13.553 30 14 30.448 14 31C14 31.552 13.553 32 13 32Z" fill="#FFFFFF"/>
<path fill-rule="evenodd" clip-rule="evenodd" d="M21 38H9C8.447 38 8 37.552 8 37C8 36.448 8.447 36 9 36H21C21.553 36 22 36.448 22 37C22 37.552 21.553 38 21 38Z" fill="#FFFFFF"/>
<path fill-rule="evenodd" clip-rule="evenodd" d="M42.0001 40H36.0001C35.4471 40 35.0001 39.552 35.0001 39C35.0001 38.448 35.4471 38 36.0001 38H42.0001C42.5531 38 43.0001 38.448 43.0001 39C43.0001 39.552 42.5531 40 42.0001 40Z" fill="#FFFFFF"/>
<path fill-rule="evenodd" clip-rule="evenodd" d="M50.0001 46H36.0001C35.4471 46 35.0001 45.552 35.0001 45C35.0001 44.448 35.4471 44 36.0001 44H50.0001C50.5531 44 51.0001 44.448 51.0001 45C51.0001 45.552 50.5531 46 50.0001 46Z" fill="#FFFFFF"/>
</svg>
