<svg width="60" height="60" viewBox="0 0 60 60" fill="none" xmlns="http://www.w3.org/2000/svg">
<path d="M32.7 57.3C32.4 57.3 32.2 57.2 32 57C31.6 56.6 31.6 56 32 55.6L32.7 54.9C33.1 54.5 33.7 54.5 34.1 54.9C34.5 55.3 34.5 55.9 34.1 56.3L33.4 57C33.2 57.2 33 57.3 32.7 57.3Z" fill="#FFFFFF"/>
<path d="M32 56.9L34.6 47.2L50 31.8C51.2 30.6 53 30.6 54.2 31.8L57 34.6C58.2 35.8 58.2 37.6 57 38.8L41.7 54.3L32 56.9ZM36.4 48.2L34.8 54.1L40.7 52.5L55.6 37.4C55.8 37.2 55.9 37 55.9 36.7C55.9 36.4 55.8 36.2 55.6 36L52.8 33.2C52.4 32.8 51.8 32.8 51.4 33.2L36.4 48.2Z" fill="#FFFFFF"/>
<path d="M47.9284 35.344L46.5142 36.7582L52.2417 42.4857L53.6559 41.0715L47.9284 35.344Z" fill="#FFFFFF"/>
<path d="M36.2574 47.1142L34.8432 48.5284L40.5707 54.2559L41.9849 52.8417L36.2574 47.1142Z" fill="#FFFFFF"/>
<path d="M47 17H29C28.4 17 28 16.6 28 16C28 15.4 28.4 15 29 15H47C47.6 15 48 15.4 48 16C48 16.6 47.6 17 47 17Z" fill="#FFFFFF"/>
<path d="M47 31H29C28.4 31 28 30.6 28 30C28 29.4 28.4 29 29 29H47C47.6 29 48 29.4 48 30C48 30.6 47.6 31 47 31Z" fill="#FFFFFF"/>
<path d="M15.1 20C14.9 20 14.7 19.9 14.5 19.8L9.9 16.4C9.5 16.1 9.4 15.4 9.7 15C10 14.6 10.7 14.5 11.1 14.8L14.9 17.6L21.1 10.3C21.5 9.9 22.1 9.8 22.5 10.2C22.9 10.6 23 11.2 22.6 11.6L15.8 19.6C15.7 19.9 15.4 20 15.1 20Z" fill="#FFFFFF"/>
<path d="M15.1 34C14.9 34 14.7 33.9 14.5 33.8L9.9 30.4C9.5 30.1 9.4 29.4 9.7 29C10 28.6 10.7 28.5 11.1 28.8L14.9 31.6L21.1 24.3C21.5 23.9 22.1 23.8 22.5 24.2C22.9 24.6 23 25.2 22.6 25.6L15.8 33.6C15.7 33.9 15.4 34 15.1 34Z" fill="#FFFFFF"/>
<path d="M15.1 49C14.9 49 14.7 48.9 14.5 48.8L9.9 45.4C9.5 45.1 9.4 44.4 9.7 44C10 43.6 10.7 43.5 11.1 43.8L14.9 46.6L21.1 39.3C21.5 38.9 22.1 38.8 22.5 39.2C22.9 39.6 23 40.2 22.6 40.6L15.8 48.6C15.7 48.9 15.4 49 15.1 49Z" fill="#FFFFFF"/>
<path d="M27 57H14.2C7.5 57 2 51.5 2 44.8V15.2C2 8.5 7.5 3 14.2 3H43.8C50.5 3 56 8.5 56 15.2V27C56 27.6 55.6 28 55 28C54.4 28 54 27.6 54 27V15.2C54 9.6 49.4 5 43.8 5H14.2C8.6 5 4 9.6 4 15.2V44.8C4 50.4 8.6 55 14.2 55H27C27.6 55 28 55.4 28 56C28 56.6 27.6 57 27 57Z" fill="#FFFFFF"/>
</svg>
