<svg width="58" height="46" viewBox="0 0 58 46" fill="none" xmlns="http://www.w3.org/2000/svg">
<path fill-rule="evenodd" clip-rule="evenodd" d="M0 1C0 0.447715 0.447715 0 1 0H57C57.5523 0 58 0.447715 58 1V45C58 45.5523 57.5523 46 57 46H1C0.447715 46 0 45.5523 0 45V1ZM12 44H46V2H12V44ZM10 2H2V11H10V2ZM10 13H2V22H10V13ZM10 24H2V33H10V24ZM10 35H2V44H10V35ZM48 2V11H56V2H48ZM56 13H48V22H56V13ZM56 24H48V33H56V24ZM56 35H48V44H56V35ZM24.5188 15.1234C24.8387 14.9478 25.229 14.9604 25.5369 15.1563L36.5369 22.1563C36.8253 22.3399 37 22.6581 37 23C37 23.3419 36.8253 23.6601 36.5369 23.8437L25.5369 30.8437C25.229 31.0396 24.8387 31.0522 24.5188 30.8766C24.1988 30.701 24 30.365 24 30V16C24 15.635 24.1988 15.299 24.5188 15.1234ZM26 17.8217V28.1783L34.1374 23L26 17.8217Z" fill="#FFFFFF"/>
</svg>
