<svg width="60" height="60" viewBox="0 0 60 60" fill="none" xmlns="http://www.w3.org/2000/svg">
<path d="M37 10H23C21.8 10 21 9.2 21 8V2C21 0.8 21.8 0 23 0H37C38.2 0 39 0.8 39 2V8C39 9.2 38.2 10 37 10ZM23 2V8H37H37.1L37 2H23Z" fill="#FFFFFF"/>
<path d="M48 60H12C10.3 60 9 58.7 9 57V5C9 3.3 10.3 2 12 2H21C21 0.8 21.8 0 23 0H37C38.2 0 39 0.8 39 2H48C49.7 2 51 3.3 51 5V57C51 58.7 49.7 60 48 60ZM12 4C11.4 4 11 4.4 11 5V57C11 57.6 11.4 58 12 58H48C48.6 58 49 57.6 49 57V5C49 4.4 48.6 4 48 4H38C37.4 4 37 3.6 37 3V2H23V3C23 3.6 22.6 4 22 4H12Z" fill="#FFFFFF"/>
<path d="M45 56H15C13.8 56 13 55.2 13 54V8C13 6.8 13.8 6 15 6H22C22.6 6 23 6.4 23 7V8H37V7C37 6.4 37.4 6 38 6H45C46.2 6 47 6.8 47 8V54C47 55.2 46.2 56 45 56ZM15 8V54H45V8H39C39 9.2 38.2 10 37 10H23C21.8 10 21 9.2 21 8H15Z" fill="#FFFFFF"/>
<path d="M28 21H18C17.4 21 17 20.6 17 20V14C17 13.4 17.4 13 18 13H28C28.6 13 29 13.4 29 14V20C29 20.6 28.6 21 28 21ZM19 19H27V15H19V19Z" fill="#FFFFFF"/>
<path d="M42 27H18C17.4 27 17 26.6 17 26C17 25.4 17.4 25 18 25H42C42.6 25 43 25.4 43 26C43 26.6 42.6 27 42 27Z" fill="#FFFFFF"/>
<path d="M40 31H18C17.4 31 17 30.6 17 30C17 29.4 17.4 29 18 29H40C40.6 29 41 29.4 41 30C41 30.6 40.6 31 40 31Z" fill="#FFFFFF"/>
<path d="M39 35H18C17.4 35 17 34.6 17 34C17 33.4 17.4 33 18 33H39C39.6 33 40 33.4 40 34C40 34.6 39.6 35 39 35Z" fill="#FFFFFF"/>
<path d="M35 51C34.7 51 34.4 50.9 34.2 50.6L31.2 46.6C30.9 46.2 31 45.5 31.4 45.2C31.8 44.9 32.5 45 32.8 45.4L35.8 49.4C36.1 49.8 36 50.5 35.6 50.8C35.4 50.9 35.2 51 35 51Z" fill="#FFFFFF"/>
<path d="M35 51C34.8 51 34.6 50.9 34.4 50.8C34 50.5 33.8 49.9 34.2 49.4L39.2 42.4C39.5 42 40.1 41.8 40.6 42.2C41 42.5 41.2 43.1 40.8 43.6L35.8 50.6C35.6 50.9 35.3 51 35 51Z" fill="#FFFFFF"/>
</svg>
