<svg width="40" height="60" viewBox="0 0 40 60" fill="none" xmlns="http://www.w3.org/2000/svg">
<path d="M31 51H5C2.2 51 0 48.8 0 46V14C0 11.2 2.2 9 5 9H31C33.8 9 36 11.2 36 14V46C36 48.8 33.8 51 31 51ZM5 11C3.3 11 2 12.3 2 14V46C2 47.7 3.3 49 5 49H31C32.7 49 34 47.7 34 46V14C34 12.3 32.7 11 31 11H5Z" fill="#FFFFFF"/>
<path d="M37 26H34V19H37C38.7 19 40 20.3 40 22V23C40 24.7 38.7 26 37 26ZM36 24H37C37.6 24 38 23.6 38 23V22C38 21.4 37.6 21 37 21H36V24Z" fill="#FFFFFF"/>
<path d="M37 41H34V28H37C38.7 28 40 29.3 40 31V38C40 39.7 38.7 41 37 41ZM36 39H37C37.6 39 38 38.6 38 38V31C38 30.4 37.6 30 37 30H36V39Z" fill="#FFFFFF"/>
<path d="M29.4 11H6.6L9.3 2.8C9.8 1.1 11.3 0 13 0H22.7C24.5 0 26 1.1 26.6 2.8L29.4 11ZM9.4 9H26.6L24.7 3.4C24.4 2.5 23.7 2 22.7 2H13C12.1 2 11.4 2.5 11.2 3.4L9.4 9Z" fill="#FFFFFF"/>
<path d="M22.9 60H13.2C11.4 60 9.9 58.9 9.3 57.2L6.6 49H29.4L26.7 57.2C26.1 58.9 24.7 60 22.9 60ZM9.4 51L11.3 56.6C11.6 57.5 12.3 58 13.3 58H23C23.9 58 24.6 57.5 24.8 56.6L26.7 51H9.4Z" fill="#FFFFFF"/>
<path d="M22 5H14V7H22V5Z" fill="#FFFFFF"/>
<path d="M22 53H14V55H22V53Z" fill="#FFFFFF"/>
<path d="M7.27771 13.3079L4.30789 16.2777L5.72209 17.6919L8.69191 14.7221L7.27771 13.3079Z" fill="#FFFFFF"/>
<path d="M13.2474 13.3381L4.26726 22.3182L5.68146 23.7324L14.6616 14.7523L13.2474 13.3381Z" fill="#FFFFFF"/>
<path d="M19 40H17V29.7L27.2 16.4L28.8 17.6L19 30.3V40Z" fill="#FFFFFF"/>
</svg>
