<svg width="60" height="60" viewBox="0 0 60 60" fill="none" xmlns="http://www.w3.org/2000/svg">
<path d="M58.4 51H1.6C0.7 51 0 50.3 0 49.4V46.6C0 45.7 0.7 45 1.6 45H25.8L26 45.7C26.1 45.9 26.3 46 26.5 46H34.5C34.7 46 34.9 45.9 35 45.7L35.2 45H58.4C59.3 45 60 45.7 60 46.6V49.4C60 50.3 59.3 51 58.4 51ZM2 49H58V47H36.5C36 47.6 35.3 48 34.5 48H26.5C25.7 48 25 47.6 24.5 47H2V49Z" fill="#FFFFFF"/>
<path d="M34.5 48H26.5C25.7 48 25 47.6 24.5 47H3V13.1C3 10.8 4.8 9 7.1 9H52.9C55.2 9 57 10.8 57 13.1V47H36.5C36 47.6 35.3 48 34.5 48ZM5 45H25.8L26 45.7C26.1 45.9 26.3 46 26.5 46H34.5C34.7 46 34.9 45.9 35 45.7L35.2 45H55V13.1C55 12 54 11 52.9 11H7.1C6 11 5 12 5 13.1V45Z" fill="#FFFFFF"/>
<path d="M53 44H7C6.4 44 6 43.6 6 43V13C6 12.4 6.4 12 7 12H53C53.6 12 54 12.4 54 13V43C54 43.6 53.6 44 53 44ZM8 42H52V14H8V42Z" fill="#FFFFFF"/>
<path d="M29 38H15C14.6 38 14.2 37.7 14.1 37.3L10.1 25.3C9.9 25 10 24.7 10.2 24.4C10.4 24.2 10.7 24 11 24H33C33.3 24 33.6 24.2 33.8 24.4C34 24.7 34 25 33.9 25.3L29.9 37.3C29.8 37.7 29.4 38 29 38ZM15.7 36H28.3L31.6 26H12.4L15.7 36Z" fill="#FFFFFF"/>
<path d="M16 26C15.9 26 15.7 26 15.6 25.9C15.1 25.7 14.9 25.1 15.1 24.6L18.1 17.6C18.3 17.1 18.9 16.9 19.4 17.1C19.9 17.3 20.1 17.9 19.9 18.4L16.9 25.4C16.8 25.8 16.4 26 16 26Z" fill="#FFFFFF"/>
<path d="M28 26C27.6 26 27.2 25.8 27.1 25.4L24.1 18.4C23.9 17.9 24.1 17.3 24.6 17.1C25.1 16.9 25.7 17.1 25.9 17.6L28.9 24.6C29.1 25.1 28.9 25.7 28.4 25.9C28.3 26 28.1 26 28 26Z" fill="#FFFFFF"/>
<path d="M41 19H37C36.4 19 36 18.6 36 18C36 17.4 36.4 17 37 17H41C41.6 17 42 17.4 42 18C42 18.6 41.6 19 41 19Z" fill="#FFFFFF"/>
<path d="M49 19H45C44.4 19 44 18.6 44 18C44 17.4 44.4 17 45 17H49C49.6 17 50 17.4 50 18C50 18.6 49.6 19 49 19Z" fill="#FFFFFF"/>
<path d="M42 32H37C36.4 32 36 31.6 36 31C36 30.4 36.4 30 37 30H42C42.6 30 43 30.4 43 31C43 31.6 42.6 32 42 32Z" fill="#FFFFFF"/>
<path d="M49 32H46C45.4 32 45 31.6 45 31C45 30.4 45.4 30 46 30H49C49.6 30 50 30.4 50 31C50 31.6 49.6 32 49 32Z" fill="#FFFFFF"/>
<path d="M49 38H44C43.4 38 43 37.6 43 37C43 36.4 43.4 36 44 36H49C49.6 36 50 36.4 50 37C50 37.6 49.6 38 49 38Z" fill="#FFFFFF"/>
<path d="M40 38H37C36.4 38 36 37.6 36 37C36 36.4 36.4 36 37 36H40C40.6 36 41 36.4 41 37C41 37.6 40.6 38 40 38Z" fill="#FFFFFF"/>
<path d="M49 26H43C42.4 26 42 25.6 42 25C42 24.4 42.4 24 43 24H49C49.6 24 50 24.4 50 25C50 25.6 49.6 26 49 26Z" fill="#FFFFFF"/>
<path d="M39 26H37C36.4 26 36 25.6 36 25C36 24.4 36.4 24 37 24H39C39.6 24 40 24.4 40 25C40 25.6 39.6 26 39 26Z" fill="#FFFFFF"/>
</svg>
