<svg width="60" height="60" viewBox="0 0 60 60" fill="none" xmlns="http://www.w3.org/2000/svg">
<path d="M10 15C9.7 15 9.5 14.9 9.3 14.7C8.9 14.3 8.9 13.7 9.3 13.3L13.3 9.3C13.7 8.9 14.3 8.9 14.7 9.3C15.1 9.7 15.1 10.3 14.7 10.7L10.7 14.7C10.5 14.9 10.3 15 10 15Z" fill="#FFFFFF"/>
<path d="M10 20C9.7 20 9.5 19.9 9.3 19.7C8.9 19.3 8.9 18.7 9.3 18.3L11.3 16.3C11.7 15.9 12.3 15.9 12.7 16.3C13.1 16.7 13.1 17.3 12.7 17.7L10.7 19.7C10.5 19.9 10.3 20 10 20Z" fill="#FFFFFF"/>
<path d="M14 16C13.9 16 13.9 16 13.8 16C13.7 16 13.7 16 13.6 15.9C13.5 15.9 13.5 15.8 13.4 15.8L13.3 15.7C13.1 15.5 13 15.3 13 15C13 14.7 13.1 14.5 13.3 14.3C13.4 14.3 13.4 14.2 13.4 14.2C13.5 14.2 13.5 14.1 13.6 14.1C13.7 14.1 13.7 14 13.8 14C14.1 13.9 14.5 14 14.7 14.3C14.9 14.5 15 14.7 15 15C15 15.3 14.9 15.5 14.7 15.7C14.6 15.7 14.6 15.8 14.6 15.8C14.5 15.8 14.5 15.9 14.4 15.9C14.3 15.9 14.3 16 14.2 16C14.1 16 14.1 16 14 16Z" fill="#FFFFFF"/>
<path d="M16 14C15.7 14 15.5 13.9 15.3 13.7C14.9 13.3 14.9 12.7 15.3 12.3L18.3 9.3C18.7 8.9 19.3 8.9 19.7 9.3C20.1 9.7 20.1 10.3 19.7 10.7L16.7 13.7C16.5 13.9 16.3 14 16 14Z" fill="#FFFFFF"/>
<path d="M10 25C9.7 25 9.5 24.9 9.3 24.7C8.9 24.3 8.9 23.7 9.3 23.3L18.3 14.3C18.7 13.9 19.3 13.9 19.7 14.3C20.1 14.7 20.1 15.3 19.7 15.7L10.7 24.7C10.5 24.9 10.3 25 10 25Z" fill="#FFFFFF"/>
<path d="M21 14C20.7 14 20.5 13.9 20.3 13.7C20.1 13.5 20 13.3 20 13C20 12.7 20.1 12.5 20.3 12.3C20.7 11.9 21.3 11.9 21.7 12.3C21.9 12.5 22 12.7 22 13C22 13.3 21.9 13.5 21.7 13.7C21.5 13.9 21.3 14 21 14Z" fill="#FFFFFF"/>
<path d="M23 12C22.7 12 22.5 11.9 22.3 11.7C21.9 11.3 21.9 10.7 22.3 10.3L23.3 9.3C23.7 8.9 24.3 8.9 24.7 9.3C25.1 9.7 25.1 10.3 24.7 10.7L23.7 11.7C23.5 11.9 23.3 12 23 12Z" fill="#FFFFFF"/>
<path d="M5 2C3.3 2 2 3.3 2 5V41C2 42.7 3.3 44 5 44H55C56.7 44 58 42.7 58 41V5C58 3.3 56.7 2 55 2H5ZM55 46H5C2.2 46 0 43.8 0 41V5C0 2.2 2.2 0 5 0H55C57.8 0 60 2.2 60 5V41C60 43.8 57.8 46 55 46Z" fill="#FFFFFF"/>
<path d="M55 38C54.4 38 54 37.6 54 37V7C54 6.4 53.6 6 53 6H7C6.4 6 6 6.4 6 7V37C6 37.6 5.6 38 5 38C4.4 38 4 37.6 4 37V7C4 5.3 5.3 4 7 4H53C54.7 4 56 5.3 56 7V37C56 37.6 55.6 38 55 38Z" fill="#FFFFFF"/>
<path d="M2 38V41C2 42.7 3.3 44 5 44H55C56.7 44 58 42.7 58 41V38H2ZM55 46H5C2.2 46 0 43.8 0 41V37C0 36.4 0.4 36 1 36H59C59.6 36 60 36.4 60 37V41C60 43.8 57.8 46 55 46Z" fill="#FFFFFF"/>
<path d="M33 42H27C26.4 42 26 41.6 26 41C26 40.4 26.4 40 27 40H33C33.6 40 34 40.4 34 41C34 41.6 33.6 42 33 42Z" fill="#FFFFFF"/>
<path d="M50 41C50 40.4 49.6 40 49 40C48.4 40 48 40.4 48 41C48 41.6 48.4 42 49 42C49.6 42 50 41.6 50 41Z" fill="#FFFFFF"/>
<path d="M55 41C55 40.4 54.6 40 54 40C53.4 40 53 40.4 53 41C53 41.6 53.4 42 54 42C54.6 42 55 41.6 55 41Z" fill="#FFFFFF"/>
<path d="M20 56V58H40V56H20ZM40 60H20C18.9 60 18 59.1 18 58V56C18 54.9 18.9 54 20 54H40C41.1 54 42 54.9 42 56V58C42 59.1 41.1 60 40 60Z" fill="#FFFFFF"/>
<path d="M35 56C34.5 56 34.1 55.7 34 55.2L32 45.2C31.9 44.7 32.2 44.1 32.8 44C33.3 43.9 33.9 44.2 34 44.8L36 54.8C36.1 55.3 35.8 55.9 35.2 56C35.1 56 35.1 56 35 56Z" fill="#FFFFFF"/>
<path d="M25 56C24.9 56 24.9 56 24.8 56C24.3 55.9 23.9 55.4 24 54.8L26 44.8C26.1 44.3 26.6 43.9 27.2 44C27.7 44.1 28.1 44.6 28 45.2L26 55.2C25.9 55.7 25.5 56 25 56Z" fill="#FFFFFF"/>
</svg>
