<svg width="60" height="54" viewBox="0 0 60 54" fill="none" xmlns="http://www.w3.org/2000/svg">
<path d="M8 54C3.5 54 0 50.5 0 46C0 41.5 3.5 38 8 38C12.5 38 16 41.5 16 46C16 50.5 12.5 54 8 54ZM8 40C4.6 40 2 42.6 2 46C2 49.4 4.6 52 8 52C11.4 52 14 49.4 14 46C14 42.6 11.4 40 8 40Z" fill="#FFFFFF"/>
<path d="M52 54C47.5 54 44 50.5 44 46C44 41.5 47.5 38 52 38C56.5 38 60 41.5 60 46C60 50.5 56.5 54 52 54ZM52 40C48.6 40 46 42.6 46 46C46 49.4 48.6 52 52 52C55.4 52 58 49.4 58 46C58 42.6 55.4 40 52 40Z" fill="#FFFFFF"/>
<path d="M30 54C25.5 54 22 50.5 22 46C22 41.5 25.5 38 30 38C34.5 38 38 41.5 38 46C38 50.5 34.5 54 30 54ZM30 40C26.6 40 24 42.6 24 46C24 49.4 26.6 52 30 52C33.4 52 36 49.4 36 46C36 42.6 33.4 40 30 40Z" fill="#FFFFFF"/>
<path d="M38 16H22V0H38V16ZM24 14H36V2H24V14Z" fill="#FFFFFF"/>
<path d="M31 15H29V39H31V15Z" fill="#FFFFFF"/>
<path d="M53 39H51V28H9V39H7V26H53V39Z" fill="#FFFFFF"/>
</svg>
