<svg width="60" height="54" viewBox="0 0 60 54" fill="none" xmlns="http://www.w3.org/2000/svg">
<path d="M59 53.7966H1C0.4 53.7966 0 53.3966 0 52.7966C0 52.1966 0.4 51.7966 1 51.7966H59C59.6 51.7966 60 52.1966 60 52.7966C60 53.3966 59.6 53.7966 59 53.7966Z" fill="#FFFFFF"/>
<path d="M58 53.7966H46V37.7966H58V53.7966ZM48 51.7966H56V39.7966H48V51.7966Z" fill="#FFFFFF"/>
<path d="M43 53.7966H31V28.7966H43V53.7966ZM33 51.7966H41V30.7966H33V51.7966Z" fill="#FFFFFF"/>
<path d="M28 53.7966H16V20.7966H28V53.7966ZM18 51.7966H26V22.7966H18V51.7966Z" fill="#FFFFFF"/>
<path d="M13 53.7966H1V12.7966H13V53.7966ZM3 51.7966H11V14.7966H3V51.7966Z" fill="#FFFFFF"/>
<path d="M51.3 24.4966C51.1 24.4966 51 24.4966 50.8 24.3966L11.8 1.89657C11.3 1.59657 11.2 0.996575 11.4 0.496575C11.7 -0.00342548 12.3 -0.103425 12.8 0.0965745L51.8 22.5966C52.3 22.8966 52.4 23.4966 52.2 23.9966C52 24.2966 51.6 24.4966 51.3 24.4966Z" fill="#FFFFFF"/>
<path d="M42.7 25.2966C42.2 25.2966 41.8 24.8966 41.7 24.3966C41.6 23.7966 42.1 23.3966 42.6 23.2966L51.2 22.4966C51.7 22.4966 52.2 22.8966 52.3 23.3966C52.4 23.9966 51.9 24.3966 51.4 24.4966L42.7 25.2966Z" fill="#FFFFFF"/>
<path d="M51.3 24.4966C50.9 24.4966 50.6 24.2966 50.4 23.8966L46.8 16.0966C46.6 15.5966 46.8 14.9966 47.3 14.7966C47.8 14.5966 48.4 14.7966 48.6 15.2966L52.2 23.0966C52.4 23.5966 52.2 24.1966 51.7 24.3966C51.6 24.4966 51.4 24.4966 51.3 24.4966Z" fill="#FFFFFF"/>
</svg>
