<svg width="60" height="60" viewBox="0 0 60 60" fill="none" xmlns="http://www.w3.org/2000/svg">
<path d="M52.5 49.8L41.8 39.1L42.3 38.4C44 36 44.9 33 44.9 30C44.9 27 44 24 42.3 21.6L41.8 20.9L52.5 10.2L53.2 11.1C57.5 16.4 59.9 23.1 59.9 30C59.9 37 57.6 43.6 53.2 48.9L52.5 49.8ZM44.4 38.9L52.3 46.8C56 42 57.9 36.2 57.9 30C57.9 23.9 55.9 18 52.3 13.2L44.4 21.1C46 23.8 46.9 26.8 46.9 30C46.9 33.2 46 36.2 44.4 38.9Z" fill="#FFFFFF"/>
<path d="M29.9 60C14.5 60 1.7 48.4 0.1 33.1L0 32H15L15.2 32.8C16.5 39.9 22.7 45 29.9 45C32.9 45 35.9 44.1 38.3 42.4L39 41.9L49.7 52.6L48.8 53.3C43.5 57.6 36.8 60 29.9 60ZM2.2 34C4.2 47.8 15.9 58 29.9 58C36 58 41.9 56 46.7 52.4L38.8 44.5C36.1 46.1 33.1 47 29.9 47C22 47 15.2 41.6 13.4 34H2.2Z" fill="#FFFFFF"/>
<path d="M15 28H0L0.1 26.9C1.7 11.6 14.5 0 29.9 0C36.8 0 43.5 2.4 48.8 6.7L49.7 7.4L39 18.1L38.3 17.6C35.9 15.9 32.9 15 29.9 15C22.7 15 16.5 20.1 15.2 27.2L15 28ZM2.2 26H13.4C15.2 18.4 22 13 29.9 13C33.1 13 36.1 13.9 38.8 15.5L46.7 7.6C41.9 4 36 2 29.9 2C15.9 2 4.2 12.2 2.2 26Z" fill="#FFFFFF"/>
<path d="M26.9 2C26.9 2.6 26.5 3 25.9 3C25.3 3 24.9 2.6 24.9 2C24.9 1.4 25.3 1 25.9 1C26.5 1 26.9 1.4 26.9 2Z" fill="#FFFFFF"/>
<path d="M32.9 2C32.9 2.6 32.5 3 31.9 3C31.3 3 30.9 2.6 30.9 2C30.9 1.4 31.3 1 31.9 1C32.5 1 32.9 1.4 32.9 2Z" fill="#FFFFFF"/>
<path d="M23.9 5C23.9 5.6 23.5 6 22.9 6C22.3 6 21.9 5.6 21.9 5C21.9 4.4 22.3 4 22.9 4C23.5 4 23.9 4.4 23.9 5Z" fill="#FFFFFF"/>
<path d="M29.9 5C29.9 5.6 29.5 6 28.9 6C28.3 6 27.9 5.6 27.9 5C27.9 4.4 28.3 4 28.9 4C29.5 4 29.9 4.4 29.9 5Z" fill="#FFFFFF"/>
<path d="M17.9 5C17.9 5.6 17.5 6 16.9 6C16.3 6 15.9 5.6 15.9 5C15.9 4.4 16.3 4 16.9 4C17.5 4 17.9 4.4 17.9 5Z" fill="#FFFFFF"/>
<path d="M35.9 5C35.9 5.6 35.5 6 34.9 6C34.3 6 33.9 5.6 33.9 5C33.9 4.4 34.3 4 34.9 4C35.5 4 35.9 4.4 35.9 5Z" fill="#FFFFFF"/>
<path d="M41.9 5C41.9 5.6 41.5 6 40.9 6C40.3 6 39.9 5.6 39.9 5C39.9 4.4 40.3 4 40.9 4C41.5 4 41.9 4.4 41.9 5Z" fill="#FFFFFF"/>
<path d="M23.9 11C23.9 11.6 23.5 12 22.9 12C22.3 12 21.9 11.6 21.9 11C21.9 10.4 22.3 10 22.9 10C23.5 10 23.9 10.4 23.9 11Z" fill="#FFFFFF"/>
<path d="M26.9 8C26.9 8.6 26.5 9 25.9 9C25.3 9 24.9 8.6 24.9 8C24.9 7.4 25.3 7 25.9 7C26.5 7 26.9 7.4 26.9 8Z" fill="#FFFFFF"/>
<path d="M26.9 14C26.9 14.6 26.5 15 25.9 15C25.3 15 24.9 14.6 24.9 14C24.9 13.4 25.3 13 25.9 13C26.5 13 26.9 13.4 26.9 14Z" fill="#FFFFFF"/>
<path d="M29.9 11C29.9 11.6 29.5 12 28.9 12C28.3 12 27.9 11.6 27.9 11C27.9 10.4 28.3 10 28.9 10C29.5 10 29.9 10.4 29.9 11Z" fill="#FFFFFF"/>
<path d="M17.9 11C17.9 11.6 17.5 12 16.9 12C16.3 12 15.9 11.6 15.9 11C15.9 10.4 16.3 10 16.9 10C17.5 10 17.9 10.4 17.9 11Z" fill="#FFFFFF"/>
<path d="M20.9 8C20.9 8.6 20.5 9 19.9 9C19.3 9 18.9 8.6 18.9 8C18.9 7.4 19.3 7 19.9 7C20.5 7 20.9 7.4 20.9 8Z" fill="#FFFFFF"/>
<path d="M20.9 14C20.9 14.6 20.5 15 19.9 15C19.3 15 18.9 14.6 18.9 14C18.9 13.4 19.3 13 19.9 13C20.5 13 20.9 13.4 20.9 14Z" fill="#FFFFFF"/>
<path d="M11.9 11C11.9 11.6 11.5 12 10.9 12C10.3 12 9.9 11.6 9.9 11C9.9 10.4 10.3 10 10.9 10C11.5 10 11.9 10.4 11.9 11Z" fill="#FFFFFF"/>
<path d="M14.9 8C14.9 8.6 14.5 9 13.9 9C13.3 9 12.9 8.6 12.9 8C12.9 7.4 13.3 7 13.9 7C14.5 7 14.9 7.4 14.9 8Z" fill="#FFFFFF"/>
<path d="M8.9 14C8.9 14.6 8.5 15 7.9 15C7.3 15 6.9 14.6 6.9 14C6.9 13.4 7.3 13 7.9 13C8.5 13 8.9 13.4 8.9 14Z" fill="#FFFFFF"/>
<path d="M14.9 14C14.9 14.6 14.5 15 13.9 15C13.3 15 12.9 14.6 12.9 14C12.9 13.4 13.3 13 13.9 13C14.5 13 14.9 13.4 14.9 14Z" fill="#FFFFFF"/>
<path d="M32.9 8C32.9 8.6 32.5 9 31.9 9C31.3 9 30.9 8.6 30.9 8C30.9 7.4 31.3 7 31.9 7C32.5 7 32.9 7.4 32.9 8Z" fill="#FFFFFF"/>
<path d="M32.9 14C32.9 14.6 32.5 15 31.9 15C31.3 15 30.9 14.6 30.9 14C30.9 13.4 31.3 13 31.9 13C32.5 13 32.9 13.4 32.9 14Z" fill="#FFFFFF"/>
<path d="M35.9 11C35.9 11.6 35.5 12 34.9 12C34.3 12 33.9 11.6 33.9 11C33.9 10.4 34.3 10 34.9 10C35.5 10 35.9 10.4 35.9 11Z" fill="#FFFFFF"/>
<path d="M41.9 11C41.9 11.6 41.5 12 40.9 12C40.3 12 39.9 11.6 39.9 11C39.9 10.4 40.3 10 40.9 10C41.5 10 41.9 10.4 41.9 11Z" fill="#FFFFFF"/>
<path d="M17.9 17C17.9 17.6 17.5 18 16.9 18C16.3 18 15.9 17.6 15.9 17C15.9 16.4 16.3 16 16.9 16C17.5 16 17.9 16.4 17.9 17Z" fill="#FFFFFF"/>
<path d="M5.9 17C5.9 17.6 5.5 18 4.9 18C4.3 18 3.9 17.6 3.9 17C3.9 16.4 4.3 16 4.9 16C5.5 16 5.9 16.4 5.9 17Z" fill="#FFFFFF"/>
<path d="M11.9 17C11.9 17.6 11.5 18 10.9 18C10.3 18 9.9 17.6 9.9 17C9.9 16.4 10.3 16 10.9 16C11.5 16 11.9 16.4 11.9 17Z" fill="#FFFFFF"/>
<path d="M38.9 8C38.9 8.6 38.5 9 37.9 9C37.3 9 36.9 8.6 36.9 8C36.9 7.4 37.3 7 37.9 7C38.5 7 38.9 7.4 38.9 8Z" fill="#FFFFFF"/>
<path d="M44.9 8C44.9 8.6 44.5 9 43.9 9C43.3 9 42.9 8.6 42.9 8C42.9 7.4 43.3 7 43.9 7C44.5 7 44.9 7.4 44.9 8Z" fill="#FFFFFF"/>
<path d="M38.9 14C38.9 14.6 38.5 15 37.9 15C37.3 15 36.9 14.6 36.9 14C36.9 13.4 37.3 13 37.9 13C38.5 13 38.9 13.4 38.9 14Z" fill="#FFFFFF"/>
<path d="M2.9 26C2.9 26.6 2.5 27 1.9 27C1.3 27 0.9 26.6 0.9 26C0.9 25.4 1.3 25 1.9 25C2.5 25 2.9 25.4 2.9 26Z" fill="#FFFFFF"/>
<path d="M5.9 23C5.9 23.6 5.5 24 4.9 24C4.3 24 3.9 23.6 3.9 23C3.9 22.4 4.3 22 4.9 22C5.5 22 5.9 22.4 5.9 23Z" fill="#FFFFFF"/>
<path d="M11.9 23C11.9 23.6 11.5 24 10.9 24C10.3 24 9.9 23.6 9.9 23C9.9 22.4 10.3 22 10.9 22C11.5 22 11.9 22.4 11.9 23Z" fill="#FFFFFF"/>
<path d="M8.9 20C8.9 20.6 8.5 21 7.9 21C7.3 21 6.9 20.6 6.9 20C6.9 19.4 7.3 19 7.9 19C8.5 19 8.9 19.4 8.9 20Z" fill="#FFFFFF"/>
<path d="M14.9 20C14.9 20.6 14.5 21 13.9 21C13.3 21 12.9 20.6 12.9 20C12.9 19.4 13.3 19 13.9 19C14.5 19 14.9 19.4 14.9 20Z" fill="#FFFFFF"/>
<path d="M8.9 26C8.9 26.6 8.5 27 7.9 27C7.3 27 6.9 26.6 6.9 26C6.9 25.4 7.3 25 7.9 25C8.5 25 8.9 25.4 8.9 26Z" fill="#FFFFFF"/>
<path d="M14.9 26C14.9 26.6 14.5 27 13.9 27C13.3 27 12.9 26.6 12.9 26C12.9 25.4 13.3 25 13.9 25C14.5 25 14.9 25.4 14.9 26Z" fill="#FFFFFF"/>
</svg>
