<svg width="60" height="60" viewBox="0 0 60 60" fill="none" xmlns="http://www.w3.org/2000/svg">
<path d="M38.3257 26.0204H22.3353C22.0355 26.0204 21.7357 25.9205 21.6358 25.7206C21.4359 25.4208 21.3359 25.2209 21.3359 24.9211C21.5358 23.6219 21.236 22.1228 20.5364 20.6237C19.1373 17.8254 19.3371 15.3269 19.3371 14.8272C19.4371 10.6297 25.8332 1.43521 26.5328 0.435806C26.8326 0.0360463 27.2324 -0.0638936 27.6322 0.0360463C28.0319 0.235926 28.3317 0.635686 28.3317 1.03545C28.3317 9.9301 29.531 13.8278 30.3305 15.3269C31.1301 13.8278 32.3293 9.9301 32.3293 1.03545C32.3293 0.635686 32.6292 0.235926 33.0289 0.0360463C33.4287 -0.0638936 33.9284 0.0360463 34.1283 0.435806C34.8278 1.43521 41.3239 10.7296 41.3239 14.9271C41.3239 14.9271 41.5238 17.7254 40.1246 20.6237C39.4251 22.1228 39.1252 23.6219 39.3251 24.8211C39.3251 25.121 39.2252 25.4208 39.1252 25.6207C38.9254 25.9205 38.6255 26.0204 38.3257 26.0204ZM23.4347 24.0216H37.3263C37.3263 22.3226 37.926 20.8235 38.3257 19.8242C39.525 17.4256 39.3251 15.027 39.3251 15.027C39.3251 12.6285 36.4269 7.73142 34.2282 4.23352C33.8284 15.2269 31.3299 17.5255 30.8302 17.8254C30.5304 18.0252 30.0307 18.0252 29.7309 17.8254C29.2312 17.4256 26.7327 15.2269 26.3329 4.23352C24.2342 7.63148 21.3359 12.6285 21.3359 14.9271V15.027C21.3359 15.027 21.1361 17.3257 22.3353 19.7242C22.835 20.8236 23.3347 22.3226 23.4347 24.0216Z" fill="#FFFFFF"/>
<path d="M44.7219 60H15.9392C14.9398 60 14.0403 59.5003 13.5406 58.8007C13.0409 58.1011 12.841 57.1017 13.1409 56.2023L21.3359 24.7212C21.4359 24.3214 21.8356 24.0216 22.3353 24.0216H38.3257C38.8254 24.0216 39.2252 24.3214 39.3251 24.7212L47.6201 56.2023C47.92 57.1017 47.7201 58.0012 47.2204 58.7008C46.6207 59.5003 45.7213 60 44.7219 60ZM23.1349 26.0204L15.0397 56.8019C14.9398 57.2017 15.0397 57.5015 15.1397 57.6014C15.3395 57.9013 15.6394 58.0012 15.9392 58.0012H44.7219C45.0217 58.0012 45.3215 57.9013 45.5214 57.6014C45.6213 57.4016 45.7213 57.2017 45.6213 56.8019L37.5262 26.0204H23.1349Z" fill="#FFFFFF"/>
<path d="M24.3341 55.003C22.1355 55.003 20.3365 53.2041 20.3365 51.0054C20.3365 48.8067 22.1355 47.0078 24.3341 47.0078C26.5328 47.0078 28.3317 48.8067 28.3317 51.0054C28.3317 53.2041 26.5328 55.003 24.3341 55.003ZM24.3341 49.0066C23.2348 49.0066 22.3353 49.9061 22.3353 51.0054C22.3353 52.1047 23.2348 53.0042 24.3341 53.0042C25.4335 53.0042 26.3329 52.1047 26.3329 51.0054C26.3329 49.9061 25.4335 49.0066 24.3341 49.0066Z" fill="#FFFFFF"/>
<path d="M30.3305 55.003C28.1319 55.003 26.3329 53.2041 26.3329 51.0054C26.3329 48.8067 28.1319 47.0078 30.3305 47.0078C32.5292 47.0078 34.3281 48.8067 34.3281 51.0054C34.3281 53.2041 32.5292 55.003 30.3305 55.003ZM30.3305 49.0066C29.2312 49.0066 28.3317 49.9061 28.3317 51.0054C28.3317 52.1047 29.2312 53.0042 30.3305 53.0042C31.4299 53.0042 32.3293 52.1047 32.3293 51.0054C32.3293 49.9061 31.4299 49.0066 30.3305 49.0066Z" fill="#FFFFFF"/>
<path d="M36.3269 55.003C34.1283 55.003 32.3293 53.2041 32.3293 51.0054C32.3293 48.8067 34.1283 47.0078 36.3269 47.0078C38.5256 47.0078 40.3245 48.8067 40.3245 51.0054C40.3245 53.2041 38.5256 55.003 36.3269 55.003ZM36.3269 49.0066C35.2276 49.0066 34.3281 49.9061 34.3281 51.0054C34.3281 52.1047 35.2276 53.0042 36.3269 53.0042C37.4263 53.0042 38.3257 52.1047 38.3257 51.0054C38.3257 49.9061 37.4263 49.0066 36.3269 49.0066Z" fill="#FFFFFF"/>
<path d="M27.3323 37.0138C25.1337 37.0138 23.3347 35.2149 23.3347 33.0162C23.3347 30.8175 25.1337 29.0186 27.3323 29.0186C29.531 29.0186 31.3299 30.8175 31.3299 33.0162C31.3299 35.2149 29.531 37.0138 27.3323 37.0138ZM27.3323 31.0174C26.233 31.0174 25.3335 31.9169 25.3335 33.0162C25.3335 34.1156 26.233 35.015 27.3323 35.015C28.4317 35.015 29.3311 34.1156 29.3311 33.0162C29.3311 31.9169 28.4317 31.0174 27.3323 31.0174Z" fill="#FFFFFF"/>
<path d="M33.3287 37.0138C31.1301 37.0138 29.3311 35.2149 29.3311 33.0162C29.3311 30.8175 31.1301 29.0186 33.3287 29.0186C35.5274 29.0186 37.3263 30.8175 37.3263 33.0162C37.3263 35.2149 35.5274 37.0138 33.3287 37.0138ZM33.3287 31.0174C32.2294 31.0174 31.3299 31.9169 31.3299 33.0162C31.3299 34.1156 32.2294 35.015 33.3287 35.015C34.4281 35.015 35.3275 34.1156 35.3275 33.0162C35.3275 31.9169 34.4281 31.0174 33.3287 31.0174Z" fill="#FFFFFF"/>
<path d="M42.3233 55.003C40.1246 55.003 38.3257 53.2041 38.3257 51.0054C38.3257 48.8067 40.1246 47.0078 42.3233 47.0078C43.6225 47.0078 44.8218 47.6074 45.5214 48.6068C45.6213 48.7068 45.6213 48.8067 45.6213 48.9067L46.3209 51.0054C46.3209 51.1053 46.3209 51.3052 46.3209 51.4052C46.0211 53.404 44.3221 55.003 42.3233 55.003ZM42.3233 49.0066C41.224 49.0066 40.3245 49.9061 40.3245 51.0054C40.3245 52.1047 41.224 53.0042 42.3233 53.0042C43.2228 53.0042 44.1222 52.3046 44.3221 51.4052L43.8224 49.7062C43.4227 49.3064 42.923 49.0066 42.3233 49.0066Z" fill="#FFFFFF"/>
<path d="M18.3377 55.003C16.3389 55.003 14.64 53.404 14.3401 51.4052C14.3401 51.3052 14.3401 51.1053 14.3401 51.0054L14.9398 48.9067C14.9398 48.8067 15.0397 48.7068 15.0397 48.6068C15.8392 47.6074 17.0385 47.0078 18.3377 47.0078C20.5364 47.0078 22.3353 48.8067 22.3353 51.0054C22.3353 53.2041 20.5364 55.003 18.3377 55.003ZM16.3389 51.4052C16.5388 52.3046 17.3383 53.0042 18.3377 53.0042C19.4371 53.0042 20.3365 52.1047 20.3365 51.0054C20.3365 49.9061 19.4371 49.0066 18.3377 49.0066C17.7381 49.0066 17.2384 49.3064 16.8386 49.7062L16.3389 51.4052Z" fill="#FFFFFF"/>
<path d="M39.2252 37.0138C37.0265 37.0138 35.2276 35.2149 35.2276 33.0162C35.2276 30.8175 37.0265 29.0186 39.2252 29.0186H39.6249C40.1246 29.0186 40.5244 29.3184 40.6243 29.7182L42.0235 35.115C42.1234 35.5147 42.0235 35.9145 41.7237 36.1144C40.9242 36.714 40.1246 37.0138 39.2252 37.0138ZM38.8254 31.0174C37.826 31.2173 37.2264 32.0168 37.2264 33.0162C37.2264 34.1156 38.1258 35.015 39.2252 35.015C39.4251 35.015 39.6249 35.015 39.8248 34.9151L38.8254 31.0174Z" fill="#FFFFFF"/>
<path d="M21.3359 37.0138C20.3365 37.0138 19.537 36.714 18.9374 36.1144C18.6376 35.8145 18.5376 35.5147 18.6376 35.115L20.0367 29.7182C20.1367 29.3184 20.5364 29.0186 21.0361 29.0186H21.3359C23.5346 29.0186 25.3335 30.8175 25.3335 33.0162C25.3335 35.2149 23.5346 37.0138 21.3359 37.0138ZM20.8362 34.9151C20.9362 35.015 21.1361 35.015 21.3359 35.015C22.4353 35.015 23.3347 34.1156 23.3347 33.0162C23.3347 32.0168 22.7351 31.2173 21.8356 31.0174L20.8362 34.9151Z" fill="#FFFFFF"/>
</svg>
