<svg width="44" height="44" viewBox="0 0 44 44" fill="none" xmlns="http://www.w3.org/2000/svg">
<path fill-rule="evenodd" clip-rule="evenodd" d="M22 2C10.9543 2 2 10.9543 2 22C2 33.0457 10.9543 42 22 42C33.0457 42 42 33.0457 42 22C42 10.9543 33.0457 2 22 2ZM0 22C0 9.84972 9.84972 0 22 0C34.1503 0 44 9.84972 44 22C44 34.1503 34.1503 44 22 44C9.84972 44 0 34.1503 0 22ZM13 11C10.2383 11 8 13.2383 8 16C8 18.7617 10.2383 21 13 21C15.7617 21 18 18.7617 18 16C18 13.2383 15.7617 11 13 11ZM6 16C6 12.1337 9.13372 9 13 9C16.8663 9 20 12.1337 20 16C20 19.8663 16.8663 23 13 23C9.13372 23 6 19.8663 6 16ZM31 11C28.2383 11 26 13.2383 26 16C26 18.7617 28.2383 21 31 21C33.7617 21 36 18.7617 36 16C36 13.2383 33.7617 11 31 11ZM24 16C24 12.1337 27.1337 9 31 9C34.8663 9 38 12.1337 38 16C38 19.8663 34.8663 23 31 23C27.1337 23 24 19.8663 24 16ZM13 14C11.8953 14 11 14.8953 11 16C11 17.1047 11.8953 18 13 18C14.1047 18 15 17.1047 15 16C15 14.8953 14.1047 14 13 14ZM9 16C9 13.7907 10.7907 12 13 12C15.2093 12 17 13.7907 17 16C17 18.2093 15.2093 20 13 20C10.7907 20 9 18.2093 9 16ZM31 14C29.8953 14 29 14.8953 29 16C29 17.1047 29.8953 18 31 18C32.1047 18 33 17.1047 33 16C33 14.8953 32.1047 14 31 14ZM27 16C27 13.7907 28.7907 12 31 12C33.2093 12 35 13.7907 35 16C35 18.2093 33.2093 20 31 20C28.7907 20 27 18.2093 27 16Z" fill="#FFFFFF"/>
</svg>
