<svg width="61" height="43" viewBox="0 0 61 43" fill="none" xmlns="http://www.w3.org/2000/svg">
<path d="M29.9041 30C29.0041 30 28.0041 29.7 27.3041 29L0.304052 1.7C0.0040518 1.4 -0.0959482 1 0.104052 0.6C0.204052 0.2 0.604052 0 1.00405 0H59.0041C59.4041 0 59.8041 0.2 59.9041 0.6C60.1041 1 60.0041 1.4 59.7041 1.7L32.5041 29C31.8041 29.7 30.9041 30 29.9041 30ZM3.40405 2L28.8041 27.6C29.4041 28.2 30.5041 28.2 31.1041 27.6L56.604 2H3.40405Z" fill="#FFFFFF"/>
<path d="M59.0041 43H1.00405C0.404052 43 0.00405181 42.6 0.00405181 42V1C0.00405181 0.4 0.404052 0 1.00405 0H59.0041C59.604 0 60.0041 0.4 60.0041 1V42C60.0041 42.6 59.604 43 59.0041 43ZM2.00405 41H58.0041V2H2.00405V41Z" fill="#FFFFFF"/>
<path d="M1.60405 42.3C1.40405 42.3 1.10405 42.2 0.904052 42.1C0.304052 41.9 0.00405181 41.3 0.00405181 40.7V2.3C0.00405181 1.7 0.304052 1.1 0.904052 0.9C1.50405 0.6 2.10405 0.6 2.60405 1L2.70405 1.1L22.7041 21.3C22.9041 21.5 23.0041 21.7 23.0041 22C23.0041 22.3 22.9041 22.5 22.7041 22.7L2.70405 41.9L2.60405 42C2.30405 42.2 2.00405 42.3 1.60405 42.3ZM2.00405 3.2V39.8L20.6041 22L2.00405 3.2Z" fill="#FFFFFF"/>
<path d="M58.4041 42.3C58.1041 42.3 57.7041 42.2 57.4041 42L57.3041 41.9L37.3041 22.7C37.104 22.5 37.0041 22.3 37.0041 22C37.0041 21.7 37.104 21.5 37.3041 21.3L57.3041 1.1L57.4041 1C57.9041 0.6 58.5041 0.6 59.104 0.9C59.704 1.1 60.0041 1.7 60.0041 2.3V40.7C60.0041 41.3 59.704 41.9 59.104 42.1C58.904 42.3 58.6041 42.3 58.4041 42.3ZM39.4041 22L58.0041 39.8V3.2L39.4041 22Z" fill="#FFFFFF"/>
</svg>
