<svg width="60" height="57" viewBox="0 0 60 57" fill="none" xmlns="http://www.w3.org/2000/svg">
<path d="M40.8 54H19.2C18.6 54 18.2 53.6 18 53.1C17.9 52.6 18.1 52.1 18.5 51.8L20.3 50.5C21.9 49.3 22.7 47.2 22.2 45.3L21.9 44H38.1L37.8 45.2C37.3 47.1 38.1 49.2 39.7 50.5L41.5 51.8C41.9 52.1 42.1 52.6 42 53.1C41.8 53.6 41.4 54 40.8 54ZM21.6 52H38.3C36.5 50.6 35.4 48.3 35.6 46H24.4C24.5 48.3 23.5 50.6 21.6 52Z" fill="#FFFFFF"/>
<path d="M55.5 46H4.5C2.1 46 0 43.9 0 41.5V4.5C0 2.1 2.1 0 4.5 0H55.5C57.9 0 60 2.1 60 4.5V41.5C60 43.9 57.9 46 55.5 46ZM4.5 2C3.1 2 2 3.1 2 4.5V41.5C2 42.9 3.1 44 4.5 44H55.5C56.9 44 58 42.9 58 41.5V4.5C58 3.1 56.9 2 55.5 2H4.5Z" fill="#FFFFFF"/>
<path d="M60 37H0V4.5C0 2.1 2.1 0 4.5 0H55.5C57.9 0 60 2.1 60 4.5V37ZM2 35H58V4.5C58 3.1 56.9 2 55.5 2H4.5C3.1 2 2 3.1 2 4.5V35Z" fill="#FFFFFF"/>
<path d="M41.5 57H18.5C17.1 57 16 55.9 16 54.5C16 53.1 17.1 52 18.5 52H41.5C42.9 52 44 53.1 44 54.5C44 55.9 42.9 57 41.5 57ZM18.5 54C18.3 54 18 54.3 18 54.5C18 54.7 18.3 55 18.5 55H41.5C41.7 55 42 54.7 42 54.5C42 54.3 41.7 54 41.5 54H18.5Z" fill="#FFFFFF"/>
<path d="M23 30H9C8.6 30 8.2 29.7 8.1 29.3L4.1 17.3C3.9 17 4 16.7 4.2 16.4C4.4 16.2 4.7 16 5 16H27C27.3 16 27.6 16.2 27.8 16.4C28 16.7 28 17 27.9 17.3L23.9 29.3C23.8 29.7 23.4 30 23 30ZM9.7 28H22.3L25.6 18H6.4L9.7 28Z" fill="#FFFFFF"/>
<path d="M10 18C9.9 18 9.7 18 9.6 17.9C9.1 17.7 8.9 17.1 9.1 16.6L12.1 9.6C12.3 9.1 12.9 8.9 13.4 9.1C13.9 9.3 14.1 9.9 13.9 10.4L10.9 17.4C10.8 17.8 10.4 18 10 18Z" fill="#FFFFFF"/>
<path d="M22 18C21.6 18 21.2 17.8 21.1 17.4L18.1 10.4C17.9 9.9 18.1 9.3 18.6 9.1C19.1 8.9 19.7 9.1 19.9 9.6L22.9 16.6C23.1 17.1 22.9 17.7 22.4 17.9C22.3 18 22.1 18 22 18Z" fill="#FFFFFF"/>
<path d="M41 11H31C30.4 11 30 10.6 30 10C30 9.4 30.4 9 31 9H41C41.6 9 42 9.4 42 10C42 10.6 41.6 11 41 11Z" fill="#FFFFFF"/>
<path d="M49 11H45C44.4 11 44 10.6 44 10C44 9.4 44.4 9 45 9H49C49.6 9 50 9.4 50 10C50 10.6 49.6 11 49 11Z" fill="#FFFFFF"/>
<path d="M55 11H53C52.4 11 52 10.6 52 10C52 9.4 52.4 9 53 9H55C55.6 9 56 9.4 56 10C56 10.6 55.6 11 55 11Z" fill="#FFFFFF"/>
<path d="M41 24H31C30.4 24 30 23.6 30 23C30 22.4 30.4 22 31 22H41C41.6 22 42 22.4 42 23C42 23.6 41.6 24 41 24Z" fill="#FFFFFF"/>
<path d="M49 24H45C44.4 24 44 23.6 44 23C44 22.4 44.4 22 45 22H49C49.6 22 50 22.4 50 23C50 23.6 49.6 24 49 24Z" fill="#FFFFFF"/>
<path d="M55 24H53C52.4 24 52 23.6 52 23C52 22.4 52.4 22 53 22H55C55.6 22 56 22.4 56 23C56 23.6 55.6 24 55 24Z" fill="#FFFFFF"/>
<path d="M55 30H48C47.4 30 47 29.6 47 29C47 28.4 47.4 28 48 28H55C55.6 28 56 28.4 56 29C56 29.6 55.6 30 55 30Z" fill="#FFFFFF"/>
<path d="M44 30H38C37.4 30 37 29.6 37 29C37 28.4 37.4 28 38 28H44C44.6 28 45 28.4 45 29C45 29.6 44.6 30 44 30Z" fill="#FFFFFF"/>
<path d="M34 30H31C30.4 30 30 29.6 30 29C30 28.4 30.4 28 31 28H34C34.6 28 35 28.4 35 29C35 29.6 34.6 30 34 30Z" fill="#FFFFFF"/>
<path d="M55 18H48C47.4 18 47 17.6 47 17C47 16.4 47.4 16 48 16H55C55.6 16 56 16.4 56 17C56 17.6 55.6 18 55 18Z" fill="#FFFFFF"/>
<path d="M44 18H38C37.4 18 37 17.6 37 17C37 16.4 37.4 16 38 16H44C44.6 16 45 16.4 45 17C45 17.6 44.6 18 44 18Z" fill="#FFFFFF"/>
<path d="M34 18H31C30.4 18 30 17.6 30 17C30 16.4 30.4 16 31 16H34C34.6 16 35 16.4 35 17C35 17.6 34.6 18 34 18Z" fill="#FFFFFF"/>
</svg>
