<svg width="59" height="34" viewBox="0 0 59 34" fill="none" xmlns="http://www.w3.org/2000/svg">
<path fill-rule="evenodd" clip-rule="evenodd" d="M49.2339 10.3449C38.1064 -0.781647 20.0676 -0.781592 8.94111 10.3449L2.41421 16.8708L9.13711 23.5946C20.2636 34.7211 38.3034 34.7211 49.4299 23.5946L55.9568 17.0678L49.2339 10.3449ZM7.52694 8.93059C19.4345 -2.9769 38.7396 -2.97684 50.6481 8.93061L58.0781 16.3606C58.2656 16.5482 58.371 16.8025 58.371 17.0678C58.371 17.333 58.2656 17.5873 58.0781 17.7749L50.8441 25.0089C38.9366 36.9164 19.6304 36.9164 7.72289 25.0089L0.292846 17.5778C0.105322 17.3903 -1.81175e-05 17.1359 2.33717e-09 16.8707C1.81221e-05 16.6055 0.105393 16.3511 0.292942 16.1636L7.52694 8.93059Z" fill="#FFFFFF"/>
<path fill-rule="evenodd" clip-rule="evenodd" d="M28.158 10.9397C25.3943 10.9397 23.158 13.176 23.158 15.9397C23.158 16.492 22.7103 16.9397 22.158 16.9397C21.6057 16.9397 21.158 16.492 21.158 15.9397C21.158 12.0715 24.2897 8.93975 28.158 8.93975C28.7103 8.93975 29.158 9.38746 29.158 9.93975C29.158 10.492 28.7103 10.9397 28.158 10.9397Z" fill="#FFFFFF"/>
<path fill-rule="evenodd" clip-rule="evenodd" d="M29.158 5.93975C23.0833 5.93975 18.158 10.865 18.158 16.9397C18.158 23.0145 23.0833 27.9397 29.158 27.9397C35.2327 27.9397 40.158 23.0145 40.158 16.9397C40.158 10.865 35.2327 5.93975 29.158 5.93975ZM16.158 16.9397C16.158 9.76046 21.9787 3.93975 29.158 3.93975C36.3373 3.93975 42.158 9.76046 42.158 16.9397C42.158 24.119 36.3373 29.9397 29.158 29.9397C21.9787 29.9397 16.158 24.119 16.158 16.9397Z" fill="#FFFFFF"/>
</svg>
