<svg width="60" height="60" viewBox="0 0 60 60" fill="none" xmlns="http://www.w3.org/2000/svg">
<path d="M19 2C18.4 2 18 2.4 18 3V9C18 9.6 18.4 10 19 10H41C41.6 10 42 9.6 42 9V3C42 2.4 41.6 2 41 2H19ZM41 12H19C17.3 12 16 10.7 16 9V3C16 1.3 17.3 0 19 0H41C42.7 0 44 1.3 44 3V9C44 10.7 42.7 12 41 12Z" fill="#FFFFFF"/>
<path d="M27 26C26.4 26 26 26.4 26 27V33C26 33.6 26.4 34 27 34H33C33.6 34 34 33.6 34 33V27C34 26.4 33.6 26 33 26H27ZM33 36H27C25.3 36 24 34.7 24 33V27C24 25.3 25.3 24 27 24H33C34.7 24 36 25.3 36 27V33C36 34.7 34.7 36 33 36Z" fill="#FFFFFF"/>
<path d="M3 26C2.4 26 2 26.4 2 27V33C2 33.6 2.4 34 3 34H9C9.6 34 10 33.6 10 33V27C10 26.4 9.6 26 9 26H3ZM9 36H3C1.3 36 0 34.7 0 33V27C0 25.3 1.3 24 3 24H9C10.7 24 12 25.3 12 27V33C12 34.7 10.7 36 9 36Z" fill="#FFFFFF"/>
<path d="M51 26C50.4 26 50 26.4 50 27V33C50 33.6 50.4 34 51 34H57C57.6 34 58 33.6 58 33V27C58 26.4 57.6 26 57 26H51ZM57 36H51C49.3 36 48 34.7 48 33V27C48 25.3 49.3 24 51 24H57C58.7 24 60 25.3 60 27V33C60 34.7 58.7 36 57 36Z" fill="#FFFFFF"/>
<path d="M30 26C29.4 26 29 25.6 29 25V11C29 10.4 29.4 10 30 10C30.6 10 31 10.4 31 11V25C31 25.6 30.6 26 30 26Z" fill="#FFFFFF"/>
<path d="M27 50C26.4 50 26 50.4 26 51V57C26 57.6 26.4 58 27 58H33C33.6 58 34 57.6 34 57V51C34 50.4 33.6 50 33 50H27ZM33 60H27C25.3 60 24 58.7 24 57V51C24 49.3 25.3 48 27 48H33C34.7 48 36 49.3 36 51V57C36 58.7 34.7 60 33 60Z" fill="#FFFFFF"/>
<path d="M30 50C29.4 50 29 49.6 29 49V35C29 34.4 29.4 34 30 34C30.6 34 31 34.4 31 35V49C31 49.6 30.6 50 30 50Z" fill="#FFFFFF"/>
<path d="M3 50C2.4 50 2 50.4 2 51V57C2 57.6 2.4 58 3 58H9C9.6 58 10 57.6 10 57V51C10 50.4 9.6 50 9 50H3ZM9 60H3C1.3 60 0 58.7 0 57V51C0 49.3 1.3 48 3 48H9C10.7 48 12 49.3 12 51V57C12 58.7 10.7 60 9 60Z" fill="#FFFFFF"/>
<path d="M6 50C5.4 50 5 49.6 5 49V35C5 34.4 5.4 34 6 34C6.6 34 7 34.4 7 35V49C7 49.6 6.6 50 6 50Z" fill="#FFFFFF"/>
<path d="M54 26C53.4 26 53 25.6 53 25V21C53 19.3 51.7 18 50 18H10C8.3 18 7 19.3 7 21V25C7 25.6 6.6 26 6 26C5.4 26 5 25.6 5 25V21C5 18.2 7.2 16 10 16H50C52.8 16 55 18.2 55 21V25C55 25.6 54.6 26 54 26Z" fill="#FFFFFF"/>
<path d="M25 55H11C10.4 55 10 54.6 10 54C10 53.4 10.4 53 11 53H25C25.6 53 26 53.4 26 54C26 54.6 25.6 55 25 55Z" fill="#FFFFFF"/>
</svg>
