<svg width="52" height="59" viewBox="0 0 52 59" fill="none" xmlns="http://www.w3.org/2000/svg">
<path d="M17.2805 58.115C16.6805 58.115 16.2805 57.715 16.2805 57.115V50.115C16.2805 49.715 16.4805 49.415 16.7805 49.215C17.0805 49.015 17.4805 49.015 17.7805 49.215C18.1805 49.515 18.6805 49.815 19.1805 50.115C19.6805 50.415 20.1805 50.815 20.5805 51.115C20.9805 51.415 21.3805 51.615 21.6805 51.915C23.0805 52.915 24.3805 53.915 26.0805 53.915C27.7805 53.915 29.0805 52.915 30.4805 51.915C30.8805 51.615 31.1805 51.415 31.5805 51.115C31.9805 50.815 32.3805 50.615 32.6805 50.315C33.2805 49.915 33.8805 49.515 34.3805 49.115C34.6805 48.915 35.0805 48.815 35.4805 49.015C35.7805 49.215 36.0805 49.515 36.0805 49.915V56.915C36.0805 57.515 35.6805 57.915 35.0805 57.915C34.4805 57.915 34.0805 57.515 34.0805 56.915V51.815C33.9805 51.815 33.9805 51.915 33.8805 51.915C33.4805 52.115 33.1805 52.415 32.7805 52.615C32.3805 52.815 32.0805 53.115 31.6805 53.415C30.2805 54.715 28.4805 56.015 26.1805 56.015C23.8805 56.015 22.0805 54.715 20.5805 53.615C20.2805 53.315 19.8805 53.115 19.4805 52.815C19.0805 52.515 18.6805 52.315 18.2805 52.015V57.115C18.2805 57.715 17.8805 58.115 17.2805 58.115Z" fill="#FFFFFF"/>
<path d="M2.58051 57.115C1.68051 57.115 1.08051 57.115 0.980506 57.015C0.580506 57.015 0.280506 56.715 0.0805061 56.315C-0.119494 55.915 0.0805061 55.515 0.380506 55.215C2.98051 52.915 3.98051 44.115 4.08051 41.015C4.08051 34.615 2.68051 28.915 2.08051 26.715C0.980506 22.315 2.18051 17.715 3.38051 14.215C8.28051 -0.385048 25.0805 0.014953 25.1805 0.014953C25.2805 0.014953 48.5805 -1.18505 51.1805 17.915C51.2805 18.615 53.4805 35.615 42.6805 40.915C42.1805 41.115 41.5805 40.915 41.3805 40.415C41.1805 39.915 41.3805 39.315 41.8805 39.115C51.3805 34.415 49.3805 18.315 49.3805 18.115C48.1805 10.915 43.9805 6.01495 36.4805 3.61495C30.7805 1.71495 25.2805 2.01495 25.2805 2.01495C24.4805 2.01495 9.78051 1.71495 5.28051 14.815C4.18051 18.115 3.08051 22.315 4.08051 26.215C4.68051 28.415 6.08051 34.415 6.08051 41.015C6.08051 42.115 5.58051 50.615 3.08051 55.015C6.38051 54.915 12.8805 54.115 14.0805 48.715C14.1805 48.215 14.7805 47.815 15.2805 48.015C15.7805 48.115 16.1805 48.715 15.9805 49.215C14.3805 56.315 6.18051 57.115 2.58051 57.115Z" fill="#FFFFFF"/>
<path d="M26.1805 56.015C23.8805 56.015 22.0805 54.715 20.5805 53.615C20.2805 53.315 19.8805 53.115 19.4805 52.815L18.7805 52.3149C17.0805 51.1149 15.2805 49.915 13.7805 48.5149C8.58051 43.8149 8.18051 36.515 8.18051 30.115C8.18051 25.815 10.0805 21.815 13.4805 19.115C17.2805 16.215 21.5805 14.215 21.7805 14.115C21.9805 14.015 22.2805 14.015 22.5805 14.115C22.8805 14.215 23.0805 14.415 23.1805 14.715C28.6805 28.315 43.1805 29.215 43.2805 29.215C43.7805 29.215 44.1805 29.715 44.1805 30.215C44.1805 37.015 43.4805 44.0149 38.6805 48.6149C37.3805 49.7149 36.0805 50.715 34.7805 51.5149C34.1805 51.915 33.4805 52.4149 32.8805 52.8149C32.5805 53.0149 32.3805 53.215 32.0805 53.415C30.3805 54.715 28.6805 56.015 26.1805 56.015ZM14.6805 20.715C11.7805 23.015 10.1805 26.415 10.1805 30.115C10.1805 36.415 10.5805 42.8149 15.1805 47.1149C16.5805 48.5149 18.3805 49.615 19.9805 50.715L20.6805 51.215C21.0805 51.5149 21.3805 51.715 21.7805 52.0149C23.1805 53.0149 24.4805 54.0149 26.1805 54.0149C27.9805 54.0149 29.3805 53.0149 30.8805 51.8149C31.1805 51.6149 31.3805 51.415 31.6805 51.215C32.2805 50.715 32.9805 50.3149 33.5805 49.8149C34.8805 48.9149 36.0805 48.1149 37.2805 47.0149C41.5805 43.0149 42.1805 36.715 42.1805 31.015C38.7805 30.515 26.9805 28.115 21.6805 16.415C20.1805 17.115 17.2805 18.715 14.6805 20.715Z" fill="#FFFFFF"/>
</svg>
