<svg width="48" height="59" viewBox="0 0 48 59" fill="none" xmlns="http://www.w3.org/2000/svg">
<path d="M15.0782 58.1029C14.4782 58.1029 14.0782 57.7029 14.0782 57.1029V50.1029C14.0782 49.7029 14.2782 49.4029 14.5782 49.2029C14.8782 49.0029 15.2782 49.0029 15.5782 49.2029C15.9782 49.5029 16.4782 49.8029 16.9782 50.1029C17.4782 50.4029 17.9782 50.8029 18.3782 51.1029C18.7782 51.4029 19.1782 51.6029 19.4782 51.9029C20.8782 52.9029 22.1782 53.9029 23.8782 53.9029C25.5782 53.9029 26.8782 52.9029 28.2782 51.9029C28.6782 51.6029 28.9782 51.4029 29.3782 51.1029C29.7782 50.8029 30.1782 50.6029 30.4782 50.3029C31.0782 49.9029 31.6782 49.5029 32.1782 49.1029C32.4782 48.9029 32.8782 48.8029 33.2782 49.0029C33.5782 49.2029 33.8782 49.5029 33.8782 49.9029V56.9029C33.8782 57.5029 33.4782 57.9029 32.8782 57.9029C32.2782 57.9029 31.8782 57.5029 31.8782 56.9029V51.8029C31.7782 51.8029 31.7782 51.9029 31.6782 51.9029C31.2782 52.1029 30.9782 52.4029 30.5782 52.6029C30.1782 52.8029 29.8782 53.1029 29.4782 53.4029C28.0782 54.7029 26.2782 56.0029 23.9782 56.0029C21.6782 56.0029 19.8782 54.7029 18.3782 53.6029C18.0782 53.3029 17.6782 53.1029 17.2782 52.8029C16.8782 52.5029 16.4782 52.3029 16.0782 52.0029V57.1029C16.0782 57.7029 15.6782 58.1029 15.0782 58.1029Z" fill="#FFFFFF"/>
<path d="M23.8782 56.0029C21.5782 56.0029 19.7782 54.7029 18.2782 53.6029C17.9782 53.3029 17.5782 53.1029 17.1782 52.8029L16.4782 52.3029C14.7782 51.1029 12.9782 49.9029 11.4782 48.5029C6.67818 43.9029 5.97818 36.9029 5.97818 30.1029C5.97818 23.4029 7.97818 18.8029 8.07818 18.6029C8.17818 18.3029 8.47818 18.1029 8.87818 18.0029C9.17818 18.0029 9.57818 18.1029 9.77818 18.4029C9.77818 18.4029 11.6782 20.7029 14.9782 21.6029C13.8782 20.3029 12.7782 18.7029 12.8782 17.3029C12.9782 16.7029 13.2782 15.8029 14.4782 15.1029C14.6782 15.0029 14.7782 15.0029 14.9782 15.0029C15.4782 15.0029 28.1782 15.9029 40.8782 30.5029C41.6782 31.3029 41.9782 32.3029 41.7782 33.2029C41.7782 36.4029 41.1782 43.9029 36.2782 48.5029C34.6782 50.0029 32.9782 51.2029 31.2782 52.3029L30.5782 52.8029C30.1782 53.0029 29.8782 53.3029 29.4782 53.6029C27.9782 54.7029 26.1782 56.0029 23.8782 56.0029ZM9.37818 20.8029C8.77818 22.6029 7.97818 25.9029 7.97818 30.1029C7.97818 36.0029 8.37818 42.8029 12.8782 47.1029C14.2782 48.5029 15.9782 49.6029 17.6782 50.7029L18.3782 51.2029C18.7782 51.5029 19.0782 51.7029 19.4782 52.0029C20.8782 53.0029 22.1782 54.0029 23.8782 54.0029C25.5782 54.0029 26.8782 53.0029 28.2782 52.0029C28.6782 51.7029 28.9782 51.5029 29.3782 51.2029L30.0782 50.7029C31.7782 49.6029 33.4782 48.4029 34.8782 47.1029C39.3782 42.9029 39.7782 35.3029 39.7782 33.1029C39.7782 33.0029 39.7782 32.9029 39.7782 32.8029C39.8782 32.4029 39.5782 32.0029 39.4782 31.9029C39.4782 31.9029 39.4782 31.9029 39.4782 31.8029C28.2782 19.1029 17.0782 17.2029 15.1782 17.0029C14.8782 17.2029 14.8782 17.4029 14.8782 17.4029C14.7782 18.6029 16.9782 20.9029 18.5782 22.2029C18.8782 22.5029 19.0782 22.9029 18.8782 23.3029C18.7782 23.7029 18.3782 24.0029 17.9782 24.0029C13.8782 24.0029 10.8782 22.1029 9.37818 20.8029Z" fill="#FFFFFF"/>
<path d="M7.67818 57.1029C7.47818 57.1029 7.27818 57.1029 7.07818 57.0029C6.27818 56.8029 5.77818 56.2029 5.57818 55.4029L0.778183 32.0029C-0.121817 28.1029 -0.221817 23.9029 0.378183 19.7029C3.77818 -0.697111 23.8782 0.00288694 23.9782 0.00288694C24.0782 0.00288694 43.9782 -0.697111 47.3782 19.7029C48.0782 23.5029 47.9782 27.7029 47.0782 31.9029L42.2782 55.3029C42.0782 56.1029 41.4782 56.7029 40.7782 56.9029C40.0782 57.1029 39.3782 56.9029 38.8782 56.4029L32.3782 50.7029C32.1782 50.5029 31.9782 50.2029 32.0782 49.9029C32.1782 49.6029 32.2782 49.3029 32.5782 49.1029C33.4782 48.5029 34.3782 47.8029 35.1782 47.0029C39.7782 42.6029 40.0782 34.6029 40.0782 33.0029C40.0782 32.6029 39.9782 32.1029 39.6782 31.8029C28.2782 19.1029 17.0782 17.2029 15.1782 17.0029C14.8782 17.2029 14.8782 17.4029 14.8782 17.4029C14.7782 18.6029 16.9782 20.9029 18.5782 22.2029C18.8782 22.5029 19.0782 22.9029 18.8782 23.3029C18.7782 23.7029 18.3782 24.0029 17.9782 24.0029C13.8782 24.0029 10.8782 22.1029 9.37818 20.8029C8.77818 22.5029 7.87818 25.8029 7.97818 30.0029C7.97818 36.0029 8.37818 42.7029 12.8782 47.0029C13.6782 47.8029 14.4782 48.4029 15.5782 49.2029C15.8782 49.4029 15.9782 49.7029 15.9782 50.0029C15.9782 50.3029 15.8782 50.6029 15.6782 50.8029L9.07818 56.6029C8.67818 56.9029 8.17818 57.1029 7.67818 57.1029ZM23.5782 2.00289C20.5782 2.00289 5.27818 2.80289 2.37818 20.1029C1.77818 24.0029 1.87818 27.9029 2.77818 31.6029L7.57818 55.0029C7.57818 55.1029 7.67818 55.1029 7.67818 55.1029L13.3782 50.1029C12.6782 49.5029 12.0782 49.0029 11.4782 48.4029C6.67818 43.8029 5.97818 36.8029 5.97818 30.0029C5.87818 23.4029 7.97818 18.8029 8.07818 18.6029C8.17818 18.3029 8.47818 18.1029 8.87818 18.0029C9.17818 18.0029 9.57818 18.1029 9.77818 18.4029C9.77818 18.4029 11.6782 20.7029 14.9782 21.6029C13.8782 20.3029 12.7782 18.7029 12.8782 17.3029C12.9782 16.7029 13.2782 15.8029 14.4782 15.1029C14.6782 15.0029 14.7782 15.0029 14.9782 15.0029C15.4782 15.0029 28.1782 15.9029 40.9782 30.5029C41.5782 31.1029 41.8782 32.0029 41.8782 33.1029C41.8782 35.5029 41.4782 43.6029 36.3782 48.5029C35.7782 49.0029 35.1782 49.6029 34.4782 50.1029L40.0782 55.0029C40.1782 55.0029 40.2782 55.0029 40.2782 54.9029L45.0782 31.5029C45.8782 27.6029 45.9782 23.6029 45.3782 20.1029C42.3782 1.40289 24.7782 2.00289 23.9782 2.00289C23.9782 2.00289 23.7782 2.00289 23.5782 2.00289Z" fill="#FFFFFF"/>
</svg>
