<svg width="28" height="57" viewBox="0 0 28 57" fill="none" xmlns="http://www.w3.org/2000/svg">
<path d="M12.8519 27.5C12.8519 28.1 12.4519 28.5 11.8519 28.5C11.2519 28.5 10.8519 28.1 10.8519 27.5C10.8519 26.9 11.2519 26.5 11.8519 26.5C12.4519 26.5 12.8519 26.9 12.8519 27.5Z" fill="#FFFFFF"/>
<path d="M5.15191 24.8C5.15191 25.4 4.7519 25.8 4.15191 25.8C3.55191 25.8 3.15191 25.4 3.15191 24.8C3.15191 24.2 3.55191 23.8 4.15191 23.8C4.7519 23.8 5.15191 24.3 5.15191 24.8Z" fill="#FFFFFF"/>
<path d="M14.8519 32.5C14.8519 33.1 14.4519 33.5 13.8519 33.5C13.2519 33.5 12.8519 33.1 12.8519 32.5C12.8519 31.9 13.2519 31.5 13.8519 31.5C14.4519 31.5 14.8519 31.9 14.8519 32.5Z" fill="#FFFFFF"/>
<path d="M22.6519 27.1C22.6519 27.7 22.2519 28.1 21.6519 28.1C21.0519 28.1 20.6519 27.7 20.6519 27.1C20.6519 26.5 21.0519 26.1 21.6519 26.1C22.2519 26.1 22.6519 26.5 22.6519 27.1Z" fill="#FFFFFF"/>
<path d="M7.65191 29.1C7.65191 29.7 7.25191 30.1 6.65191 30.1C6.05191 30.1 5.65191 29.7 5.65191 29.1C5.65191 28.5 6.05191 28.1 6.65191 28.1C7.25191 28.1 7.65191 28.5 7.65191 29.1Z" fill="#FFFFFF"/>
<path d="M16.8519 26.5C16.8519 27.1 16.4519 27.5 15.8519 27.5C15.2519 27.5 14.8519 27.1 14.8519 26.5C14.8519 25.9 15.2519 25.5 15.8519 25.5C16.4519 25.5 16.8519 25.9 16.8519 26.5Z" fill="#FFFFFF"/>
<path d="M13.8519 57C11.8519 57 1.85191 56.8 1.85191 53.5C1.85191 50.6 9.65191 50.1 12.8519 50V36.1C12.8519 35.5 13.2519 35.1 13.8519 35.1C14.4519 35.1 14.8519 35.5 14.8519 36.1V50C18.0519 50.1 25.8519 50.5 25.8519 53.5C25.8519 56.8 15.8519 57 13.8519 57ZM3.95191 53.5C4.8519 54.1 8.25191 55 13.8519 55C19.4519 55 22.8519 54.1 23.7519 53.5C22.8519 52.9 19.8519 52.1 14.8519 52V53.1C14.8519 53.7 14.4519 54.1 13.8519 54.1C13.2519 54.1 12.8519 53.7 12.8519 53.1V52C7.85191 52.1 4.8519 52.9 3.95191 53.5ZM13.8519 23.6C7.65191 23.6 0.251905 23 0.251905 20.3C0.251905 17.1 10.0519 16.4 13.8519 16.4C17.6519 16.4 27.4519 17.1 27.4519 20.3C27.4519 23 20.0519 23.6 13.8519 23.6ZM2.45191 20.3C3.55191 20.9 7.45191 21.6 13.8519 21.6C20.2519 21.6 24.1519 20.9 25.2519 20.3C24.1519 19.5 19.9519 18.4 13.8519 18.4C7.75191 18.4 3.55191 19.5 2.45191 20.3ZM13.8519 6C6.55191 6 2.85191 5.1 2.85191 3.2C2.85191 0 13.4519 0 13.8519 0C14.2519 0 24.8519 0 24.8519 3.2C24.8519 5.1 21.1519 6 13.8519 6ZM5.35191 3.2C6.55191 3.6 9.55191 4 13.8519 4C18.1519 4 21.1519 3.6 22.3519 3.2C21.0519 2.6 18.0519 2 13.8519 2C9.65191 2 6.65191 2.6 5.35191 3.2Z" fill="#FFFFFF"/>
<path d="M13.8519 37C9.75191 37 5.95191 35.2 3.35191 32.2C0.751905 29.1 -0.448095 25.1 0.151905 21.1L2.85191 3.1C2.95191 2.6 3.35191 2.2 3.95191 2.3C4.35191 2.3 4.75191 2.6 4.85191 3C5.45191 3.4 8.65191 4 13.8519 4C18.9519 4 22.1519 3.4 22.8519 2.9C22.9519 2.5 23.2519 2.1 23.7519 2.1C24.2519 2.1 24.7519 2.4 24.8519 2.9L27.6519 21C28.2519 25 27.0519 29.1 24.3519 32.2C21.7519 35.3 17.8519 37 13.8519 37ZM4.55191 5L2.15191 21.3C1.65191 24.7 2.65191 28.2 4.85191 30.8C7.05191 33.4 10.3519 34.9 13.8519 34.9C17.3519 34.9 20.5519 33.4 22.8519 30.8C25.1519 28.2 26.1519 24.7 25.6519 21.2L23.1519 5C21.3519 5.7 18.2519 6 13.8519 6C9.45191 6 6.3519 5.7 4.55191 5Z" fill="#FFFFFF"/>
</svg>
