<svg width="60" height="60" viewBox="0 0 60 60" fill="none" xmlns="http://www.w3.org/2000/svg">
<path d="M30 59C29.4 59 29 58.6 29 58V2C29 1.4 29.4 1 30 1C30.6 1 31 1.4 31 2V58C31 58.6 30.6 59 30 59Z" fill="#FFFFFF"/>
<path d="M30 18C22.5 18 15.3 15.8 9.1 11.5C8.6 11.2 8.5 10.6 8.8 10.1C9.1 9.6 9.7 9.5 10.2 9.8C16 13.8 22.8 15.9 29.9 15.9C30.5 15.9 30.9 16.3 30.9 16.9C30.9 17.5 30.6 18 30 18Z" fill="#FFFFFF"/>
<path d="M58 31H2C1.4 31 1 30.6 1 30C1 29.4 1.4 29 2 29H58C58.6 29 59 29.4 59 30C59 30.6 58.6 31 58 31Z" fill="#FFFFFF"/>
<path d="M50.9 49.7C50.7 49.7 50.5 49.6 50.3 49.5C44.3 45.2 37.3 43 30 43C29.4 43 29 42.6 29 42C29 41.4 29.4 41 30 41C37.7 41 45.2 43.4 51.5 47.9C52 48.2 52.1 48.8 51.7 49.3C51.5 49.6 51.2 49.7 50.9 49.7Z" fill="#FFFFFF"/>
<path d="M30.6 59C30.3 59 30 58.9 29.8 58.6C29.5 58.2 29.5 57.5 30 57.2C38.3 50.5 43 40.6 43 30C43 29.4 43.4 29 44 29C44.6 29 45 29.4 45 30C45 41.2 40 51.7 31.2 58.8C31 58.9 30.8 59 30.6 59Z" fill="#FFFFFF"/>
<path d="M16 31C15.4 31 15 30.6 15 30C15 18.8 20 8.3 28.8 1.2C29.2 0.9 29.9 0.9 30.2 1.4C30.5 1.8 30.5 2.5 30 2.8C21.7 9.4 17 19.4 17 30C17 30.6 16.6 31 16 31Z" fill="#FFFFFF"/>
<path d="M34 25.9C33.6 25.9 33.3 25.7 33.1 25.3C32.9 24.9 33 24.5 33.3 24.1C33.9 23.5 34.7 22.1 35.1 18.7C33.8 16.8 33 14.5 33 12.2C33 5.5 39.1 0 46.5 0C53.9 0 60 5.5 60 12.3C60 19.1 53.9 24.6 46.5 24.6C44.7 24.6 42.9 24.3 41.3 23.6C38.3 25.3 34.3 25.9 34.2 25.9C34.1 25.9 34 25.9 34 25.9ZM46.5 2C40.2 2 35 6.6 35 12.3C35 14.3 35.7 16.3 36.9 17.9C37.1 18.1 37.1 18.4 37.1 18.6C36.9 20.6 36.6 22.2 36.1 23.5C37.5 23.1 39.3 22.6 40.7 21.7C41 21.5 41.3 21.5 41.6 21.6C43.1 22.3 44.8 22.6 46.5 22.6C52.8 22.6 58 18 58 12.3C58 6.6 52.8 2 46.5 2Z" fill="#FFFFFF"/>
<path d="M26 59.9H25.9C25.7 59.9 21.8 59.3 18.8 57.6C17.1 58.3 15.3 58.6 13.4 58.6C9.7 58.6 6.2 57.2 3.7 54.7C1.3 52.4 0 49.4 0 46.3C0 39.5 6.1 34 13.5 34C20.9 34 27 39.5 27 46.3C27 48.6 26.3 50.9 24.9 52.8C25.3 56.2 26.1 57.6 26.7 58.2C27 58.5 27.1 59 26.9 59.4C26.7 59.7 26.4 59.9 26 59.9ZM18.8 55.5C19 55.5 19.2 55.6 19.3 55.7C20.7 56.6 22.5 57.2 23.9 57.5C23.4 56.2 23 54.6 22.8 52.6C22.8 52.3 22.8 52.1 23 51.9C24.2 50.3 24.9 48.3 24.9 46.3C25 40.6 19.8 36 13.5 36C7.2 36 2 40.6 2 46.3C2 48.9 3.1 51.4 5 53.3C7.2 55.4 10.3 56.7 13.5 56.6C15.2 56.6 16.9 56.3 18.4 55.6C18.5 55.5 18.7 55.5 18.8 55.5Z" fill="#FFFFFF"/>
<path d="M29.9 58.9C28 58.9 26.3 58.8 24.8 58.5C24.5 58.4 24.2 58.2 24.1 57.9C23.3 56.1 23 53.8 22.9 52.5C22.9 52.3 23 52 23.1 51.8C24.3 50.2 25 48.2 25 46.2C25 40.6 19.8 36 13.5 36C9.9 36 6.6 37.5 4.4 40C4.2 40.3 3.8 40.4 3.5 40.3C3.1 40.2 2.9 40 2.7 39.6C1.6 36.5 1 33.3 1 30C1 14 14 1 30 1C33.2 1 36.2 1.5 39.1 2.6C39.4 2.7 39.7 3 39.8 3.4C39.9 3.8 39.7 4.1 39.4 4.4C36.6 6.4 35 9.4 35 12.5C35 14.5 35.6 16.4 36.9 18.1C37 18.3 37.1 18.5 37.1 18.8C36.9 20.8 36.6 22.4 36.1 23.7C37.5 23.3 39.3 22.8 40.7 21.9C41 21.7 41.3 21.7 41.6 21.8C43.1 22.5 44.8 22.8 46.5 22.8C49.9 22.8 53 21.4 55.1 19C55.3 18.7 55.7 18.6 56 18.7C56.3 18.8 56.6 19 56.8 19.3C58.2 22.7 58.9 26.3 58.9 30C58.9 45.9 45.9 58.9 29.9 58.9ZM25.7 56.6C26.9 56.8 28.3 56.9 29.9 56.9C44.8 56.9 56.9 44.8 56.9 29.9C56.9 27 56.4 24.1 55.5 21.4C53.1 23.5 49.9 24.7 46.5 24.7C44.7 24.7 42.9 24.4 41.3 23.7C38.3 25.4 34.3 26 34.2 26C33.8 26.1 33.4 25.8 33.2 25.5C33 25.2 33.1 24.7 33.4 24.3C34 23.7 34.8 22.2 35.2 18.9C33.8 16.9 33.1 14.7 33.1 12.4C33.1 9.2 34.5 6.2 36.9 3.9C34.6 3.3 32.4 3 30 3C15.1 3 3 15.1 3 30C3 32.5 3.4 35 4.1 37.5C6.6 35.3 10 34 13.5 34C20.9 34 27 39.5 27 46.3C27 48.6 26.3 50.9 24.9 52.8C25 54.3 25.3 55.6 25.7 56.6Z" fill="#FFFFFF"/>
<path d="M49 9H42C41.4 9 41 8.6 41 8C41 7.4 41.4 7 42 7H49C49.6 7 50 7.4 50 8C50 8.6 49.6 9 49 9Z" fill="#FFFFFF"/>
<path d="M52 17H42C41.4 17 41 16.6 41 16C41 15.4 41.4 15 42 15H52C52.6 15 53 15.4 53 16C53 16.6 52.6 17 52 17Z" fill="#FFFFFF"/>
<path d="M54 13H42C41.4 13 41 12.6 41 12C41 11.4 41.4 11 42 11H54C54.6 11 55 11.4 55 12C55 12.6 54.6 13 54 13Z" fill="#FFFFFF"/>
<path d="M15 43H8C7.4 43 7 42.6 7 42C7 41.4 7.4 41 8 41H15C15.6 41 16 41.4 16 42C16 42.6 15.6 43 15 43Z" fill="#FFFFFF"/>
<path d="M18 51H8C7.4 51 7 50.6 7 50C7 49.4 7.4 49 8 49H18C18.6 49 19 49.4 19 50C19 50.6 18.6 51 18 51Z" fill="#FFFFFF"/>
<path d="M20 47H8C7.4 47 7 46.6 7 46C7 45.4 7.4 45 8 45H20C20.6 45 21 45.4 21 46C21 46.6 20.6 47 20 47Z" fill="#FFFFFF"/>
</svg>
