<svg width="61" height="30" viewBox="0 0 61 30" fill="none" xmlns="http://www.w3.org/2000/svg">
<path d="M34.5538 29.8546C31.5538 29.8546 27.8538 27.6546 27.0538 26.7546C26.6538 26.2546 24.8538 26.5546 23.5538 27.0546C19.2538 28.9546 12.9538 29.8546 12.6538 29.9546C12.1538 30.0546 11.7538 29.7546 11.5538 29.3546C11.2538 28.6546 10.9538 28.2546 10.5538 28.1546C9.85384 27.9546 8.85384 28.6546 8.55383 28.8546C8.25383 28.8546 8.05383 28.9546 7.75383 28.9546C3.45383 28.4546 0.953835 27.3546 0.253835 25.3546C-0.346165 23.9546 0.253835 22.5546 0.653835 21.8546C0.153835 21.0546 -0.0461653 20.1546 0.153835 19.3546C0.453835 17.7546 1.65383 16.9546 1.85383 16.8546C2.15383 16.6546 2.55383 16.6546 2.85383 16.7546C7.05383 18.7546 9.35383 18.7546 9.65383 18.7546C19.9538 17.4546 24.7538 19.3546 24.9538 19.4546C36.4538 23.4546 44.0538 22.9546 48.4538 21.7546C53.1538 20.5546 55.1538 18.3546 55.1538 18.3546L55.2538 18.2546C55.7538 17.8546 56.7538 16.3546 57.2538 15.3546C57.4538 15.0546 57.7538 14.8546 58.1538 14.8546C58.5538 14.8546 58.8538 15.0546 59.0538 15.3546C60.1538 17.2546 60.3538 19.1546 59.7538 20.8546C58.6538 23.9546 55.1538 25.5546 55.0538 25.5546C54.9538 25.5546 54.8538 25.6546 54.7538 25.6546L53.9538 25.7546L52.9538 26.2546C52.2538 27.6546 51.3538 28.1546 50.6538 28.3546C49.1538 28.7546 47.7538 28.0546 47.0538 27.5546L46.5538 27.7546C44.9538 30.5546 41.5538 29.9546 39.9538 29.2546C39.6538 29.1546 39.4538 28.9546 39.4538 28.6546C39.2538 28.0546 38.8538 27.8546 38.5538 27.8546C38.4538 27.8546 38.3538 27.8546 38.2538 27.8546C37.7538 28.8546 36.8538 29.5546 35.7538 29.7546C35.2538 29.8546 34.9538 29.8546 34.5538 29.8546ZM26.0538 24.4546C26.9538 24.4546 27.9538 24.6546 28.5538 25.3546C29.2538 26.1546 33.0538 28.2546 35.2538 27.7546C35.9538 27.6546 36.3538 27.2546 36.5538 26.5546C36.6538 26.2546 36.8538 26.0546 37.1538 25.9546C37.2538 25.9546 37.9538 25.7546 38.7538 25.8546C39.7538 25.9546 40.5538 26.5546 41.0538 27.5546C41.9538 27.8546 44.0538 28.3546 44.8538 26.4546C44.9538 26.2546 45.1538 26.0546 45.4538 25.9546L46.8538 25.4546C47.1538 25.3546 47.5538 25.3546 47.8538 25.6546C48.1538 25.9546 49.3538 26.6546 50.1538 26.4546C50.6538 26.3546 50.9538 25.9546 51.2538 25.2546C51.3538 25.0546 51.4538 24.8546 51.6538 24.7546L53.0538 23.8546C53.1538 23.7546 53.3538 23.7546 53.4538 23.6546L54.2538 23.5546C54.8538 23.2546 57.0538 22.0546 57.7538 20.0546C57.9538 19.3546 58.0538 18.6546 57.8538 17.9546C57.4538 18.6546 56.8538 19.2546 56.4538 19.6546C55.5538 20.5546 46.7538 29.1546 24.1538 21.2546C24.0538 21.2546 19.5538 19.4546 9.85383 20.6546H9.75383C9.65383 20.6546 9.65384 20.6546 9.55383 20.6546C8.15384 20.7546 5.55383 20.0546 2.65383 18.7546C2.45383 18.9546 2.25383 19.2546 2.25383 19.5546C2.15383 20.0546 2.35383 20.5546 2.85383 21.1546C3.15383 21.5546 3.15383 22.0546 2.85383 22.4546C2.85383 22.4546 1.95383 23.5546 2.25383 24.5546C2.55383 25.1546 3.55383 26.3546 7.75383 26.8546C8.35384 26.3546 9.75383 25.6546 11.1538 25.9546C11.7538 26.1546 12.5538 26.5546 13.2538 27.6546C15.0538 27.3546 19.6538 26.4546 22.9538 25.0546C23.1538 24.9546 24.6538 24.4546 26.0538 24.4546Z" fill="#FFFFFF"/>
<path d="M41.4538 24.6546C36.9538 24.6546 31.2538 23.7546 24.2538 21.3546C24.1538 21.3546 19.6538 19.6546 9.85383 20.7546C9.65383 20.7546 6.85383 20.9546 1.95383 18.5546C1.65383 18.3546 1.35383 18.0546 1.35383 17.6546V17.2546C-0.0461653 11.7546 3.25383 7.45464 3.35383 7.35464C3.45383 7.25464 3.45383 7.25464 3.55383 7.15464C3.65383 7.05464 3.75383 6.55464 3.65383 5.25464C3.45383 4.05464 4.05383 3.15464 5.25383 2.65464C6.95383 2.05464 9.95383 2.65464 10.8538 4.25464C11.5538 5.25464 13.2538 5.65464 13.8538 5.65464C17.7538 6.05464 19.4538 4.75464 20.0538 4.05464C19.5538 1.55464 20.6538 0.65464 21.4538 0.25464C23.2538 -0.54536 25.9538 0.65464 27.0538 2.25464C27.8538 3.25464 28.4538 3.55464 28.7538 3.65464C29.3538 3.35464 29.8538 3.35464 30.2538 3.55464C30.9538 3.75464 31.2538 4.45464 31.3538 4.75464C31.6538 5.05464 32.0538 5.35464 32.3538 5.55464C33.0538 5.35464 33.6538 5.45464 33.9538 5.65464C34.6538 5.95464 34.9538 6.55464 35.0538 6.95464L35.5538 7.25464C36.2538 6.85464 36.7538 6.95464 37.1538 7.05464C38.0538 7.35464 38.5538 8.25464 38.7538 8.75464L39.4538 9.25464C39.5538 9.25464 39.5538 9.15464 39.6538 9.15464C40.4538 8.75464 41.3538 9.15464 41.5538 9.25464C41.8538 9.35464 41.9538 9.65464 42.0538 9.85464C42.6538 11.8546 47.3538 12.0546 48.9538 11.9546C57.8538 11.9546 59.0538 14.1546 59.1538 15.1546V15.7546C59.1538 15.9546 59.1538 16.0546 59.0538 16.2546C58.8538 16.6546 57.5538 18.8546 56.5538 19.6546C55.9538 20.3546 51.5538 24.6546 41.4538 24.6546ZM16.3538 18.3546C22.0538 18.3546 24.7538 19.3546 24.8538 19.4546C36.3538 23.4546 43.9538 22.9546 48.3538 21.8546C53.0538 20.6546 55.0538 18.3546 55.0538 18.3546L55.1538 18.2546C55.6538 17.8546 56.5538 16.5546 57.0538 15.5546C56.9538 15.1546 55.5538 13.9546 49.0538 13.9546C48.3538 13.9546 42.3538 14.3546 40.5538 11.2546C40.4538 11.3546 40.3538 11.4546 40.1538 11.5546C39.8538 11.6546 39.4538 11.6546 39.1538 11.4546L37.3538 10.1546C37.1538 10.0546 37.0538 9.85464 36.9538 9.55464C36.9538 9.35464 36.7538 9.05464 36.6538 8.95464C36.6538 8.95464 36.5538 9.05464 36.3538 9.25464C36.0538 9.55464 35.5538 9.55464 35.1538 9.35464L33.7538 8.45464C33.5538 8.25464 33.3538 8.05464 33.3538 7.75464C33.3538 7.65464 33.2538 7.45464 33.2538 7.45464C33.2538 7.45464 33.1538 7.45464 32.9538 7.55464C32.6538 7.65464 32.4538 7.65464 32.1538 7.55464C31.9538 7.45464 30.5538 6.95464 29.7538 5.75464C29.7538 5.65464 29.6538 5.65464 29.6538 5.55464C29.5538 5.65464 29.4538 5.65464 29.3538 5.65464C29.1538 5.65464 27.4538 5.85464 25.5538 3.45464C24.7538 2.35464 23.0538 1.75464 22.3538 2.05464C21.8538 2.35464 22.0538 3.65464 22.1538 4.05464C22.2538 4.35464 22.1538 4.55464 22.0538 4.75464C21.9538 4.95464 19.9538 8.35464 13.6538 7.65464C13.3538 7.65464 10.5538 7.25464 9.25383 5.35464C8.85384 4.65464 6.95383 4.15464 5.95383 4.55464C5.65383 4.65464 5.65383 4.75464 5.65383 4.95464C5.95383 7.35464 5.35383 8.35464 4.85383 8.65464C4.35383 9.35464 2.15383 12.7546 3.35383 16.8546V16.9546C7.45383 18.8546 9.65383 18.7546 9.65383 18.6546C12.2538 18.4546 14.4538 18.3546 16.3538 18.3546Z" fill="#FFFFFF"/>
<path d="M26.2538 9.45464C25.9538 9.45464 25.7538 9.35464 25.5538 9.15464C25.1538 8.75464 25.1538 8.15464 25.5538 7.75464L29.4538 3.85464C29.8538 3.45464 30.4538 3.45464 30.8538 3.85464C31.2538 4.25464 31.2538 4.85464 30.8538 5.25464L26.9538 9.15464C26.7538 9.35464 26.5538 9.45464 26.2538 9.45464Z" fill="#FFFFFF"/>
<path d="M30.1538 11.6546C29.8538 11.6546 29.6538 11.5546 29.4538 11.3546C29.0538 10.9546 29.0538 10.3546 29.4538 9.95464L33.2538 6.15464C33.6538 5.75464 34.2538 5.75464 34.6538 6.15464C35.0538 6.55464 35.0538 7.15464 34.6538 7.55464L30.8538 11.3546C30.6538 11.5546 30.4538 11.6546 30.1538 11.6546Z" fill="#FFFFFF"/>
<path d="M33.7538 13.0546C33.4538 13.0546 33.2538 12.9546 33.0538 12.7546C32.6538 12.3546 32.6538 11.7546 33.0538 11.3546L36.7538 7.65464C37.1538 7.25464 37.7538 7.25464 38.1538 7.65464C38.5538 8.05464 38.5538 8.65464 38.1538 9.05464L34.4538 12.7546C34.2538 12.9546 34.0538 13.0546 33.7538 13.0546Z" fill="#FFFFFF"/>
</svg>
