<svg width="60" height="60" viewBox="0 0 60 60" fill="none" xmlns="http://www.w3.org/2000/svg">
<path d="M41 2C38.5 2 35 12.7 35 30C35 47.3 38.5 58 41 58C43.5 58 47 47.3 47 30C47 12.7 43.5 2 41 2ZM41 60C35.7 60 33 44.9 33 30C33 15.1 35.7 0 41 0C46.3 0 49 15.1 49 30C49 44.9 46.3 60 41 60Z" fill="#FFFFFF"/>
<path d="M41 60C24.5 60 11 46.5 11 30C11 13.5 24.5 0 41 0V2C25.6 2 13 14.6 13 30C13 45.4 25.6 58 41 58V60Z" fill="#FFFFFF"/>
<path d="M15.2 44.3C14.9 44.3 14.7 44.2 14.5 44C14.1 43.6 14.1 43 14.5 42.6L33.4 24C33.8 23.6 34.4 23.6 34.8 24C35.2 24.4 35.2 25 34.8 25.4L15.9 44C15.7 44.2 15.5 44.3 15.2 44.3Z" fill="#FFFFFF"/>
<path d="M21.3 52.3C21 52.3 20.8 52.2 20.6 52C20.2 51.6 20.2 51 20.6 50.6L33.5 37.7C33.9 37.3 34.5 37.3 34.9 37.7C35.3 38.1 35.3 38.7 34.9 39.1L22 52C21.8 52.2 21.6 52.3 21.3 52.3Z" fill="#FFFFFF"/>
<path d="M13.2 39.2C12.9 39.2 12.7 39.1 12.5 38.9C12.1 38.5 12.1 37.9 12.5 37.5L34.1 15.9C34.5 15.5 35.1 15.5 35.5 15.9C35.9 16.3 35.9 16.9 35.5 17.3L13.9 38.9C13.7 39.1 13.4 39.2 13.2 39.2Z" fill="#FFFFFF"/>
<path d="M12.1 33.3C11.8 33.3 11.6 33.2 11.4 33C11 32.6 11 32 11.4 31.6L35.8 7.2C36.2 6.8 36.8 6.8 37.2 7.2C37.6 7.6 37.6 8.2 37.2 8.6L12.8 33C12.6 33.2 12.3 33.3 12.1 33.3Z" fill="#FFFFFF"/>
<path d="M12.5 25.8C12.2 25.8 12 25.7 11.8 25.5C11.4 25.1 11.4 24.5 11.8 24.1L35.1 0.8C35.5 0.4 36.1 0.4 36.5 0.8C36.9 1.2 36.9 1.8 36.5 2.2L13.2 25.5C13 25.7 12.7 25.8 12.5 25.8Z" fill="#FFFFFF"/>
<path d="M18 48.6C17.7 48.6 17.5 48.5 17.3 48.3C16.9 47.9 16.9 47.3 17.3 46.9L33.3 30.9C33.7 30.5 34.3 30.5 34.7 30.9C35.1 31.3 35.1 31.9 34.7 32.3L18.7 48.3C18.5 48.5 18.2 48.6 18 48.6Z" fill="#FFFFFF"/>
<path d="M25.2 55.3C24.9 55.3 24.7 55.2 24.5 55C24.1 54.6 24.1 54 24.5 53.6L34.2 44C34.6 43.6 35.2 43.6 35.6 44C36 44.4 36 45 35.6 45.4L25.9 55C25.7 55.2 25.5 55.3 25.2 55.3Z" fill="#FFFFFF"/>
<path d="M29.8 57.8C29.5 57.8 29.3 57.7 29.1 57.5C28.7 57.1 28.7 56.5 29.1 56.1L35.3 49.9C35.7 49.5 36.3 49.5 36.7 49.9C37.1 50.3 37.1 50.9 36.7 51.3L30.5 57.5C30.3 57.7 30.1 57.8 29.8 57.8Z" fill="#FFFFFF"/>
</svg>
