<svg width="60" height="43" viewBox="0 0 60 43" fill="none" xmlns="http://www.w3.org/2000/svg">
<path d="M50.5 23.8173C50.5 23.5173 50.4 23.2173 50.4 22.8173C50.2 21.1173 50 19.2173 49.6 17.3173C48 7.71728 45.3 2.21728 41.8 0.817276C36.7 -1.18272 31.6 1.01728 30 1.81728C28.4 1.01728 23.4 -1.18272 18.2 0.817276C14.7 2.21728 12.1 7.71728 10.4 17.3173C10.1 19.2173 9.8 21.1173 9.6 22.8173C9.6 23.1173 9.5 23.5173 9.5 23.8173C4.8 25.4173 1.7 27.4173 0.5 29.7173C0.5 29.7173 0.5 29.8173 0.4 29.8173C0.2 30.5173 0 31.2173 0 31.9173C0 38.8173 15.3 42.9173 30 42.9173C44.7 42.9173 60 38.8173 60 31.9173C60 28.7173 56.6 25.8173 50.5 23.8173ZM11.5 24.3173C17.5 26.1173 23.7 27.0173 30 26.9173C36.3 26.9173 42.5 26.0173 48.5 24.2173C48.8 26.9173 48.9 29.0173 49 30.1173C42.8 31.9173 36.4 32.9173 30 32.9173C23.6 32.9173 17.2 31.9173 11 30.2173C11.1 29.1173 11.2 26.9173 11.5 24.3173ZM18.9 2.61728C24.1 0.617276 29.4 3.71728 29.4 3.81728C29.7 4.01728 30.1 4.01728 30.4 3.81728C30.5 3.81728 35.7 0.617276 40.9 2.61728C45 4.21728 47.1 14.0173 48.1 22.2173C42.3 24.0173 36.2 24.9173 30 24.9173C23.8 25.0173 17.6 24.1173 11.7 22.2173C12.7 14.1173 14.9 4.21728 18.9 2.61728ZM9.3 26.0173C9.1 28.5173 9 30.4173 9 30.8173V30.9173C9 31.0173 9 31.1173 9.1 31.3173V31.4173C9.1 31.5173 9.2 31.5173 9.2 31.6173L9.3 31.7173C9.4 31.8173 9.4 31.8173 9.5 31.8173C9.5 31.8173 9.6 31.8173 9.6 31.9173C9.6 31.9173 9.6 31.9173 9.7 31.9173C16.3 33.9173 23.1 34.9173 30 35.0173C36.9 35.0173 43.7 33.9173 50.3 31.9173C50.3 31.9173 50.3 31.9173 50.4 31.9173C50.4 31.9173 50.5 31.9173 50.5 31.8173C50.7 31.7173 50.8 31.6173 50.9 31.4173C50.9 31.4173 50.9 31.3173 51 31.3173C51 31.2173 51.1 31.1173 51.1 30.9173V30.8173C51.1 30.4173 51 28.5173 50.8 26.0173C53.2 26.7173 55.3 28.0173 57.1 29.7173C54.1 33.8173 42.5 36.9173 29.6 36.9173C17.2 36.9173 6.1 34.1173 2.6 30.2173C3.6 28.6173 6 27.2173 9.3 26.0173ZM30 40.9173C17.2 40.9173 2.9 37.4173 2 32.4173C6.6 36.3173 17.4 38.9173 29.6 38.9173C42.7 38.9173 54 35.9173 58 31.6173C58 31.7173 58 31.8173 58 31.9173C58 37.2173 43.2 40.9173 30 40.9173Z" fill="#FFFFFF"/>
<path d="M22.6 6.81728C22.6 6.81728 24.8 7.91728 30 7.91728C35.2 7.91728 37.4 6.81728 37.4 6.81728C37.9 6.61728 38.1 6.01728 37.8 5.51728C37.6 5.01728 37 4.81728 36.5 5.11728C36.5 5.11728 34.6 6.01728 29.9 6.01728C25.3 6.01728 23.4 5.11728 23.3 5.11728C22.8 4.91728 22.2 5.11728 22 5.61728C21.8 6.11728 22.1 6.51728 22.6 6.81728Z" fill="#FFFFFF"/>
</svg>
