<svg width="61" height="56" viewBox="0 0 61 56" fill="none" xmlns="http://www.w3.org/2000/svg">
<path d="M30.0224 56C29.7224 56 29.5224 55.9 29.3224 55.7C29.1224 55.5 9.9224 36 6.0224 31.6C0.122403 25.1 -1.5776 16.2 1.5224 9.1C4.1224 3.3 9.4224 0 16.0224 0C22.4224 0 27.3224 2.7 30.0224 7.6C32.8224 2.7 37.6224 0 44.0224 0C50.6224 0 55.9224 3.3 58.5224 9.1C61.7224 16.2 59.9224 25 54.0224 31.6C50.1224 36 30.9224 55.5 30.7224 55.7C30.5224 55.9 30.3224 56 30.0224 56ZM16.0224 2C10.2224 2 5.6224 4.9 3.4224 9.9C0.522403 16.3 2.2224 24.3 7.5224 30.2C11.0224 34.1 26.5224 50 30.0224 53.6C34.1224 49.5 49.2224 34 52.5224 30.3C57.9224 24.4 59.5224 16.4 56.6224 10C54.4224 4.9 49.8224 2 44.0224 2C37.6224 2 33.1224 4.9 31.0224 10.4C30.8224 10.7 30.4224 11 30.0224 11C29.6224 11 29.2224 10.7 29.1224 10.4C26.9224 4.9 22.4224 2 16.0224 2Z" fill="#FFFFFF"/>
<path d="M30.0224 50C29.7224 50 29.5224 49.9 29.3224 49.7C27.5224 47.9 25.2224 45.5 22.7224 43C17.2224 37.4 11.0224 31.1 9.0224 28.9C3.5224 22.8 3.1224 15.4 5.2224 10.7C7.1224 6.4 11.0224 4 16.0224 4C22.6224 4 26.7224 9.5 30.0224 15.8C33.3224 9.5 37.4224 4 44.0224 4C49.0224 4 52.9224 6.4 54.8224 10.7C56.9224 15.4 56.5224 22.8 51.0224 28.9C49.0224 31.1 42.8224 37.4 37.3224 43C34.8224 45.5 32.5224 47.9 30.7224 49.7C30.6224 49.9 30.3224 50 30.0224 50ZM16.0224 6C11.8224 6 8.6224 8 7.0224 11.6C5.2224 15.7 5.6224 22.2 10.4224 27.6C12.3224 29.8 18.6224 36.1 24.1224 41.6C26.3224 43.8 28.3224 45.9 30.0224 47.6C31.7224 45.9 33.7224 43.8 35.9224 41.6C41.4224 36 47.6224 29.8 49.5224 27.6C54.4224 22.2 54.7224 15.6 52.9224 11.6C51.4224 8 48.2224 6 44.0224 6C37.9224 6 34.1224 12 30.9224 18.4C30.6224 19.1 29.4224 19.1 29.1224 18.4C25.9224 12 22.2224 6 16.0224 6Z" fill="#FFFFFF"/>
</svg>
