<svg width="60" height="48" viewBox="0 0 60 48" fill="none" xmlns="http://www.w3.org/2000/svg">
<path fill-rule="evenodd" clip-rule="evenodd" d="M14 1C14 0.447715 14.4477 0 15 0H59C59.5523 0 60 0.447715 60 1V33C60 33.5523 59.5523 34 59 34H15C14.4477 34 14 33.5523 14 33V1ZM16 2V32H58V2H16Z" fill="#FFFFFF"/>
<path fill-rule="evenodd" clip-rule="evenodd" d="M0 15C0 14.4477 0.447715 14 1 14H8C8.55228 14 9 14.4477 9 15V39H45C45.5523 39 46 39.4477 46 40V47C46 47.5523 45.5523 48 45 48H1C0.447715 48 0 47.5523 0 47V15ZM2 16V46H44V41H8C7.44772 41 7 40.5523 7 40V16H2Z" fill="#FFFFFF"/>
<path fill-rule="evenodd" clip-rule="evenodd" d="M7 8C7 7.44772 7.44772 7 8 7H15C15.5523 7 16 7.44772 16 8V32H52C52.5523 32 53 32.4477 53 33V40C53 40.5523 52.5523 41 52 41H8C7.44772 41 7 40.5523 7 40V8ZM9 9V39H51V34H15C14.4477 34 14 33.5523 14 33V9H9Z" fill="#FFFFFF"/>
<path fill-rule="evenodd" clip-rule="evenodd" d="M35 38C35 37.448 34.552 37 34 37C33.448 37 33 37.448 33 38C33 38.552 33.448 39 34 39C34.552 39 35 38.552 35 38Z" fill="#FFFFFF"/>
<path fill-rule="evenodd" clip-rule="evenodd" d="M38 35C38 34.448 37.552 34 37 34C36.448 34 36 34.448 36 35C36 35.552 36.448 36 37 36C37.552 36 38 35.552 38 35Z" fill="#FFFFFF"/>
<path fill-rule="evenodd" clip-rule="evenodd" d="M41 38C41 37.448 40.552 37 40 37C39.448 37 39 37.448 39 38C39 38.552 39.448 39 40 39C40.552 39 41 38.552 41 38Z" fill="#FFFFFF"/>
<path fill-rule="evenodd" clip-rule="evenodd" d="M47 38C47 37.448 46.552 37 46 37C45.448 37 45 37.448 45 38C45 38.552 45.448 39 46 39C46.552 39 47 38.552 47 38Z" fill="#FFFFFF"/>
<path fill-rule="evenodd" clip-rule="evenodd" d="M44 35C44 34.448 43.552 34 43 34C42.448 34 42 34.448 42 35C42 35.552 42.448 36 43 36C43.552 36 44 35.552 44 35Z" fill="#FFFFFF"/>
<path fill-rule="evenodd" clip-rule="evenodd" d="M50 35C50 34.448 49.552 34 49 34C48.448 34 48 34.448 48 35C48 35.552 48.448 36 49 36C49.552 36 50 35.552 50 35Z" fill="#FFFFFF"/>
<path fill-rule="evenodd" clip-rule="evenodd" d="M29 38C29 37.448 28.552 37 28 37C27.448 37 27 37.448 27 38C27 38.552 27.448 39 28 39C28.552 39 29 38.552 29 38Z" fill="#FFFFFF"/>
<path fill-rule="evenodd" clip-rule="evenodd" d="M32 35C32 34.448 31.552 34 31 34C30.448 34 30 34.448 30 35C30 35.552 30.448 36 31 36C31.552 36 32 35.552 32 35Z" fill="#FFFFFF"/>
<path fill-rule="evenodd" clip-rule="evenodd" d="M11 38C11 37.448 10.552 37 10 37C9.448 37 9 37.448 9 38C9 38.552 9.448 39 10 39C10.552 39 11 38.552 11 38Z" fill="#FFFFFF"/>
<path fill-rule="evenodd" clip-rule="evenodd" d="M11 32C11 31.448 10.552 31 10 31C9.448 31 9 31.448 9 32C9 32.552 9.448 33 10 33C10.552 33 11 32.552 11 32Z" fill="#FFFFFF"/>
<path fill-rule="evenodd" clip-rule="evenodd" d="M14 35C14 34.448 13.552 34 13 34C12.448 34 12 34.448 12 35C12 35.552 12.448 36 13 36C13.552 36 14 35.552 14 35Z" fill="#FFFFFF"/>
<path fill-rule="evenodd" clip-rule="evenodd" d="M14 29C14 28.448 13.552 28 13 28C12.448 28 12 28.448 12 29C12 29.552 12.448 30 13 30C13.552 30 14 29.552 14 29Z" fill="#FFFFFF"/>
<path fill-rule="evenodd" clip-rule="evenodd" d="M17 38C17 37.448 16.552 37 16 37C15.448 37 15 37.448 15 38C15 38.552 15.448 39 16 39C16.552 39 17 38.552 17 38Z" fill="#FFFFFF"/>
<path fill-rule="evenodd" clip-rule="evenodd" d="M23 38C23 37.448 22.552 37 22 37C21.448 37 21 37.448 21 38C21 38.552 21.448 39 22 39C22.552 39 23 38.552 23 38Z" fill="#FFFFFF"/>
<path fill-rule="evenodd" clip-rule="evenodd" d="M20 35C20 34.448 19.552 34 19 34C18.448 34 18 34.448 18 35C18 35.552 18.448 36 19 36C19.552 36 20 35.552 20 35Z" fill="#FFFFFF"/>
<path fill-rule="evenodd" clip-rule="evenodd" d="M26 35C26 34.448 25.552 34 25 34C24.448 34 24 34.448 24 35C24 35.552 24.448 36 25 36C25.552 36 26 35.552 26 35Z" fill="#FFFFFF"/>
<path fill-rule="evenodd" clip-rule="evenodd" d="M11 26C11 25.448 10.552 25 10 25C9.448 25 9 25.448 9 26C9 26.552 9.448 27 10 27C10.552 27 11 26.552 11 26Z" fill="#FFFFFF"/>
<path fill-rule="evenodd" clip-rule="evenodd" d="M11 20C11 19.448 10.552 19 10 19C9.448 19 9 19.448 9 20C9 20.552 9.448 21 10 21C10.552 21 11 20.552 11 20Z" fill="#FFFFFF"/>
<path fill-rule="evenodd" clip-rule="evenodd" d="M14 23C14 22.448 13.552 22 13 22C12.448 22 12 22.448 12 23C12 23.552 12.448 24 13 24C13.552 24 14 23.552 14 23Z" fill="#FFFFFF"/>
<path fill-rule="evenodd" clip-rule="evenodd" d="M14 17C14 16.448 13.552 16 13 16C12.448 16 12 16.448 12 17C12 17.552 12.448 18 13 18C13.552 18 14 17.552 14 17Z" fill="#FFFFFF"/>
<path fill-rule="evenodd" clip-rule="evenodd" d="M11 14C11 13.448 10.552 13 10 13C9.448 13 9 13.448 9 14C9 14.552 9.448 15 10 15C10.552 15 11 14.552 11 14Z" fill="#FFFFFF"/>
<path fill-rule="evenodd" clip-rule="evenodd" d="M14 11C14 10.448 13.552 10 13 10C12.448 10 12 10.448 12 11C12 11.552 12.448 12 13 12C13.552 12 14 11.552 14 11Z" fill="#FFFFFF"/>
</svg>
