<svg width="60" height="60" viewBox="0 0 60 60" fill="none" xmlns="http://www.w3.org/2000/svg">
<path d="M26 59H9C7.9 59 7 58.1 7 57V37H28V57C28 58.1 27.1 59 26 59ZM9 39V57H26V39H9Z" fill="#FFFFFF"/>
<path d="M27 39H8V28H27V39ZM10 37H25V30H10V37Z" fill="#FFFFFF"/>
<path d="M25 30H10V15.4C10 8 16 2 23.4 2C24.3 2 25 2.7 25 3.6V30ZM12 28H23V4C16.9 4.2 12 9.2 12 15.4V28Z" fill="#FFFFFF"/>
<path d="M51 59H34C32.9 59 32 58.1 32 57V22.5C32 16.7 36.7 12 42.5 12C48.3 12 53 16.7 53 22.5V57C53 58.1 52.1 59 51 59ZM42.5 14C37.8 14 34 17.8 34 22.5V57H51V22.5C51 17.8 47.2 14 42.5 14Z" fill="#FFFFFF"/>
<path d="M14.4 16.8H14.3C13.8 16.7 13.4 16.2 13.5 15.7C14 11.8 17 7 21 6.1C21.5 6 22.1 6.3 22.2 6.9C22.3 7.4 22 8 21.4 8.1C18.4 8.8 15.9 12.7 15.4 16C15.3 16.4 14.9 16.8 14.4 16.8Z" fill="#FFFFFF"/>
<path d="M53 52H32V42H53V52ZM34 50H51V44H34V50Z" fill="#FFFFFF"/>
<path d="M28 44H7V37H28V44ZM9 42H26V39H9V42Z" fill="#FFFFFF"/>
</svg>
