<svg width="44" height="54" viewBox="0 0 44 54" fill="none" xmlns="http://www.w3.org/2000/svg">
<path fill-rule="evenodd" clip-rule="evenodd" d="M7.229 22C4.34128 22 2 24.3413 2 27.229V46.771C2 49.6587 4.34128 52 7.229 52H36.771C39.6587 52 42 49.6587 42 46.771V27.229C42 24.3413 39.6587 22 36.771 22H7.229ZM0 27.229C0 23.2367 3.23672 20 7.229 20H36.771C40.7633 20 44 23.2367 44 27.229V46.771C44 50.7633 40.7633 54 36.771 54H7.229C3.23672 54 0 50.7633 0 46.771V27.229Z" fill="#FFFFFF"/>
<path fill-rule="evenodd" clip-rule="evenodd" d="M22 2C14.2006 2 8 7.72378 8 14.5V20H36V14.5C36 7.72378 29.7994 2 22 2ZM6 14.5C6 6.42622 13.2994 0 22 0C30.7006 0 38 6.42622 38 14.5V21C38 21.5523 37.5523 22 37 22H7C6.44772 22 6 21.5523 6 21V14.5Z" fill="#FFFFFF"/>
<path fill-rule="evenodd" clip-rule="evenodd" d="M22 30C20.9023 30 20 30.9023 20 32V38C20 39.0977 20.9023 40 22 40C23.0977 40 24 39.0977 24 38V32C24 30.9023 23.0977 30 22 30ZM18 32C18 29.7977 19.7977 28 22 28C24.2023 28 26 29.7977 26 32V38C26 40.2023 24.2023 42 22 42C19.7977 42 18 40.2023 18 38V32Z" fill="#FFFFFF"/>
</svg>
