<svg width="54" height="54" viewBox="0 0 54 54" fill="none" xmlns="http://www.w3.org/2000/svg">
<path d="M21 42C9.4 42 0 32.6 0 21C0 9.4 9.4 0 21 0C32.6 0 42 9.4 42 21C42 32.6 32.6 42 21 42ZM21 2C10.5 2 2 10.5 2 21C2 31.5 10.5 40 21 40C31.5 40 40 31.5 40 21C40 10.5 31.5 2 21 2Z" fill="#FFFFFF"/>
<path d="M49.4 53.2C49.1 53.2 48.9 53.1 48.7 52.9L32.9 37.2C32.7 37 32.6 36.7 32.6 36.4C32.6 36.1 32.7 35.9 33 35.7C34 34.9 34.9 34 35.7 33C35.9 32.8 36.1 32.6 36.4 32.6C36.7 32.6 37 32.7 37.2 32.9L52.9 48.6C53.3 49 53.3 49.6 52.9 50L50.1 52.8C49.9 53.1 49.7 53.2 49.4 53.2ZM35.1 36.5L49.4 50.8L50.8 49.4L36.5 35.1C36.1 35.6 35.6 36.1 35.1 36.5Z" fill="#FFFFFF"/>
</svg>
