<svg width="60" height="60" viewBox="0 0 60 60" fill="none" xmlns="http://www.w3.org/2000/svg">
<path d="M30 20C33.3 20 36 17.3 36 14C36 10.7 33.3 8 30 8C26.7 8 24 10.7 24 14C24 17.3 26.7 20 30 20ZM30 10C32.2 10 34 11.8 34 14C34 16.2 32.2 18 30 18C27.8 18 26 16.2 26 14C26 11.8 27.8 10 30 10Z" fill="#FFFFFF"/>
<path d="M55 46.8C55 46.7 54.9 46.6 54.9 46.5L47.9 29.7L47.5 28.9C47 27.7 45.9 27 44.7 27H39.9C42.5 22 44.6 16.9 44.6 13.9C44.6 6.2 38 0 30 0C22 0 15.4 6.2 15.4 13.9C15.4 16.9 17.6 22 20.1 27H15.3C14.1 27 13 27.7 12.5 28.8L8.8 37.5V37.6L0 58.6C0 58.7 0 58.7 0 58.8C0 58.9 0 59 0 59.1C0 59.2 0.1 59.3 0.1 59.3C0.2 59.4 0.2 59.5 0.3 59.5C0.3 59.5 0.3 59.5 0.4 59.5C0.5 59.5 0.5 59.6 0.6 59.6H0.7C0.8 60 0.9 60 1 60H59C59.3 60 59.6 59.8 59.8 59.6C60 59.4 60 59 59.9 58.7L55 46.8ZM8.5 58C13.9 56.3 20.8 53.7 24.1 50.3C26.1 50.8 28 51 30 51C30.2 51 30.5 51 30.7 51C38.7 50.8 45 46.8 45 42C45 39.7 43.6 37.6 41.1 35.9C42.4 33.9 44.2 32.4 46.3 31.4L52.9 47C49 55.7 35 57.9 33.9 58H8.5ZM30 2C36.9 2 42.6 7.3 42.6 13.9C42.6 16.7 40.2 22.2 37.3 27.6C37.3 27.6 37.3 27.6 37.3 27.7C35 32.1 32.3 36.5 30.4 39.3C30.3 39.4 30.2 39.5 30 39.5C29.8 39.5 29.7 39.4 29.6 39.3C27.7 36.5 25 32.1 22.7 27.7C22.7 27.7 22.7 27.7 22.7 27.6C19.8 22.2 17.4 16.7 17.4 13.9C17.4 7.3 23.1 2 30 2ZM28 40.4C28.5 41.1 29.2 41.4 30 41.4C30.8 41.4 31.6 41 32 40.4C32.8 40.7 33.5 41.2 34 42C33.9 42.4 32.7 44 30 44C29.8 44 29.6 44 29.5 44C28.1 44 26.8 43.3 26 42.1C26.4 41.2 27.1 40.6 28 40.4ZM14.4 29.6C14.5 29.2 14.9 29 15.3 29H19.8C17.2 30.3 14.8 31.9 12.6 33.8L14.4 29.6ZM10.6 38.6C13.7 35.1 17.6 32.2 21.8 30.3C23.6 33.6 25.5 36.7 26.8 38.7C25.1 39.5 24 40.9 24 42C24 43.4 26.1 45.7 29.4 46C29.6 46 29.8 46 30 46C33.6 46 36 43.6 36 42C36 40.9 34.9 39.5 33.1 38.7C34.6 36.4 36.7 32.9 38.8 29H44.7C45.1 29 45.4 29.2 45.6 29.5C43.1 30.7 40.9 32.6 39.4 34.9C38.9 34.7 38.3 34.9 38.1 35.4C37.9 35.9 38.1 36.5 38.6 36.7C41.4 38.1 43 40 43 42C43 45.7 37.5 48.8 30.6 49C30.4 49 30.2 49 29.9 49C22.9 49 17 45.8 17 42C17 40 18.6 38.1 21.4 36.8C21.7 36.6 21.9 36.3 22 36C22 35.6 21.9 35.3 21.6 35.1C21.3 34.9 20.9 34.9 20.6 35C17 36.7 15 39.2 15 42C15 45.2 17.7 48 21.9 49.6C17.2 53.5 6.9 56.5 2.6 57.5L10.6 38.6ZM42.1 58C46.4 56.5 51.3 53.8 53.9 49.4L57.5 58H42.1Z" fill="#FFFFFF"/>
</svg>
