<svg width="60" height="60" viewBox="0 0 60 60" fill="none" xmlns="http://www.w3.org/2000/svg">
<path d="M2 40H10C10.2 35.4 12 31 15.1 27.6L9.4 21.9C4.9 26.9 2.3 33.2 2 40ZM11 42H1C0.4 42 0 41.6 0 41C0 33 3.1 25.5 8.8 19.8C9.2 19.4 9.8 19.4 10.2 19.8L17.3 26.9C17.7 27.3 17.7 27.9 17.3 28.3C13.9 31.7 12 36.2 12 41C12 41.6 11.6 42 11 42Z" fill="#FFFFFF"/>
<path d="M10.9 20.5L16.6 26.2C20 23.1 24.4 21.3 29 21V13C22.2 13.3 15.9 15.9 10.9 20.5ZM16.6 28.6C16.3 28.6 16.1 28.5 15.9 28.3L8.8 21.2C8.4 20.8 8.4 20.2 8.8 19.8C14.5 14.1 22 11 30 11C30.6 11 31 11.4 31 12V22C31 22.6 30.6 23 30 23C25.2 23 20.7 24.9 17.3 28.3C17.1 28.5 16.8 28.6 16.6 28.6Z" fill="#FFFFFF"/>
<path d="M50 40H58C57.8 33.2 55.1 26.9 50.5 21.9L44.8 27.6C47.9 31 49.7 35.4 50 40ZM59 42H49C48.4 42 48 41.6 48 41C48 36.2 46.1 31.7 42.7 28.3C42.5 28.1 42.4 27.9 42.4 27.6C42.4 27.3 42.5 27.1 42.7 26.9L49.8 19.8C50 19.6 50.2 19.5 50.5 19.5C50.8 19.5 51 19.6 51.2 19.8C56.9 25.5 60 33 60 41C60 41.6 59.6 42 59 42Z" fill="#FFFFFF"/>
<path d="M31 21C35.6 21.2 40 23 43.4 26.1L49.1 20.4C44.1 15.9 37.8 13.3 31 13V21ZM43.4 28.6C43.1 28.6 42.9 28.5 42.7 28.3C39.3 24.9 34.8 23 30 23C29.4 23 29 22.6 29 22V12C29 11.4 29.4 11 30 11C38 11 45.5 14.1 51.2 19.8C51.4 20 51.5 20.2 51.5 20.5C51.5 20.8 51.4 21 51.2 21.2L44.1 28.3C43.9 28.5 43.7 28.6 43.4 28.6Z" fill="#FFFFFF"/>
<path d="M31 39C29.9 39 29 39.9 29 41C29 42.1 29.9 43 31 43C32.1 43 33 42.1 33 41C33 39.9 32.1 39 31 39ZM31 45C28.8 45 27 43.2 27 41C27 38.8 28.8 37 31 37C33.2 37 35 38.8 35 41C35 43.2 33.2 45 31 45Z" fill="#FFFFFF"/>
<path d="M21.7 31C21.5 31 21.3 31.1 21.2 31.2C21 31.4 21 31.7 21 31.9L25.7 43.5C26.4 45.2 27.8 46.4 29.6 46.8C31.4 47.3 33.3 46.8 34.8 45.6C35 45.5 35.1 45.3 35.2 45.2C35.3 45.1 35.5 44.9 35.6 44.8C36.8 43.3 37.3 41.4 36.8 39.6C36.4 37.8 35.1 36.4 33.5 35.7L21.9 31C21.8 31 21.7 31 21.7 31ZM31 49C30.4 49 29.7 48.9 29.1 48.8C26.7 48.2 24.8 46.5 23.9 44.3L19.2 32.6C18.8 31.6 19.1 30.5 19.8 29.8C20.6 29.1 21.6 28.8 22.6 29.2L34.3 33.9C36.6 34.8 38.2 36.7 38.8 39.1C39.4 41.6 38.8 44.1 37.1 46.1C36.9 46.3 36.8 46.5 36.6 46.7C36.4 46.9 36.2 47.1 36 47.2C34.6 48.4 32.8 49 31 49Z" fill="#FFFFFF"/>
</svg>
