<svg width="60" height="60" viewBox="0 0 60 60" fill="none" xmlns="http://www.w3.org/2000/svg">
<path d="M48.9149 47.5714C45.2149 47.5714 38.9149 47.1714 38.9149 44.6714V40.6714H40.9149C40.9149 40.4714 40.8149 40.3714 40.8149 40.3714C41.2149 40.7714 44.1149 41.5714 48.9149 41.5714C53.7149 41.5714 56.6149 40.7714 57.0149 40.3714C57.0149 40.3714 56.9149 40.5714 56.9149 40.6714H58.9149V44.6714C58.9149 45.1714 58.4149 47.5714 48.9149 47.5714ZM40.9149 44.4714C41.5149 44.8714 44.2149 45.5714 48.9149 45.5714C53.4149 45.5714 56.2149 44.8714 56.9149 44.3714V42.4714C55.5149 43.0714 53.0149 43.4714 48.9149 43.4714C44.8149 43.4714 42.3149 42.9714 40.9149 42.4714V44.4714Z" fill="#FFFFFF"/>
<path d="M48.9149 39.5714C39.4149 39.5714 38.9149 37.1714 38.9149 36.6714C38.9149 34.5714 43.9149 32.5714 48.9149 32.5714C53.9149 32.5714 58.9149 34.5714 58.9149 36.6714C58.9149 39.1714 52.6149 39.5714 48.9149 39.5714ZM41.1149 36.5714C42.1149 36.9714 44.8149 37.5714 48.9149 37.5714C53.1149 37.5714 55.8149 36.9714 56.7149 36.5714C55.8149 35.8714 52.8149 34.5714 48.9149 34.5714C45.1149 34.5714 42.1149 35.7714 41.1149 36.5714Z" fill="#FFFFFF"/>
<path d="M48.9149 43.5714C45.2149 43.5714 38.9149 43.1714 38.9149 40.6714V36.6714L40.9149 36.6714C40.9149 36.4714 40.8149 36.3714 40.8149 36.3714C41.2149 36.7714 44.1149 37.5714 48.9149 37.5714C53.7149 37.5714 56.6149 36.7714 57.0149 36.3714C57.0149 36.3714 56.9149 36.5714 56.9149 36.6714L58.9149 36.6714V40.6714C58.9149 41.1714 58.4149 43.5714 48.9149 43.5714ZM40.9149 40.4714C41.5149 40.8714 44.2149 41.5714 48.9149 41.5714C53.4149 41.5714 56.2149 40.8714 56.9149 40.3714V38.4714C55.5149 39.0714 53.0149 39.4714 48.9149 39.4714C44.8149 39.4714 42.3149 38.9714 40.9149 38.4714V40.4714Z" fill="#FFFFFF"/>
<path d="M30.9149 17.9714H18.9149C18.3149 17.9714 17.9149 17.5714 17.9149 16.9714C17.9149 16.3714 18.3149 15.9714 18.9149 15.9714H30.9149C31.5149 15.9714 31.9149 16.3714 31.9149 16.9714C31.9149 17.5714 31.5149 17.9714 30.9149 17.9714Z" fill="#FFFFFF"/>
<path d="M30.9149 14.9714H18.9149C18.3149 14.9714 17.9149 14.5714 17.9149 13.9714C17.9149 13.3714 18.3149 12.9714 18.9149 12.9714H30.9149C31.5149 12.9714 31.9149 13.3714 31.9149 13.9714C31.9149 14.5714 31.5149 14.9714 30.9149 14.9714Z" fill="#FFFFFF"/>
<path d="M28.1149 11.9714H20.7149C19.5149 11.9714 18.4149 11.1714 18.0149 10.0714C17.7149 9.17136 16.0149 6.47136 15.0149 5.57136C14.2149 4.77136 13.8149 3.77136 14.0149 2.77136C14.2149 1.77136 14.9149 0.971356 15.9149 0.571356C18.0149 -0.128644 21.1149 -0.528644 23.7149 1.57136C24.0149 1.87136 24.5149 1.87136 24.8149 1.57136C27.0149 -0.128644 29.6149 -0.428644 32.6149 0.571356C33.6149 0.871356 34.4149 1.77136 34.6149 2.77136C34.8149 3.77136 34.4149 4.87136 33.6149 5.57136C32.7149 6.27136 31.5149 8.77136 31.0149 10.0714C30.4149 11.1714 29.3149 11.9714 28.1149 11.9714ZM19.1149 1.97136C18.2149 1.97136 17.2149 2.17136 16.5149 2.47136C16.1149 2.57136 16.0149 2.97136 15.9149 3.17136C15.8149 3.47136 16.0149 3.87136 16.2149 4.07136C17.5149 5.17136 19.3149 8.27136 19.8149 9.37136C20.0149 9.77136 20.3149 9.97136 20.7149 9.97136H28.1149C28.5149 9.97136 28.8149 9.77136 29.0149 9.27136C29.2149 8.87136 30.6149 5.27136 32.2149 3.97136C32.5149 3.77136 32.6149 3.37136 32.6149 3.07136C32.6149 2.87136 32.4149 2.57136 32.0149 2.37136C29.6149 1.57136 27.7149 1.77136 26.1149 2.97136C25.1149 3.87136 23.5149 3.87136 22.5149 2.97136C21.4149 2.27136 20.2149 1.97136 19.1149 1.97136Z" fill="#FFFFFF"/>
<path d="M30.9149 17.9714C30.3149 17.9714 29.9149 17.5714 29.9149 16.9714V13.9714C29.9149 13.3714 30.3149 12.9714 30.9149 12.9714C31.5149 12.9714 31.9149 13.3714 31.9149 13.9714V16.9714C31.9149 17.5714 31.5149 17.9714 30.9149 17.9714Z" fill="#FFFFFF"/>
<path d="M34.1149 19.1714C32.8149 19.1714 31.5149 18.6714 30.5149 17.6714C30.1149 17.2714 30.1149 16.6714 30.5149 16.2714C30.9149 15.8714 31.5149 15.8714 31.9149 16.2714C33.1149 17.4714 35.0149 17.4714 36.2149 16.2714C36.6149 15.8714 37.2149 15.8714 37.6149 16.2714C38.0149 16.6714 38.0149 17.2714 37.6149 17.6714C36.6149 18.6714 35.4149 19.1714 34.1149 19.1714Z" fill="#FFFFFF"/>
<path d="M48.8149 59.5714C45.4149 59.5714 42.3149 59.1714 40.6149 58.4714L38.9149 57.7714L40.5149 56.6714C41.4149 56.0714 42.1149 55.0714 42.6149 53.7714L42.9149 52.9714L43.7149 53.1714C45.0149 53.4714 46.7149 53.5714 48.9149 53.5714C53.7149 53.5714 56.5149 52.7714 56.9149 52.3714C56.9149 52.3714 56.8149 52.5714 56.8149 52.6714L58.8149 52.5714C58.8149 52.6714 58.8149 52.6714 58.8149 52.7714V56.6714C58.8149 57.1714 58.3149 59.5714 48.8149 59.5714ZM43.0149 57.0714C44.5149 57.3714 46.6149 57.5714 48.8149 57.5714C53.3149 57.5714 56.1149 56.8714 56.8149 56.3714V54.5714C54.8149 55.2714 51.6149 55.5714 48.9149 55.5714C47.0149 55.5714 45.4149 55.4714 44.1149 55.2714C43.8149 55.9714 43.4149 56.5714 43.0149 57.0714Z" fill="#FFFFFF"/>
<path d="M48.9149 51.6714C46.9149 51.6714 45.0149 51.4714 43.6149 51.2714L42.9149 51.1714L42.7149 50.5714C42.2149 48.7714 41.0149 47.3714 39.4149 46.5714L38.9149 46.2714V44.6714H40.9149C40.9149 44.4714 40.8149 44.3714 40.8149 44.3714C41.2149 44.7714 44.1149 45.5714 48.9149 45.5714C53.7149 45.5714 56.6149 44.7714 57.0149 44.3714C57.0149 44.3714 56.9149 44.5714 56.9149 44.7714H58.9149V48.7714C58.9149 49.2714 58.4149 51.6714 48.9149 51.6714ZM44.5149 49.3714C45.8149 49.5714 47.3149 49.6714 48.9149 49.6714C53.4149 49.6714 56.2149 48.9714 56.9149 48.4714V46.5714C55.5149 47.0714 53.0149 47.5714 48.9149 47.5714C46.5149 47.5714 44.6149 47.3714 43.3149 47.1714C43.8149 47.8714 44.2149 48.5714 44.5149 49.3714Z" fill="#FFFFFF"/>
<path d="M48.9149 55.5714C47.2149 55.5714 45.4149 55.4714 43.4149 55.1714L42.1149 54.9714L42.6149 53.7714C42.8149 53.2714 42.9149 52.6714 42.9149 51.9714C42.9149 51.3714 42.9149 50.9714 42.8149 50.4714L42.2149 48.7714L43.9149 49.1714C45.1149 49.4714 46.7149 49.5714 48.9149 49.5714C53.7149 49.5714 56.6149 48.7714 57.0149 48.3714C57.0149 48.3714 56.9149 48.5714 56.9149 48.6714H58.9149V52.6714C58.9149 53.1714 58.4149 55.5714 48.9149 55.5714ZM44.8149 53.3714C46.3149 53.5714 47.7149 53.5714 48.9149 53.5714C53.4149 53.5714 56.2149 52.8714 56.9149 52.3714V50.4714C55.5149 51.0714 53.0149 51.4714 48.9149 51.4714C47.3149 51.4714 46.0149 51.3714 44.9149 51.2714C44.9149 51.4714 44.9149 51.6714 44.9149 51.8714C44.9149 52.4714 44.9149 52.8714 44.8149 53.3714Z" fill="#FFFFFF"/>
<path d="M32.9149 56.3714H10.6149C7.71488 56.1714 5.11488 53.9714 3.01488 49.9714C-1.08512 41.8714 1.21488 31.6714 8.61488 25.7714L15.6149 20.6714C17.1149 19.5714 19.0149 18.8714 20.9149 18.8714H28.6149C30.3149 18.8714 32.2149 19.5714 33.8149 20.8714L41.0149 25.7714C43.5149 27.6714 45.6149 30.2714 47.0149 33.2714L47.6149 34.4714L46.3149 34.6714C43.2149 35.1714 41.3149 36.2714 40.9149 36.7714V47.1714L39.5149 46.4714C38.4149 45.9714 37.0149 45.7714 35.7149 46.0714C33.3149 46.5714 31.4149 48.6714 31.0149 50.9714C30.8149 52.4714 31.1149 53.8714 31.7149 54.7714L32.9149 56.3714ZM20.9149 20.8714C19.5149 20.8714 18.0149 21.3714 16.8149 22.2714L9.81488 27.3714C3.21488 32.6714 1.11488 41.7714 4.81488 48.9714C6.51488 52.2714 8.61488 54.1714 10.7149 54.3714H29.3149C29.0149 53.2714 28.8149 52.0714 29.0149 50.7714C29.5149 47.5714 32.0149 44.8714 35.3149 44.1714C36.5149 43.9714 37.8149 43.9714 38.9149 44.2714V36.6714C38.9149 34.9714 42.0149 33.6714 44.6149 33.0714C43.3149 30.8714 41.7149 28.9714 39.8149 27.4714L32.6149 22.5714C31.3149 21.5714 29.8149 20.9714 28.6149 20.9714H20.9149V20.8714Z" fill="#FFFFFF"/>
<path d="M36.9149 59.9714C32.4149 59.9714 28.9149 56.4714 28.9149 51.9714C28.9149 47.4714 32.4149 43.9714 36.9149 43.9714C41.4149 43.9714 44.9149 47.4714 44.9149 51.9714C44.9149 56.4714 41.4149 59.9714 36.9149 59.9714ZM36.9149 45.9714C33.5149 45.9714 30.9149 48.5714 30.9149 51.9714C30.9149 55.3714 33.5149 57.9714 36.9149 57.9714C40.3149 57.9714 42.9149 55.3714 42.9149 51.9714C42.9149 48.5714 40.3149 45.9714 36.9149 45.9714Z" fill="#FFFFFF"/>
<path d="M8.91488 41.9714C8.31488 41.9714 7.91488 41.5714 7.91488 40.9714C7.91488 34.0714 15.5149 25.9714 21.9149 25.9714C22.5149 25.9714 22.9149 26.3714 22.9149 26.9714C22.9149 27.5714 22.5149 27.9714 21.9149 27.9714C16.5149 27.9714 9.91488 35.1714 9.91488 40.9714C9.91488 41.5714 9.51488 41.9714 8.91488 41.9714Z" fill="#FFFFFF"/>
</svg>
