<svg width="60" height="60" viewBox="0 0 60 60" fill="none" xmlns="http://www.w3.org/2000/svg">
<path fill-rule="evenodd" clip-rule="evenodd" d="M46.9711 13.0294C37.5987 3.65688 22.4018 3.65688 13.0293 13.0294C3.6569 22.4018 3.65683 37.5976 13.0293 46.9711C22.4018 56.3436 37.5987 56.3436 46.9711 46.9711C56.3436 37.5976 56.3436 22.4018 46.9711 13.0294ZM11.6151 11.6151C21.7687 1.46162 38.2318 1.46162 48.3853 11.6151C58.5389 21.7687 58.5388 38.2308 48.3854 48.3853C38.2318 58.5388 21.7687 58.5389 11.6151 48.3854C1.46167 38.2309 1.46158 21.7687 11.6151 11.6151Z" fill="#FFFFFF"/>
<path fill-rule="evenodd" clip-rule="evenodd" d="M48.3853 13.0294L13.0293 48.3854L11.6151 46.9711L46.9711 11.6151L48.3853 13.0294Z" fill="#FFFFFF"/>
</svg>
