<svg width="60" height="60" viewBox="0 0 60 60" fill="none" xmlns="http://www.w3.org/2000/svg">
<path d="M53.4 59C53.2 59 53.1 59 52.9 58.9L46 55.3L39.1 58.9C38.8 59.1 38.4 59 38.1 58.8C37.8 58.6 37.6 58.2 37.7 57.8L39 50.3L33.4 45.1C33.1 44.8 33 44.4 33.1 44.1C33.2 43.8 33.5 43.5 33.9 43.4L41.7 42.3L45.2 35.6C45.5 34.9 46.6 34.9 47 35.6L50.5 42.3L58.3 43.4C58.7 43.5 59 43.7 59.1 44.1C59.2 44.5 59.1 44.9 58.8 45.1L53.2 50.3L54.5 57.8C54.6 58.2 54.4 58.6 54.1 58.8C53.8 58.9 53.6 59 53.4 59ZM46 53.2C46.2 53.2 46.3 53.2 46.5 53.3L52.1 56.2L51 50.2C50.9 49.9 51.1 49.5 51.3 49.3L55.8 45.1L49.6 44.2C49.3 44.2 49 44 48.9 43.7L46 38.2L43.2 43.7C43.1 44 42.8 44.2 42.5 44.2L36.3 45.1L40.8 49.3C41 49.5 41.2 49.9 41.1 50.2L40 56.2L45.6 53.3C45.7 53.2 45.8 53.2 46 53.2Z" fill="#FFFFFF"/>
<path d="M16 57H0V53.2C0 50.3 1.7 47.6 4.2 46.3L10.9 42.1C11.6 41.7 12 41 12 40.1V37.3C11.2 36.5 9.2 34.1 8.3 31.1C7.5 30.5 7 29.4 7 28.4V24.9C7 24 7.5 23.2 8 22.6V18C8 17.9 8.6 9 19 9C22.1 9 24.7 9.8 26.6 11.3L27 11.6V18.3L26.6 18.6C26.2 18.9 26 19.4 26 20V24C26 24.9 26.6 25.5 27 25.8L27.2 26L27.3 26.3C27.4 26.5 27.4 26.7 27.5 26.8C27.5 27 27.6 27.1 27.6 27.3V27.4C27.6 27.5 27.7 27.6 27.7 27.7L28 28.7C28 28.8 28.1 28.8 28.1 28.9C28.1 29 28.2 29.1 28.2 29.2C28.3 29.3 28.4 29.4 28.4 29.6V29.7C28.5 29.9 28.6 30.1 28.7 30.4C29.6 32.2 30.6 33.4 30.6 33.4L30.8 33.7V37.8C30.8 39.5 29.8 41.1 28.3 41.9L25.2 43.6H25.1L19.4 46.7C17.1 47.9 15.7 50.3 15.7 52.9V57H16ZM2 55H14V52.8C14 49.4 15.8 46.4 18.7 44.8L27.6 40C28.4 39.6 29 38.7 29 37.7V34.3C28.6 33.8 27.8 32.6 27 31.1V31C27 30.9 26.9 30.9 26.9 30.8H26.7L26.5 30.1C26.5 30 26.4 29.9 26.4 29.8C26.3 29.6 26.2 29.4 26.1 29.2L25.8 28.1C25.8 28 25.7 27.9 25.7 27.8C25.7 27.7 25.6 27.5 25.6 27.3C25.6 27.2 25.6 27.2 25.5 27.1C24.6 26.2 24.1 25.1 24.1 23.9V19.9C24.1 18.9 24.5 18 25.1 17.3V12.6C23.5 11.5 21.4 11 19 11C10.4 11 10 17.8 10 18V23.4L9.7 23.7C9.3 24.1 9 24.6 9 24.9V28.4C9 28.9 9.3 29.4 9.8 29.8L10.1 30L10.2 30.4C11 33.8 13.7 36.3 13.7 36.3L14 36.6V40.2C14 41.7 13.2 43.1 11.9 43.9L5.1 48.1C3.2 49 2 51 2 53.2V55Z" fill="#FFFFFF"/>
<path d="M27 57H14V52.8C14 49.5 15.8 46.5 18.7 44.9L27.6 40C28.4 39.6 29 38.7 29 37.7V34.3C28.3 33.4 26.4 30.7 25.5 27.1C24.5 26.4 24 25.2 24 24V20C24 19 24.3 18.2 25 17.4V12.1C24.9 11.5 24.7 8.3 27.1 5.6C29.1 3.2 32.5 2 37 2C41.5 2 44.9 3.2 46.9 5.5C49.3 8.2 49 11.5 49 12V17.3C49.6 18 50 18.9 50 19.9V23.9C50 25.6 48.9 27.2 47.2 27.7C46.7 27.9 46.1 27.6 45.9 27.1C45.7 26.6 46 26 46.5 25.8C47.4 25.5 47.9 24.7 47.9 23.8V19.8C47.9 19.2 47.7 18.7 47.3 18.4L47 18.3V11.9C47 11.9 47.3 9.1 45.4 6.9C43.7 5 40.9 4 37 4C33.1 4 30.3 5 28.6 6.8C26.7 9 27 11.8 27 11.8V18.2L26.7 18.5C26.2 19 26 19.5 26 20V24C26 24.7 26.3 25.3 26.9 25.7L27.3 25.9L27.4 26.3C28.3 30.4 30.8 33.3 30.8 33.4L31 33.7V37.8C31 39.5 30 41.1 28.5 41.9L19.6 46.8C17.3 48 15.9 50.4 15.9 52.9V55H26.9C27.5 55 27.9 55.4 27.9 56C27.9 56.6 27.6 57 27 57Z" fill="#FFFFFF"/>
</svg>
