<svg width="60" height="46" viewBox="0 0 60 46" fill="none" xmlns="http://www.w3.org/2000/svg">
<path d="M12.8687 43C12.2687 43 11.8687 42.6 11.8687 42V29C11.8687 28.4 12.2687 28 12.8687 28C13.4688 28 13.8687 28.4 13.8687 29V42C13.8687 42.6 13.4688 43 12.8687 43Z" fill="#FFFFFF"/>
<path d="M12.8688 2C10.6688 2 8.86875 3.8 8.86875 6C8.86875 8.2 10.6688 10 12.8688 10C15.0688 10 16.8687 8.2 16.8687 6C16.8687 3.8 15.0688 2 12.8688 2ZM12.8688 12C9.56875 12 6.86875 9.3 6.86875 6C6.86875 2.7 9.56875 0 12.8688 0C16.1688 0 18.8687 2.7 18.8687 6C18.8687 9.3 16.1688 12 12.8688 12Z" fill="#FFFFFF"/>
<path d="M10.3687 46H10.2687C8.36875 45.9 7.06875 44.3 6.96875 42V22.5L5.46875 25.7C5.06875 26.7 3.96875 27.5 2.86875 27.5C1.86875 27.5 1.06875 27 0.46875 26.2C-0.03125 25.4 -0.13125 24.4 0.16875 23.5L5.16875 13C5.86875 11.3 7.26875 9.9 9.36875 8.9C9.86875 8.7 10.4688 8.9 10.6687 9.4C10.8687 9.9 10.6687 10.5 10.1687 10.7C8.56875 11.4 7.46875 12.5 6.86875 13.9L1.86875 24.4C1.86875 24.7 1.86875 24.9 2.06875 25.2C2.46875 25.7 3.36875 25.6 3.56875 25L6.96875 17.6C7.16875 17.2 7.66875 16.9 8.06875 17C8.56875 17.1 8.86875 17.5 8.86875 18V42C8.86875 43.2 9.46875 44 10.2687 44C10.6687 44 10.9687 43.8 11.0687 43.6C11.4687 43.2 11.7687 42.5 11.7687 42C11.7687 41.4 12.1687 41 12.7687 41C13.3687 41 13.7687 41.4 13.7687 42C13.7687 42.6 14.0688 43.3 14.4688 43.7C14.6687 43.9 14.8687 44.1 15.1687 44C15.8687 44 16.6687 42.9 16.6687 42V22C16.6687 21.7 16.6687 19.5 18.2687 18.2C20.3687 16.4 22.7687 13.9 24.9688 11.6C25.6688 10.8 26.3687 10.1 27.0688 9.4L30.2687 6C30.7687 5.8 30.8687 5.4 30.8687 5C30.8687 4.6 30.6687 4.2 30.3687 4C29.8687 3.5 28.8687 3.6 28.3687 4.2L22.1687 10.4C20.5687 12 18.1687 12.3 16.3687 11.1C16.1687 11 15.8687 10.8 15.6687 10.7C15.1687 10.5 14.9688 9.9 15.1687 9.4C15.3687 8.9 15.9688 8.7 16.4688 8.9C16.7687 9 17.0688 9.2 17.3687 9.4C18.3687 10 19.7687 9.8 20.6687 8.9L26.8687 2.7C28.2687 1.3 30.3687 1.2 31.6687 2.5C32.4688 3.2 32.8688 4 32.8688 5C32.8688 5.9 32.5687 6.9 31.8687 7.5L28.6687 10.9C27.9687 11.6 27.3687 12.3 26.5688 13.1C24.3687 15.4 21.9688 18 19.7687 19.8C19.0687 20.3 18.8687 21.6 18.8687 22V42C18.8687 43.8 17.3687 45.9 15.4688 46C14.6687 46 13.8687 45.7 13.2687 45.1C13.1687 45 12.9688 44.8 12.8687 44.7C12.7687 44.8 12.6687 45 12.5687 45.1C11.8687 45.7 11.0687 46 10.3687 46Z" fill="#FFFFFF"/>
<path d="M46.8688 43C46.2688 43 45.8688 42.6 45.8688 42V29C45.8688 28.4 46.2688 28 46.8688 28C47.4688 28 47.8688 28.4 47.8688 29V42C47.8688 42.6 47.4688 43 46.8688 43Z" fill="#FFFFFF"/>
<path d="M46.8688 2C44.6688 2 42.8688 3.8 42.8688 6C42.8688 8.2 44.6688 10 46.8688 10C49.0688 10 50.8688 8.2 50.8688 6C50.8688 3.8 49.0688 2 46.8688 2ZM46.8688 12C43.5688 12 40.8688 9.3 40.8688 6C40.8688 2.7 43.5688 0 46.8688 0C50.1688 0 52.8688 2.7 52.8688 6C52.8688 9.3 50.1688 12 46.8688 12Z" fill="#FFFFFF"/>
<path d="M41.0687 11.8C39.8687 11.8 38.5687 11.3 37.6687 10.4L31.4688 4.2C31.0688 3.8 30.5688 3.7 30.0688 3.7C29.5688 3.8 28.9688 3.4 28.9688 2.9C28.8687 2.4 29.2687 1.8 29.7687 1.8C30.8687 1.6 32.0687 2 32.8687 2.8L39.0687 9C39.9688 9.9 41.3687 10.1 42.3687 9.5C42.6687 9.3 42.9688 9.2 43.2687 9C43.7687 8.8 44.3687 9 44.5687 9.5C44.7687 10 44.5687 10.6 44.0687 10.8C43.8687 10.9 43.5687 11 43.3687 11.2C42.7687 11.6 41.9688 11.8 41.0687 11.8Z" fill="#FFFFFF"/>
<path d="M49.4688 46C48.6688 46 47.9688 45.7 47.2688 45.1C47.1688 45 47.0687 44.9 46.9688 44.7C46.8688 44.8 46.7688 45 46.5688 45.1C45.8688 45.7 45.0688 46 44.2688 46C42.3688 45.9 40.8688 43.8 40.8688 42V22C40.8688 21.6 40.6688 20.3 39.9688 19.8C37.7687 18 35.2687 15.4 33.1688 13.1C32.4688 12.3 31.7688 11.6 31.0688 10.9L29.0688 8.9C28.6688 8.5 28.6688 7.9 29.0688 7.5C29.4688 7.1 30.0688 7.1 30.4688 7.5L32.4688 9.5C33.0687 10.2 33.7688 10.9 34.5688 11.7C36.6688 14 39.1688 16.5 41.2688 18.3C42.8688 19.5 42.8688 21.7 42.8688 22V42C42.8688 42.9 43.6688 44 44.3688 44C44.6688 44 44.9688 43.8 45.0688 43.7C45.4688 43.3 45.7688 42.6 45.7688 42C45.7688 41.4 46.1688 41 46.7688 41C47.3688 41 47.7688 41.4 47.7688 42C47.7688 42.5 48.0687 43.2 48.4688 43.6C48.6688 43.8 48.9688 44 49.2688 44C50.0688 44 50.6688 43.1 50.6688 41.9L50.8688 18C50.8688 17.5 51.1688 17.1 51.6688 17C52.1688 16.9 52.5688 17.1 52.7688 17.6L56.1688 25C56.4688 25.7 57.3688 25.8 57.6688 25.2C57.8688 25 57.8688 24.7 57.7688 24.4L52.8688 14C52.2688 12.6 51.1688 11.5 49.5688 10.8C49.0688 10.6 48.8688 10 49.0688 9.5C49.2688 9 49.8688 8.8 50.3688 9C52.3688 9.9 53.8688 11.4 54.6688 13.2L59.5688 23.6C59.9688 24.5 59.8688 25.5 59.3688 26.3C58.8688 27.1 57.9688 27.6 56.9688 27.6C55.7687 27.6 54.6688 26.9 54.2688 25.7L52.8688 22.5V42C52.7688 44.3 51.4688 45.9 49.5688 46C49.4688 46 49.4688 46 49.4688 46Z" fill="#FFFFFF"/>
</svg>
