<svg width="60" height="60" viewBox="0 0 60 60" fill="none" xmlns="http://www.w3.org/2000/svg">
<path d="M28.9985 23C26.7985 23 24.9985 21.2 24.9985 19C24.9985 16.8 26.7985 15 28.9985 15C31.1985 15 32.9985 16.8 32.9985 19C32.9985 21.2 31.1985 23 28.9985 23ZM28.9985 17C27.8985 17 26.9985 17.9 26.9985 19C26.9985 20.1 27.8985 21 28.9985 21C30.0985 21 30.9985 20.1 30.9985 19C30.9985 17.9 30.0985 17 28.9985 17Z" fill="#FFFFFF"/>
<path d="M39.9985 23C37.7985 23 35.9985 21.2 35.9985 19C35.9985 16.8 37.7985 15 39.9985 15C42.1985 15 43.9985 16.8 43.9985 19C43.9985 21.2 42.1985 23 39.9985 23ZM39.9985 17C38.8985 17 37.9985 17.9 37.9985 19C37.9985 20.1 38.8985 21 39.9985 21C41.0985 21 41.9985 20.1 41.9985 19C41.9985 17.9 41.0985 17 39.9985 17Z" fill="#FFFFFF"/>
<path d="M50.9985 23C48.7985 23 46.9985 21.2 46.9985 19C46.9985 16.8 48.7985 15 50.9985 15C53.1985 15 54.9985 16.8 54.9985 19C54.9985 21.2 53.1985 23 50.9985 23ZM50.9985 17C49.8985 17 48.9985 17.9 48.9985 19C48.9985 20.1 49.8985 21 50.9985 21C52.0985 21 52.9985 20.1 52.9985 19C52.9985 17.9 52.0985 17 50.9985 17Z" fill="#FFFFFF"/>
<path d="M19.9985 39C19.5985 39 19.2985 38.8 19.0985 38.4C18.8985 38 18.9985 37.6 19.2985 37.2C20.7985 35.7 21.6985 32.7 22.1985 28.3C20.0985 25.4 18.9985 22 18.9985 18.5C18.9985 8.3 28.1985 0 39.4985 0C50.7985 0 59.9985 8.3 59.9985 18.5C59.9985 28.7 50.7985 37 39.4985 37C36.5985 37 33.7985 36.5 31.2985 35.4C26.6985 38.1 20.3985 39 20.0985 39H19.9985ZM39.4985 2C29.2985 2 20.9985 9.4 20.9985 18.5C20.9985 21.7 21.9985 24.9 23.9985 27.5C24.0985 27.7 24.1985 27.9 24.1985 28.2C23.8985 31.8 23.1985 34.6 22.1985 36.6C24.4985 36.1 27.9985 35.1 30.6985 33.5L34.2985 31.1C34.6985 30.8 35.1985 30.9 35.5985 31.2C35.7985 31.4 35.8985 31.7 35.8985 32C35.7985 32.5 35.7985 32.6 33.4985 34.1C35.3985 34.7 37.3985 35 39.5985 35C49.6985 35 57.9985 27.6 57.9985 18.5C57.9985 9.4 49.6985 2 39.4985 2Z" fill="#FFFFFF"/>
<path d="M26.6985 60H3.29849C2.29849 60 1.39849 59.3 1.09849 58.3C0.798493 57.3 1.19849 56.3 2.09849 55.7L6.29849 53C6.99849 52.6 7.99849 51 7.99849 50.2V47.5C7.09849 46.8 5.19849 44.9 4.29849 41.8C3.49849 41.2 2.99849 40.1 2.99849 39V35.4C2.99849 34.6 3.39849 33.5 3.99849 32.7V30C3.99849 30 3.69849 26.8 6.09849 24.2C7.99849 22.1 10.9985 21 14.9985 21C17.3985 21 19.3985 21.4 21.0985 22.1L21.4985 22.3L21.5985 22.8C22.0985 24.4 22.8985 26.1 23.8985 27.6L24.0985 27.9V28.3C23.9985 30.5 23.4985 34 22.0985 36.7C23.0985 36.5 24.2985 36.2 25.5985 35.8L26.8985 35.4V39C26.8985 40 26.3985 41.1 25.5985 41.8C24.7985 44.9 22.7985 46.8 21.8985 47.5V50.2C21.8985 51 22.8985 52.6 23.5985 53L27.7985 55.7C28.6985 56.3 29.0985 57.3 28.7985 58.3C28.5985 59.3 27.6985 60 26.6985 60ZM14.9985 23C11.5985 23 8.99849 23.8 7.49849 25.5C5.79849 27.5 5.99849 29.9 5.99849 29.9V33.5L5.69849 33.8C5.39849 34.1 4.99849 35 4.99849 35.4V39C4.99849 39.5 5.29849 40.1 5.69849 40.3L6.09849 40.5L6.19849 41C6.99849 44.5 9.49849 46.2 9.59849 46.2L9.99849 46.5V50.2C9.99849 51.8 8.49849 54 7.29849 54.8L3.09849 57.5C2.99849 57.5 2.99849 57.6 2.99849 57.8C2.99849 57.9 3.09849 58 3.29849 58H26.6985C26.8985 58 26.9985 57.9 26.9985 57.8C26.9985 57.7 26.9985 57.5 26.8985 57.5L22.6985 54.8C21.4985 54 19.9985 51.8 19.9985 50.2V46.5L20.4985 46.2C20.4985 46.2 23.0985 44.4 23.8985 41L23.9985 40.6L24.2985 40.4C24.6985 40 24.9985 39.5 24.9985 39V37.9C22.2985 38.6 20.1985 38.9 20.0985 39L17.0985 39.4L19.1985 37.3C20.6985 35.8 21.7985 32.5 22.0985 28.4C21.0985 27 20.2985 25.4 19.7985 23.8C18.4985 23.2 16.8985 23 14.9985 23Z" fill="#FFFFFF"/>
</svg>
