<svg width="36" height="60" viewBox="0 0 36 60" fill="none" xmlns="http://www.w3.org/2000/svg">
<path d="M31 0H5C2.2 0 0 2.2 0 5V55C0 57.8 2.2 60 5 60H31C33.8 60 36 57.8 36 55V5C36 2.2 33.8 0 31 0ZM34 55C34 56.7 32.7 58 31 58H5C3.3 58 2 56.7 2 55V5C2 3.3 3.3 2 5 2H31C32.7 2 34 3.3 34 5V55Z" fill="#FFFFFF"/>
<path d="M31 3.5H27.7C27.1 3.5 26.5 3.9 26.3 4.5L26 5.5C25.8 6.1 25.2 6.5 24.6 6.5H11.4C10.8 6.5 10.2 6.1 10 5.5L9.7 4.5C9.5 3.9 8.9 3.5 8.3 3.5H5C4.2 3.5 3.5 4.2 3.5 5V55C3.5 55.8 4.2 56.5 5 56.5H31C31.8 56.5 32.5 55.8 32.5 55V5C32.5 4.2 31.8 3.5 31 3.5ZM5 4.5H8.3C8.5 4.5 8.7 4.6 8.8 4.8L9.1 5.7C9.4 6.7 10.4 7.4 11.5 7.4H24.6C25.7 7.4 26.6 6.7 27 5.7L27.3 4.8C27.4 4.6 27.6 4.5 27.8 4.5H31C31.3 4.5 31.5 4.7 31.5 5V41.8C30.3 41 28.9 40.4 27.5 40C26.3 39.7 25.2 39.1 24.3 38.3V36.5C25.8 35.1 26.4 33 26.1 31C27.2 30.2 27.9 28.9 28.2 27.6C28.4 25.4 28.2 24.2 27.6 23.9C27.3 23.7 27 23.7 26.7 23.9C26.7 23 26.7 21.8 26.7 20.5C26.4 13.6 18.5 13.2 18.4 13.2H17.2C17.1 13.2 9.3 13.6 8.9 20.5C8.8 21.9 8.8 23 8.9 23.9C8.6 23.8 8.3 23.8 8 23.9C7.4 24.2 7.2 25.5 7.4 27.7C7.6 29.1 8.4 30.3 9.5 31.1C9.2 33.1 9.9 35.2 11.3 36.6V38.4C10.4 39.2 9.3 39.8 8.1 40.1C6.8 40.4 5.6 40.9 4.5 41.6V5C4.5 4.7 4.7 4.5 5 4.5ZM12.1 35.9C10.3 34.2 10.3 32.7 10.4 30.9C10.4 30.8 10.4 30.7 10.4 30.6C10.4 30.3 10.4 30.1 10.4 29.8C10.4 29.1 10.3 28.3 10.2 27.6C9.8 25.2 9.6 22.8 9.8 20.4C10.1 14.4 16.8 14.1 17.1 14H18.3C18.6 14 25.3 14.4 25.6 20.4C25.8 22.8 25.7 25.2 25.2 27.6C25 28.3 25 29 25 29.8C25 30.1 25 30.4 25 30.6C25 30.7 25 30.8 25 30.9C25.1 32.7 25.1 34.2 23.3 35.9C22.5 36.7 21.8 37.5 21.3 38.5C20.5 39.7 20.1 40.3 18.9 40.3H16.5C15.3 40.3 14.9 39.6 14.1 38.5C13.6 37.6 12.9 36.7 12.1 35.9ZM9.3 27.8C9.4 28.4 9.5 29.1 9.5 29.7C8.9 29.1 8.6 28.3 8.4 27.4C8.3 26.5 8.3 25.6 8.4 24.6C8.5 24.6 8.7 24.7 8.9 25C9 26 9.1 26.9 9.3 27.8ZM26.1 29.7C26.1 29 26.2 28.4 26.3 27.8C26.5 26.9 26.6 26 26.7 25.1C26.8 24.9 27 24.8 27.1 24.7C27.3 25.6 27.3 26.6 27.2 27.5C27 28.3 26.6 29.1 26.1 29.7ZM31 55.5H5C4.7 55.5 4.5 55.3 4.5 55V42.7C5.7 42 6.9 41.4 8.3 41C8.7 40.9 9 40.8 9.4 40.7C9.2 42.6 9.2 46.8 12.5 48.5C12.6 48.5 12.6 48.6 12.7 48.6C12.9 48.6 13.1 48.4 13.2 48.2C13.3 48 13.1 47.7 12.9 47.6C9.7 46 10.3 41.1 10.4 40.2C10.7 40 11 39.8 11.2 39.7V40.9C11.2 41.2 11.4 41.4 11.7 41.4C12 41.4 12.2 41.2 12.2 40.9V37.6C12.6 38.1 12.9 38.6 13.2 39.1C14 40.3 14.7 41.4 16.4 41.4H19C20.8 41.4 21.4 40.3 22.2 39.1C22.5 38.6 22.9 38.1 23.2 37.6V40.9C23.2 41.2 23.4 41.4 23.7 41.4C24 41.4 24.2 41.2 24.2 40.9V39.7C24.4 39.9 24.7 40.1 25 40.2C25.1 41.2 25.7 46 22.5 47.6C22.3 47.7 22.2 47.9 22.2 48.2C22.3 48.4 22.5 48.6 22.7 48.6C22.8 48.6 22.9 48.6 22.9 48.5C26.2 46.8 26.2 42.6 26 40.7C26.4 40.9 26.7 41 27.1 41C28.5 41.4 29.9 42 31.1 42.9C31.2 42.9 31.2 43 31.3 43V55C31.5 55.3 31.3 55.5 31 55.5Z" fill="#FFFFFF"/>
<path d="M23 5C23.3 5 23.5 4.9 23.7 4.7C23.9 4.5 24 4.3 24 4C24 3.9 24 3.9 24 3.8C24 3.7 24 3.7 23.9 3.6C23.9 3.5 23.8 3.5 23.8 3.4C23.8 3.3 23.7 3.3 23.7 3.2C23.3 2.8 22.7 2.8 22.3 3.2C22.3 3.2 22.2 3.3 22.2 3.4C22.2 3.5 22.1 3.5 22.1 3.6C22.1 3.7 22.1 3.7 22 3.8C22 3.9 22 3.9 22 4C22 4.3 22.1 4.5 22.3 4.7C22.5 4.9 22.7 5 23 5Z" fill="#FFFFFF"/>
<path d="M7 12H10C10.6 12 11 11.6 11 11C11 10.4 10.6 10 10 10H7C6.4 10 6 10.4 6 11C6 11.6 6.4 12 7 12Z" fill="#FFFFFF"/>
<path d="M24 12H29C29.6 12 30 11.6 30 11C30 10.4 29.6 10 29 10H24C23.4 10 23 10.4 23 11C23 11.6 23.4 12 24 12Z" fill="#FFFFFF"/>
<path d="M18 46.5C16.1 46.5 14.5 48.1 14.5 50C14.5 51.9 16.1 53.5 18 53.5C19.9 53.5 21.5 51.9 21.5 50C21.5 48.1 19.9 46.5 18 46.5ZM18 52.5C16.6 52.5 15.5 51.4 15.5 50C15.5 48.6 16.6 47.5 18 47.5C19.4 47.5 20.5 48.6 20.5 50C20.5 51.4 19.4 52.5 18 52.5Z" fill="#FFFFFF"/>
<path d="M10 48.5C8.6 48.5 7.5 49.6 7.5 51C7.5 52.4 8.6 53.5 10 53.5C11.4 53.5 12.5 52.4 12.5 51C12.5 49.6 11.4 48.5 10 48.5ZM10 52.5C9.2 52.5 8.5 51.8 8.5 51C8.5 50.2 9.2 49.5 10 49.5C10.8 49.5 11.5 50.2 11.5 51C11.5 51.8 10.8 52.5 10 52.5Z" fill="#FFFFFF"/>
<path d="M26 48.5C25 48.5 24.1 49.1 23.7 50C23.3 50.9 23.5 52 24.2 52.7C24.9 53.4 26 53.6 26.9 53.2C27.8 52.8 28.4 51.9 28.4 50.9C28.5 49.6 27.4 48.5 26 48.5ZM26 52.5C25.2 52.5 24.5 51.8 24.5 51C24.5 50.2 25.2 49.5 26 49.5C26.8 49.5 27.5 50.2 27.5 51C27.5 51.8 26.8 52.5 26 52.5Z" fill="#FFFFFF"/>
</svg>
