<svg width="60" height="60" viewBox="0 0 60 60" fill="none" xmlns="http://www.w3.org/2000/svg">
<path d="M42.682 57.076C37.582 57.076 32.082 54.176 26.382 48.376L11.682 33.676C1.68202 23.676 0.282019 14.476 7.68202 7.07595L10.182 4.47595C11.782 2.97595 14.082 2.57595 15.882 3.47595C19.782 5.47595 23.882 12.476 23.982 12.776C25.282 15.076 24.982 17.376 23.082 18.476C21.882 19.476 20.482 20.776 20.182 21.076C18.682 23.576 18.782 25.376 20.882 27.376L32.282 38.776C34.382 40.8759 36.282 41.076 38.582 39.476C38.882 39.276 40.182 37.8759 41.282 36.576C41.882 35.576 42.782 34.976 43.982 34.876C44.882 34.776 45.982 35.076 46.982 35.676C47.282 35.876 54.282 39.976 56.282 43.776C57.282 45.676 56.882 47.976 55.482 49.676L52.982 52.376C49.882 55.476 46.382 57.076 42.682 57.076ZM13.782 4.97595C12.982 4.97595 12.182 5.27595 11.582 5.87595L9.08202 8.47595C5.58202 11.976 4.28202 15.776 5.28202 20.076C6.18202 23.876 8.78202 27.976 13.082 32.276L27.782 46.976C36.982 56.176 44.982 57.476 51.582 50.976L54.082 48.476C54.982 47.376 55.182 46.076 54.582 44.876C53.082 42.176 47.982 38.6759 46.082 37.576C45.382 37.1759 44.782 36.976 44.182 37.076C43.682 37.076 43.282 37.3759 43.082 37.776L42.982 37.876C42.282 38.676 40.482 40.776 39.882 41.176C36.782 43.376 33.782 42.976 30.982 40.276L19.582 28.876C16.882 26.176 16.582 23.276 18.682 20.076C19.082 19.376 21.182 17.676 21.982 16.976L22.182 16.876C23.582 16.076 22.582 14.176 22.382 13.876C22.382 13.776 18.382 7.07595 15.082 5.37595C14.682 5.07595 14.182 4.97595 13.782 4.97595Z" fill="#FFFFFF"/>
<path d="M42.982 45.976H42.882C35.982 45.276 31.482 40.876 31.282 40.676C30.882 40.276 30.882 39.676 31.282 39.276C31.682 38.8759 32.282 38.8759 32.682 39.276C32.682 39.276 36.982 43.376 43.082 43.976C43.582 44.076 43.982 44.576 43.982 45.076C43.882 45.576 43.482 45.976 42.982 45.976Z" fill="#FFFFFF"/>
<path d="M20.982 29.976C20.782 29.976 20.482 29.876 20.382 29.776C20.182 29.576 14.782 25.076 13.982 18.076C13.882 17.576 14.282 17.076 14.882 16.976C15.482 16.876 15.882 17.276 15.982 17.876C16.582 23.976 21.582 28.176 21.582 28.176C21.982 28.576 22.082 29.176 21.682 29.576C21.582 29.876 21.282 29.976 20.982 29.976Z" fill="#FFFFFF"/>
</svg>
