<svg width="60" height="60" viewBox="0 0 60 60" fill="none" xmlns="http://www.w3.org/2000/svg">
<path fill-rule="evenodd" clip-rule="evenodd" d="M17 19C15.0293 19 13.431 20.5983 13.431 22.569C13.431 24.5397 15.0293 26.138 17 26.138C18.9707 26.138 20.569 24.5397 20.569 22.569C20.569 20.5983 18.9707 19 17 19ZM11.431 22.569C11.431 19.4937 13.9247 17 17 17C20.0753 17 22.569 19.4937 22.569 22.569C22.569 25.6443 20.0753 28.138 17 28.138C13.9247 28.138 11.431 25.6443 11.431 22.569Z" fill="#FFFFFF"/>
<path fill-rule="evenodd" clip-rule="evenodd" d="M40.9556 23.001C41.2209 22.9892 41.48 23.0834 41.6757 23.2628L53.6757 34.2628C54.0828 34.636 54.1103 35.2686 53.7372 35.6757C53.364 36.0828 52.7314 36.1103 52.3243 35.7372L41.0629 25.4142L31.4627 35.9287L38.7557 44.3451C39.0121 44.641 39.0723 45.0593 38.9096 45.4154C38.747 45.7715 38.3915 46 38 46H8C7.58396 46 7.21138 45.7424 7.06444 45.3532C6.91751 44.9639 7.02692 44.5244 7.33917 44.2495L24.3562 29.2665C24.5563 29.0903 24.8184 29.0013 25.0844 29.0193C25.3504 29.0372 25.5982 29.1607 25.7727 29.3621L30.144 34.4068L40.2615 23.3257C40.4406 23.1296 40.6903 23.0128 40.9556 23.001ZM10.649 44H35.8103L24.9213 31.4336L10.649 44Z" fill="#FFFFFF"/>
<path fill-rule="evenodd" clip-rule="evenodd" d="M4 4H54V56H4V4ZM6 6V54H52V6H6Z" fill="#FFFFFF"/>
<path fill-rule="evenodd" clip-rule="evenodd" d="M4 44H54V56H4V44ZM6 46V54H52V46H6Z" fill="#FFFFFF"/>
</svg>
