<svg width="60" height="60" viewBox="0 0 60 60" fill="none" xmlns="http://www.w3.org/2000/svg">
<path fill-rule="evenodd" clip-rule="evenodd" d="M2.17609 18.4186C8.84279 3.12694 26.1396 -3.88807 40.8218 2.16841L40.8308 2.17213L40.8398 2.17602C56.1099 8.83212 63.1226 26.0826 57.0913 40.8185L56.7194 41.7271L31.4213 31.4207L41.7398 56.7475L40.7904 57.1015C33.5642 59.7961 25.5659 59.9403 18.4468 57.0932L18.4328 57.0876L18.419 57.0816C3.12696 50.4165 -3.88812 33.1201 2.16844 18.4366L2.17217 18.4276L2.17609 18.4186ZM3.98292 19.1956C-1.64326 32.8498 4.86064 49.0182 19.1911 55.2726C25.5029 57.7927 32.6008 57.802 39.1476 55.5977L27.8375 27.8369L55.6265 39.1582C60.5919 25.6489 54.059 10.0891 40.0628 3.98285C26.4085 -1.64381 10.2376 4.8619 3.98292 19.1956Z" fill="#FFFFFF"/>
<path fill-rule="evenodd" clip-rule="evenodd" d="M35.6954 35.6629L58.5545 45.3663C59.1515 45.6172 59.3935 46.3204 59.1055 46.881C56.261 52.4207 51.7042 56.5926 46.3759 59.0312L46.3647 59.0363C45.7984 59.287 45.133 59.0206 44.8995 58.4425L35.6954 35.6629ZM39.2978 39.3288L46.3771 56.8496C50.702 54.6782 54.4172 51.2508 56.9133 46.8063L39.2978 39.3288Z" fill="#FFFFFF"/>
<path fill-rule="evenodd" clip-rule="evenodd" d="M24.7124 6.02763C24.7124 6.57045 24.2718 7.01101 23.729 7.01101C23.1861 7.01101 22.7456 6.57045 22.7456 6.02763C22.7456 5.4848 23.1861 5.04425 23.729 5.04425C24.2718 5.04425 24.7124 5.4848 24.7124 6.02763Z" fill="#FFFFFF"/>
<path fill-rule="evenodd" clip-rule="evenodd" d="M27.6626 3.07748C27.6626 3.62031 27.222 4.06086 26.6792 4.06086C26.1363 4.06086 25.6958 3.62031 25.6958 3.07748C25.6958 2.53465 26.1363 2.0941 26.6792 2.0941C27.222 2.0941 27.6626 2.53465 27.6626 3.07748Z" fill="#FFFFFF"/>
<path fill-rule="evenodd" clip-rule="evenodd" d="M27.6626 8.97777C27.6626 9.5206 27.222 9.96116 26.6792 9.96116C26.1363 9.96116 25.6958 9.5206 25.6958 8.97777C25.6958 8.43495 26.1363 7.99439 26.6792 7.99439C27.222 7.99439 27.6626 8.43495 27.6626 8.97777Z" fill="#FFFFFF"/>
<path fill-rule="evenodd" clip-rule="evenodd" d="M30.6128 6.02763C30.6128 6.57045 30.1722 7.01101 29.6294 7.01101C29.0865 7.01101 28.646 6.57045 28.646 6.02763C28.646 5.4848 29.0865 5.04425 29.6294 5.04425C30.1722 5.04425 30.6128 5.4848 30.6128 6.02763Z" fill="#FFFFFF"/>
<path fill-rule="evenodd" clip-rule="evenodd" d="M18.812 6.02763C18.812 6.57045 18.3714 7.01101 17.8286 7.01101C17.2857 7.01101 16.8452 6.57045 16.8452 6.02763C16.8452 5.4848 17.2857 5.04425 17.8286 5.04425C18.3714 5.04425 18.812 5.4848 18.812 6.02763Z" fill="#FFFFFF"/>
<path fill-rule="evenodd" clip-rule="evenodd" d="M21.7622 3.07748C21.7622 3.62031 21.3216 4.06086 20.7788 4.06086C20.2359 4.06086 19.7954 3.62031 19.7954 3.07748C19.7954 2.53465 20.2359 2.0941 20.7788 2.0941C21.3216 2.0941 21.7622 2.53465 21.7622 3.07748Z" fill="#FFFFFF"/>
<path fill-rule="evenodd" clip-rule="evenodd" d="M21.7622 8.97777C21.7622 9.5206 21.3216 9.96116 20.7788 9.96116C20.2359 9.96116 19.7954 9.5206 19.7954 8.97777C19.7954 8.43495 20.2359 7.99439 20.7788 7.99439C21.3216 7.99439 21.7622 8.43495 21.7622 8.97777Z" fill="#FFFFFF"/>
<path fill-rule="evenodd" clip-rule="evenodd" d="M15.8618 8.97777C15.8618 9.5206 15.4212 9.96116 14.8784 9.96116C14.3355 9.96116 13.895 9.5206 13.895 8.97777C13.895 8.43495 14.3355 7.99439 14.8784 7.99439C15.4212 7.99439 15.8618 8.43495 15.8618 8.97777Z" fill="#FFFFFF"/>
<path fill-rule="evenodd" clip-rule="evenodd" d="M33.563 3.07748C33.563 3.62031 33.1224 4.06086 32.5796 4.06086C32.0368 4.06086 31.5962 3.62031 31.5962 3.07748C31.5962 2.53465 32.0368 2.0941 32.5796 2.0941C33.1224 2.0941 33.563 2.53465 33.563 3.07748Z" fill="#FFFFFF"/>
<path fill-rule="evenodd" clip-rule="evenodd" d="M33.563 8.97777C33.563 9.5206 33.1224 9.96116 32.5796 9.96116C32.0368 9.96116 31.5962 9.5206 31.5962 8.97777C31.5962 8.43495 32.0368 7.99439 32.5796 7.99439C33.1224 7.99439 33.563 8.43495 33.563 8.97777Z" fill="#FFFFFF"/>
<path fill-rule="evenodd" clip-rule="evenodd" d="M36.5132 6.02763C36.5132 6.57045 36.0726 7.01101 35.5298 7.01101C34.987 7.01101 34.5464 6.57045 34.5464 6.02763C34.5464 5.4848 34.987 5.04425 35.5298 5.04425C36.0726 5.04425 36.5132 5.4848 36.5132 6.02763Z" fill="#FFFFFF"/>
<path fill-rule="evenodd" clip-rule="evenodd" d="M42.4136 6.02763C42.4136 6.57045 41.973 7.01101 41.4302 7.01101C40.8874 7.01101 40.4468 6.57045 40.4468 6.02763C40.4468 5.4848 40.8874 5.04425 41.4302 5.04425C41.973 5.04425 42.4136 5.4848 42.4136 6.02763Z" fill="#FFFFFF"/>
<path fill-rule="evenodd" clip-rule="evenodd" d="M24.7124 11.9279C24.7124 12.4707 24.2718 12.9113 23.729 12.9113C23.1861 12.9113 22.7456 12.4707 22.7456 11.9279C22.7456 11.3851 23.1861 10.9445 23.729 10.9445C24.2718 10.9445 24.7124 11.3851 24.7124 11.9279Z" fill="#FFFFFF"/>
<path fill-rule="evenodd" clip-rule="evenodd" d="M30.6128 11.9279C30.6128 12.4707 30.1722 12.9113 29.6294 12.9113C29.0865 12.9113 28.646 12.4707 28.646 11.9279C28.646 11.3851 29.0865 10.9445 29.6294 10.9445C30.1722 10.9445 30.6128 11.3851 30.6128 11.9279Z" fill="#FFFFFF"/>
<path fill-rule="evenodd" clip-rule="evenodd" d="M18.812 11.9279C18.812 12.4707 18.3714 12.9113 17.8286 12.9113C17.2857 12.9113 16.8452 12.4707 16.8452 11.9279C16.8452 11.3851 17.2857 10.9445 17.8286 10.9445C18.3714 10.9445 18.812 11.3851 18.812 11.9279Z" fill="#FFFFFF"/>
<path fill-rule="evenodd" clip-rule="evenodd" d="M12.9116 11.9279C12.9116 12.4707 12.471 12.9113 11.9282 12.9113C11.3853 12.9113 10.9448 12.4707 10.9448 11.9279C10.9448 11.3851 11.3853 10.9445 11.9282 10.9445C12.471 10.9445 12.9116 11.3851 12.9116 11.9279Z" fill="#FFFFFF"/>
<path fill-rule="evenodd" clip-rule="evenodd" d="M48.314 11.9279C48.314 12.4707 47.8734 12.9113 47.3306 12.9113C46.7878 12.9113 46.3472 12.4707 46.3472 11.9279C46.3472 11.3851 46.7878 10.9445 47.3306 10.9445C47.8734 10.9445 48.314 11.3851 48.314 11.9279Z" fill="#FFFFFF"/>
<path fill-rule="evenodd" clip-rule="evenodd" d="M36.5132 11.9279C36.5132 12.4707 36.0726 12.9113 35.5298 12.9113C34.987 12.9113 34.5464 12.4707 34.5464 11.9279C34.5464 11.3851 34.987 10.9445 35.5298 10.9445C36.0726 10.9445 36.5132 11.3851 36.5132 11.9279Z" fill="#FFFFFF"/>
<path fill-rule="evenodd" clip-rule="evenodd" d="M42.4136 11.9279C42.4136 12.4707 41.973 12.9113 41.4302 12.9113C40.8874 12.9113 40.4468 12.4707 40.4468 11.9279C40.4468 11.3851 40.8874 10.9445 41.4302 10.9445C41.973 10.9445 42.4136 11.3851 42.4136 11.9279Z" fill="#FFFFFF"/>
<path fill-rule="evenodd" clip-rule="evenodd" d="M39.4634 3.07748C39.4634 3.62031 39.0228 4.06086 38.48 4.06086C37.9372 4.06086 37.4966 3.62031 37.4966 3.07748C37.4966 2.53465 37.9372 2.0941 38.48 2.0941C39.0228 2.0941 39.4634 2.53465 39.4634 3.07748Z" fill="#FFFFFF"/>
<path fill-rule="evenodd" clip-rule="evenodd" d="M39.4634 8.97777C39.4634 9.5206 39.0228 9.96116 38.48 9.96116C37.9372 9.96116 37.4966 9.5206 37.4966 8.97777C37.4966 8.43495 37.9372 7.99439 38.48 7.99439C39.0228 7.99439 39.4634 8.43495 39.4634 8.97777Z" fill="#FFFFFF"/>
<path fill-rule="evenodd" clip-rule="evenodd" d="M45.3638 8.97777C45.3638 9.5206 44.9232 9.96116 44.3804 9.96116C43.8376 9.96116 43.397 9.5206 43.397 8.97777C43.397 8.43495 43.8376 7.99439 44.3804 7.99439C44.9232 7.99439 45.3638 8.43495 45.3638 8.97777Z" fill="#FFFFFF"/>
<path fill-rule="evenodd" clip-rule="evenodd" d="M24.7124 17.8282C24.7124 18.371 24.2718 18.8116 23.729 18.8116C23.1861 18.8116 22.7456 18.371 22.7456 17.8282C22.7456 17.2854 23.1861 16.8448 23.729 16.8448C24.2718 16.8448 24.7124 17.2854 24.7124 17.8282Z" fill="#FFFFFF"/>
<path fill-rule="evenodd" clip-rule="evenodd" d="M27.6626 14.8781C27.6626 15.4209 27.222 15.8614 26.6792 15.8614C26.1363 15.8614 25.6958 15.4209 25.6958 14.8781C25.6958 14.3352 26.1363 13.8947 26.6792 13.8947C27.222 13.8947 27.6626 14.3352 27.6626 14.8781Z" fill="#FFFFFF"/>
<path fill-rule="evenodd" clip-rule="evenodd" d="M27.6626 20.7784C27.6626 21.3212 27.222 21.7617 26.6792 21.7617C26.1363 21.7617 25.6958 21.3212 25.6958 20.7784C25.6958 20.2355 26.1363 19.795 26.6792 19.795C27.222 19.795 27.6626 20.2355 27.6626 20.7784Z" fill="#FFFFFF"/>
<path fill-rule="evenodd" clip-rule="evenodd" d="M30.6128 17.8282C30.6128 18.371 30.1722 18.8116 29.6294 18.8116C29.0865 18.8116 28.646 18.371 28.646 17.8282C28.646 17.2854 29.0865 16.8448 29.6294 16.8448C30.1722 16.8448 30.6128 17.2854 30.6128 17.8282Z" fill="#FFFFFF"/>
<path fill-rule="evenodd" clip-rule="evenodd" d="M18.812 17.8282C18.812 18.371 18.3714 18.8116 17.8286 18.8116C17.2857 18.8116 16.8452 18.371 16.8452 17.8282C16.8452 17.2854 17.2857 16.8448 17.8286 16.8448C18.3714 16.8448 18.812 17.2854 18.812 17.8282Z" fill="#FFFFFF"/>
<path fill-rule="evenodd" clip-rule="evenodd" d="M21.7622 14.8781C21.7622 15.4209 21.3216 15.8614 20.7788 15.8614C20.2359 15.8614 19.7954 15.4209 19.7954 14.8781C19.7954 14.3352 20.2359 13.8947 20.7788 13.8947C21.3216 13.8947 21.7622 14.3352 21.7622 14.8781Z" fill="#FFFFFF"/>
<path fill-rule="evenodd" clip-rule="evenodd" d="M21.7622 20.7784C21.7622 21.3212 21.3216 21.7617 20.7788 21.7617C20.2359 21.7617 19.7954 21.3212 19.7954 20.7784C19.7954 20.2355 20.2359 19.795 20.7788 19.795C21.3216 19.795 21.7622 20.2355 21.7622 20.7784Z" fill="#FFFFFF"/>
<path fill-rule="evenodd" clip-rule="evenodd" d="M4.06095 20.7784C4.06095 21.3212 3.62038 21.7617 3.07755 21.7617C2.53471 21.7617 2.09414 21.3212 2.09414 20.7784C2.09414 20.2355 2.53471 19.795 3.07755 19.795C3.62038 19.795 4.06095 20.2355 4.06095 20.7784Z" fill="#FFFFFF"/>
<path fill-rule="evenodd" clip-rule="evenodd" d="M7.01115 17.8282C7.01115 18.371 6.57059 18.8116 6.02775 18.8116C5.48491 18.8116 5.04435 18.371 5.04435 17.8282C5.04435 17.2854 5.48491 16.8448 6.02775 16.8448C6.57059 16.8448 7.01115 17.2854 7.01115 17.8282Z" fill="#FFFFFF"/>
<path fill-rule="evenodd" clip-rule="evenodd" d="M12.9116 17.8282C12.9116 18.371 12.471 18.8116 11.9282 18.8116C11.3853 18.8116 10.9448 18.371 10.9448 17.8282C10.9448 17.2854 11.3853 16.8448 11.9282 16.8448C12.471 16.8448 12.9116 17.2854 12.9116 17.8282Z" fill="#FFFFFF"/>
<path fill-rule="evenodd" clip-rule="evenodd" d="M9.96136 14.8781C9.96136 15.4209 9.52079 15.8614 8.97795 15.8614C8.43512 15.8614 7.99455 15.4209 7.99455 14.8781C7.99455 14.3352 8.43512 13.8947 8.97795 13.8947C9.52079 13.8947 9.96136 14.3352 9.96136 14.8781Z" fill="#FFFFFF"/>
<path fill-rule="evenodd" clip-rule="evenodd" d="M15.8618 14.8781C15.8618 15.4209 15.4212 15.8614 14.8784 15.8614C14.3355 15.8614 13.895 15.4209 13.895 14.8781C13.895 14.3352 14.3355 13.8947 14.8784 13.8947C15.4212 13.8947 15.8618 14.3352 15.8618 14.8781Z" fill="#FFFFFF"/>
<path fill-rule="evenodd" clip-rule="evenodd" d="M9.96136 20.7784C9.96136 21.3212 9.52079 21.7617 8.97795 21.7617C8.43512 21.7617 7.99455 21.3212 7.99455 20.7784C7.99455 20.2355 8.43512 19.795 8.97795 19.795C9.52079 19.795 9.96136 20.2355 9.96136 20.7784Z" fill="#FFFFFF"/>
<path fill-rule="evenodd" clip-rule="evenodd" d="M15.8618 20.7784C15.8618 21.3212 15.4212 21.7617 14.8784 21.7617C14.3355 21.7617 13.895 21.3212 13.895 20.7784C13.895 20.2355 14.3355 19.795 14.8784 19.795C15.4212 19.795 15.8618 20.2355 15.8618 20.7784Z" fill="#FFFFFF"/>
<path fill-rule="evenodd" clip-rule="evenodd" d="M54.2144 17.8282C54.2144 18.371 53.7739 18.8116 53.231 18.8116C52.6882 18.8116 52.2476 18.371 52.2476 17.8282C52.2476 17.2854 52.6882 16.8448 53.231 16.8448C53.7739 16.8448 54.2144 17.2854 54.2144 17.8282Z" fill="#FFFFFF"/>
<path fill-rule="evenodd" clip-rule="evenodd" d="M57.1646 20.7784C57.1646 21.3212 56.7241 21.7617 56.1812 21.7617C55.6384 21.7617 55.1978 21.3212 55.1978 20.7784C55.1978 20.2355 55.6384 19.795 56.1812 19.795C56.7241 19.795 57.1646 20.2355 57.1646 20.7784Z" fill="#FFFFFF"/>
<path fill-rule="evenodd" clip-rule="evenodd" d="M48.314 17.8282C48.314 18.371 47.8734 18.8116 47.3306 18.8116C46.7878 18.8116 46.3472 18.371 46.3472 17.8282C46.3472 17.2854 46.7878 16.8448 47.3306 16.8448C47.8734 16.8448 48.314 17.2854 48.314 17.8282Z" fill="#FFFFFF"/>
<path fill-rule="evenodd" clip-rule="evenodd" d="M51.2642 14.8781C51.2642 15.4209 50.8237 15.8614 50.2808 15.8614C49.738 15.8614 49.2974 15.4209 49.2974 14.8781C49.2974 14.3352 49.738 13.8947 50.2808 13.8947C50.8237 13.8947 51.2642 14.3352 51.2642 14.8781Z" fill="#FFFFFF"/>
<path fill-rule="evenodd" clip-rule="evenodd" d="M51.2642 20.7784C51.2642 21.3212 50.8237 21.7617 50.2808 21.7617C49.738 21.7617 49.2974 21.3212 49.2974 20.7784C49.2974 20.2355 49.738 19.795 50.2808 19.795C50.8237 19.795 51.2642 20.2355 51.2642 20.7784Z" fill="#FFFFFF"/>
<path fill-rule="evenodd" clip-rule="evenodd" d="M33.563 14.8781C33.563 15.4209 33.1224 15.8614 32.5796 15.8614C32.0368 15.8614 31.5962 15.4209 31.5962 14.8781C31.5962 14.3352 32.0368 13.8947 32.5796 13.8947C33.1224 13.8947 33.563 14.3352 33.563 14.8781Z" fill="#FFFFFF"/>
<path fill-rule="evenodd" clip-rule="evenodd" d="M33.563 20.7784C33.563 21.3212 33.1224 21.7617 32.5796 21.7617C32.0368 21.7617 31.5962 21.3212 31.5962 20.7784C31.5962 20.2355 32.0368 19.795 32.5796 19.795C33.1224 19.795 33.563 20.2355 33.563 20.7784Z" fill="#FFFFFF"/>
<path fill-rule="evenodd" clip-rule="evenodd" d="M36.5132 17.8282C36.5132 18.371 36.0726 18.8116 35.5298 18.8116C34.987 18.8116 34.5464 18.371 34.5464 17.8282C34.5464 17.2854 34.987 16.8448 35.5298 16.8448C36.0726 16.8448 36.5132 17.2854 36.5132 17.8282Z" fill="#FFFFFF"/>
<path fill-rule="evenodd" clip-rule="evenodd" d="M42.4136 17.8282C42.4136 18.371 41.973 18.8116 41.4302 18.8116C40.8874 18.8116 40.4468 18.371 40.4468 17.8282C40.4468 17.2854 40.8874 16.8448 41.4302 16.8448C41.973 16.8448 42.4136 17.2854 42.4136 17.8282Z" fill="#FFFFFF"/>
<path fill-rule="evenodd" clip-rule="evenodd" d="M24.7124 23.7285C24.7124 24.2713 24.2718 24.7119 23.729 24.7119C23.1861 24.7119 22.7456 24.2713 22.7456 23.7285C22.7456 23.1857 23.1861 22.7451 23.729 22.7451C24.2718 22.7451 24.7124 23.1857 24.7124 23.7285Z" fill="#FFFFFF"/>
<path fill-rule="evenodd" clip-rule="evenodd" d="M30.6128 23.7285C30.6128 24.2713 30.1722 24.7119 29.6294 24.7119C29.0865 24.7119 28.646 24.2713 28.646 23.7285C28.646 23.1857 29.0865 22.7451 29.6294 22.7451C30.1722 22.7451 30.6128 23.1857 30.6128 23.7285Z" fill="#FFFFFF"/>
<path fill-rule="evenodd" clip-rule="evenodd" d="M18.812 23.7285C18.812 24.2713 18.3714 24.7119 17.8286 24.7119C17.2857 24.7119 16.8452 24.2713 16.8452 23.7285C16.8452 23.1857 17.2857 22.7451 17.8286 22.7451C18.3714 22.7451 18.812 23.1857 18.812 23.7285Z" fill="#FFFFFF"/>
<path fill-rule="evenodd" clip-rule="evenodd" d="M7.01115 23.7285C7.01115 24.2713 6.57059 24.7119 6.02775 24.7119C5.48491 24.7119 5.04435 24.2713 5.04435 23.7285C5.04435 23.1857 5.48491 22.7451 6.02775 22.7451C6.57059 22.7451 7.01115 23.1857 7.01115 23.7285Z" fill="#FFFFFF"/>
<path fill-rule="evenodd" clip-rule="evenodd" d="M12.9116 23.7285C12.9116 24.2713 12.471 24.7119 11.9282 24.7119C11.3853 24.7119 10.9448 24.2713 10.9448 23.7285C10.9448 23.1857 11.3853 22.7451 11.9282 22.7451C12.471 22.7451 12.9116 23.1857 12.9116 23.7285Z" fill="#FFFFFF"/>
<path fill-rule="evenodd" clip-rule="evenodd" d="M54.2144 23.7285C54.2144 24.2713 53.7739 24.7119 53.231 24.7119C52.6882 24.7119 52.2476 24.2713 52.2476 23.7285C52.2476 23.1857 52.6882 22.7451 53.231 22.7451C53.7739 22.7451 54.2144 23.1857 54.2144 23.7285Z" fill="#FFFFFF"/>
<path fill-rule="evenodd" clip-rule="evenodd" d="M48.314 23.7285C48.314 24.2713 47.8734 24.7119 47.3306 24.7119C46.7878 24.7119 46.3472 24.2713 46.3472 23.7285C46.3472 23.1857 46.7878 22.7451 47.3306 22.7451C47.8734 22.7451 48.314 23.1857 48.314 23.7285Z" fill="#FFFFFF"/>
<path fill-rule="evenodd" clip-rule="evenodd" d="M36.5132 23.7285C36.5132 24.2713 36.0726 24.7119 35.5298 24.7119C34.987 24.7119 34.5464 24.2713 34.5464 23.7285C34.5464 23.1857 34.987 22.7451 35.5298 22.7451C36.0726 22.7451 36.5132 23.1857 36.5132 23.7285Z" fill="#FFFFFF"/>
<path fill-rule="evenodd" clip-rule="evenodd" d="M42.4136 23.7285C42.4136 24.2713 41.973 24.7119 41.4302 24.7119C40.8874 24.7119 40.4468 24.2713 40.4468 23.7285C40.4468 23.1857 40.8874 22.7451 41.4302 22.7451C41.973 22.7451 42.4136 23.1857 42.4136 23.7285Z" fill="#FFFFFF"/>
<path fill-rule="evenodd" clip-rule="evenodd" d="M39.4634 14.8781C39.4634 15.4209 39.0228 15.8614 38.48 15.8614C37.9372 15.8614 37.4966 15.4209 37.4966 14.8781C37.4966 14.3352 37.9372 13.8947 38.48 13.8947C39.0228 13.8947 39.4634 14.3352 39.4634 14.8781Z" fill="#FFFFFF"/>
<path fill-rule="evenodd" clip-rule="evenodd" d="M45.3638 14.8781C45.3638 15.4209 44.9232 15.8614 44.3804 15.8614C43.8376 15.8614 43.397 15.4209 43.397 14.8781C43.397 14.3352 43.8376 13.8947 44.3804 13.8947C44.9232 13.8947 45.3638 14.3352 45.3638 14.8781Z" fill="#FFFFFF"/>
<path fill-rule="evenodd" clip-rule="evenodd" d="M39.4634 20.7784C39.4634 21.3212 39.0228 21.7617 38.48 21.7617C37.9372 21.7617 37.4966 21.3212 37.4966 20.7784C37.4966 20.2355 37.9372 19.795 38.48 19.795C39.0228 19.795 39.4634 20.2355 39.4634 20.7784Z" fill="#FFFFFF"/>
<path fill-rule="evenodd" clip-rule="evenodd" d="M45.3638 20.7784C45.3638 21.3212 44.9232 21.7617 44.3804 21.7617C43.8376 21.7617 43.397 21.3212 43.397 20.7784C43.397 20.2355 43.8376 19.795 44.3804 19.795C44.9232 19.795 45.3638 20.2355 45.3638 20.7784Z" fill="#FFFFFF"/>
<path fill-rule="evenodd" clip-rule="evenodd" d="M24.7124 29.6288C24.7124 30.1716 24.2718 30.6122 23.729 30.6122C23.1861 30.6122 22.7456 30.1716 22.7456 29.6288C22.7456 29.086 23.1861 28.6454 23.729 28.6454C24.2718 28.6454 24.7124 29.086 24.7124 29.6288Z" fill="#FFFFFF"/>
<path fill-rule="evenodd" clip-rule="evenodd" d="M27.6626 26.6787C27.6626 27.2215 27.222 27.662 26.6792 27.662C26.1363 27.662 25.6958 27.2215 25.6958 26.6787C25.6958 26.1358 26.1363 25.6953 26.6792 25.6953C27.222 25.6953 27.6626 26.1358 27.6626 26.6787Z" fill="#FFFFFF"/>
<path fill-rule="evenodd" clip-rule="evenodd" d="M27.6626 32.5789C27.6626 33.1218 27.222 33.5623 26.6792 33.5623C26.1363 33.5623 25.6958 33.1218 25.6958 32.5789C25.6958 32.0361 26.1363 31.5956 26.6792 31.5956C27.222 31.5956 27.6626 32.0361 27.6626 32.5789Z" fill="#FFFFFF"/>
<path fill-rule="evenodd" clip-rule="evenodd" d="M18.812 29.6288C18.812 30.1716 18.3714 30.6122 17.8286 30.6122C17.2857 30.6122 16.8452 30.1716 16.8452 29.6288C16.8452 29.086 17.2857 28.6454 17.8286 28.6454C18.3714 28.6454 18.812 29.086 18.812 29.6288Z" fill="#FFFFFF"/>
<path fill-rule="evenodd" clip-rule="evenodd" d="M21.7622 26.6787C21.7622 27.2215 21.3216 27.662 20.7788 27.662C20.2359 27.662 19.7954 27.2215 19.7954 26.6787C19.7954 26.1358 20.2359 25.6953 20.7788 25.6953C21.3216 25.6953 21.7622 26.1358 21.7622 26.6787Z" fill="#FFFFFF"/>
<path fill-rule="evenodd" clip-rule="evenodd" d="M21.7622 32.5789C21.7622 33.1218 21.3216 33.5623 20.7788 33.5623C20.2359 33.5623 19.7954 33.1218 19.7954 32.5789C19.7954 32.0361 20.2359 31.5956 20.7788 31.5956C21.3216 31.5956 21.7622 32.0361 21.7622 32.5789Z" fill="#FFFFFF"/>
<path fill-rule="evenodd" clip-rule="evenodd" d="M4.06095 26.6787C4.06095 27.2215 3.62038 27.662 3.07755 27.662C2.53471 27.662 2.09414 27.2215 2.09414 26.6787C2.09414 26.1358 2.53471 25.6953 3.07755 25.6953C3.62038 25.6953 4.06095 26.1358 4.06095 26.6787Z" fill="#FFFFFF"/>
<path fill-rule="evenodd" clip-rule="evenodd" d="M4.06095 32.5789C4.06095 33.1218 3.62038 33.5623 3.07755 33.5623C2.53471 33.5623 2.09414 33.1218 2.09414 32.5789C2.09414 32.0361 2.53471 31.5956 3.07755 31.5956C3.62038 31.5956 4.06095 32.0361 4.06095 32.5789Z" fill="#FFFFFF"/>
<path fill-rule="evenodd" clip-rule="evenodd" d="M7.01115 29.6288C7.01115 30.1716 6.57059 30.6122 6.02775 30.6122C5.48491 30.6122 5.04435 30.1716 5.04435 29.6288C5.04435 29.086 5.48491 28.6454 6.02775 28.6454C6.57059 28.6454 7.01115 29.086 7.01115 29.6288Z" fill="#FFFFFF"/>
<path fill-rule="evenodd" clip-rule="evenodd" d="M12.9116 29.6288C12.9116 30.1716 12.471 30.6122 11.9282 30.6122C11.3853 30.6122 10.9448 30.1716 10.9448 29.6288C10.9448 29.086 11.3853 28.6454 11.9282 28.6454C12.471 28.6454 12.9116 29.086 12.9116 29.6288Z" fill="#FFFFFF"/>
<path fill-rule="evenodd" clip-rule="evenodd" d="M9.96136 26.6787C9.96136 27.2215 9.52079 27.662 8.97795 27.662C8.43512 27.662 7.99455 27.2215 7.99455 26.6787C7.99455 26.1358 8.43512 25.6953 8.97795 25.6953C9.52079 25.6953 9.96136 26.1358 9.96136 26.6787Z" fill="#FFFFFF"/>
<path fill-rule="evenodd" clip-rule="evenodd" d="M15.8618 26.6787C15.8618 27.2215 15.4212 27.662 14.8784 27.662C14.3355 27.662 13.895 27.2215 13.895 26.6787C13.895 26.1358 14.3355 25.6953 14.8784 25.6953C15.4212 25.6953 15.8618 26.1358 15.8618 26.6787Z" fill="#FFFFFF"/>
<path fill-rule="evenodd" clip-rule="evenodd" d="M9.96136 32.5789C9.96136 33.1218 9.52079 33.5623 8.97795 33.5623C8.43512 33.5623 7.99455 33.1218 7.99455 32.5789C7.99455 32.0361 8.43512 31.5956 8.97795 31.5956C9.52079 31.5956 9.96136 32.0361 9.96136 32.5789Z" fill="#FFFFFF"/>
<path fill-rule="evenodd" clip-rule="evenodd" d="M15.8618 32.5789C15.8618 33.1218 15.4212 33.5623 14.8784 33.5623C14.3355 33.5623 13.895 33.1218 13.895 32.5789C13.895 32.0361 14.3355 31.5956 14.8784 31.5956C15.4212 31.5956 15.8618 32.0361 15.8618 32.5789Z" fill="#FFFFFF"/>
<path fill-rule="evenodd" clip-rule="evenodd" d="M54.2144 29.6288C54.2144 30.1716 53.7739 30.6122 53.231 30.6122C52.6882 30.6122 52.2476 30.1716 52.2476 29.6288C52.2476 29.086 52.6882 28.6454 53.231 28.6454C53.7739 28.6454 54.2144 29.086 54.2144 29.6288Z" fill="#FFFFFF"/>
<path fill-rule="evenodd" clip-rule="evenodd" d="M57.1646 26.6787C57.1646 27.2215 56.7241 27.662 56.1812 27.662C55.6384 27.662 55.1978 27.2215 55.1978 26.6787C55.1978 26.1358 55.6384 25.6953 56.1812 25.6953C56.7241 25.6953 57.1646 26.1358 57.1646 26.6787Z" fill="#FFFFFF"/>
<path fill-rule="evenodd" clip-rule="evenodd" d="M57.1646 32.5789C57.1646 33.1218 56.7241 33.5623 56.1812 33.5623C55.6384 33.5623 55.1978 33.1218 55.1978 32.5789C55.1978 32.0361 55.6384 31.5956 56.1812 31.5956C56.7241 31.5956 57.1646 32.0361 57.1646 32.5789Z" fill="#FFFFFF"/>
<path fill-rule="evenodd" clip-rule="evenodd" d="M48.314 29.6288C48.314 30.1716 47.8734 30.6122 47.3306 30.6122C46.7878 30.6122 46.3472 30.1716 46.3472 29.6288C46.3472 29.086 46.7878 28.6454 47.3306 28.6454C47.8734 28.6454 48.314 29.086 48.314 29.6288Z" fill="#FFFFFF"/>
<path fill-rule="evenodd" clip-rule="evenodd" d="M51.2642 26.6787C51.2642 27.2215 50.8237 27.662 50.2808 27.662C49.738 27.662 49.2974 27.2215 49.2974 26.6787C49.2974 26.1358 49.738 25.6953 50.2808 25.6953C50.8237 25.6953 51.2642 26.1358 51.2642 26.6787Z" fill="#FFFFFF"/>
<path fill-rule="evenodd" clip-rule="evenodd" d="M51.2642 32.5789C51.2642 33.1218 50.8237 33.5623 50.2808 33.5623C49.738 33.5623 49.2974 33.1218 49.2974 32.5789C49.2974 32.0361 49.738 31.5956 50.2808 31.5956C50.8237 31.5956 51.2642 32.0361 51.2642 32.5789Z" fill="#FFFFFF"/>
<path fill-rule="evenodd" clip-rule="evenodd" d="M33.563 26.6787C33.563 27.2215 33.1224 27.662 32.5796 27.662C32.0368 27.662 31.5962 27.2215 31.5962 26.6787C31.5962 26.1358 32.0368 25.6953 32.5796 25.6953C33.1224 25.6953 33.563 26.1358 33.563 26.6787Z" fill="#FFFFFF"/>
<path fill-rule="evenodd" clip-rule="evenodd" d="M36.5132 29.6288C36.5132 30.1716 36.0726 30.6122 35.5298 30.6122C34.987 30.6122 34.5464 30.1716 34.5464 29.6288C34.5464 29.086 34.987 28.6454 35.5298 28.6454C36.0726 28.6454 36.5132 29.086 36.5132 29.6288Z" fill="#FFFFFF"/>
<path fill-rule="evenodd" clip-rule="evenodd" d="M42.4136 29.6288C42.4136 30.1716 41.973 30.6122 41.4302 30.6122C40.8874 30.6122 40.4468 30.1716 40.4468 29.6288C40.4468 29.086 40.8874 28.6454 41.4302 28.6454C41.973 28.6454 42.4136 29.086 42.4136 29.6288Z" fill="#FFFFFF"/>
<path fill-rule="evenodd" clip-rule="evenodd" d="M24.7124 35.5291C24.7124 36.0719 24.2718 36.5125 23.729 36.5125C23.1861 36.5125 22.7456 36.0719 22.7456 35.5291C22.7456 34.9863 23.1861 34.5457 23.729 34.5457C24.2718 34.5457 24.7124 34.9863 24.7124 35.5291Z" fill="#FFFFFF"/>
<path fill-rule="evenodd" clip-rule="evenodd" d="M30.6128 35.5291C30.6128 36.0719 30.1722 36.5125 29.6294 36.5125C29.0865 36.5125 28.646 36.0719 28.646 35.5291C28.646 34.9863 29.0865 34.5457 29.6294 34.5457C30.1722 34.5457 30.6128 34.9863 30.6128 35.5291Z" fill="#FFFFFF"/>
<path fill-rule="evenodd" clip-rule="evenodd" d="M18.812 35.5291C18.812 36.0719 18.3714 36.5125 17.8286 36.5125C17.2857 36.5125 16.8452 36.0719 16.8452 35.5291C16.8452 34.9863 17.2857 34.5457 17.8286 34.5457C18.3714 34.5457 18.812 34.9863 18.812 35.5291Z" fill="#FFFFFF"/>
<path fill-rule="evenodd" clip-rule="evenodd" d="M7.01115 35.5291C7.01115 36.0719 6.57059 36.5125 6.02775 36.5125C5.48491 36.5125 5.04435 36.0719 5.04435 35.5291C5.04435 34.9863 5.48491 34.5457 6.02775 34.5457C6.57059 34.5457 7.01115 34.9863 7.01115 35.5291Z" fill="#FFFFFF"/>
<path fill-rule="evenodd" clip-rule="evenodd" d="M12.9116 35.5291C12.9116 36.0719 12.471 36.5125 11.9282 36.5125C11.3853 36.5125 10.9448 36.0719 10.9448 35.5291C10.9448 34.9863 11.3853 34.5457 11.9282 34.5457C12.471 34.5457 12.9116 34.9863 12.9116 35.5291Z" fill="#FFFFFF"/>
<path fill-rule="evenodd" clip-rule="evenodd" d="M54.2144 35.5291C54.2144 36.0719 53.7739 36.5125 53.231 36.5125C52.6882 36.5125 52.2476 36.0719 52.2476 35.5291C52.2476 34.9863 52.6882 34.5457 53.231 34.5457C53.7739 34.5457 54.2144 34.9863 54.2144 35.5291Z" fill="#FFFFFF"/>
<path fill-rule="evenodd" clip-rule="evenodd" d="M48.314 35.5291C48.314 36.0719 47.8734 36.5125 47.3306 36.5125C46.7878 36.5125 46.3472 36.0719 46.3472 35.5291C46.3472 34.9863 46.7878 34.5457 47.3306 34.5457C47.8734 34.5457 48.314 34.9863 48.314 35.5291Z" fill="#FFFFFF"/>
<path fill-rule="evenodd" clip-rule="evenodd" d="M39.4634 26.6787C39.4634 27.2215 39.0228 27.662 38.48 27.662C37.9372 27.662 37.4966 27.2215 37.4966 26.6787C37.4966 26.1358 37.9372 25.6953 38.48 25.6953C39.0228 25.6953 39.4634 26.1358 39.4634 26.6787Z" fill="#FFFFFF"/>
<path fill-rule="evenodd" clip-rule="evenodd" d="M45.3638 26.6787C45.3638 27.2215 44.9232 27.662 44.3804 27.662C43.8376 27.662 43.397 27.2215 43.397 26.6787C43.397 26.1358 43.8376 25.6953 44.3804 25.6953C44.9232 25.6953 45.3638 26.1358 45.3638 26.6787Z" fill="#FFFFFF"/>
<path fill-rule="evenodd" clip-rule="evenodd" d="M39.4634 32.5789C39.4634 33.1218 39.0228 33.5623 38.48 33.5623C37.9372 33.5623 37.4966 33.1218 37.4966 32.5789C37.4966 32.0361 37.9372 31.5956 38.48 31.5956C39.0228 31.5956 39.4634 32.0361 39.4634 32.5789Z" fill="#FFFFFF"/>
<path fill-rule="evenodd" clip-rule="evenodd" d="M45.3638 32.5789C45.3638 33.1218 44.9232 33.5623 44.3804 33.5623C43.8376 33.5623 43.397 33.1218 43.397 32.5789C43.397 32.0361 43.8376 31.5956 44.3804 31.5956C44.9232 31.5956 45.3638 32.0361 45.3638 32.5789Z" fill="#FFFFFF"/>
<path fill-rule="evenodd" clip-rule="evenodd" d="M24.7124 41.4294C24.7124 41.9722 24.2718 42.4128 23.729 42.4128C23.1861 42.4128 22.7456 41.9722 22.7456 41.4294C22.7456 40.8866 23.1861 40.446 23.729 40.446C24.2718 40.446 24.7124 40.8866 24.7124 41.4294Z" fill="#FFFFFF"/>
<path fill-rule="evenodd" clip-rule="evenodd" d="M27.6626 38.4792C27.6626 39.0221 27.222 39.4626 26.6792 39.4626C26.1363 39.4626 25.6958 39.0221 25.6958 38.4792C25.6958 37.9364 26.1363 37.4959 26.6792 37.4959C27.222 37.4959 27.6626 37.9364 27.6626 38.4792Z" fill="#FFFFFF"/>
<path fill-rule="evenodd" clip-rule="evenodd" d="M27.6626 44.3795C27.6626 44.9224 27.222 45.3629 26.6792 45.3629C26.1363 45.3629 25.6958 44.9224 25.6958 44.3795C25.6958 43.8367 26.1363 43.3961 26.6792 43.3961C27.222 43.3961 27.6626 43.8367 27.6626 44.3795Z" fill="#FFFFFF"/>
<path fill-rule="evenodd" clip-rule="evenodd" d="M30.6128 41.4294C30.6128 41.9722 30.1722 42.4128 29.6294 42.4128C29.0865 42.4128 28.646 41.9722 28.646 41.4294C28.646 40.8866 29.0865 40.446 29.6294 40.446C30.1722 40.446 30.6128 40.8866 30.6128 41.4294Z" fill="#FFFFFF"/>
<path fill-rule="evenodd" clip-rule="evenodd" d="M18.812 41.4294C18.812 41.9722 18.3714 42.4128 17.8286 42.4128C17.2857 42.4128 16.8452 41.9722 16.8452 41.4294C16.8452 40.8866 17.2857 40.446 17.8286 40.446C18.3714 40.446 18.812 40.8866 18.812 41.4294Z" fill="#FFFFFF"/>
<path fill-rule="evenodd" clip-rule="evenodd" d="M21.7622 38.4792C21.7622 39.0221 21.3216 39.4626 20.7788 39.4626C20.2359 39.4626 19.7954 39.0221 19.7954 38.4792C19.7954 37.9364 20.2359 37.4959 20.7788 37.4959C21.3216 37.4959 21.7622 37.9364 21.7622 38.4792Z" fill="#FFFFFF"/>
<path fill-rule="evenodd" clip-rule="evenodd" d="M21.7622 44.3795C21.7622 44.9224 21.3216 45.3629 20.7788 45.3629C20.2359 45.3629 19.7954 44.9224 19.7954 44.3795C19.7954 43.8367 20.2359 43.3961 20.7788 43.3961C21.3216 43.3961 21.7622 43.8367 21.7622 44.3795Z" fill="#FFFFFF"/>
<path fill-rule="evenodd" clip-rule="evenodd" d="M4.06095 38.4792C4.06095 39.0221 3.62038 39.4626 3.07755 39.4626C2.53471 39.4626 2.09414 39.0221 2.09414 38.4792C2.09414 37.9364 2.53471 37.4959 3.07755 37.4959C3.62038 37.4959 4.06095 37.9364 4.06095 38.4792Z" fill="#FFFFFF"/>
<path fill-rule="evenodd" clip-rule="evenodd" d="M7.01115 41.4294C7.01115 41.9722 6.57059 42.4128 6.02775 42.4128C5.48491 42.4128 5.04435 41.9722 5.04435 41.4294C5.04435 40.8866 5.48491 40.446 6.02775 40.446C6.57059 40.446 7.01115 40.8866 7.01115 41.4294Z" fill="#FFFFFF"/>
<path fill-rule="evenodd" clip-rule="evenodd" d="M12.9116 41.4294C12.9116 41.9722 12.471 42.4128 11.9282 42.4128C11.3853 42.4128 10.9448 41.9722 10.9448 41.4294C10.9448 40.8866 11.3853 40.446 11.9282 40.446C12.471 40.446 12.9116 40.8866 12.9116 41.4294Z" fill="#FFFFFF"/>
<path fill-rule="evenodd" clip-rule="evenodd" d="M9.96136 38.4792C9.96136 39.0221 9.52079 39.4626 8.97795 39.4626C8.43512 39.4626 7.99455 39.0221 7.99455 38.4792C7.99455 37.9364 8.43512 37.4959 8.97795 37.4959C9.52079 37.4959 9.96136 37.9364 9.96136 38.4792Z" fill="#FFFFFF"/>
<path fill-rule="evenodd" clip-rule="evenodd" d="M15.8618 38.4792C15.8618 39.0221 15.4212 39.4626 14.8784 39.4626C14.3355 39.4626 13.895 39.0221 13.895 38.4792C13.895 37.9364 14.3355 37.4959 14.8784 37.4959C15.4212 37.4959 15.8618 37.9364 15.8618 38.4792Z" fill="#FFFFFF"/>
<path fill-rule="evenodd" clip-rule="evenodd" d="M9.96136 44.3795C9.96136 44.9224 9.52079 45.3629 8.97795 45.3629C8.43512 45.3629 7.99455 44.9224 7.99455 44.3795C7.99455 43.8367 8.43512 43.3961 8.97795 43.3961C9.52079 43.3961 9.96136 43.8367 9.96136 44.3795Z" fill="#FFFFFF"/>
<path fill-rule="evenodd" clip-rule="evenodd" d="M15.8618 44.3795C15.8618 44.9224 15.4212 45.3629 14.8784 45.3629C14.3355 45.3629 13.895 44.9224 13.895 44.3795C13.895 43.8367 14.3355 43.3961 14.8784 43.3961C15.4212 43.3961 15.8618 43.8367 15.8618 44.3795Z" fill="#FFFFFF"/>
<path fill-rule="evenodd" clip-rule="evenodd" d="M57.1646 38.4792C57.1646 39.0221 56.7241 39.4626 56.1812 39.4626C55.6384 39.4626 55.1978 39.0221 55.1978 38.4792C55.1978 37.9364 55.6384 37.4959 56.1812 37.4959C56.7241 37.4959 57.1646 37.9364 57.1646 38.4792Z" fill="#FFFFFF"/>
<path fill-rule="evenodd" clip-rule="evenodd" d="M33.563 38.4792C33.563 39.0221 33.1224 39.4626 32.5796 39.4626C32.0368 39.4626 31.5962 39.0221 31.5962 38.4792C31.5962 37.9364 32.0368 37.4959 32.5796 37.4959C33.1224 37.4959 33.563 37.9364 33.563 38.4792Z" fill="#FFFFFF"/>
<path fill-rule="evenodd" clip-rule="evenodd" d="M33.563 44.3795C33.563 44.9224 33.1224 45.3629 32.5796 45.3629C32.0368 45.3629 31.5962 44.9224 31.5962 44.3795C31.5962 43.8367 32.0368 43.3961 32.5796 43.3961C33.1224 43.3961 33.563 43.8367 33.563 44.3795Z" fill="#FFFFFF"/>
<path fill-rule="evenodd" clip-rule="evenodd" d="M24.7124 47.3297C24.7124 47.8725 24.2718 48.3131 23.729 48.3131C23.1861 48.3131 22.7456 47.8725 22.7456 47.3297C22.7456 46.7868 23.1861 46.3463 23.729 46.3463C24.2718 46.3463 24.7124 46.7868 24.7124 47.3297Z" fill="#FFFFFF"/>
<path fill-rule="evenodd" clip-rule="evenodd" d="M30.6128 47.3297C30.6128 47.8725 30.1722 48.3131 29.6294 48.3131C29.0865 48.3131 28.646 47.8725 28.646 47.3297C28.646 46.7868 29.0865 46.3463 29.6294 46.3463C30.1722 46.3463 30.6128 46.7868 30.6128 47.3297Z" fill="#FFFFFF"/>
<path fill-rule="evenodd" clip-rule="evenodd" d="M18.812 47.3297C18.812 47.8725 18.3714 48.3131 17.8286 48.3131C17.2857 48.3131 16.8452 47.8725 16.8452 47.3297C16.8452 46.7868 17.2857 46.3463 17.8286 46.3463C18.3714 46.3463 18.812 46.7868 18.812 47.3297Z" fill="#FFFFFF"/>
<path fill-rule="evenodd" clip-rule="evenodd" d="M12.9116 47.3297C12.9116 47.8725 12.471 48.3131 11.9282 48.3131C11.3853 48.3131 10.9448 47.8725 10.9448 47.3297C10.9448 46.7868 11.3853 46.3463 11.9282 46.3463C12.471 46.3463 12.9116 46.7868 12.9116 47.3297Z" fill="#FFFFFF"/>
<path fill-rule="evenodd" clip-rule="evenodd" d="M36.5132 47.3297C36.5132 47.8725 36.0726 48.3131 35.5298 48.3131C34.987 48.3131 34.5464 47.8725 34.5464 47.3297C34.5464 46.7868 34.987 46.3463 35.5298 46.3463C36.0726 46.3463 36.5132 46.7868 36.5132 47.3297Z" fill="#FFFFFF"/>
<path fill-rule="evenodd" clip-rule="evenodd" d="M24.7124 53.23C24.7124 53.7728 24.2718 54.2133 23.729 54.2133C23.1861 54.2133 22.7456 53.7728 22.7456 53.23C22.7456 52.6871 23.1861 52.2466 23.729 52.2466C24.2718 52.2466 24.7124 52.6871 24.7124 53.23Z" fill="#FFFFFF"/>
<path fill-rule="evenodd" clip-rule="evenodd" d="M27.6626 50.2798C27.6626 50.8226 27.222 51.2632 26.6792 51.2632C26.1363 51.2632 25.6958 50.8226 25.6958 50.2798C25.6958 49.737 26.1363 49.2964 26.6792 49.2964C27.222 49.2964 27.6626 49.737 27.6626 50.2798Z" fill="#FFFFFF"/>
<path fill-rule="evenodd" clip-rule="evenodd" d="M27.6626 56.1801C27.6626 56.7229 27.222 57.1635 26.6792 57.1635C26.1363 57.1635 25.6958 56.7229 25.6958 56.1801C25.6958 55.6373 26.1363 55.1967 26.6792 55.1967C27.222 55.1967 27.6626 55.6373 27.6626 56.1801Z" fill="#FFFFFF"/>
<path fill-rule="evenodd" clip-rule="evenodd" d="M30.6128 53.23C30.6128 53.7728 30.1722 54.2133 29.6294 54.2133C29.0865 54.2133 28.646 53.7728 28.646 53.23C28.646 52.6871 29.0865 52.2466 29.6294 52.2466C30.1722 52.2466 30.6128 52.6871 30.6128 53.23Z" fill="#FFFFFF"/>
<path fill-rule="evenodd" clip-rule="evenodd" d="M18.812 53.23C18.812 53.7728 18.3714 54.2133 17.8286 54.2133C17.2857 54.2133 16.8452 53.7728 16.8452 53.23C16.8452 52.6871 17.2857 52.2466 17.8286 52.2466C18.3714 52.2466 18.812 52.6871 18.812 53.23Z" fill="#FFFFFF"/>
<path fill-rule="evenodd" clip-rule="evenodd" d="M21.7622 50.2798C21.7622 50.8226 21.3216 51.2632 20.7788 51.2632C20.2359 51.2632 19.7954 50.8226 19.7954 50.2798C19.7954 49.737 20.2359 49.2964 20.7788 49.2964C21.3216 49.2964 21.7622 49.737 21.7622 50.2798Z" fill="#FFFFFF"/>
<path fill-rule="evenodd" clip-rule="evenodd" d="M21.7622 56.1801C21.7622 56.7229 21.3216 57.1635 20.7788 57.1635C20.2359 57.1635 19.7954 56.7229 19.7954 56.1801C19.7954 55.6373 20.2359 55.1967 20.7788 55.1967C21.3216 55.1967 21.7622 55.6373 21.7622 56.1801Z" fill="#FFFFFF"/>
<path fill-rule="evenodd" clip-rule="evenodd" d="M15.8618 50.2798C15.8618 50.8226 15.4212 51.2632 14.8784 51.2632C14.3355 51.2632 13.895 50.8226 13.895 50.2798C13.895 49.737 14.3355 49.2964 14.8784 49.2964C15.4212 49.2964 15.8618 49.737 15.8618 50.2798Z" fill="#FFFFFF"/>
<path fill-rule="evenodd" clip-rule="evenodd" d="M33.563 50.2798C33.563 50.8226 33.1224 51.2632 32.5796 51.2632C32.0368 51.2632 31.5962 50.8226 31.5962 50.2798C31.5962 49.737 32.0368 49.2964 32.5796 49.2964C33.1224 49.2964 33.563 49.737 33.563 50.2798Z" fill="#FFFFFF"/>
<path fill-rule="evenodd" clip-rule="evenodd" d="M33.563 56.1801C33.563 56.7229 33.1224 57.1635 32.5796 57.1635C32.0368 57.1635 31.5962 56.7229 31.5962 56.1801C31.5962 55.6373 32.0368 55.1967 32.5796 55.1967C33.1224 55.1967 33.563 55.6373 33.563 56.1801Z" fill="#FFFFFF"/>
<path fill-rule="evenodd" clip-rule="evenodd" d="M36.5132 53.23C36.5132 53.7728 36.0726 54.2133 35.5298 54.2133C34.987 54.2133 34.5464 53.7728 34.5464 53.23C34.5464 52.6871 34.987 52.2466 35.5298 52.2466C36.0726 52.2466 36.5132 52.6871 36.5132 53.23Z" fill="#FFFFFF"/>
<path fill-rule="evenodd" clip-rule="evenodd" d="M39.4634 56.1801C39.4634 56.7229 39.0228 57.1635 38.48 57.1635C37.9372 57.1635 37.4966 56.7229 37.4966 56.1801C37.4966 55.6373 37.9372 55.1967 38.48 55.1967C39.0228 55.1967 39.4634 55.6373 39.4634 56.1801Z" fill="#FFFFFF"/>
</svg>
