<svg width="60" height="60" viewBox="0 0 60 60" fill="none" xmlns="http://www.w3.org/2000/svg">
<path d="M30.5 55C19.7 55 11 46.3 11 35.5C11 24.7 19.7 16 30.5 16C41.3 16 50 24.7 50 35.5C50 46.3 41.3 55 30.5 55ZM30.5 18C20.9 18 13 25.9 13 35.5C13 45.1 20.9 53 30.5 53C40.1 53 48 45.1 48 35.5C48 25.9 40.1 18 30.5 18Z" fill="#FFFFFF"/>
<path d="M43.8 60H36.3C35.5 60 35 59.5 35 58.7V52.5L35.7 52.3C39.6 51.1 43 48.5 45.2 45.1L47 42.2V56.8C47 58.6 45.6 60 43.8 60ZM37 58H43.8C44.5 58 45 57.5 45 56.8V48.6C42.8 51 40.1 52.9 37 54V58Z" fill="#FFFFFF"/>
<path d="M24.7 60H17C15.3 60 14 58.7 14 57V42.3L15.8 45C18.1 48.4 21.5 51 25.3 52.2L26 52.4V58.6C26 59.5 25.5 60 24.7 60ZM16 48.5V57C16 57.6 16.4 58 17 58H24V53.9C21 52.8 18.2 51 16 48.5Z" fill="#FFFFFF"/>
<path d="M47.6 31.2L46.7 28.9C45.4 25.6 43.1 22.7 40.2 20.9L38.7 19.9L40.3 19.1C40.9 18.8 41.5 18.5 42.1 18.2C44.7 16.9 47.1 15.6 50.2 15.2L53.8 14.9L53 20.1C52.7 22 51.8 23.3 50.8 24.5C50.1 25.4 49.5 26.2 49.1 27.3L47.6 31.2ZM42.6 20.1C44.6 21.7 46.3 23.7 47.5 26C48 25 48.6 24.1 49.2 23.3C50 22.2 50.8 21.2 51 19.8L51.4 17L50.4 17.1C47.6 17.4 45.4 18.6 43 19.8C42.9 20 42.7 20.1 42.6 20.1Z" fill="#FFFFFF"/>
<path d="M13.4 31.2L11.9 27.4C11.5 26.3 10.9 25.4 10.2 24.5C9.2 23.3 8.3 22 8 20.1L7.3 14.9L10.7 15.2C13.8 15.5 16.3 16.8 18.7 18.1C19.3 18.4 20 18.8 20.6 19.1L22.1 19.9L20.7 20.9C17.7 23 15.4 25.8 14.2 29L13.4 31.2ZM9.6 17.1L10 19.9C10.2 21.2 10.9 22.2 11.8 23.3C12.3 24.1 13 24.9 13.5 26C14.7 23.8 16.4 21.8 18.5 20.1C18.3 20 18.1 19.9 17.9 19.8C15.6 18.5 13.4 17.4 10.7 17.1H9.6Z" fill="#FFFFFF"/>
<path d="M31 51C26 51 22 47 22 42C22 37 26 33 31 33C36 33 40 37 40 42C40 47 36 51 31 51ZM31 35C27.1 35 24 38.1 24 42C24 45.9 27.1 49 31 49C34.9 49 38 45.9 38 42C38 38.1 34.9 35 31 35Z" fill="#FFFFFF"/>
<path d="M25.5 30C24.7 30 24 29.3 24 28.5C24 27.7 24.7 27 25.5 27C26.3 27 27 27.7 27 28.5C27 29.3 26.4 30 25.5 30Z" fill="#FFFFFF"/>
<path d="M36.5 30C35.7 30 35 29.3 35 28.5C35 27.7 35.7 27 36.5 27C37.3 27 38 27.7 38 28.5C38 29.3 37.4 30 36.5 30Z" fill="#FFFFFF"/>
<path d="M28.5 43C27.7 43 27 42.3 27 41.5C27 40.7 27.7 40 28.5 40C29.3 40 30 40.7 30 41.5C30 42.3 29.4 43 28.5 43Z" fill="#FFFFFF"/>
<path d="M33.5 43C32.7 43 32 42.3 32 41.5C32 40.7 32.7 40 33.5 40C34.3 40 35 40.7 35 41.5C35 42.3 34.4 43 33.5 43Z" fill="#FFFFFF"/>
<path d="M41.3 16.7C41 16.7 40.8 16.6 40.6 16.4C38.2 14 34.3 12.5 30.2 12.5C26.1 12.5 22.4 13.9 20 16.3C19.6 16.7 19 16.7 18.6 16.3C18.2 15.9 18.2 15.3 18.6 14.9C21.4 12.1 25.6 10.5 30.1 10.5H30.2C34.8 10.5 39.2 12.2 42 15C42.4 15.4 42.4 16 42 16.4C41.8 16.6 41.6 16.7 41.3 16.7Z" fill="#FFFFFF"/>
<path d="M39 14.8L38 14.3C36.1 13.2 33.9 12.6 31.6 12.4C30.8 12.3 30.1 12.3 29.4 12.4C27.6 12.5 26.1 12.8 24.6 13.3L24.2 13.5C23.7 13.7 23.3 13.9 22.9 14.1L21.9 14.6L21.5 13.6C21.1 12.6 20.9 11.6 20.9 10.5C21 5.3 25.3 1 30.5 1C35.7 1 40 5.2 40.1 10.4C40.1 11.6 39.9 12.8 39.4 13.8L39 14.8ZM30.5 10.3C30.9 10.3 31.4 10.3 31.8 10.4C34 10.6 36 11.1 37.9 12C38 11.5 38.1 10.9 38.1 10.4C38 6.3 34.6 3 30.5 3C26.4 3 23 6.4 23 10.5C23 10.9 23 11.4 23.1 11.8C23.2 11.8 23.3 11.7 23.5 11.7L24 11.5C25.6 10.9 27.3 10.5 29.3 10.4C29.6 10.4 30.1 10.3 30.5 10.3Z" fill="#FFFFFF"/>
<path d="M30.5 59C28.3 59 26.3 58.6 24.8 58.3L24 58.1V53.9C20.9 52.8 18.2 51 16 48.5V54.1L14.3 52.6C8.4 47.4 5 39.5 5 31C5 26.4 6 22 8 18.1L8.5 17L8.9 16.4L9.5 15.2V15.3C12.2 10.8 16.4 8 22.3 6.7L24 6.4L23.4 8C23.1 8.9 23 9.7 23 10.5C23 11 23 11.4 23.1 11.8C23.3 11.7 23.6 11.6 23.9 11.5C25.5 10.9 27.2 10.6 29.2 10.5C30 10.4 30.9 10.4 31.8 10.5C33.9 10.7 36 11.2 37.9 12.1C38 11.6 38.1 11.1 38.1 10.5C38.1 9.6 38 8.8 37.8 7.9L37.5 6.4L39 6.7C44.9 8 49.1 10.7 51.8 15.2V14.9L52.7 16.9L53.2 18.1C55.1 22.2 56 26.6 56 31C56 39.4 52.6 47.3 46.7 52.6L45 54.2V48.6C42.8 51 40.1 52.9 37 54V58.1L36.3 58.3C34.5 58.8 32.6 59 30.5 59ZM26 56.5C27.3 56.8 28.9 57 30.5 57C32.1 57 33.6 56.8 35 56.5V52.4L35.7 52.2C39.6 51 43 48.4 45.2 45L47 42.1V49.4C51.5 44.5 54 37.9 54 30.9C54 27.8 53.5 24.8 52.6 21.9C52.2 22.9 51.6 23.7 51 24.4C50.3 25.3 49.7 26.1 49.3 27.2L47.8 31.1L46.9 28.8C45.6 25.6 43.4 22.9 40.4 20.7L39 19.7L40.5 18.9C41.2 18.6 41.8 18.2 42.4 17.9C44.6 16.7 46.8 15.5 49.5 15.1C47.3 12 44.2 10 40 8.8C40 9.5 40 10 40 10.5C40 11.7 39.8 12.9 39.3 13.9L38.9 14.9L37.9 14.4C36 13.4 33.8 12.7 31.5 12.5C30.7 12.4 30 12.4 29.3 12.5C27.5 12.6 26 12.9 24.5 13.4C23.9 13.6 23.4 13.9 22.8 14.2L21.7 14.8L21.4 13.6C21.2 12.7 21 11.7 21 10.6C21 10.1 21 9.7 21.1 9.2C17 10.2 14 12.3 11.8 15.4C14.5 15.9 16.7 17 19.1 18.2C19.7 18.5 20.3 18.8 20.9 19.1L22.5 19.9L21 20.9C18.1 22.8 15.8 25.6 14.5 28.9L13.5 31.3L12 27.3C11.6 26.2 11 25.4 10.3 24.5C9.7 23.7 9 22.8 8.6 21.8C7.6 24.7 7 27.8 7 31C7 38.1 9.5 44.7 14 49.5V42.2L15.8 45.1C18 48.5 21.3 51.1 25.3 52.3L26 52.5V56.5ZM9.7 17.2L10.1 19.9C10.3 21.3 11 22.3 11.9 23.4C12.5 24.2 13.1 25 13.6 26.1C14.8 23.8 16.5 21.8 18.5 20.3C18.4 20.2 18.3 20.2 18.1 20.1C15.7 18.8 13.5 17.7 10.7 17.4L9.7 17.2ZM42.7 20.2C44.8 21.9 46.4 23.9 47.7 26.1C48.2 25 48.8 24.2 49.4 23.4C50.2 22.3 51 21.3 51.2 20L51.6 17.2L50.7 17.3C47.9 17.5 45.7 18.7 43.4 20C43 20 42.9 20.1 42.7 20.2Z" fill="#FFFFFF"/>
</svg>
