<svg width="59" height="58" viewBox="0 0 59 58" fill="none" xmlns="http://www.w3.org/2000/svg">
<path fill-rule="evenodd" clip-rule="evenodd" d="M5.84466 5.25351C6.23518 4.86299 6.86835 4.86299 7.25887 5.25351L10.2589 8.25351C10.6494 8.64404 10.6494 9.2772 10.2589 9.66773L7.25887 12.6677C6.86835 13.0583 6.23518 13.0583 5.84466 12.6677L2.84466 9.66773C2.45413 9.2772 2.45413 8.64404 2.84466 8.25351L5.84466 5.25351ZM4.96598 8.96062L6.55176 10.5464L8.13755 8.96062L6.55176 7.37484L4.96598 8.96062Z" fill="#FFFFFF"/>
<path fill-rule="evenodd" clip-rule="evenodd" d="M6.55176 2.96062C7.10405 2.96062 7.55176 3.40834 7.55176 3.96062V5.96062C7.55176 6.51291 7.10405 6.96062 6.55176 6.96062C5.99948 6.96062 5.55176 6.51291 5.55176 5.96062V3.96062C5.55176 3.40834 5.99948 2.96062 6.55176 2.96062Z" fill="#FFFFFF"/>
<path fill-rule="evenodd" clip-rule="evenodd" d="M8.55176 8.96062C8.55176 8.40834 8.99948 7.96062 9.55176 7.96062H11.5518C12.104 7.96062 12.5518 8.40834 12.5518 8.96062C12.5518 9.51291 12.104 9.96062 11.5518 9.96062H9.55176C8.99948 9.96062 8.55176 9.51291 8.55176 8.96062Z" fill="#FFFFFF"/>
<path fill-rule="evenodd" clip-rule="evenodd" d="M6.55176 10.9606C7.10405 10.9606 7.55176 11.4083 7.55176 11.9606V13.9606C7.55176 14.5129 7.10405 14.9606 6.55176 14.9606C5.99948 14.9606 5.55176 14.5129 5.55176 13.9606V11.9606C5.55176 11.4083 5.99948 10.9606 6.55176 10.9606Z" fill="#FFFFFF"/>
<path fill-rule="evenodd" clip-rule="evenodd" d="M0.551764 8.96062C0.551764 8.40834 0.999479 7.96062 1.55176 7.96062H3.55176C4.10405 7.96062 4.55176 8.40834 4.55176 8.96062C4.55176 9.51291 4.10405 9.96062 3.55176 9.96062H1.55176C0.999479 9.96062 0.551764 9.51291 0.551764 8.96062Z" fill="#FFFFFF"/>
<path fill-rule="evenodd" clip-rule="evenodd" d="M50.5178 54.7016C50.6608 55.2356 50.3438 55.7836 49.8108 55.9266C49.2768 56.0696 48.7288 55.7526 48.5858 55.2196C48.4428 54.6856 48.7598 54.1376 49.2928 53.9946C49.8268 53.8516 50.3748 54.1686 50.5178 54.7016Z" fill="#FFFFFF"/>
<path fill-rule="evenodd" clip-rule="evenodd" d="M55.5178 34.7016C55.6608 35.2356 55.3438 35.7836 54.8108 35.9266C54.2768 36.0696 53.7288 35.7526 53.5858 35.2196C53.4428 34.6856 53.7598 34.1376 54.2928 33.9946C54.8268 33.8516 55.3748 34.1686 55.5178 34.7016Z" fill="#FFFFFF"/>
<path fill-rule="evenodd" clip-rule="evenodd" d="M5.51776 23.7016C5.66076 24.2356 5.34376 24.7836 4.81076 24.9266C4.27676 25.0696 3.72876 24.7526 3.58576 24.2196C3.44276 23.6856 3.75976 23.1376 4.29276 22.9946C4.82676 22.8516 5.37476 23.1686 5.51776 23.7016Z" fill="#FFFFFF"/>
<path fill-rule="evenodd" clip-rule="evenodd" d="M24.5178 24.7016C24.6608 25.2356 24.3438 25.7836 23.8108 25.9266C23.2768 26.0696 22.7288 25.7526 22.5858 25.2196C22.4428 24.6856 22.7598 24.1376 23.2928 23.9946C23.8268 23.8516 24.3748 24.1686 24.5178 24.7016Z" fill="#FFFFFF"/>
<path fill-rule="evenodd" clip-rule="evenodd" d="M31.5178 55.7016C31.6608 56.2346 31.3438 56.7836 30.8108 56.9266C30.2778 57.0696 29.7288 56.7526 29.5858 56.2196C29.4428 55.6856 29.7598 55.1376 30.2928 54.9946C30.8268 54.8516 31.3748 55.1676 31.5178 55.7016Z" fill="#FFFFFF"/>
<path fill-rule="evenodd" clip-rule="evenodd" d="M47.7794 0.401236C50.7792 -0.352067 53.9902 -0.211325 56.2874 2.28322C58.5211 4.70885 58.6759 7.55538 57.8611 10.3569C57.0624 13.103 55.3038 15.9311 53.5389 18.5487C49.7946 24.1002 44.1797 30.7009 37.7359 37.1447C31.292 43.5886 24.6915 49.2034 19.1399 52.9477C16.509 54.7216 13.4566 56.5679 10.5075 57.4396C7.54079 58.3165 4.45427 58.2603 2.07666 55.8827C-0.300959 53.5051 -0.357081 50.4186 0.519916 47.452C1.39173 44.5029 3.23831 41.4509 5.01274 38.8204C6.19264 37.0699 7.57362 35.2119 9.08556 33.3011C9.09368 33.2909 9.102 33.2808 9.11051 33.2708L9.12251 33.2568C9.36427 32.9748 9.74247 32.85 10.1046 32.9328C10.4668 33.0156 10.7532 33.2923 10.8484 33.6514C11.2815 35.2852 11.9256 36.8336 12.7502 38.2643C12.7965 38.3446 12.8314 38.431 12.8539 38.521L12.8569 38.533C12.93 38.8253 12.8674 39.1349 12.6866 39.3758C10.2313 42.6479 8.43738 45.4993 7.44387 47.6849C6.94474 48.783 6.67385 49.6569 6.59751 50.3001C6.51881 50.9633 6.66508 51.1807 6.72187 51.2375C6.76945 51.2851 6.92344 51.3954 7.37339 51.3839C7.82373 51.3724 8.44852 51.2384 9.25615 50.9394C10.8654 50.3439 12.9796 49.1783 15.4668 47.501C20.4271 44.1558 26.6993 38.8924 33.0917 32.5005C39.4836 26.1081 44.747 19.836 48.0922 14.8756C49.7695 12.3885 50.935 10.2742 51.5306 8.66501C51.8295 7.85738 51.9636 7.23258 51.9751 6.78224C51.9865 6.33229 51.8762 6.17831 51.8287 6.13073C51.7719 6.07393 51.5545 5.92766 50.8913 6.00637C50.248 6.08271 49.3741 6.35359 48.2761 6.85273C46.0905 7.84624 43.239 9.64019 39.967 12.0955C39.6989 12.2966 39.348 12.3501 39.0322 12.238C38.9492 12.2085 38.8715 12.1686 38.8006 12.1199C38.8215 12.132 38.8424 12.144 38.8632 12.1562L39.3649 11.2931L39.3668 11.2956L40.3369 11.0532L40.3359 11.0492C40.2705 10.7872 40.1018 10.5628 39.8683 10.4271C39.6776 10.3162 39.4856 10.2086 39.2922 10.1043C42.4033 7.80474 45.1986 6.05472 47.4484 5.03201C48.6311 4.4944 49.7195 4.13141 50.6556 4.02031C51.5717 3.91158 52.5507 4.02431 53.2429 4.71651C53.8198 5.29343 53.9938 6.0746 53.9744 6.83323C53.9551 7.59146 53.7432 8.44866 53.4062 9.3592C52.73 11.1863 51.4638 13.4531 49.7503 15.9939C46.3141 21.0892 40.96 27.4601 34.5059 33.9147C28.0513 40.3688 21.6804 45.7229 16.585 49.1592C14.0443 50.8726 11.7775 52.1389 9.95035 52.8151C9.03981 53.1521 8.1826 53.3639 7.42437 53.3833C6.66575 53.4026 5.88458 53.2286 5.30766 52.6517C4.61545 51.9595 4.50272 50.9806 4.61145 50.0644C4.72255 49.1283 5.08554 48.04 5.62315 46.8573C6.64668 44.6056 8.39867 41.8077 10.7009 38.6937C10.8035 38.8852 10.909 39.075 11.0174 39.263L11.8447 38.7861L11.8868 38.7756L11.8764 38.7679L11.8838 38.7636L11.874 38.7661L11.0869 38.1754C10.9566 38.3491 10.8279 38.5219 10.7009 38.6937C10.242 37.8371 9.84052 36.9449 9.50157 36.0224C9.87503 35.5343 10.2596 35.0406 10.654 34.5421L10.2383 34.2132L9.88176 33.9076L8.91516 34.1639C9.0826 34.7955 9.27856 35.4155 9.50157 36.0224C8.4642 37.3783 7.51221 38.6905 6.67099 39.9385C4.90942 42.55 3.2163 45.3858 2.43786 48.019C1.66461 50.6347 1.84749 52.8251 3.49087 54.4685C5.13426 56.1119 7.32474 56.2948 9.94057 55.5216C12.5739 54.7433 15.4097 53.0506 18.0217 51.2895C23.4361 47.6377 29.9375 42.1146 36.3217 35.7305C42.7058 29.3464 48.2289 22.845 51.8806 17.4306C53.6508 14.8052 55.2392 12.2102 55.9407 9.79834C56.6261 7.44186 56.4345 5.39539 54.8162 3.63802C53.2383 1.92457 50.9453 1.66831 48.2666 2.34101C45.5914 3.0128 42.7772 4.56415 40.5299 6.0797C39.6875 6.64749 38.3202 7.63672 37.1646 8.49354C36.9769 8.63272 36.7954 8.76792 36.6233 8.89674C36.0152 8.67139 35.3987 8.47508 34.7762 8.30786C34.2758 8.17345 33.7557 8.44346 33.5777 8.93C33.3997 9.41631 33.6225 9.95797 34.091 10.1784L34.0884 10.1772L34.0854 10.1758L34.0757 10.1709C34.0729 10.1694 34.0582 10.1619 34.0389 10.1506C34.0301 10.1455 34.0081 10.1327 33.981 10.1142C33.9674 10.1049 33.9437 10.0884 33.9156 10.0657C33.8947 10.0487 33.8347 9.99953 33.772 9.92312C33.7404 9.88466 33.6847 9.81138 33.6367 9.70723C33.5909 9.60783 33.52 9.41062 33.5536 9.15734C33.5918 8.86952 33.7469 8.64181 33.9333 8.4977C34.0943 8.37329 34.2525 8.32922 34.3316 8.31196C34.4838 8.27876 34.6068 8.29045 34.6373 8.29335L34.6384 8.29345C34.6868 8.29804 34.7247 8.30527 34.7439 8.3092C34.7547 8.31143 34.7648 8.31371 34.774 8.31589C34.798 8.32161 34.8155 8.32673 34.8227 8.32886C34.8361 8.33283 34.8461 8.33614 34.8508 8.33772C34.8602 8.34086 34.8647 8.34258 34.8609 8.3412L34.5128 9.27862L34.8726 8.34562C34.8943 8.35398 34.9166 8.36347 34.9393 8.3742L34.5168 9.27362L34.2573 10.2394C34.3056 10.2523 34.3538 10.2655 34.402 10.2789C34.3757 10.2751 34.355 10.2711 34.342 10.2684C34.2779 10.2553 34.2258 10.2376 34.2163 10.2344L34.2152 10.234C34.2043 10.2304 34.1939 10.2267 34.1844 10.2233C34.1772 10.2207 34.1705 10.2183 34.1646 10.216L34.1529 10.2117C34.0205 10.1607 33.8656 10.0679 33.7367 9.90966C33.6062 9.74933 33.5431 9.57174 33.5214 9.41529C33.4832 9.14134 33.5698 8.93486 33.5956 8.87564C33.6552 8.73909 33.7335 8.64627 33.7495 8.62733L33.7511 8.62551C33.7996 8.5676 33.848 8.52284 33.8652 8.50694C33.9124 8.46342 33.9694 8.4156 34.0228 8.37189C34.1351 8.27982 34.2941 8.15494 34.4831 8.00929C34.8636 7.71595 35.3918 7.31817 35.9734 6.88695C37.1332 6.02709 38.53 5.01577 39.4116 4.42154C41.7374 2.85309 44.7761 1.15544 47.7794 0.401236ZM35.3805 9.84617C35.4643 9.7793 35.573 9.69433 35.7042 9.59324C35.9515 9.40253 36.2673 9.16328 36.6233 8.89674C37.534 9.23418 38.4261 9.63674 39.2922 10.1043C39.118 10.2331 38.9427 10.3636 38.7666 10.4958L39.3641 11.292L38.3956 11.534L38.3966 11.538C38.4565 11.7776 38.6018 11.9834 38.8006 12.1199C37.4025 11.3144 35.9234 10.7004 34.402 10.2789C34.4164 10.2809 34.4324 10.2829 34.4497 10.2845C34.4807 10.2875 34.6052 10.2993 34.7579 10.266C34.8401 10.2481 35.1742 10.1544 35.3805 9.84617Z" fill="#FFFFFF"/>
<path fill-rule="evenodd" clip-rule="evenodd" d="M14.3537 13.7625C22.5943 5.52095 35.9564 5.52104 44.1979 13.7625C45.5263 15.0909 46.6255 16.5562 47.5212 18.1036C47.7979 18.5816 47.6347 19.1934 47.1568 19.4701C46.6788 19.7468 46.067 19.5836 45.7903 19.1056C44.9761 17.699 43.9813 16.3743 42.7837 15.1767C35.3232 7.71623 23.2274 7.71629 15.7679 15.1767C8.30753 22.6361 8.30737 34.732 15.7679 42.1925C16.9655 43.3901 18.2902 44.3849 19.6968 45.1992C20.1747 45.4759 20.3379 46.0876 20.0612 46.5656C19.7845 47.0436 19.1727 47.2068 18.6948 46.9301C17.1474 46.0343 15.6821 44.9351 14.3537 43.6067C6.11219 35.3653 6.11218 22.003 14.3537 13.7625Z" fill="#FFFFFF"/>
<path fill-rule="evenodd" clip-rule="evenodd" d="M48.4222 22.4809C48.9556 22.3375 49.5041 22.6537 49.6475 23.1871C51.5413 30.2335 49.7314 38.0732 44.1979 43.6067C38.6634 49.1401 30.8247 50.9502 23.7782 49.0564C23.2449 48.913 22.9287 48.3644 23.072 47.8311C23.2154 47.2977 23.764 46.9815 24.2973 47.1249C30.6828 48.8411 37.7761 47.1991 42.7837 42.1925C47.7901 37.186 49.4322 30.0918 47.716 23.7062C47.5727 23.1728 47.8889 22.6242 48.4222 22.4809Z" fill="#FFFFFF"/>
</svg>
