<svg width="57" height="55" viewBox="0 0 57 55" fill="none" xmlns="http://www.w3.org/2000/svg">
<path d="M56 25H1C0.4 25 0 24.6 0 24V12C0 11.4 0.4 11 1 11H56C56.6 11 57 11.4 57 12V24C57 24.6 56.6 25 56 25ZM2 23H55V13H2V23Z" fill="#FFFFFF"/>
<path d="M39.5 13H23C22.7 13 22.4 12.8 22.2 12.6C22 12.3 22 12 22.1 11.7C22.3 11 22.7 10.4 23.3 9.8L31.1 2C32.4 0.7 34.2 0 36.1 0C38 0 39.8 0.7 41.1 2C43.8 4.7 43.8 9.2 41.1 11.9L40.3 12.7C40 12.9 39.8 13 39.5 13ZM24.9 11H39.1L39.6 10.5C41.5 8.6 41.5 5.3 39.6 3.4C38.7 2.5 37.4 2 36 2C34.6 2 33.4 2.5 32.5 3.4L24.9 11Z" fill="#FFFFFF"/>
<path d="M23 13H17C16.8 13 16.5 12.9 16.3 12.8L15.5 12.1C14.2 10.8 13.4 9 13.4 7.1C13.4 5.2 14.1 3.4 15.4 2.1C18.1 -0.6 22.6 -0.6 25.3 2.1L28.8 5.6C29.2 6 29.2 6.6 28.8 7L24.6 11.2C24.3 11.6 24 12.1 23.7 12.5C23.7 12.8 23.4 13 23 13ZM17.4 11H22.5C22.7 10.6 23 10.3 23.3 9.9C23.3 9.9 23.3 9.8 23.4 9.8L26.9 6.3L24 3.5C22.1 1.6 18.8 1.6 16.9 3.5C16 4.4 15.5 5.7 15.5 7C15.5 8.4 16 9.6 16.9 10.5L17.4 11Z" fill="#FFFFFF"/>
<path d="M52 55H6C5.4 55 5 54.6 5 54V24C5 23.4 5.4 23 6 23H52C52.6 23 53 23.4 53 24V54C53 54.6 52.6 55 52 55ZM7 53H51V25H7V53Z" fill="#FFFFFF"/>
<path d="M29 55C28.4 55 28 54.6 28 54V12C28 11.4 28.4 11 29 11C29.6 11 30 11.4 30 12V54C30 54.6 29.6 55 29 55Z" fill="#FFFFFF"/>
<path d="M52 39H6C5.4 39 5 38.6 5 38C5 37.4 5.4 37 6 37H52C52.6 37 53 37.4 53 38C53 38.6 52.6 39 52 39Z" fill="#FFFFFF"/>
</svg>
