<svg width="56" height="60" viewBox="0 0 56 60" fill="none" xmlns="http://www.w3.org/2000/svg">
<path d="M28 6C26.9 6 26 6.9 26 8C26 9.1 26.9 10 28 10C29.1 10 30 9.1 30 8C30 6.9 29.1 6 28 6ZM28 12C25.8 12 24 10.2 24 8C24 5.8 25.8 4 28 4C30.2 4 32 5.8 32 8C32 10.2 30.2 12 28 12Z" fill="#FFFFFF"/>
<path d="M30 6.8C29.4 6.8 29 6.4 29 5.8V2H27V5.8C27 6.4 26.6 6.8 26 6.8C25.4 6.8 25 6.4 25 5.8V1C25 0.4 25.4 0 26 0H30C30.6 0 31 0.4 31 1V5.8C31 6.3 30.6 6.8 30 6.8Z" fill="#FFFFFF"/>
<path d="M30 56H26C25.4 56 25 55.6 25 55V10.2C25 9.6 25.4 9.2 26 9.2C26.6 9.2 27 9.6 27 10.2V54H29V10.2C29 9.6 29.4 9.2 30 9.2C30.6 9.2 31 9.6 31 10.2V55C31 55.6 30.6 56 30 56Z" fill="#FFFFFF"/>
<path d="M55 9H31C30.4 9 30 8.6 30 8C30 7.4 30.4 7 31 7H55C55.6 7 56 7.4 56 8C56 8.6 55.6 9 55 9Z" fill="#FFFFFF"/>
<path d="M25 9H1C0.4 9 0 8.6 0 8C0 7.4 0.4 7 1 7H25C25.6 7 26 7.4 26 8C26 8.6 25.6 9 25 9Z" fill="#FFFFFF"/>
<path d="M40.4 27C41.2 28.1 43.3 29 46 29C48.7 29 50.8 28.1 51.6 27H40.4ZM46 31C41.5 31 38 28.8 38 26C38 25.4 38.4 25 39 25H53C53.6 25 54 25.4 54 26C54 28.8 50.5 31 46 31Z" fill="#FFFFFF"/>
<path d="M53 27C52.6 27 52.2 26.8 52.1 26.4L46 10.8L39.9 26.4C39.7 26.9 39.1 27.2 38.6 27C38.1 26.8 37.8 26.2 38 25.7L45 7.7C45.2 7.3 45.6 7 46 7C46.4 7 46.8 7.3 46.9 7.6L53.9 25.6C54.1 26.1 53.8 26.7 53.3 26.9C53.2 27 53.1 27 53 27Z" fill="#FFFFFF"/>
<path d="M4.4 27C5.2 28.1 7.3 29 10 29C12.7 29 14.8 28.1 15.6 27H4.4ZM10 31C5.5 31 2 28.8 2 26C2 25.4 2.4 25 3 25H17C17.6 25 18 25.4 18 26C18 28.8 14.5 31 10 31Z" fill="#FFFFFF"/>
<path d="M17 27C16.6 27 16.2 26.8 16.1 26.4L10 10.8L3.9 26.4C3.7 26.9 3.1 27.2 2.6 27C2.1 26.8 1.8 26.2 2 25.7L9 7.7C9.2 7.3 9.6 7 10 7C10.4 7 10.8 7.3 10.9 7.6L17.9 25.6C18.1 26.1 17.8 26.7 17.3 26.9C17.2 27 17.1 27 17 27Z" fill="#FFFFFF"/>
<path d="M18.2 58H37.9C37.5 56.8 36.4 56 35.1 56H21C19.7 56 18.6 56.8 18.2 58ZM39 60H17C16.4 60 16 59.6 16 59C16 56.2 18.2 54 21 54H35C37.8 54 40 56.2 40 59C40 59.6 39.6 60 39 60Z" fill="#FFFFFF"/>
</svg>
