<svg width="48" height="60" viewBox="0 0 48 60" fill="none" xmlns="http://www.w3.org/2000/svg">
<path d="M44 57H6C5.4 57 5 56.6 5 56V6C5 5.4 5.4 5 6 5H29C29.3 5 29.5 5.1 29.7 5.3L44.7 20.3C44.9 20.5 45 20.7 45 21V56C45 56.6 44.6 57 44 57ZM7 55H43V22H29C28.4 22 28 21.6 28 21V7H7V55ZM30 20H41.6L30 8.4V20Z" fill="#FFFFFF"/>
<path d="M47 60C46.7 60 46.5 59.9 46.3 59.7L34.1 47.5C32 49.2 29.4 50.3 26.5 50.3C20 50.3 14.7 45 14.7 38.5C14.7 32 20 26.7 26.5 26.7C33 26.7 38.3 32 38.3 38.5C38.3 41.4 37.3 44 35.5 46.1L47.7 58.3C47.9 58.5 48 58.8 48 59C48 59.2 47.9 59.5 47.7 59.7C47.5 59.9 47.3 60 47 60ZM26.5 28.7C21.1 28.7 16.7 33.1 16.7 38.5C16.7 43.9 21.1 48.3 26.5 48.3C31.9 48.3 36.3 43.9 36.3 38.5C36.3 33.1 31.9 28.7 26.5 28.7ZM6 52H1C0.4 52 0 51.6 0 51V1C0 0.4 0.4 0 1 0H39C39.6 0 40 0.4 40 1V16C40 16.4 39.8 16.8 39.4 16.9C39 17.1 38.6 17 38.3 16.7L28.6 7H7V51C7 51.6 6.6 52 6 52ZM2 50H5V6C5 5.4 5.4 5 6 5H29C29.3 5 29.5 5.1 29.7 5.3L38 13.6V2H2V50ZM32.6 42H20.6C20 42 19.6 41.6 19.6 41C19.6 40.4 20 40 20.6 40H32.6C33.2 40 33.6 40.4 33.6 41C33.6 41.6 33.2 42 32.6 42ZM26.6 36H20.6C20 36 19.6 35.6 19.6 35C19.6 34.4 20 34 20.6 34H26.6C27.2 34 27.6 34.4 27.6 35C27.6 35.6 27.2 36 26.6 36Z" fill="#FFFFFF"/>
</svg>
