<svg width="60" height="60" viewBox="0 0 60 60" fill="none" xmlns="http://www.w3.org/2000/svg">
<path d="M20 57H5V37.5L5.4 37.2C5.8 36.9 14.3 30.5 19 34.2C20.6 35.4 22.6 36 24.7 36H28.6C31.6 36 34.3 37.4 35.8 39.7C36.6 41 36.8 42.1 36.4 43C38.9 43 41.5 42.7 42.8 42.1L51.4 36.8C55.7 34.5 57.5 34.5 59.3 36.9C60.2 38.2 60 40 58.8 40.9L43.7 52.8C43 53.5 41.9 54.3 40.4 54.4C40.1 54.4 40 54.4 39.8 54.4C39.6 54.4 39.3 54.4 39.1 54.5L26.2 56.5C23.9 56.8 21.8 57 20 57ZM7 55H20C21.7 55 23.7 54.8 25.9 54.5L39 52.5C39.2 52.5 39.4 52.5 39.5 52.5C39.8 52.5 40 52.4 40.3 52.4C40.9 52.3 41.6 52 42.4 51.2L57.7 39.4C58 39.1 58.1 38.6 57.8 38.2C56.9 37 56.5 36.4 52.5 38.6L43.8 43.9C41.2 45.2 35.9 45.1 32.4 45.1C32.3 45.1 32.1 45.1 32 45.1C31.4 45.1 30.9 45.1 30.7 45.1L30.8 43.1C31.1 43.1 31.5 43.1 32 43.1C33.2 43 34.5 42.8 34.7 42.3C34.8 42.1 34.7 41.5 34.3 40.9C33 39.1 30.9 38 28.6 38H24.7C22.2 38 19.8 37.2 17.8 35.8C15 33.6 9.4 36.8 7 38.5V55Z" fill="#FFFFFF"/>
<path d="M7 60H0V34H7V60ZM2 58H5V36H2V58Z" fill="#FFFFFF"/>
<path d="M17 48C16.4 48 16 47.6 16 47C16 44.5 17.9 43 21 43H30.7C31.3 43 31.7 43.4 31.7 44C31.7 44.6 31.3 45 30.7 45H21C18 45 18 46.5 18 47C18 47.6 17.6 48 17 48Z" fill="#FFFFFF"/>
<path d="M51.4 32H8.6C8.3 32 8 31.8 7.8 31.6L4.2 26.6C4 26.3 4 25.9 4.1 25.6C4.3 25.2 4.6 25 5 25H55C55.4 25 55.7 25.2 55.9 25.5C56.1 25.8 56 26.2 55.8 26.5L52.2 31.5C52 31.8 51.7 32 51.4 32ZM9.1 30H50.9L53.1 27H7L9.1 30Z" fill="#FFFFFF"/>
<path d="M30 5C29.4 5 29 4.6 29 4V1C29 0.4 29.4 0 30 0C30.6 0 31 0.4 31 1V4C31 4.6 30.6 5 30 5Z" fill="#FFFFFF"/>
<path d="M33 2H27C26.4 2 26 1.6 26 1C26 0.4 26.4 0 27 0H33C33.6 0 34 0.4 34 1C34 1.6 33.6 2 33 2Z" fill="#FFFFFF"/>
<path d="M52 27H8C7.4 27 7 26.6 7 26C7 13.3 17.3 3 30 3C42.7 3 53 13.3 53 26C53 26.6 52.6 27 52 27ZM9 25H51C50.5 13.9 41.2 5 30 5C18.8 5 9.5 13.9 9 25Z" fill="#FFFFFF"/>
<path d="M14.4 18C14.2 18 14.1 18 13.9 17.9C13.4 17.6 13.3 17 13.5 16.5C16.9 10.6 23.2 7 30 7C30.6 7 31 7.4 31 8C31 8.6 30.6 9 30 9C23.9 9 18.3 12.3 15.3 17.5C15.1 17.8 14.7 18 14.4 18Z" fill="#FFFFFF"/>
</svg>
