<svg width="60" height="61" viewBox="0 0 60 61" fill="none" xmlns="http://www.w3.org/2000/svg">
<path d="M46.7764 60C46.2764 60 45.8764 59.9 45.3764 59.7L30.4764 51.5C30.1764 51.3 29.8764 51.4 29.5764 51.5L14.6764 59.7C13.6764 60.2 12.3764 60.1 11.4764 59.4C10.5764 58.7 10.1764 57.5 10.3764 56.4L13.1764 39.1C13.2764 38.7 13.0764 38.4 12.8764 38.1L0.876405 25.8C0.0764047 25 -0.223595 23.8 0.176405 22.7C0.476405 21.6 1.3764 20.8 2.5764 20.6L19.2764 18.1C19.5764 18 19.8764 17.8 19.9764 17.5L27.3764 1.7C27.8764 0.7 28.8764 0 30.0764 0C31.2764 0 32.2764 0.7 32.7764 1.7L40.1764 17.5C40.2764 17.8 40.5764 18 40.8764 18.1L57.4764 20.6C58.6764 20.8 59.5764 21.6 59.8764 22.7C60.1764 23.8 59.8764 25 59.1764 25.8L47.1764 38.1C46.9764 38.3 46.7764 38.7 46.8764 39.1L49.6764 56.5C49.8764 57.6 49.4764 58.7 48.5764 59.4C48.0764 59.8 47.3764 60 46.7764 60ZM30.0764 49.3C30.5764 49.3 31.0764 49.4 31.4764 49.7L46.3764 57.9C46.6764 58.1 47.0764 58 47.3764 57.8C47.6764 57.6 47.7764 57.2 47.7764 56.8L44.8764 39.4C44.6764 38.4 44.9764 37.4 45.6764 36.7L57.6764 24.4C57.9764 24.1 58.0764 23.7 57.9764 23.3C57.8764 22.9 57.5764 22.6 57.1764 22.6L40.5764 20.1C39.5764 19.9 38.7764 19.3 38.3764 18.4L30.9764 2.6C30.7764 2.2 30.4764 2 30.0764 2C29.6764 2 29.3764 2.2 29.2764 2.5L21.7764 18.3C21.3764 19.2 20.5764 19.8 19.5764 20L2.8764 22.6C2.4764 22.7 2.1764 23 2.0764 23.3C1.9764 23.7 2.0764 24.1 2.3764 24.4L14.3764 36.7C15.0764 37.4 15.3764 38.4 15.1764 39.4L12.3764 56.8C12.2764 57.2 12.4764 57.6 12.7764 57.8C13.0764 58 13.4764 58.1 13.7764 57.9L28.6764 49.7C29.0764 49.4 29.5764 49.3 30.0764 49.3Z" fill="#FFFFFF"/>
<path d="M44.0764 53.7C43.9764 53.7 43.8764 53.7 43.8764 53.6L32.6764 47.4C31.0764 46.5 29.0764 46.5 27.4764 47.4L16.2764 53.6C16.0764 53.7 15.8764 53.7 15.7764 53.6C15.5764 53.5 15.5764 53.3 15.5764 53.1L17.7764 39.8C18.0764 38 17.4764 36.2 16.2764 35L6.8764 25.4C6.7764 25.3 6.6764 25.1 6.7764 24.9C6.8764 24.7 6.9764 24.6 7.1764 24.6L20.0764 22.6C21.8764 22.3 23.3764 21.2 24.1764 19.5L29.7764 7.6C29.9764 7.2 30.4764 7.2 30.6764 7.6L36.0764 19.4C36.8764 21.1 38.3764 22.2 40.1764 22.5L53.0764 24.5C53.2764 24.5 53.3764 24.7 53.4764 24.8C53.5764 25 53.4764 25.2 53.3764 25.3L43.9764 35C42.7764 36.3 42.1764 38.1 42.4764 39.8L44.6764 53.1C44.6764 53.3 44.6764 53.5 44.4764 53.6C44.2764 53.7 44.1764 53.7 44.0764 53.7ZM30.0764 45.8C31.1764 45.8 32.1764 46.1 33.1764 46.6L43.4764 52.3L41.4764 40C41.1764 37.9 41.7764 35.8 43.2764 34.3L51.9764 25.4L40.0764 23.5C37.9764 23.2 36.0764 21.8 35.1764 19.8L30.0764 9L24.9764 19.9C24.0764 21.9 22.2764 23.2 20.0764 23.6L8.1764 25.3L16.8764 34.2C18.3764 35.7 18.9764 37.8 18.6764 39.9L16.6764 52.2L26.9764 46.5C27.9764 46.1 28.9764 45.8 30.0764 45.8Z" fill="#FFFFFF"/>
</svg>
