<svg width="60" height="49" viewBox="0 0 60 49" fill="none" xmlns="http://www.w3.org/2000/svg">
<path d="M30 49C27.1 49 24.1 48.4 21.5 47.1L14.6 43.9C14.2 43.7 14 43.4 14 43V21.4L7.3 32.9C6.6 33.9 5.2 34.3 4.2 33.8L1.2 32.1C0 31.4 -0.3 30 0.3 28.8L13.7 5.8C13.9 5.3 14.4 4.8 14.9 4.4L15 4.3C16.1 3.5 17.4 3 18.7 3H23C23.3 3 23.6 3.1 23.8 3.3L30 10.4L36.2 3.3C36.4 3.1 36.7 3 37 3H41.3C42.6 3 43.9 3.5 44.9 4.3C45.6 4.7 45.9 5.3 46.3 5.8L59.6 28.6C60 29.2 60.1 29.9 59.9 30.5C59.7 31.1 59.3 31.7 58.7 32L56 33.7C54.9 34.3 53.5 33.9 52.9 32.9L46 21.3V43C46 43.4 45.8 43.7 45.4 43.9L38.5 47.1C35.9 48.4 32.9 49 30 49ZM16 42.4L22.3 45.3C27.1 47.6 32.8 47.6 37.7 45.3L44 42.4V17.7C44 17.2 44.3 16.9 44.7 16.7C45.1 16.6 45.6 16.8 45.8 17.2L54.5 31.8C54.6 31.9 54.8 32 55 31.9L57.6 30.3C57.7 30.2 57.8 30.1 57.8 30C57.8 29.9 57.8 29.7 57.7 29.6L44.5 6.8C44.2 6.3 44 6.1 43.7 5.9C43.6 5.9 43.6 5.8 43.6 5.8C43 5.3 42.2 5 41.3 5H37.5L30.8 12.7C30.4 13.1 29.7 13.1 29.3 12.7L22.5 5H18.7C17.9 5 17 5.3 16.3 5.9C16 6.2 15.7 6.6 15.5 6.8L2.1 29.8C2 30 1.9 30.2 2.2 30.3L5.1 32C5.2 32 5.4 32 5.6 31.8L14.2 17.1C14.4 16.7 14.9 16.5 15.3 16.6C15.7 16.7 16 17.1 16 17.6V42.4Z" fill="#FFFFFF"/>
<path d="M36 14C35.7 14 35.4 13.9 35.2 13.6L32 9.4C31.7 9 31.7 8.5 32 8.1L36.2 3.3C36.4 3.1 36.7 3 37 3H41C41.4 3 41.7 3.2 41.9 3.5C42.1 3.8 42.1 4.2 41.9 4.5L36.9 13.5C36.7 13.8 36.4 14 36 14ZM34.1 8.8L35.9 11.1L39.3 5H37.5L34.1 8.8Z" fill="#FFFFFF"/>
<path d="M30 42C29.7 42 29.5 41.9 29.3 41.7L25.3 37.7C25.1 37.5 25 37.2 25 36.9L26.9 9.5C26.9 9.1 27.2 8.8 27.6 8.6C28 8.5 28.4 8.6 28.7 8.9L30 10.4L31.3 8.9C31.6 8.6 32 8.5 32.4 8.6C32.8 8.7 33.1 9.1 33.1 9.5L35 36.9C35 37.2 34.9 37.5 34.7 37.7L30.7 41.7C30.5 41.9 30.3 42 30 42ZM27 36.6L30 39.6L33 36.6L31.3 12.1L30.8 12.7C30.4 13.1 29.7 13.1 29.3 12.7L28.8 12.1L27 36.6Z" fill="#FFFFFF"/>
<path d="M30 13C29.7 13 29.4 12.9 29.2 12.7L22.2 4.7C22.1 4.5 22 4.2 22 4C22 1.4 26 0 30 0C34 0 38 1.4 38 4C38 4.2 37.9 4.5 37.8 4.7L30.8 12.7C30.6 12.9 30.3 13 30 13ZM24.1 3.7L30 10.5L35.9 3.7C35.5 3 33.5 2 30 2C26.5 2 24.5 3 24.1 3.7Z" fill="#FFFFFF"/>
<path d="M24 13H23.9C23.6 13 23.3 12.8 23.2 12.5L18.2 4.5C18 4.2 18 3.8 18.2 3.5C18.4 3.2 18.6 3 19 3H23C23.3 3 23.6 3.1 23.8 3.3L28 8.1C28.3 8.5 28.3 9.1 28 9.5L24.8 12.7C24.5 12.9 24.3 13 24 13ZM20.8 5L24.2 10.4L25.8 8.8L22.5 5H20.8Z" fill="#FFFFFF"/>
<path d="M54.9 33.9C54.1 33.9 53.3 33.5 52.9 32.8L51 29.8C50.9 29.6 50.8 29.3 50.9 29C51 28.7 51.1 28.5 51.3 28.4L56.4 25.2C56.6 25.1 56.9 25 57.2 25.1C57.5 25.2 57.7 25.3 57.8 25.6L59.6 28.6C60 29.2 60.1 29.9 59.9 30.5C59.7 31.1 59.3 31.7 58.7 32L56 33.7C55.7 33.8 55.3 33.9 54.9 33.9ZM54.5 31.8C54.6 32 54.9 32 55 32L57.6 30.4C57.7 30.3 57.8 30.2 57.8 30.1C57.8 30 57.8 29.8 57.7 29.7L56.4 27.6L53 29.7L54.5 31.8Z" fill="#FFFFFF"/>
<path d="M5.2 34C4.9 34 4.5 33.9 4.2 33.8L1.2 32.1C0 31.4 -0.3 30 0.3 28.8L2.1 25.7C2.4 25.2 3 25.1 3.4 25.3L8.8 28.1C9 28.2 9.2 28.5 9.3 28.7C9.4 29 9.3 29.3 9.2 29.5L7.2 32.8C6.8 33.6 6 34 5.2 34ZM3.4 27.5L2.1 29.8C2 29.9 2 30 2 30.1C2 30.2 2.1 30.3 2.2 30.3L5.1 32C5.2 32 5.4 32 5.5 31.8L7 29.4L3.4 27.5Z" fill="#FFFFFF"/>
</svg>
