<svg width="60" height="60" viewBox="0 0 60 60" fill="none" xmlns="http://www.w3.org/2000/svg">
<path d="M30 51C18.4 51 9 41.6 9 30C9 18.4 18.4 9 30 9C41.6 9 51 18.4 51 30C51 41.6 41.6 51 30 51ZM30 11C19.5 11 11 19.5 11 30C11 40.5 19.5 49 30 49C40.5 49 49 40.5 49 30C49 19.5 40.5 11 30 11Z" fill="#FFFFFF"/>
<path d="M30 46C21.2 46 14 38.8 14 30C14 21.2 21.2 14 30 14C38.8 14 46 21.2 46 30C46 38.8 38.8 46 30 46ZM30 16C22.3 16 16 22.3 16 30C16 37.7 22.3 44 30 44C37.7 44 44 37.7 44 30C44 22.3 37.7 16 30 16Z" fill="#FFFFFF"/>
<path d="M30 8C29.4 8 29 7.6 29 7V1C29 0.4 29.4 0 30 0C30.6 0 31 0.4 31 1V7C31 7.6 30.6 8 30 8Z" fill="#FFFFFF"/>
<path d="M30 60C29.4 60 29 59.6 29 59V53C29 52.4 29.4 52 30 52C30.6 52 31 52.4 31 53V59C31 59.6 30.6 60 30 60Z" fill="#FFFFFF"/>
<path d="M59 31H53C52.4 31 52 30.6 52 30C52 29.4 52.4 29 53 29H59C59.6 29 60 29.4 60 30C60 30.6 59.6 31 59 31Z" fill="#FFFFFF"/>
<path d="M7 31H1C0.4 31 0 30.6 0 30C0 29.4 0.4 29 1 29H7C7.6 29 8 29.4 8 30C8 30.6 7.6 31 7 31Z" fill="#FFFFFF"/>
<path d="M46.3 14.7C46 14.7 45.8 14.6 45.6 14.4C45.2 14 45.2 13.4 45.6 13L51.3 7.3C51.7 6.9 52.3 6.9 52.7 7.3C53.1 7.7 53.1 8.3 52.7 8.7L47 14.4C46.8 14.6 46.6 14.7 46.3 14.7Z" fill="#FFFFFF"/>
<path d="M8 53C7.7 53 7.5 52.9 7.3 52.7C6.9 52.3 6.9 51.7 7.3 51.3L13 45.6C13.4 45.2 14 45.2 14.4 45.6C14.8 46 14.8 46.6 14.4 47L8.7 52.7C8.5 52.9 8.3 53 8 53Z" fill="#FFFFFF"/>
<path d="M52 53C51.7 53 51.5 52.9 51.3 52.7L45.6 47C45.2 46.6 45.2 46 45.6 45.6C46 45.2 46.6 45.2 47 45.6L52.7 51.3C53.1 51.7 53.1 52.3 52.7 52.7C52.5 52.9 52.3 53 52 53Z" fill="#FFFFFF"/>
<path d="M13.7 14.7C13.4 14.7 13.2 14.6 13 14.4L7.3 8.7C6.9 8.3 6.9 7.7 7.3 7.3C7.7 6.9 8.3 6.9 8.7 7.3L14.4 13C14.8 13.4 14.8 14 14.4 14.4C14.2 14.6 14 14.7 13.7 14.7Z" fill="#FFFFFF"/>
<path d="M51.2 22C50.8 22 50.5 21.8 50.3 21.4C50.1 20.9 50.3 20.3 50.8 20.1L53.5 18.9C54 18.7 54.6 18.9 54.8 19.4C55 19.9 54.8 20.5 54.3 20.7L51.6 21.9C51.5 22 51.3 22 51.2 22Z" fill="#FFFFFF"/>
<path d="M6 41.2C5.6 41.2 5.2 41 5.1 40.6C4.9 40.1 5.1 39.5 5.6 39.3L8.4 38.1C8.9 37.9 9.5 38.1 9.7 38.6C9.9 39.1 9.7 39.7 9.2 39.9L6.4 41.1C6.3 41.2 6.1 41.2 6 41.2Z" fill="#FFFFFF"/>
<path d="M54.1 40.7C54 40.7 53.9 40.7 53.7 40.6L50.9 39.5C50.4 39.3 50.1 38.7 50.3 38.2C50.5 37.7 51.1 37.4 51.6 37.6L54.4 38.7C54.9 38.9 55.2 39.5 55 40C54.9 40.5 54.5 40.7 54.1 40.7Z" fill="#FFFFFF"/>
<path d="M8.7 22.4C8.6 22.4 8.5 22.4 8.3 22.3L5.5 21.2C5 21 4.8 20.4 5 19.9C5.2 19.4 5.8 19.1 6.3 19.3L9.1 20.4C9.6 20.6 9.9 21.2 9.7 21.7C9.5 22.2 9.1 22.4 8.7 22.4Z" fill="#FFFFFF"/>
<path d="M40.2 54.9C39.8 54.9 39.5 54.7 39.3 54.3L38.1 51.6C37.9 51.1 38.1 50.5 38.6 50.3C39.1 50.1 39.7 50.3 39.9 50.8L41.1 53.5C41.3 54 41.1 54.6 40.6 54.8C40.5 54.9 40.3 54.9 40.2 54.9Z" fill="#FFFFFF"/>
<path d="M21 9.8C20.6 9.8 20.2 9.6 20.1 9.2L18.9 6.4C18.7 5.9 18.9 5.3 19.4 5.1C19.9 4.9 20.5 5.1 20.7 5.6L21.9 8.4C22.1 8.9 21.9 9.5 21.4 9.7C21.3 9.8 21.1 9.8 21 9.8Z" fill="#FFFFFF"/>
<path d="M20.3 55.1C20.2 55.1 20.1 55.1 19.9 55C19.4 54.8 19.1 54.2 19.3 53.7L20.4 50.9C20.6 50.4 21.2 50.1 21.7 50.3C22.2 50.5 22.5 51.1 22.3 51.6L21.2 54.4C21.1 54.9 20.7 55.1 20.3 55.1Z" fill="#FFFFFF"/>
<path d="M38.6 9.7C38.5 9.7 38.4 9.7 38.2 9.6C37.7 9.4 37.4 8.8 37.6 8.3L38.7 5.5C39 5 39.6 4.8 40.1 5C40.6 5.2 40.9 5.8 40.7 6.3L39.6 9.1C39.4 9.5 39 9.7 38.6 9.7Z" fill="#FFFFFF"/>
</svg>
