<svg width="45" height="59" viewBox="0 0 45 59" fill="none" xmlns="http://www.w3.org/2000/svg">
<path d="M12.5 55.9553C12.3 55.9553 12.1 55.8553 11.9 55.7553C10.3 54.5553 9.8 52.6553 9 49.6553C8.9 49.1553 9.2 48.5553 9.7 48.4553C10.2 48.3553 10.8 48.6553 10.9 49.1553C11.6 51.9553 12 53.3553 13 54.0553C13.4 54.3553 13.5 55.0553 13.2 55.4553C13.1 55.8553 12.8 55.9553 12.5 55.9553Z" fill="#FFFFFF"/>
<path d="M13.4 28.6553C12.9 28.6553 12.4 28.2553 12.4 27.7553C12.3 25.9553 12.4 24.1553 12.6 23.0553C12.7 22.5553 13.2 22.1553 13.7 22.2553C14.2 22.3553 14.6 22.8553 14.5 23.3553C14.3 24.8553 14.2 26.3553 14.3 27.6553C14.4 28.1553 14 28.6553 13.4 28.6553Z" fill="#FFFFFF"/>
<path d="M34.3 58.4553H23.1C20.5 58.3553 18 57.8553 16.2 57.4553C14.2 56.9553 12.7 56.5553 11.9 55.8553C10.9 55.0553 10 54.6553 9.2 54.5553C3.9 53.9553 0 49.8553 0 44.8553V33.3553C0 27.1553 5 22.1553 11.2 22.1553H12.7C13.1 20.0553 13.7 18.3553 13.7 18.3553C15.2 13.0553 15.7 6.65529 15.9 3.55529C16 1.55529 16 1.45529 16.3 1.15529C16.6 0.755289 17.5 -0.244711 19.6 0.055289C20.2 0.155289 20.6 0.255289 21.2 0.555289C25.5 2.45529 28 8.05529 26.7 12.9553L25.9 16.6553L25.2 20.4553H36.7C38.6 20.4553 40.3 21.1553 41.4 22.3553C42.4 23.3553 43 24.6553 43 25.9553C43 27.6553 42.2 29.1553 41.1 30.1553C42.7 31.0553 43.9 32.6553 44 34.4553C44.1 35.9553 43.6 37.5553 42.5 38.6553C41.9 39.2553 41.2 39.7553 40.5 40.0553C40.6 40.1553 40.6 40.1553 40.7 40.2553C41.7 41.3553 42.2 42.8553 42 44.4553C41.7 46.6553 40.3 48.3553 38.4 49.0553C39.5 50.1553 40.1 51.5553 40 53.1553C39.9 56.0553 37.3 58.4553 34.3 58.4553ZM11.2 24.1553C6.1 24.1553 2 28.2553 2 33.3553V44.8553C2 48.8553 5.1 52.0553 9.3 52.5553C10.6 52.6553 11.8 53.2553 13.1 54.2553C13.7 54.7553 15.2 55.1553 16.6 55.4553C18.4 55.8553 20.7 56.3553 23.1 56.4553H34.3C36.2 56.4553 37.9 54.9553 38 53.1553C38.1 51.3553 36.8 49.8553 35.1 49.5553C34.6 49.4553 34.2 49.0553 34.2 48.5553C34.2 47.9553 34.6 47.4553 35.2 47.4553H36.3C38.2 47.4553 39.8 46.0553 40 44.2553C40.1 43.2553 39.8 42.3553 39.2 41.6553C38.5 40.9553 37.6 40.4553 36.5 40.4553C35.9 40.4553 35.5 40.0553 35.5 39.4553C35.5 38.8553 35.9 38.4553 36.5 38.4553H38.5C39.5 38.4553 40.4 38.0553 41.1 37.3553C41.8 36.6553 42.1 35.6553 42.1 34.6553C41.9 32.8553 40.3 31.4553 38.4 31.4553H37.6C37 31.4553 36.6 31.0553 36.6 30.4553C36.6 29.8553 37 29.4553 37.6 29.4553C39.6 29.4553 41.1 27.9553 41.1 25.9553C41.1 24.9553 40.6 24.2553 40.1 23.7553C39.3 22.9553 38.1 22.4553 36.8 22.4553H24C23.7 22.4553 23.4 22.3553 23.2 22.0553C23 21.8553 23 21.5553 23 21.2553L23.9 16.1553L24.7 12.4553C25.8 8.15529 23.3 3.65529 20.4 2.35529C20 2.15529 19.7 2.15529 19.2 2.05529C18.4 1.95529 18.1 2.15529 17.9 2.35529C17.9 2.65529 17.8 3.15529 17.8 3.75529C17.6 6.95529 17.1 13.4553 15.5 19.0553C15.5 19.1553 14.8 21.0553 14.4 23.4553C14.3 23.9553 13.9 24.2553 13.4 24.2553H11.2V24.1553Z" fill="#FFFFFF"/>
<path d="M38 31.4553H28C27.4 31.4553 27 31.0553 27 30.4553C27 29.8553 27.4 29.4553 28 29.4553H38C38.6 29.4553 39 29.8553 39 30.4553C39 31.0553 38.6 31.4553 38 31.4553Z" fill="#FFFFFF"/>
<path d="M38 40.4553H31C30.4 40.4553 30 40.0553 30 39.4553C30 38.8553 30.4 38.4553 31 38.4553H38C38.6 38.4553 39 38.8553 39 39.4553C39 40.0553 38.6 40.4553 38 40.4553Z" fill="#FFFFFF"/>
<path d="M36 49.4553H29C28.4 49.4553 28 49.0553 28 48.4553C28 47.8553 28.4 47.4553 29 47.4553H36C36.6 47.4553 37 47.8553 37 48.4553C37 49.0553 36.6 49.4553 36 49.4553Z" fill="#FFFFFF"/>
</svg>
