<svg width="60" height="60" viewBox="0 0 60 60" fill="none" xmlns="http://www.w3.org/2000/svg">
<path d="M24.0096 38C23.6096 38 23.3096 37.8 23.1096 37.5L22.0096 35.5C21.7096 35 21.9096 34.4 22.4096 34.1C22.9096 33.8 23.5096 34 23.8096 34.5L24.9096 36.5C25.2096 37 25.0096 37.6 24.5096 37.9C24.3096 38 24.2096 38 24.0096 38Z" fill="#FFFFFF"/>
<path d="M37.6096 18.5C37.5096 18.5 37.4096 18.5 37.3096 18.4C36.8096 18.2 36.5096 17.6 36.7096 17.1C37.2096 15.7 37.4096 14.3 37.4096 12.9C37.4096 6.8 32.5096 1.9 26.5096 1.9C20.5096 1.9 15.6096 6.9 15.6096 13C15.6096 14.1 15.6096 15.7 16.2096 17.1C16.4096 17.6 16.2096 18.2 15.7096 18.4C15.2096 18.6 14.6096 18.4 14.4096 17.9C13.6096 16.1 13.6096 14.2 13.6096 13C13.6096 5.8 19.4096 0 26.5096 0C33.6096 0 39.4096 5.8 39.4096 13C39.4096 14.6 39.1096 16.2 38.5096 17.8C38.4096 18.2 38.0096 18.5 37.6096 18.5Z" fill="#FFFFFF"/>
<path d="M33.9096 17C33.8096 17 33.6096 17 33.5096 16.9C33.0096 16.7 32.8096 16.1 33.0096 15.6C33.3096 14.9 33.4096 14.2 33.4096 13C33.4096 9.2 30.2096 6 26.5096 6C22.7096 6 19.6096 9.1 19.6096 13C19.6096 14.2 19.7096 14.9 20.0096 15.6C20.2096 16.1 20.0096 16.7 19.5096 16.9C19.0096 17.1 18.4096 16.9 18.2096 16.4C17.7096 15.2 17.6096 14 17.6096 13C17.6096 8 21.6096 4 26.5096 4C31.4096 4 35.4096 8 35.4096 13C35.4096 14 35.3096 15.2 34.8096 16.4C34.6096 16.8 34.3096 17 33.9096 17Z" fill="#FFFFFF"/>
<path d="M29.9096 36.7C29.3096 36.7 28.9096 36.3 28.9096 35.7V23C28.9096 22.4 29.3096 22 29.9096 22C30.5096 22 30.9096 22.4 30.9096 23V35.7C30.9096 36.3 30.5096 36.7 29.9096 36.7Z" fill="#FFFFFF"/>
<path d="M36.9096 35.7C36.3096 35.7 35.9096 35.3 35.9096 34.7V27C35.9096 26.4 36.3096 26 36.9096 26C37.5096 26 37.9096 26.4 37.9096 27V34.7C37.9096 35.3 37.5096 35.7 36.9096 35.7Z" fill="#FFFFFF"/>
<path d="M43.9096 36.5C43.3096 36.5 42.9096 36.1 42.9096 35.5V31C42.9096 30.4 43.3096 30 43.9096 30C44.5096 30 44.9096 30.4 44.9096 31V35.5C44.9096 36.1 44.5096 36.5 43.9096 36.5Z" fill="#FFFFFF"/>
<path d="M27.9096 53C27.7096 53 27.5096 52.9 27.3096 52.8C26.8096 52.4 26.2096 52 25.7096 51.7C24.9096 51.1 24.1096 50.6 23.2096 49.8C22.8096 49.4 22.8096 48.8 23.1096 48.4C23.5096 48 24.1096 48 24.5096 48.3C25.2096 49 26.0096 49.5 26.8096 50C27.3096 50.4 27.9096 50.8 28.5096 51.2C28.9096 51.5 29.0096 52.2 28.7096 52.6C28.5096 52.9 28.2096 53 27.9096 53Z" fill="#FFFFFF"/>
<path d="M45.9096 54C45.6096 54 45.3096 53.9 45.1096 53.6C44.8096 53.2 44.9096 52.5 45.3096 52.2C45.7096 51.9 46.2096 51.7 46.6096 51.5C47.5096 51 48.4096 50.6 49.0096 49.5C49.3096 49 49.9096 48.9 50.4096 49.1C50.9096 49.4 51.0096 50 50.8096 50.5C49.9096 52.1 48.6096 52.7 47.5096 53.2C47.1096 53.4 46.8096 53.6 46.5096 53.8C46.3096 53.9 46.1096 54 45.9096 54Z" fill="#FFFFFF"/>
<path d="M40.8096 60H31.9096C26.6096 60 22.9096 56.7 22.9096 52V49.4C20.3096 46.5 18.0096 42.8 17.9096 42.6C15.8096 38.6 12.4096 34.6 11.0096 32.9C10.1096 31.8 10.0096 31.7 10.0096 31.3C9.90961 30 10.6096 29.2 11.2096 28.8C11.5096 28.4 11.9096 28.2 12.4096 28C15.6096 26.8 19.8096 28.3 21.9096 31.4V12.8C21.9096 10.3 23.9096 8.2 26.4096 8.2C28.9096 8.2 30.9096 10.3 30.9096 12.8V19.8C31.6096 19.3 32.5096 19 33.4096 19C35.8096 19 37.9096 21.1 37.9096 23.5V23.8C38.6096 23.3 39.5096 23 40.4096 23C42.8096 23 44.9096 25.1 44.9096 27.5V27.8C45.6096 27.3 46.5096 27 47.4096 27C49.8096 27 51.9096 29.1 51.9096 31.5V44.8C51.9096 48.3 50.8096 50.8 49.9096 51.8C49.5096 52.2 49.2096 53.4 49.0096 54C48.2096 57.6 45.0096 60 40.8096 60ZM19.6096 41.6C19.6096 41.6 22.1096 45.5 24.6096 48.3C24.8096 48.5 24.9096 48.7 24.9096 49V52C24.9096 56.4 28.7096 58 31.9096 58H40.8096C43.4096 58 46.4096 56.8 47.1096 53.5C47.3096 52.6 47.7096 51.2 48.5096 50.4C49.0096 49.8 49.9096 47.7 49.9096 44.8V31.5C49.9096 30.1 48.8096 29 47.4096 29C46.0096 29 44.9096 30.1 44.9096 31.5C44.9096 32.1 44.5096 32.5 43.9096 32.5C43.3096 32.5 42.9096 32.1 42.9096 31.5V27.5C42.9096 26.1 41.8096 25 40.4096 25C39.0096 25 37.9096 26.1 37.9096 27.5C37.9096 28.1 37.5096 28.5 36.9096 28.5C36.3096 28.5 35.9096 28.1 35.9096 27.5V23.5C35.9096 22.1 34.8096 21 33.4096 21C32.0096 21 30.9096 22.1 30.9096 23.5C30.9096 24.1 30.5096 24.5 29.9096 24.5C29.3096 24.5 28.9096 24.1 28.9096 23.5V12.8C28.9096 11.4 27.8096 10.2 26.4096 10.2C25.0096 10.2 23.9096 11.4 23.9096 12.8V35C23.9096 35.4 23.6096 35.8 23.2096 36C22.8096 36.1 22.3096 35.9 22.1096 35.6L20.5096 33C18.9096 30.1 15.2096 29 13.0096 29.9H12.9096C12.7096 29.9 12.6096 30 12.4096 30.2C12.3096 30.3 12.3096 30.3 12.2096 30.4C12.0096 30.6 11.9096 30.8 11.9096 31C12.0096 31.2 12.2096 31.4 12.5096 31.7C13.9096 33.4 17.4096 37.5 19.6096 41.6ZM11.9096 31.2C11.9096 31.3 11.9096 31.3 11.9096 31.2V31.2Z" fill="#FFFFFF"/>
</svg>
