<svg width="32" height="55" viewBox="0 0 32 55" fill="none" xmlns="http://www.w3.org/2000/svg">
<path d="M26.1 44H5.9L8.1 20H23.9L26.1 44ZM8.1 42H23.9L22.1 22H9.9L8.1 42Z" fill="#FFFFFF"/>
<path d="M26 22H6C4 22 2.5 20.5 2.5 18.5C2.5 16.5 4 15 6 15H26C28 15 29.5 16.5 29.5 18.5C29.5 20.5 28 22 26 22ZM6 17C5.2 17 4.5 17.7 4.5 18.5C4.5 19.3 5.2 20 6 20H26C26.8 20 27.5 19.3 27.5 18.5C27.5 17.7 26.8 17 26 17H6Z" fill="#FFFFFF"/>
<path d="M32 55H0V48H32V55ZM2 53H30V50H2V53Z" fill="#FFFFFF"/>
<path d="M30.1 50H2V46.2C2 43.8 3.8 42 6.2 42H25.9C28.2 42 30.1 43.9 30.1 46.2V50ZM4 48H28.1V46.2C28.1 45 27.1 44 25.9 44H6.2C4.9 44 4 44.9 4 46.2V48Z" fill="#FFFFFF"/>
<path d="M26.8 17H5.2L1.8 0H7.7L9.7 5H12V0H20V5H23.2L24.2 0H30.2L26.8 17ZM6.8 15H25.2L27.8 2H25.8L24.8 7H18V2H14V7H8.3L6.3 2H4.2L6.8 15Z" fill="#FFFFFF"/>
<path d="M27 10H5V12H27V10Z" fill="#FFFFFF"/>
<path d="M25.6 39H6.4L7 32H25L25.6 39ZM8.6 37H23.4L23.2 34H8.8L8.6 37Z" fill="#FFFFFF"/>
</svg>
