<svg width="60" height="61" viewBox="0 0 60 61" fill="none" xmlns="http://www.w3.org/2000/svg">
<path d="M57.1811 25C54.3811 25 49.1811 21.6 44.1811 16.5C38.9811 11.2 33.8811 4.2 36.3811 1.7C36.6811 1.4 37.2811 1 38.1811 1C40.9811 1 46.1811 4.4 51.1811 9.5C55.0811 13.4 61.6811 21.6 58.9811 24.3C58.6811 24.6 58.0811 25 57.1811 25ZM38.1811 3C37.9811 3 37.7811 3 37.7811 3.1C37.1811 3.7 38.6811 8.1 45.5811 15.1C50.6811 20.3 55.2811 23 57.1811 23C57.3811 23 57.5811 23 57.5811 22.9C58.1811 22.3 56.1811 17.4 49.7811 10.9C44.6811 5.7 40.0811 3 38.1811 3Z" fill="#FFFFFF"/>
<path d="M0.981139 60.7C0.681139 60.7 0.481139 60.6 0.281139 60.4C-0.0188611 60.1 -0.118861 59.5 0.181139 59.1L12.8811 40.7C13.0811 40.5 13.2811 40.3 13.5811 40.3C13.8811 40.3 14.1811 40.4 14.3811 40.6L20.0811 46.3C20.2811 46.5 20.3811 46.8 20.3811 47.1C20.3811 47.4 20.1811 47.7 19.9811 47.8L1.58114 60.5C1.38114 60.6 1.18114 60.7 0.981139 60.7ZM13.7811 42.9L4.88114 55.8L17.7811 46.9L13.7811 42.9Z" fill="#FFFFFF"/>
<path d="M49.6811 28.5C45.4811 28.5 41.2811 26.5 37.7811 22.9C31.1811 16.2 30.5811 7.5 36.3811 1.7C36.7811 1.3 37.3811 1.3 37.7811 1.7C38.1811 2.1 38.1811 2.7 37.7811 3.1C37.0811 3.8 39.1811 8.7 45.4811 15.2C51.3811 20.9 56.1811 23.4 57.4811 23C57.8811 22.9 58.2811 23 58.4811 23.2L58.5811 23.3C58.7811 23.5 58.8811 23.7 58.8811 24C58.8811 24.3 58.7811 24.5 58.5811 24.7C56.0811 27.2 53.0811 28.5 49.6811 28.5ZM35.9811 5.3C33.0811 10.1 34.1811 16.4 39.1811 21.5C42.3811 24.7 46.0811 26.5 49.6811 26.5C51.7811 26.5 53.7811 25.9 55.4811 24.7C52.2811 23.7 47.7811 20.3 44.0811 16.6C41.1811 13.6 37.1811 8.9 35.9811 5.3Z" fill="#FFFFFF"/>
<path d="M34.1811 40.1C34.0811 40.1 33.9811 40.1 33.9811 40.1C31.1811 39.4 28.4811 37.7 25.6811 34.9C23.6811 32.8 21.3811 30 20.4811 26.6C20.3811 26.3 20.4811 25.9 20.7811 25.7L26.2811 20.2L33.0811 13.6C33.3811 13.4 33.6811 13.3 34.0811 13.4C34.3811 13.5 34.6811 13.8 34.7811 14.1C35.4811 16.8 36.9811 19.4 39.1811 21.6C41.3811 23.8 43.9811 25.4 46.6811 26.1C46.9811 26.2 47.2811 26.5 47.3811 26.8C47.4811 27.1 47.3811 27.5 47.0811 27.8L40.4811 34.4L34.8811 39.8C34.6811 40 34.4811 40.1 34.1811 40.1ZM22.5811 26.7C23.3811 29.4 25.3811 31.8 27.0811 33.5C29.3811 35.8 31.6811 37.3 33.8811 38L39.0811 33L44.5811 27.5C42.1811 26.5 39.8811 25 37.7811 23C35.7811 21 34.1811 18.6 33.2811 16.1L27.6811 21.6L22.5811 26.7Z" fill="#FFFFFF"/>
<path d="M34.1811 40.1C34.0811 40.1 33.9811 40.1 33.9811 40.1C31.1811 39.4 28.4811 37.7 25.6811 34.9C23.6811 32.8 21.3811 30 20.4811 26.6C20.3811 26.3 20.4811 25.9 20.7811 25.7L26.2811 20.2L33.0811 13.6C33.3811 13.4 33.6811 13.3 34.0811 13.4C34.3811 13.5 34.6811 13.8 34.7811 14.1C35.4811 16.8 36.9811 19.4 39.1811 21.6C41.3811 23.8 43.9811 25.4 46.6811 26.1C46.9811 26.2 47.2811 26.5 47.3811 26.8C47.4811 27.1 47.3811 27.5 47.0811 27.8L40.4811 34.4L34.8811 39.8C34.6811 40 34.4811 40.1 34.1811 40.1ZM22.5811 26.7C23.3811 29.4 25.3811 31.8 27.0811 33.5C29.3811 35.8 31.6811 37.3 33.8811 38L39.0811 33L44.5811 27.5C42.1811 26.5 39.8811 25 37.7811 23C35.7811 21 34.1811 18.6 33.2811 16.1L27.6811 21.6L22.5811 26.7Z" fill="#FFFFFF"/>
<path d="M29.6811 53.2C28.5811 53.2 27.4811 53 26.4811 52.5C23.0811 51 19.2811 48.3 15.7811 44.8C12.2811 41.3 9.58114 37.5 8.08114 34.1C7.08114 31.9 7.28114 29.4 8.48114 27.3C9.68114 25.1 11.8811 23.7 14.3811 23.3C17.1811 23.1 19.9811 23.6 22.6811 24.8C22.9811 24.9 23.1811 25.2 23.2811 25.5C23.3811 25.8 23.2811 26.2 22.9811 26.4L22.6811 26.7C23.2811 28.8 24.6811 31 27.1811 33.5C29.4811 35.8 31.7811 37.3 33.9811 38.1L34.2811 37.8C34.4811 37.6 34.8811 37.5 35.1811 37.5C35.4811 37.6 35.7811 37.8 35.8811 38.1C37.0811 41.1 37.5811 43.8 37.2811 46.3C36.9811 48.8 35.5811 51 33.4811 52.2C32.2811 52.9 30.9811 53.2 29.6811 53.2ZM15.6811 25.3C15.2811 25.3 14.8811 25.3 14.5811 25.3C12.6811 25.5 11.0811 26.6 10.1811 28.3C9.28114 29.9 9.18114 31.7 9.88114 33.3C11.2811 36.5 13.8811 40.1 17.1811 43.4C20.4811 46.7 24.0811 49.3 27.2811 50.7C28.9811 51.5 30.8811 51.4 32.4811 50.5C34.0811 49.6 35.0811 48 35.2811 46.1C35.4811 44.3 35.2811 42.3 34.4811 40.2C34.2811 40.2 34.0811 40.2 33.9811 40.2C31.1811 39.4 28.4811 37.6 25.7811 34.9C22.7811 31.9 21.1811 29.3 20.5811 26.6C20.5811 26.4 20.5811 26.3 20.5811 26.1C18.9811 25.5 17.3811 25.3 15.6811 25.3Z" fill="#FFFFFF"/>
</svg>
