<svg width="60" height="61" viewBox="0 0 60 61" fill="none" xmlns="http://www.w3.org/2000/svg">
<path d="M56 60.0138H4C1.8 60.0138 0 58.2138 0 56.0138V21.0138C0 18.8138 1.8 17.0138 4 17.0138H56C58.2 17.0138 60 18.8138 60 21.0138V56.0138C60 58.2138 58.2 60.0138 56 60.0138ZM4 19.0138C2.9 19.0138 2 19.9138 2 21.0138V56.0138C2 57.1138 2.9 58.0138 4 58.0138H56C57 58.0138 58 57.0138 58 56.0138V21.0138C58 19.9138 57.1 19.0138 56 19.0138H4Z" fill="#FFFFFF"/>
<path d="M41 55.0138H6C5.4 55.0138 5 54.6138 5 54.0138V23.0138C5 22.4138 5.4 22.0138 6 22.0138H41C41.6 22.0138 42 22.4138 42 23.0138V54.0138C42 54.6138 41.6 55.0138 41 55.0138ZM7 53.0138H40V24.0138H7V53.0138Z" fill="#FFFFFF"/>
<path d="M43 19.0138H17C16.6 19.0138 16.3 18.8138 16.1 18.5138C15.9 18.2138 15.9 17.8138 16.1 17.5138L20.1 11.5138C20.3 11.2138 20.6 11.1138 20.9 11.1138H38.9C39.2 11.1138 39.5 11.3138 39.7 11.5138L43.7 17.5138C43.9 17.8138 43.9 18.2138 43.7 18.5138C43.5 18.8138 43.4 19.0138 43 19.0138ZM18.9 17.0138H41.2L38.5 13.0138H21.5L18.9 17.0138Z" fill="#FFFFFF"/>
<path d="M30 13.0138C29.7 13.0138 29.4 12.9138 29.2 12.6138L20.2 1.61384C19.9 1.21384 19.9 0.513844 20.3 0.213844C20.7 -0.0861561 21.4 -0.0861561 21.7 0.313844L30.7 11.3138C31.1 11.7138 31 12.4138 30.6 12.7138C30.4 12.9138 30.2 13.0138 30 13.0138Z" fill="#FFFFFF"/>
<path d="M30 13.0138C29.8 13.0138 29.6 12.9138 29.4 12.8138C29 12.5138 28.9 11.8138 29.3 11.4138L38.3 0.413844C38.6 0.0138439 39.3 -0.0861561 39.7 0.313844C40.1 0.713844 40.2 1.31384 39.8 1.71384L30.8 12.7138C30.6 12.9138 30.3 13.0138 30 13.0138Z" fill="#FFFFFF"/>
<path d="M50 32.0138C47.2 32.0138 45 29.8138 45 27.0138C45 24.2138 47.2 22.0138 50 22.0138C52.8 22.0138 55 24.2138 55 27.0138C55 29.8138 52.8 32.0138 50 32.0138ZM50 24.0138C48.3 24.0138 47 25.3138 47 27.0138C47 28.7138 48.3 30.0138 50 30.0138C51.7 30.0138 53 28.7138 53 27.0138C53 25.3138 51.7 24.0138 50 24.0138Z" fill="#FFFFFF"/>
<path d="M50 28.0138C49.7 28.0138 49.5 27.9138 49.3 27.7138C48.9 27.3138 48.9 26.7138 49.3 26.3138L52.1 23.5138C52.5 23.1138 53.1 23.1138 53.5 23.5138C53.9 23.9138 53.9 24.5138 53.5 24.9138L50.7 27.7138C50.5 27.9138 50.3 28.0138 50 28.0138Z" fill="#FFFFFF"/>
<path d="M50 45.0138C47.2 45.0138 45 42.8138 45 40.0138C45 37.2138 47.2 35.0138 50 35.0138C52.8 35.0138 55 37.2138 55 40.0138C55 42.8138 52.8 45.0138 50 45.0138ZM50 37.0138C48.3 37.0138 47 38.3138 47 40.0138C47 41.7138 48.3 43.0138 50 43.0138C51.7 43.0138 53 41.7138 53 40.0138C53 38.3138 51.7 37.0138 50 37.0138Z" fill="#FFFFFF"/>
<path d="M50 45.0138C49.4 45.0138 49 44.6138 49 44.0138V40.0138C49 39.4138 49.4 39.0138 50 39.0138C50.6 39.0138 51 39.4138 51 40.0138V44.0138C51 44.6138 50.6 45.0138 50 45.0138Z" fill="#FFFFFF"/>
<path d="M53.4 55.0138H46.7C45.8 55.0138 45.1 54.3138 45.1 53.4138V49.7138C45.1 48.8138 45.8 48.1138 46.7 48.1138H53.4C54.3 48.1138 55 48.8138 55 49.7138V53.4138C55 54.3138 54.3 55.0138 53.4 55.0138ZM47.1 53.0138H53V50.1138H47.1V53.0138Z" fill="#FFFFFF"/>
<path d="M10 32.0138C9.7 32.0138 9.5 31.9138 9.3 31.7138C8.9 31.3138 8.9 30.7138 9.3 30.3138L13.3 26.3138C13.7 25.9138 14.3 25.9138 14.7 26.3138C15.1 26.7138 15.1 27.3138 14.7 27.7138L10.7 31.7138C10.5 31.9138 10.3 32.0138 10 32.0138Z" fill="#FFFFFF"/>
<path d="M10 37.0138C9.7 37.0138 9.5 36.9138 9.3 36.7138C8.9 36.3138 8.9 35.7138 9.3 35.3138L11.3 33.3138C11.7 32.9138 12.3 32.9138 12.7 33.3138C13.1 33.7138 13.1 34.3138 12.7 34.7138L10.7 36.7138C10.5 36.9138 10.3 37.0138 10 37.0138Z" fill="#FFFFFF"/>
<path d="M16 31.0138C15.7 31.0138 15.5 30.9138 15.3 30.7138C14.9 30.3138 14.9 29.7138 15.3 29.3138L18.3 26.3138C18.7 25.9138 19.3 25.9138 19.7 26.3138C20.1 26.7138 20.1 27.3138 19.7 27.7138L16.7 30.7138C16.5 30.9138 16.3 31.0138 16 31.0138Z" fill="#FFFFFF"/>
<path d="M10 42.0138C9.7 42.0138 9.5 41.9138 9.3 41.7138C8.9 41.3138 8.9 40.7138 9.3 40.3138L18.3 31.3138C18.7 30.9138 19.3 30.9138 19.7 31.3138C20.1 31.7138 20.1 32.3138 19.7 32.7138L10.7 41.7138C10.5 41.9138 10.3 42.0138 10 42.0138Z" fill="#FFFFFF"/>
<path d="M23 29.0138C22.7 29.0138 22.5 28.9138 22.3 28.7138C21.9 28.3138 21.9 27.7138 22.3 27.3138L23.3 26.3138C23.7 25.9138 24.3 25.9138 24.7 26.3138C25.1 26.7138 25.1 27.3138 24.7 27.7138L23.7 28.7138C23.5 28.9138 23.3 29.0138 23 29.0138Z" fill="#FFFFFF"/>
<path d="M22 30.0138C22 30.6138 21.6 31.0138 21 31.0138C20.4 31.0138 20 30.6138 20 30.0138C20 29.4138 20.4 29.0138 21 29.0138C21.6 29.0138 22 29.4138 22 30.0138Z" fill="#FFFFFF"/>
<path d="M15 32.0138C15 32.6138 14.6 33.0138 14 33.0138C13.4 33.0138 13 32.6138 13 32.0138C13 31.4138 13.4 31.0138 14 31.0138C14.6 31.0138 15 31.4138 15 32.0138Z" fill="#FFFFFF"/>
</svg>
