<svg width="60" height="61" viewBox="0 0 60 61" fill="none" xmlns="http://www.w3.org/2000/svg">
<path fill-rule="evenodd" clip-rule="evenodd" d="M24.5188 13.8233C24.8387 13.6477 25.229 13.6603 25.5369 13.8563L36.5369 20.8563C36.8253 21.0398 37 21.3581 37 21.7C37 22.0419 36.8253 22.3601 36.5369 22.5436L25.5369 29.5436C25.229 29.7396 24.8387 29.7522 24.5188 29.5766C24.1988 29.4009 24 29.0649 24 28.7V14.7C24 14.335 24.1988 13.999 24.5188 13.8233ZM26 16.5216V26.8783L34.1374 21.7L26 16.5216Z" fill="#FFFFFF"/>
<path fill-rule="evenodd" clip-rule="evenodd" d="M3 3.69995H57V58.7H3V3.69995ZM5 5.69995V56.7H55V5.69995H5Z" fill="#FFFFFF"/>
<path fill-rule="evenodd" clip-rule="evenodd" d="M56 40.7H4V38.7H56V40.7Z" fill="#FFFFFF"/>
<path fill-rule="evenodd" clip-rule="evenodd" d="M10 44.7C10.5523 44.7 11 45.1477 11 45.7V51.7C11 52.2522 10.5523 52.7 10 52.7C9.44772 52.7 9 52.2522 9 51.7V45.7C9 45.1477 9.44772 44.7 10 44.7ZM14 44.7C14.5523 44.7 15 45.1477 15 45.7V51.7C15 52.2522 14.5523 52.7 14 52.7C13.4477 52.7 13 52.2522 13 51.7V45.7C13 45.1477 13.4477 44.7 14 44.7ZM25 44.7C25.5523 44.7 26 45.1477 26 45.7V47.7H50C50.5523 47.7 51 48.1477 51 48.7C51 49.2522 50.5523 49.7 50 49.7H26V51.7C26 52.2522 25.5523 52.7 25 52.7C24.4477 52.7 24 52.2522 24 51.7V49.7H20C19.4477 49.7 19 49.2522 19 48.7C19 48.1477 19.4477 47.7 20 47.7H24V45.7C24 45.1477 24.4477 44.7 25 44.7Z" fill="#FFFFFF"/>
</svg>
