<svg width="60" height="60" viewBox="0 0 60 60" fill="none" xmlns="http://www.w3.org/2000/svg">
<path d="M46 36.975C44.9 36.975 44 37.875 44 38.975C44 40.075 44.9 40.975 46 40.975C47.1 40.975 48 40.075 48 38.975C48 37.875 47.1 36.975 46 36.975ZM46 42.975C43.8 42.975 42 41.175 42 38.975C42 36.775 43.8 34.975 46 34.975C48.2 34.975 50 36.775 50 38.975C50 41.175 48.2 42.975 46 42.975Z" fill="#FFFFFF"/>
<path d="M46 32.975C42.7 32.975 40 35.675 40 38.975C40 42.275 42.7 44.975 46 44.975H58V32.975H46ZM60 46.975H46C41.6 46.975 38 43.375 38 38.975C38 34.575 41.6 30.975 46 30.975H60V46.975Z" fill="#FFFFFF"/>
<path d="M56.9 59.975H52C51.4 59.975 51 59.575 51 58.975C51 58.375 51.4 57.975 52 57.975H56.9C57.5 57.975 58 57.475 58 56.775V45.975C58 45.375 58.4 44.975 59 44.975C59.6 44.975 60 45.375 60 45.975V56.775C60 58.575 58.6 59.975 56.9 59.975Z" fill="#FFFFFF"/>
<path d="M51.9 59.975H3.1C1.4 59.975 0 58.575 0 56.775V21.175C0 19.375 1.4 17.975 3.1 17.975H51.8C53.5 17.975 54.9 19.375 54.9 21.175V31.975C54.9 32.575 54.5 32.975 53.9 32.975C53.3 32.975 52.9 32.575 52.9 31.975V21.175C52.9 20.575 52.4 19.975 51.8 19.975H3.1C2.5 19.975 2 20.475 2 21.175V56.875C2 57.475 2.5 57.975 3.1 57.975H51.8C52.4 57.975 52.9 57.475 52.9 56.775V45.975C52.9 45.375 53.3 44.975 53.9 44.975C54.5 44.975 54.9 45.375 54.9 45.975V56.875C55 58.575 53.6 59.975 51.9 59.975Z" fill="#FFFFFF"/>
<path d="M49 54.975H46C45.4 54.975 45 54.575 45 53.975C45 53.375 45.4 52.975 46 52.975H49C49.6 52.975 50 53.375 50 53.975C50 54.575 49.6 54.975 49 54.975Z" fill="#FFFFFF"/>
<path d="M42 54.975H38C37.4 54.975 37 54.575 37 53.975C37 53.375 37.4 52.975 38 52.975H42C42.6 52.975 43 53.375 43 53.975C43 54.575 42.6 54.975 42 54.975Z" fill="#FFFFFF"/>
<path d="M34 54.975H30C29.4 54.975 29 54.575 29 53.975C29 53.375 29.4 52.975 30 52.975H34C34.6 52.975 35 53.375 35 53.975C35 54.575 34.6 54.975 34 54.975Z" fill="#FFFFFF"/>
<path d="M26 54.975H22C21.4 54.975 21 54.575 21 53.975C21 53.375 21.4 52.975 22 52.975H26C26.6 52.975 27 53.375 27 53.975C27 54.575 26.6 54.975 26 54.975Z" fill="#FFFFFF"/>
<path d="M18 54.975H14C13.4 54.975 13 54.575 13 53.975C13 53.375 13.4 52.975 14 52.975H18C18.6 52.975 19 53.375 19 53.975C19 54.575 18.6 54.975 18 54.975Z" fill="#FFFFFF"/>
<path d="M10 54.975H6C5.4 54.975 5 54.575 5 53.975C5 53.375 5.4 52.975 6 52.975H10C10.6 52.975 11 53.375 11 53.975C11 54.575 10.6 54.975 10 54.975Z" fill="#FFFFFF"/>
<path d="M49 24.975H46C45.4 24.975 45 24.575 45 23.975C45 23.375 45.4 22.975 46 22.975H49C49.6 22.975 50 23.375 50 23.975C50 24.575 49.6 24.975 49 24.975Z" fill="#FFFFFF"/>
<path d="M42 24.975H38C37.4 24.975 37 24.575 37 23.975C37 23.375 37.4 22.975 38 22.975H42C42.6 22.975 43 23.375 43 23.975C43 24.575 42.6 24.975 42 24.975Z" fill="#FFFFFF"/>
<path d="M34 24.975H30C29.4 24.975 29 24.575 29 23.975C29 23.375 29.4 22.975 30 22.975H34C34.6 22.975 35 23.375 35 23.975C35 24.575 34.6 24.975 34 24.975Z" fill="#FFFFFF"/>
<path d="M26 24.975H22C21.4 24.975 21 24.575 21 23.975C21 23.375 21.4 22.975 22 22.975H26C26.6 22.975 27 23.375 27 23.975C27 24.575 26.6 24.975 26 24.975Z" fill="#FFFFFF"/>
<path d="M18 24.975H14C13.4 24.975 13 24.575 13 23.975C13 23.375 13.4 22.975 14 22.975H18C18.6 22.975 19 23.375 19 23.975C19 24.575 18.6 24.975 18 24.975Z" fill="#FFFFFF"/>
<path d="M10 24.975H6C5.4 24.975 5 24.575 5 23.975C5 23.375 5.4 22.975 6 22.975H10C10.6 22.975 11 23.375 11 23.975C11 24.575 10.6 24.975 10 24.975Z" fill="#FFFFFF"/>
<path d="M42.7 19.975C42.4 19.975 42 19.775 41.8 19.475C39.1 14.775 33.5 12.775 28.5 14.675C26.1 15.575 24.2 17.275 22.9 19.475C22.6 19.975 22 20.075 21.5 19.875C21 19.575 20.9 18.975 21.1 18.475C22.6 15.875 25 13.875 27.8 12.775C33.7 10.575 40.3 12.975 43.5 18.475C43.8 18.975 43.6 19.575 43.1 19.875C43.1 19.975 42.9 19.975 42.7 19.975Z" fill="#FFFFFF"/>
<path d="M51.5 19.975C51.1 19.975 50.7 19.775 50.6 19.275L49.3 15.575C46.2 16.475 42.9 14.875 41.6 11.975L35.3 13.975C34.8 14.175 34.2 13.875 34.1 13.275C33.9 12.775 34.2 12.175 34.8 12.075L41.9 9.975C42.2 9.875 42.4 9.975 42.7 10.075C42.9 10.175 43.1 10.475 43.2 10.675C43.2 10.775 43.3 10.975 43.3 11.075C44.2 13.375 46.8 14.575 49.1 13.775L49.3 13.675C49.4 13.675 49.4 13.675 49.5 13.575C49.8 13.475 50 13.475 50.3 13.575C50.6 13.675 50.8 13.875 50.9 14.175L52.6 18.775C52.8 19.275 52.5 19.875 52 20.075C51.7 19.975 51.6 19.975 51.5 19.975Z" fill="#FFFFFF"/>
<path d="M59 32.975C58.4 32.975 58 32.575 58 31.975V21.175C58 20.575 57.5 19.975 56.9 19.975H52C51.4 19.975 51 19.575 51 18.975C51 18.375 51.4 17.975 52 17.975H56.9C58.6 17.975 60 19.375 60 21.175V31.975C60 32.575 59.6 32.975 59 32.975Z" fill="#FFFFFF"/>
<path d="M2.6 20.075C2.2 20.075 1.8 19.875 1.7 19.375C1.5 18.875 1.8 18.275 2.3 18.075L51 0.075C51.3 -0.025 51.5 -0.025 51.8 0.075C52 0.175 52.2 0.375 52.3 0.675L58 18.675C58.1 18.975 58.1 19.275 57.9 19.475C57.7 19.675 57.5 19.875 57.2 19.975C56.7 20.075 56.1 19.675 56 19.175C56 19.175 56 19.175 56 19.075L50.6 2.375L2.9 19.975C2.8 20.075 2.7 20.075 2.6 20.075Z" fill="#FFFFFF"/>
</svg>
