<svg width="60" height="60" viewBox="0 0 60 60" fill="none" xmlns="http://www.w3.org/2000/svg">
<path d="M30 46C21.2 46 14 38.8 14 30C14 21.2 21.2 14 30 14C38.8 14 46 21.2 46 30C46 38.8 38.8 46 30 46ZM30 16C22.3 16 16 22.3 16 30C16 37.7 22.3 44 30 44C37.7 44 44 37.7 44 30C44 22.3 37.7 16 30 16Z" fill="#FFFFFF"/>
<path d="M29.8 46C26.7 46 23.6 45.1 20.7 43.4C20.5 43.3 20.3 43 20.2 42.7C20.1 42.4 20.2 42.1 20.4 41.9L20.5 41.7C20.8 41.3 21 41 21.4 40.8L25.4 38.8C25.7 38.6 25.8 38.5 25.8 38.3V37C25.4 36.5 24.7 35.4 24.2 33.9C23.8 33.5 23.5 32.9 23.5 32.2V30.4C23.5 29.9 23.7 29.4 24 29V27C24 26.6 23.9 25.1 25.1 23.8C26.1 22.6 27.8 22 30 22C32.2 22 33.9 22.6 34.9 23.8C36 25.1 36 26.6 36 27V29.1C36.3 29.4 36.5 29.9 36.5 30.5V32.3C36.5 33.1 36 33.8 35.3 34.3C34.9 35.1 34.5 35.9 34 36.7C33.9 36.8 33.8 36.9 33.8 37.1V38.3C33.8 38.5 33.8 38.7 34.1 38.8L38.5 40.9C38.6 40.9 38.7 41 38.8 41.1C39 41.2 39.2 41.4 39.4 41.6C39.6 41.8 39.7 42.1 39.7 42.4C39.7 42.7 39.5 43 39.3 43.1C36.5 45 33.2 46 29.8 46ZM23 42.3C25.2 43.4 27.5 44 29.8 44C32.3 44 34.7 43.4 36.7 42.2L33.1 40.5C32.2 40 31.6 39.2 31.6 38.2V36.6C31.6 36.3 31.7 36.1 31.9 35.9C32 35.8 32.1 35.7 32.1 35.7C32.1 35.7 32.2 35.6 32.2 35.5C32.7 34.8 33.1 34 33.5 33.1C33.6 32.8 33.8 32.6 34.1 32.6C34.3 32.5 34.4 32.4 34.4 32.3V30.5C34.4 30.5 34.4 30.4 34.2 30.2C34.1 30 34 29.8 34 29.5V26.9C34 26.9 34.1 26 33.4 25.2C32.8 24.5 31.6 24.1 30 24.1C28.4 24.1 27.2 24.5 26.6 25.2C25.9 25.9 26 26.9 26 26.9V29.5C26 29.8 25.8 30.1 25.6 30.3C25.6 30.3 25.5 30.4 25.5 30.5V32.3C25.5 32.4 25.6 32.5 25.7 32.6C25.9 32.7 26.1 32.9 26.1 33.2C26.5 34.8 27.6 36.1 27.6 36.1C27.8 36.3 27.8 36.5 27.8 36.7V38.3C27.8 39.3 27.3 40.1 26.3 40.6L23 42.3Z" fill="#FFFFFF"/>
<path d="M30 10C27.2 10 25 7.8 25 5C25 2.2 27.2 0 30 0C32.8 0 35 2.2 35 5C35 7.8 32.8 10 30 10ZM30 2C28.3 2 27 3.3 27 5C27 6.7 28.3 8 30 8C31.7 8 33 6.7 33 5C33 3.3 31.7 2 30 2Z" fill="#FFFFFF"/>
<path d="M30 60C27.2 60 25 57.8 25 55C25 52.2 27.2 50 30 50C32.8 50 35 52.2 35 55C35 57.8 32.8 60 30 60ZM30 52C28.3 52 27 53.3 27 55C27 56.7 28.3 58 30 58C31.7 58 33 56.7 33 55C33 53.3 31.7 52 30 52Z" fill="#FFFFFF"/>
<path d="M55 35C52.2 35 50 32.8 50 30C50 27.2 52.2 25 55 25C57.8 25 60 27.2 60 30C60 32.8 57.8 35 55 35ZM55 27C53.3 27 52 28.3 52 30C52 31.7 53.3 33 55 33C56.7 33 58 31.7 58 30C58 28.3 56.7 27 55 27Z" fill="#FFFFFF"/>
<path d="M5 35C2.2 35 0 32.8 0 30C0 27.2 2.2 25 5 25C7.8 25 10 27.2 10 30C10 32.8 7.8 35 5 35ZM5 27C3.3 27 2 28.3 2 30C2 31.7 3.3 33 5 33C6.7 33 8 31.7 8 30C8 28.3 6.7 27 5 27Z" fill="#FFFFFF"/>
<path d="M30 16C29.4 16 29 15.6 29 15V9C29 8.4 29.4 8 30 8C30.6 8 31 8.4 31 9V15C31 15.6 30.6 16 30 16Z" fill="#FFFFFF"/>
<path d="M30 52C29.4 52 29 51.6 29 51V45C29 44.4 29.4 44 30 44C30.6 44 31 44.4 31 45V51C31 51.6 30.6 52 30 52Z" fill="#FFFFFF"/>
<path d="M51 31H45C44.4 31 44 30.6 44 30C44 29.4 44.4 29 45 29H51C51.6 29 52 29.4 52 30C52 30.6 51.6 31 51 31Z" fill="#FFFFFF"/>
<path d="M15 31H9C8.4 31 8 30.6 8 30C8 29.4 8.4 29 9 29H15C15.6 29 16 29.4 16 30C16 30.6 15.6 31 15 31Z" fill="#FFFFFF"/>
<path d="M12.4 17.4C11.1 17.4 9.8 16.9 8.8 15.9C6.8 13.9 6.8 10.8 8.8 8.8C10.8 6.8 13.9 6.8 15.9 8.8C17.9 10.8 17.9 13.9 15.9 15.9C14.9 16.9 13.6 17.4 12.4 17.4ZM12.4 9.3C11.6 9.3 10.9 9.6 10.3 10.2C9.1 11.4 9.1 13.3 10.3 14.5C11.5 15.7 13.4 15.7 14.6 14.5C15.8 13.3 15.8 11.4 14.6 10.2C13.9 9.6 13.1 9.3 12.4 9.3Z" fill="#FFFFFF"/>
<path d="M47.7 52.7C46.4 52.7 45.1 52.2 44.1 51.2C42.1 49.2 42.1 46.1 44.1 44.1C46.1 42.2 49.2 42.2 51.2 44.1C53.2 46.1 53.2 49.2 51.2 51.2C50.2 52.2 48.9 52.7 47.7 52.7ZM47.7 44.7C46.9 44.7 46.1 45 45.5 45.6C44.3 46.8 44.3 48.7 45.5 49.9C46.7 51.1 48.6 51.1 49.8 49.9C51 48.7 51 46.8 49.8 45.6C49.2 45 48.4 44.7 47.7 44.7Z" fill="#FFFFFF"/>
<path d="M47.7 17.4C46.4 17.4 45.1 16.9 44.1 15.9C42.1 13.9 42.1 10.8 44.1 8.8C45.1 7.8 46.3 7.3 47.7 7.3C49.1 7.3 50.3 7.8 51.3 8.8C53.3 10.8 53.3 13.9 51.3 15.9C50.2 16.9 48.9 17.4 47.7 17.4ZM47.7 9.3C46.9 9.3 46.1 9.6 45.6 10.2C44.4 11.4 44.4 13.3 45.6 14.5C46.8 15.7 48.7 15.7 49.9 14.5C51.1 13.3 51.1 11.4 49.9 10.2C49.2 9.6 48.4 9.3 47.7 9.3Z" fill="#FFFFFF"/>
<path d="M12.4 52.7C11.1 52.7 9.8 52.2 8.8 51.2C7.8 50.2 7.3 49 7.3 47.6C7.3 46.2 7.8 45 8.8 44C10.8 42 13.9 42 15.9 44C17.8 46 17.8 49.1 15.9 51.1C14.9 52.2 13.6 52.7 12.4 52.7ZM12.4 44.6C11.6 44.6 10.9 44.9 10.2 45.5C9.6 46.1 9.3 46.8 9.3 47.6C9.3 48.4 9.6 49.2 10.2 49.7C11.4 50.9 13.3 50.9 14.5 49.7C15.6 48.5 15.6 46.6 14.5 45.4C13.9 44.9 13.1 44.6 12.4 44.6Z" fill="#FFFFFF"/>
<path d="M19.4 20.4C19.1 20.4 18.9 20.3 18.7 20.1L14.5 15.9C14.1 15.5 14.1 14.9 14.5 14.5C14.9 14.1 15.5 14.1 15.9 14.5L20.1 18.7C20.5 19.1 20.5 19.7 20.1 20.1C19.9 20.3 19.7 20.4 19.4 20.4Z" fill="#FFFFFF"/>
<path d="M44.8 45.8C44.5 45.8 44.3 45.7 44.1 45.5L39.9 41.3C39.5 40.9 39.5 40.3 39.9 39.9C40.3 39.5 40.9 39.5 41.3 39.9L45.5 44.1C45.9 44.5 45.9 45.1 45.5 45.5C45.3 45.7 45.1 45.8 44.8 45.8Z" fill="#FFFFFF"/>
<path d="M40.6 20.4C40.3 20.4 40.1 20.3 39.9 20.1C39.5 19.7 39.5 19.1 39.9 18.7L44.1 14.5C44.5 14.1 45.1 14.1 45.5 14.5C45.9 14.9 45.9 15.5 45.5 15.9L41.3 20.1C41.1 20.3 40.9 20.4 40.6 20.4Z" fill="#FFFFFF"/>
<path d="M15.2 45.8C14.9 45.8 14.7 45.7 14.5 45.5C14.1 45.1 14.1 44.5 14.5 44.1L18.7 39.9C19.1 39.5 19.7 39.5 20.1 39.9C20.5 40.3 20.5 40.9 20.1 41.3L15.9 45.5C15.7 45.7 15.5 45.8 15.2 45.8Z" fill="#FFFFFF"/>
</svg>
