<svg width="55" height="40" viewBox="0 0 55 40" fill="none" xmlns="http://www.w3.org/2000/svg">
<path fill-rule="evenodd" clip-rule="evenodd" d="M53.2019 12.6474C39.0054 -1.54912 15.9036 -1.54912 1.70711 12.6474C1.31658 13.0379 0.683417 13.0379 0.292893 12.6474C-0.0976311 12.2568 -0.0976311 11.6237 0.292893 11.2331C15.2704 -3.74438 39.6386 -3.74438 54.6161 11.2331C55.0066 11.6237 55.0066 12.2568 54.6161 12.6474C54.2256 13.0379 53.5924 13.0379 53.2019 12.6474Z" fill="#FFFFFF"/>
<path fill-rule="evenodd" clip-rule="evenodd" d="M47.3229 18.5264C36.3684 7.57188 18.5406 7.57188 7.58611 18.5264C7.19558 18.9169 6.56242 18.9169 6.17189 18.5264C5.78137 18.1358 5.78137 17.5027 6.17189 17.1121C17.9074 5.37662 37.0016 5.37662 48.7371 17.1121C49.1276 17.5027 49.1276 18.1358 48.7371 18.5264C48.3466 18.9169 47.7134 18.9169 47.3229 18.5264Z" fill="#FFFFFF"/>
<path fill-rule="evenodd" clip-rule="evenodd" d="M41.4439 24.4053C33.7304 16.6909 21.1786 16.6909 13.4652 24.4053C13.0747 24.7959 12.4415 24.7959 12.0509 24.4054C11.6604 24.0149 11.6603 23.3817 12.0508 22.9912C20.5454 14.4956 34.3636 14.4956 42.8582 22.9912C43.2486 23.3817 43.2486 24.0149 42.8581 24.4054C42.4675 24.7959 41.8344 24.7959 41.4439 24.4053Z" fill="#FFFFFF"/>
<path fill-rule="evenodd" clip-rule="evenodd" d="M27.455 28.0272C24.9411 28.0272 22.903 30.0648 22.903 32.5783C22.903 35.092 24.9413 37.1302 27.455 37.1302C29.9685 37.1302 32.006 35.0922 32.006 32.5783C32.006 30.0645 29.9687 28.0272 27.455 28.0272ZM20.903 32.5783C20.903 28.9597 23.8369 26.0272 27.455 26.0272C31.0733 26.0272 34.006 28.96 34.006 32.5783C34.006 36.1963 31.0735 39.1302 27.455 39.1302C23.8367 39.1302 20.903 36.1965 20.903 32.5783Z" fill="#FFFFFF"/>
</svg>
