<svg width="47" height="60" viewBox="0 0 47 60" fill="none" xmlns="http://www.w3.org/2000/svg">
<path d="M25.0039 49.6C17.8039 49.6 10.6039 47.6 4.20387 43.6C3.80387 43.3 3.60387 42.8 3.80387 42.3L24.1039 0.6C24.3039 0.2 24.6039 0 25.0039 0C25.4039 0 25.7039 0.2 25.9039 0.6L46.2039 42.4C46.4039 42.9 46.3039 43.4 45.8039 43.7C39.4039 47.6 32.2039 49.6 25.0039 49.6ZM6.10387 42.4C17.9039 49.3 32.2039 49.3 44.0039 42.4L25.0039 3.3L6.10387 42.4Z" fill="#FFFFFF"/>
<path d="M3.70387 59.9C3.30387 59.9 2.90387 59.9 2.50387 59.8C1.50387 59.6 0.603867 58.9 0.203867 57.9C-0.196133 56.8 0.00386721 55.6 0.703867 54.6C3.10387 51.5 7.30387 50.7 10.0039 50.5C10.0039 50.3 10.0039 50.1 9.90387 49.8C9.70387 48.3 9.30387 46.7 8.90387 45.6L10.7039 44.8C11.2039 46 11.6039 47.8 11.9039 49.5C11.9039 49.8 12.0039 50.1 12.0039 50.4C12.2039 50.4 12.4039 50.4 12.4039 50.4C16.2039 50.6 20.0039 51 23.4039 51.4C30.3039 52.2 36.3039 52.9 38.6039 50.6C39.6039 49.6 40.0039 47.8 39.7039 45.3L41.7039 45.1C42.1039 48.3 41.5039 50.5 40.0039 52C37.0039 55 30.9039 54.3 23.2039 53.4C19.9039 53 16.1039 52.6 12.3039 52.4C12.3039 52.4 12.1039 52.4 11.9039 52.4C11.5039 54.3 10.5039 56.1 9.00387 57.5C7.20387 59.1 5.50387 59.9 3.70387 59.9ZM9.80387 52.5C7.50387 52.7 4.10387 53.4 2.30387 55.8C2.00387 56.2 1.90387 56.7 2.10387 57.1C2.20387 57.3 2.40387 57.7 2.90387 57.8C4.40387 58.1 6.00387 57.6 7.60387 56C8.70387 55.1 9.40387 53.9 9.80387 52.5Z" fill="#FFFFFF"/>
<path d="M26.5039 44.6C26.4039 44.6 26.3039 44.6 26.1039 44.5C25.7039 44.4 25.5039 44 25.5039 43.7L25.1039 39.6L21.4039 37.6C21.1039 37.4 20.9039 37.1 20.9039 36.7C20.9039 36.3 21.2039 36 21.5039 35.8L25.4039 34.1L26.2039 29.9C26.3039 29.5 26.6039 29.2 26.9039 29.1C27.3039 29 27.7039 29.1 27.9039 29.4L30.6039 32.6L34.8039 32.1C35.2039 32.1 35.6039 32.2 35.8039 32.5C36.0039 32.8 36.0039 33.2 35.8039 33.6L33.7039 37.3L35.5039 41.1C35.7039 41.4 35.6039 41.9 35.4039 42.2C35.2039 42.5 34.8039 42.6 34.4039 42.5L30.3039 41.5L27.2039 44.3C27.0039 44.5 26.7039 44.6 26.5039 44.6ZM24.2039 36.8L26.5039 38.1C26.8039 38.3 27.0039 38.5 27.0039 38.9L27.3039 41.5L29.3039 39.6C29.5039 39.4 29.9039 39.3 30.2039 39.4L32.8039 40L31.7039 37.6C31.6039 37.3 31.6039 37 31.7039 36.7L33.1039 34.4L30.4039 34.7C30.1039 34.7 29.7039 34.6 29.5039 34.4L27.8039 32.4L27.3039 35C27.2039 35.3 27.0039 35.6 26.7039 35.7L24.2039 36.8ZM16.8039 33.7C16.5039 33.7 16.3039 33.6 16.1039 33.4L13.0039 30.3L11.2039 30.5C10.8039 30.5 10.5039 30.4 10.3039 30.1C10.1039 29.8 10.1039 29.4 10.2039 29.1L15.1039 19C15.1039 18.9 15.2039 18.8 15.3039 18.7L15.8039 18.2C16.1039 17.9 16.5039 17.8 16.8039 18C17.2039 18.1 17.4039 18.4 17.5039 18.8L18.2039 23.1L22.0039 24.9C22.3039 25.1 22.6039 25.4 22.6039 25.8C22.6039 26.2 22.4039 26.5 22.1039 26.7L18.4039 28.7L17.9039 32.9C17.9039 33.3 17.6039 33.6 17.2039 33.7C17.0039 33.7 16.9039 33.7 16.8039 33.7ZM13.4039 28.3C13.7039 28.3 13.9039 28.4 14.1039 28.6L16.1039 30.6L16.4039 27.9C16.4039 27.6 16.6039 27.3 16.9039 27.1L19.3039 25.8L16.8039 24.7C16.5039 24.6 16.3039 24.3 16.2039 24L15.8039 21.9L12.6039 28.4L13.1039 28.3C13.3039 28.3 13.4039 28.3 13.4039 28.3ZM27.2039 22.2C27.1039 22.2 27.0039 22.2 26.9039 22.1C26.5039 22 26.3039 21.6 26.3039 21.3L25.9039 17.1L22.2039 15.1C21.9039 14.9 21.7039 14.6 21.7039 14.2C21.7039 13.8 21.9039 13.5 22.3039 13.3L26.1039 11.6L26.7039 7.4C26.8039 7 27.0039 6.8 27.4039 6.6C27.7039 6.5 28.1039 6.6 28.4039 6.8L29.7039 8.1C29.8039 8.2 29.9039 8.3 29.9039 8.4L34.6039 18.1C34.8039 18.4 34.7039 18.8 34.5039 19.1C34.3039 19.4 33.9039 19.5 33.5039 19.5L31.0039 19L27.9039 21.9C27.7039 22.1 27.5039 22.2 27.2039 22.2ZM24.8039 14.3L27.2039 15.6C27.5039 15.8 27.7039 16 27.7039 16.4L28.0039 19.1L30.0039 17.2C30.2039 17 30.6039 16.9 30.9039 16.9L31.9039 17.1L28.3039 9.7L27.8039 12.5C27.7039 12.8 27.5039 13.1 27.2039 13.2L24.8039 14.3Z" fill="#FFFFFF"/>
</svg>
