<svg width="51" height="60" viewBox="0 0 51 60" fill="none" xmlns="http://www.w3.org/2000/svg">
<path d="M31.9 0C28.1 0 25 3 24.9 6.8H23.1C22.2 6.8 21.3 6.4 20.7 5.7C19.7 4.6 18.3 4 16.8 4H11.6C9.8 4 8.1 5 7.1 6.6L5.9 8.7C5.7 8.9 5.6 9.1 5.4 9.3L1.5 13.3C0.5 14.3 0 15.6 0 17V20.2C0 21.4 0.4 22.7 1.3 23.6L4.4 27.2C5.5 28.5 7.2 29.2 8.9 29L13.8 28.5C14.4 28.4 15.1 28.5 15.6 28.8L15.8 28.9C16.9 29.5 17.6 30.6 17.6 31.8V32.1C17.6 32.7 17.7 33.4 17.9 33.9L20.4 40.5C20.4 40.5 20.4 40.5 20.4 40.6L23.8 54.5C23.9 54.7 23.8 55 23.6 55.1L23.2 55.5C22.4 56.3 22.2 57.5 22.7 58.6C23.1 59.4 24 59.9 24.9 59.9H28.5C29.5 59.9 30.4 59.3 30.9 58.4L34.8 50.5C34.9 50.2 35.1 49.9 35.3 49.7L38.9 44.9C40.1 43.3 40.6 41.3 40.3 39.3L40.1 38.1C39.9 36.7 40.2 35.3 41 34.1L45.7 28.7C46.9 27.3 48.1 26 49.5 24.5C49.9 24.1 51.1 22.8 50.8 21.3C50.5 20.2 49.7 19.3 48.6 19C47.3 18.7 45.9 19 44.7 19.8V20C44.3 20.2 43.9 20.4 43.5 20.6C43.1 20.8 42.7 21 42.4 21.2C42.2 21.3 42 21.2 41.9 21.1L37.1 11.8C39 9.8 39.5 6.8 38.4 4.2C37.3 1.6 34.7 0 31.9 0ZM31.9 2C34.7 2 36.9 4.2 36.9 7C36.9 9.8 34.7 12 31.9 12C29.1 12 26.9 9.8 26.9 7C26.9 4.2 29.1 2 31.9 2ZM32.9 14V26C32.9 26.6 32.5 27 31.9 27C31.3 27 30.9 26.6 30.9 26V14H32.9ZM43.2 23C43.6 22.8 44 22.6 44.4 22.4C44.8 22.2 45.1 22 45.5 21.8L45.6 21.7C46.3 21.2 47.1 21 48 21.1C48.4 21.2 48.7 21.5 48.9 22C48.9 22.1 48.9 22.5 48.1 23.4C46.7 24.9 45.5 26.3 44.3 27.6L39.6 33C38.5 34.6 38 36.6 38.2 38.5L38.4 39.7C38.6 41.1 38.2 42.6 37.4 43.8L33.8 48.6C33.5 49 33.3 49.3 33.1 49.8L29.2 57.7C29.1 57.9 28.9 58.1 28.6 58.1H25C24.8 58.1 24.7 58 24.6 57.9C24.4 57.5 24.4 57.2 24.6 57L25 56.6C25.7 55.9 25.9 55 25.7 54.1L22.3 40.2V40.1C22.3 40.1 22.3 40 22.2 39.9L19.7 33.2C19.6 32.8 19.5 32.5 19.5 32.1V31.8C19.5 29.8 18.4 28 16.6 27.1L16.3 27C15.4 26.6 14.4 26.4 13.4 26.5L8.6 27C7.5 27.1 6.5 26.7 5.8 25.9L2.7 22.3C2.2 21.7 1.9 21 1.9 20.2V17C1.9 16.1 2.2 15.3 2.8 14.7L6.7 10.7C7 10.4 7.3 10.1 7.5 9.7L8.8 7.6C9.4 6.6 10.5 6 11.6 6H16.8C17.7 6 18.6 6.4 19.2 7.1C20.2 8.2 21.6 8.8 23.1 8.8H25.1C25.6 10.8 27 12.5 28.9 13.3V26C28.9 27.7 30.2 29 31.9 29C33.6 29 34.9 27.7 34.9 26V13.3C35.1 13.2 35.2 13.1 35.4 13L40.1 21.9C40.7 23.1 42.1 23.6 43.2 23Z" fill="#666DE9"/>
<path d="M29.9 8C30.2 8 30.4 7.9 30.6 7.7C30.8 7.5 30.9 7.3 30.9 7C30.9 6.4 31.3 6 31.9 6C32.5 6 32.9 5.6 32.9 5C32.9 4.4 32.5 4 31.9 4C30.2 4 28.9 5.3 28.9 7C28.9 7.3 29 7.5 29.2 7.7C29.4 7.9 29.6 8 29.9 8Z" fill="#666DE9"/>
</svg>
