<svg width="60" height="60" viewBox="0 0 60 60" fill="none" xmlns="http://www.w3.org/2000/svg">
<path d="M26 13C25.7 13 25.5 12.9 25.3 12.7C24.9 12.3 24.9 11.7 25.3 11.3L27.6 9C28.8 7.8 31.1 7.8 32.3 9L34.7 11.3C35.1 11.7 35.1 12.3 34.7 12.7C34.3 13.1 33.7 13.1 33.3 12.7L30.9 10.4C30.4 9.9 29.5 9.9 29 10.4L26.7 12.7C26.5 12.9 26.3 13 26 13Z" fill="#666DE9"/>
<path d="M41.6 60C41.4 60 41.2 59.9 40.9 59.8L29.9 56.1L18.9 59.8C18.5 60 18 60 17.6 59.8C17.2 59.6 16.9 59.1 16.9 58.6V54.5C16.9 53.8 17.3 53.5 17.7 53.3L22.6 50.7C21.9 46.5 21.5 40.8 21.3 35.3C15 36 7.5 37.1 2.3 40.4C2.3 40.4 2.2 40.4 2.2 40.5C1.7 40.7 1.2 40.7 0.7 40.4C0.3 40.1 0 39.6 0 39V33.6C0 32.9 0.3 32.4 1 32.1L3 30.8V25.5C3 23.5 4.5 22 6.5 22C8.5 22 10 23.5 10 25.5V26.5L12 25.2C12 25.1 12 25 12 24.9V18.4C12 16.4 13.5 14.9 15.5 14.9C17.5 14.9 19 16.4 19 18.4V21L21 19.8C21 17.7 21 16.3 21 16C21 11.5 22 8.4 22.8 6.6C24.1 3.6 26.8 0 30 0C33.5 0 36.3 4.3 37.2 6.6C38 8.4 39 11.5 39 16C39 16.2 39 17.6 39 19.7L41 20.9V18.4C41 16.4 42.5 14.9 44.5 14.9C46.5 14.9 48 16.4 48 18.4V25C48 25.1 48 25.2 48 25.3L50 26.6V25.6C50 23.6 51.5 22.1 53.5 22.1C55.5 22.1 57 23.6 57 25.6V30.9L59 32.2C59.5 32.4 60 32.8 60 33.8V39.2C60 39.7 59.8 40.2 59.4 40.5C59 40.8 58.5 40.9 58 40.8C57.9 40.8 57.8 40.7 57.7 40.7C52.5 37.3 45 36.2 38.7 35.5C38.5 41 38 46.7 37.4 50.8L42.5 53.5C42.6 53.5 42.7 53.6 42.7 53.7C43.1 54.1 43.1 54.5 43.1 54.7V58.8C43.1 59.3 42.8 59.8 42.4 60C42.1 59.9 41.9 60 41.6 60ZM19 54.9V57.7L29.3 54.2C29.7 54 30.2 54 30.6 54.2L41 57.7V54.8L30 49.1L24.3 52.2C24.2 52.2 24.1 52.3 24 52.3L19 54.9ZM30 2C27.9 2 25.8 4.8 24.6 7.4C23.9 9 23 11.9 23 16C23 16.2 22.8 38.2 24.6 49.7L29.2 47.2C29.4 47 29.7 47 30 47C30.3 47 30.6 47.1 30.8 47.2L35.4 49.6C37.2 38.2 37 16.2 37 16C37 11.9 36.1 9 35.4 7.4C34.4 5.1 32.2 2 30 2ZM38.7 33.3C44.9 34 52.4 35 58 38.4V33.8L39 22.1C39 24.7 38.9 28.9 38.7 33.3ZM2 33.8V38.3C7.6 35.1 15 34.1 21.3 33.3C21.1 28.8 21.1 24.7 21 22.1L2 33.8ZM52 27.3L55 29.3V25.5C55 24.7 54.3 24 53.5 24C52.7 24 52 24.7 52 25.5V27.3ZM6.5 24C5.7 24 5 24.7 5 25.5V29.3L8 27.3V25.5C8 24.7 7.3 24 6.5 24ZM15.5 17C14.7 17 14 17.7 14 18.5V23.2L17 21.2V18.5C17 17.7 16.3 17 15.5 17ZM43 21.2L46 23.2V18.5C46 17.7 45.3 17 44.5 17C43.7 17 43 17.7 43 18.5V21.2Z" fill="#666DE9"/>
</svg>
