<svg width="60" height="60" viewBox="0 0 60 60" fill="none" xmlns="http://www.w3.org/2000/svg">
<path d="M55.5 26C55 26 54.6 25.7 54.5 25.2C52.3 13.5 41.9 5 30 5C29.4 5 29 4.6 29 4C29 3.4 29.4 3 30 3C42.9 3 54 12.2 56.5 24.8C56.6 25.3 56.3 25.9 55.7 26C55.6 26 55.6 26 55.5 26Z" fill="#666DE9"/>
<path d="M33 8C32.7 8 32.5 7.9 32.3 7.7L29.3 4.7C28.9 4.3 28.9 3.7 29.3 3.3L32.3 0.3C32.7 -0.1 33.3 -0.1 33.7 0.3C34.1 0.7 34.1 1.3 33.7 1.7L31.4 4L33.7 6.3C34.1 6.7 34.1 7.3 33.7 7.7C33.5 7.9 33.3 8 33 8Z" fill="#666DE9"/>
<path d="M4 31C3.4 31 3 30.6 3 30C3 17.1 12.2 6 24.8 3.5C25.3 3.4 25.9 3.7 26 4.3C26.1 4.8 25.8 5.4 25.2 5.5C13.5 7.7 5 18.1 5 30C5 30.6 4.6 31 4 31Z" fill="#666DE9"/>
<path d="M4 31C3.7 31 3.5 30.9 3.3 30.7L0.3 27.7C-0.1 27.3 -0.1 26.7 0.3 26.3C0.7 25.9 1.3 25.9 1.7 26.3L4 28.6L6.3 26.3C6.7 25.9 7.3 25.9 7.7 26.3C8.1 26.7 8.1 27.3 7.7 27.7L4.7 30.7C4.5 30.9 4.3 31 4 31Z" fill="#666DE9"/>
<path d="M30 57C17.1 57 6 47.8 3.5 35.2C3.4 34.7 3.7 34.1 4.3 34C4.8 33.9 5.4 34.2 5.5 34.8C7.7 46.5 18.1 55 30 55C30.6 55 31 55.4 31 56C31 56.6 30.6 57 30 57Z" fill="#666DE9"/>
<path d="M27 60C26.7 60 26.5 59.9 26.3 59.7C25.9 59.3 25.9 58.7 26.3 58.3L28.6 56L26.3 53.7C25.9 53.3 25.9 52.7 26.3 52.3C26.7 51.9 27.3 51.9 27.7 52.3L30.7 55.3C31.1 55.7 31.1 56.3 30.7 56.7L27.7 59.7C27.5 59.9 27.3 60 27 60Z" fill="#666DE9"/>
<path d="M35 56.5C34.5 56.5 34.1 56.2 34 55.7C33.9 55.2 34.2 54.6 34.8 54.5C46.5 52.3 55 41.9 55 30C55 29.4 55.4 29 56 29C56.6 29 57 29.4 57 30C57 42.9 47.8 54 35.2 56.5C35.1 56.5 35.1 56.5 35 56.5Z" fill="#666DE9"/>
<path d="M59 34C58.7 34 58.5 33.9 58.3 33.7L56 31.4L53.7 33.7C53.3 34.1 52.7 34.1 52.3 33.7C51.9 33.3 51.9 32.7 52.3 32.3L55.3 29.3C55.7 28.9 56.3 28.9 56.7 29.3L59.7 32.3C60.1 32.7 60.1 33.3 59.7 33.7C59.5 33.9 59.3 34 59 34Z" fill="#666DE9"/>
</svg>
