<svg width="60" height="56" viewBox="0 0 60 56" fill="none" xmlns="http://www.w3.org/2000/svg">
<path d="M55.3 56H4.7C2.2 56 0 53.8 0 51.3V14H60V51.3C60 53.8 57.8 56 55.3 56ZM2 16V51.3C2 52.7 3.3 54 4.7 54H55.3C56.7 54 58 52.7 58 51.3V16H2Z" fill="#666DE9"/>
<path d="M59 16H1V0H59V16ZM3 14H57V2H3V14Z" fill="#666DE9"/>
<path d="M30 42C22.8 42 17 36.2 17 29V23C17 22.4 17.4 22 18 22C18.6 22 19 22.4 19 23V29C19 35.1 23.9 40 30 40C36.1 40 41 35.1 41 29V23C41 22.4 41.4 22 42 22C42.6 22 43 22.4 43 23V29C43 36.2 37.2 42 30 42Z" fill="#666DE9"/>
<path d="M21 24C20.4 24 20 23.6 20 23C20 21.9 19.1 21 18 21C16.9 21 16 21.9 16 23C16 23.6 15.6 24 15 24C14.4 24 14 23.6 14 23C14 20.8 15.8 19 18 19C20.2 19 22 20.8 22 23C22 23.6 21.6 24 21 24Z" fill="#666DE9"/>
<path d="M45 24C44.4 24 44 23.6 44 23C44 21.9 43.1 21 42 21C40.9 21 40 21.9 40 23C40 23.6 39.6 24 39 24C38.4 24 38 23.6 38 23C38 20.8 39.8 19 42 19C44.2 19 46 20.8 46 23C46 23.6 45.6 24 45 24Z" fill="#666DE9"/>
<path d="M10 8C9.7 8 9.5 7.9 9.3 7.7L3.3 1.7C2.9 1.3 2.9 0.7 3.3 0.3C3.7 -0.1 4.3 -0.1 4.7 0.3L10.7 6.3C11.1 6.7 11.1 7.3 10.7 7.7C10.5 7.9 10.3 8 10 8Z" fill="#666DE9"/>
<path d="M4 16C3.8 16 3.6 15.9 3.4 15.8C3 15.5 2.9 14.8 3.2 14.4L9.2 6.4C9.5 6 10.2 5.9 10.6 6.2C11 6.5 11.1 7.2 10.8 7.6L4.8 15.6C4.6 15.9 4.3 16 4 16Z" fill="#666DE9"/>
<path d="M10 16C9.4 16 9 15.6 9 15V7C9 6.4 9.4 6 10 6C10.6 6 11 6.4 11 7V15C11 15.6 10.6 16 10 16Z" fill="#666DE9"/>
<path d="M50 8C49.7 8 49.5 7.9 49.3 7.7C48.9 7.3 48.9 6.7 49.3 6.3L55.3 0.3C55.7 -0.1 56.3 -0.1 56.7 0.3C57.1 0.7 57.1 1.3 56.7 1.7L50.7 7.7C50.5 7.9 50.3 8 50 8Z" fill="#666DE9"/>
<path d="M56 16C55.7 16 55.4 15.9 55.2 15.6L49.2 7.6C48.9 7.2 49 6.5 49.4 6.2C49.8 5.9 50.5 6 50.8 6.4L56.8 14.4C57.1 14.8 57 15.5 56.6 15.8C56.4 15.9 56.2 16 56 16Z" fill="#666DE9"/>
<path d="M50 16C49.4 16 49 15.6 49 15V7C49 6.4 49.4 6 50 6C50.6 6 51 6.4 51 7V15C51 15.6 50.6 16 50 16Z" fill="#666DE9"/>
</svg>
