<svg width="60" height="51" viewBox="0 0 60 51" fill="none" xmlns="http://www.w3.org/2000/svg">
<path d="M23 51C19.6 51 17 48.4 17 45C17 41.6 19.6 39 23 39C26.4 39 29 41.6 29 45C29 48.4 26.4 51 23 51ZM23 41C20.8 41 19 42.8 19 45C19 47.2 20.8 49 23 49C25.2 49 27 47.2 27 45C27 42.8 25.2 41 23 41Z" fill="#666DE9"/>
<path d="M46 51C42.6 51 40 48.4 40 45C40 41.6 42.6 39 46 39C49.4 39 52 41.6 52 45C52 48.4 49.4 51 46 51ZM46 41C43.8 41 42 42.8 42 45C42 47.2 43.8 49 46 49C48.2 49 50 47.2 50 45C50 42.8 48.2 41 46 41Z" fill="#666DE9"/>
<path d="M23 51C19.6 51 17 48.4 17 45C17 41.6 19.6 39 23 39C26.4 39 29 41.6 29 45C29 48.4 26.4 51 23 51ZM23 41C20.8 41 19 42.8 19 45C19 47.2 20.8 49 23 49C25.2 49 27 47.2 27 45C27 42.8 25.2 41 23 41Z" fill="#666DE9"/>
<path d="M46 51C42.6 51 40 48.4 40 45C40 41.6 42.6 39 46 39C49.4 39 52 41.6 52 45C52 48.4 49.4 51 46 51ZM46 41C43.8 41 42 42.8 42 45C42 47.2 43.8 49 46 49C48.2 49 50 47.2 50 45C50 42.8 48.2 41 46 41Z" fill="#666DE9"/>
<path d="M56 45H50.9C50.3 45 49.9 44.6 49.9 44C49.9 43.4 50.3 43 50.9 43H56C56.6 43 57 43.4 57 44C57 44.6 56.6 45 56 45Z" fill="#666DE9"/>
<path d="M41.1 45H27.9C27.3 45 26.9 44.6 26.9 44C26.9 43.4 27.3 43 27.9 43H41.1C41.7 43 42.1 43.4 42.1 44C42.1 44.6 41.7 45 41.1 45Z" fill="#666DE9"/>
<path d="M18.1 45H15C13.6 45 12.3 44.4 11.3 43.4C10.3 42.4 9.9 41 10 39.5C10.2 37.1 12.3 35.2 14.8 35L9.6 8H60V32C60 34.8 57.8 37 55 37H15.2C13.5 37 12.1 38.2 12 39.7C11.9 40.6 12.2 41.4 12.8 42C13.4 42.6 14.2 43 15 43H18.1C18.7 43 19.1 43.4 19.1 44C19.1 44.6 18.7 45 18.1 45ZM16.8 35H55C56.7 35 58 33.7 58 32V10H12L16.8 35Z" fill="#666DE9"/>
<path d="M10.8 10C10.3 10 9.9 9.6 9.8 9.2L9.1 5H7C6.4 5 6 4.6 6 4C6 3.4 6.4 3 7 3H10.9L11.8 8.8C11.9 9.4 11.5 9.9 11 10C10.9 10 10.9 10 10.8 10Z" fill="#666DE9"/>
<path d="M4 8C1.8 8 0 6.2 0 4C0 1.8 1.8 0 4 0C6.2 0 8 1.8 8 4C8 6.2 6.2 8 4 8ZM4 2C2.9 2 2 2.9 2 4C2 5.1 2.9 6 4 6C5.1 6 6 5.1 6 4C6 2.9 5.1 2 4 2Z" fill="#666DE9"/>
<path d="M60 28H13.5L11.4 17H60V28ZM15.1 26H58V19H13.8L15.1 26Z" fill="#666DE9"/>
<path d="M33 37H22V8H33V37ZM24 35H31V10H24V35Z" fill="#666DE9"/>
<path d="M51 37H40V8H51V37ZM42 35H49V10H42V35Z" fill="#666DE9"/>
</svg>
