<svg width="54" height="49" viewBox="0 0 54 49" fill="none" xmlns="http://www.w3.org/2000/svg">
<path d="M12 48.7084C5.4 48.7084 0 43.3083 0 36.7084C0 30.1084 5.4 24.7084 12 24.7084C18.6 24.7084 24 30.1084 24 36.7084C24 43.3083 18.6 48.7084 12 48.7084ZM12 26.7084C6.5 26.7084 2 31.2084 2 36.7084C2 42.2084 6.5 46.7084 12 46.7084C17.5 46.7084 22 42.2084 22 36.7084C22 31.2084 17.5 26.7084 12 26.7084Z" fill="#666DE9"/>
<path d="M23 38.1084C22.7 38.1084 22.4 38.0084 22.3 37.8083C22.1 37.6083 22 37.3084 22 37.1084V36.9084C22 36.8084 22 36.8083 22 36.7084C22 36.1084 22.4 35.7084 23 35.7084C23.6 35.7084 24 36.1084 24 36.7084V37.1084C24 37.7084 23.6 38.1084 23 38.1084Z" fill="#666DE9"/>
<path d="M23 37.7084C22.4 37.7084 22 37.3083 22 36.7084C22 31.2084 17.5 26.7084 12 26.7084C8.4 26.7084 5.1 28.6084 3.3 31.8084C3.1 32.2084 2.5 32.4084 2.1 32.2084C1.6 32.0084 1.4 31.5084 1.5 31.0084L7.4 6.70835C8.3 2.90835 11.5 0.208351 15.2 0.00835056C17.5 -0.0916494 19.7 0.708351 21.4 2.30835C23.1 4.00835 24 6.10835 24 8.50835V36.7084C24 37.3083 23.6 37.7084 23 37.7084ZM12 24.7084C16.2 24.7084 19.8 26.8084 22 30.1084V8.50835C22 6.70835 21.3 5.10835 20 3.90835C18.7 2.70835 17.1 2.10835 15.3 2.10835C12.5 2.20835 10 4.30835 9.3 7.30835L4.4 27.4084C6.5 25.7084 9.2 24.7084 12 24.7084Z" fill="#666DE9"/>
<path d="M31 27.7083H23C22.4 27.7083 22 27.3083 22 26.7083V13.7084C22 13.1083 22.4 12.7084 23 12.7084H31C31.6 12.7084 32 13.1083 32 13.7084V26.7083C32 27.3083 31.6 27.7083 31 27.7083ZM24 25.7083H30V14.7084H24V25.7083Z" fill="#666DE9"/>
<path d="M42 48.7084C35.4 48.7084 30 43.3083 30 36.7084C30 30.1084 35.4 24.7084 42 24.7084C48.6 24.7084 54 30.1084 54 36.7084C54 43.3083 48.6 48.7084 42 48.7084ZM42 26.7084C36.5 26.7084 32 31.2084 32 36.7084C32 42.2084 36.5 46.7084 42 46.7084C47.5 46.7084 52 42.2084 52 36.7084C52 31.2084 47.5 26.7084 42 26.7084Z" fill="#666DE9"/>
<path d="M31 38.1084C30.4 38.1084 30 37.7084 30 37.1084V36.7084C30 36.1084 30.4 35.7084 31 35.7084C31.6 35.7084 32 36.1084 32 36.7084C32 36.8083 32 36.8084 32 36.9084V37.1084C32 37.4084 31.9 37.6083 31.7 37.8083C31.5 38.0084 31.3 38.1084 31 38.1084Z" fill="#666DE9"/>
<path d="M31 37.7083C30.4 37.7083 30 37.3083 30 36.7084V8.50835C30 6.20835 30.9 4.00835 32.6 2.40835C34.3 0.80835 36.5 0.00835052 38.8 0.108351C42.5 0.308351 45.7 3.00835 46.6 6.80835L52.5 31.1084C52.6 31.6084 52.4 32.1083 51.9 32.3083C51.4 32.5084 50.9 32.3084 50.7 31.9084C48.9 28.6084 45.6 26.7084 42 26.7084C36.5 26.7084 32 31.2084 32 36.7084C32 37.3083 31.6 37.7083 31 37.7083ZM38.4 2.10835C36.7 2.10835 35.2 2.70835 34 3.90835C32.7 5.10835 32 6.80835 32 8.50835V30.1084C34.2 26.9083 37.8 24.7084 42 24.7084C44.8 24.7084 47.5 25.7084 49.6 27.4084L44.7 7.20835C44 4.30835 41.5 2.20835 38.7 2.00835C38.6 2.10835 38.5 2.10835 38.4 2.10835Z" fill="#666DE9"/>
</svg>
