<svg width="47" height="59" viewBox="0 0 47 59" fill="none" xmlns="http://www.w3.org/2000/svg">
<path d="M15.1203 58.1028C14.5203 58.1028 14.1203 57.7028 14.1203 57.1028V50.1028C14.1203 49.7028 14.3203 49.4028 14.6203 49.2028C14.9203 49.0028 15.3203 49.0028 15.6203 49.2028C16.0203 49.5028 16.5203 49.8028 17.0203 50.1028C17.5203 50.4028 18.0203 50.8028 18.4203 51.1028C18.8203 51.4028 19.2203 51.6028 19.5203 51.9028C20.9203 52.9028 22.2203 53.9028 23.9203 53.9028C25.6203 53.9028 26.9203 52.9028 28.3203 51.9028C28.7203 51.6028 29.0203 51.4028 29.4203 51.1028C29.8203 50.8028 30.2203 50.6028 30.5203 50.3028C31.1203 49.9028 31.7203 49.5028 32.2203 49.1028C32.5203 48.9028 32.9203 48.8028 33.3203 49.0028C33.6203 49.2028 33.9203 49.5028 33.9203 49.9028V56.9028C33.9203 57.5028 33.5203 57.9028 32.9203 57.9028C32.3203 57.9028 31.9203 57.5028 31.9203 56.9028V51.8028C31.8203 51.8028 31.8203 51.9028 31.7203 51.9028C31.3203 52.1028 31.0203 52.4028 30.6203 52.6028C30.2203 52.8028 29.9203 53.1028 29.5203 53.4028C28.1203 54.7028 26.3203 56.0028 24.0203 56.0028C21.7203 56.0028 19.9203 54.7028 18.4203 53.6028C18.1203 53.3028 17.7203 53.1028 17.3203 52.8028C16.9203 52.5028 16.5203 52.3028 16.1203 52.0028V57.1028C16.1203 57.7028 15.7203 58.1028 15.1203 58.1028Z" fill="#666DE9"/>
<path d="M23.9203 56.0028C21.6203 56.0028 19.8203 54.7028 18.3203 53.6028C18.0203 53.3028 17.6203 53.1028 17.2203 52.8028L16.5203 52.3028C14.8203 51.1028 13.0203 49.9028 11.5203 48.5028C6.72033 43.9028 6.02033 36.9028 6.02033 30.1028V21.0028C6.02033 20.3028 6.12033 19.2028 6.62033 18.3028C7.92033 15.2028 11.5203 13.8028 14.9203 15.0028C16.3203 15.5028 19.1203 16.0028 24.0203 16.0028C28.9203 16.0028 31.6203 15.4028 33.1203 15.0028C36.5203 13.8028 40.2203 15.3028 41.4203 18.4028C41.8203 19.3028 42.0203 20.2028 42.0203 21.1028V30.1028C42.0203 37.0028 41.3203 44.0028 36.3203 48.6028C34.8203 50.1028 33.0203 51.3028 31.3203 52.4028L30.6203 52.9028C30.2203 53.1028 29.9203 53.4028 29.5203 53.7028C28.0203 54.7028 26.2203 56.0028 23.9203 56.0028ZM12.5203 16.5028C10.7203 16.5028 9.12033 17.5028 8.42033 19.0028C8.42033 19.0028 8.42033 19.1028 8.32033 19.1028C8.12033 19.6028 8.02033 20.2028 8.02033 21.0028V30.1028C8.02033 36.0028 8.42033 42.8028 12.9203 47.1028C14.3203 48.5028 16.0203 49.6028 17.7203 50.7028L18.4203 51.2028C18.8203 51.5028 19.1203 51.7028 19.5203 52.0028C20.9203 53.0028 22.2203 54.0028 23.9203 54.0028C25.6203 54.0028 26.9203 53.0028 28.3203 52.0028C28.7203 51.7028 29.0203 51.5028 29.4203 51.2028L30.1203 50.7028C31.8203 49.6028 33.5203 48.4028 34.9203 47.1028C39.6203 42.8028 40.0203 36.0028 40.0203 30.0028V21.0028C40.0203 20.4028 39.9203 19.7028 39.6203 19.1028C38.7203 17.0028 36.2203 16.0028 33.8203 16.8028C31.4203 17.6028 28.2203 18.0028 24.0203 18.0028C19.8203 18.0028 16.6203 17.6028 14.3203 16.8028C13.7203 16.6028 13.1203 16.5028 12.5203 16.5028Z" fill="#666DE9"/>
<path d="M41.0203 30.8028H40.9203C40.4203 30.7028 40.0203 30.3028 40.0203 29.8028V20.9028C40.0203 20.3028 39.9203 19.6028 39.6203 19.0028C38.7203 16.9028 36.2203 15.9028 33.8203 16.7028C31.5203 17.5028 28.2203 17.9028 24.1203 17.9028C20.0203 17.9028 16.7203 17.5028 14.4203 16.7028C12.0203 15.8028 9.42033 16.8028 8.52033 18.9028C8.42033 19.2028 8.32033 19.5028 8.22033 19.9028L8.12033 20.1028C8.02033 20.6028 7.52033 20.9028 7.02033 20.9028C1.02033 20.4028 -0.179673 14.8028 0.0203274 11.9028C0.0203274 2.10277 5.82033 2.00277 6.02033 2.00277C6.32033 2.00277 6.52033 2.10277 6.72033 2.30277C6.92033 2.50277 7.02033 2.80277 7.02033 3.10277C7.02033 3.10277 7.02033 3.90277 8.42033 4.50277C10.2203 5.30277 11.9203 5.20277 13.2203 4.20277C15.7203 2.20277 21.7203 0.00276816 27.0203 0.00276816C27.2203 0.00276816 32.4203 -0.197232 36.8203 2.80277C37.8203 3.40277 38.9203 3.90277 40.4203 4.40277C42.6203 4.90277 47.4203 6.90277 46.0203 14.2028L42.0203 30.0028C41.9203 30.5028 41.5203 30.8028 41.0203 30.8028ZM35.5203 14.4028C38.1203 14.4028 40.5203 15.8028 41.4203 18.2028C41.8203 19.1028 42.0203 20.0028 42.0203 20.9028V21.8028L44.0203 13.8028C44.9203 8.70277 42.2203 6.90277 39.8203 6.30277C38.1203 5.80277 36.8203 5.20277 35.6203 4.50277C31.9203 1.80277 27.1203 2.00277 27.0203 2.00277C22.3203 2.00277 16.7203 4.00277 14.4203 5.80277C12.6203 7.20277 10.1203 7.40277 7.62033 6.30277C6.22033 5.60277 5.62033 4.80277 5.32033 4.20277C4.12033 4.60277 2.02033 6.20277 2.02033 12.0028C2.02033 12.3028 1.72033 17.8028 6.42033 18.8028C6.52033 18.6028 6.52033 18.4028 6.62033 18.2028C7.82033 15.2028 11.5203 13.7028 14.9203 14.9028C16.3203 15.4028 19.1203 15.9028 24.0203 15.9028C28.9203 15.9028 31.6203 15.3028 33.1203 14.9028C33.9203 14.6028 34.7203 14.4028 35.5203 14.4028Z" fill="#666DE9"/>
</svg>
