<svg width="60" height="60" viewBox="0 0 60 60" fill="none" xmlns="http://www.w3.org/2000/svg">
<path fill-rule="evenodd" clip-rule="evenodd" d="M14.986 2C12.7845 2 11 3.78502 11 5.987V54.013C11 56.215 12.7845 58 14.986 58H45.013C47.2147 58 49 56.2147 49 54.013V5.987C49 3.78528 47.2147 2 45.013 2H14.986ZM9 5.987C9 2.68098 11.6795 0 14.986 0H45.013C48.3193 0 51 2.68072 51 5.987V54.013C51 57.3193 48.3193 60 45.013 60H14.986C11.6795 60 9 57.319 9 54.013V5.987Z" fill="#666DE9"/>
<path fill-rule="evenodd" clip-rule="evenodd" d="M12.9996 5C12.9996 4.44772 13.4473 4 13.9996 4H45.9996C46.5519 4 46.9996 4.44772 46.9996 5V23C46.9996 23.5523 46.5519 24 45.9996 24H13.9996C13.4473 24 12.9996 23.5523 12.9996 23V5ZM14.9996 6V22H44.9996V6H14.9996Z" fill="#666DE9"/>
<path fill-rule="evenodd" clip-rule="evenodd" d="M17.2356 28C17.1049 28 16.9996 28.1053 16.9996 28.236V29.764C16.9996 29.8947 17.1049 30 17.2356 30H20.7636C20.8943 30 20.9996 29.8947 20.9996 29.764V28.236C20.9996 28.1053 20.8943 28 20.7636 28H17.2356ZM14.9996 28.236C14.9996 27.0007 16.0003 26 17.2356 26H20.7636C21.9989 26 22.9996 27.0007 22.9996 28.236V29.764C22.9996 30.9993 21.9989 32 20.7636 32H17.2356C16.0003 32 14.9996 30.9993 14.9996 29.764V28.236Z" fill="#666DE9"/>
<path fill-rule="evenodd" clip-rule="evenodd" d="M28.2356 28C28.1049 28 27.9996 28.1053 27.9996 28.236V29.764C27.9996 29.8947 28.1049 30 28.2356 30H31.7636C31.8943 30 31.9996 29.8947 31.9996 29.764V28.236C31.9996 28.1053 31.8943 28 31.7636 28H28.2356ZM25.9996 28.236C25.9996 27.0007 27.0003 26 28.2356 26H31.7636C32.9989 26 33.9996 27.0007 33.9996 28.236V29.764C33.9996 30.9993 32.9989 32 31.7636 32H28.2356C27.0003 32 25.9996 30.9993 25.9996 29.764V28.236Z" fill="#666DE9"/>
<path fill-rule="evenodd" clip-rule="evenodd" d="M39.2356 28C39.1049 28 38.9996 28.1053 38.9996 28.236V29.764C38.9996 29.8947 39.1049 30 39.2356 30H42.7636C42.8943 30 42.9996 29.8947 42.9996 29.764V28.236C42.9996 28.1053 42.8943 28 42.7636 28H39.2356ZM36.9996 28.236C36.9996 27.0007 38.0003 26 39.2356 26H42.7636C43.9989 26 44.9996 27.0007 44.9996 28.236V29.764C44.9996 30.9993 43.9989 32 42.7636 32H39.2356C38.0003 32 36.9996 30.9993 36.9996 29.764V28.236Z" fill="#666DE9"/>
<path fill-rule="evenodd" clip-rule="evenodd" d="M39.2356 36C39.1049 36 38.9996 36.1053 38.9996 36.236V37.764C38.9996 37.8947 39.1049 38 39.2356 38H42.7636C42.8943 38 42.9996 37.8947 42.9996 37.764V36.236C42.9996 36.1053 42.8943 36 42.7636 36H39.2356ZM36.9996 36.236C36.9996 35.0007 38.0003 34 39.2356 34H42.7636C43.9989 34 44.9996 35.0007 44.9996 36.236V37.764C44.9996 38.9993 43.9989 40 42.7636 40H39.2356C38.0003 40 36.9996 38.9993 36.9996 37.764V36.236Z" fill="#666DE9"/>
<path fill-rule="evenodd" clip-rule="evenodd" d="M28.2356 36C28.1049 36 27.9996 36.1053 27.9996 36.236V37.764C27.9996 37.8947 28.1049 38 28.2356 38H31.7636C31.8943 38 31.9996 37.8947 31.9996 37.764V36.236C31.9996 36.1053 31.8943 36 31.7636 36H28.2356ZM25.9996 36.236C25.9996 35.0007 27.0003 34 28.2356 34H31.7636C32.9989 34 33.9996 35.0007 33.9996 36.236V37.764C33.9996 38.9993 32.9989 40 31.7636 40H28.2356C27.0003 40 25.9996 38.9993 25.9996 37.764V36.236Z" fill="#666DE9"/>
<path fill-rule="evenodd" clip-rule="evenodd" d="M17.2356 36C17.1049 36 16.9996 36.1053 16.9996 36.236V37.764C16.9996 37.8947 17.1049 38 17.2356 38H20.7636C20.8943 38 20.9996 37.8947 20.9996 37.764V36.236C20.9996 36.1053 20.8943 36 20.7636 36H17.2356ZM14.9996 36.236C14.9996 35.0007 16.0003 34 17.2356 34H20.7636C21.9989 34 22.9996 35.0007 22.9996 36.236V37.764C22.9996 38.9993 21.9989 40 20.7636 40H17.2356C16.0003 40 14.9996 38.9993 14.9996 37.764V36.236Z" fill="#666DE9"/>
<path fill-rule="evenodd" clip-rule="evenodd" d="M17.2356 44C17.1049 44 16.9996 44.1053 16.9996 44.236V45.764C16.9996 45.8947 17.1049 46 17.2356 46H20.7636C20.8943 46 20.9996 45.8947 20.9996 45.764V44.236C20.9996 44.1053 20.8943 44 20.7636 44H17.2356ZM14.9996 44.236C14.9996 43.0007 16.0003 42 17.2356 42H20.7636C21.9989 42 22.9996 43.0007 22.9996 44.236V45.764C22.9996 46.9993 21.9989 48 20.7636 48H17.2356C16.0003 48 14.9996 46.9993 14.9996 45.764V44.236Z" fill="#666DE9"/>
<path fill-rule="evenodd" clip-rule="evenodd" d="M28.2356 44C28.1049 44 27.9996 44.1053 27.9996 44.236V45.764C27.9996 45.8947 28.1049 46 28.2356 46H31.7636C31.8943 46 31.9996 45.8947 31.9996 45.764V44.236C31.9996 44.1053 31.8943 44 31.7636 44H28.2356ZM25.9996 44.236C25.9996 43.0007 27.0003 42 28.2356 42H31.7636C32.9989 42 33.9996 43.0007 33.9996 44.236V45.764C33.9996 46.9993 32.9989 48 31.7636 48H28.2356C27.0003 48 25.9996 46.9993 25.9996 45.764V44.236Z" fill="#666DE9"/>
<path fill-rule="evenodd" clip-rule="evenodd" d="M39.2356 44C39.1049 44 38.9996 44.1053 38.9996 44.236V45.764C38.9996 45.8947 39.1049 46 39.2356 46H42.7636C42.8943 46 42.9996 45.8947 42.9996 45.764V44.236C42.9996 44.1053 42.8943 44 42.7636 44H39.2356ZM36.9996 44.236C36.9996 43.0007 38.0003 42 39.2356 42H42.7636C43.9989 42 44.9996 43.0007 44.9996 44.236V45.764C44.9996 46.9993 43.9989 48 42.7636 48H39.2356C38.0003 48 36.9996 46.9993 36.9996 45.764V44.236Z" fill="#666DE9"/>
<path fill-rule="evenodd" clip-rule="evenodd" d="M39.2356 52C39.1049 52 38.9996 52.1053 38.9996 52.236V53.764C38.9996 53.8947 39.1049 54 39.2356 54H42.7636C42.8943 54 42.9996 53.8947 42.9996 53.764V52.236C42.9996 52.1053 42.8943 52 42.7636 52H39.2356ZM36.9996 52.236C36.9996 51.0007 38.0003 50 39.2356 50H42.7636C43.9989 50 44.9996 51.0007 44.9996 52.236V53.764C44.9996 54.9993 43.9989 56 42.7636 56H39.2356C38.0003 56 36.9996 54.9993 36.9996 53.764V52.236Z" fill="#666DE9"/>
<path fill-rule="evenodd" clip-rule="evenodd" d="M28.2356 52C28.1049 52 27.9996 52.1053 27.9996 52.236V53.764C27.9996 53.8947 28.1049 54 28.2356 54H31.7636C31.8943 54 31.9996 53.8947 31.9996 53.764V52.236C31.9996 52.1053 31.8943 52 31.7636 52H28.2356ZM25.9996 52.236C25.9996 51.0007 27.0003 50 28.2356 50H31.7636C32.9989 50 33.9996 51.0007 33.9996 52.236V53.764C33.9996 54.9993 32.9989 56 31.7636 56H28.2356C27.0003 56 25.9996 54.9993 25.9996 53.764V52.236Z" fill="#666DE9"/>
<path fill-rule="evenodd" clip-rule="evenodd" d="M17.2356 52C17.1049 52 16.9996 52.1053 16.9996 52.236V53.764C16.9996 53.8947 17.1049 54 17.2356 54H20.7636C20.8943 54 20.9996 53.8947 20.9996 53.764V52.236C20.9996 52.1053 20.8943 52 20.7636 52H17.2356ZM14.9996 52.236C14.9996 51.0007 16.0003 50 17.2356 50H20.7636C21.9989 50 22.9996 51.0007 22.9996 52.236V53.764C22.9996 54.9993 21.9989 56 20.7636 56H17.2356C16.0003 56 14.9996 54.9993 14.9996 53.764V52.236Z" fill="#666DE9"/>
<path fill-rule="evenodd" clip-rule="evenodd" d="M27.6353 11C27.2832 11 26.9993 11.2847 26.9993 11.635V16.365C26.9993 16.7153 27.2832 17 27.6353 17H28.3643C28.715 17 28.9993 16.7157 28.9993 16.365V11.635C28.9993 11.2843 28.715 11 28.3643 11H27.6353ZM24.9993 11.635C24.9993 10.1793 26.1794 9 27.6353 9H28.3643C29.8196 9 30.9993 10.1797 30.9993 11.635V16.365C30.9993 17.8203 29.8196 19 28.3643 19H27.6353C26.1794 19 24.9993 17.8207 24.9993 16.365V11.635Z" fill="#666DE9"/>
<path fill-rule="evenodd" clip-rule="evenodd" d="M39.6353 11C39.2832 11 38.9993 11.2847 38.9993 11.635V16.365C38.9993 16.7153 39.2832 17 39.6353 17H40.3643C40.715 17 40.9993 16.7157 40.9993 16.365V11.635C40.9993 11.2843 40.715 11 40.3643 11H39.6353ZM36.9993 11.635C36.9993 10.1793 38.1794 9 39.6353 9H40.3643C41.8196 9 42.9993 10.1797 42.9993 11.635V16.365C42.9993 17.8203 41.8196 19 40.3643 19H39.6353C38.1794 19 36.9993 17.8207 36.9993 16.365V11.635Z" fill="#666DE9"/>
<path fill-rule="evenodd" clip-rule="evenodd" d="M34.9996 18C34.9996 18.552 34.5516 19 33.9996 19C33.4476 19 32.9996 18.552 32.9996 18C32.9996 17.448 33.4476 17 33.9996 17C34.5516 17 34.9996 17.448 34.9996 18Z" fill="#666DE9"/>
<path fill-rule="evenodd" clip-rule="evenodd" d="M22.7067 9.29289C23.0972 9.68342 23.0972 10.3166 22.7067 10.7071L19.7067 13.7071C19.3162 14.0976 18.683 14.0976 18.2925 13.7071C17.902 13.3166 17.902 12.6834 18.2925 12.2929L21.2925 9.29289C21.683 8.90237 22.3162 8.90237 22.7067 9.29289Z" fill="#666DE9"/>
<path fill-rule="evenodd" clip-rule="evenodd" d="M21.9996 9C22.5519 9 22.9996 9.44771 22.9996 10V18C22.9996 18.5523 22.5519 19 21.9996 19C21.4473 19 20.9996 18.5523 20.9996 18V10C20.9996 9.44771 21.4473 9 21.9996 9Z" fill="#666DE9"/>
</svg>
