<svg width="60" height="60" viewBox="0 0 60 60" fill="none" xmlns="http://www.w3.org/2000/svg">
<path d="M57 58H3C1.3 58 0 56.7 0 55V17C0 16.4 0.4 16 1 16H59C59.6 16 60 16.4 60 17V55C60 56.7 58.7 58 57 58ZM2 18V55C2 55.6 2.4 56 3 56H57C57.6 56 58 55.6 58 55V18H2Z" fill="#666DE9"/>
<path d="M59 18H1C0.4 18 0 17.6 0 17V9C0 7.3 1.3 6 3 6H57C58.7 6 60 7.3 60 9V17C60 17.6 59.6 18 59 18ZM2 16H58V9C58 8.4 57.6 8 57 8H3C2.4 8 2 8.4 2 9V16Z" fill="#666DE9"/>
<path d="M52 12C51.4 12 51 11.6 51 11C51 10.4 51.4 10 52 10C53.7 10 55 8.7 55 7C55 5.3 53.7 4 52 4C50.3 4 49 5.3 49 7C49 7.6 48.6 8 48 8C47.4 8 47 7.6 47 7C47 4.2 49.2 2 52 2C54.8 2 57 4.2 57 7C57 9.8 54.8 12 52 12Z" fill="#666DE9"/>
<path d="M41 12C40.4 12 40 11.6 40 11C40 10.4 40.4 10 41 10C42.7 10 44 8.7 44 7C44 5.3 42.7 4 41 4C39.3 4 38 5.3 38 7C38 7.6 37.6 8 37 8C36.4 8 36 7.6 36 7C36 4.2 38.2 2 41 2C43.8 2 46 4.2 46 7C46 9.8 43.8 12 41 12Z" fill="#666DE9"/>
<path d="M30 12C29.4 12 29 11.6 29 11C29 10.4 29.4 10 30 10C31.7 10 33 8.7 33 7C33 5.3 31.7 4 30 4C28.3 4 27 5.3 27 7C27 7.6 26.6 8 26 8C25.4 8 25 7.6 25 7C25 4.2 27.2 2 30 2C32.8 2 35 4.2 35 7C35 9.8 32.8 12 30 12Z" fill="#666DE9"/>
<path d="M19 12C18.4 12 18 11.6 18 11C18 10.4 18.4 10 19 10C20.7 10 22 8.7 22 7C22 5.3 20.7 4 19 4C17.3 4 16 5.3 16 7C16 7.6 15.6 8 15 8C14.4 8 14 7.6 14 7C14 4.2 16.2 2 19 2C21.8 2 24 4.2 24 7C24 9.8 21.8 12 19 12Z" fill="#666DE9"/>
<path d="M8 12C7.4 12 7 11.6 7 11C7 10.4 7.4 10 8 10C9.7 10 11 8.7 11 7C11 5.3 9.7 4 8 4C6.3 4 5 5.3 5 7C5 7.6 4.6 8 4 8C3.4 8 3 7.6 3 7C3 4.2 5.2 2 8 2C10.8 2 13 4.2 13 7C13 9.8 10.8 12 8 12Z" fill="#666DE9"/>
<path d="M15 30H9C8.4 30 8 29.6 8 29V23C8 22.4 8.4 22 9 22H15C15.6 22 16 22.4 16 23V29C16 29.6 15.6 30 15 30ZM10 28H14V24H10V28Z" fill="#666DE9"/>
<path d="M27 30H21C20.4 30 20 29.6 20 29V23C20 22.4 20.4 22 21 22H27C27.6 22 28 22.4 28 23V29C28 29.6 27.6 30 27 30ZM22 28H26V24H22V28Z" fill="#666DE9"/>
<path d="M39 30H33C32.4 30 32 29.6 32 29V23C32 22.4 32.4 22 33 22H39C39.6 22 40 22.4 40 23V29C40 29.6 39.6 30 39 30ZM34 28H38V24H34V28Z" fill="#666DE9"/>
<path d="M51 30H45C44.4 30 44 29.6 44 29V23C44 22.4 44.4 22 45 22H51C51.6 22 52 22.4 52 23V29C52 29.6 51.6 30 51 30ZM46 28H50V24H46V28Z" fill="#666DE9"/>
<path d="M15 41H9C8.4 41 8 40.6 8 40V34C8 33.4 8.4 33 9 33H15C15.6 33 16 33.4 16 34V40C16 40.6 15.6 41 15 41ZM10 39H14V35H10V39Z" fill="#666DE9"/>
<path d="M27 41H21C20.4 41 20 40.6 20 40V34C20 33.4 20.4 33 21 33H27C27.6 33 28 33.4 28 34V40C28 40.6 27.6 41 27 41ZM22 39H26V35H22V39Z" fill="#666DE9"/>
<path d="M39 41H33C32.4 41 32 40.6 32 40V34C32 33.4 32.4 33 33 33H39C39.6 33 40 33.4 40 34V40C40 40.6 39.6 41 39 41ZM34 39H38V35H34V39Z" fill="#666DE9"/>
<path d="M51 41H45C44.4 41 44 40.6 44 40V34C44 33.4 44.4 33 45 33H51C51.6 33 52 33.4 52 34V40C52 40.6 51.6 41 51 41ZM46 39H50V35H46V39Z" fill="#666DE9"/>
<path d="M15 52H9C8.4 52 8 51.6 8 51V45C8 44.4 8.4 44 9 44H15C15.6 44 16 44.4 16 45V51C16 51.6 15.6 52 15 52ZM10 50H14V46H10V50Z" fill="#666DE9"/>
<path d="M27 52H21C20.4 52 20 51.6 20 51V45C20 44.4 20.4 44 21 44H27C27.6 44 28 44.4 28 45V51C28 51.6 27.6 52 27 52ZM22 50H26V46H22V50Z" fill="#666DE9"/>
<path d="M39 52H33C32.4 52 32 51.6 32 51V45C32 44.4 32.4 44 33 44H39C39.6 44 40 44.4 40 45V51C40 51.6 39.6 52 39 52ZM34 50H38V46H34V50Z" fill="#666DE9"/>
<path d="M51 52H45C44.4 52 44 51.6 44 51V45C44 44.4 44.4 44 45 44H51C51.6 44 52 44.4 52 45V51C52 51.6 51.6 52 51 52ZM46 50H50V46H46V50Z" fill="#666DE9"/>
</svg>
