<svg width="56" height="56" viewBox="0 0 56 56" fill="none" xmlns="http://www.w3.org/2000/svg">
<path d="M13.1047 55.1468C12.7047 55.1468 12.4047 55.0468 12.1047 54.7468C11.6047 54.3468 11.4047 53.6468 11.6047 52.9468L11.9047 52.0468L10.5047 52.4468C9.80474 52.5468 9.30474 52.4468 8.90474 52.0468C8.50474 51.6468 8.30474 51.0468 8.50474 50.5468L8.90474 49.0468L7.50474 49.4468C6.80474 49.5468 6.30474 49.4468 5.90474 49.0468C5.50474 48.6468 5.30474 48.0468 5.50474 47.5468L5.90474 46.0468L4.50474 46.4468C3.80474 46.5468 3.30474 46.4468 2.90474 46.0468C2.50474 45.6468 2.30474 45.0468 2.50474 44.5468L2.90474 43.1468L2.10474 43.4468C1.50474 43.6468 0.904738 43.4468 0.404738 42.9468C-0.0952625 42.4468 -0.0952625 41.6468 0.204738 41.0468C0.404738 40.7468 2.20474 37.3468 4.30474 36.5468C4.40474 36.5468 4.40474 36.5468 4.50474 36.4468L12.2047 35.3468C10.6047 30.0468 12.8047 23.4468 17.7047 18.4468C22.7047 13.4468 29.4047 11.4468 34.7047 13.0468L36.5047 4.34682V4.24682C37.0047 2.94682 38.7047 1.74682 40.8047 0.346818L40.9047 0.246818C41.5047 -0.153182 42.3047 -0.0531821 42.8047 0.446818C43.3047 0.846818 43.5047 1.54682 43.3047 2.24682L43.0047 3.14682L44.3047 2.74682C45.0047 2.64682 45.5047 2.74682 45.9047 3.14682C46.3047 3.54682 46.5047 4.14682 46.3047 4.64682L45.8047 6.24682L47.3047 5.74682C48.0047 5.64682 48.5047 5.74682 48.9047 6.14682C49.3047 6.54682 49.5047 7.14682 49.3047 7.64682L48.9047 9.14682L50.3047 8.74682C51.0047 8.64682 51.5047 8.74682 51.9047 9.14682C52.3047 9.54682 52.5047 10.1468 52.3047 10.6468L52.1047 12.1468L52.9047 11.8468C53.6047 11.6468 54.3047 11.8468 54.7047 12.3468C55.1047 12.9468 55.2047 13.6468 54.9047 14.2468C53.4047 16.5468 52.2047 18.1468 51.0047 18.5468H50.9047L42.1047 20.3468C43.5047 25.5468 41.4047 32.1468 36.5047 36.9468C31.6047 41.8468 25.1047 43.9468 19.9047 42.5468L18.7047 50.3468C18.7047 50.4468 18.7047 50.5468 18.6047 50.5468C17.9047 52.1468 15.5047 53.7468 14.1047 54.6468C13.7047 55.0468 13.4047 55.1468 13.1047 55.1468ZM12.4047 49.9468C12.9047 49.9468 13.3047 50.1468 13.6047 50.4468C14.0047 50.8468 14.2047 51.4468 14.0047 51.9468V52.0468L13.8047 52.6468C15.2047 51.7468 16.2047 50.7468 16.6047 50.1468L18.0047 41.2468C18.0047 40.9468 18.2047 40.6468 18.5047 40.5468C18.8047 40.3468 19.1047 40.3468 19.4047 40.4468C24.1047 42.2468 30.4047 40.3468 35.0047 35.6468C39.6047 30.9468 41.6047 24.6468 39.8047 20.0468C39.7047 19.7468 39.7047 19.4468 39.9047 19.2468C40.1047 19.0468 40.3047 18.8468 40.6047 18.7468L50.4047 16.7468C50.9047 16.5468 51.7047 15.6468 52.7047 14.0468L52.1047 14.2468H52.0047C51.4047 14.3468 50.9047 14.1468 50.5047 13.8468C50.1047 13.4468 49.9047 12.8468 50.1047 12.3468L50.5047 10.8468L49.1047 11.2468C48.4047 11.3468 47.9047 11.2468 47.5047 10.8468C47.1047 10.4468 46.9047 9.84682 47.1047 9.34682L47.4047 7.84682L46.0047 8.24682C45.9047 8.24682 45.8047 8.24682 45.7047 8.24682C45.0047 8.24682 44.3047 7.84682 44.0047 7.34682C43.7047 6.94682 43.7047 6.44682 43.9047 6.04682L44.3047 4.74682L42.9047 5.14682H42.8047C42.2047 5.24682 41.7047 5.04682 41.3047 4.74682C40.9047 4.34682 40.7047 3.74682 40.9047 3.24682C40.9047 3.14682 40.9047 3.14682 40.9047 3.04682L41.1047 2.64682C40.1047 3.34682 38.8047 4.24682 38.5047 4.84682L36.5047 14.5468C36.4047 14.8468 36.3047 15.0468 36.0047 15.2468C35.7047 15.3468 35.4047 15.4468 35.1047 15.2468C30.5047 13.2468 24.0047 15.1468 19.2047 19.8468C14.5047 24.5468 12.5047 31.1468 14.5047 35.7468C14.6047 36.0468 14.6047 36.3468 14.5047 36.6468C14.3047 36.9468 14.1047 37.1468 13.8047 37.1468L5.00474 38.4468C4.30474 38.7468 3.30474 39.8468 2.50474 41.2468L3.10474 40.9468C3.70474 40.7468 4.40474 40.9468 4.80474 41.4468C5.20474 41.9468 5.30474 42.5468 5.10474 43.0468L4.70474 44.3468L6.10474 43.9468C6.80474 43.8468 7.30474 43.9468 7.70474 44.3468C8.10474 44.7468 8.30474 45.3468 8.10474 45.8468L7.70474 47.3468L9.10474 46.9468C9.80474 46.8468 10.3047 46.9468 10.7047 47.3468C11.1047 47.7468 11.3047 48.3468 11.1047 48.8468L10.7047 50.3468L12.1047 49.9468C12.2047 49.9468 12.3047 49.9468 12.4047 49.9468ZM41.5047 1.44682C41.5047 1.54682 41.5047 1.54682 41.5047 1.44682V1.44682Z" fill="#666DE9"/>
<path d="M30.0047 41.2468C29.7047 41.2468 29.5047 41.1468 29.3047 40.9468L25.5047 37.1468C23.4047 36.8468 21.4047 35.8468 20.0047 34.4468C18.5047 32.9468 17.6047 31.0468 17.3047 28.9468L13.7047 25.3468C13.4047 25.0468 13.3047 24.5468 13.5047 24.1468C14.7047 21.9468 16.1047 20.0468 17.7047 18.4468C19.4047 16.7468 21.2047 15.3468 23.1047 14.4468C23.5047 14.2468 24.0047 14.3468 24.3047 14.6468L28.0047 18.3468C30.1047 18.6468 32.0047 19.5468 33.5047 21.0468C35.0047 22.5468 35.9047 24.4468 36.2047 26.5468L40.1047 30.4468C40.4047 30.7468 40.5047 31.2468 40.3047 31.6468C39.2047 33.6468 37.9047 35.4468 36.3047 36.9468C34.7047 38.5468 32.7047 39.9468 30.6047 41.1468C30.3047 41.2468 30.2047 41.2468 30.0047 41.2468ZM15.6047 24.4468L18.9047 27.7468C19.1047 27.9468 19.2047 28.1468 19.2047 28.3468C19.3047 29.6468 19.8047 31.4468 21.4047 33.0468C23.0047 34.6468 24.8047 35.1468 26.1047 35.2468C26.3047 35.2468 26.5047 35.3468 26.7047 35.5468L30.2047 39.0468C31.9047 38.0468 33.5047 36.8468 34.8047 35.5468C36.0047 34.3468 37.1047 32.9468 38.1047 31.3468L34.5047 27.7468C34.3047 27.5468 34.2047 27.3468 34.2047 27.1468C34.1047 25.8468 33.6047 24.0468 32.0047 22.4468C30.4047 20.8468 28.6047 20.3468 27.3047 20.2468C27.1047 20.2468 26.9047 20.1468 26.7047 19.9468L23.3047 16.5468C21.9047 17.3468 20.5047 18.4468 19.1047 19.8468C17.8047 21.1468 16.6047 22.7468 15.6047 24.4468Z" fill="#666DE9"/>
<path d="M26.7047 33.3468C25.2047 33.3468 23.9047 32.7468 22.8047 31.7468C20.6047 29.5468 20.6047 26.1468 22.8047 23.9468C25.0047 21.8468 28.4047 21.8468 30.6047 23.9468C32.8047 26.1468 32.8047 29.5468 30.6047 31.7468C29.5047 32.7468 28.2047 33.3468 26.7047 33.3468ZM26.7047 24.2468C25.8047 24.2468 24.9047 24.5468 24.2047 25.2468C22.8047 26.6468 22.8047 28.8468 24.2047 30.2468C25.6047 31.6468 27.8047 31.6468 29.2047 30.2468C30.6047 28.8468 30.6047 26.6468 29.2047 25.2468C28.5047 24.6468 27.6047 24.2468 26.7047 24.2468Z" fill="#666DE9"/>
<path d="M12.6047 47.9468C12.1047 47.9468 11.7047 47.5468 11.6047 47.0468C11.4047 44.9468 11.9047 42.8468 13.0047 41.1468C12.6047 41.1468 12.2047 41.2468 11.8047 41.2468C11.4047 41.2468 11.0047 41.2468 10.5047 41.3468C10.0047 41.4468 9.50474 40.9468 9.40474 40.4468C9.40474 39.9468 9.80474 39.4468 10.3047 39.3468C10.8047 39.3468 11.3047 39.2468 11.7047 39.2468C13.0047 39.2468 13.6047 39.2468 14.5047 38.1468C14.9047 37.7468 15.5047 37.6468 15.9047 38.0468C16.1047 38.1468 16.2047 38.3468 16.2047 38.5468C16.5047 38.5468 16.8047 38.7468 16.9047 39.0468C17.2047 39.5468 17.0047 40.1468 16.5047 40.4468C14.5047 41.5468 13.2047 44.2468 13.5047 46.9468C13.6047 47.4468 13.2047 47.9468 12.6047 48.0468C12.7047 47.9468 12.6047 47.9468 12.6047 47.9468ZM38.2047 17.9468C38.0047 17.9468 37.7047 17.8468 37.6047 17.7468C37.4047 17.6468 37.3047 17.4468 37.3047 17.2468C37.0047 17.2468 36.7047 17.0468 36.6047 16.7468C36.3047 16.2468 36.5047 15.6468 37.0047 15.3468C39.0047 14.2468 40.3047 11.5468 40.0047 8.84682C39.9047 8.34682 40.3047 7.84682 40.9047 7.74682C41.5047 7.74682 41.9047 8.04682 42.0047 8.64682C42.2047 10.7468 41.7047 12.8468 40.6047 14.5468C41.0047 14.5468 41.4047 14.4468 41.8047 14.4468C42.2047 14.4468 42.6047 14.4468 43.1047 14.3468C43.7047 14.3468 44.1047 14.7468 44.2047 15.2468C44.2047 15.7468 43.8047 16.2468 43.3047 16.3468C42.8047 16.3468 42.3047 16.4468 41.9047 16.4468C40.6047 16.4468 40.0047 16.4468 39.1047 17.5468C38.8047 17.8468 38.5047 17.9468 38.2047 17.9468Z" fill="#666DE9"/>
</svg>
