<svg width="60" height="60" viewBox="0 0 60 60" fill="none" xmlns="http://www.w3.org/2000/svg">
<path d="M16 25.3C16.2 25.3 16.3 25.3 16.5 25.4L17.7 26.1L17.5 24.5C17.5 24.2 17.6 23.9 17.8 23.6L18.9 22.5L17.3 22.2C17 22.1 16.7 21.9 16.6 21.6L16 20.4L15.4 21.8C15.3 22.1 15 22.3 14.7 22.4L13.1 22.7L14.2 23.8C14.4 24 14.5 24.3 14.5 24.7L14.3 26.3L15.5 25.6C15.7 25.3 15.8 25.3 16 25.3ZM19 29C18.8 29 18.7 29 18.5 28.9L16 27.4L13.5 28.8C13.2 29 12.8 29 12.4 28.8C12.1 28.6 11.9 28.2 12 27.8L12.4 24.7L10.3 22.7C10 22.4 9.9 22.1 10 21.7C10.1 21.3 10.4 21.1 10.8 21L13.8 20.4L15.1 17.6C15.3 17.2 15.6 17 16 17C16.4 17 16.7 17.2 16.9 17.6L18.2 20.4L21.2 21C21.6 21.1 21.9 21.3 22 21.7C22.1 22.1 22 22.4 21.7 22.7L19.6 24.7L20 27.8C20.1 28.2 19.9 28.6 19.6 28.8C19.4 28.9 19.2 29 19 29Z" fill="#666DE9"/>
<path d="M44 25.3C44.2 25.3 44.3 25.3 44.5 25.4L45.7 26.1L45.5 24.5C45.5 24.2 45.6 23.9 45.8 23.6L46.9 22.5L45.3 22.2C45 22.1 44.7 21.9 44.6 21.6L44 20.4L43.4 21.8C43.3 22.1 43 22.3 42.7 22.4L41.1 22.7L42.2 23.8C42.4 24 42.5 24.3 42.5 24.7L42.3 26.3L43.5 25.6C43.7 25.3 43.8 25.3 44 25.3ZM47 29C46.8 29 46.7 29 46.5 28.9L44 27.4L41.5 28.8C41.2 29 40.8 29 40.4 28.8C40.1 28.6 39.9 28.2 40 27.8L40.4 24.7L38.3 22.7C38 22.4 37.9 22.1 38 21.7C38.1 21.3 38.4 21.1 38.8 21L41.8 20.4L43.1 17.6C43.3 17.2 43.6 17 44 17C44.4 17 44.7 17.2 44.9 17.6L46.2 20.4L49.2 21C49.6 21.1 49.9 21.3 50 21.7C50.1 22.1 50 22.4 49.7 22.7L47.6 24.7L48 27.8C48.1 28.2 47.9 28.6 47.6 28.8C47.4 28.9 47.2 29 47 29Z" fill="#666DE9"/>
<path d="M30 25.3C30.2 25.3 30.3 25.3 30.5 25.4L31.7 26.1L31.5 24.5C31.5 24.2 31.6 23.9 31.8 23.6L32.9 22.5L31.3 22.2C31 22.1 30.7 21.9 30.6 21.6L30 20.4L29.4 21.8C29.3 22.1 29 22.3 28.7 22.4L27.1 22.7L28.2 23.8C28.4 24 28.5 24.3 28.5 24.7L28.3 26.3L29.5 25.6C29.7 25.3 29.8 25.3 30 25.3ZM33 29C32.8 29 32.7 29 32.5 28.9L30 27.4L27.5 28.8C27.2 29 26.8 29 26.4 28.8C26.1 28.6 25.9 28.2 26 27.8L26.4 24.7L24.3 22.7C24 22.4 23.9 22.1 24 21.7C24.1 21.3 24.4 21.1 24.8 21L27.8 20.4L29.1 17.6C29.3 17.2 29.6 17 30 17C30.4 17 30.7 17.2 30.9 17.6L32.2 20.4L35.2 21C35.6 21.1 35.9 21.3 36 21.7C36.1 22.1 36 22.4 35.7 22.7L33.6 24.7L34 27.8C34.1 28.2 33.9 28.6 33.6 28.8C33.4 28.9 33.2 29 33 29Z" fill="#666DE9"/>
<path d="M2 51H58V9H2V51ZM59 53H1C0.4 53 0 52.6 0 52V8C0 7.4 0.4 7 1 7H59C59.6 7 60 7.4 60 8V52C60 52.6 59.6 53 59 53Z" fill="#666DE9"/>
<path d="M23 40H14C13.4 40 13 39.6 13 39C13 38.4 13.4 38 14 38H23C23.6 38 24 38.4 24 39C24 39.6 23.6 40 23 40Z" fill="#666DE9"/>
<path d="M20 44H14C13.4 44 13 43.6 13 43C13 42.4 13.4 42 14 42H20C20.6 42 21 42.4 21 43C21 43.6 20.6 44 20 44Z" fill="#666DE9"/>
<path d="M9.9 47H50.1C50.5 45 52 43.5 54 43.1V16.9C52 16.5 50.5 15 50.1 13H9.9C9.5 15 8 16.5 6 16.9V43.1C8 43.5 9.5 45 9.9 47ZM51 49H9C8.4 49 8 48.6 8 48C8 46.3 6.7 45 5 45C4.4 45 4 44.6 4 44V16C4 15.4 4.4 15 5 15C6.7 15 8 13.7 8 12C8 11.4 8.4 11 9 11H51C51.6 11 52 11.4 52 12C52 13.7 53.3 15 55 15C55.6 15 56 15.4 56 16V44C56 44.6 55.6 45 55 45C53.3 45 52 46.3 52 48C52 48.6 51.6 49 51 49Z" fill="#666DE9"/>
<path d="M46 44H37C36.4 44 36 43.6 36 43C36 42.4 36.4 42 37 42H46C46.6 42 47 42.4 47 43C47 43.6 46.6 44 46 44Z" fill="#666DE9"/>
<path d="M46 41C45.7 41 45.5 40.9 45.3 40.7L43.7 39.1C42.7 39.3 41.2 39.3 39.9 38.2L37.6 39.8C37.1 40.1 36.5 40 36.2 39.5C35.9 39 36 38.4 36.5 38.1L39.5 36.1C39.9 35.8 40.5 35.9 40.8 36.3C42.2 37.8 43.6 37.1 43.6 37.1C44 36.9 44.5 37 44.8 37.3L46.8 39.3C47.2 39.7 47.2 40.3 46.8 40.7C46.5 40.9 46.3 41 46 41Z" fill="#666DE9"/>
</svg>
