<svg width="60" height="60" viewBox="0 0 60 60" fill="none" xmlns="http://www.w3.org/2000/svg">
<path fill-rule="evenodd" clip-rule="evenodd" d="M30 36C30.5523 36 31 36.4477 31 37V51C31 51.5523 30.5523 52 30 52C29.4477 52 29 51.5523 29 51V37C29 36.4477 29.4477 36 30 36Z" fill="#666DE9"/>
<path fill-rule="evenodd" clip-rule="evenodd" d="M16 44C12.6863 44 10 46.6863 10 50V51C10 51.5523 9.55228 52 9 52C8.44772 52 8 51.5523 8 51V50C8 45.5817 11.5817 42 16 42H44C48.4183 42 52 45.5817 52 50V51C52 51.5523 51.5523 52 51 52C50.4477 52 50 51.5523 50 51V50C50 46.6863 47.3137 44 44 44H16Z" fill="#666DE9"/>
<path fill-rule="evenodd" clip-rule="evenodd" d="M14 24C13.4483 24 13 24.4483 13 25V35C13 35.5517 13.4483 36 14 36H46C46.5517 36 47 35.5517 47 35V25C47 24.4483 46.5517 24 46 24H14ZM11 25C11 23.3437 12.3437 22 14 22H46C47.6563 22 49 23.3437 49 25V35C49 36.6563 47.6563 38 46 38H14C12.3437 38 11 36.6563 11 35V25Z" fill="#666DE9"/>
<path fill-rule="evenodd" clip-rule="evenodd" d="M2 51C2 50.4477 2.44772 50 3 50H15C15.5523 50 16 50.4477 16 51V59C16 59.5523 15.5523 60 15 60H3C2.44772 60 2 59.5523 2 59V51ZM4 52V58H14V52H4Z" fill="#666DE9"/>
<path fill-rule="evenodd" clip-rule="evenodd" d="M23 51C23 50.4477 23.4477 50 24 50H36C36.5523 50 37 50.4477 37 51V59C37 59.5523 36.5523 60 36 60H24C23.4477 60 23 59.5523 23 59V51ZM25 52V58H35V52H25Z" fill="#666DE9"/>
<path fill-rule="evenodd" clip-rule="evenodd" d="M44 51C44 50.4477 44.4477 50 45 50H57C57.5523 50 58 50.4477 58 51V59C58 59.5523 57.5523 60 57 60H45C44.4477 60 44 59.5523 44 59V51ZM46 52V58H56V52H46Z" fill="#666DE9"/>
<path fill-rule="evenodd" clip-rule="evenodd" d="M30 8C30.5523 8 31 8.44771 31 9V23C31 23.5523 30.5523 24 30 24C29.4477 24 29 23.5523 29 23V9C29 8.44771 29.4477 8 30 8Z" fill="#666DE9"/>
<path fill-rule="evenodd" clip-rule="evenodd" d="M9 8C9.55228 8 10 8.44771 10 9V10C10 13.3137 12.6863 16 16 16H44C47.3137 16 50 13.3137 50 10V9C50 8.44771 50.4477 8 51 8C51.5523 8 52 8.44771 52 9V10C52 14.4183 48.4183 18 44 18H16C11.5817 18 8 14.4183 8 10V9C8 8.44771 8.44772 8 9 8Z" fill="#666DE9"/>
<path fill-rule="evenodd" clip-rule="evenodd" d="M44 1C44 0.447715 44.4477 0 45 0H57C57.5523 0 58 0.447715 58 1V9C58 9.55229 57.5523 10 57 10H45C44.4477 10 44 9.55229 44 9V1ZM46 2V8H56V2H46Z" fill="#666DE9"/>
<path fill-rule="evenodd" clip-rule="evenodd" d="M23 1C23 0.447715 23.4477 0 24 0H36C36.5523 0 37 0.447715 37 1V9C37 9.55229 36.5523 10 36 10H24C23.4477 10 23 9.55229 23 9V1ZM25 2V8H35V2H25Z" fill="#666DE9"/>
<path fill-rule="evenodd" clip-rule="evenodd" d="M2 1C2 0.447715 2.44772 0 3 0H15C15.5523 0 16 0.447715 16 1V9C16 9.55229 15.5523 10 15 10H3C2.44772 10 2 9.55229 2 9V1ZM4 2V8H14V2H4Z" fill="#666DE9"/>
</svg>
