<svg width="60" height="60" viewBox="0 0 60 60" fill="none" xmlns="http://www.w3.org/2000/svg">
<path d="M40 39H4C1.8 39 0 37.2 0 35V13C0 10.8 1.8 9 4 9H5.5C6.2 9 6.8 9.3 7.1 9.8L9.5 13H40C42.2 13 44 14.8 44 17V35C44 37.2 42.2 39 40 39ZM5.5 11H4C2.9 11 2 11.9 2 13V35C2 36.1 2.9 37 4 37H40C41.1 37 42 36.1 42 35V17C42 15.9 41.1 15 40 15H9C8.7 15 8.4 14.9 8.2 14.6L5.5 11Z" fill="#666DE9"/>
<path d="M59 37H55C54.8 37 54.6 36.9 54.5 36.8L46.5 31.8C46.2 31.7 46 31.3 46 31V21C46 20.7 46.2 20.3 46.5 20.2L54.5 15.2C54.7 15.1 54.8 15 55 15H59C59.6 15 60 15.4 60 16V36C60 36.6 59.6 37 59 37ZM55.3 35H58V17H55.3L48 21.6V30.5L55.3 35Z" fill="#666DE9"/>
<path d="M47 32H43C42.4 32 42 31.6 42 31V21C42 20.4 42.4 20 43 20H47C47.6 20 48 20.4 48 21V31C48 31.6 47.6 32 47 32ZM44 30H46V22H44V30Z" fill="#666DE9"/>
<path d="M37.5 10H28.5C26.5 10 25 8.5 25 6.5V3.5C25 1.5 26.5 0 28.5 0H37.5C39.5 0 41 1.5 41 3.5V6.5C41 8.5 39.5 10 37.5 10ZM28.5 2C27.7 2 27 2.7 27 3.5V6.5C27 7.3 27.7 8 28.5 8H37.5C38.3 8 39 7.3 39 6.5V3.5C39 2.7 38.3 2 37.5 2H28.5Z" fill="#666DE9"/>
<path d="M16.5 15H11C10.6 15 10.2 14.8 10.1 14.4C9.9 14 10 13.6 10.3 13.3L20.5 2.3C20.7 2.1 20.9 2 21.2 2H26C26.6 2 27 2.4 27 3V7C27 7.6 26.6 8 26 8H23.4L17.2 14.7C17 14.9 16.8 15 16.5 15ZM13.3 13H16.1L22.3 6.3C22.5 6.1 22.7 6 23 6H25V4H21.6L13.3 13Z" fill="#666DE9"/>
<path d="M34 25C31.8 25 30 23.2 30 21C30 18.8 31.8 17 34 17C36.2 17 38 18.8 38 21C38 23.2 36.2 25 34 25ZM34 19C32.9 19 32 19.9 32 21C32 22.1 32.9 23 34 23C35.1 23 36 22.1 36 21C36 19.9 35.1 19 34 19Z" fill="#666DE9"/>
<path d="M38 35H22C21.4 35 21 34.6 21 34V30C21 29.4 21.4 29 22 29H38C38.6 29 39 29.4 39 30V34C39 34.6 38.6 35 38 35ZM23 33H37V31H23V33Z" fill="#666DE9"/>
<path d="M5 31H1C0.4 31 0 30.6 0 30C0 29.4 0.4 29 1 29H5C5.6 29 6 29.4 6 30C6 30.6 5.6 31 5 31Z" fill="#666DE9"/>
<path d="M7 35H1C0.4 35 0 34.6 0 34C0 33.4 0.4 33 1 33H7C7.6 33 8 33.4 8 34C8 34.6 7.6 35 7 35Z" fill="#666DE9"/>
<path d="M30 43H14C13.4 43 13 42.6 13 42V38C13 37.4 13.4 37 14 37H30C30.6 37 31 37.4 31 38V42C31 42.6 30.6 43 30 43ZM15 41H29V39H15V41Z" fill="#666DE9"/>
<path d="M9 60C8.7 60 8.5 59.9 8.3 59.7C7.9 59.3 7.9 58.7 8.3 58.3L21.3 45.3C21.7 44.9 22.3 44.9 22.7 45.3C23.1 45.7 23.1 46.3 22.7 46.7L9.7 59.7C9.5 59.9 9.3 60 9 60Z" fill="#666DE9"/>
<path d="M22 60C21.4 60 21 59.6 21 59V46C21 45.4 21.4 45 22 45C22.6 45 23 45.4 23 46V59C23 59.6 22.6 60 22 60Z" fill="#666DE9"/>
<path d="M35 60C34.7 60 34.5 59.9 34.3 59.7L21.3 46.7C20.9 46.3 20.9 45.7 21.3 45.3C21.7 44.9 22.3 44.9 22.7 45.3L35.7 58.3C36.1 58.7 36.1 59.3 35.7 59.7C35.5 59.9 35.3 60 35 60Z" fill="#666DE9"/>
<path d="M26 47H18C17.4 47 17 46.6 17 46V42C17 41.4 17.4 41 18 41H26C26.6 41 27 41.4 27 42V46C27 46.6 26.6 47 26 47ZM19 45H25V43H19V45Z" fill="#666DE9"/>
</svg>
