<svg width="54" height="54" viewBox="0 0 54 54" fill="none" xmlns="http://www.w3.org/2000/svg">
<path d="M27 41C19.3 41 13 34.7 13 27C13 19.3 19.3 13 27 13C34.7 13 41 19.3 41 27C41 34.7 34.7 41 27 41ZM27 15C20.4 15 15 20.4 15 27C15 33.6 20.4 39 27 39C33.6 39 39 33.6 39 27C39 20.4 33.6 15 27 15Z" fill="#666DE9"/>
<path d="M30.2 54H23.8C22.3 54 21 52.7 21 51.2V49.2C19.1 48.7 17.2 48 15.5 47L14.1 48.4C13 49.5 11.2 49.5 10.2 48.4L5.6 43.8C5.1 43.3 4.8 42.6 4.8 41.8C4.8 41.1 5.1 40.4 5.6 39.8L7.1 38.3C6.2 36.6 5.4 34.8 4.9 32.9H2.9C1.3 33 0 31.7 0 30.2V23.8C0 22.3 1.3 21 2.8 21H4.8C5.3 19.1 6 17.2 7 15.5L5.6 14.1C4.5 13 4.5 11.3 5.6 10.2L10.2 5.6C11.3 4.5 13 4.5 14.1 5.6L15.6 7.1C17.3 6.2 19.1 5.4 21 4.9V2.9C21 1.3 22.3 0 23.8 0H30.2C31.7 0 33 1.3 33 2.8V4.8C34.9 5.3 36.8 6 38.5 7L39.9 5.6C41 4.5 42.8 4.5 43.8 5.6L48.4 10.2C48.9 10.7 49.2 11.4 49.2 12.2C49.2 12.9 48.9 13.6 48.4 14.2L47 15.6C47.9 17.3 48.7 19.1 49.2 21H51.2C52.7 21 54 22.3 54 23.8V30.2C54 31.7 52.7 33 51.2 33H49.2C48.7 34.9 48 36.8 47 38.5L48.4 39.9C48.9 40.4 49.2 41.1 49.2 41.9C49.2 42.6 48.9 43.3 48.4 43.9L43.8 48.5C42.7 49.6 40.9 49.6 39.9 48.5L38.4 47C36.7 47.9 34.9 48.7 33 49.2V51.2C33 52.7 31.7 54 30.2 54ZM15.4 44.7C15.6 44.7 15.8 44.8 15.9 44.9C17.8 46.1 19.9 47 22.2 47.5C22.7 47.6 23 48 23 48.5V51.3C23 51.7 23.4 52.1 23.8 52.1H30.2C30.6 52.1 31 51.7 31 51.3V48.5C31 48 31.3 47.6 31.8 47.5C34.1 46.9 36.2 46.1 38.1 44.9C38.5 44.7 39 44.7 39.3 45.1L41.3 47.1C41.6 47.4 42.1 47.4 42.4 47.1L47 42.5C47.1 42.4 47.2 42.2 47.2 42C47.2 41.8 47.1 41.6 47 41.5L45 39.5C44.7 39.2 44.6 38.6 44.9 38.2C46.1 36.3 47 34.2 47.5 31.9C47.6 31.4 48 31.1 48.5 31.1H51.3C51.7 31.1 52.1 30.7 52.1 30.3V23.9C52.1 23.5 51.7 23.1 51.3 23.1H48.5C48 23.1 47.6 22.8 47.5 22.3C46.9 20 46.1 17.9 44.9 16C44.7 15.6 44.7 15.1 45.1 14.8L47.1 12.8C47.2 12.7 47.3 12.5 47.3 12.3C47.3 12.1 47.2 11.9 47.1 11.8L42.4 7C42.1 6.7 41.6 6.7 41.3 7L39.3 9C39 9.3 38.4 9.4 38 9.1C36.1 7.9 34 7 31.7 6.5C31.2 6.4 30.9 6 30.9 5.5V2.8C31 2.4 30.6 2 30.2 2H23.8C23.4 2 23 2.4 23 2.8V5.6C23 6.1 22.7 6.5 22.2 6.6C19.9 7.2 17.8 8 15.9 9.2C15.5 9.4 15 9.3 14.7 9L12.7 7C12.4 6.7 11.9 6.7 11.6 7L7 11.6C6.7 11.9 6.7 12.4 7 12.7L9 14.7C9.3 15 9.4 15.6 9.1 16C7.9 17.9 7 20 6.5 22.3C6.4 22.8 6 23.1 5.5 23.1H2.8C2.4 23 2 23.4 2 23.8V30.2C2 30.6 2.4 31 2.8 31H5.6C6.1 31 6.5 31.3 6.6 31.8C7.1 34 8 36.2 9.2 38.1C9.4 38.5 9.3 39 9 39.3L7 41.3C6.9 41.4 6.8 41.6 6.8 41.8C6.8 42 6.9 42.2 7 42.3L11.6 46.9C11.9 47.2 12.4 47.2 12.7 46.9L14.7 44.9C14.9 44.8 15.1 44.7 15.4 44.7Z" fill="#666DE9"/>
<path d="M27 37C21.5 37 17 32.5 17 27C17 21.5 21.5 17 27 17C32.5 17 37 21.5 37 27C37 32.5 32.5 37 27 37ZM27 19C22.6 19 19 22.6 19 27C19 31.4 22.6 35 27 35C31.4 35 35 31.4 35 27C35 22.6 31.4 19 27 19Z" fill="#666DE9"/>
</svg>
