<svg width="60" height="60" viewBox="0 0 60 60" fill="none" xmlns="http://www.w3.org/2000/svg">
<path d="M31.8 23C28.9 23 26.1 22.7 22.8 22.1L22.7 20.2L27 18.8C27 18.8 27 18.8 27.1 18.8V18.7C25 17.8 24.2 16.5 23.9 15.3C23.4 15.1 23.1 14.8 22.8 14.4C22.6 14 22.5 13.5 22.7 13L22.9 12.4C23 11.8 23.6 11.3 24.4 10.9C24.6 10.4 25 10 25.4 9.5C25.6 9.3 25.7 9.2 25.8 9.1L25.9 9V8.2C25.9 7.7 26.2 7.3 26.6 7.2C27 7 27.4 7 27.7 7.3H27.8C28 7.4 28.1 7.5 28.3 7.5C29.1 7.8 30 7.9 31.3 7.9H31.8C34.3 7.9 37.6 8.2 39.1 10.7C39.6 10.9 40.4 11.4 40.7 12.2L40.9 12.8C41.1 13.3 41 13.8 40.8 14.2C40.6 14.6 40.2 14.9 39.7 15.1C39.4 16.2 38.5 17.6 36.5 18.5V18.6L44.1 21.4L40.6 22.1C37.9 22.7 34.9 23 31.8 23ZM27.4 20.8C30.6 21.1 33.6 21.1 36.4 20.8L35.7 20.6C35.1 20.4 34.4 19.8 34.4 19L34.2 17.3L34.9 17C36.6 16.4 37.5 15.5 37.7 14.3L37.8 13.6L38.5 13.4C38.7 13.4 38.8 13.3 38.9 13.3L38.7 12.7C38.7 12.7 38.5 12.6 38.1 12.4L37.7 12.3L37.5 11.9C37.1 11 36 9.9 31.8 9.9H31.3C29.9 9.9 28.8 9.8 27.9 9.5C27.8 9.9 27.6 10.1 27.2 10.5C27.1 10.6 27 10.7 26.8 10.9C26.4 11.3 26.2 11.7 26 12L25.8 12.5L25.3 12.6C24.9 12.7 24.7 12.9 24.7 12.9L24.5 13.4C24.6 13.4 24.7 13.5 24.9 13.5L25.6 13.7L25.7 14.4C25.9 15.7 26.8 16.6 28.4 17.1L29.2 17.3L29 19.1C29 19.8 28.4 20.3 28 20.5L27.7 20.6L27.4 20.8Z" fill="#666DE9"/>
<path d="M33 60C17.9 60 6 54 6 46.4V38H8C8 44.4 19.7 50 33 50C46.3 50 58 44.4 58 38H60V46.4C60 54 48.1 60 33 60ZM8 43.2V46.4C8 52.7 19.4 58 33 58C46.6 58 58 52.7 58 46.4V43.3C54 48.4 44.3 52 33 52C21.9 52 12.1 48.3 8 43.2Z" fill="#666DE9"/>
<path d="M11 54.1C10.4 54.1 10 53.7 10 53.1V44.8C10 44.2 10.4 43.8 11 43.8C11.6 43.8 12 44.2 12 44.8V53.1C12 53.7 11.6 54.1 11 54.1Z" fill="#666DE9"/>
<path d="M55 54.1C54.4 54.1 54 53.7 54 53.1V44.8C54 44.2 54.4 43.8 55 43.8C55.6 43.8 56 44.2 56 44.8V53.1C56 53.7 55.6 54.1 55 54.1Z" fill="#666DE9"/>
<path d="M15 56.5C14.4 56.5 14 56.1 14 55.5V47.3C14 46.7 14.4 46.3 15 46.3C15.6 46.3 16 46.7 16 47.3V55.5C16 56.1 15.6 56.5 15 56.5Z" fill="#666DE9"/>
<path d="M51 56.5C50.4 56.5 50 56.1 50 55.5V47.3C50 46.7 50.4 46.3 51 46.3C51.6 46.3 52 46.7 52 47.3V55.5C52 56.1 51.6 56.5 51 56.5Z" fill="#666DE9"/>
<path d="M19 58C18.4 58 18 57.6 18 57V48.9C18 48.3 18.4 47.9 19 47.9C19.6 47.9 20 48.3 20 48.9V57C20 57.6 19.6 58 19 58Z" fill="#666DE9"/>
<path d="M47 58C46.4 58 46 57.6 46 57V48.9C46 48.3 46.4 47.9 47 47.9C47.6 47.9 48 48.3 48 48.9V57C48 57.6 47.6 58 47 58Z" fill="#666DE9"/>
<path d="M24 59.3C23.4 59.3 23 58.9 23 58.3V50.2C23 49.6 23.4 49.2 24 49.2C24.6 49.2 25 49.6 25 50.2V58.3C25 58.9 24.6 59.3 24 59.3Z" fill="#666DE9"/>
<path d="M42 59.2C41.4 59.2 41 58.8 41 58.2V50.1C41 49.5 41.4 49.1 42 49.1C42.6 49.1 43 49.5 43 50.1V58.2C43 58.8 42.6 59.2 42 59.2Z" fill="#666DE9"/>
<path d="M30 59.9C29.4 59.9 29 59.5 29 58.9V50.9C29 50.3 29.4 49.9 30 49.9C30.6 49.9 31 50.3 31 50.9V58.9C31 59.5 30.6 59.9 30 59.9Z" fill="#666DE9"/>
<path d="M36 59.9C35.4 59.9 35 59.5 35 58.9V50.9C35 50.3 35.4 49.9 36 49.9C36.6 49.9 37 50.3 37 50.9V58.9C37 59.5 36.6 59.9 36 59.9Z" fill="#666DE9"/>
<path d="M32 27C17.1 27 5 20.7 5 13C5 5.6 16.6 0 32 0C47.4 0 59 5.6 59 13C59 20.7 46.9 27 32 27ZM32 2C18.2 2 7 6.9 7 13C7 19.4 18.7 25 32 25C45.3 25 57 19.4 57 13C57 6.9 45.8 2 32 2Z" fill="#666DE9"/>
<path d="M32 23C18.4 23 9 17.7 9 13C9 8.6 17.6 4 32 4C46.4 4 55 8.6 55 13C55 17.7 45.6 23 32 23ZM32 6C25.9 6 20.3 6.9 16.2 8.5C12.4 10.1 11 11.9 11 13C11 15.7 18.4 21 32 21C45.6 21 53 15.7 53 13C53 10.5 46 6 32 6Z" fill="#666DE9"/>
<path d="M32 35C16.9 35 5 29 5 21.4V13H7C7 19.4 18.7 25 32 25C45.3 25 57 19.4 57 13H59V21.4C59 29 47.1 35 32 35ZM7 18.2V21.4C7 27.7 18.4 33 32 33C45.6 33 57 27.7 57 21.4V18.3C53 23.4 43.3 27 32 27C20.9 27 11.1 23.3 7 18.2Z" fill="#666DE9"/>
<path d="M10 29.1C9.4 29.1 9 28.7 9 28.1V19.8C9 19.2 9.4 18.8 10 18.8C10.6 18.8 11 19.2 11 19.8V28.1C11 28.7 10.6 29.1 10 29.1Z" fill="#666DE9"/>
<path d="M54 29.1C53.4 29.1 53 28.7 53 28.1V19.8C53 19.2 53.4 18.8 54 18.8C54.6 18.8 55 19.2 55 19.8V28.1C55 28.7 54.6 29.1 54 29.1Z" fill="#666DE9"/>
<path d="M14 31.5C13.4 31.5 13 31.1 13 30.5V22.3C13 21.7 13.4 21.3 14 21.3C14.6 21.3 15 21.7 15 22.3V30.5C15 31.1 14.6 31.5 14 31.5Z" fill="#666DE9"/>
<path d="M50 31.5C49.4 31.5 49 31.1 49 30.5V22.3C49 21.7 49.4 21.3 50 21.3C50.6 21.3 51 21.7 51 22.3V30.5C51 31.1 50.6 31.5 50 31.5Z" fill="#666DE9"/>
<path d="M18 33C17.4 33 17 32.6 17 32V23.9C17 23.3 17.4 22.9 18 22.9C18.6 22.9 19 23.3 19 23.9V32C19 32.6 18.6 33 18 33Z" fill="#666DE9"/>
<path d="M46 33C45.4 33 45 32.6 45 32V23.9C45 23.3 45.4 22.9 46 22.9C46.6 22.9 47 23.3 47 23.9V32C47 32.6 46.6 33 46 33Z" fill="#666DE9"/>
<path d="M23 34.3C22.4 34.3 22 33.9 22 33.3V25.2C22 24.6 22.4 24.2 23 24.2C23.6 24.2 24 24.6 24 25.2V33.3C24 33.9 23.6 34.3 23 34.3Z" fill="#666DE9"/>
<path d="M41 34.2C40.4 34.2 40 33.8 40 33.2V25.1C40 24.5 40.4 24.1 41 24.1C41.6 24.1 42 24.5 42 25.1V33.2C42 33.8 41.6 34.2 41 34.2Z" fill="#666DE9"/>
<path d="M29 34.9C28.4 34.9 28 34.5 28 33.9V25.9C28 25.3 28.4 24.9 29 24.9C29.6 24.9 30 25.3 30 25.9V33.9C30 34.5 29.6 34.9 29 34.9Z" fill="#666DE9"/>
<path d="M35 34.9C34.4 34.9 34 34.5 34 33.9V25.9C34 25.3 34.4 24.9 35 24.9C35.6 24.9 36 25.3 36 25.9V33.9C36 34.5 35.6 34.9 35 34.9Z" fill="#666DE9"/>
<path d="M5 39.1C4.4 39.1 4 38.7 4 38.1V29.8C4 29.2 4.4 28.8 5 28.8C5.6 28.8 6 29.2 6 29.8V38.1C6 38.7 5.6 39.1 5 39.1Z" fill="#666DE9"/>
<path d="M49 39.1C48.4 39.1 48 38.7 48 38.1V31C48 30.4 48.4 30 49 30C49.6 30 50 30.4 50 31V38.1C50 38.7 49.6 39.1 49 39.1Z" fill="#666DE9"/>
<path d="M9 41.5C8.4 41.5 8 41.1 8 40.5V32.3C8 31.7 8.4 31.3 9 31.3C9.6 31.3 10 31.7 10 32.3V40.5C10 41.1 9.6 41.5 9 41.5Z" fill="#666DE9"/>
<path d="M45 41.5C44.4 41.5 44 41.1 44 40.5V32.3C44 31.7 44.4 31.3 45 31.3C45.6 31.3 46 31.7 46 32.3V40.5C46 41.1 45.6 41.5 45 41.5Z" fill="#666DE9"/>
<path d="M13 43C12.4 43 12 42.6 12 42V33.9C12 33.3 12.4 32.9 13 32.9C13.6 32.9 14 33.3 14 33.9V42C14 42.6 13.6 43 13 43Z" fill="#666DE9"/>
<path d="M41 43C40.4 43 40 42.6 40 42V33.9C40 33.3 40.4 32.9 41 32.9C41.6 32.9 42 33.3 42 33.9V42C42 42.6 41.6 43 41 43Z" fill="#666DE9"/>
<path d="M18 44.3C17.4 44.3 17 43.9 17 43.3V35.2C17 34.6 17.4 34.2 18 34.2C18.6 34.2 19 34.6 19 35.2V43.3C19 43.9 18.6 44.3 18 44.3Z" fill="#666DE9"/>
<path d="M36 44.2C35.4 44.2 35 43.8 35 43.2V35.1C35 34.5 35.4 34.1 36 34.1C36.6 34.1 37 34.5 37 35.1V43.2C37 43.8 36.6 44.2 36 44.2Z" fill="#666DE9"/>
<path d="M24 44.9C23.4 44.9 23 44.5 23 43.9V35.9C23 35.3 23.4 34.9 24 34.9C24.6 34.9 25 35.3 25 35.9V43.9C25 44.5 24.6 44.9 24 44.9Z" fill="#666DE9"/>
<path d="M30 44.9C29.4 44.9 29 44.5 29 43.9V35.9C29 35.3 29.4 34.9 30 34.9C30.6 34.9 31 35.3 31 35.9V43.9C31 44.5 30.6 44.9 30 44.9Z" fill="#666DE9"/>
<path d="M33 48C25.2 48 18.2 46.3 13.7 43.2L14.5 41.4C18.5 42.4 22.6 43 26.9 43C38.5 43 48.8 39.2 51.4 33.9L51.9 32.8L52.9 33.5C54.9 34.9 55.9 36.5 55.9 38C56 42.7 46.6 48 33 48ZM22.7 44.8C25.8 45.6 29.3 46 33 46C46.6 46 54 40.7 54 38C54 37.3 53.5 36.6 52.7 35.8C49.1 41.3 38.8 45 27 45C25.5 45 24.1 44.9 22.7 44.8Z" fill="#666DE9"/>
<path d="M33 52C19.6 52 8.1 46.8 6.2 39.9L5.6 37.6L7.7 38.8C12.5 41.4 19.6 43 27 43C40.8 43 52 37.8 52 31.4V28.5L53.5 29.3C57.8 31.7 60 34.7 60 38C60 45.7 47.9 52 33 52ZM9.4 41.8C12.7 46.1 21.4 50 33 50C46.3 50 58 44.4 58 38C58 35.4 56 33.4 54 32C53.4 39.4 41.8 45 27 45C20.5 45 14.3 43.9 9.4 41.8Z" fill="#666DE9"/>
<path d="M27 36.9C12.1 36.9 0 30.6 0 22.9C0 19.9 1.8 17.2 5.5 14.9L7 13.9V21.4C7 27.7 18.4 33 32 33C36.5 33 40.9 32.4 44.5 31.3L45.2 33.2C40.2 35.6 33.8 36.9 27 36.9ZM5 17.7C3 19.3 2 21.1 2 22.9C2 29.3 13.7 34.9 27 34.9C27.5 34.9 27.9 34.9 28.4 34.9C15 34 5 28.4 5 21.4V17.7Z" fill="#666DE9"/>
<path d="M27 45C11.9 45 0 39 0 31.4V23H2C2 29.4 13.7 35 27 35C33.4 35 39.6 33.8 44.5 31.5L44.7 31.4C47.9 30.5 50.6 29.3 52.5 27.9L54.1 26.8V31.3C54 39 42.1 45 27 45ZM2 28.2V31.4C2 37.7 13.4 43 27 43C40.6 43 52 37.7 52 31.4V30.6C50.1 31.7 47.9 32.6 45.2 33.3C40.2 35.7 33.7 37 27 37C15.9 37 6.1 33.3 2 28.2Z" fill="#666DE9"/>
</svg>
