<svg width="60" height="60" viewBox="0 0 60 60" fill="none" xmlns="http://www.w3.org/2000/svg">
<path fill-rule="evenodd" clip-rule="evenodd" d="M5 8C5 7.44772 5.44772 7 6 7H17C17.5523 7 18 7.44772 18 8C18 8.55228 17.5523 9 17 9H6C5.44772 9 5 8.55228 5 8Z" fill="#666DE9"/>
<path fill-rule="evenodd" clip-rule="evenodd" d="M20 8C20 7.44772 20.4477 7 21 7H30C30.5523 7 31 7.44772 31 8C31 8.55228 30.5523 9 30 9H21C20.4477 9 20 8.55228 20 8Z" fill="#666DE9"/>
<path fill-rule="evenodd" clip-rule="evenodd" d="M5 12C5 11.4477 5.44772 11 6 11H12C12.5523 11 13 11.4477 13 12C13 12.5523 12.5523 13 12 13H6C5.44772 13 5 12.5523 5 12Z" fill="#666DE9"/>
<path fill-rule="evenodd" clip-rule="evenodd" d="M15 12C15 11.4477 15.4477 11 16 11H25C25.5523 11 26 11.4477 26 12C26 12.5523 25.5523 13 25 13H16C15.4477 13 15 12.5523 15 12Z" fill="#666DE9"/>
<path fill-rule="evenodd" clip-rule="evenodd" d="M28 12C28 11.4477 28.4477 11 29 11H30C30.5523 11 31 11.4477 31 12C31 12.5523 30.5523 13 30 13H29C28.4477 13 28 12.5523 28 12Z" fill="#666DE9"/>
<path fill-rule="evenodd" clip-rule="evenodd" d="M19.1707 56H40.8293C40.4174 54.8349 39.3061 54 38 54H22C20.6939 54 19.5826 54.8349 19.1707 56ZM17 57C17 54.2387 19.2387 52 22 52H38C40.7613 52 43 54.2387 43 57C43 57.5523 42.5523 58 42 58H18C17.4477 58 17 57.5523 17 57Z" fill="#666DE9"/>
<path fill-rule="evenodd" clip-rule="evenodd" d="M24.0299 44.7575C24.1411 44.3123 24.5411 44 25 44H35C35.4589 44 35.8588 44.3123 35.9701 44.7575L37.9701 52.7575C38.0448 53.0562 37.9777 53.3727 37.7882 53.6154C37.5987 53.8581 37.3079 54 37 54H23C22.6921 54 22.4013 53.8581 22.2118 53.6154C22.0223 53.3727 21.9552 53.0562 22.0299 52.7575L24.0299 44.7575ZM25.7808 46L24.2808 52H35.7192L34.2192 46H25.7808Z" fill="#666DE9"/>
<path fill-rule="evenodd" clip-rule="evenodd" d="M4.5 4C3.11928 4 2 5.11928 2 6.5V36H58V6.5C58 5.11928 56.8807 4 55.5 4H4.5ZM0 6.5C0 4.01472 2.01472 2 4.5 2H55.5C57.9853 2 60 4.01472 60 6.5V37C60 37.5523 59.5523 38 59 38H1C0.447715 38 0 37.5523 0 37V6.5Z" fill="#666DE9"/>
<path fill-rule="evenodd" clip-rule="evenodd" d="M0 37C0 36.4477 0.447715 36 1 36H59C59.5523 36 60 36.4477 60 37V41.5C60 43.9853 57.9853 46 55.5 46H4.5C2.01472 46 0 43.9853 0 41.5V37ZM2 38V41.5C2 42.8807 3.11928 44 4.5 44H55.5C56.8807 44 58 42.8807 58 41.5V38H2Z" fill="#666DE9"/>
<path fill-rule="evenodd" clip-rule="evenodd" d="M20 20C18.8953 20 18 20.8953 18 22C18 23.1047 18.8953 24 20 24C21.1047 24 22 23.1047 22 22C22 20.8953 21.1047 20 20 20ZM16 22C16 19.7907 17.7907 18 20 18C22.2093 18 24 19.7907 24 22C24 24.2093 22.2093 26 20 26C17.7907 26 16 24.2093 16 22Z" fill="#666DE9"/>
<path fill-rule="evenodd" clip-rule="evenodd" d="M40 15C38.8953 15 38 15.8953 38 17C38 18.1047 38.8953 19 40 19C41.1047 19 42 18.1047 42 17C42 15.8953 41.1047 15 40 15ZM36 17C36 14.7907 37.7907 13 40 13C42.2093 13 44 14.7907 44 17C44 19.2093 42.2093 21 40 21C37.7907 21 36 19.2093 36 17Z" fill="#666DE9"/>
<path fill-rule="evenodd" clip-rule="evenodd" d="M50 25C48.8953 25 48 25.8953 48 27C48 28.1047 48.8953 29 50 29C51.1047 29 52 28.1047 52 27C52 25.8953 51.1047 25 50 25ZM46 27C46 24.7907 47.7907 23 50 23C52.2093 23 54 24.7907 54 27C54 29.2093 52.2093 31 50 31C47.7907 31 46 29.2093 46 27Z" fill="#666DE9"/>
<path fill-rule="evenodd" clip-rule="evenodd" d="M27 27C25.8953 27 25 27.8953 25 29C25 30.1047 25.8953 31 27 31C28.1047 31 29 30.1047 29 29C29 27.8953 28.1047 27 27 27ZM23 29C23 26.7907 24.7907 25 27 25C29.2093 25 31 26.7907 31 29C31 31.2093 29.2093 33 27 33C24.7907 33 23 31.2093 23 29Z" fill="#666DE9"/>
<path fill-rule="evenodd" clip-rule="evenodd" d="M13 27C11.8953 27 11 27.8953 11 29C11 30.1047 11.8953 31 13 31C14.1047 31 15 30.1047 15 29C15 27.8953 14.1047 27 13 27ZM9 29C9 26.7907 10.7907 25 13 25C15.2093 25 17 26.7907 17 29C17 31.2093 15.2093 33 13 33C10.7907 33 9 31.2093 9 29Z" fill="#666DE9"/>
<path fill-rule="evenodd" clip-rule="evenodd" d="M18.1527 22.8473C18.5432 23.2378 18.5432 23.871 18.1527 24.2615L15.2617 27.1525C14.8712 27.543 14.238 27.543 13.8475 27.1525C13.457 26.762 13.457 26.1288 13.8475 25.7383L16.7385 22.8473C17.129 22.4568 17.7622 22.4568 18.1527 22.8473Z" fill="#666DE9"/>
<path fill-rule="evenodd" clip-rule="evenodd" d="M21.8475 22.8475C22.238 22.457 22.8712 22.457 23.2617 22.8475L26.1527 25.7385C26.5432 26.129 26.5432 26.7622 26.1527 27.1527C25.7622 27.5432 25.129 27.5432 24.7385 27.1527L21.8475 24.2617C21.457 23.8712 21.457 23.238 21.8475 22.8475Z" fill="#666DE9"/>
<path fill-rule="evenodd" clip-rule="evenodd" d="M38.1527 17.8473C38.5432 18.2378 38.5432 18.871 38.1527 19.2615L29.8287 27.5855C29.4382 27.976 28.805 27.976 28.4145 27.5855C28.024 27.195 28.024 26.5618 28.4145 26.1713L36.7385 17.8473C37.129 17.4568 37.7622 17.4568 38.1527 17.8473Z" fill="#666DE9"/>
<path fill-rule="evenodd" clip-rule="evenodd" d="M41.8475 17.8475C42.238 17.457 42.8712 17.457 43.2617 17.8475L49.1527 23.7385C49.5432 24.129 49.5432 24.7622 49.1527 25.1527C48.7622 25.5432 48.129 25.5432 47.7385 25.1527L41.8475 19.2617C41.457 18.8712 41.457 18.238 41.8475 17.8475Z" fill="#666DE9"/>
</svg>
