<svg width="60" height="60" viewBox="0 0 60 60" fill="none" xmlns="http://www.w3.org/2000/svg">
<path fill-rule="evenodd" clip-rule="evenodd" d="M31.0001 43C31.0001 43.553 30.5531 44 30.0001 44C29.4471 44 29.0001 43.553 29.0001 43C29.0001 42.447 29.4471 42 30.0001 42C30.5531 42 31.0001 42.447 31.0001 43Z" fill="#666DE9"/>
<path fill-rule="evenodd" clip-rule="evenodd" d="M4.4981 2C3.1211 2 2.0001 3.121 2.0001 4.498V43.502C2.0001 44.879 3.1211 46 4.4981 46H55.5021C56.8791 46 58.0001 44.879 58.0001 43.502V4.498C58.0001 3.121 56.8791 2 55.5021 2H4.4981ZM55.5021 48H4.4981C2.0181 48 0.0001 45.982 0.0001 43.502V4.498C0.0001 2.018 2.0181 0 4.4981 0H55.5021C57.9821 0 60.0001 2.018 60.0001 4.498V43.502C60.0001 45.982 57.9821 48 55.5021 48Z" fill="#666DE9"/>
<path fill-rule="evenodd" clip-rule="evenodd" d="M2 38H58L58.0001 4.498C58.0001 3.121 56.8791 2 55.5021 2H4.4981C3.1211 2 2.0001 3.121 2.0001 4.498L2 38ZM60 40H0L0.0001 4.498C0.0001 2.018 2.0181 0 4.4981 0H55.5021C57.9821 0 60.0001 2.018 60.0001 4.498L60 40Z" fill="#666DE9"/>
<path fill-rule="evenodd" clip-rule="evenodd" d="M19 56C18.448 56 18 56.448 18 57C18 57.552 18.448 58 19 58H41C41.552 58 42 57.552 42 57C42 56.448 41.552 56 41 56H19ZM41 60H19C17.346 60 16 58.654 16 57C16 55.346 17.346 54 19 54H41C42.654 54 44 55.346 44 57C44 58.654 42.654 60 41 60Z" fill="#666DE9"/>
<path fill-rule="evenodd" clip-rule="evenodd" d="M46.0001 15C41.6631 15 38.0001 17.29 38.0001 20C38.0001 22.71 41.6631 25 46.0001 25C50.3371 25 54.0001 22.71 54.0001 20C54.0001 17.29 50.3371 15 46.0001 15ZM46.0001 27C40.3931 27 36.0001 23.925 36.0001 20C36.0001 16.075 40.3931 13 46.0001 13C51.6071 13 56.0001 16.075 56.0001 20C56.0001 23.925 51.6071 27 46.0001 27Z" fill="#666DE9"/>
<path fill-rule="evenodd" clip-rule="evenodd" d="M14 6C9.663 6 6 8.29 6 11C6 13.71 9.663 16 14 16C18.337 16 22 13.71 22 11C22 8.29 18.337 6 14 6ZM14 18C8.393 18 4 14.925 4 11C4 7.075 8.393 4 14 4C19.607 4 24 7.075 24 11C24 14.925 19.607 18 14 18Z" fill="#666DE9"/>
<path fill-rule="evenodd" clip-rule="evenodd" d="M14 24C9.663 24 6 26.29 6 29C6 31.71 9.663 34 14 34C18.337 34 22 31.71 22 29C22 26.29 18.337 24 14 24ZM14 36C8.393 36 4 32.925 4 29C4 25.075 8.393 22 14 22C19.607 22 24 25.075 24 29C24 32.925 19.607 36 14 36Z" fill="#666DE9"/>
<path fill-rule="evenodd" clip-rule="evenodd" d="M48.0001 19H44.0001C43.4471 19 43.0001 18.553 43.0001 18C43.0001 17.447 43.4471 17 44.0001 17H48.0001C48.5531 17 49.0001 17.447 49.0001 18C49.0001 18.553 48.5531 19 48.0001 19Z" fill="#666DE9"/>
<path fill-rule="evenodd" clip-rule="evenodd" d="M50.0001 23H42.0001C41.4471 23 41.0001 22.553 41.0001 22C41.0001 21.447 41.4471 21 42.0001 21H50.0001C50.5531 21 51.0001 21.447 51.0001 22C51.0001 22.553 50.5531 23 50.0001 23Z" fill="#666DE9"/>
<path fill-rule="evenodd" clip-rule="evenodd" d="M16 28H12C11.447 28 11 27.553 11 27C11 26.447 11.447 26 12 26H16C16.553 26 17 26.447 17 27C17 27.553 16.553 28 16 28Z" fill="#666DE9"/>
<path fill-rule="evenodd" clip-rule="evenodd" d="M18 32H10C9.447 32 9 31.553 9 31C9 30.447 9.447 30 10 30H18C18.553 30 19 30.447 19 31C19 31.553 18.553 32 18 32Z" fill="#666DE9"/>
<path fill-rule="evenodd" clip-rule="evenodd" d="M16 10H12C11.447 10 11 9.553 11 9C11 8.447 11.447 8 12 8H16C16.553 8 17 8.447 17 9C17 9.553 16.553 10 16 10Z" fill="#666DE9"/>
<path fill-rule="evenodd" clip-rule="evenodd" d="M18 14H10C9.447 14 9 13.553 9 13C9 12.447 9.447 12 10 12H18C18.553 12 19 12.447 19 13C19 13.553 18.553 14 18 14Z" fill="#666DE9"/>
<path fill-rule="evenodd" clip-rule="evenodd" d="M19 56C18.726 56 18.4531 55.888 18.2561 55.668C17.8871 55.256 17.9211 54.624 18.3321 54.256L20.3311 52.473C21.8601 51.394 22.5251 49.336 22.0271 47.23C21.8991 46.693 22.2321 46.154 22.7701 46.027C23.3051 45.899 23.8461 46.231 23.9731 46.77C24.6561 49.652 23.6981 52.511 21.5331 54.071L19.6681 55.744C19.4771 55.916 19.238 56 19 56Z" fill="#666DE9"/>
<path fill-rule="evenodd" clip-rule="evenodd" d="M41 56C40.762 56 40.5231 55.916 40.3321 55.744L38.4701 54.074C36.3031 52.514 35.3451 49.655 36.0261 46.77C36.1541 46.231 36.6871 45.902 37.2301 46.026C37.7681 46.154 38.1011 46.692 37.9741 47.23C37.4751 49.338 38.1421 51.396 39.6721 52.475L39.7641 52.548L41.6681 54.256C42.0791 54.624 42.1131 55.257 41.7441 55.668C41.5471 55.888 41.273 56 41 56Z" fill="#666DE9"/>
</svg>
