<svg width="50" height="59" viewBox="0 0 50 59" fill="none" xmlns="http://www.w3.org/2000/svg">
<path d="M2 28.45L12 34.25V22.65L2 16.75V28.45ZM13 37.05C12.8 37.05 12.7 37.05 12.5 36.95L0.5 29.95C0.2 29.75 0 29.45 0 29.05V15.05C0 14.65 0.2 14.35 0.5 14.15C0.8 13.95 1.2 13.95 1.5 14.15L13.5 21.15C13.8 21.35 14 21.65 14 22.05V36.05C14 36.45 13.8 36.75 13.5 36.95C13.3 37.05 13.2 37.05 13 37.05Z" fill="#666DE9"/>
<path d="M14 22.65V34.35L24 28.55V16.75L14 22.65ZM13 37.05C12.8 37.05 12.7 37.05 12.5 36.95C12.2 36.75 12 36.45 12 36.05V22.05C12 21.65 12.2 21.35 12.5 21.15L24.5 14.15C24.8 13.95 25.2 13.95 25.5 14.15C25.8 14.35 26 14.65 26 15.05V29.05C26 29.45 25.8 29.75 25.5 29.95L13.5 36.95C13.3 37.05 13.2 37.05 13 37.05Z" fill="#666DE9"/>
<path d="M3 15.05L13 20.85L23 15.05L13 9.25L3 15.05ZM13 23.05C12.8 23.05 12.7 23.05 12.5 22.95L0.5 15.95C0.2 15.75 0 15.45 0 15.05C0 14.65 0.2 14.35 0.5 14.15L12.5 7.15C12.8 6.95 13.2 6.95 13.5 7.15L25.5 14.15C25.8 14.35 26 14.65 26 15.05C26 15.45 25.8 15.75 25.5 15.95L13.5 22.95C13.3 23.05 13.2 23.05 13 23.05Z" fill="#666DE9"/>
<path d="M26 28.45L36 34.25V22.65L26 16.85V28.45ZM37 37.05C36.8 37.05 36.7 37.05 36.5 36.95L24.5 29.95C24.2 29.75 24 29.45 24 29.05V15.05C24 14.65 24.2 14.35 24.5 14.15C24.8 13.95 25.2 13.95 25.5 14.15L37.5 21.15C37.8 21.35 38 21.65 38 22.05V36.05C38 36.45 37.8 36.75 37.5 36.95C37.3 37.05 37.2 37.05 37 37.05Z" fill="#666DE9"/>
<path d="M38 22.65V34.35L48 28.55V16.75L38 22.65ZM37 37.05C36.8 37.05 36.7 37.05 36.5 36.95C36.2 36.75 36 36.45 36 36.05V22.05C36 21.65 36.2 21.35 36.5 21.15L48.5 14.15C48.8 13.95 49.2 13.95 49.5 14.15C49.8 14.35 50 14.65 50 15.05V29.05C50 29.45 49.8 29.75 49.5 29.95L37.5 36.95C37.3 37.05 37.2 37.05 37 37.05Z" fill="#666DE9"/>
<path d="M38 36.65V48.35L48 42.55V30.75L38 36.65ZM37 51.05C36.8 51.05 36.7 51.05 36.5 50.95C36.2 50.75 36 50.45 36 50.05V36.05C36 35.65 36.2 35.35 36.5 35.15L48.5 28.15C48.8 27.95 49.2 27.95 49.5 28.15C49.8 28.35 50 28.65 50 29.05V43.05C50 43.45 49.8 43.75 49.5 43.95L37.5 50.95C37.3 51.05 37.2 51.05 37 51.05Z" fill="#666DE9"/>
<path d="M2 42.45L12 48.25V36.65L2 30.75V42.45ZM13 51.05C12.8 51.05 12.7 51.05 12.5 50.95L0.5 43.95C0.2 43.75 0 43.45 0 43.05V29.05C0 28.65 0.2 28.35 0.5 28.15C0.8 27.95 1.2 27.95 1.5 28.15L13.5 35.15C13.8 35.35 14 35.65 14 36.05V50.05C14 50.45 13.8 50.75 13.5 50.95C13.3 51.05 13.2 51.05 13 51.05Z" fill="#666DE9"/>
<path d="M27 15.05L37 20.85L47 15.05L37 9.25L27 15.05ZM37 23.05C36.8 23.05 36.7 23.05 36.5 22.95L24.5 15.95C24.2 15.75 24 15.45 24 15.05C24 14.65 24.2 14.35 24.5 14.15L36.5 7.15C36.8 6.95 37.2 6.95 37.5 7.15L49.5 14.15C49.8 14.35 50 14.65 50 15.05C50 15.45 49.8 15.75 49.5 15.95L37.5 22.95C37.3 23.05 37.2 23.05 37 23.05Z" fill="#666DE9"/>
<path d="M14 49.45L24 55.25V43.65L14 37.85V49.45ZM25 58.05C24.8 58.05 24.7 58.05 24.5 57.95L12.5 50.95C12.2 50.75 12 50.45 12 50.05V36.05C12 35.65 12.2 35.35 12.5 35.15C12.8 34.95 13.2 34.95 13.5 35.15L25.5 42.15C25.8 42.35 26 42.65 26 43.05V57.05C26 57.45 25.8 57.75 25.5 57.95C25.3 58.05 25.2 58.05 25 58.05Z" fill="#666DE9"/>
<path d="M26 43.65V55.35L36 49.55V37.75L26 43.65ZM25 58.05C24.8 58.05 24.7 58.05 24.5 57.95C24.2 57.75 24 57.45 24 57.05V43.05C24 42.65 24.2 42.35 24.5 42.15L36.5 35.15C36.8 34.95 37.2 34.95 37.5 35.15C37.8 35.35 38 35.65 38 36.05V50.05C38 50.45 37.8 50.75 37.5 50.95L25.5 57.95C25.3 58.05 25.2 58.05 25 58.05Z" fill="#666DE9"/>
<path d="M15 36.05L25 41.85L35 36.05L25 30.25L15 36.05ZM25 44.05C24.8 44.05 24.7 44.05 24.5 43.95L12.5 36.95C12.2 36.75 12 36.45 12 36.05C12 35.65 12.2 35.35 12.5 35.15L24.5 28.15C24.8 27.95 25.2 27.95 25.5 28.15L37.5 35.15C37.8 35.35 38 35.65 38 36.05C38 36.45 37.8 36.75 37.5 36.95L25.5 43.95C25.3 44.05 25.2 44.05 25 44.05Z" fill="#666DE9"/>
<path d="M15 8.05L25 13.85L35 8.05L25 2.25L15 8.05ZM25 16.05C24.8 16.05 24.7 16.05 24.5 15.95L12.5 8.95C12.2 8.75 12 8.45 12 8.05C12 7.65 12.2 7.35 12.5 7.15L24.5 0.15C24.8 -0.05 25.2 -0.05 25.5 0.15L37.5 7.15C37.8 7.35 38 7.65 38 8.05C38 8.45 37.8 8.75 37.5 8.95L25.5 15.95C25.3 16.05 25.2 16.05 25 16.05Z" fill="#666DE9"/>
</svg>
