<svg width="60" height="60" viewBox="0 0 60 60" fill="none" xmlns="http://www.w3.org/2000/svg">
<path fill-rule="evenodd" clip-rule="evenodd" d="M10.152 3.47C10.3347 3.17762 10.6552 3 11 3H49C49.3448 3 49.6653 3.17762 49.848 3.47L59.848 19.47C60.0737 19.8312 60.0459 20.2957 59.7788 20.6273L30.7788 56.6273C30.5889 56.863 30.3026 57 30 57C29.6974 57 29.4111 56.863 29.2213 56.6273L0.22125 20.6273C-0.0459279 20.2957 -0.0737194 19.8312 0.152006 19.47L10.152 3.47ZM27.899 5H12.4301L17.2286 18.1329L27.899 5ZM15.4161 19L10.7632 6.2657L2.80425 19H15.4161ZM3.08966 21L26.9856 50.664L16.1469 21H3.08966ZM18.2762 21L29.8246 52.6063L41.5995 21H18.2762ZM43.7338 21L32.397 51.4303L56.9103 21H43.7338ZM57.1958 19H44.4789L49.2282 6.25191L57.1958 19ZM47.5603 5H32.101L42.7003 18.0453L47.5603 5ZM40.899 19L30 5.58581L19.101 19H40.899Z" fill="#666DE9"/>
</svg>
