<svg width="51" height="40" viewBox="0 0 51 40" fill="none" xmlns="http://www.w3.org/2000/svg">
<path d="M19.6 39.3851H3.4C1.6 39.3851 0 37.7851 0 35.9851V19.7851C0 17.9851 1.6 16.3851 3.4 16.3851H19.6C21.4 16.3851 23 17.9851 23 19.7851V35.9851C23 37.7851 21.4 39.3851 19.6 39.3851ZM3.4 18.3851C2.7 18.3851 2 19.0851 2 19.7851V35.9851C2 36.6851 2.7 37.3851 3.4 37.3851H19.6C20.3 37.3851 21 36.6851 21 35.9851V19.7851C21 19.0851 20.3 18.3851 19.6 18.3851H3.4Z" fill="#666DE9"/>
<path d="M8 22.3851C8 23.4851 7.1 24.3851 6 24.3851C4.9 24.3851 4 23.4851 4 22.3851C4 21.2851 4.9 20.3851 6 20.3851C7.1 20.3851 8 21.2851 8 22.3851Z" fill="#666DE9"/>
<path d="M19 22.3851C19 23.4851 18.1 24.3851 17 24.3851C15.9 24.3851 15 23.4851 15 22.3851C15 21.2851 15.9 20.3851 17 20.3851C18.1 20.3851 19 21.2851 19 22.3851Z" fill="#666DE9"/>
<path d="M8 33.3851C8 34.4851 7.1 35.3851 6 35.3851C4.9 35.3851 4 34.4851 4 33.3851C4 32.2851 4.9 31.3851 6 31.3851C7.1 31.3851 8 32.2851 8 33.3851Z" fill="#666DE9"/>
<path d="M19 33.3851C19 34.4851 18.1 35.3851 17 35.3851C15.9 35.3851 15 34.4851 15 33.3851C15 32.2851 15.9 31.3851 17 31.3851C18.1 31.3851 19 32.2851 19 33.3851Z" fill="#666DE9"/>
<path d="M31.6 27.3851C30.2 27.3851 28.9 26.5851 28.4 25.0851L23.2 9.88511C22.6 7.98511 23.5 6.18511 25.3 5.48511L40.6 0.185113C42.5 -0.414887 44.3 0.485113 45 2.28511L50.3 17.5851C50.8 19.4851 49.8 21.2851 48.1 21.8851L32.8 27.1851C32.3 27.3851 32 27.3851 31.6 27.3851ZM41.7 2.08511C41.5 2.08511 41.4 2.08511 41.2 2.18511L25.9 7.38511C25.1 7.68511 24.8 8.38511 25 9.28511L30.2 24.4851C30.5 25.2851 31.2 25.5851 32.1 25.3851L47.4 20.0851C48.2 19.8851 48.5 18.9851 48.3 18.2851L43.1 2.98511C42.8 2.38511 42.3 2.08511 41.7 2.08511Z" fill="#666DE9"/>
<path d="M31.5 9.68511C31.9 10.6851 31.3 11.8851 30.3 12.1851C29.3 12.5851 28.1 11.9851 27.8 10.9851C27.4 9.98511 28 8.78511 29 8.48511C30 8.08511 31.2 8.68511 31.5 9.68511Z" fill="#666DE9"/>
<path d="M41.9 6.08511C42.3 7.08511 41.7 8.28511 40.7 8.58511C39.7 8.88511 38.5 8.48511 38.1 7.38511C37.7 6.38511 38.3 5.18511 39.3 4.88511C40.4 4.48511 41.5 5.08511 41.9 6.08511Z" fill="#666DE9"/>
<path d="M35.1 20.0851C35.5 21.0851 34.9 22.2851 33.9 22.5851C32.9 22.9851 31.7 22.3851 31.4 21.3851C31 20.3851 31.6 19.1851 32.6 18.8851C33.6 18.4851 34.8 19.0851 35.1 20.0851Z" fill="#666DE9"/>
<path d="M13.5 28.1851C13.5 29.2851 12.6 30.1851 11.5 30.1851C10.4 30.1851 9.5 29.2851 9.5 28.1851C9.5 27.0851 10.4 26.1851 11.5 26.1851C12.6 26.1851 13.5 27.0851 13.5 28.1851Z" fill="#666DE9"/>
<path d="M45.5 16.4851C45.9 17.4851 45.3 18.6851 44.3 18.9851C43.3 19.3851 42.1 18.7851 41.8 17.7851C41.4 16.7851 42 15.5851 43 15.2851C44 14.8851 45.2 15.4851 45.5 16.4851Z" fill="#666DE9"/>
</svg>
