<svg width="60" height="58" viewBox="0 0 60 58" fill="none" xmlns="http://www.w3.org/2000/svg">
<path d="M20 55H5V35.5L5.4 35.2C5.8 34.9 14.2 28.5 19 32.1C20.6 33.3 22.6 34 24.7 34H28.6C31.6 34 34.3 35.4 35.8 37.7C36.6 39 36.8 40.1 36.4 41C38.9 41 41.5 40.7 42.8 40.1L51.4 34.8C55.7 32.5 57.5 32.5 59.3 34.9C60.2 36.2 60 38 58.8 38.9L43.7 50.8C43 51.5 41.9 52.3 40.4 52.4C40.1 52.4 40 52.4 39.8 52.4C39.6 52.4 39.3 52.4 39.1 52.5L26.2 54.5C23.9 54.8 21.8 55 20 55ZM7 53H20C21.7 53 23.7 52.8 25.9 52.5L39 50.5C39.2 50.5 39.4 50.5 39.5 50.5C39.8 50.5 40 50.4 40.3 50.4C40.9 50.3 41.6 50 42.4 49.2L57.7 37.4C58 37.1 58.1 36.6 57.8 36.2C56.9 35 56.5 34.4 52.5 36.6L43.8 41.9C41.2 43.2 35.9 43.1 32.4 43.1C32.3 43.1 32.1 43.1 32 43.1C31.4 43.1 30.9 43.1 30.7 43.1L30.8 41.1C31.1 41.1 31.5 41.1 32 41.1C33.2 41 34.5 40.8 34.7 40.3C34.8 40.1 34.7 39.5 34.3 38.9C33 37.1 30.9 36 28.6 36H24.7C22.1 36 19.7 35.2 17.8 33.7C15 31.6 9.4 34.8 7 36.5V53Z" fill="#666DE9"/>
<path d="M7 58H0V32H7V58ZM2 56H5V34H2V56Z" fill="#666DE9"/>
<path d="M17 46C16.4 46 16 45.6 16 45C16 42.5 17.9 41 21 41H30.7C31.3 41 31.7 41.4 31.7 42C31.7 42.6 31.3 43 30.7 43H21C18 43 18 44.5 18 45C18 45.6 17.6 46 17 46Z" fill="#666DE9"/>
<path d="M23.1 27.3C22.7 26.9 22.1 26.9 21.7 27.3C21.3 27.7 21.3 28.3 21.7 28.7C22.1 29.1 22.7 29.1 23.1 28.7C23.4 28.3 23.4 27.7 23.1 27.3Z" fill="#666DE9"/>
<path d="M28.7 27.3C28.3 26.9 27.7 26.9 27.3 27.3C26.9 27.7 26.9 28.3 27.3 28.7C27.7 29.1 28.3 29.1 28.7 28.7C29.1 28.3 29.1 27.7 28.7 27.3Z" fill="#666DE9"/>
<path d="M34.4 27.3C34 26.9 33.4 26.9 33 27.3C32.6 27.7 32.6 28.3 33 28.7C33.4 29.1 34 29.1 34.4 28.7C34.8 28.3 34.8 27.7 34.4 27.3Z" fill="#666DE9"/>
<path d="M54 18H38C37.4 18 37 17.6 37 17V1C37 0.4 37.4 0 38 0H54C54.6 0 55 0.4 55 1V17C55 17.6 54.6 18 54 18ZM39 16H53V2H39V16Z" fill="#666DE9"/>
<path d="M43 5C43 4.4 42.6 4 42 4C41.4 4 41 4.4 41 5C41 5.6 41.4 6 42 6C42.6 6 43 5.6 43 5Z" fill="#666DE9"/>
<path d="M51 5C51 4.4 50.6 4 50 4C49.4 4 49 4.4 49 5C49 5.6 49.4 6 50 6C50.6 6 51 5.6 51 5Z" fill="#666DE9"/>
<path d="M43 13C43 12.4 42.6 12 42 12C41.4 12 41 12.4 41 13C41 13.6 41.4 14 42 14C42.6 14 43 13.6 43 13Z" fill="#666DE9"/>
<path d="M47 9C47 8.4 46.6 8 46 8C45.4 8 45 8.4 45 9C45 9.6 45.4 10 46 10C46.6 10 47 9.6 47 9Z" fill="#666DE9"/>
<path d="M51 13C51 12.4 50.6 12 50 12C49.4 12 49 12.4 49 13C49 13.6 49.4 14 50 14C50.6 14 51 13.6 51 13Z" fill="#666DE9"/>
<path d="M31.7 36.6C31.6 36.6 31.4 36.6 31.3 36.5C30.4 36.1 29.5 36 28.6 36H24.7C24.4 36 23.9 36 23.4 35.9C23.2 35.9 23.1 35.8 22.9 35.6L16 28.7C15.6 28.3 15.6 27.7 16 27.3L27.3 16C27.7 15.6 28.3 15.6 28.7 16L40 27.3C40.4 27.7 40.4 28.3 40 28.7L32.4 36.3C32.2 36.5 32 36.6 31.7 36.6ZM24.1 34C24.3 34 24.5 34 24.7 34H28.6C29.6 34 30.5 34.1 31.4 34.4L37.8 28L28 18.1L18.1 28L24.1 34Z" fill="#666DE9"/>
</svg>
