<svg width="60" height="60" viewBox="0 0 60 60" fill="none" xmlns="http://www.w3.org/2000/svg">
<path d="M31 44.0041C24.5 44.0041 19 38.5041 19 32.0041C19 25.5041 24.5 20.0041 31 20.0041C37.5 20.0041 43 25.5041 43 32.0041C43 38.5041 37.5 44.0041 31 44.0041ZM31 22.0041C25.6 22.0041 21 26.6041 21 32.0041C21 37.4041 25.6 42.0041 31 42.0041C36.4 42.0041 41 37.4041 41 32.0041C41 26.6041 36.4 22.0041 31 22.0041Z" fill="#666DE9"/>
<path d="M6 54.0041C3.8 54.0041 2 52.2041 2 50.0041V32.0041C2 29.8041 3.8 28.0041 6 28.0041C8.2 28.0041 10 29.8041 10 32.0041V50.0041C10 52.2041 8.2 54.0041 6 54.0041ZM6 30.0041C4.9 30.0041 4 30.9041 4 32.0041V50.0041C4 51.104 4.9 52.0041 6 52.0041C7.1 52.0041 8 51.104 8 50.0041V32.0041C8 30.9041 7.1 30.0041 6 30.0041Z" fill="#666DE9"/>
<path d="M56 54.0041C53.8 54.0041 52 52.2041 52 50.0041V32.0041C52 29.8041 53.8 28.0041 56 28.0041C58.2 28.0041 60 29.8041 60 32.0041V50.0041C60 52.2041 58.2 54.0041 56 54.0041ZM56 30.0041C54.9 30.0041 54 30.9041 54 32.0041V50.0041C54 51.104 54.9 52.0041 56 52.0041C57.1 52.0041 58 51.104 58 50.0041V32.0041C58 30.9041 57.1 30.0041 56 30.0041Z" fill="#666DE9"/>
<path d="M6 23.0041C3.2 23.0041 1 20.8041 1 18.0041V7.00405C1 6.40405 1.4 6.00405 2 6.00405C2.6 6.00405 3 6.40405 3 7.00405V18.0041C3 19.7041 4.3 21.0041 6 21.0041C7.7 21.0041 9 19.7041 9 18.0041V7.00405C9 6.40405 9.4 6.00405 10 6.00405C10.6 6.00405 11 6.40405 11 7.00405V18.0041C11 20.8041 8.8 23.0041 6 23.0041Z" fill="#666DE9"/>
<path d="M6 30.0041C5.4 30.0041 5 29.6041 5 29.0041V22.0041C5 21.4041 5.4 21.0041 6 21.0041C6.6 21.0041 7 21.4041 7 22.0041V29.0041C7 29.6041 6.6 30.0041 6 30.0041Z" fill="#666DE9"/>
<path d="M6 23.0041C5.4 23.0041 5 22.6041 5 22.0041V7.00405C5 6.40405 5.4 6.00405 6 6.00405C6.6 6.00405 7 6.40405 7 7.00405V22.0041C7 22.6041 6.6 23.0041 6 23.0041Z" fill="#666DE9"/>
<path d="M57 30.0041H55C54.6 30.0041 54.3 29.8041 54.1 29.5041L53.5 28.4041C52.5 26.3041 52 24.0041 52 21.8041V15.7041C52 11.8041 53.5 8.10405 56.3 5.30405C56.6 5.00405 57 4.90405 57.4 5.10405C57.8 5.20405 58 5.60405 58 6.00405V29.0041C58 29.6041 57.6 30.0041 57 30.0041ZM55.6 28.0041H56V8.80405C54.7 10.8041 54 13.2041 54 15.7041V21.8041C54 23.7041 54.5 25.7041 55.3 27.5041L55.6 28.0041Z" fill="#666DE9"/>
<path d="M7 36.0041C7 35.4041 6.6 35.0041 6 35.0041C5.4 35.0041 5 35.4041 5 36.0041C5 36.6041 5.4 37.0041 6 37.0041C6.6 37.0041 7 36.6041 7 36.0041Z" fill="#666DE9"/>
<path d="M57 36.0041C57 35.4041 56.6 35.0041 56 35.0041C55.4 35.0041 55 35.4041 55 36.0041C55 36.6041 55.4 37.0041 56 37.0041C56.6 37.0041 57 36.6041 57 36.0041Z" fill="#666DE9"/>
<path d="M31 51.0041C20.5 51.0041 12 42.5041 12 32.0041C12 21.5041 20.5 13.0041 31 13.0041C41.5 13.0041 50 21.5041 50 32.0041C50 42.5041 41.5 51.0041 31 51.0041ZM31 15.0041C21.6 15.0041 14 22.6041 14 32.0041C14 41.4041 21.6 49.0041 31 49.0041C40.4 49.0041 48 41.4041 48 32.0041C48 22.6041 40.4 15.0041 31 15.0041Z" fill="#666DE9"/>
</svg>
