<svg width="40" height="60" viewBox="0 0 40 60" fill="none" xmlns="http://www.w3.org/2000/svg">
<path d="M29 52.9744C29 53.5744 28.6 53.9744 28 53.9744C27.4 53.9744 27 53.5744 27 52.9744C27 52.3744 27.4 51.9744 28 51.9744C28.6 51.9744 29 52.3744 29 52.9744Z" fill="#666DE9"/>
<path d="M11 43.9744C11 44.5744 10.6 44.9744 10 44.9744C9.4 44.9744 9 44.5744 9 43.9744C9 43.3744 9.4 42.9744 10 42.9744C10.6 42.9744 11 43.3744 11 43.9744Z" fill="#666DE9"/>
<path d="M29.5 59.9744H10.5C8 59.9744 5.9 58.0744 5.6 55.5744L2 19.0744C1.9 18.4744 2.3 18.0744 2.9 17.9744C3.5 17.8744 3.9 18.2744 4 18.8744L7.6 55.3744C7.8 56.8744 9 57.9744 10.5 57.9744H29.5C31 57.9744 32.2 56.8744 32.4 55.3744L36 18.8744C36.1 18.3744 36.5 17.8744 37.1 17.9744C37.6 18.0744 38 18.4744 38 19.0744L34.3 55.5744C34.1 58.0744 32 59.9744 29.5 59.9744Z" fill="#666DE9"/>
<path d="M3 15.9744C2.4 15.9744 2 16.3744 2 16.9744C2 17.5744 2.4 17.9744 3 17.9744H37C37.6 17.9744 38 17.5744 38 16.9744C38 16.3744 37.6 15.9744 37 15.9744H3ZM37 19.9744H3C1.3 19.9744 0 18.6744 0 16.9744C0 15.2744 1.3 13.9744 3 13.9744H37C38.7 13.9744 40 15.2744 40 16.9744C40 18.6744 38.7 19.9744 37 19.9744Z" fill="#666DE9"/>
<path d="M20 15.9744C19.4 15.9744 19 15.5744 19 14.9744V5.97443C19 5.37443 19.4 4.97443 20 4.97443C20.6 4.97443 21 5.37443 21 5.97443V14.9744C21 15.5744 20.6 15.9744 20 15.9744Z" fill="#666DE9"/>
<path d="M20 6.97443C19.7 6.97443 19.4 6.87443 19.2 6.57443C18.9 6.17443 19 5.47443 19.4 5.17443L26.4 0.174433C26.8 -0.125567 27.5 -0.0255667 27.8 0.374433C28.1 0.774433 28 1.47443 27.6 1.77443L20.6 6.77443C20.4 6.87443 20.2 6.97443 20 6.97443Z" fill="#666DE9"/>
<path d="M18.2 46.7744C18 46.7744 17.7 46.8744 17.5 47.0744L15.3 49.0744C14.9 49.4744 14.9 50.0744 15.3 50.4744L17.3 52.6744C17.7 53.0744 18.3 53.0744 18.7 52.6744L20.9 50.6744C21.3 50.2744 21.3 49.6744 20.9 49.2744L18.9 47.0744C18.7 46.8744 18.5 46.7744 18.2 46.7744ZM18 54.9744H17.9C17.1 54.9744 16.4 54.5744 15.8 54.0744L13.8 51.8744C12.7 50.6744 12.7 48.7744 13.9 47.6744L16.1 45.6744C16.7 45.1744 17.5 44.8744 18.3 44.8744C19.1 44.8744 19.8 45.2744 20.4 45.7744L22.4 47.9744C23.5 49.1744 23.5 51.0744 22.3 52.1744L20.1 54.1744C19.5 54.6744 18.8 54.9744 18 54.9744Z" fill="#666DE9"/>
<path d="M24.2 38.9744C24 38.9744 23.7 39.0744 23.5 39.2744L21.3 41.2744C20.9 41.6744 20.9 42.2744 21.3 42.6744L23.3 44.8744C23.7 45.2744 24.3 45.2744 24.7 44.8744L26.9 42.8744C27.3 42.4744 27.3 41.8744 26.9 41.4744L24.9 39.2744C24.7 39.0744 24.5 38.9744 24.2 38.9744ZM24 47.1744H23.9C23.1 47.1744 22.4 46.7744 21.8 46.2744L19.8 44.0744C18.7 42.8744 18.7 40.9744 19.9 39.8744L22.1 37.8744C22.7 37.3744 23.5 37.0744 24.3 37.0744C25.1 37.0744 25.8 37.4744 26.4 37.9744L28.4 40.1744C29.5 41.3744 29.5 43.2744 28.3 44.3744L26.1 46.3744C25.5 46.9744 24.8 47.1744 24 47.1744Z" fill="#666DE9"/>
<path d="M16.2 33.9744C16 33.9744 15.7 34.0744 15.5 34.2744L13.3 36.2744C12.9 36.6744 12.9 37.2744 13.3 37.6744L15.3 39.8744C15.7 40.2744 16.3 40.2744 16.7 39.8744L18.9 37.8744C19.3 37.4744 19.3 36.8744 18.9 36.4744L16.9 34.2744C16.7 34.0744 16.5 33.9744 16.2 33.9744ZM16 42.1744H15.9C15.1 42.1744 14.4 41.7744 13.8 41.2744L11.8 39.0744C10.7 37.8744 10.7 35.9744 11.9 34.8744L14.1 32.8744C14.7 32.3744 15.5 32.0744 16.3 32.0744C17.1 32.0744 17.8 32.4744 18.4 32.9744L20.4 35.1744C21.5 36.3744 21.5 38.2744 20.3 39.3744L18.1 41.3744C17.5 41.9744 16.8 42.1744 16 42.1744Z" fill="#666DE9"/>
<path d="M7.8 31.5744C6.1 31.5744 4.6 30.8744 3.3 29.6744C2.9 29.2744 2.9 28.6744 3.3 28.2744C3.7 27.8744 4.3 27.8744 4.7 28.2744C5.6 29.1744 6.8 29.6744 7.9 29.5744C9.1 29.5744 10.3 28.9744 11.2 27.9744C12.5 26.6744 14.2 25.8744 15.9 25.8744C17.6 25.8744 19.3 26.5744 20.6 27.9744C22.5 29.8744 25.3 29.8744 27.2 27.9744C28.5 26.6744 30.2 25.9744 31.9 26.0744C33.6 26.1744 35.2 26.8744 36.6 28.2744C37 28.6744 37 29.2744 36.6 29.6744C36.2 30.0744 35.6 30.0744 35.2 29.6744C34.2 28.6744 33 28.1744 31.9 28.0744C30.7 28.0744 29.6 28.4744 28.7 29.3744C27.4 30.6744 25.7 31.4744 24 31.4744C22.3 31.4744 20.6 30.7744 19.3 29.3744C17.4 27.4744 14.6 27.4744 12.7 29.3744C11.4 30.6744 9.7 31.4744 8 31.5744C8 31.5744 7.9 31.5744 7.8 31.5744Z" fill="#666DE9"/>
</svg>
