<svg width="60" height="60" viewBox="0 0 60 60" fill="none" xmlns="http://www.w3.org/2000/svg">
<path d="M35.3363 13.9973C35.6313 13.9973 35.828 13.8973 36.0246 13.6973C36.2213 13.4973 36.3196 13.2973 36.3196 12.9973C36.3196 12.3973 36.713 11.9973 37.303 11.9973C37.893 11.9973 38.2863 11.5973 38.2863 10.9973C38.2863 10.3973 37.893 9.99735 37.303 9.99735C35.6313 9.99735 34.3529 11.2973 34.3529 12.9973C34.3529 13.2973 34.4513 13.4973 34.6479 13.6973C34.8446 13.8973 35.0413 13.9973 35.3363 13.9973Z" fill="#666DE9"/>
<path d="M57.9532 28.1973L55.5931 24.5973C55.3965 24.1973 55.3965 23.7973 55.5931 23.4973L57.6582 20.5973C58.0515 19.9973 58.1498 19.2973 57.8548 18.5973C57.5598 17.8973 56.9698 17.4973 56.2815 17.3973L53.6265 16.9973C53.1348 16.8973 52.6431 16.9973 52.2498 17.0973L45.3664 18.6973C44.4814 18.8973 43.6947 19.0973 42.8097 19.3973L40.253 20.2973V19.2973C42.908 17.9973 44.4814 15.1973 44.1864 12.2973C43.8914 9.29735 41.8263 6.89735 38.9747 6.19735C36.123 5.49735 33.1729 6.69735 31.5996 9.19735C30.0262 11.6973 30.1246 14.8973 31.8946 17.2973L25.5028 15.9973C25.0112 15.8973 24.5195 15.9973 24.1262 16.2973L17.0461 20.9973C16.8494 21.0973 16.7511 21.2973 16.5544 21.3973L14.7844 23.6973C14.0961 24.4973 13.8994 25.6973 14.2927 26.6973C14.5877 27.6973 15.4728 28.4973 16.4561 28.7973C16.5544 28.7973 16.6528 28.8973 16.7511 28.8973L17.1444 29.7973C17.2428 29.8973 17.2428 30.0973 17.3411 30.0973C18.1278 30.7973 19.2095 31.0973 20.1928 30.7973C21.1761 30.4973 21.9628 29.6973 22.1595 28.7973L22.7495 26.9973C23.0445 26.1973 23.6345 25.4973 24.3228 25.1973L25.7979 24.4973V26.3973C25.7979 27.1973 26.1912 27.7973 26.8795 28.1973L30.2229 29.8973L24.6178 31.9973C24.5195 31.9973 24.5195 31.9973 24.5195 31.9973C24.4212 31.9973 24.4212 31.9973 24.4212 32.0973L21.5695 33.5973C21.1761 33.7973 20.6845 33.8973 20.2911 33.7973L18.3244 33.3973C16.8494 33.0973 15.3744 33.3973 14.0961 34.1973L10.9494 36.1973L5.63932 39.2973C4.36098 39.9973 3.8693 41.5973 4.36098 42.9973L4.75431 44.0973C4.85265 44.3973 4.85265 44.6973 4.65598 44.9973C4.45931 45.2973 4.26264 45.3973 3.96764 45.4973L2.49262 45.7973C1.70595 45.8973 1.01761 46.3973 0.525938 46.9973C0.0342665 47.5973 -0.0640678 48.3973 0.0342665 49.1973L0.427604 51.5973C0.624272 53.0973 1.90262 54.0973 3.37763 54.0973H6.52433C7.50767 54.0973 8.39268 53.6973 8.88435 52.8973L10.7527 50.2973C10.9494 49.9973 11.146 49.7973 11.441 49.6973L13.5061 48.5973C13.9977 48.2973 14.5877 48.2973 15.1777 48.4973L22.2578 51.3973C22.8478 51.6973 23.5362 51.5973 24.1262 51.1973C24.7162 50.7973 25.0112 50.1973 25.0112 49.4973V49.2973C25.0112 48.8973 24.9128 48.5973 24.7162 48.2973L24.2245 47.3973L24.6178 47.6973C25.6995 48.4973 26.6829 49.3973 27.4695 50.4973L28.3545 51.6973C29.0429 52.6973 30.2229 53.0973 31.4029 52.7973L37.598 51.3973C38.778 51.0973 39.663 50.1973 39.8597 48.9973L40.0563 47.9973C40.253 46.8973 41.2363 45.9973 42.4164 45.9973C42.908 45.9973 43.3997 46.1973 43.793 46.4973L48.8081 50.1973C49.5948 50.7973 50.4798 50.9973 51.4631 50.7973C51.4631 50.7973 51.4631 50.7973 51.5614 50.7973C52.7415 50.5973 53.6265 49.6973 54.0198 48.5973C54.4131 47.4973 54.2165 46.1973 53.5281 45.2973L52.6431 44.0973L57.0682 40.0973C58.3465 38.9973 59.0348 37.2973 59.0348 35.5973V31.4973C58.9365 30.2973 58.6415 29.0973 57.9532 28.1973ZM38.2863 19.9973V31.9973C38.2863 32.5973 37.893 32.9973 37.303 32.9973C36.713 32.9973 36.3196 32.5973 36.3196 31.9973V19.9973H38.2863ZM37.303 7.99735C40.0563 7.99735 42.2197 10.1973 42.2197 12.9973C42.2197 15.7973 40.0563 17.9973 37.303 17.9973C34.5496 17.9973 32.3863 15.7973 32.3863 12.9973C32.3863 10.1973 34.5496 7.99735 37.303 7.99735ZM56.9698 35.5973C56.9698 36.6973 56.4782 37.7973 55.5931 38.5973L51.1681 42.5973C50.3814 43.2973 50.2831 44.4973 50.9714 45.2973L51.8564 46.4973C52.1514 46.8973 52.2498 47.3973 52.0531 47.8973C51.8564 48.3973 51.5614 48.6973 51.0698 48.7973C51.0698 48.7973 51.0698 48.7973 50.9714 48.7973C50.5781 48.8973 50.1848 48.7973 49.8898 48.4973L44.8747 44.7973C44.088 44.2973 43.203 43.9973 42.318 43.9973C40.253 43.9973 38.483 45.4973 37.9913 47.5973L37.7946 48.5973C37.6963 48.9973 37.4013 49.2973 37.008 49.3973L30.8129 50.7973C30.4196 50.8973 30.0262 50.6973 29.8296 50.3973L28.9446 49.1973C28.0595 47.8973 26.8795 46.7973 25.6012 45.8973L25.2078 45.5973C24.4212 45.0973 23.4378 45.0973 22.7495 45.7973C22.0611 46.3973 21.9628 47.4973 22.4545 48.2973L23.0445 49.1973V49.4973L15.9644 46.5973C14.8827 46.1973 13.7027 46.1973 12.7194 46.6973L10.6544 47.7973C10.0644 48.0973 9.67103 48.4973 9.27769 48.9973L7.40934 51.5973C7.016 51.7973 6.721 51.9973 6.426 51.9973H3.2793C2.78763 51.9973 2.39429 51.5973 2.29596 51.1973L1.90262 48.7973C1.90262 48.4973 1.90262 48.2973 2.09929 48.0973C2.29596 47.8973 2.49262 47.6973 2.78763 47.6973L4.26264 47.3973C5.14765 47.2973 5.93432 46.6973 6.32766 45.8973C6.721 45.0973 6.81933 44.1973 6.52433 43.2973L6.13099 42.1973C5.93432 41.6973 6.13099 41.1973 6.52433 40.9973L11.8344 37.7973L15.0794 35.7973C15.9644 35.2973 16.9478 35.0973 17.9311 35.2973L19.8978 35.6973C20.7828 35.8973 21.6678 35.7973 22.4545 35.3973L25.3062 33.8973L30.9112 31.6973C31.5996 31.3973 32.0913 30.6973 32.1896 29.8973C32.1896 29.0973 31.7962 28.3973 31.1079 27.9973L27.7645 26.2973V24.3973C27.7645 23.6973 27.4695 23.0973 26.8795 22.6973C26.2895 22.2973 25.6012 22.2973 25.0112 22.4973L23.5362 23.2973C22.2578 23.8973 21.3728 24.9973 20.8811 26.2973L20.2911 28.1973C20.1928 28.4973 19.9961 28.7973 19.6028 28.8973C19.3078 28.9973 19.0128 28.8973 18.8161 28.7973L18.4228 27.8973C18.3244 27.7973 18.3244 27.6973 18.2261 27.5973C17.8328 27.1973 17.4394 26.9973 16.9478 26.8973C16.5544 26.7973 16.2594 26.4973 16.1611 26.0973C16.0628 25.6973 16.0628 25.2973 16.3578 24.9973L18.1278 22.6973L25.1095 17.9973L34.3529 19.6973V31.9973C34.3529 33.6973 35.6313 34.9973 37.303 34.9973C38.9747 34.9973 40.253 33.6973 40.253 31.9973V22.3973L43.498 21.2973C44.383 20.9973 45.1697 20.7973 45.8581 20.5973L52.7415 18.9973C52.9381 18.8973 53.2331 18.8973 53.4298 18.9973L56.1832 19.3973L54.1181 22.2973C53.4298 23.2973 53.3315 24.6973 54.0198 25.6973L56.3798 29.2973C56.7732 29.9973 57.0682 30.6973 57.0682 31.4973V35.5973H56.9698Z" fill="#666DE9"/>
<path d="M2.68929 33.2973L2.00095 34.6973C1.80428 35.1973 2.00095 35.7973 2.39429 35.9973L3.8693 36.7973C4.45931 37.0973 5.14765 37.0973 5.73766 36.6973L9.8677 34.1973C10.3594 33.8973 10.6544 33.4973 10.7527 32.9973L11.6377 29.3973C11.736 28.8973 11.5394 28.4973 11.146 28.2973L9.47436 27.3973L8.88435 26.0973L9.67103 24.4973C9.8677 23.9973 9.67103 23.3973 9.27769 23.1973L7.70434 22.3973L7.11434 20.4973C6.81933 19.6973 6.13099 19.0973 5.24598 19.0973H3.8693C2.78763 19.0973 1.90262 19.9973 1.90262 21.0973V27.1973C1.90262 27.4973 2.00095 27.6973 2.19762 27.8973L2.88596 28.4973V28.8973L2.00095 30.6973C1.90262 30.7973 1.90262 30.8973 1.90262 31.0973V32.0973C1.90262 32.3973 2.00095 32.5973 2.19762 32.7973L2.68929 33.2973ZM3.8693 31.2973L4.75431 29.4973C4.85265 29.3973 4.85265 29.1973 4.85265 29.0973V28.0973C4.85265 27.7973 4.75431 27.5973 4.55764 27.3973L3.8693 26.5973V20.9973H5.14765L5.93432 23.2973C6.03266 23.5973 6.22933 23.7973 6.426 23.8973L7.50767 24.4973L6.91767 25.5973C6.81933 25.8973 6.81933 26.1973 6.91767 26.4973L7.90101 28.4973C7.99935 28.6973 8.19601 28.8973 8.29435 28.8973L9.57269 29.4973L8.88435 32.3973L4.85265 34.9973L4.26264 34.6973L4.85265 33.5973C5.04932 33.1973 4.95098 32.7973 4.65598 32.4973L3.8693 31.6973V31.2973Z" fill="#666DE9"/>
</svg>
