<svg width="60" height="60" viewBox="0 0 60 60" fill="none" xmlns="http://www.w3.org/2000/svg">
<path fill-rule="evenodd" clip-rule="evenodd" d="M7 32C7.55228 32 8 32.4477 8 33V59C8 59.5523 7.55228 60 7 60C6.44772 60 6 59.5523 6 59V33C6 32.4477 6.44772 32 7 32Z" fill="#666DE9"/>
<path fill-rule="evenodd" clip-rule="evenodd" d="M6 4C6 3.44772 6.44772 3 7 3H53C53.3635 3 53.6984 3.19728 53.8746 3.51523C54.0509 3.83319 54.0407 4.22173 53.848 4.53L44.1792 20L53.848 35.47C54.0407 35.7783 54.0509 36.1668 53.8746 36.4848C53.6984 36.8027 53.3635 37 53 37H7C6.44772 37 6 36.5523 6 36V4ZM8 5V35H51.1958L42.152 20.53C41.9493 20.2057 41.9493 19.7943 42.152 19.47L51.1958 5H8Z" fill="#666DE9"/>
<path fill-rule="evenodd" clip-rule="evenodd" d="M7 0C7.55228 0 8 0.447715 8 1V4C8 4.55228 7.55228 5 7 5C6.44772 5 6 4.55228 6 4V1C6 0.447715 6.44772 0 7 0Z" fill="#666DE9"/>
</svg>
