<svg width="43" height="60" viewBox="0 0 43 60" fill="none" xmlns="http://www.w3.org/2000/svg">
<path d="M39.4 43H2.6C1.1 43 0 41.9 0 40.4V39.5C0 38.1 1.2 37 2.6 37H39.5C41 37 42.1 38.1 42.1 39.6V41.4H41.8C41.4 42.3 40.5 43 39.4 43ZM2.6 39C2.2 39 2 39.3 2 39.5V40.4C2 40.7 2.3 41 2.6 41H39.4C39.7 41 40 40.7 40 40.4V39.4H40.1C40 39.2 39.8 39 39.5 39H2.6Z" fill="#666DE9"/>
<path d="M32.7 60H9.3L2.6 41H39.4L32.7 60ZM10.7 58H31.3L36.6 43H5.4L10.7 58Z" fill="#666DE9"/>
<path d="M39 60H2C1.4 60 1 59.6 1 59C1 58.4 1.4 58 2 58H39C39.6 58 40 58.4 40 59C40 59.6 39.6 60 39 60Z" fill="#666DE9"/>
<path d="M32.7 60H9.3L3.2 42.5L9.7 48.3C10 48.5 10.7 49 12 49C12.4 49 12.9 48.7 13.4 48.3C13.8 48 14.2 47.7 14.7 47.6C16.7 46.8 18.1 46.7 19.7 48.3L23.6 52.4C23.8 52.7 24.2 53 25.4 53C26.4 53 27.1 52.5 27.6 52L29.1 50.7C30.1 49.8 31.7 49.7 32.9 50.4L35.5 51.9L32.7 60ZM10.7 58H31.3L33.1 52.9L31.9 52.2C31.5 51.9 30.8 52 30.5 52.3L29 53.6C27.9 54.5 26.7 55 25.4 55C23.9 55 22.9 54.6 22.1 53.8L18.2 49.7C17.4 48.9 17 48.8 15.4 49.4C15.1 49.5 14.8 49.7 14.5 49.9C13.8 50.4 13 50.9 11.9 50.9C10 50.9 8.8 50.1 8.3 49.7L7.5 49L10.7 58Z" fill="#666DE9"/>
<path d="M21 30C20.7 30 20.3 29.8 20.2 29.5C19.9 29 20 28.4 20.5 28.1C21.9 27.2 23.3 25.4 23.3 25.3C23.6 24.9 24.3 24.8 24.7 25.1C25.1 25.4 25.2 26.1 24.9 26.5C24.8 26.6 23.3 28.7 21.5 29.7C21.4 30 21.2 30 21 30Z" fill="#666DE9"/>
<path d="M20.5 32.4C20.4 32.4 20.3 32.4 20.2 32.4C19.7 32.2 19.4 31.7 19.5 31.1C20.5 28 19.7 24.5 19.2 22.1C19.1 21.8 19.1 21.5 19 21.2C18.9 20.7 19.2 20.1 19.8 20C20.3 19.9 20.9 20.2 21 20.8C21.1 21.1 21.1 21.4 21.2 21.7C21.8 24.3 22.6 28.1 21.5 31.7C21.3 32.1 20.9 32.4 20.5 32.4Z" fill="#666DE9"/>
<path d="M20 15C17.8 15 16 13.2 16 11C16 8.8 17.8 7 20 7C22.2 7 24 8.8 24 11C24 13.2 22.2 15 20 15ZM20 9C18.9 9 18 9.9 18 11C18 12.1 18.9 13 20 13C21.1 13 22 12.1 22 11C22 9.9 21.1 9 20 9Z" fill="#666DE9"/>
<path d="M20 22C18.3 22 16.8 20.8 16.4 19.2C15.2 19.6 13.8 19.5 12.6 18.3C11.5 17.2 11.2 15.8 11.7 14.5C10.1 14.1 9 12.7 9 11C9 9.3 10.1 7.9 11.7 7.4C11.2 6.1 11.5 4.7 12.6 3.6C13.7 2.5 15.1 2.2 16.4 2.7C16.9 1.1 18.3 0 20 0C21 0 22.1 0.4 22.8 1.2C23.2 1.6 23.5 2.1 23.6 2.7C24.9 2.2 26.2 2.5 27.3 3.6C28.4 4.7 28.7 6.1 28.3 7.4C29.9 7.9 31 9.3 31 11C31 12.7 29.8 14.2 28.2 14.6C28.6 15.9 28.3 17.3 27.3 18.3C26.2 19.4 24.8 19.7 23.6 19.3C23.1 20.8 21.7 22 20 22ZM17.4 16.5C17.6 16.5 17.7 16.5 17.9 16.6C18.3 16.8 18.5 17.2 18.4 17.7C18.4 17.9 18.3 18.2 18.3 18.3C18.3 19.3 19 20 20 20C21 20 21.7 19.3 21.7 18.3C21.7 18.2 21.7 17.9 21.6 17.7C21.5 17.3 21.7 16.8 22.1 16.6C22.5 16.4 23 16.5 23.3 16.8C23.6 17.1 24.7 18.1 25.9 16.9C27 15.8 26.2 14.7 25.8 14.3C25.5 14 25.5 13.5 25.7 13.1C25.9 12.7 26.4 12.5 26.8 12.6C27 12.6 27.3 12.7 27.4 12.7C28.4 12.7 29.1 12 29.1 11C29.1 10 28.4 9.3 27.4 9.3C27.3 9.3 27 9.3 26.8 9.4C26.4 9.5 25.9 9.3 25.7 8.9C25.5 8.5 25.6 8 25.9 7.7C26.3 7.2 27 6.1 25.9 5C25.6 4.7 24.7 3.8 23.3 5.2C23 5.5 22.5 5.6 22.1 5.4C21.7 5.2 21.5 4.8 21.6 4.3C21.6 4.1 21.7 3.8 21.7 3.7C21.7 3.1 21.5 2.8 21.3 2.6C21 2.2 20.5 2 20 2C19 2 18.3 2.7 18.3 3.7C18.3 3.8 18.3 4.1 18.4 4.3C18.5 4.7 18.3 5.2 17.9 5.4C17.5 5.6 17 5.5 16.7 5.2C16 4.5 15 4 14 5C13 6 13.5 7 14.2 7.7C14.5 8 14.6 8.5 14.4 8.9C14.2 9.3 13.8 9.5 13.3 9.4C13.1 9.4 12.8 9.3 12.7 9.3C11.7 9.3 11 10 11 11C11 12 11.7 12.7 12.7 12.7C12.8 12.7 13.1 12.7 13.3 12.6C13.7 12.5 14.2 12.7 14.4 13.1C14.6 13.5 14.5 14 14.2 14.3C12.8 15.7 13.7 16.6 14 16.9C15.2 18.1 16.6 16.9 16.7 16.8C16.9 16.6 17.2 16.5 17.4 16.5Z" fill="#666DE9"/>
<path d="M24 27C23.4 27 23 26.6 23 26C23 21.4 25.4 19 30 19C30.6 19 31 19.4 31 20C31 25.2 27.2 27 24 27ZM28.9 21.1C26.5 21.4 25.3 22.6 25 25C26.6 24.7 28.5 23.8 28.9 21.1Z" fill="#666DE9"/>
<path d="M35 39H10.2C7.9 39 6.1 37.4 6 35.3C5.9 34.2 6.3 33.1 7.1 32.3C7.6 31.7 8.3 31.3 9.1 31.2C9.5 29.4 11.1 28.1 13 28.1C14.2 28.1 15.3 28.7 16.1 29.6C16.7 29.3 17.3 29.1 18 29.1C19.9 29.1 21.5 30.4 21.9 32.2C23 32.4 24 33 24.6 33.8L24.7 33.9C24.7 33.9 24.8 34 24.9 34C25 34 25.1 34 25.1 34C25.1 33.9 25.1 33.9 25.1 33.8C25.7 32.1 27.2 31 28.9 31C30.8 31 32.4 32.3 32.8 34.1C34.6 34.5 35.9 36.1 35.9 38C36 38.6 35.6 39 35 39ZM13 30C11.9 30 11 30.9 11 32C11 32.6 10.6 33 10 33C9.4 33 8.9 33.2 8.5 33.6C8.2 34 8 34.6 8 35.1C8.1 36.2 9 37 10.2 37H33.7C33.4 36.4 32.7 36 32 36C31.4 36 31 35.6 31 35C31 33.9 30.1 33 29 33C28.1 33 27.4 33.5 27.1 34.4C26.9 35.4 26 36 24.9 36C24.1 36 23.4 35.6 23 34.8C22.7 34.4 21.9 34 21 34C20.4 34 20 33.6 20 33C20 31.9 19.1 31 18 31C17.5 31 17 31.2 16.5 31.7C16.3 31.9 15.9 32 15.6 32C15.3 31.9 15 31.7 14.9 31.4C14.6 30.7 13.9 30 13 30Z" fill="#666DE9"/>
</svg>
