<svg width="60" height="48" viewBox="0 0 60 48" fill="none" xmlns="http://www.w3.org/2000/svg">
<path fill-rule="evenodd" clip-rule="evenodd" d="M4.0349 4C4.0349 1.79072 5.82562 0 8.0349 0H26.0349C26.3317 0 26.6131 0.131823 26.8031 0.359816L31.5033 6H43.0349C45.7962 6 48.0349 8.23872 48.0349 11C48.0349 11.5523 47.5872 12 47.0349 12H5.0349C4.48262 12 4.0349 11.5523 4.0349 11V4ZM8.0349 2C6.93019 2 6.0349 2.89528 6.0349 4V10H45.8642C45.4523 8.83487 44.341 8 43.0349 8H31.0349C30.7381 8 30.4567 7.86818 30.2667 7.64018L25.5665 2H8.0349Z" fill="#666DE9"/>
<path fill-rule="evenodd" clip-rule="evenodd" d="M4 12C2.89528 12 2 12.8953 2 14V44C2 45.1047 2.89528 46 4 46H50C51.1047 46 52 45.1047 52 44V14C52 12.8953 51.1047 12 50 12H4ZM0 14C0 11.7907 1.79072 10 4 10H50C52.2093 10 54 11.7907 54 14V44C54 46.2093 52.2093 48 50 48H4C1.79072 48 0 46.2093 0 44V14Z" fill="#666DE9"/>
<path fill-rule="evenodd" clip-rule="evenodd" d="M52.0003 15C52.0003 14.4477 52.448 14 53.0003 14H54.0453C57.2287 14 59.5973 16.9413 58.9188 20.051L58.9182 20.0537L53.9783 43.2086C53.8715 43.7091 53.4043 44.0482 52.8954 43.9945C52.3866 43.9408 52.0003 43.5117 52.0003 43V15ZM54.0003 16V33.5199L56.9633 19.6314L56.9644 19.6263C57.372 17.763 55.953 16 54.0453 16H54.0003Z" fill="#666DE9"/>
<path fill-rule="evenodd" clip-rule="evenodd" d="M6.0349 17C6.0349 16.4477 6.48262 16 7.0349 16H19.0349C19.5872 16 20.0349 16.4477 20.0349 17C20.0349 17.5523 19.5872 18 19.0349 18H7.0349C6.48262 18 6.0349 17.5523 6.0349 17Z" fill="#666DE9"/>
<path fill-rule="evenodd" clip-rule="evenodd" d="M6.0349 21C6.0349 20.4477 6.48262 20 7.0349 20H19.0349C19.5872 20 20.0349 20.4477 20.0349 21C20.0349 21.5523 19.5872 22 19.0349 22H7.0349C6.48262 22 6.0349 21.5523 6.0349 21Z" fill="#666DE9"/>
</svg>
