<svg width="60" height="61" viewBox="0 0 60 61" fill="none" xmlns="http://www.w3.org/2000/svg">
<path d="M53.6646 24.204L44.0646 14.704C43.0646 13.804 40.3646 12.704 37.1646 15.404C36.8646 15.604 36.7646 16.004 36.8646 16.304C36.9646 16.704 37.1646 16.904 37.4646 17.104C37.7646 17.204 38.1646 17.204 38.4646 16.904C41.0646 14.804 42.5646 16.004 42.7646 16.104L49.1646 22.504C43.0646 21.404 36.9646 25.004 34.8646 30.904C33.6646 29.504 31.9646 28.604 30.0646 28.504C28.1646 28.604 26.4646 29.504 25.2646 30.904C23.1646 25.004 17.0646 21.404 10.9646 22.504L17.3646 16.104C17.3646 16.104 18.9646 14.604 21.5646 16.804C22.0646 17.204 22.6646 17.204 23.0646 16.804C23.4646 16.404 23.3646 15.704 22.9646 15.404C19.7646 12.704 17.0646 13.804 16.0646 14.804L6.46456 24.304C0.764565 27.604 -1.53544 34.704 1.06456 40.704C3.66456 46.704 10.3646 49.904 16.6646 48.104C22.9646 46.204 26.9646 40.004 25.8646 33.504C25.8646 33.504 27.5646 30.704 29.9646 30.704C32.3646 30.704 34.0646 33.504 34.0646 33.504C33.0646 40.004 36.9646 46.204 43.2646 48.004C49.5646 49.804 56.1646 46.704 58.7646 40.704C61.3646 34.704 59.3646 27.504 53.6646 24.204ZM13.0646 46.304C6.96456 46.304 2.06456 41.404 2.06456 35.304C2.06456 29.204 6.96456 24.304 13.0646 24.304C19.1646 24.304 24.0646 29.204 24.0646 35.304C24.0646 41.404 19.1646 46.304 13.0646 46.304ZM47.0646 46.304C40.9646 46.304 36.0646 41.404 36.0646 35.304C36.0646 29.204 40.9646 24.304 47.0646 24.304C53.1646 24.304 58.0646 29.204 58.0646 35.304C58.0646 41.404 53.1646 46.304 47.0646 46.304Z" fill="#666DE9"/>
<path d="M9.56456 27.004C6.26456 28.404 4.06456 31.704 4.06456 35.304C4.06456 35.904 4.46456 36.304 5.06456 36.304C5.66456 36.304 6.06456 35.904 6.06456 35.304C6.06456 32.504 7.76456 29.904 10.3646 28.904C10.8646 28.704 11.0646 28.104 10.8646 27.604C10.6646 27.104 10.0646 26.804 9.56456 27.004Z" fill="#666DE9"/>
<path d="M16.5646 27.004C16.0646 26.804 15.4646 27.004 15.2646 27.504C15.0646 28.004 15.2646 28.604 15.7646 28.804C16.5646 29.204 17.3646 29.704 17.9646 30.304C18.3646 30.704 18.9646 30.704 19.3646 30.304C19.7646 29.904 19.7646 29.304 19.3646 28.904C18.5646 28.104 17.6646 27.504 16.5646 27.004Z" fill="#666DE9"/>
<path d="M43.5646 27.004C40.2646 28.404 38.0646 31.704 38.0646 35.304C38.0646 35.904 38.4646 36.304 39.0646 36.304C39.6646 36.304 40.0646 35.904 40.0646 35.304C40.0646 32.504 41.7646 29.904 44.3646 28.904C44.6646 28.804 44.9646 28.504 44.9646 28.104C44.9646 27.704 44.8646 27.404 44.5646 27.204C44.2646 27.004 43.8646 26.904 43.5646 27.004Z" fill="#666DE9"/>
<path d="M50.5646 27.004C50.0646 26.804 49.4646 27.004 49.2646 27.504C49.0646 28.004 49.2646 28.604 49.7646 28.804C50.5646 29.204 51.3646 29.704 51.9646 30.304C52.3646 30.704 52.9646 30.704 53.3646 30.304C53.7646 29.904 53.7646 29.304 53.3646 28.904C52.5646 28.104 51.6646 27.504 50.5646 27.004Z" fill="#666DE9"/>
</svg>
