<svg width="58" height="58" viewBox="0 0 58 58" fill="none" xmlns="http://www.w3.org/2000/svg">
<path d="M29 58C28.4 58 28 57.6 28 57V1C28 0.4 28.4 0 29 0C29.6 0 30 0.4 30 1V57C30 57.6 29.6 58 29 58Z" fill="#666DE9"/>
<path d="M29 58H28L27.7 57.8C19 50.7 14 40.2 14 29C14 17.8 19 7.3 27.8 0.2L28 0H29C29.6 0 30 0.4 30 1C30 1.6 29.6 2 29 2H28.8C20.6 8.7 16 18.5 16 29C16 39.5 20.6 49.3 28.8 56H29C29.6 56 30 56.4 30 57C30 57.6 29.6 58 29 58Z" fill="#666DE9"/>
<path d="M29 17C21.5 17 14.3 14.8 8.1 10.5C7.7 10.2 7.6 9.6 7.9 9.1C8.2 8.6 8.8 8.5 9.3 8.8C15.1 12.8 21.9 14.9 29 14.9C36.1 14.9 42.9 12.8 48.7 8.8C49.2 8.5 49.8 8.6 50.1 9.1C50.4 9.6 50.3 10.2 49.8 10.5C43.7 14.8 36.5 17 29 17Z" fill="#666DE9"/>
<path d="M57 30H1C0.4 30 0 29.6 0 29C0 28.4 0.4 28 1 28H57C57.6 28 58 28.4 58 29C58 29.6 57.6 30 57 30Z" fill="#666DE9"/>
<path d="M29 58C13 58 0 45 0 29C0 13 13 0 29 0C45 0 58 13 58 29C58 45 45 58 29 58ZM29 2C14.1 2 2 14.1 2 29C2 43.9 14.1 56 29 56C43.9 56 56 43.9 56 29C56 14.1 43.9 2 29 2Z" fill="#666DE9"/>
<path d="M49.3 48.3C49.1 48.3 48.9 48.2 48.7 48.1C42.9 44.1 36.1 42 29 42C21.9 42 15.1 44.1 9.3 48.1C8.8 48.4 8.2 48.3 7.9 47.8C7.6 47.3 7.7 46.7 8.2 46.4C14.3 42.2 21.5 40 29 40C36.5 40 43.7 42.2 49.9 46.5C50.4 46.8 50.5 47.4 50.2 47.9C49.9 48.1 49.6 48.3 49.3 48.3Z" fill="#666DE9"/>
<path d="M30 58H29C28.4 58 28 57.6 28 57C28 56.4 28.4 56 29 56H29.2C37.4 49.3 42 39.5 42 29C42 18.5 37.4 8.7 29.2 2H29C28.4 2 28 1.6 28 1C28 0.4 28.4 0 29 0H30L30.3 0.2C39 7.3 44 17.8 44 29C44 40.2 39 50.7 30.2 57.8L30 58Z" fill="#666DE9"/>
</svg>
