<svg width="60" height="60" viewBox="0 0 60 60" fill="none" xmlns="http://www.w3.org/2000/svg">
<path d="M30 60C13.5 60 0 46.5 0 30C0 13.5 13.5 0 30 0C46.5 0 60 13.5 60 30C60 46.5 46.5 60 30 60ZM30 2C14.6 2 2 14.6 2 30C2 45.4 14.6 58 30 58C45.4 58 58 45.4 58 30C58 14.6 45.4 2 30 2Z" fill="#666DE9"/>
<path d="M34.6 51C33.8 51 33 50.6 32.5 50C31.9 49.2 31.8 48.1 32.3 47.2C35.4 41.6 35 39.5 34 38.8C30.4 35.8 29 31.5 30.6 27.6C30.7 27.5 30.7 27.4 30.6 27.2C30.5 27 30.4 26.9 30.2 26.8C29.2 26.3 29.1 25.2 28.9 24.2C28.8 23.5 28.7 22.8 28.4 22.3C28.3 22.2 28.1 22.1 28 22.1C27.1 21.6 26.1 21.5 25 21.3C24 21.2 23 21 22 20.6C18 19 15.6 13.5 13.6 9C13.3 8.3 13 7.5 12.7 6.9C12.7 6.8 12.7 6.8 12.6 6.7C12.5 6.6 12.5 6.4 12.5 6.2C12.5 5.9 12.7 5.6 12.9 5.4C17.9 1.9 23.8 0 30 0C35.5 0 41 1.5 45.7 4.4C46 4.6 46.1 4.8 46.2 5.1C46.2 5.4 46.1 5.7 45.9 5.9C45.8 6 45.5 6.3 45.1 6.4C40.5 8 38.3 9.6 35.9 13.2C35.7 13.4 35.7 13.6 35.7 13.8C36 14.9 35.9 15.8 35.4 16.4C34.9 17 34 17.3 32.9 17.1C32.4 17 32 16.6 32 16.1C32 15 31.9 14.2 31.5 14C31.2 13.8 30.5 13.9 29.6 14.3C29.5 14.3 29.4 14.4 29.3 14.4C28.5 14.5 27.7 14.5 27.5 14.6C27.5 14.7 27.5 14.8 27.4 15.1C27.4 15.5 27.6 15.9 27.9 16C28.1 16.1 28.3 16.2 28.5 16C28.9 15.8 29.5 15.8 29.8 16.1C30 16.3 30 16.4 30.1 16.6C30.8 16.6 31.5 16.8 31.9 17.2C32.2 17.6 32.3 18.1 32.2 18.6C32.1 18.8 32.2 18.8 32.2 18.9L32.3 19C33.4 19.4 34.1 20.1 34.3 21.1C34.4 21.5 34.6 21.8 35 21.9C35.3 22 35.6 21.9 35.9 21.7C37.5 20.6 38.8 21.2 39.9 21.7C40.6 22 41.2 22.3 42.1 22.5C42.8 22.5 43.4 22.8 43.7 23.3C44.6 24.3 45.3 25.4 45.9 26.5C46.7 27.9 47.4 29.1 48.4 29.6C51.1 31 49.6 35 48.7 37.6C48.5 38.1 48.4 38.5 48.3 38.9C48.3 39.1 48.2 39.2 48.1 39.3L48 39.6L47.9 39.7C46.5 40.7 45.7 41.9 44.8 43.2C43.9 44.5 43 45.8 41.5 47C39.3 48.9 37.5 50.1 35.4 50.8C35.1 50.9 34.9 51 34.6 51ZM14.7 6.6C14.9 7.1 15.2 7.7 15.4 8.3C17.2 12.4 19.5 17.5 22.8 18.8C23.6 19.1 24.5 19.2 25.4 19.4C26.6 19.6 27.8 19.7 29 20.4C29.3 20.5 29.7 20.8 30 21.1C30 21.1 30.1 21.2 30.1 21.3C30.7 22.2 30.8 23.3 30.9 24.1C30.9 24.5 31 25 31.1 25.2C31.7 25.5 32.1 25.9 32.4 26.5C32.7 27.2 32.7 27.9 32.4 28.6C31.2 31.5 32.3 35 35.2 37.4C38.5 40.1 35.1 46.3 33.9 48.4C33.8 48.6 33.8 48.8 33.9 48.9C34 49.1 34.3 49.2 34.6 49.1C36.4 48.5 38 47.5 40 45.7C41.3 44.6 42.1 43.4 42.9 42.2C43.8 40.9 44.7 39.6 46.3 38.4C46.4 38.1 46.5 37.7 46.7 37.3C47.3 35.6 48.5 32.3 47.4 31.7C45.9 30.9 44.9 29.4 44.1 27.8C43.5 26.8 42.9 25.7 42.1 24.9L42 24.8C42 24.8 42 24.8 41.9 24.8H41.8C40.6 24.7 39.7 24.2 38.9 23.8C37.8 23.3 37.5 23.2 37 23.6C36.2 24.3 35.1 24.5 34.2 24.1C33.2 23.8 32.5 22.9 32.2 21.8C32.2 21.6 32.1 21.4 31.6 21.2C31 21 30.5 20.6 30.2 20C30 19.6 30 19.2 30 18.8C29.7 18.8 29.2 18.8 28.7 18.9C28.3 19 27.8 18.7 27.6 18.4C27.6 18.3 27.5 18.3 27.5 18.2C27.2 18.1 27 18 26.8 17.9C25.9 17.3 25.3 16.2 25.4 15.1C25.6 12.9 26.6 12.8 28.9 12.6C30.4 11.9 31.7 11.9 32.6 12.5C33.1 12.8 33.4 13.2 33.6 13.8C33.6 13.2 33.8 12.6 34.1 12.1C36.7 8.3 39.2 6.6 42.7 5.2C38.9 3.1 34.5 2 30 2C24.5 2 19.3 3.6 14.7 6.6Z" fill="#666DE9"/>
</svg>
