<svg width="60" height="35" viewBox="0 0 60 35" fill="none" xmlns="http://www.w3.org/2000/svg">
<path d="M53.6646 10.5041L44.0646 1.00408C43.0646 0.104085 40.3646 -0.995915 37.1646 1.70408C36.8646 1.90408 36.7646 2.30408 36.8646 2.60408C36.9646 3.00408 37.1646 3.20408 37.4646 3.40408C37.7646 3.50408 38.1646 3.50408 38.4646 3.20408C41.0646 1.10408 42.5646 2.30408 42.7646 2.40408L49.1646 8.80408C43.0646 7.70408 36.9646 11.3041 34.8646 17.2041C33.6646 15.8041 31.9646 14.9041 30.0646 14.8041C28.1646 14.9041 26.4646 15.8041 25.2646 17.2041C23.1646 11.3041 17.0646 7.70408 10.9646 8.80408L17.3646 2.40408C17.3646 2.40408 18.9646 0.904084 21.5646 3.10408C22.0646 3.50408 22.6646 3.50408 23.0646 3.10408C23.4646 2.70408 23.3646 2.00408 22.9646 1.70408C19.7646 -0.995915 17.0646 0.104085 16.0646 1.10408L6.46456 10.6041C0.764565 13.9041 -1.53544 21.0041 1.06456 27.0041C3.66456 33.0041 10.3646 36.2041 16.6646 34.4041C22.9646 32.5041 26.9646 26.3041 25.8646 19.8041C25.8646 19.8041 27.5646 17.0041 29.9646 17.0041C32.3646 17.0041 34.0646 19.8041 34.0646 19.8041C33.0646 26.3041 36.9646 32.5041 43.2646 34.3041C49.5646 36.1041 56.1646 33.0041 58.7646 27.0041C61.3646 21.0041 59.3646 13.8041 53.6646 10.5041ZM13.0646 32.6041C6.96456 32.6041 2.06456 27.7041 2.06456 21.6041C2.06456 15.5041 6.96456 10.6041 13.0646 10.6041C19.1646 10.6041 24.0646 15.5041 24.0646 21.6041C24.0646 27.7041 19.1646 32.6041 13.0646 32.6041ZM47.0646 32.6041C40.9646 32.6041 36.0646 27.7041 36.0646 21.6041C36.0646 15.5041 40.9646 10.6041 47.0646 10.6041C53.1646 10.6041 58.0646 15.5041 58.0646 21.6041C58.0646 27.7041 53.1646 32.6041 47.0646 32.6041Z" fill="#666DE9"/>
<path d="M9.56456 13.3041C6.26456 14.7041 4.06456 18.0041 4.06456 21.6041C4.06456 22.2041 4.46456 22.6041 5.06456 22.6041C5.66456 22.6041 6.06456 22.2041 6.06456 21.6041C6.06456 18.8041 7.76456 16.2041 10.3646 15.2041C10.8646 15.0041 11.0646 14.4041 10.8646 13.9041C10.6646 13.4041 10.0646 13.1041 9.56456 13.3041Z" fill="#666DE9"/>
<path d="M16.5646 13.3041C16.0646 13.1041 15.4646 13.3041 15.2646 13.8041C15.0646 14.3041 15.2646 14.9041 15.7646 15.1041C16.5646 15.5041 17.3646 16.0041 17.9646 16.6041C18.3646 17.0041 18.9646 17.0041 19.3646 16.6041C19.7646 16.2041 19.7646 15.6041 19.3646 15.2041C18.5646 14.4041 17.6646 13.8041 16.5646 13.3041Z" fill="#666DE9"/>
<path d="M43.5646 13.3041C40.2646 14.7041 38.0646 18.0041 38.0646 21.6041C38.0646 22.2041 38.4646 22.6041 39.0646 22.6041C39.6646 22.6041 40.0646 22.2041 40.0646 21.6041C40.0646 18.8041 41.7646 16.2041 44.3646 15.2041C44.6646 15.1041 44.9646 14.8041 44.9646 14.4041C44.9646 14.0041 44.8646 13.7041 44.5646 13.5041C44.2646 13.3041 43.8646 13.2041 43.5646 13.3041Z" fill="#666DE9"/>
<path d="M50.5646 13.3041C50.0646 13.1041 49.4646 13.3041 49.2646 13.8041C49.0646 14.3041 49.2646 14.9041 49.7646 15.1041C50.5646 15.5041 51.3646 16.0041 51.9646 16.6041C52.3646 17.0041 52.9646 17.0041 53.3646 16.6041C53.7646 16.2041 53.7646 15.6041 53.3646 15.2041C52.5646 14.4041 51.6646 13.8041 50.5646 13.3041Z" fill="#666DE9"/>
</svg>
