<svg width="56" height="60" viewBox="0 0 56 60" fill="none" xmlns="http://www.w3.org/2000/svg">
<path d="M53.6 53.5L53.4 53.4C52.9 53 52.3 52.7 51.7 52.4C51 52.2 50.2 52 49.5 51.9C49.2 51.9 48.9 51.8 48.6 51.7C45.6 51.1 42.6 50.2 39.7 49.2L38 45.8V40C38 39.9 38 39.9 38 39.8C39.8 38 40.7 35.4 40.4 32.8C42.2 31.7 43.5 29.9 43.9 27.9C44.3 24.7 43.9 22.9 42.8 22.4C42.3 22.2 41.7 22.2 41.2 22.4C41.2 21.5 41.2 20.5 41.2 19.4C41.2 19 41.1 18.7 41 18.3C41 18.2 41 18.2 41 18.1V12.2L44 11.2V17C44 17.6 44.4 18 45 18C45.6 18 46 17.6 46 17V10.4L47.4 9.9C48.2 9.6 48.8 8.9 48.8 8C48.8 7.1 48.2 6.4 47.4 6.1L28.3 0C28.1 0 27.9 0 27.7 0L8.6 6.1C7.8 6.4 7.2 7.1 7.2 8C7.2 8.9 7.7 9.6 8.6 9.9L15 12V18C15 18.1 15 18.1 15 18.2C14.9 18.5 14.8 18.9 14.8 19.3C14.8 20.4 14.8 21.4 14.8 22.3C14.3 22.1 13.7 22.1 13.2 22.3C12.1 22.8 11.7 24.7 12.1 27.9C12.5 30 13.8 31.8 15.6 32.8C15.3 35.4 16.2 37.9 18 39.8C18 39.9 18 39.9 18 40V45.8L16.3 49.2C13.4 50.2 10.4 51 7.4 51.7C7.1 51.8 6.8 51.8 6.5 51.9C5.7 52 5 52.2 4.3 52.4C3.7 52.6 3.1 53 2.6 53.4L2.4 53.5C0.9 54.8 0 56.7 0 58.7C0 58.8 0 58.9 0 59C0 59.3 0.1 59.5 0.3 59.7C0.5 59.9 0.7 60 1 60H55C55.3 60 55.5 59.9 55.7 59.7C55.9 59.5 56 59.3 56 59C56 58.9 56 58.8 56 58.7C56 56.7 55.1 54.8 53.6 53.5ZM19.4 47.5L26.7 52.4L23.8 57.5L17.3 51.8L19.4 47.5ZM36 45.5L28 50.8L20 45.5V41.9C20.5 42.5 21 43.2 21.3 43.7C22.5 45.4 23.5 47 26.2 47H29.7C32.4 47 33.5 45.4 34.6 43.7C35 43.1 35.4 42.5 35.9 41.9V45.5H36ZM28 54L30.3 58H25.7L28 54ZM29.3 52.3L36.6 47.4L38.7 51.7L32.2 57.4L29.3 52.3ZM17 9.7C20.5 8.5 24.3 8 28 8C31.7 7.9 35.5 8.5 39 9.7V16.5C35.4 15.5 31.7 15 28 15C24.3 15 20.6 15.4 17 16.5V9.7ZM41.9 24.2C42.1 25.3 42.1 26.5 41.9 27.6C41.7 28.7 41.1 29.6 40.3 30.4C40.3 29.6 40.4 28.8 40.6 28C40.8 26.9 41 25.9 41.1 24.8C41.3 24.5 41.6 24.3 41.9 24.2ZM28 2L46.8 8L41 9.9V9C41 8.6 40.7 8.2 40.4 8.1C36.4 6.6 32.2 5.9 28 6C23.8 5.9 19.6 6.6 15.6 8.1C15.3 8.2 15 8.6 15 9V9.9L9.2 8L28 2ZM14.1 27.6C13.9 26.5 13.9 25.3 14.1 24.2C14.4 24.3 14.6 24.5 14.8 24.8C14.9 25.9 15.1 26.9 15.3 28C15.5 28.8 15.6 29.6 15.6 30.4C14.9 29.7 14.4 28.7 14.1 27.6ZM17.7 32.2C17.7 31.7 17.8 31.2 17.8 30.6C17.8 29.6 17.7 28.5 17.4 27.5C17.2 26.3 17 25.2 16.9 24C16.8 22.6 16.8 21 16.8 19.3C16.8 18.9 17.1 18.5 17.5 18.4C20.9 17.4 24.5 16.9 28 17C31.6 16.9 35.1 17.4 38.5 18.4C38.9 18.5 39.2 18.9 39.2 19.3C39.2 21 39.2 22.6 39.1 24C39 25.2 38.8 26.4 38.6 27.5C38.4 28.5 38.3 29.5 38.2 30.6C38.2 31.1 38.2 31.7 38.3 32.2C38.4 34.6 38.5 36.6 36 38.9C34.9 40 33.8 41.2 33 42.5C31.8 44.2 31.3 44.9 29.7 44.9H26.2C24.6 44.9 24.1 44.2 22.9 42.5C22.1 41.2 21 39.9 19.9 38.9C17.5 36.6 17.6 34.7 17.7 32.2ZM3.7 55C4.1 54.6 4.5 54.4 5 54.2C5.6 54 6.2 53.9 6.8 53.8C7.1 53.7 7.5 53.7 7.8 53.6C10.2 53.1 12.7 52.4 15 51.7C14.9 52.1 15 52.5 15.3 52.8L21.3 58H2.1C2.3 56.8 2.8 55.8 3.7 55ZM34.7 58L40.7 52.8C41 52.5 41.1 52.1 41 51.7C43.4 52.5 45.8 53.1 48.2 53.6C48.5 53.7 48.9 53.7 49.2 53.8C49.8 53.9 50.4 54 51 54.2C51.4 54.4 51.8 54.6 52.2 54.9L52.3 55C53.2 55.8 53.8 56.9 53.9 58H34.7Z" fill="#666DE9"/>
<path d="M34 12C34.3 12 34.5 11.9 34.7 11.7C34.9 11.5 35 11.3 35 11C35 10.9 35 10.7 34.9 10.6C34.8 10.5 34.8 10.4 34.7 10.3C34.5 10.1 34.1 10 33.8 10C33.7 10 33.7 10 33.6 10.1C33.5 10.1 33.5 10.2 33.4 10.2L33.3 10.3C33.2 10.4 33.1 10.5 33.1 10.6C33 10.7 33 10.9 33 11C33 11.3 33.1 11.5 33.3 11.7C33.5 11.9 33.7 12 34 12Z" fill="#666DE9"/>
<path d="M37 14C37.3 14 37.5 13.9 37.7 13.7C37.7 13.6 37.8 13.6 37.8 13.5C37.8 13.4 37.9 13.4 37.9 13.3C37.9 13.2 37.9 13.2 38 13.1C38 13 38 13 38 12.9C38 12.8 38 12.6 37.9 12.5C37.8 12.4 37.8 12.3 37.7 12.2C37.3 11.8 36.7 11.8 36.3 12.2C36.2 12.3 36.1 12.4 36.1 12.5C36 12.7 36 12.9 36 13C36 13.3 36.1 13.5 36.3 13.7C36.5 13.9 36.7 14 37 14Z" fill="#666DE9"/>
<path d="M28.7 11.7C29.1 11.3 29.1 10.7 28.7 10.3C28.6 10.2 28.5 10.1 28.4 10.1C28 10 27.6 10 27.3 10.3C27 10.6 26.9 10.9 27 11.3C27.1 11.6 27.4 11.9 27.7 12C28.1 12.1 28.5 12 28.7 11.7Z" fill="#666DE9"/>
<path d="M31 14C31.3 14 31.5 13.9 31.7 13.7C31.9 13.5 32 13.3 32 13C32 12.7 31.9 12.5 31.7 12.3C31.3 11.9 30.7 11.9 30.3 12.3C30.1 12.5 30 12.7 30 13C30 13.3 30.1 13.5 30.3 13.7C30.5 13.9 30.7 14 31 14Z" fill="#666DE9"/>
<path d="M21.3 10.3C21 10.6 20.9 11 21.1 11.4C21.3 11.8 21.6 12 22 12C22.1 12 22.1 12 22.2 12C22.3 12 22.3 12 22.4 11.9C22.5 11.9 22.5 11.8 22.6 11.8C22.7 11.8 22.7 11.7 22.8 11.7C23 11.5 23.1 11.3 23.1 11C23.1 10.7 23 10.5 22.8 10.3C22.3 9.9 21.7 9.9 21.3 10.3Z" fill="#666DE9"/>
<path d="M24.6 12.1C24.5 12.1 24.4 12.2 24.3 12.3C23.9 12.7 23.9 13.3 24.3 13.7C24.7 14.1 25.3 14.1 25.7 13.7C26.1 13.3 26.1 12.7 25.7 12.3C25.4 12 25 11.9 24.6 12.1Z" fill="#666DE9"/>
<path d="M19.9 12.6C19.9 12.5 19.8 12.5 19.8 12.4C19.8 12.3 19.7 12.3 19.7 12.3C19.3 11.9 18.7 11.9 18.3 12.3L18.2 12.4C18.2 12.5 18.1 12.5 18.1 12.6C18.1 12.7 18.1 12.7 18 12.8C18 12.9 18 12.9 18 13C18 13.6 18.4 14 19 14C19.6 14 20 13.6 20 13C20 12.9 20 12.9 20 12.8C20 12.7 19.9 12.7 19.9 12.6Z" fill="#666DE9"/>
</svg>
