<svg width="61" height="60" viewBox="0 0 61 60" fill="none" xmlns="http://www.w3.org/2000/svg">
<path d="M9 58H51V52.1C51 49.5 49.6 47.2 47.3 45.9L38.4 41C36.9 40.3 36 38.7 36 37V32C36 31.8 36.1 31.5 36.2 31.4C36.2 31.4 38.7 28.4 39.6 24.3C39.7 24 39.8 23.8 40 23.7C40.6 23.3 40.9 22.7 40.9 22V18C40.9 17.4 40.7 16.9 40.2 16.5C40 16.3 39.9 16 39.9 15.8V9.9C39.9 9.9 40.2 7.1 38.3 4.9C36.7 3 33.9 2 30 2C26.1 2 23.3 3 21.6 4.8C19.7 7 20 9.8 20 9.8V15.7C20 16 19.9 16.3 19.7 16.4C19.2 16.9 19 17.4 19 18V22C19 22.7 19.3 23.3 19.9 23.7C20.1 23.8 20.3 24.1 20.3 24.3C21.2 28.4 23.7 31.3 23.7 31.4C23.8 31.6 23.9 31.8 23.9 32V37C23.9 38.7 23 40.3 21.5 41.1L12.6 46C10.4 47.2 9 49.5 9 52.1V58ZM52 60H8C7.4 60 7 59.6 7 59V52.1C7 48.8 8.8 45.8 11.7 44.2L20.6 39.3C21.5 38.9 22 38 22 37V32.3C21.3 31.4 19.4 28.7 18.5 25.1C17.6 24.4 17 23.2 17 22V18C17 17 17.4 16.1 18 15.4V10.1C17.9 9.5 17.7 6.3 20.1 3.6C22.1 1.2 25.5 0 30 0C34.5 0 37.9 1.2 39.9 3.5C42.3 6.2 42 9.5 42 10V15.3C42.6 16 43 17 43 17.9V21.9C43 23.1 42.4 24.3 41.5 25C40.6 28.6 38.7 31.4 38 32.2V37C38 38 38.5 38.9 39.4 39.3L48.3 44.2C51.2 45.8 53 48.8 53 52.1V59C53 59.6 52.6 60 52 60Z" fill="#666DE9"/>
<path d="M59 48H50.2C49.6 48 49.2 47.6 49.2 47C49.2 46.4 49.6 46 50.2 46H58V44.2C58 42 56.8 40 54.9 39L48.1 34.8C46.8 34.1 46 32.7 46 31.2V28C46 27.7 46.1 27.5 46.3 27.3C46.3 27.3 49 24.7 49.8 21.3C49.9 21 50 20.8 50.2 20.7C50.7 20.4 50.9 19.9 50.9 19.4V15.9C50.9 15.5 50.7 15.1 50.2 14.7C50.1 14.5 50 14.3 50 14V9C50 8.8 49.5 2 41 2C39.2 2 37.7 2.3 36.4 2.9C35.9 3.1 35.3 2.9 35.1 2.4C34.9 1.9 35.1 1.3 35.6 1.1C37.1 0.4 39 0 41 0C51.4 0 52 8.9 52 8.9V13.5C52.6 14.2 53 15 53 15.8V19.3C53 20.4 52.5 21.4 51.7 22.1C50.9 25.2 48.8 27.6 48.1 28.4V31.1C48.1 31.9 48.5 32.6 49.2 33L56 37.2C58.5 38.6 60.1 41.2 60.1 44.1V47C60 47.6 59.6 48 59 48Z" fill="#666DE9"/>
<path d="M9.8 48H1C0.4 48 0 47.6 0 47V44.2C0 41.3 1.6 38.6 4.1 37.2L10.8 33C11.5 32.6 12 31.9 12 31.1V28.4C11.2 27.6 9.2 25.2 8.4 22.1C7.5 21.4 7 20.4 7 19.4V15.9C7 15.1 7.4 14.3 8 13.6V9C8 8.9 8.6 0 19 0C21 0 22.9 0.4 24.5 1.1C25 1.3 25.2 1.9 25 2.4C24.8 2.9 24.2 3.1 23.7 2.9C22.3 2.3 20.8 2 19 2C10.5 2 10 8.8 10 9.1V14C10 14.3 9.9 14.6 9.7 14.7C9.2 15.1 9 15.5 9 15.9V19.4C9 19.9 9.3 20.4 9.7 20.7C9.9 20.8 10.1 21.1 10.1 21.3C10.9 24.7 13.5 27.2 13.6 27.3C13.8 27.5 13.9 27.8 13.9 28V31.2C13.9 32.7 13.1 34.1 11.7 34.8L5.1 39C3.2 40 2 42 2 44.2V46H9.8C10.4 46 10.8 46.4 10.8 47C10.8 47.6 10.4 48 9.8 48Z" fill="#666DE9"/>
</svg>
