<svg width="61" height="50" viewBox="0 0 61 50" fill="none" xmlns="http://www.w3.org/2000/svg">
<path d="M2 48H5V28H2V48ZM6 50H1C0.4 50 0 49.6 0 49V27C0 26.4 0.4 26 1 26H6C6.6 26 7 26.4 7 27V49C7 49.6 6.6 50 6 50Z" fill="#666DE9"/>
<path d="M59.5 28C57.7 25.6 56 25.5 51.5 27.9L42.9 33.2C41.6 33.8 39 34 36.4 34C36.9 33.1 36.6 31.9 35.8 30.7C34.2 28.4 31.5 27 28.6 27H24.7C22.6 27 20.5 26.3 19 25.2C14.2 21.6 5.8 28 5.4 28.3C5 28.6 4.9 29.3 5.2 29.7C5.5 30.1 6.2 30.2 6.6 29.9C8.7 28.3 14.8 24.6 17.8 26.8C19.7 28.2 22.2 29 24.7 29H28.6C30.9 29 32.9 30.1 34.1 31.8C34.5 32.4 34.7 32.9 34.5 33.2C34.2 33.7 33 33.9 31.7 34C31.3 34 30.9 34 30.6 34H21C17.9 34 16 35.5 16 38C16 38.6 16.4 39 17 39C17.6 39 18 38.6 18 38C18 37.5 18 36 21 36H30.7C30.9 36 31.4 36 31.9 36C32.1 36 32.3 36 32.4 36C37.1 36.1 41.5 36.1 43.8 34.8L52.4 29.5C56.5 27.3 56.9 27.9 57.8 29.1C58.1 29.5 58 30 57.7 30.3L42.5 42.2C42.5 42.2 42.4 42.2 42.4 42.3C41.7 42.9 41 43.3 40.1 43.5C39.7 43.6 39.3 43.6 38.9 43.6L25.9 45.6C23.9 45.9 22 46 20 46H6C5.4 46 5 46.4 5 47C5 47.6 5.4 48 6 48H20C22 48 24.1 47.8 26.1 47.5L39.1 45.5C39.6 45.5 40.1 45.4 40.5 45.3C41.7 45.1 42.8 44.6 43.8 43.6L59 31.9C60.1 31 60.4 29.2 59.5 28Z" fill="#666DE9"/>
<path d="M36 4C33.8 4 32 5.8 32 8C32 10.2 33.8 12 36 12C38.2 12 40 10.2 40 8C40 5.8 38.2 4 36 4ZM36 14C32.7 14 30 11.3 30 8C30 4.7 32.7 2 36 2C39.3 2 42 4.7 42 8C42 11.3 39.3 14 36 14Z" fill="#666DE9"/>
<path d="M41.9 9.3C42.5 9.8 43.2 10 44 10C46.2 10 48 8.2 48 6C48 3.8 46.2 2 44 2C42.5 2 41.2 2.8 40.5 4.1C41.5 5.2 42 6.6 42 8C42 8.4 42 8.9 41.9 9.3ZM44 12C42.5 12 41.1 11.5 40 10.5C39.7 10.2 39.6 9.8 39.7 9.4C39.9 8.9 40 8.4 40 8C40 6.9 39.5 5.8 38.7 5C38.4 4.7 38.3 4.3 38.4 3.9C39.3 1.6 41.5 0 44 0C47.3 0 50 2.7 50 6C50 9.3 47.3 12 44 12Z" fill="#666DE9"/>
<path d="M28 2C25.8 2 24 3.8 24 6C24 8.2 25.8 10 28 10C28.8 10 29.5 9.8 30.2 9.3C30.1 8.9 30 8.4 30 8C30 6.6 30.5 5.2 31.5 4.1C30.8 2.8 29.5 2 28 2ZM28 12C24.7 12 22 9.3 22 6C22 2.7 24.7 0 28 0C30.5 0 32.8 1.6 33.6 3.9C33.7 4.3 33.6 4.7 33.3 5C32.5 5.8 32 6.9 32 8C32 8.4 32.1 8.9 32.3 9.4C32.4 9.8 32.3 10.2 32 10.5C30.9 11.5 29.5 12 28 12Z" fill="#666DE9"/>
<path d="M42 23H30C29.4 23 29 22.6 29 22V17C29 14.5 30.3 12.3 32.4 11L33.4 12.7C31.9 13.7 31 15.2 31 17V21H41V17C41 15.2 40.1 13.7 38.6 12.7L39.6 11C41.7 12.3 43 14.5 43 17V22C43 22.6 42.6 23 42 23Z" fill="#666DE9"/>
<path d="M30 21H22C21.4 21 21 20.6 21 20V15C21 12.5 22.3 10.3 24.4 9L25.4 10.7C23.9 11.7 23 13.2 23 15V19H30V21Z" fill="#666DE9"/>
<path d="M50 21H42V19H49V15C49 13.2 48.1 11.7 46.6 10.7L47.6 9C49.7 10.3 51 12.5 51 15V20C51 20.6 50.6 21 50 21Z" fill="#666DE9"/>
</svg>
