<svg width="60" height="52" viewBox="0 0 60 52" fill="none" xmlns="http://www.w3.org/2000/svg">
<path d="M30 15.08L46.86 31.94L51.58 36.65C52.3938 37.4475 52.7166 38.6207 52.4254 39.7223C52.1342 40.8239 51.2739 41.6842 50.1723 41.9754C49.0707 42.2666 47.8975 41.9438 47.1 41.13L42.39 36.42L32.94 26.96" stroke="#666DE9" stroke-width="2" stroke-linecap="round" stroke-linejoin="round"/>
<path d="M28.462 31.436L32.936 35.909L37.917 40.888L40.9 43.87L42.63 45.599L45.612 48.581C46.8472 49.8165 48.8501 49.8167 50.0855 48.5815C51.321 47.3463 51.3212 45.3435 50.086 44.108L47.1 41.127L42.39 36.415L32.936 26.963" stroke="#666DE9" stroke-width="2" stroke-linecap="round" stroke-linejoin="round"/>
<path d="M42.629 45.6C43.8642 46.8355 43.864 48.8383 42.6285 50.0735C41.393 51.3087 39.3902 51.3085 38.155 50.073L36.9 48.82L33.44 45.361L32.314 44.235L25.984 37.906L23.24 35.163" stroke="#666DE9" stroke-width="2" stroke-linecap="round" stroke-linejoin="round"/>
<path d="M17.278 32.181L12.804 27.709" stroke="#666DE9" stroke-width="2" stroke-linecap="round" stroke-linejoin="round"/>
<path d="M9.82201 24.727C9.30343 24.1002 9.03741 23.3025 9.07601 22.49" stroke="#666DE9" stroke-width="2" stroke-linecap="round" stroke-linejoin="round"/>
<path d="M15.041 6.091L14.296 6.836" stroke="#666DE9" stroke-width="2" stroke-linecap="round" stroke-linejoin="round"/>
<path d="M11.313 9.81799L6.09399 15.036" stroke="#666DE9" stroke-width="2" stroke-linecap="round" stroke-linejoin="round"/>
<path d="M33.443 45.361L36.903 48.82" stroke="#666DE9" stroke-width="2" stroke-linecap="round" stroke-linejoin="round"/>
<path d="M35.958 21.035C35.947 21.025 35.926 21.014 35.915 21.004L35.177 20.255" stroke="#666DE9" stroke-width="2" stroke-linecap="round" stroke-linejoin="round"/>
<path d="M16.577 37.45L12.9 41.129C11.6656 42.3636 9.66411 42.3638 8.42948 41.1295C7.19485 39.8951 7.19462 37.8936 8.42898 36.659L12.109 32.98" stroke="#666DE9" stroke-width="2" stroke-linecap="round" stroke-linejoin="round"/>
<path d="M21.048 41.919L19.1 43.87L17.368 45.6L14.384 48.583C13.8604 49.1115 13.1638 49.4336 12.422 49.49C11.0988 49.6087 9.84298 48.8856 9.2812 47.6817C8.71942 46.4778 8.97204 45.0509 9.91303 44.113L12.9 41.129L16.58 37.45" stroke="#666DE9" stroke-width="2" stroke-linecap="round" stroke-linejoin="round"/>
<path d="M25.529 46.389H25.519L23.093 48.825L21.849 50.069C20.8739 51.0495 19.3737 51.2802 18.149 50.638C17.8607 50.4905 17.5975 50.2985 17.369 50.069C16.7783 49.4755 16.448 48.6714 16.451 47.834C16.4516 46.9973 16.7813 46.1945 17.369 45.599" stroke="#666DE9" stroke-width="2" stroke-linecap="round" stroke-linejoin="round"/>
<path d="M47.198 27.709L44.91 29.996" stroke="#666DE9" stroke-width="2" stroke-linecap="round" stroke-linejoin="round"/>
<path d="M50.178 24.727C50.6966 24.1002 50.9626 23.3025 50.924 22.49" stroke="#666DE9" stroke-width="2" stroke-linecap="round" stroke-linejoin="round"/>
<path d="M44.959 6.091L45.704 6.836" stroke="#666DE9" stroke-width="2" stroke-linecap="round" stroke-linejoin="round"/>
<path d="M48.687 9.81799L53.906 15.036" stroke="#666DE9" stroke-width="2" stroke-linecap="round" stroke-linejoin="round"/>
<path d="M32.32 44.239C33.3698 45.2984 33.5203 46.9536 32.679 48.185C32.0523 49.0427 31.062 49.5599 30 49.584C29.1401 49.5441 28.3253 49.188 27.712 48.584L27.174 48.047C27.174 48.047 25.529 46.391 25.519 46.391L21.048 41.921L16.577 37.45L12.106 32.98L8.33101 29.2C8.33101 29.2 4.31401 25.184 4.52401 20.324C4.54585 19.7593 4.32318 19.2127 3.91301 18.824L1.62501 16.524C1.22539 16.1306 1.00037 15.5933 1.00037 15.0325C1.00037 14.4717 1.22539 13.9344 1.62501 13.541L6.10001 9.07L13.555 1.617C14.3795 0.794089 15.7145 0.794089 16.539 1.617L16.813 1.891C18.0047 3.09286 19.6337 3.75881 21.326 3.736L24.932 3.462C26.7423 3.71129 28.4206 4.54816 29.709 5.844L30.009 6.139" stroke="#666DE9" stroke-width="2" stroke-linecap="round" stroke-linejoin="round"/>
<path d="M47.894 32.98L51.669 29.2C51.669 29.2 55.686 25.184 55.476 20.324C55.4541 19.7593 55.6768 19.2127 56.087 18.824L58.375 16.524C58.7746 16.1306 58.9996 15.5933 58.9996 15.0325C58.9996 14.4717 58.7746 13.9344 58.375 13.541L53.9 9.07L46.449 1.617C45.6245 0.794089 44.2895 0.794089 43.465 1.617L43.191 1.891C41.9993 3.09286 40.3703 3.75881 38.678 3.736L35.072 3.462C33.2635 3.71234 31.5871 4.54913 30.3 5.844L30 6.139L20.32 15.817C18.6748 17.4658 18.6748 20.1352 20.32 21.784C20.7182 22.18 21.2584 22.4001 21.82 22.395C22.3587 22.3975 22.8771 22.1897 23.265 21.816L24.045 21.035L30 15.079L32.019 12.95" stroke="#666DE9" stroke-width="2" stroke-linecap="round" stroke-linejoin="round"/>
<path d="M34.481 46.4V46.389" stroke="#666DE9" stroke-width="2" stroke-linecap="round" stroke-linejoin="round"/>
</svg>
