<svg width="60" height="60" viewBox="0 0 60 60" fill="none" xmlns="http://www.w3.org/2000/svg">
<path fill-rule="evenodd" clip-rule="evenodd" d="M29.3196 1.26721C29.7032 0.910932 30.2968 0.910931 30.6805 1.2672L40 9.92101V7C40 6.44772 40.4477 6 41 6H49C49.5523 6 50 6.44772 50 7V19.2067L53.6805 22.6242C53.684 22.6275 53.6875 22.6308 53.6911 22.6342L58.6805 27.2672C59.0852 27.643 59.1086 28.2757 58.7328 28.6805C58.357 29.0852 57.7243 29.1086 57.3196 28.7328L54 25.6504V58C54 58.5523 53.5523 59 53 59H7C6.44772 59 6 58.5523 6 58V25.6504L2.68046 28.7328C2.27574 29.1086 1.64301 29.0852 1.26721 28.6805C0.891408 28.2757 0.914842 27.643 1.31955 27.2672L6.30904 22.6341C6.31252 22.6308 6.31602 22.6275 6.31956 22.6242L29.3196 1.26721ZM8 23.7932V57H22V35.937C22 34.3147 23.3147 33 24.937 33H35.063C36.6853 33 38 34.3147 38 35.937V57H52V23.7932L48.3303 20.3857C48.3267 20.3824 48.3231 20.3791 48.3195 20.3758L30 3.36464L8 23.7932ZM36 57V35.937C36 35.4193 35.5807 35 35.063 35H24.937C24.4193 35 24 35.4193 24 35.937V57H36ZM48 17.3495V8H42V11.7779L48 17.3495Z" fill="#666DE9"/>
</svg>
