<svg width="60" height="60" viewBox="0 0 60 60" fill="none" xmlns="http://www.w3.org/2000/svg">
<path fill-rule="evenodd" clip-rule="evenodd" d="M42 4C34.2683 4 28 10.2683 28 18C28 21.138 29.0325 24.0349 30.7763 26.3696C30.7929 26.3899 30.8085 26.4106 30.8231 26.4319C33.3788 29.8141 37.4342 32 42 32C49.7317 32 56 25.7317 56 18C56 10.2683 49.7317 4 42 4ZM26 18C26 9.16372 33.1637 2 42 2C50.8363 2 58 9.16372 58 18C58 26.8363 50.8363 34 42 34C37.1783 34 32.8546 31.867 29.9211 28.4931L19.4142 39L26.7071 46.2929C27.0976 46.6834 27.0976 47.3166 26.7071 47.7071C26.3166 48.0976 25.6834 48.0976 25.2929 47.7071L18 40.4142L14.4142 44L19.7071 49.2929C20.0976 49.6834 20.0976 50.3166 19.7071 50.7071C19.3166 51.0976 18.6834 51.0976 18.2929 50.7071L13 45.4142L9.41421 49L16.7071 56.2929C17.0976 56.6834 17.0976 57.3166 16.7071 57.7071C16.3166 58.0976 15.6834 58.0976 15.2929 57.7071L8 50.4142L3.70711 54.7071C3.31658 55.0976 2.68342 55.0976 2.29289 54.7071C1.90237 54.3166 1.90237 53.6834 2.29289 53.2929L28.6954 26.8903C26.9929 24.3476 26 21.2897 26 18Z" fill="#666DE9"/>
</svg>
