<svg width="60" height="60" viewBox="0 0 60 60" fill="none" xmlns="http://www.w3.org/2000/svg">
<path d="M9.84513 27.5455C8.76343 27.5455 7.8784 28.4291 7.8784 29.5091V52.0909C7.8784 53.76 9.15677 55.0364 10.8285 55.0364H48.1965C49.8682 55.0364 51.1466 53.76 51.1466 52.0909V29.5091C51.1466 28.4291 50.2615 27.5455 49.1798 27.5455H9.84513ZM48.1965 57H10.8285C8.07507 57 5.91166 54.84 5.91166 52.0909V29.5091C5.91166 27.3491 7.68172 25.5818 9.84513 25.5818H49.1798C51.3432 25.5818 53.1133 27.3491 53.1133 29.5091V52.0909C53.1133 54.84 50.9499 57 48.1965 57Z" fill="#666DE9"/>
<path d="M21.6455 55.0364H37.3794V48.1636H21.6455V55.0364ZM38.3628 57H20.6622C20.0722 57 19.6788 56.6073 19.6788 56.0182V47.1818C19.6788 46.5927 20.0722 46.2 20.6622 46.2H38.3628C38.9528 46.2 39.3462 46.5927 39.3462 47.1818V56.0182C39.3462 56.6073 38.9528 57 38.3628 57Z" fill="#666DE9"/>
<path d="M7.38671 4.96364C5.51832 4.96364 3.94493 5.84727 2.96156 7.32C1.97819 8.79273 1.78152 10.6582 2.37154 12.3273L7.0917 24.4036C7.38671 25.1891 8.07507 25.68 8.9601 25.68H50.1632C50.9499 25.68 51.7366 25.1891 52.0316 24.4036L56.7518 12.3273C57.4401 10.6582 57.2434 8.89091 56.1617 7.32C55.08 5.84727 53.5066 4.96364 51.7366 4.96364H7.38671ZM50.1632 27.5455H8.9601C7.28838 27.5455 5.91166 26.5636 5.32164 25.0909L0.503141 13.0145C-0.38189 10.7564 -0.0868795 8.20364 1.28983 6.24C2.66655 4.17818 4.92829 3 7.38671 3H51.7366C54.195 3 56.4567 4.17818 57.8335 6.14182C59.2102 8.10545 59.5052 10.6582 58.6202 12.9164L53.9 24.9927C53.2116 26.5636 51.7366 27.5455 50.1632 27.5455Z" fill="#666DE9"/>
<path d="M52.1299 33.4364H6.89503C6.30501 33.4364 5.91166 33.0436 5.91166 32.4545C5.91166 31.8655 6.30501 31.4727 6.89503 31.4727H52.1299C52.72 31.4727 53.1133 31.8655 53.1133 32.4545C53.1133 33.0436 52.72 33.4364 52.1299 33.4364Z" fill="#666DE9"/>
<path d="M13.7786 36.3818H10.8285C10.2385 36.3818 9.84513 35.9891 9.84513 35.4C9.84513 34.8109 10.2385 34.4182 10.8285 34.4182H13.7786C14.3686 34.4182 14.762 34.8109 14.762 35.4C14.762 35.9891 14.3686 36.3818 13.7786 36.3818Z" fill="#666DE9"/>
<path d="M15.7453 40.3091H10.8285C10.2385 40.3091 9.84513 39.9164 9.84513 39.3273C9.84513 38.7382 10.2385 38.3455 10.8285 38.3455H15.7453C16.3354 38.3455 16.7287 38.7382 16.7287 39.3273C16.7287 39.9164 16.3354 40.3091 15.7453 40.3091Z" fill="#666DE9"/>
<path d="M13.7786 44.2364H10.8285C10.2385 44.2364 9.84513 43.8436 9.84513 43.2545C9.84513 42.6655 10.2385 42.2727 10.8285 42.2727H13.7786C14.3686 42.2727 14.762 42.6655 14.762 43.2545C14.762 43.8436 14.3686 44.2364 13.7786 44.2364Z" fill="#666DE9"/>
<path d="M20.6622 44.2364H17.7121C17.1221 44.2364 16.7287 43.8436 16.7287 43.2545C16.7287 42.6655 17.1221 42.2727 17.7121 42.2727H20.6622C21.2522 42.2727 21.6455 42.6655 21.6455 43.2545C21.6455 43.8436 21.2522 44.2364 20.6622 44.2364Z" fill="#666DE9"/>
<path d="M34.4293 44.2364H24.5956C24.0056 44.2364 23.6123 43.8436 23.6123 43.2545C23.6123 42.6655 24.0056 42.2727 24.5956 42.2727H34.4293C35.0193 42.2727 35.4127 42.6655 35.4127 43.2545C35.4127 43.8436 35.0193 44.2364 34.4293 44.2364Z" fill="#666DE9"/>
<path d="M48.1965 36.3818H45.2464C44.6563 36.3818 44.263 35.9891 44.263 35.4C44.263 34.8109 44.6563 34.4182 45.2464 34.4182H48.1965C48.7865 34.4182 49.1798 34.8109 49.1798 35.4C49.1798 35.9891 48.7865 36.3818 48.1965 36.3818Z" fill="#666DE9"/>
<path d="M48.1965 44.2364H45.2464C44.6563 44.2364 44.263 43.8436 44.263 43.2545C44.263 42.6655 44.6563 42.2727 45.2464 42.2727H48.1965C48.7865 42.2727 49.1798 42.6655 49.1798 43.2545C49.1798 43.8436 48.7865 44.2364 48.1965 44.2364Z" fill="#666DE9"/>
<path d="M41.3129 44.2364H38.3628C37.7728 44.2364 37.3794 43.8436 37.3794 43.2545C37.3794 42.6655 37.7728 42.2727 38.3628 42.2727H41.3129C41.9029 42.2727 42.2963 42.6655 42.2963 43.2545C42.2963 43.8436 41.9029 44.2364 41.3129 44.2364Z" fill="#666DE9"/>
<path d="M48.1965 40.3091H43.2796C42.6896 40.3091 42.2963 39.9164 42.2963 39.3273C42.2963 38.7382 42.6896 38.3455 43.2796 38.3455H48.1965C48.7865 38.3455 49.1798 38.7382 49.1798 39.3273C49.1798 39.9164 48.7865 40.3091 48.1965 40.3091Z" fill="#666DE9"/>
<path d="M18.6954 35.4C18.6954 34.8109 18.3021 34.4182 17.7121 34.4182C17.1221 34.4182 16.7287 34.8109 16.7287 35.4C16.7287 35.9891 17.1221 36.3818 17.7121 36.3818C18.3021 36.3818 18.6954 35.9891 18.6954 35.4Z" fill="#666DE9"/>
<path d="M22.6289 35.4C22.6289 34.8109 22.2356 34.4182 21.6455 34.4182C21.0555 34.4182 20.6622 34.8109 20.6622 35.4C20.6622 35.9891 21.0555 36.3818 21.6455 36.3818C22.2356 36.3818 22.6289 35.9891 22.6289 35.4Z" fill="#666DE9"/>
<path d="M26.5624 35.4C26.5624 34.8109 26.169 34.4182 25.579 34.4182C24.989 34.4182 24.5956 34.8109 24.5956 35.4C24.5956 35.9891 24.989 36.3818 25.579 36.3818C26.169 36.3818 26.5624 35.9891 26.5624 35.4Z" fill="#666DE9"/>
<path d="M30.4959 35.4C30.4959 34.8109 30.1025 34.4182 29.5125 34.4182C28.9225 34.4182 28.5291 34.8109 28.5291 35.4C28.5291 35.9891 28.9225 36.3818 29.5125 36.3818C30.1025 36.3818 30.4959 35.9891 30.4959 35.4Z" fill="#666DE9"/>
<path d="M34.4293 35.4C34.4293 34.8109 34.036 34.4182 33.4459 34.4182C32.8559 34.4182 32.4626 34.8109 32.4626 35.4C32.4626 35.9891 32.8559 36.3818 33.4459 36.3818C34.036 36.3818 34.4293 35.9891 34.4293 35.4Z" fill="#666DE9"/>
<path d="M38.3628 35.4C38.3628 34.8109 37.9694 34.4182 37.3794 34.4182C36.7894 34.4182 36.3961 34.8109 36.3961 35.4C36.3961 35.9891 36.7894 36.3818 37.3794 36.3818C37.9694 36.3818 38.3628 35.9891 38.3628 35.4Z" fill="#666DE9"/>
<path d="M42.2963 35.4C42.2963 34.8109 41.9029 34.4182 41.3129 34.4182C40.7229 34.4182 40.3295 34.8109 40.3295 35.4C40.3295 35.9891 40.7229 36.3818 41.3129 36.3818C41.9029 36.3818 42.2963 35.9891 42.2963 35.4Z" fill="#666DE9"/>
<path d="M20.6622 39.3273C20.6622 38.7382 20.2688 38.3455 19.6788 38.3455C19.0888 38.3455 18.6954 38.7382 18.6954 39.3273C18.6954 39.9164 19.0888 40.3091 19.6788 40.3091C20.2688 40.3091 20.6622 39.9164 20.6622 39.3273Z" fill="#666DE9"/>
<path d="M24.5956 39.3273C24.5956 38.7382 24.2023 38.3455 23.6123 38.3455C23.0223 38.3455 22.6289 38.7382 22.6289 39.3273C22.6289 39.9164 23.0223 40.3091 23.6123 40.3091C24.2023 40.3091 24.5956 39.9164 24.5956 39.3273Z" fill="#666DE9"/>
<path d="M28.5291 39.3273C28.5291 38.7382 28.1358 38.3455 27.5457 38.3455C26.9557 38.3455 26.5624 38.7382 26.5624 39.3273C26.5624 39.9164 26.9557 40.3091 27.5457 40.3091C28.1358 40.3091 28.5291 39.9164 28.5291 39.3273Z" fill="#666DE9"/>
<path d="M32.4626 39.3273C32.4626 38.7382 32.0692 38.3455 31.4792 38.3455C30.8892 38.3455 30.4959 38.7382 30.4959 39.3273C30.4959 39.9164 30.8892 40.3091 31.4792 40.3091C32.0692 40.3091 32.4626 39.9164 32.4626 39.3273Z" fill="#666DE9"/>
<path d="M36.3961 39.3273C36.3961 38.7382 36.0027 38.3455 35.4127 38.3455C34.8227 38.3455 34.4293 38.7382 34.4293 39.3273C34.4293 39.9164 34.8227 40.3091 35.4127 40.3091C36.0027 40.3091 36.3961 39.9164 36.3961 39.3273Z" fill="#666DE9"/>
<path d="M40.3295 39.3273C40.3295 38.7382 39.9362 38.3455 39.3462 38.3455C38.7561 38.3455 38.3628 38.7382 38.3628 39.3273C38.3628 39.9164 38.7561 40.3091 39.3462 40.3091C39.9362 40.3091 40.3295 39.9164 40.3295 39.3273Z" fill="#666DE9"/>
<path d="M13.7786 30.4909H10.8285C10.2385 30.4909 9.84513 30.0982 9.84513 29.5091C9.84513 28.92 10.2385 28.5273 10.8285 28.5273H13.7786C14.3686 28.5273 14.762 28.92 14.762 29.5091C14.762 30.0982 14.3686 30.4909 13.7786 30.4909Z" fill="#666DE9"/>
<path d="M48.1965 30.4909H38.3628C37.7728 30.4909 37.3794 30.0982 37.3794 29.5091C37.3794 28.92 37.7728 28.5273 38.3628 28.5273H48.1965C48.7865 28.5273 49.1798 28.92 49.1798 29.5091C49.1798 30.0982 48.7865 30.4909 48.1965 30.4909Z" fill="#666DE9"/>
</svg>
