<svg width="60" height="60" viewBox="0 0 60 60" fill="none" xmlns="http://www.w3.org/2000/svg">
<path d="M37.0175 56.0009H21.021C20.4211 56.0009 20.0212 55.601 20.0212 55.0011V51.002C20.0212 50.4021 20.4211 50.0022 21.021 50.0022H37.0175C37.6174 50.0022 38.0173 50.4021 38.0173 51.002V55.0011C38.0173 55.601 37.6174 56.0009 37.0175 56.0009ZM22.0208 54.0013H36.0177V52.0017H22.0208V54.0013Z" fill="#666DE9"/>
<path d="M37.0175 52.0017H21.021C20.4211 52.0017 20.0212 51.6018 20.0212 51.002V47.0028C20.0212 46.403 20.4211 46.0031 21.021 46.0031H37.0175C37.6174 46.0031 38.0173 46.403 38.0173 47.0028V51.002C38.0173 51.6018 37.6174 52.0017 37.0175 52.0017ZM22.0208 50.0022H36.0177V48.0026H22.0208V50.0022Z" fill="#666DE9"/>
<path d="M32.0186 60H26.0199C25.72 60 25.4201 59.9 25.2201 59.6001L22.2207 55.601C22.0208 55.301 21.9208 54.9011 22.1208 54.6012C22.3207 54.3012 22.6207 54.0013 23.0206 54.0013H35.018C35.4179 54.0013 35.7178 54.2013 35.9178 54.6012C36.1177 54.9011 36.0177 55.301 35.8178 55.601L32.8184 59.6001C32.6185 59.9 32.3185 60 32.0186 60ZM26.5198 58.0004H31.5187L33.0184 56.0009H25.0201L26.5198 58.0004Z" fill="#666DE9"/>
<path d="M37.0175 48.0026H21.021C20.4211 48.0026 20.0212 47.6027 20.0212 47.0028V46.0031C20.0212 41.9039 18.3216 38.0048 15.3223 35.2054C10.7233 30.8064 8.42376 24.6077 9.12361 18.2091C10.2234 8.81117 17.8217 1.21283 27.2197 0.113068C33.0184 -0.486801 38.8171 1.31281 43.2162 5.21196C47.6152 9.1111 50.1147 14.7099 50.1147 20.5086C50.1147 26.3074 47.6152 31.9061 43.2162 35.8053C39.8169 38.7046 38.0173 42.8038 38.0173 47.0028C38.0173 47.6027 37.6174 48.0026 37.0175 48.0026ZM22.0208 46.0031H36.0177C36.3177 41.504 38.3172 37.305 41.7165 34.3056C45.7156 30.7064 48.0151 25.7075 48.0151 20.5086C48.0151 15.2098 45.7156 10.2109 41.8165 6.71163C37.8173 3.11241 32.7185 1.51276 27.4196 2.11263C18.9215 3.01244 12.123 9.91093 11.1232 18.4091C10.5233 24.2078 12.5229 29.8066 16.7219 33.8057C20.1212 36.905 22.0208 41.4041 22.0208 46.0031Z" fill="#666DE9"/>
<path d="M29.0193 48.0026C28.4194 48.0026 28.0195 47.6027 28.0195 47.0028V29.0068C28.0195 28.4069 28.4194 28.007 29.0193 28.007C29.6191 28.007 30.019 28.4069 30.019 29.0068V47.0028C30.019 47.6027 29.6191 48.0026 29.0193 48.0026Z" fill="#666DE9"/>
<path d="M29.0193 34.0057C26.2199 34.0057 24.0204 31.8062 24.0204 29.0068C24.0204 26.2074 26.2199 24.0079 29.0193 24.0079C31.8187 24.0079 34.0182 26.2074 34.0182 29.0068C34.0182 31.8062 31.8187 34.0057 29.0193 34.0057ZM29.0193 26.0074C27.3196 26.0074 26.0199 27.3071 26.0199 29.0068C26.0199 30.7064 27.3196 32.0061 29.0193 32.0061C30.7189 32.0061 32.0186 30.7064 32.0186 29.0068C32.0186 27.3071 30.7189 26.0074 29.0193 26.0074Z" fill="#666DE9"/>
</svg>
