<svg width="60" height="60" viewBox="0 0 60 60" fill="none" xmlns="http://www.w3.org/2000/svg">
<path d="M35 50C21.2 50 10 38.8 10 25C10 11.2 21.2 0 35 0C48.8 0 60 11.2 60 25C60 38.8 48.8 50 35 50ZM35 2C22.3 2 12 12.3 12 25C12 37.7 22.3 48 35 48C47.7 48 58 37.7 58 25C58 12.3 47.7 2 35 2Z" fill="#666DE9"/>
<path d="M35 46C23.4 46 14 36.6 14 25C14 13.4 23.4 4 35 4C46.6 4 56 13.4 56 25C56 36.6 46.6 46 35 46ZM35 6C24.5 6 16 14.5 16 25C16 35.5 24.5 44 35 44C45.5 44 54 35.5 54 25C54 14.5 45.5 6 35 6Z" fill="#666DE9"/>
<path d="M5 60C3.7 60 2.4 59.5 1.5 58.5C0.5 57.6 0 56.3 0 55C0 53.7 0.5 52.4 1.5 51.5L14.8 38.2C15.2 37.8 15.8 37.8 16.2 38.2C16.6 38.6 16.6 39.2 16.2 39.6L2.9 52.9C2.3 53.4 2 54.2 2 55C2 55.8 2.3 56.6 2.9 57.1C4.1 58.3 6 58.3 7.1 57.1L20.4 43.8C20.8 43.4 21.4 43.4 21.8 43.8C22.2 44.2 22.2 44.8 21.8 45.2L8.5 58.5C7.6 59.5 6.3 60 5 60Z" fill="#666DE9"/>
<path d="M12.8 53.8C12.5 53.8 12.3 53.7 12.1 53.5L6.4 47.8C6 47.4 6 46.8 6.4 46.4C6.8 46 7.4 46 7.8 46.4L13.5 52.1C13.9 52.5 13.9 53.1 13.5 53.5C13.3 53.7 13.1 53.8 12.8 53.8Z" fill="#666DE9"/>
<path d="M16.4 50.3C16.1 50.3 15.9 50.2 15.7 50L10 44.3C9.6 43.9 9.6 43.3 10 42.9C10.4 42.5 11 42.5 11.4 42.9L17.1 48.6C17.5 49 17.5 49.6 17.1 50C16.9 50.2 16.6 50.3 16.4 50.3Z" fill="#666DE9"/>
</svg>
