<svg width="34" height="61" viewBox="0 0 34 61" fill="none" xmlns="http://www.w3.org/2000/svg">
<path d="M12.809 28.0197H21.209L21.709 26.0197H12.309L12.809 28.0197ZM22.009 30.0197H12.009C11.509 30.0197 11.109 29.7197 11.009 29.2197L10.009 25.2197C9.90902 24.9197 10.009 24.6197 10.209 24.3197C10.409 24.1197 10.709 23.9197 11.009 23.9197H23.009C23.309 23.9197 23.609 24.0197 23.809 24.3197C24.009 24.5197 24.109 24.9197 24.009 25.2197L23.009 29.2197C22.909 29.7197 22.509 30.0197 22.009 30.0197Z" fill="#666DE9"/>
<path d="M14.509 24.0197H22.309L31.509 2.01969H23.709L14.509 24.0197ZM23.009 26.0197H13.009C12.709 26.0197 12.409 25.8197 12.209 25.6197C12.009 25.3197 12.009 25.0197 12.109 24.7197L22.109 0.719694C22.209 0.219694 22.609 0.0196938 23.009 0.0196938H33.009C33.309 0.0196938 33.609 0.219694 33.809 0.419694C34.009 0.719694 34.009 1.01969 33.909 1.31969L23.909 25.3197C23.809 25.8197 23.409 26.0197 23.009 26.0197Z" fill="#666DE9"/>
<path d="M17.009 34.0197C16.409 34.0197 16.009 33.6197 16.009 33.0197V29.0197C16.009 28.4197 16.409 28.0197 17.009 28.0197C17.609 28.0197 18.009 28.4197 18.009 29.0197V33.0197C18.009 33.6197 17.609 34.0197 17.009 34.0197Z" fill="#666DE9"/>
<path d="M17.009 34.0197C10.409 34.0197 5.00902 39.4197 5.00902 46.0197C5.00902 52.6197 10.409 58.0197 17.009 58.0197C23.609 58.0197 29.009 52.6197 29.009 46.0197C29.009 39.4197 23.609 34.0197 17.009 34.0197ZM17.009 60.0197C9.30902 60.0197 3.00902 53.7197 3.00902 46.0197C3.00902 38.3197 9.30902 32.0197 17.009 32.0197C24.709 32.0197 31.009 38.3197 31.009 46.0197C31.009 53.7197 24.709 60.0197 17.009 60.0197Z" fill="#666DE9"/>
<path d="M11.709 24.0197H12.409L16.209 14.9197L11.309 2.01969H2.50902L11.709 24.0197ZM13.009 26.0197H11.009C10.609 26.0197 10.209 25.8197 10.109 25.4197L0.109017 1.41969C-0.090983 1.11969 0.00901699 0.719694 0.209017 0.419694C0.409017 0.219694 0.709017 0.0196938 1.00902 0.0196938H12.009C12.409 0.0196938 12.809 0.319694 12.909 0.619694L18.109 14.5197C18.209 14.7197 18.209 15.0197 18.109 15.2197L13.909 25.3197C13.809 25.8197 13.409 26.0197 13.009 26.0197Z" fill="#666DE9"/>
<path d="M18.009 26.0197C17.909 26.0197 17.709 26.0197 17.609 25.9197C17.109 25.7197 16.809 25.1197 17.109 24.6197L27.109 0.619694C27.309 0.119694 27.909 -0.180306 28.409 0.119694C28.909 0.319694 29.209 0.919694 28.909 1.41969L18.909 25.4197C18.809 25.8197 18.409 26.0197 18.009 26.0197Z" fill="#666DE9"/>
<path d="M14.609 22.2197C14.209 22.2197 13.809 22.0197 13.709 21.6197L6.10902 1.41969C5.90902 0.819694 6.10902 0.319694 6.60902 0.119694C7.10902 -0.0803062 7.70902 0.219694 7.90902 0.719694L15.509 20.9197C15.709 21.4197 15.409 22.0197 14.909 22.2197C14.809 22.2197 14.709 22.2197 14.609 22.2197Z" fill="#666DE9"/>
<path d="M17.009 49.6197C17.109 49.6197 17.309 49.6197 17.409 49.7197L21.509 51.3197L20.509 47.7197C20.409 47.3197 20.509 47.0197 20.809 46.7197L23.909 43.7197L19.709 43.2197C19.409 43.2197 19.109 43.0197 18.909 42.7197L17.009 39.2197L15.209 42.7197C15.009 43.0197 14.809 43.2197 14.409 43.2197L10.209 43.7197L13.309 46.7197C13.609 47.0197 13.709 47.3197 13.609 47.7197L12.609 51.3197L16.709 49.7197C16.709 49.6197 16.909 49.6197 17.009 49.6197ZM23.009 54.0197C22.909 54.0197 22.809 54.0197 22.609 53.9197L17.009 51.7197L11.409 53.9197C11.009 54.0197 10.609 54.0197 10.409 53.7197C10.109 53.4197 10.009 53.0197 10.109 52.7197L11.509 47.7197L7.30902 43.7197C7.00902 43.4197 6.90902 43.0197 7.00902 42.7197C7.10902 42.3197 7.40902 42.1197 7.80902 42.0197L13.609 41.3197L16.109 36.5197C16.409 35.8197 17.509 35.8197 17.909 36.5197L20.409 41.3197L26.209 42.0197C26.609 42.0197 26.909 42.3197 27.009 42.7197C27.109 43.1197 27.009 43.5197 26.709 43.7197L22.509 47.7197L23.909 52.7197C24.009 53.1197 23.909 53.5197 23.609 53.7197C23.509 53.9197 23.209 54.0197 23.009 54.0197Z" fill="#666DE9"/>
</svg>
