<svg width="60" height="52" viewBox="0 0 60 52" fill="none" xmlns="http://www.w3.org/2000/svg">
<path d="M39.4 38H37.8C37.1 38 36.3 37.7 35.7 37.3L26.2 30.6C25.6 30.2 25 30 24.4 30H5C2.2 30 0 27.8 0 25V13C0 10.2 2.2 8 5 8H24.6C25.3 8 26 7.8 26.5 7.4L35.7 0.7C36.3 0.3 37.1 0 37.8 0H39.4C41.4 0 43 1.6 43 3.6V34.4C43 36.4 41.4 38 39.4 38ZM5 10C3.3 10 2 11.3 2 13V25C2 26.7 3.3 28 5 28H24.4C25.5 28 26.5 28.3 27.4 29L36.9 35.7C37.2 35.9 37.5 36 37.8 36H39.4C40.3 36 41 35.3 41 34.4V3.6C41 2.7 40.3 2 39.4 2H37.8C37.5 2 37.1 2.1 36.9 2.3L27.7 9C26.8 9.6 25.7 10 24.6 10H5Z" fill="#666DE9"/>
<path d="M25 14C24.4 14 24 13.6 24 13C24 12.4 24.4 12 25 12C26.4 12 27.5 11.6 28.8 10.6L37.4 4.4C37.8 4.1 38.5 4.2 38.8 4.6C39.1 5.1 39 5.7 38.6 6L30 12.2C28.4 13.5 26.9 14 25 14Z" fill="#666DE9"/>
<path d="M44 25H42C41.4 25 41 24.6 41 24V14C41 13.4 41.4 13 42 13H44C47.4 13 50 15.6 50 19C50 22.4 47.4 25 44 25ZM43 23H44C46.2 23 48 21.2 48 19C48 16.8 46.2 15 44 15H43V23Z" fill="#666DE9"/>
<path d="M16 52H8C7.7 52 7.4 51.8 7.2 51.6C7 51.3 7 51 7 50.7L14 28.7C14.1 28.3 14.5 28 15 28H23C23.3 28 23.6 28.2 23.8 28.4C24 28.7 24 29 24 29.3L17 51.3C16.8 51.7 16.4 52 16 52ZM9.4 50H15.3L21.7 30H15.8L9.4 50Z" fill="#666DE9"/>
<path d="M24 45H18.2C17.9 45 17.6 44.8 17.4 44.6C17.2 44.4 17.2 44 17.3 43.7L19.9 35.7C20 35.3 20.4 35 20.9 35H24C24.6 35 25 35.4 25 36V44C25 44.6 24.6 45 24 45ZM19.6 43H23V37H21.5L19.6 43Z" fill="#666DE9"/>
<path d="M16 25H6C5.4 25 5 24.6 5 24V14C5 13.4 5.4 13 6 13H16C16.6 13 17 13.4 17 14V24C17 24.6 16.6 25 16 25ZM7 23H15V15H7V23Z" fill="#666DE9"/>
<path d="M50 33.7C49.6 33.7 49.2 33.5 49.1 33.1C48.9 32.6 49.1 32 49.6 31.8C54.7 29.6 58 24.6 58 19C58 13.4 54.7 8.4 49.6 6.2C49.1 6 48.9 5.4 49.1 4.9C49.3 4.4 49.9 4.2 50.4 4.4C56.2 6.9 60 12.7 60 19C60 25.3 56.2 31.1 50.4 33.6C50.3 33.7 50.1 33.7 50 33.7Z" fill="#666DE9"/>
<path d="M50 28C49.7 28 49.4 27.9 49.2 27.6C48.9 27.2 49 26.5 49.4 26.2C51.7 24.5 53 21.8 53 19C53 16.2 51.7 13.5 49.4 11.8C49 11.5 48.9 10.8 49.2 10.4C49.5 10 50.2 9.9 50.6 10.2C53.4 12.3 55 15.6 55 19C55 22.4 53.4 25.7 50.6 27.8C50.4 27.9 50.2 28 50 28Z" fill="#666DE9"/>
</svg>
