<svg width="60" height="60" viewBox="0 0 60 60" fill="none" xmlns="http://www.w3.org/2000/svg">
<path d="M42.575 60H17.375C14.875 60 12.975 58.1 12.975 55.6V4.4C12.975 1.9 14.875 0 17.375 0H42.575C45.075 0 46.975 1.9 46.975 4.4V55.6C46.975 58.1 45.075 60 42.575 60ZM17.375 2C16.075 2 14.975 3.1 14.975 4.4V55.6C14.975 56.9 16.075 58 17.375 58H42.575C43.875 58 44.975 56.9 44.975 55.6V4.4C44.975 3.1 43.875 2 42.575 2H17.375Z" fill="#666DE9"/>
<path d="M29.975 57C27.775 57 25.975 55.2 25.975 53C25.975 50.8 27.775 49 29.975 49C32.175 49 33.975 50.8 33.975 53C33.975 55.2 32.175 57 29.975 57ZM29.975 51C28.875 51 27.975 51.9 27.975 53C27.975 54.1 28.875 55 29.975 55C31.075 55 31.975 54.1 31.975 53C31.975 51.9 31.075 51 29.975 51Z" fill="#666DE9"/>
<path d="M45.975 48H13.975C13.375 48 12.975 47.6 12.975 47C12.975 46.4 13.375 46 13.975 46H45.975C46.575 46 46.975 46.4 46.975 47C46.975 47.6 46.575 48 45.975 48Z" fill="#666DE9"/>
<path d="M45.975 8H13.975C13.375 8 12.975 7.6 12.975 7C12.975 6.4 13.375 6 13.975 6H45.975C46.575 6 46.975 6.4 46.975 7C46.975 7.6 46.575 8 45.975 8Z" fill="#666DE9"/>
<path d="M29.975 5H25.975C25.375 5 24.975 4.6 24.975 4C24.975 3.4 25.375 3 25.975 3H29.975C30.575 3 30.975 3.4 30.975 4C30.975 4.6 30.575 5 29.975 5Z" fill="#666DE9"/>
<path d="M33.975 5H32.975C32.375 5 31.975 4.6 31.975 4C31.975 3.4 32.375 3 32.975 3H33.975C34.575 3 34.975 3.4 34.975 4C34.975 4.6 34.575 5 33.975 5Z" fill="#666DE9"/>
<path d="M55.875 21.3C55.575 21.3 55.375 21.2 55.175 21C54.775 20.6 54.775 20 55.175 19.6C58.875 15.8 58.875 9.7 55.175 6C54.775 5.6 54.775 5 55.175 4.6C55.575 4.2 56.175 4.2 56.575 4.6C61.075 9.1 61.075 16.4 56.575 21C56.375 21.2 56.175 21.3 55.875 21.3Z" fill="#666DE9"/>
<path d="M51.675 19.3C51.475 19.3 51.175 19.2 50.975 19C50.575 18.6 50.575 18 50.975 17.6C53.475 15 53.475 10.8 50.975 8.3C50.575 7.9 50.575 7.3 50.975 6.9C51.375 6.5 51.975 6.5 52.375 6.9C55.675 10.2 55.675 15.6 52.375 19C52.175 19.2 51.975 19.3 51.675 19.3Z" fill="#666DE9"/>
<path d="M4.075 21.2C3.775 21.2 3.575 21.1 3.375 20.9C-1.125 16.4 -1.125 9.1 3.375 4.6C3.775 4.2 4.375 4.2 4.775 4.6C5.175 5 5.175 5.6 4.775 6C1.075 9.7 1.075 15.8 4.775 19.5C5.175 19.9 5.175 20.5 4.775 20.9C4.575 21.1 4.375 21.2 4.075 21.2Z" fill="#666DE9"/>
<path d="M8.275 19C7.975 19 7.775 18.9 7.575 18.7C4.275 15.3 4.275 9.9 7.575 6.6C7.975 6.2 8.575 6.2 8.975 6.6C9.375 7 9.375 7.6 8.975 8C6.475 10.5 6.475 14.7 8.975 17.3C9.375 17.7 9.375 18.3 8.975 18.7C8.775 18.9 8.575 19 8.275 19Z" fill="#666DE9"/>
</svg>
