<svg width="60" height="60" viewBox="0 0 60 60" fill="none" xmlns="http://www.w3.org/2000/svg">
<path fill-rule="evenodd" clip-rule="evenodd" d="M12.7071 35.2929C13.0976 35.6834 13.0976 36.3166 12.7071 36.7071L9.70711 39.7071C9.31658 40.0976 8.68342 40.0976 8.29289 39.7071C7.90237 39.3166 7.90237 38.6834 8.29289 38.2929L11.2929 35.2929C11.6834 34.9024 12.3166 34.9024 12.7071 35.2929Z" fill="#666DE9"/>
<path fill-rule="evenodd" clip-rule="evenodd" d="M11.2929 35.2929C11.6834 34.9024 12.3166 34.9024 12.7071 35.2929L15.7071 38.2929C16.0976 38.6834 16.0976 39.3166 15.7071 39.7071C15.3166 40.0976 14.6834 40.0976 14.2929 39.7071L11.2929 36.7071C10.9024 36.3166 10.9024 35.6834 11.2929 35.2929Z" fill="#666DE9"/>
<path fill-rule="evenodd" clip-rule="evenodd" d="M19.7071 33.2929C20.0976 33.6834 20.0976 34.3166 19.7071 34.7071L15.7071 38.7071C15.3166 39.0976 14.6834 39.0976 14.2929 38.7071C13.9024 38.3166 13.9024 37.6834 14.2929 37.2929L18.2929 33.2929C18.6834 32.9024 19.3166 32.9024 19.7071 33.2929Z" fill="#666DE9"/>
<path fill-rule="evenodd" clip-rule="evenodd" d="M18.2929 33.2929C18.6834 32.9024 19.3166 32.9024 19.7071 33.2929L22.7071 36.2929C23.0976 36.6834 23.0976 37.3166 22.7071 37.7071C22.3166 38.0976 21.6834 38.0976 21.2929 37.7071L18.2929 34.7071C17.9024 34.3166 17.9024 33.6834 18.2929 33.2929Z" fill="#666DE9"/>
<path fill-rule="evenodd" clip-rule="evenodd" d="M11 30C10.4473 30 10 30.4473 10 31C10 31.5527 10.4473 32 11 32C11.5527 32 12 31.5527 12 31C12 30.4473 11.5527 30 11 30ZM8 31C8 29.3427 9.34272 28 11 28C12.6573 28 14 29.3427 14 31C14 32.6573 12.6573 34 11 34C9.34272 34 8 32.6573 8 31Z" fill="#666DE9"/>
<path fill-rule="evenodd" clip-rule="evenodd" d="M28 4C28 3.44772 28.4477 3 29 3H34C34.5523 3 35 3.44772 35 4C35 4.55228 34.5523 5 34 5H29C28.4477 5 28 4.55228 28 4Z" fill="#666DE9"/>
<path fill-rule="evenodd" clip-rule="evenodd" d="M24 4C24 3.44772 24.4477 3 25 3H26C26.5523 3 27 3.44772 27 4C27 4.55228 26.5523 5 26 5H25C24.4477 5 24 4.55228 24 4Z" fill="#666DE9"/>
<path fill-rule="evenodd" clip-rule="evenodd" d="M13 9C13.5523 9 14 9.44771 14 10V11C14 11.5523 13.5523 12 13 12C12.4477 12 12 11.5523 12 11V10C12 9.44771 12.4477 9 13 9Z" fill="#666DE9"/>
<path fill-rule="evenodd" clip-rule="evenodd" d="M13 13C13.5523 13 14 13.4477 14 14V15C14 15.5523 13.5523 16 13 16C12.4477 16 12 15.5523 12 15V14C12 13.4477 12.4477 13 13 13Z" fill="#666DE9"/>
<path fill-rule="evenodd" clip-rule="evenodd" d="M13 17C13.5523 17 14 17.4477 14 18V19C14 19.5523 13.5523 20 13 20C12.4477 20 12 19.5523 12 19V18C12 17.4477 12.4477 17 13 17Z" fill="#666DE9"/>
<path fill-rule="evenodd" clip-rule="evenodd" d="M30 53C28.8953 53 28 53.8953 28 55C28 56.1047 28.8953 57 30 57C31.1047 57 32 56.1047 32 55C32 53.8953 31.1047 53 30 53ZM26 55C26 52.7907 27.7907 51 30 51C32.2093 51 34 52.7907 34 55C34 57.2093 32.2093 59 30 59C27.7907 59 26 57.2093 26 55Z" fill="#666DE9"/>
<path fill-rule="evenodd" clip-rule="evenodd" d="M32 22.4C32 15.9741 37.9599 11 45 11C52.0401 11 58 15.9741 58 22.4C58 28.803 52.0662 34 45 34C43.2104 34 41.5955 33.6693 40.0725 33.1016C38.6315 33.8526 36.9676 34.3121 35.6619 34.5885C34.933 34.7427 34.2952 34.844 33.8383 34.9069C33.6095 34.9384 33.4252 34.9604 33.2967 34.9747C33.2324 34.9818 33.1819 34.987 33.1467 34.9905L33.1055 34.9945L33.0938 34.9956L33.089 34.996C33.0888 34.996 33.0882 34.9961 33 34L33.089 34.996C32.667 35.0334 32.2663 34.8008 32.0904 34.4154C31.9144 34.03 32.0004 33.5755 32.305 33.281C32.7874 32.8147 33.1859 31.9951 33.481 30.9514C33.7306 30.0686 33.8808 29.1188 33.9681 28.2859C32.7466 26.5775 32 24.6329 32 22.4ZM34.9992 32.683C35.0807 32.6667 35.1636 32.6496 35.2478 32.6318C36.6127 32.3429 38.2398 31.8696 39.4958 31.1364C39.7641 30.9798 40.0898 30.9567 40.3775 31.074C41.8187 31.6615 43.3189 32 45 32C51.1878 32 56 27.485 56 22.4C56 17.3379 51.2139 13 45 13C38.7861 13 34 17.3379 34 22.4C34 24.2602 34.6502 25.8923 35.7952 27.3936C35.9461 27.5915 36.0178 27.8386 35.9962 28.0866C35.9107 29.0707 35.7399 30.3131 35.4055 31.4956C35.2943 31.8889 35.1609 32.2909 34.9992 32.683Z" fill="#666DE9"/>
<path fill-rule="evenodd" clip-rule="evenodd" d="M15 25C8.78611 25 4 29.3379 4 34.4C4 39.485 8.81216 44 15 44C16.6811 44 18.1813 43.6615 19.6225 43.074C19.9102 42.9567 20.2359 42.9798 20.5042 43.1364C21.7602 43.8696 23.3873 44.3429 24.7522 44.6318C24.8364 44.6496 24.9193 44.6667 25.0008 44.683C24.8391 44.2909 24.7057 43.8889 24.5945 43.4956C24.2601 42.3131 24.0893 41.0707 24.0038 40.0866C23.9822 39.8386 24.0539 39.5915 24.2048 39.3936C25.3498 37.8923 26 36.2602 26 34.4C26 29.3379 21.2139 25 15 25ZM27 46C26.9118 46.9961 26.9116 46.9961 26.9114 46.9961L26.9062 46.9956L26.8945 46.9945L26.8533 46.9905C26.8181 46.987 26.7676 46.9818 26.7033 46.9747C26.5748 46.9604 26.3905 46.9384 26.1617 46.9069C25.7048 46.844 25.067 46.7427 24.3381 46.5885C23.0324 46.3121 21.3685 45.8526 19.9275 45.1016C18.4045 45.6693 16.7896 46 15 46C7.93384 46 2 40.803 2 34.4C2 27.9741 7.95989 23 15 23C22.0401 23 28 27.9741 28 34.4C28 36.6329 27.2534 38.5775 26.0319 40.2859C26.1192 41.1188 26.2694 42.0686 26.519 42.9514C26.8141 43.9951 27.2126 44.8147 27.695 45.281C27.9996 45.5755 28.0856 46.03 27.9096 46.4154C27.7337 46.8008 27.3335 47.0334 26.9114 46.9961L27 46Z" fill="#666DE9"/>
<path fill-rule="evenodd" clip-rule="evenodd" d="M13 3.962C13 1.77372 14.7737 0 16.962 0H43.038C45.2263 0 47 1.77371 47 3.962V12.044C47 12.3218 46.8845 12.587 46.6811 12.7762C46.4777 12.9654 46.2047 13.0615 45.9277 13.0414C45.6024 13.0178 45.3006 13 45 13C38.7861 13 34 17.3379 34 22.4C34 24.2602 34.6502 25.8923 35.7952 27.3936C35.9461 27.5915 36.0178 27.8386 35.9962 28.0866C35.9107 29.0707 35.7399 30.3131 35.4055 31.4956C35.2943 31.8889 35.1609 32.2909 34.9992 32.683C35.0807 32.6667 35.1636 32.6496 35.2478 32.6318C36.6127 32.3429 38.2398 31.8696 39.4958 31.1364C39.7641 30.9798 40.0898 30.9567 40.3775 31.074C41.8187 31.6615 43.3189 32 45 32C45.2989 32 45.5992 31.9814 45.9247 31.9568C46.2022 31.9359 46.4759 32.0315 46.68 32.2207C46.884 32.41 47 32.6757 47 32.954V56.038C47 58.2263 45.2263 60 43.038 60H16.962C14.7737 60 13 58.2263 13 56.038V44.954C13 44.6757 13.116 44.41 13.32 44.2207C13.5241 44.0315 13.7978 43.9359 14.0753 43.9568C14.4008 43.9814 14.7011 44 15 44C16.6811 44 18.1813 43.6615 19.6225 43.074C19.9102 42.9567 20.2359 42.9798 20.5042 43.1364C21.7602 43.8696 23.3873 44.3429 24.7522 44.6318C24.8364 44.6496 24.9193 44.6667 25.0008 44.683C24.8391 44.2909 24.7057 43.8889 24.5945 43.4956C24.2601 42.3131 24.0893 41.0707 24.0038 40.0866C23.9822 39.8386 24.0539 39.5915 24.2048 39.3936C25.3498 37.8923 26 36.2602 26 34.4C26 29.3379 21.2139 25 15 25C14.6994 25 14.3976 25.0178 14.0723 25.0414C13.7953 25.0615 13.5223 24.9654 13.3189 24.7762C13.1155 24.587 13 24.3218 13 24.044V3.962ZM27 46C26.9118 46.9961 26.9116 46.9961 26.9114 46.9961L26.9098 46.9959L26.9062 46.9956L26.8945 46.9945L26.8533 46.9905C26.8181 46.987 26.7676 46.9818 26.7033 46.9747C26.5748 46.9604 26.3905 46.9384 26.1617 46.9069C25.7048 46.844 25.067 46.7427 24.3381 46.5885C23.0324 46.3121 21.3685 45.8526 19.9275 45.1016C18.4045 45.6693 16.7896 46 15 46V56.038C15 57.1217 15.8783 58 16.962 58H43.038C44.1217 58 45 57.1217 45 56.038V34C43.2104 34 41.5955 33.6693 40.0725 33.1016C38.6315 33.8526 36.9676 34.3121 35.6619 34.5885C34.933 34.7427 34.2952 34.844 33.8383 34.9069C33.6095 34.9384 33.4252 34.9604 33.2967 34.9747C33.2324 34.9818 33.1819 34.987 33.1467 34.9905L33.1055 34.9945L33.0938 34.9956L33.089 34.996C33.0888 34.996 33.0882 34.9961 33 34L33.089 34.996C32.667 35.0334 32.2663 34.8008 32.0904 34.4154C31.9144 34.03 32.0004 33.5755 32.305 33.281C32.7874 32.8147 33.1859 31.9951 33.481 30.9514C33.7306 30.0686 33.8808 29.1188 33.9681 28.2859C32.7466 26.5775 32 24.6329 32 22.4C32 15.9741 37.9599 11 45 11V3.962C45 2.87829 44.1217 2 43.038 2H16.962C15.8783 2 15 2.87828 15 3.962V23C22.0401 23 28 27.9741 28 34.4C28 36.6329 27.2534 38.5775 26.0319 40.2859C26.1192 41.1188 26.2694 42.0686 26.519 42.9514C26.8141 43.9951 27.2126 44.8147 27.695 45.281C27.9996 45.5755 28.0856 46.03 27.9096 46.4154C27.7337 46.8008 27.3335 47.0334 26.9114 46.9961L27 46Z" fill="#666DE9"/>
<path fill-rule="evenodd" clip-rule="evenodd" d="M13 7C13 6.44772 13.4477 6 14 6H46C46.5523 6 47 6.44772 47 7V12.044C47 12.3218 46.8845 12.587 46.6811 12.7762C46.4777 12.9654 46.2047 13.0615 45.9277 13.0414C45.6024 13.0178 45.3006 13 45 13C38.7861 13 34 17.3379 34 22.4C34 24.2602 34.6502 25.8923 35.7952 27.3936C35.9461 27.5915 36.0178 27.8386 35.9962 28.0866C35.9107 29.0707 35.7399 30.3131 35.4055 31.4956C35.2943 31.8889 35.1609 32.2909 34.9992 32.683C35.0807 32.6667 35.1636 32.6496 35.2478 32.6318C36.6127 32.3429 38.2398 31.8696 39.4958 31.1364C39.7641 30.9798 40.0898 30.9567 40.3775 31.074C41.8187 31.6615 43.3189 32 45 32C45.2989 32 45.5992 31.9814 45.9247 31.9568C46.2022 31.9359 46.4759 32.0315 46.68 32.2207C46.884 32.41 47 32.6757 47 32.954V51C47 51.5523 46.5523 52 46 52H14C13.4477 52 13 51.5523 13 51V44.954C13 44.6757 13.116 44.41 13.32 44.2207C13.5241 44.0315 13.7978 43.9359 14.0753 43.9568C14.4008 43.9814 14.7011 44 15 44C16.6811 44 18.1813 43.6615 19.6225 43.074C19.9102 42.9567 20.2359 42.9798 20.5042 43.1364C21.7602 43.8696 23.3873 44.3429 24.7522 44.6318C24.8364 44.6496 24.9193 44.6667 25.0008 44.683C24.8391 44.2909 24.7057 43.8889 24.5945 43.4956C24.2601 42.3131 24.0893 41.0707 24.0038 40.0866C23.9822 39.8386 24.0539 39.5915 24.2048 39.3936C25.3498 37.8923 26 36.2602 26 34.4C26 29.3379 21.2139 25 15 25C14.6994 25 14.3976 25.0178 14.0723 25.0414C13.7953 25.0615 13.5223 24.9654 13.3189 24.7762C13.1155 24.587 13 24.3218 13 24.044V7ZM27 46C26.9118 46.9961 26.9116 46.9961 26.9114 46.9961L26.9098 46.9959L26.9062 46.9956L26.8945 46.9945L26.8533 46.9905C26.8181 46.987 26.7676 46.9818 26.7033 46.9747C26.5748 46.9604 26.3905 46.9384 26.1617 46.9069C25.7048 46.844 25.067 46.7427 24.3381 46.5885C23.0324 46.3121 21.3685 45.8526 19.9275 45.1016C18.4045 45.6693 16.7896 46 15 46V50H45V34C43.2104 34 41.5955 33.6693 40.0725 33.1016C38.6315 33.8526 36.9676 34.3121 35.6619 34.5885C34.933 34.7427 34.2952 34.844 33.8383 34.9069C33.6095 34.9384 33.4252 34.9604 33.2967 34.9747C33.2324 34.9818 33.1819 34.987 33.1467 34.9905L33.1055 34.9945L33.0938 34.9956L33.089 34.996C33.0888 34.996 33.0882 34.9961 33 34L33.089 34.996C32.667 35.0334 32.2663 34.8008 32.0904 34.4154C31.9144 34.03 32.0004 33.5755 32.305 33.281C32.7874 32.8147 33.1859 31.9951 33.481 30.9514C33.7306 30.0686 33.8808 29.1188 33.9681 28.2859C32.7466 26.5775 32 24.6329 32 22.4C32 15.9741 37.9599 11 45 11V8H15V23C22.0401 23 28 27.9741 28 34.4C28 36.6329 27.2534 38.5775 26.0319 40.2859C26.1192 41.1188 26.2694 42.0686 26.519 42.9514C26.8141 43.9951 27.2126 44.8147 27.695 45.281C27.9996 45.5755 28.0856 46.03 27.9096 46.4154C27.7337 46.8008 27.3335 47.0334 26.9114 46.9961L27 46Z" fill="#666DE9"/>
<path fill-rule="evenodd" clip-rule="evenodd" d="M47 16C47.5523 16 48 16.4477 48 17V22C48 22.5523 47.5523 23 47 23C46.4477 23 46 22.5523 46 22V17C46 16.4477 46.4477 16 47 16Z" fill="#666DE9"/>
<path fill-rule="evenodd" clip-rule="evenodd" d="M40 24.179C40 22.0016 41.6719 20 44 20H47C47.5523 20 48 20.4477 48 21V24C48 26.2543 46.2543 28 44 28C42.9307 28 41.9299 27.6468 41.186 26.9649C40.4339 26.2755 40 25.299 40 24.179ZM44 22C42.9241 22 42 22.9524 42 24.179C42 24.761 42.215 25.195 42.5375 25.4906C42.8681 25.7937 43.3673 26 44 26C45.1497 26 46 25.1497 46 24V22H44Z" fill="#666DE9"/>
</svg>
