<svg width="57" height="60" viewBox="0 0 57 60" fill="none" xmlns="http://www.w3.org/2000/svg">
<path d="M40 57C37.8 57 36 55.2 36 53C36 50.8 37.8 49 40 49C42.2 49 44 50.8 44 53C44 55.2 42.2 57 40 57ZM40 51C38.9 51 38 51.9 38 53C38 54.1 38.9 55 40 55C41.1 55 42 54.1 42 53C42 51.9 41.1 51 40 51Z" fill="#666DE9"/>
<path d="M56 48H24C23.4 48 23 47.6 23 47C23 46.4 23.4 46 24 46H56C56.6 46 57 46.4 57 47C57 47.6 56.6 48 56 48Z" fill="#666DE9"/>
<path d="M56 8H24C23.4 8 23 7.6 23 7C23 6.4 23.4 6 24 6H56C56.6 6 57 6.4 57 7C57 7.6 56.6 8 56 8Z" fill="#666DE9"/>
<path d="M40 5H36C35.4 5 35 4.6 35 4C35 3.4 35.4 3 36 3H40C40.6 3 41 3.4 41 4C41 4.6 40.6 5 40 5Z" fill="#666DE9"/>
<path d="M44 5H43C42.4 5 42 4.6 42 4C42 3.4 42.4 3 43 3H44C44.6 3 45 3.4 45 4C45 4.6 44.6 5 44 5Z" fill="#666DE9"/>
<path d="M28 41C20.3 41 14 34.7 14 27C14 19.3 20.3 13 28 13C35.7 13 42 19.3 42 27C42 34.7 35.7 41 28 41ZM28 15C21.4 15 16 20.4 16 27C16 33.6 21.4 39 28 39C34.6 39 40 33.6 40 27C40 20.4 34.6 15 28 15Z" fill="#666DE9"/>
<path d="M1 53C0.7 53 0.5 52.9 0.3 52.7C0.1 52.5 0 52.2 0 52C0 51.7 0.1 51.5 0.3 51.3L17.7 35C18.1 34.6 18.7 34.6 19.1 35C19.3 35.2 19.4 35.4 19.4 35.7C19.4 36 19.3 36.2 19.1 36.4L1.7 52.7C1.5 52.9 1.2 53 1 53Z" fill="#666DE9"/>
<path d="M52.6 60H27.4C24.9 60 23 58.1 23 55.6V39.4C23 39.1 23.2 38.8 23.4 38.6C23.7 38.4 24 38.4 24.3 38.4C25.5 38.8 26.7 39 28 39C34.6 39 40 33.6 40 27C40 20.4 34.6 15 28 15C26.7 15 25.5 15.2 24.3 15.6C24 15.7 23.7 15.6 23.4 15.4C23.1 15.2 23 14.9 23 14.6V4.4C23 1.9 24.9 0 27.4 0H52.6C55.1 0 57 1.9 57 4.4V55.6C57 58.1 55.1 60 52.6 60ZM25 40.7V55.6C25 56.9 26.1 58 27.4 58H52.6C53.9 58 55 56.9 55 55.6V4.4C55 3.1 53.9 2 52.6 2H27.4C26.1 2 25 3.1 25 4.4V13.3C26 13.1 27 13 28 13C35.7 13 42 19.3 42 27C42 34.7 35.7 41 28 41C27 41 26 40.9 25 40.7Z" fill="#666DE9"/>
</svg>
