<svg width="60" height="60" viewBox="0 0 60 60" fill="none" xmlns="http://www.w3.org/2000/svg">
<path d="M43 0H17C14.2 0 12 2.2 12 5V55C12 57.8 14.2 60 17 60H43C45.8 60 48 57.8 48 55V5C48 2.2 45.8 0 43 0ZM46 55C46 56.7 44.7 58 43 58H17C15.3 58 14 56.7 14 55V5C14 3.3 15.3 2 17 2H43C44.7 2 46 3.3 46 5V55Z" fill="#666DE9"/>
<path d="M43 3.5H39.7C39.1 3.5 38.5 3.9 38.3 4.5L38 5.5C37.8 6.1 37.2 6.5 36.6 6.5H23.4C22.8 6.5 22.2 6.1 22 5.5L21.7 4.5C21.5 3.9 20.9 3.5 20.3 3.5H17C16.2 3.5 15.5 4.2 15.5 5V55C15.5 55.8 16.2 56.5 17 56.5H43C43.8 56.5 44.5 55.8 44.5 55V5C44.5 4.2 43.8 3.5 43 3.5ZM43.5 55C43.5 55.3 43.3 55.5 43 55.5H17C16.7 55.5 16.5 55.3 16.5 55V5C16.5 4.7 16.7 4.5 17 4.5H20.3C20.5 4.5 20.7 4.6 20.8 4.8L21.1 5.7C21.4 6.7 22.4 7.4 23.5 7.4H36.6C37.7 7.4 38.6 6.7 39 5.7L39.3 4.8C39.4 4.6 39.6 4.5 39.8 4.5H43C43.3 4.5 43.5 4.7 43.5 5V55Z" fill="#666DE9"/>
<path d="M35 5C35.1 5 35.3 5 35.4 4.9C35.5 4.8 35.6 4.8 35.7 4.7C36.1 4.3 36.1 3.7 35.7 3.3C35.6 3.2 35.5 3.1 35.4 3.1C35 2.9 34.6 3 34.3 3.3C33.9 3.7 33.9 4.3 34.3 4.7C34.5 4.9 34.7 5 35 5Z" fill="#666DE9"/>
<path d="M22 16.5C20.1 16.5 18.5 18.1 18.5 20C18.5 21.9 20.1 23.5 22 23.5C23.9 23.5 25.5 21.9 25.5 20C25.5 18.1 23.9 16.5 22 16.5ZM22 22.5C20.6 22.5 19.5 21.4 19.5 20C19.5 18.6 20.6 17.5 22 17.5C23.4 17.5 24.5 18.6 24.5 20C24.5 21.4 23.4 22.5 22 22.5Z" fill="#666DE9"/>
<path d="M30 16.5C28.1 16.5 26.5 18.1 26.5 20C26.5 21.9 28.1 23.5 30 23.5C31.9 23.5 33.5 21.9 33.5 20C33.5 18.1 31.9 16.5 30 16.5ZM30 22.5C28.6 22.5 27.5 21.4 27.5 20C27.5 18.6 28.6 17.5 30 17.5C31.4 17.5 32.5 18.6 32.5 20C32.5 21.4 31.4 22.5 30 22.5Z" fill="#666DE9"/>
<path d="M38 23.5C39.9 23.5 41.5 21.9 41.5 20C41.5 18.1 39.9 16.5 38 16.5C36.1 16.5 34.5 18.1 34.5 20C34.5 21.9 36.1 23.5 38 23.5ZM38 17.5C39.4 17.5 40.5 18.6 40.5 20C40.5 21.4 39.4 22.5 38 22.5C36.6 22.5 35.5 21.4 35.5 20C35.5 18.6 36.6 17.5 38 17.5Z" fill="#666DE9"/>
<path d="M22 25.5C20.1 25.5 18.5 27.1 18.5 29C18.5 30.9 20.1 32.5 22 32.5C23.9 32.5 25.5 30.9 25.5 29C25.5 27.1 23.9 25.5 22 25.5ZM22 31.5C20.6 31.5 19.5 30.4 19.5 29C19.5 27.6 20.6 26.5 22 26.5C23.4 26.5 24.5 27.6 24.5 29C24.5 30.4 23.4 31.5 22 31.5Z" fill="#666DE9"/>
<path d="M30 25.5C28.1 25.5 26.5 27.1 26.5 29C26.5 30.9 28.1 32.5 30 32.5C31.9 32.5 33.5 30.9 33.5 29C33.5 27.1 31.9 25.5 30 25.5ZM30 31.5C28.6 31.5 27.5 30.4 27.5 29C27.5 27.6 28.6 26.5 30 26.5C31.4 26.5 32.5 27.6 32.5 29C32.5 30.4 31.4 31.5 30 31.5Z" fill="#666DE9"/>
<path d="M38 32.5C39.9 32.5 41.5 30.9 41.5 29C41.5 27.1 39.9 25.5 38 25.5C36.1 25.5 34.5 27.1 34.5 29C34.5 30.9 36.1 32.5 38 32.5ZM38 26.5C39.4 26.5 40.5 27.6 40.5 29C40.5 30.4 39.4 31.5 38 31.5C36.6 31.5 35.5 30.4 35.5 29C35.5 27.6 36.6 26.5 38 26.5Z" fill="#666DE9"/>
<path d="M22 34.5C20.1 34.5 18.5 36.1 18.5 38C18.5 39.9 20.1 41.5 22 41.5C23.9 41.5 25.5 39.9 25.5 38C25.5 36.1 23.9 34.5 22 34.5ZM22 40.5C21 40.5 20.1 39.9 19.7 39C19.3 38.1 19.5 37 20.2 36.3C20.9 35.6 22 35.4 22.9 35.8C23.8 36.2 24.4 37.1 24.4 38.1C24.5 39.4 23.4 40.5 22 40.5Z" fill="#666DE9"/>
<path d="M30 34.5C28.1 34.5 26.5 36.1 26.5 38C26.5 39.9 28.1 41.5 30 41.5C31.9 41.5 33.5 39.9 33.5 38C33.5 36.1 31.9 34.5 30 34.5ZM30 40.5C29 40.5 28.1 39.9 27.7 39C27.3 38.1 27.5 37 28.2 36.3C28.9 35.6 30 35.4 30.9 35.8C31.8 36.2 32.4 37.1 32.4 38.1C32.5 39.4 31.4 40.5 30 40.5Z" fill="#666DE9"/>
<path d="M30 43.5C28.1 43.5 26.5 45.1 26.5 47C26.5 48.9 28.1 50.5 30 50.5C31.9 50.5 33.5 48.9 33.5 47C33.5 45.1 31.9 43.5 30 43.5ZM30 49.5C28.6 49.5 27.5 48.4 27.5 47C27.5 45.6 28.6 44.5 30 44.5C31.4 44.5 32.5 45.6 32.5 47C32.5 48.4 31.4 49.5 30 49.5Z" fill="#666DE9"/>
<path d="M38 41.5C39.9 41.5 41.5 39.9 41.5 38C41.5 36.1 39.9 34.5 38 34.5C36.1 34.5 34.5 36.1 34.5 38C34.5 39.9 36.1 41.5 38 41.5ZM38 35.5C39.4 35.5 40.5 36.6 40.5 38C40.5 39.4 39.4 40.5 38 40.5C36.6 40.5 35.5 39.4 35.5 38C35.5 36.6 36.6 35.5 38 35.5Z" fill="#666DE9"/>
<path d="M23.6 13.9C23.7 14 23.9 14 24 14C24.3 14 24.5 13.9 24.7 13.7C24.9 13.5 25 13.3 25 13C25 12.9 25 12.9 25 12.8C25 12.7 25 12.7 24.9 12.6C24.9 12.5 24.8 12.5 24.8 12.4C24.8 12.3 24.7 12.3 24.7 12.3C24.4 12 24 11.9 23.6 12.1C23.5 12.2 23.4 12.2 23.3 12.3C22.9 12.7 22.9 13.3 23.3 13.7C23.4 13.8 23.5 13.9 23.6 13.9Z" fill="#666DE9"/>
<path d="M27.6 13.9C27.7 14 27.9 14 28 14C28.3 14 28.5 13.9 28.7 13.7C28.9 13.5 29 13.3 29 13C29 12.9 29 12.7 28.9 12.6C28.9 12.5 28.8 12.4 28.7 12.3C28.3 11.9 27.7 11.9 27.3 12.3C27.2 12.4 27.1 12.5 27.1 12.6C27 12.7 27 12.9 27 13C27 13.3 27.1 13.5 27.3 13.7C27.4 13.8 27.5 13.9 27.6 13.9Z" fill="#666DE9"/>
<path d="M32 14C32.1 14 32.3 14 32.4 13.9C32.5 13.8 32.6 13.8 32.7 13.7C32.9 13.5 33 13.3 33 13C33 12.9 33 12.7 32.9 12.6C32.9 12.5 32.8 12.4 32.7 12.3C32.3 11.9 31.7 11.9 31.3 12.3C31.2 12.4 31.1 12.5 31.1 12.6C31 12.7 31 12.9 31 13C31 13.3 31.1 13.5 31.3 13.7C31.5 13.9 31.7 14 32 14Z" fill="#666DE9"/>
<path d="M36 14C36.5 14 36.9 13.7 37 13.2C37.1 12.7 36.8 12.3 36.4 12.1C36 11.9 35.5 12.1 35.2 12.5C34.9 12.9 35 13.4 35.3 13.7C35.5 13.9 35.7 14 36 14Z" fill="#666DE9"/>
<path d="M24 52H19C18.4 52 18 52.4 18 53C18 53.6 18.4 54 19 54H24C24.6 54 25 53.6 25 53C25 52.4 24.6 52 24 52Z" fill="#666DE9"/>
<path d="M41 52H36C35.4 52 35 52.4 35 53C35 53.6 35.4 54 36 54H41C41.6 54 42 53.6 42 53C42 52.4 41.6 52 41 52Z" fill="#666DE9"/>
</svg>
