<svg width="54" height="55" viewBox="0 0 54 55" fill="none" xmlns="http://www.w3.org/2000/svg">
<path fill-rule="evenodd" clip-rule="evenodd" d="M21.5188 10.1234C21.8387 9.94776 22.229 9.96039 22.5369 10.1563L33.5369 17.1563C33.8253 17.3399 34 17.6581 34 18C34 18.3419 33.8253 18.6601 33.5369 18.8437L22.5369 25.8437C22.229 26.0396 21.8387 26.0522 21.5188 25.8766C21.1988 25.701 21 25.365 21 25V11C21 10.635 21.1988 10.299 21.5188 10.1234ZM23 12.8217V23.1783L31.1374 18L23 12.8217Z" fill="#666DE9"/>
<path fill-rule="evenodd" clip-rule="evenodd" d="M0 0H54V55H0V0ZM2 2V53H52V2H2Z" fill="#666DE9"/>
<path fill-rule="evenodd" clip-rule="evenodd" d="M53 37H1V35H53V37Z" fill="#666DE9"/>
<path fill-rule="evenodd" clip-rule="evenodd" d="M7 41C7.55228 41 8 41.4477 8 42V48C8 48.5523 7.55228 49 7 49C6.44772 49 6 48.5523 6 48V42C6 41.4477 6.44772 41 7 41ZM11 41C11.5523 41 12 41.4477 12 42V48C12 48.5523 11.5523 49 11 49C10.4477 49 10 48.5523 10 48V42C10 41.4477 10.4477 41 11 41ZM22 41C22.5523 41 23 41.4477 23 42V44H47C47.5523 44 48 44.4477 48 45C48 45.5523 47.5523 46 47 46H23V48C23 48.5523 22.5523 49 22 49C21.4477 49 21 48.5523 21 48V46H17C16.4477 46 16 45.5523 16 45C16 44.4477 16.4477 44 17 44H21V42C21 41.4477 21.4477 41 22 41Z" fill="#666DE9"/>
</svg>
