<svg width="60" height="60" viewBox="0 0 60 60" fill="none" xmlns="http://www.w3.org/2000/svg">
<path d="M23 15C22.8 15 22.5 14.9 22.3 14.8C22.1 14.6 22 14.3 22 14V8C22 7.5 22.4 7.1 22.9 7L53.9 3C54.2 3 54.5 3.1 54.7 3.2C54.9 3.4 55 3.7 55 4V10C55 10.5 54.6 10.9 54.1 11L23.1 15H23ZM24 8.9V12.9L53 9.2V5.2L24 8.9Z" fill="#666DE9"/>
<path d="M23 49C22.4 49 22 48.6 22 48V14C22 13.4 22.4 13 23 13C23.6 13 24 13.4 24 14V48C24 48.6 23.6 49 23 49Z" fill="#666DE9"/>
<path d="M54 40C53.4 40 53 39.6 53 39V10C53 9.4 53.4 9 54 9C54.6 9 55 9.4 55 10V39C55 39.6 54.6 40 54 40Z" fill="#666DE9"/>
<path d="M45 48C39.5 48 35 44 35 39C35 34 39.5 30 45 30C50.5 30 55 34 55 39C55 44 50.5 48 45 48ZM45 32C40.6 32 37 35.1 37 39C37 42.9 40.6 46 45 46C49.4 46 53 42.9 53 39C53 35.1 49.4 32 45 32Z" fill="#666DE9"/>
<path d="M14 57C8.5 57 4 53 4 48C4 43 8.5 39 14 39C19.5 39 24 43 24 48C24 53 19.5 57 14 57ZM14 41C9.6 41 6 44.1 6 48C6 51.9 9.6 55 14 55C18.4 55 22 51.9 22 48C22 44.1 18.4 41 14 41Z" fill="#666DE9"/>
</svg>
