<svg width="60" height="60" viewBox="0 0 60 60" fill="none" xmlns="http://www.w3.org/2000/svg">
<path d="M28.9542 10C28.9542 9.4 28.5542 9 27.9542 9C26.2542 9 24.9542 10.3 24.9542 12C24.9542 12.6 25.3542 13 25.9542 13C26.5542 13 26.9542 12.6 26.9542 12C26.9542 11.4 27.3542 11 27.9542 11C28.2542 11 28.4542 10.9 28.6542 10.7C28.8542 10.5 28.9542 10.3 28.9542 10Z" fill="#666DE9"/>
<path d="M10.2542 28.5C10.7542 29.4 11.7542 30 12.7542 29.9L18.8542 29.2C19.3542 29.1 19.8542 29.5 19.9542 30.1L20.4542 33.1C20.5542 33.6 20.4542 34.1 20.1542 34.6L17.6542 38.3C16.8542 39.4 17.0542 41 18.0542 42L20.8542 44.8L24.6542 52.4C24.8542 52.8 25.2542 53.1 25.6542 53.3L31.3542 56.6C31.6542 56.8 32.0542 56.9 32.3542 56.9C33.1542 56.9 33.7542 56.5 34.1542 55.8L35.2542 53.7C35.3542 53.6 35.3542 53.4 35.3542 53.2C35.3542 52.5 34.9542 51.8 34.2542 51.4L32.7542 50.5V49.1C32.7542 48 31.8542 47.1 30.7542 47.1H30.0542L30.3542 45.8C30.4542 45.3 30.8542 45 31.3542 45H35.7542C36.8542 45 37.7542 44.4 38.3542 43.5L40.4542 40.1C40.5542 39.9 40.7542 39.7 41.0542 39.6L45.1542 38.2C45.7542 38 46.1542 37.6 46.3542 37.1C46.5542 36.6 46.5542 36 46.3542 35.4L46.2542 34.9C46.1542 34.5 46.3542 34.1 46.6542 33.9L48.4542 32.7C49.2542 32.3 49.7542 31.5 49.9542 30.7C50.1542 29.8 49.9542 28.9 49.4542 28.2L48.4542 26.9C47.8542 26.4 46.9542 26 45.9542 26H44.9542C43.9542 26 43.1542 26.4 42.5542 27.2L40.9542 29.3L39.9542 27.9L40.4542 26.7C40.8542 25.7 40.6542 24.5 40.0542 23.7C39.4542 22.9 38.2542 22.4 37.1542 22.6L34.9542 22.9L32.1542 21.5C31.7542 21.3 31.3542 21.2 30.9542 21.2V18.4C33.9542 17 35.4542 13.7 34.7542 10.5C34.0542 7.3 31.2542 5 27.9542 5C24.6542 5 21.8542 7.3 21.1542 10.5C20.4542 13.7 22.0542 17 24.9542 18.4V22L23.7542 21.4C23.1542 21.1 22.4542 21 21.8542 21.1L17.5542 22C17.3542 22 17.1542 22.1 17.0542 22.2L11.3542 25.2C10.1542 25.8 9.65424 27.2 10.2542 28.5C10.1542 28.4 10.1542 28.4 10.2542 28.5ZM22.9542 12C22.9542 9.2 25.1542 7 27.9542 7C30.7542 7 32.9542 9.2 32.9542 12C32.9542 14.8 30.7542 17 27.9542 17C25.1542 17 22.9542 14.8 22.9542 12ZM28.9542 19V31C28.9542 31.6 28.5542 32 27.9542 32C27.3542 32 26.9542 31.6 26.9542 31V19H28.9542ZM12.2542 26.9L17.9542 23.9L22.1542 23C22.3542 23 22.5542 23 22.7542 23.1L24.8542 24.2V31C24.8542 32.7 26.1542 34 27.8542 34C29.5542 34 30.8542 32.7 30.8542 31V23.2C30.9542 23.2 31.0542 23.2 31.1542 23.3L33.9542 24.7C34.3542 24.9 34.7542 25 35.2542 24.9L37.4542 24.5C37.8542 24.4 38.1542 24.6 38.4542 24.9C38.6542 25.2 38.7542 25.6 38.6542 25.9L38.1542 27.1C37.9542 27.7 37.9542 28.4 38.3542 28.9L39.2542 30.3C39.6542 30.8 40.2542 31.2 40.8542 31.2C41.5542 31.2 42.1542 30.9 42.5542 30.4L44.1542 28.3C44.3542 28 44.6542 27.9 44.9542 27.9H45.9542C46.2542 27.9 46.5542 28.1 46.7542 28.3L47.7542 29.6C47.9542 29.8 47.9542 30.2 47.9542 30.5C47.8542 30.8 47.6542 31 47.4542 31.2C47.4542 31.2 47.3542 31.2 47.3542 31.3L45.5542 32.5C44.5542 33.2 44.0542 34.3 44.2542 35.4L44.3542 36.1C44.3542 36.3 44.4542 36.4 44.4542 36.5L40.2542 38C39.5542 38.2 38.9542 38.7 38.6542 39.3L36.5542 42.7C36.3542 43 36.0542 43.2 35.6542 43.2H31.2542C29.8542 43.2 28.6542 44.1 28.3542 45.5L28.0542 46.8C27.9542 47.4 28.0542 48 28.4542 48.5C28.8542 49 29.4542 49.3 30.0542 49.3H30.7542V50.7C30.7542 51.4 31.1542 52.1 31.8542 52.5L33.2542 53.3L32.3542 55L26.5542 51.6C26.4542 51.6 26.4542 51.5 26.3542 51.5L22.6542 44C22.5542 43.8 22.4542 43.6 22.2542 43.4L19.4542 40.6C19.1542 40.2 19.0542 39.7 19.3542 39.3L21.8542 35.6C22.4542 34.7 22.6542 33.7 22.4542 32.7L21.9542 29.7C21.6542 28.1 20.2542 27 18.6542 27.2L12.5542 27.9C12.3542 27.9 12.0542 27.8 11.9542 27.6V27.5C11.9542 27.2 12.0542 27 12.2542 26.9Z" fill="#666DE9"/>
</svg>
