<svg width="58" height="58" viewBox="0 0 58 58" fill="none" xmlns="http://www.w3.org/2000/svg">
<path d="M57 57.3006H55C54.4 57.3006 54 56.9006 54 56.3006C54 55.7006 54.4 55.3006 55 55.3006H57C57.6 55.3006 58 55.7006 58 56.3006C58 56.9006 57.6 57.3006 57 57.3006ZM51 57.3006H49C48.4 57.3006 48 56.9006 48 56.3006C48 55.7006 48.4 55.3006 49 55.3006H51C51.6 55.3006 52 55.7006 52 56.3006C52 56.9006 51.6 57.3006 51 57.3006ZM45 57.3006H43C42.4 57.3006 42 56.9006 42 56.3006C42 55.7006 42.4 55.3006 43 55.3006H45C45.6 55.3006 46 55.7006 46 56.3006C46 56.9006 45.6 57.3006 45 57.3006ZM39 57.3006H37C36.4 57.3006 36 56.9006 36 56.3006C36 55.7006 36.4 55.3006 37 55.3006H39C39.6 55.3006 40 55.7006 40 56.3006C40 56.9006 39.6 57.3006 39 57.3006ZM33 57.3006H31C30.4 57.3006 30 56.9006 30 56.3006C30 55.7006 30.4 55.3006 31 55.3006H33C33.6 55.3006 34 55.7006 34 56.3006C34 56.9006 33.6 57.3006 33 57.3006ZM27 57.3006H25C24.4 57.3006 24 56.9006 24 56.3006C24 55.7006 24.4 55.3006 25 55.3006H27C27.6 55.3006 28 55.7006 28 56.3006C28 56.9006 27.6 57.3006 27 57.3006ZM21 57.3006H19C18.4 57.3006 18 56.9006 18 56.3006C18 55.7006 18.4 55.3006 19 55.3006H21C21.6 55.3006 22 55.7006 22 56.3006C22 56.9006 21.6 57.3006 21 57.3006ZM15 57.3006H13C12.4 57.3006 12 56.9006 12 56.3006C12 55.7006 12.4 55.3006 13 55.3006H15C15.6 55.3006 16 55.7006 16 56.3006C16 56.9006 15.6 57.3006 15 57.3006ZM9 57.3006H7C6.4 57.3006 6 56.9006 6 56.3006C6 55.7006 6.4 55.3006 7 55.3006H9C9.6 55.3006 10 55.7006 10 56.3006C10 56.9006 9.6 57.3006 9 57.3006ZM3 57.3006H1C0.4 57.3006 0 56.9006 0 56.3006C0 55.7006 0.4 55.3006 1 55.3006H3C3.6 55.3006 4 55.7006 4 56.3006C4 56.9006 3.6 57.3006 3 57.3006Z" fill="#666DE9"/>
<path d="M26.7 23.8006C26.4 23.8006 26.2 23.7006 26 23.5006C25.6 23.1006 25.6 22.5006 26 22.1006L38 10.1006C38.4 9.70062 39 9.70062 39.4 10.1006C39.8 10.5006 39.8 11.1006 39.4 11.5006L27.4 23.5006C27.2 23.7006 27 23.8006 26.7 23.8006Z" fill="#666DE9"/>
<path d="M35.2 23.8006C34.9 23.8006 34.7 23.7006 34.5 23.5006C34.1 23.1006 34.1 22.5006 34.5 22.1006L35.2 21.4006C35.6 21.0006 36.2 21.0006 36.6 21.4006C37 21.8006 37 22.4006 36.6 22.8006L35.9 23.5006C35.7 23.7006 35.5 23.8006 35.2 23.8006Z" fill="#666DE9"/>
<path d="M21.1 29.5006C20.8 29.5006 20.6 29.4006 20.4 29.2006C20 28.8006 20 28.2006 20.4 27.8006L22.5 25.7006C22.9 25.3006 23.5 25.3006 23.9 25.7006C24.3 26.1006 24.3 26.7006 23.9 27.1006L21.8 29.2006C21.6 29.4006 21.4 29.5006 21.1 29.5006Z" fill="#666DE9"/>
<path d="M21.1 29.5006C20.8 29.5006 20.6 29.4006 20.4 29.2006C20 28.8006 20 28.2006 20.4 27.8006L23.2 25.0006C23.6 24.6006 24.2 24.6006 24.6 25.0006C25 25.4006 25 26.0006 24.6 26.4006L21.8 29.2006C21.6 29.4006 21.4 29.5006 21.1 29.5006Z" fill="#666DE9"/>
<path d="M18.9 40.1006C18.6 40.1006 18.4 40.0006 18.2 39.8006C17.8 39.4006 17.8 38.8006 18.2 38.4006L35.2 21.4006C35.6 21.0006 36.2 21.0006 36.6 21.4006C37 21.8006 37 22.4006 36.6 22.8006L19.6 39.8006C19.4 40.0006 19.2 40.1006 18.9 40.1006Z" fill="#666DE9"/>
<path d="M38.7 20.3006C38.4 20.3006 38.2 20.2006 38 20.0006C37.6 19.6006 37.6 19.0006 38 18.6006L42.2 14.4006C42.6 14.0006 43.2 14.0006 43.6 14.4006C44 14.8006 44 15.4006 43.6 15.8006L39.4 20.0006C39.2 20.2006 39 20.3006 38.7 20.3006Z" fill="#666DE9"/>
<path d="M14.7 36.3006C14.5 36.3006 14.2 36.2006 14 36.0006C13.6 35.6006 13.6 35.0006 13.9 34.6006L17.6 30.6006C18 30.2006 18.6 30.2006 19 30.5006C19.4 30.9006 19.4 31.5006 19.1 31.9006L15.4 35.9006C15.2 36.2006 15 36.3006 14.7 36.3006Z" fill="#666DE9"/>
<path d="M19 45.8006C18.7 45.8006 18.5 45.7006 18.3 45.5006C17.9 45.1006 17.9 44.5006 18.3 44.1006L47.2 15.1006L38.7 6.60062L9.7 36.0006C9.3 36.4006 8.7 36.4006 8.3 36.0006C7.9 35.6006 7.9 35.0006 8.3 34.6006L38.7 3.80062L50 15.1006L19.7 45.5006C19.5 45.7006 19.3 45.8006 19 45.8006Z" fill="#666DE9"/>
<path d="M1.3 53.8006C1 53.8006 0.8 53.7006 0.6 53.5006C0.3 53.2006 0.2 52.8006 0.4 52.4006L8.1 34.9006C8.2 34.5006 8.6 34.3006 9 34.3006H14.7C15 34.3006 15.3 34.4006 15.5 34.7006C15.7 34.9006 15.8 35.3006 15.7 35.6006L14.7 39.3006L18.7 38.2006C19 38.1006 19.3 38.2006 19.6 38.4006C19.8 38.6006 20 38.9006 20 39.2006V44.9006C20 45.3006 19.8 45.6006 19.4 45.8006L1.7 53.8006C1.6 53.8006 1.4 53.8006 1.3 53.8006ZM9.7 36.3006L3.3 50.8006L18 44.2006V40.5006L13.6 41.7006C13.3 41.8006 12.9 41.7006 12.6 41.5006C12.3 41.3006 12.2 40.9006 12.3 40.5006L13.4 36.4006H9.7V36.3006Z" fill="#666DE9"/>
<path d="M48.6 16.5006L37.3 5.20062L40.4 2.10062C43 -0.499376 48.1 -0.999376 51.5 2.40062L51.6 2.50062C53.1 4.00062 53.9 6.00062 53.9 8.10062C53.9 10.1006 53.1 12.0006 51.7 13.4006L48.6 16.5006ZM40.1 5.20062L48.6 13.7006L50.3 12.0006C51.3 11.0006 51.9 9.60062 51.9 8.10062C51.9 6.50062 51.3 5.00062 50.2 3.90062L50.1 3.80062C47.5 1.20062 43.7 1.60062 41.8 3.50062L40.1 5.20062Z" fill="#666DE9"/>
<path d="M45.1 18.2006C44.8 18.2006 44.6 18.1006 44.4 17.9006L35.9 9.40062C35.5 9.00062 35.5 8.40062 35.9 8.00062C36.3 7.60062 36.9 7.60062 37.3 8.00062L45.8 16.5006C46.2 16.9006 46.2 17.5006 45.8 17.9006C45.6 18.1006 45.4 18.2006 45.1 18.2006Z" fill="#666DE9"/>
<path d="M4.7 44.7006L1.3 52.6006L9.1 49.1006L4.7 44.7006Z" fill="#666DE9"/>
</svg>
