<svg width="60" height="60" viewBox="0 0 60 60" fill="none" xmlns="http://www.w3.org/2000/svg">
<path d="M17.4 43.6C17.1 43.6 16.9 43.5 16.7 43.3C16.4 43 16.3 42.7 16.4 42.3L18.5 34.5C18.5 34.3 18.6 34.2 18.7 34.1L48.5 4.4L52 0.9C52.6 0.3 53.4 0 54.2 0C55 0 55.7 0.3 56.3 0.9L59.1 3.7C59.7 4.3 60 5 60 5.8C60 6.6 59.7 7.3 59.1 7.9L25.9 41.2C25.8 41.3 25.6 41.4 25.4 41.5L17.6 43.6C17.6 43.6 17.5 43.6 17.4 43.6ZM20 36.8L18.8 41.2L23.2 40L20 36.8ZM21 34.8L25.2 39L50.7 13.5L46.5 9.3L21 34.8ZM47.8 8L52 12.2L53.4 10.8L49.2 6.6L47.8 8ZM50.6 5.1L54.8 9.3L57.6 6.5C57.9 6.3 58 6.1 58 5.8C58 5.5 57.9 5.3 57.7 5.1L54.9 2.3C54.7 2.1 54.4 2 54.2 2C53.9 2 53.7 2.1 53.5 2.3L50.6 5.1Z" fill="#666DE9"/>
<path d="M16 45C15.7 45 15.5 44.9 15.3 44.7C14.9 44.3 14.9 43.7 15.3 43.3L16.7 41.9C17.1 41.5 17.7 41.5 18.1 41.9C18.5 42.3 18.5 42.9 18.1 43.3L16.7 44.7C16.5 44.9 16.3 45 16 45Z" fill="#666DE9"/>
<path d="M55 60H1C0.4 60 0 59.6 0 59V5C0 4.4 0.4 4 1 4H49.4C49.8 4 50.2 4.2 50.3 4.6C50.5 5 50.4 5.4 50.1 5.7L20.4 35.3L18.8 41.1L24.6 39.5L54.3 10C54.6 9.7 55 9.6 55.4 9.8C55.8 10 56 10.3 56 10.7V59C56 59.6 55.6 60 55 60ZM2 58H54V13.1L25.9 41.2C25.8 41.3 25.6 41.4 25.5 41.5L17.7 43.6C17.4 43.7 17 43.6 16.7 43.3C16.4 43 16.3 42.7 16.4 42.3L18.5 34.5C18.5 34.3 18.6 34.2 18.8 34.1L46.9 6H2V58Z" fill="#666DE9"/>
</svg>
