<svg width="60" height="60" viewBox="0 0 60 60" fill="none" xmlns="http://www.w3.org/2000/svg">
<path fill-rule="evenodd" clip-rule="evenodd" d="M30 2C14.561 2 2 14.561 2 30C2 45.439 14.561 58 30 58C45.439 58 58 45.439 58 30C58 14.561 45.439 2 30 2ZM30 60C13.458 60 0 46.542 0 30C0 13.458 13.458 0 30 0C46.542 0 60 13.458 60 30C60 46.542 46.542 60 30 60Z" fill="#666DE9"/>
<path fill-rule="evenodd" clip-rule="evenodd" d="M30 15C25.589 15 22 18.589 22 23C22 27.411 25.589 31 30 31C34.411 31 38 27.411 38 23C38 18.589 34.411 15 30 15ZM30 33C24.486 33 20 28.514 20 23C20 17.486 24.486 13 30 13C35.514 13 40 17.486 40 23C40 28.514 35.514 33 30 33Z" fill="#666DE9"/>
<path fill-rule="evenodd" clip-rule="evenodd" d="M17 54.8013C20.99 56.8953 25.472 58 30 58C34.528 58 39.01 56.8953 43 54.8013V48.0003C43 43.6003 40.769 39.5943 37 37.1733C34.915 38.3853 32.563 39.0003 30 39.0003C27.437 39.0003 25.085 38.3853 23 37.1733C19.231 39.5943 17 43.6003 17 48.0003V54.8013ZM30 60C24.938 60 19.93 58.7113 15.517 56.2743C15.198 56.0973 15 55.7623 15 55.3983V48.0003C15 42.6883 17.802 37.8793 22.496 35.1363C22.821 34.9473 23.226 34.9563 23.543 35.1603C25.431 36.3813 27.604 37.0003 30 37.0003C32.396 37.0003 34.569 36.3813 36.457 35.1603C36.774 34.9563 37.18 34.9473 37.504 35.1363C42.198 37.8793 45 42.6883 45 48.0003V55.3983C45 55.7623 44.802 56.0973 44.483 56.2743C40.07 58.7113 35.062 60 30 60Z" fill="#666DE9"/>
<path fill-rule="evenodd" clip-rule="evenodd" d="M12 24C9.243 24 7 26.243 7 29C7 31.757 9.243 34 12 34C14.757 34 17 31.757 17 29C17 26.243 14.757 24 12 24ZM12 36C8.14 36 5 32.86 5 29C5 25.14 8.14 22 12 22C15.86 22 19 25.14 19 29C19 32.86 15.86 36 12 36Z" fill="#666DE9"/>
<path fill-rule="evenodd" clip-rule="evenodd" d="M3.2759 42.2822C3.1099 42.2822 2.9429 42.2412 2.7879 42.1552C2.3059 41.8852 2.1339 41.2752 2.4039 40.7932C3.3709 39.0682 4.7749 37.6352 6.4639 36.6482C6.7889 36.4582 7.1939 36.4682 7.5109 36.6712C10.1989 38.4092 13.8009 38.4092 16.4889 36.6712C16.8059 36.4672 17.2099 36.4572 17.5369 36.6472C18.3759 37.1372 19.1599 37.7532 19.8669 38.4772C20.2529 38.8722 20.2449 39.5062 19.8499 39.8912C19.4559 40.2772 18.8219 40.2712 18.4359 39.8752C17.9959 39.4242 17.5219 39.0262 17.0209 38.6852C13.9509 40.4092 10.0479 40.4092 6.9789 38.6852C5.8169 39.4712 4.8459 40.5282 4.1499 41.7712C3.9659 42.0982 3.6259 42.2822 3.2759 42.2822Z" fill="#666DE9"/>
<path fill-rule="evenodd" clip-rule="evenodd" d="M47.9961 24C45.2391 24 42.9961 26.243 42.9961 29C42.9961 31.757 45.2391 34 47.9961 34C50.7531 34 52.9961 31.757 52.9961 29C52.9961 26.243 50.7531 24 47.9961 24ZM47.9961 36C44.1361 36 40.9961 32.86 40.9961 29C40.9961 25.14 44.1361 22 47.9961 22C51.8561 22 54.9961 25.14 54.9961 29C54.9961 32.86 51.8561 36 47.9961 36Z" fill="#666DE9"/>
<path fill-rule="evenodd" clip-rule="evenodd" d="M56.7202 42.2822C56.3702 42.2822 56.0302 42.0982 55.8462 41.7712C55.1502 40.5282 54.1792 39.4712 53.0172 38.6852C49.9482 40.4092 46.0452 40.4092 42.9752 38.6852C42.4742 39.0262 42.0002 39.4242 41.5592 39.8752C41.1742 40.2712 40.5402 40.2772 40.1452 39.8912C39.7502 39.5052 39.7432 38.8722 40.1292 38.4772C40.8372 37.7532 41.6212 37.1372 42.4592 36.6472C42.7842 36.4572 43.1892 36.4672 43.5072 36.6712C46.1952 38.4092 49.7972 38.4092 52.4852 36.6712C52.8032 36.4682 53.2092 36.4582 53.5322 36.6482C55.2212 37.6352 56.6252 39.0682 57.5922 40.7932C57.8622 41.2752 57.6902 41.8852 57.2082 42.1552C57.0532 42.2412 56.8862 42.2822 56.7202 42.2822Z" fill="#666DE9"/>
</svg>
