<svg width="60" height="60" viewBox="0 0 60 60" fill="none" xmlns="http://www.w3.org/2000/svg">
<path d="M31 55C30.4 55 30 54.6 30 54V38C30 37.4 30.4 37 31 37C31.6 37 32 37.4 32 38V54C32 54.6 31.6 55 31 55Z" fill="#666DE9"/>
<path d="M31 4C28.2 4 26 6.2 26 9C26 11.8 28.2 14 31 14C33.8 14 36 11.8 36 9C36 6.2 33.8 4 31 4ZM31 16C27.1 16 24 12.9 24 9C24 5.1 27.1 2 31 2C34.9 2 38 5.1 38 9C38 12.9 34.9 16 31 16Z" fill="#666DE9"/>
<path d="M34 58C33 58 32 57.6 31.3 56.9C31.2 56.8 31.1 56.7 31.1 56.6C31 56.7 30.9 56.8 30.9 56.9C30.1 57.7 29 58 27.9 58C25.8 57.9 24.1 56.1 24.1 53.8V27C24.1 26.9 24.1 25.4 22.8 24.4L20.9 23C17.7 20.4 14.5 17.8 11.7 15L7.7 10.8C7 10.1 6.6 9 6.6 7.9C6.7 6.8 7.1 5.8 8 5C9.6 3.6 12 3.7 13.6 5.3L21.3 13C22.5 14.2 24.3 14.4 25.7 13.6C26.1 13.3 26.6 13.1 27.1 12.9C27.6 12.7 28.2 12.9 28.4 13.4C28.6 13.9 28.4 14.5 27.9 14.7C27.5 14.9 27.2 15.1 26.8 15.3C24.7 16.6 21.8 16.3 20 14.4L12.3 6.7C11.5 5.9 10.2 5.8 9.4 6.5C8.9 6.9 8.7 7.4 8.6 8C8.6 8.6 8.8 9.1 9.2 9.5L13.2 13.7C15.8 16.4 19.1 19 22.2 21.5L24 22.9C26 24.6 26.1 26.9 26.1 27V53.8C26.1 54.9 26.9 55.9 28 56C28.6 56 29.1 55.8 29.5 55.5C29.9 55.1 30.1 54.6 30.1 54C30.1 53.4 30.5 53 31.1 53C31.7 53 32.1 53.4 32.1 54C32.1 54.6 32.3 55.1 32.7 55.5C33.1 55.9 33.6 56.1 34.2 56C35.2 55.9 36.1 55 36.1 53.8V27C36.1 26.9 36.1 24.5 38.2 22.9L40 21.5C43.1 19 46.4 16.4 49 13.7L53 9.6C53.2 9 53.4 8.5 53.4 8C53.4 7.5 53.1 6.9 52.7 6.6C51.9 5.9 50.6 6 49.8 6.8L42.1 14.5C40.3 16.3 37.4 16.7 35.3 15.4C35 15.2 34.6 15 34.2 14.8C33.7 14.6 33.5 14 33.7 13.5C33.9 13 34.5 12.8 35 13C35.5 13.2 35.9 13.4 36.4 13.7C37.7 14.5 39.6 14.3 40.8 13.1L48.5 5.4C50.1 3.8 52.5 3.7 54.1 5.1C54.9 5.8 55.4 6.9 55.4 8C55.4 9.1 55 10.2 54.2 10.9L50.2 15C47.5 17.8 44.2 20.4 41 23L39.2 24.4C37.9 25.4 37.9 26.9 37.9 27V53.8C37.9 56 36.2 57.9 34.1 58C34.2 58 34.1 58 34 58Z" fill="#666DE9"/>
<path d="M57 58C56.4 58 56 57.6 56 57V53C56 52.4 56.4 52 57 52C57.6 52 58 52.4 58 53V57C58 57.6 57.6 58 57 58Z" fill="#666DE9"/>
<path d="M59 56H55C54.4 56 54 55.6 54 55C54 54.4 54.4 54 55 54H59C59.6 54 60 54.4 60 55C60 55.6 59.6 56 59 56Z" fill="#666DE9"/>
<path d="M45 39C44.7 39 44.5 38.9 44.3 38.7C43.9 38.3 43.9 37.7 44.3 37.3L48.3 33.3C48.7 32.9 49.3 32.9 49.7 33.3C50.1 33.7 50.1 34.3 49.7 34.7L45.7 38.7C45.5 38.9 45.3 39 45 39Z" fill="#666DE9"/>
<path d="M49 39C48.7 39 48.5 38.9 48.3 38.7L44.3 34.7C43.9 34.3 43.9 33.7 44.3 33.3C44.7 32.9 45.3 32.9 45.7 33.3L49.7 37.3C50.1 37.7 50.1 38.3 49.7 38.7C49.5 38.9 49.3 39 49 39Z" fill="#666DE9"/>
<path d="M18 32C18 32.6 17.6 33 17 33C16.4 33 16 32.6 16 32C16 31.4 16.4 31 17 31C17.6 31 18 31.4 18 32Z" fill="#666DE9"/>
<path d="M7 50C7 50.6 6.6 51 6 51C5.4 51 5 50.6 5 50C5 49.4 5.4 49 6 49C6.6 49 7 49.4 7 50Z" fill="#666DE9"/>
<path d="M56 17C56 17.6 55.6 18 55 18C54.4 18 54 17.6 54 17C54 16.4 54.4 16 55 16C55.6 16 56 16.4 56 17Z" fill="#666DE9"/>
<path d="M4 20C4.4 20.3 4.7 20.6 5 21C5.3 20.6 5.6 20.3 6 20C5.6 19.7 5.3 19.4 5 19C4.7 19.4 4.4 19.7 4 20ZM5 25C4.4 25 4 24.6 4 24C4 22.3 2.7 21 1 21C0.4 21 0 20.6 0 20C0 19.4 0.4 19 1 19C2.7 19 4 17.7 4 16C4 15.4 4.4 15 5 15C5.6 15 6 15.4 6 16C6 17.7 7.3 19 9 19C9.6 19 10 19.4 10 20C10 20.6 9.6 21 9 21C7.3 21 6 22.3 6 24C6 24.6 5.6 25 5 25Z" fill="#666DE9"/>
</svg>
