<svg width="46" height="60" viewBox="0 0 46 60" fill="none" xmlns="http://www.w3.org/2000/svg">
<path d="M43.375 59.9H19.375C18.775 59.9 18.375 59.5 18.375 58.9V47.9C18.375 47.3 18.775 46.9 19.375 46.9H43.375C43.975 46.9 44.375 47.3 44.375 47.9V58.9C44.375 59.5 43.975 59.9 43.375 59.9ZM20.375 57.9H42.375V48.9H20.375V57.9Z" fill="#666DE9"/>
<path d="M35.375 59.9H19.375C18.775 59.9 18.375 59.5 18.375 58.9V47.9C18.375 47.3 18.775 46.9 19.375 46.9H28.775C32.975 46.9 36.375 50.3 36.375 54.5V58.9C36.375 59.5 35.975 59.9 35.375 59.9ZM20.375 57.9H34.375V54.5C34.375 51.4 31.875 48.9 28.775 48.9H20.375V57.9Z" fill="#666DE9"/>
<path d="M28.875 56.9C26.875 56.9 25.375 55.4 25.375 53.4C25.375 51.4 26.875 49.9 28.875 49.9C30.875 49.9 32.375 51.4 32.375 53.4C32.375 55.4 30.875 56.9 28.875 56.9ZM28.875 51.9C28.075 51.9 27.375 52.6 27.375 53.4C27.375 54.2 28.075 54.9 28.875 54.9C29.675 54.9 30.375 54.2 30.375 53.4C30.375 52.6 29.675 51.9 28.875 51.9Z" fill="#666DE9"/>
<path d="M27.275 12.6C26.975 12.6 26.775 12.5 26.575 12.3L21.975 7.7C21.675 7.4 21.575 7 21.775 6.6C22.375 5 24.075 3.9 25.875 3.9C28.275 3.9 30.375 6 30.375 8.4C30.375 10.2 29.275 11.9 27.675 12.5C27.575 12.6 27.375 12.6 27.275 12.6ZM23.975 6.8L27.475 10.3C27.975 9.9 28.375 9.1 28.375 8.4C28.375 7 27.275 5.9 25.875 5.9C25.175 5.9 24.375 6.3 23.975 6.8Z" fill="#666DE9"/>
<path d="M32.275 17.6C31.975 17.6 31.775 17.5 31.575 17.3L26.975 12.7C26.675 12.4 26.575 12 26.775 11.6C27.375 10 29.075 8.9 30.875 8.9C33.275 8.9 35.375 11 35.375 13.4C35.375 15.2 34.275 16.9 32.675 17.5C32.575 17.6 32.375 17.6 32.275 17.6ZM28.975 11.8L32.475 15.3C33.075 14.8 33.375 14.1 33.375 13.4C33.375 12 32.275 10.9 30.875 10.9C30.175 10.9 29.375 11.3 28.975 11.8Z" fill="#666DE9"/>
<path d="M37.275 22.6C36.975 22.6 36.775 22.5 36.575 22.3L31.975 17.7C31.675 17.4 31.575 17 31.775 16.6C32.475 15 34.175 13.9 35.875 13.9C38.275 13.9 40.375 16 40.375 18.4C40.375 20.2 39.275 21.9 37.675 22.5C37.575 22.6 37.375 22.6 37.275 22.6ZM33.975 16.8L37.475 20.3C38.075 19.8 38.375 19.1 38.375 18.4C38.375 17 37.275 15.9 35.875 15.9C35.175 15.9 34.375 16.3 33.975 16.8Z" fill="#666DE9"/>
<path d="M42.275 27.6C41.975 27.6 41.775 27.5 41.575 27.3L36.975 22.7C36.675 22.4 36.575 22 36.775 21.6C37.475 20 39.175 18.9 40.875 18.9C43.275 18.9 45.375 21 45.375 23.4C45.375 25.2 44.275 26.9 42.675 27.5C42.575 27.6 42.375 27.6 42.275 27.6ZM38.975 21.8L42.475 25.3C43.075 24.8 43.375 24.1 43.375 23.4C43.375 22 42.275 20.9 40.875 20.9C40.175 20.9 39.375 21.3 38.975 21.8Z" fill="#666DE9"/>
<path d="M21.875 34.9H11.875C9.475 34.9 7.375 32.8 7.375 30.4C7.375 28 9.475 25.9 11.875 25.9H21.875C24.275 25.9 26.375 28 26.375 30.4C26.375 32.8 24.275 34.9 21.875 34.9ZM11.875 27.9C10.475 27.9 9.375 29 9.375 30.4C9.375 31.8 10.475 32.9 11.875 32.9H21.875C23.275 32.9 24.375 31.8 24.375 30.4C24.375 29 23.275 27.9 21.875 27.9H11.875Z" fill="#666DE9"/>
<path d="M33.375 36.9C31.175 36.9 29.375 35.1 29.375 32.9C29.375 30.7 31.175 28.9 33.375 28.9C35.575 28.9 37.375 30.7 37.375 32.9C37.375 35.1 35.575 36.9 33.375 36.9ZM33.375 30.9C32.275 30.9 31.375 31.8 31.375 32.9C31.375 34 32.275 34.9 33.375 34.9C34.475 34.9 35.375 34 35.375 32.9C35.375 31.8 34.475 30.9 33.375 30.9Z" fill="#666DE9"/>
<path d="M9.375 11.9C9.075 11.9 8.875 11.8 8.675 11.6C8.475 11.4 8.375 11.2 8.375 10.9C8.375 10.6 8.475 10.4 8.675 10.2L10.675 8.2C11.075 7.8 11.675 7.8 12.075 8.2C12.275 8.4 12.375 8.6 12.375 8.9C12.375 9.2 12.275 9.4 12.075 9.6L10.075 11.6C9.875 11.8 9.675 11.9 9.375 11.9Z" fill="#666DE9"/>
<path d="M29.775 45.3C28.975 45.3 28.075 45 27.475 44.3L17.775 34.6C17.475 34.3 17.375 33.9 17.575 33.5C17.775 33.1 18.075 32.9 18.475 32.9H21.875C23.275 32.9 24.375 31.8 24.375 30.4C24.375 29 23.275 27.9 21.875 27.9H11.475C11.175 27.9 10.975 27.8 10.775 27.6L0.975 17.8C-0.325 16.5 -0.325 14.5 0.975 13.2L13.375 0.9C14.575 -0.3 16.775 -0.3 17.975 0.9L44.375 27.3C44.975 27.9 45.375 28.8 45.375 29.7C45.375 30.6 45.075 31.4 44.375 32.1L32.075 44.3C31.475 45 30.575 45.3 29.775 45.3ZM20.875 34.9L28.875 42.9C29.375 43.4 30.175 43.4 30.675 42.9L42.975 30.6C43.175 30.4 43.375 30 43.375 29.7C43.375 29.3 43.275 29 42.975 28.8L16.575 2.3C16.075 1.8 15.275 1.8 14.775 2.3L2.375 14.6C1.875 15.1 1.875 15.9 2.375 16.4L11.875 25.9H21.875C24.275 25.9 26.375 28 26.375 30.4C26.375 32.8 24.275 34.9 21.875 34.9H20.875Z" fill="#666DE9"/>
<path d="M41.275 48.9H21.275C20.675 48.9 20.275 48.5 20.275 47.9V45.1L9.575 34.4C8.875 33.8 9.175 33.2 9.275 33C9.675 32.2 10.475 32.6 10.775 32.7C10.875 32.8 11.375 32.9 11.575 32.9C11.675 32.9 11.775 32.8 11.875 32.8H18.475C18.775 32.8 18.975 32.9 19.175 33.1L28.875 42.8C29.375 43.3 30.175 43.3 30.675 42.8L41.775 31.7C41.975 31.5 42.275 31.4 42.475 31.4C42.775 31.4 42.975 31.5 43.175 31.7C44.575 33.3 45.375 35.3 45.275 37.3C45.275 39.8 44.175 42 42.275 43.7V47.7C42.275 48.5 41.875 48.9 41.275 48.9ZM22.275 46.9H40.275V43.4C40.275 43.1 40.375 42.8 40.675 42.6C42.375 41.3 43.275 39.4 43.275 37.4C43.375 36.2 43.075 35 42.375 34L32.075 44.3C30.775 45.6 28.775 45.6 27.475 44.3L18.075 34.9H12.875L21.775 43.8C22.275 44.1 22.275 44.5 22.275 44.7V46.9Z" fill="#666DE9"/>
<path d="M4.775 21.2C4.475 21.2 4.275 21.1 4.075 20.9L0.975 17.8C-0.325 16.5 -0.325 14.5 0.975 13.2L13.375 0.9C14.575 -0.3 16.775 -0.3 17.975 0.9L20.975 3.9C21.375 4.3 21.375 4.9 20.975 5.3L5.475 20.9C5.275 21.1 5.075 21.2 4.775 21.2ZM15.675 1.9C15.375 1.9 15.075 2 14.775 2.3L2.375 14.6C1.875 15.1 1.875 15.9 2.375 16.4L4.775 18.8L18.875 4.6L16.575 2.3C16.275 2.1 15.975 1.9 15.675 1.9Z" fill="#666DE9"/>
</svg>
