<svg width="60" height="60" viewBox="0 0 60 60" fill="none" xmlns="http://www.w3.org/2000/svg">
<path d="M33 28.2L54.8 43C56.9 39 58 34.6 58 30C58 15.7 47.1 3.6 33 2.1V28.2ZM55.2 45.4C55 45.4 54.8 45.3 54.6 45.2L31.4 29.5C31.2 29.3 31 29 31 28.7V1C31 0.7 31.1 0.5 31.3 0.3C31.5 0.1 31.8 0 32.1 0C47.7 1.1 60 14.2 60 30C60 35.2 58.6 40.4 56 44.9C55.9 45.1 55.6 45.3 55.4 45.4C55.3 45.4 55.2 45.4 55.2 45.4Z" fill="#666DE9"/>
<path d="M27 2.1C12.9 3.6 2 15.7 2 30C2 34.5 3.1 39 5.2 43L27 28.2V2.1ZM4.8 45.4C4.7 45.4 4.7 45.4 4.6 45.4C4.3 45.3 4.1 45.2 4 44.9C1.4 40.4 0 35.2 0 30C0 14.2 12.3 1.1 27.9 0C28.2 0 28.4 0.1 28.7 0.3C28.9 0.5 29 0.7 29 1V28.7C29 29 28.8 29.3 28.6 29.5L5.4 45.2C5.2 45.3 5 45.4 4.8 45.4Z" fill="#666DE9"/>
<path d="M8.5 47.9C13.9 54.3 21.6 58 30 58C38.4 58 46.1 54.3 51.5 47.9L30 33.2L8.5 47.9ZM30 60C20.7 60 12 55.8 6.3 48.3C6.1 48.1 6.1 47.8 6.1 47.5C6.1 47.2 6.3 47 6.5 46.8L29.4 31.1C29.7 30.9 30.2 30.9 30.5 31.1L53.4 46.8C53.6 47 53.8 47.2 53.8 47.5C53.8 47.8 53.8 48 53.6 48.3C48 55.8 39.3 60 30 60Z" fill="#666DE9"/>
</svg>
