<svg width="60" height="61" viewBox="0 0 60 61" fill="none" xmlns="http://www.w3.org/2000/svg">
<path d="M50.5821 8.17512C40.1821 -1.62488 24.3821 -2.72488 12.7821 5.47512C1.1821 13.6751 -3.2179 28.7751 2.4821 41.8751C8.1821 54.9751 22.1821 62.2751 36.0821 59.3751C49.9821 56.4751 59.9821 44.1751 59.9821 29.9751C59.9821 21.6751 56.5821 13.7751 50.5821 8.17512ZM46.9821 28.9751C46.9821 27.0751 46.7821 25.1751 46.5821 23.2751C46.2821 20.4751 45.5821 17.7751 44.7821 15.0751C46.7821 13.8751 48.5821 12.2751 49.9821 10.4751C54.8821 15.4751 57.6821 22.0751 57.9821 29.0751H46.9821V28.9751ZM38.0821 19.1751C38.1821 19.2751 38.2821 19.4751 38.3821 19.5751C38.4821 19.6751 38.4821 19.7751 38.5821 19.8751C38.6821 20.0751 38.7821 20.1751 38.8821 20.3751C38.9821 20.4751 38.9821 20.5751 38.9821 20.6751C39.0821 20.8751 39.1821 21.0751 39.1821 21.2751C39.1821 21.3751 39.2821 21.4751 39.2821 21.5751C39.3821 21.7751 39.3821 21.9751 39.4821 22.0751C39.4821 22.1751 39.5821 22.3751 39.5821 22.4751C39.5821 22.6751 39.6821 22.7751 39.6821 22.9751C39.7821 23.2751 39.7821 23.5751 39.7821 23.8751C39.7821 24.1751 39.8821 24.5751 39.8821 24.8751C39.7821 26.4751 39.3821 28.0751 38.7821 29.4751C37.2821 33.6751 35.3821 37.7751 33.2821 41.6751C32.5821 42.8751 31.9821 44.0751 31.2821 45.0751C31.1821 45.6751 30.5821 45.9751 29.9821 45.9751C29.3821 45.9751 28.7821 45.6751 28.4821 45.1751C27.8821 44.1751 27.1821 42.9751 26.4821 41.7751C24.3821 37.8751 22.4821 33.8751 20.9821 29.6751C20.3821 28.1751 20.0821 26.5751 19.8821 25.0751C19.8821 24.7751 19.8821 24.3751 19.9821 24.0751C19.9821 23.7751 20.0821 23.4751 20.0821 23.1751C20.0821 22.9751 20.1821 22.8751 20.1821 22.6751C20.1821 22.5751 20.2821 22.3751 20.2821 22.2751C20.3821 22.0751 20.3821 21.8751 20.4821 21.7751C20.4821 21.6751 20.5821 21.5751 20.5821 21.4751C20.6821 21.2751 20.7821 21.0751 20.7821 20.9751C20.7821 20.8751 20.8821 20.7751 20.8821 20.6751C20.9821 20.4751 21.0821 20.3751 21.1821 20.1751C21.2821 20.0751 21.2821 19.9751 21.3821 19.8751C21.4821 19.7751 21.5821 19.5751 21.6821 19.4751C21.7821 19.3751 21.8821 19.1751 21.9821 19.0751C22.0821 18.9751 22.1821 18.8751 22.2821 18.7751C22.4821 18.5751 22.6821 18.2751 22.9821 18.0751C24.9821 15.9751 27.3821 14.9751 29.9821 14.9751C30.5821 14.9751 31.2821 15.0751 31.8821 15.1751C33.7821 15.5751 35.4821 16.4751 36.8821 17.7751C37.0821 17.9751 37.2821 18.1751 37.4821 18.4751C37.5821 18.5751 37.6821 18.6751 37.7821 18.7751C37.8821 18.8751 37.9821 18.9751 38.0821 19.1751ZM37.7821 15.8751C35.8821 14.1751 33.4821 13.1751 30.9821 12.9751V1.97512C35.4821 2.57512 39.6821 7.07512 42.2821 14.0751C40.8821 14.8751 39.3821 15.4751 37.7821 15.8751ZM28.9821 2.07512V13.0751C26.4821 13.2751 24.0821 14.2751 22.1821 15.9751C20.5821 15.5751 19.0821 14.9751 17.6821 14.1751C20.2821 7.07512 24.4821 2.67512 28.9821 2.07512ZM16.9821 15.9751C18.1821 16.5751 19.3821 17.0751 20.5821 17.4751C20.4821 17.6751 20.2821 17.7751 20.1821 17.9751C20.0821 18.1751 19.9821 18.3751 19.7821 18.4751C19.6821 18.5751 19.5821 18.7751 19.5821 18.8751C19.4821 19.0751 19.3821 19.2751 19.2821 19.4751C19.1821 19.5751 19.1821 19.6751 19.0821 19.7751C18.9821 19.9751 18.8821 20.1751 18.7821 20.4751C18.7821 20.5751 18.6821 20.6751 18.6821 20.8751C18.5821 21.0751 18.4821 21.2751 18.4821 21.5751C18.4821 21.7751 18.3821 21.8751 18.3821 22.0751C18.2821 22.2751 18.2821 22.4751 18.2821 22.6751C18.1821 23.0751 18.1821 23.3751 18.0821 23.7751C18.0821 24.1751 17.9821 24.5751 17.9821 25.0751C18.0821 26.4751 18.2821 27.7751 18.6821 29.0751H14.9821C14.9821 27.2751 15.1821 25.3751 15.3821 23.5751C15.6821 20.9751 16.2821 18.4751 16.9821 15.9751ZM19.3821 30.9751C20.7821 34.5751 22.2821 38.1751 24.0821 41.5751C21.6821 41.9751 19.2821 42.7751 16.9821 43.9751C15.6821 39.7751 15.0821 35.3751 14.9821 30.9751H19.3821ZM25.1821 43.3751C25.7821 44.3751 26.2821 45.3751 26.8821 46.1751C27.3821 46.9751 28.1821 47.5751 29.0821 47.7751V57.8751C24.5821 57.2751 20.3821 52.7751 17.7821 45.7751C19.9821 44.6751 22.4821 43.7751 25.1821 43.3751ZM30.9821 57.8751V47.8751C31.8821 47.6751 32.6821 47.0751 33.1821 46.2751C33.6821 45.3751 34.2821 44.4751 34.8821 43.4751C37.4821 43.8751 39.9821 44.6751 42.3821 45.8751C39.6821 52.8751 35.4821 57.2751 30.9821 57.8751ZM42.9821 43.9751C40.6821 42.8751 38.2821 42.0751 35.8821 41.5751C37.6821 38.1751 39.2821 34.5751 40.5821 30.9751H44.9821C44.8821 35.3751 44.1821 39.7751 42.9821 43.9751ZM41.2821 28.9751C41.6821 27.6751 41.9821 26.3751 41.9821 24.9751C41.9821 24.5751 41.9821 24.1751 41.8821 23.6751C41.8821 23.2751 41.7821 22.9751 41.6821 22.5751C41.6821 22.3751 41.5821 22.1751 41.5821 21.9751C41.5821 21.7751 41.4821 21.6751 41.4821 21.4751C41.3821 21.2751 41.3821 20.9751 41.2821 20.7751C41.2821 20.6751 41.1821 20.5751 41.1821 20.3751C41.0821 20.1751 40.9821 19.8751 40.8821 19.6751C40.7821 19.5751 40.7821 19.4751 40.6821 19.3751C40.5821 19.1751 40.4821 18.9751 40.3821 18.7751C40.2821 18.6751 40.1821 18.4751 40.1821 18.3751C40.0821 18.1751 39.9821 17.9751 39.7821 17.8751C39.6821 17.6751 39.5821 17.5751 39.3821 17.3751C40.5821 16.9751 41.7821 16.4751 42.9821 15.8751C43.7821 18.2751 44.2821 20.7751 44.5821 23.3751C44.7821 25.1751 44.9821 26.9751 44.9821 28.8751H41.2821V28.9751ZM48.4821 8.97512C47.2821 10.5751 45.7821 11.9751 43.9821 13.0751C42.7821 9.27512 40.4821 5.77512 37.4821 2.97512C41.5821 4.17512 45.3821 6.17512 48.4821 8.97512ZM15.8821 13.0751C14.1821 11.9751 12.6821 10.5751 11.3821 8.97512C14.5821 6.17512 18.2821 4.07512 22.3821 2.97512C19.4821 5.77512 17.1821 9.27512 15.8821 13.0751ZM9.9821 10.3751C11.4821 12.1751 13.1821 13.7751 15.1821 14.9751C14.2821 17.6751 13.6821 20.3751 13.3821 23.1751C13.1821 25.0751 12.9821 26.9751 12.9821 28.8751H1.9821C2.2821 21.9751 5.0821 15.3751 9.9821 10.3751ZM1.9821 30.9751H12.9821C13.0821 35.6751 13.7821 40.3751 15.1821 44.9751C13.1821 46.1751 11.3821 47.7751 9.9821 49.5751C5.0821 44.5751 2.2821 37.9751 1.9821 30.9751ZM11.4821 50.9751C12.6821 49.3751 14.1821 47.9751 15.9821 46.8751C17.2821 50.6751 19.5821 54.1751 22.5821 56.9751C18.3821 55.7751 14.5821 53.7751 11.4821 50.9751ZM44.0821 46.8751C45.7821 47.9751 47.2821 49.3751 48.5821 50.9751C45.3821 53.7751 41.6821 55.8751 37.5821 56.9751C40.4821 54.1751 42.7821 50.6751 44.0821 46.8751ZM49.9821 49.5751C48.4821 47.7751 46.7821 46.1751 44.7821 44.9751C46.1821 40.4751 46.9821 35.7751 46.9821 30.9751H57.9821C57.6821 37.9751 54.8821 44.5751 49.9821 49.5751Z" fill="#666DE9"/>
<path d="M29.9821 18.9751C26.6821 18.9751 23.9821 21.6751 23.9821 24.9751C23.9821 28.2751 26.6821 30.9751 29.9821 30.9751C33.2821 30.9751 35.9821 28.2751 35.9821 24.9751C35.9821 21.6751 33.2821 18.9751 29.9821 18.9751ZM29.9821 28.9751C27.7821 28.9751 25.9821 27.1751 25.9821 24.9751C25.9821 22.7751 27.7821 20.9751 29.9821 20.9751C32.1821 20.9751 33.9821 22.7751 33.9821 24.9751C33.9821 27.1751 32.1821 28.9751 29.9821 28.9751Z" fill="#666DE9"/>
</svg>
