<svg width="40" height="60" viewBox="0 0 40 60" fill="none" xmlns="http://www.w3.org/2000/svg">
<path d="M1.02548 47.0375C0.825483 47.0375 0.725483 47.0375 0.525483 46.9375C0.125483 46.7375 -0.0745166 46.3375 0.0254834 45.8375L8.32548 0.8375C8.42548 0.4375 8.72548 0.1375 9.02548 0.0375C9.32548 -0.0625 9.82548 0.0375 10.0255 0.3375L39.7255 35.1375C40.0255 35.4375 40.0255 35.9375 39.8255 36.3375C39.6255 36.7375 39.1255 36.8375 38.7255 36.7375L17.3255 30.6375L1.72548 46.7375C1.52548 46.9375 1.32548 47.0375 1.02548 47.0375ZM9.92548 3.2375L2.62548 42.9375L16.3255 28.8375C16.6255 28.5375 16.9255 28.4375 17.3255 28.5375L36.1255 33.9375L9.92548 3.2375Z" fill="#666DE9"/>
<path d="M24.7255 59.4375C24.3255 59.4375 23.9255 59.1375 23.7255 58.7375L16.0255 29.8375C15.9255 29.3375 16.2255 28.7375 16.7255 28.6375C17.2255 28.5375 17.8255 28.8375 17.9255 29.3375L25.6255 58.2375C25.7255 58.7375 25.4255 59.3375 24.9255 59.4375C24.9255 59.4375 24.8255 59.4375 24.7255 59.4375Z" fill="#666DE9"/>
</svg>
