<svg width="60" height="60" viewBox="0 0 60 60" fill="none" xmlns="http://www.w3.org/2000/svg">
<path d="M31.451 7.76667C31.2576 7.76667 31.1609 7.76667 30.9676 7.67C30.4843 7.38 30.3876 6.8 30.5809 6.31667C31.451 4.86667 33.0943 3.9 34.8344 3.9C35.4144 3.9 35.8011 4.28667 35.8011 4.86667C35.8011 5.44667 35.4144 5.83333 34.8344 5.83333C33.771 5.83333 32.8043 6.41333 32.321 7.28333C32.1276 7.57333 31.741 7.76667 31.451 7.76667Z" fill="#666DE9"/>
<path d="M14.0504 11.6333C13.7604 11.6333 13.3737 11.44 13.1804 11.15C12.697 10.28 11.7303 9.7 10.667 9.7C10.087 9.7 9.70027 9.31333 9.70027 8.73333C9.70027 8.15333 10.087 7.76667 10.667 7.76667C12.407 7.76667 14.0504 8.73333 14.9204 10.1833C15.1138 10.6667 15.0171 11.2467 14.5338 11.5367C14.3404 11.6333 14.2437 11.6333 14.0504 11.6333Z" fill="#666DE9"/>
<path d="M11.7303 17.4333C11.4403 17.4333 11.247 17.3367 11.0536 17.1433C10.667 16.7567 10.7636 16.1767 11.1503 15.79C12.5037 14.5333 14.2437 14.1467 15.8871 14.63C16.3705 14.8233 16.6605 15.3067 16.5638 15.79C16.3705 16.2733 15.8871 16.5633 15.4038 16.4667C14.4371 16.1767 13.3737 16.4667 12.6004 17.24C12.2137 17.3367 11.9237 17.4333 11.7303 17.4333Z" fill="#666DE9"/>
<path d="M18.4005 9.7C18.2072 9.7 18.0139 9.60333 17.9172 9.50667C17.4338 9.21667 17.3372 8.63667 17.6272 8.15333C18.1105 7.38 19.1739 6.8 20.3339 6.8C21.494 6.8 22.4607 7.28333 23.0407 8.15333C23.3307 8.63667 23.234 9.21667 22.7507 9.50667C22.2673 9.79667 21.6873 9.7 21.3973 9.21667C21.204 8.83 20.7206 8.73333 20.3339 8.73333C19.7539 8.73333 19.3672 9.02333 19.1739 9.21667C19.0772 9.50667 18.6906 9.7 18.4005 9.7Z" fill="#666DE9"/>
<path d="M21.3006 5.44667C20.8173 5.44667 20.4306 5.06 20.3339 4.57667C20.2373 3.61 19.3672 2.93333 18.4005 2.93333C17.8205 2.93333 17.4338 2.54667 17.4338 1.96667C17.4338 1.38667 17.8205 1 18.4005 1C20.3339 1 21.9773 2.45 22.2673 4.38333C22.364 4.86667 21.9773 5.44667 21.3973 5.44667H21.3006Z" fill="#666DE9"/>
<path d="M14.5338 59H10.087C9.6036 59 9.12025 58.6133 9.12025 58.0333L7.76688 24.2C7.76688 23.91 7.86355 23.7167 8.05689 23.5233C8.25023 23.33 8.44357 23.2333 8.73358 23.2333H13.1804C13.6637 23.2333 14.1471 23.62 14.1471 24.2L15.5005 58.0333C15.5005 58.3233 15.4038 58.5167 15.2104 58.71C15.0171 58.9033 14.8238 59 14.5338 59ZM11.0536 57.0667H13.5671L12.3104 25.1667H9.70027L11.0536 57.0667Z" fill="#666DE9"/>
<path d="M46.9181 59H26.6175C24.2007 59 22.1707 57.0667 22.074 54.65L20.3339 16.4667C20.3339 16.1767 20.4306 15.9833 20.6239 15.79C20.8173 15.5967 21.1073 15.5 21.3006 15.5H52.2349C52.5249 15.5 52.7183 15.5967 52.9116 15.79C53.105 15.9833 53.2016 16.2733 53.2016 16.4667L51.4616 54.65C51.3649 57.1633 49.4315 59 46.9181 59ZM24.0074 54.65C24.1041 56.0033 25.2641 57.0667 26.6175 57.0667H46.9181C48.3682 57.0667 49.4315 56.0033 49.5282 54.65L51.2682 17.4333H22.2673L24.0074 54.65Z" fill="#666DE9"/>
<path d="M36.7678 38.7C32.4177 38.7 29.0342 35.3167 29.0342 30.9667C29.0342 26.6167 32.4177 23.2333 36.7678 23.2333C41.1179 23.2333 44.5014 26.6167 44.5014 30.9667C44.5014 35.3167 41.1179 38.7 36.7678 38.7ZM36.7678 25.1667C33.481 25.1667 30.9676 27.68 30.9676 30.9667C30.9676 34.2533 33.481 36.7667 36.7678 36.7667C40.0546 36.7667 42.568 34.2533 42.568 30.9667C42.568 27.68 40.0546 25.1667 36.7678 25.1667Z" fill="#666DE9"/>
<path d="M36.7678 34.8333C34.6411 34.8333 32.901 33.0933 32.901 30.9667C32.901 30.3867 33.2877 30 33.8677 30C34.4477 30 34.8344 30.3867 34.8344 30.9667C34.8344 32.03 35.7044 32.9 36.7678 32.9C37.3478 32.9 37.7345 33.2867 37.7345 33.8667C37.7345 34.4467 37.3478 34.8333 36.7678 34.8333Z" fill="#666DE9"/>
<path d="M39.6679 31.9333C39.0879 31.9333 38.7012 31.5467 38.7012 30.9667C38.7012 29.9033 37.8312 29.0333 36.7678 29.0333C36.1878 29.0333 35.8011 28.6467 35.8011 28.0667C35.8011 27.4867 36.1878 27.1 36.7678 27.1C38.8945 27.1 40.6346 28.84 40.6346 30.9667C40.6346 31.5467 40.2479 31.9333 39.6679 31.9333Z" fill="#666DE9"/>
<path d="M33.8677 25.8433C33.6744 25.8433 33.481 25.7467 33.3843 25.65C33.0943 25.5533 32.901 25.1667 32.901 24.8767V16.4667C32.901 15.8867 33.2877 15.5 33.8677 15.5H39.6679C40.2479 15.5 40.6346 15.8867 40.6346 16.4667V24.8767C40.6346 25.2633 40.4412 25.5533 40.1512 25.7467C39.8612 25.94 39.4745 25.94 39.1845 25.7467C37.9278 25.07 36.2844 24.8767 34.2544 25.7467C34.1577 25.8433 33.9644 25.8433 33.8677 25.8433ZM34.8344 17.4333V23.5233C36.1878 23.1367 37.5411 23.2333 38.7012 23.5233V17.4333H34.8344Z" fill="#666DE9"/>
<path d="M39.6679 59H33.8677C33.2877 59 32.901 58.6133 32.901 58.0333V37.0567C32.901 36.67 33.0943 36.38 33.3843 36.1867C33.6744 35.9933 34.061 35.9933 34.351 36.1867C35.6077 36.8633 37.2511 37.0567 39.2812 36.1867C39.5712 36.09 39.9579 36.09 40.2479 36.2833C40.5379 36.4767 40.7312 36.7667 40.7312 37.0567V58.0333C40.6346 58.6133 40.2479 59 39.6679 59ZM34.8344 57.0667H38.7012V38.41C37.3478 38.7967 35.9944 38.7 34.8344 38.41V57.0667Z" fill="#666DE9"/>
<path d="M46.4348 13.5667C46.3381 13.5667 46.3381 13.5667 46.2414 13.5667C45.7581 13.47 45.3714 12.89 45.4681 12.4067L47.4015 3.80333C47.5948 2.54667 48.5615 1.48333 49.9149 1.19333C51.1716 0.806667 52.6216 1.29 53.4916 2.25667L58.8085 8.15333C59.1952 8.54 59.0985 9.12 58.7118 9.50667C58.3251 9.89333 57.7451 9.79667 57.3584 9.41L52.0416 3.51333C51.6549 3.03 51.0749 2.83667 50.4949 3.03C49.9149 3.22333 49.5282 3.61 49.4315 4.19L47.4981 12.7933C47.3048 13.2767 46.9181 13.5667 46.4348 13.5667Z" fill="#666DE9"/>
<path d="M54.1683 17.4333H19.3672C18.7872 17.4333 18.4005 17.0467 18.4005 16.4667V12.6C18.4005 12.02 18.7872 11.6333 19.3672 11.6333H54.1683C54.7484 11.6333 55.135 12.02 55.135 12.6V16.4667C55.135 17.0467 54.7484 17.4333 54.1683 17.4333ZM20.3339 15.5H53.2016V13.5667H20.3339V15.5Z" fill="#666DE9"/>
<path d="M46.9181 59H45.4681C45.1781 59 44.9847 58.9033 44.7914 58.71C44.598 58.5167 44.5014 58.2267 44.5014 58.0333L46.4348 16.4667C46.4348 15.9833 46.9181 15.5 47.4015 15.5H52.2349C52.5249 15.5 52.7183 15.5967 52.9116 15.79C53.105 15.9833 53.2016 16.2733 53.2016 16.4667L51.4616 54.65C51.3649 57.1633 49.4315 59 46.9181 59ZM46.4348 57.0667H46.9181C48.3682 57.0667 49.4315 56.0033 49.5282 54.65L51.2682 17.4333H48.3682L46.4348 57.0667Z" fill="#666DE9"/>
<path d="M28.0675 59H26.6175C24.2007 59 22.1707 57.0667 22.074 54.65L20.3339 16.4667C20.3339 16.1767 20.4306 15.9833 20.6239 15.79C20.8173 15.5967 21.1073 15.5 21.3006 15.5H26.1341C26.6175 15.5 27.1008 15.8867 27.1008 16.4667L29.0342 58.0333C29.0342 58.3233 28.9375 58.5167 28.7442 58.71C28.5509 58.9033 28.3575 59 28.0675 59ZM24.0074 54.65C24.1041 56.0033 25.2641 57.0667 26.6175 57.0667H27.1008L25.1674 17.4333H22.2673L24.0074 54.65Z" fill="#666DE9"/>
<path d="M21.494 21.3H6.80018C4.09343 21.3 1.9667 19.1733 1.9667 16.4667C1.9667 14.1467 3.70675 12.1167 5.93015 11.73C6.31683 9.79667 7.86355 8.25 9.79694 7.86333C10.1836 5.64 12.2137 3.9 14.5338 3.9H14.6304C15.0171 2.25667 16.5638 1 18.4005 1C19.4639 1 20.4306 1.38667 21.1073 2.06333C21.9773 1.38667 23.0407 1 24.2007 1C25.4574 1 26.7141 1.48333 27.5842 2.45C28.4542 1.48333 29.7109 1 30.9676 1C32.901 1 34.7377 2.16 35.4144 3.99667C37.6378 4.28667 39.2812 6.02667 39.5712 8.15333C41.3113 8.92667 42.4713 10.6667 42.4713 12.6C42.4713 13.18 42.0846 13.5667 41.5046 13.5667H20.3339V15.5H21.3006C21.784 15.5 22.2673 15.8867 22.2673 16.4667L22.4607 20.3333C22.4607 20.6233 22.364 20.8167 22.1707 21.01C21.9773 21.2033 21.784 21.3 21.494 21.3ZM14.5338 5.83333C12.8904 5.83333 11.6337 7.09 11.6337 8.73333C11.6337 9.31333 11.247 9.7 10.667 9.7C9.02359 9.7 7.76688 10.9567 7.76688 12.6C7.76688 13.18 7.3802 13.5667 6.80018 13.5667C5.1568 13.5667 3.90009 14.8233 3.90009 16.4667C3.90009 18.11 5.1568 19.3667 6.80018 19.3667H20.4306L20.3339 17.4333H19.3672C18.7872 17.4333 18.4005 17.0467 18.4005 16.4667V12.6C18.4005 12.02 18.7872 11.6333 19.3672 11.6333H40.4412C40.1512 10.7633 39.3779 10.0867 38.4112 9.79667C38.0245 9.7 37.7345 9.31333 37.7345 8.83V8.73333C37.7345 7.09 36.4778 5.83333 34.8344 5.83333C34.351 5.83333 33.8677 5.54333 33.771 5.06C33.481 3.80333 32.321 2.93333 30.9676 2.93333C30.0009 2.93333 28.9375 3.51333 28.4542 4.48C28.0675 5.06 27.1008 5.06 26.8108 4.48C26.2308 3.51333 25.1674 2.93333 24.2007 2.93333C23.234 2.93333 22.364 3.41667 21.784 4.19C21.5906 4.48 21.3006 4.67333 20.914 4.57667C20.5273 4.57667 20.2373 4.38333 20.1406 4.09333C19.7539 3.32 19.1739 2.93333 18.4005 2.93333C17.3372 2.93333 16.4672 3.80333 16.4672 4.86667V4.96333C16.4672 5.54333 16.0805 5.93 15.5005 5.93C15.3071 5.93 15.1138 5.93 14.9204 5.83333C14.8238 5.83333 14.7271 5.83333 14.5338 5.83333Z" fill="#666DE9"/>
<path d="M21.6873 25.1667H3.90009C2.25671 25.1667 1 23.91 1 22.2667C1 20.6233 2.25671 19.3667 3.90009 19.3667H21.494C21.9773 19.3667 22.4607 19.7533 22.4607 20.3333L22.654 24.2C22.654 24.49 22.5573 24.6833 22.364 24.8767C22.1707 25.07 21.9773 25.1667 21.6873 25.1667ZM3.90009 21.3C3.32007 21.3 2.93339 21.6867 2.93339 22.2667C2.93339 22.8467 3.32007 23.2333 3.90009 23.2333H20.6239L20.5273 21.3H3.90009Z" fill="#666DE9"/>
<path d="M26.6175 59H8.54024C6.51017 59 4.77012 57.4533 4.67345 55.4233L2.93339 24.2967C2.93339 24.0067 3.03006 23.8133 3.2234 23.62C3.41674 23.4267 3.61008 23.2333 3.90009 23.2333H21.6873C22.1707 23.2333 22.654 23.62 22.654 24.2L24.0074 54.65C24.1041 56.0033 25.2641 57.0667 26.6175 57.0667C27.1975 57.0667 27.5842 57.4533 27.5842 58.0333C27.5842 58.6133 27.1975 59 26.6175 59ZM4.96346 25.1667L6.60684 55.23C6.70351 56.2933 7.47687 57.0667 8.54024 57.0667H22.8474C22.364 56.39 22.074 55.6167 22.074 54.65L20.7206 25.1667H4.96346Z" fill="#666DE9"/>
<path d="M22.5573 44.3067C22.4607 44.3067 22.364 44.3067 22.2673 44.3067C18.7872 43.4367 16.4672 40.3433 16.4672 36.7667C16.4672 33.5767 18.5939 30.58 21.6873 29.5167C21.9773 29.42 22.2673 29.42 22.5573 29.6133C22.8474 29.8067 22.944 30.0967 22.944 30.3867L23.524 43.34C23.524 43.63 23.4274 43.92 23.1374 44.1133C22.944 44.21 22.7507 44.3067 22.5573 44.3067ZM21.1073 31.9333C19.4639 32.9967 18.4005 34.8333 18.4005 36.7667C18.4005 38.8933 19.6573 40.9233 21.494 41.89L21.1073 31.9333Z" fill="#666DE9"/>
</svg>
