<svg width="60" height="60" viewBox="0 0 60 60" fill="none" xmlns="http://www.w3.org/2000/svg">
<path d="M25 60C24.1 60 23.2 59.7 22.5 59.1L2 38.5C1.3 37.8 1 36.9 1 36C1 35.1 1.4 34.2 2 33.5L31.3 4H56V29.7L27.5 59C26.8 59.6 25.9 60 25 60ZM23.9 57.6C24.5 58.1 25.5 58.1 26.1 57.6L54 28.9V6H32.1L3.4 34.9C2.8 35.5 2.8 36.5 3.4 37.1L23.9 57.6Z" fill="#666DE9"/>
<path d="M45 20C42.2 20 40 17.8 40 15C40 12.2 42.2 10 45 10C47.8 10 50 12.2 50 15C50 17.8 47.8 20 45 20ZM45 12C43.3 12 42 13.3 42 15C42 16.7 43.3 18 45 18C46.7 18 48 16.7 48 15C48 13.3 46.7 12 45 12Z" fill="#666DE9"/>
<path d="M45 16C44.7 16 44.5 15.9 44.3 15.7C43.9 15.3 43.9 14.7 44.3 14.3L58.3 0.3C58.7 -0.1 59.3 -0.1 59.7 0.3C60.1 0.7 60.1 1.3 59.7 1.7L45.7 15.7C45.5 15.9 45.3 16 45 16Z" fill="#666DE9"/>
<path d="M24.3 45.2C22 45.2 19.7 44.2 18 42.6C14.5 39.1 14.5 33.4 18 29.9C18.4 29.5 19 29.5 19.4 29.9C19.8 30.3 19.8 30.9 19.4 31.3C16.7 34 16.7 38.5 19.4 41.2C20.8 42.6 22.9 43.4 24.9 43.2C26 43.1 26.9 42.6 27.6 41.8C28.4 40.9 28.7 39.7 28.6 38.5L27 25.3C26.8 23.6 27.3 21.9 28.3 20.6C29.4 19.3 30.8 18.5 32.5 18.4C35.1 18.2 37.7 19.1 39.6 21C43.1 24.5 43.1 30.2 39.6 33.7C39.2 34.1 38.6 34.1 38.2 33.7C37.8 33.3 37.8 32.7 38.2 32.3C40.9 29.6 40.9 25.1 38.2 22.4C36.7 20.9 34.7 20.2 32.7 20.4C31.6 20.5 30.6 21 29.9 21.9C29.2 22.8 28.8 24 29 25.1L30.6 38.3C30.8 40.1 30.3 41.8 29.1 43.1C28.1 44.3 26.6 45.1 25 45.2C24.8 45.2 24.6 45.2 24.3 45.2Z" fill="#666DE9"/>
<path d="M16.9 44.8C16.6 44.8 16.4 44.7 16.2 44.5C15.8 44.1 15.8 43.5 16.2 43.1L39.5 19.7C39.9 19.3 40.5 19.3 40.9 19.7C41.3 20.1 41.3 20.7 40.9 21.1L17.6 44.5C17.4 44.7 17.2 44.8 16.9 44.8Z" fill="#666DE9"/>
</svg>
