<svg width="60" height="60" viewBox="0 0 60 60" fill="none" xmlns="http://www.w3.org/2000/svg">
<path d="M1 60H42C42.3 60 42.5 59.9 42.7 59.7C42.9 59.5 43 59.3 43 59V58.5C43 58.1 42.8 57.8 42.5 57.6C41.3 56.9 40.8 55.5 41.1 54.2C41.5 52.9 42.6 52 44 52C45.4 52 46.5 52.9 46.9 54.2C47.3 55.5 46.7 56.9 45.5 57.6C45.2 57.8 45 58.1 45 58.5V59C45 59.3 45.1 59.5 45.3 59.7C45.5 59.9 45.7 60 46 60H59C59.3 60 59.5 59.9 59.7 59.7C59.9 59.5 60 59.3 60 59V17C60 16.7 59.9 16.5 59.7 16.3C59.5 16.1 59.3 16 59 16H58.5C58.1 16 57.8 16.2 57.6 16.5C56.9 17.7 55.5 18.2 54.2 17.9C52.9 17.5 52 16.4 52 15C52 13.6 52.9 12.5 54.2 12.1C55.5 11.7 56.9 12.3 57.6 13.5C57.8 13.8 58.1 14 58.5 14H59C59.3 14 59.5 13.9 59.7 13.7C59.9 13.5 60 13.3 60 13V1C60 0.7 59.9 0.5 59.7 0.3C59.5 0.1 59.3 0 59 0H1C0.7 0 0.5 0.1 0.3 0.3C0.1 0.5 0 0.7 0 1V59C0 59.3 0.1 59.5 0.3 59.7C0.5 59.9 0.7 60 1 60ZM2 31H14C14.3 31 14.5 30.9 14.7 30.7C14.9 30.5 15 30.3 15 30V29.5C15 29.1 14.8 28.8 14.5 28.6C13.3 27.9 12.8 26.5 13.1 25.2C13.5 23.9 14.6 23 16 23C17.4 23 18.5 23.9 18.9 25.2C19.3 26.5 18.7 27.9 17.5 28.6C17.2 28.8 17 29.1 17 29.5V30C17 30.3 17.1 30.5 17.3 30.7C17.5 30.9 17.7 31 18 31H29V41C26.9 39.4 24 39.7 22.3 41.6C20.6 43.5 20.6 46.4 22.3 48.3C24 50.2 27 50.5 29 48.9V57.9H2V31ZM58 58H48C49.6 55.9 49.3 53 47.4 51.3C45.5 49.6 42.6 49.6 40.7 51.3C38.7 53 38.5 55.9 40 58H31V47C31 46.7 30.9 46.5 30.7 46.3C30.5 46.1 30.3 46 30 46H29.5C29.1 46 28.8 46.2 28.6 46.5C27.9 47.7 26.5 48.2 25.2 47.9C23.9 47.5 23 46.4 23 45C23 43.6 23.9 42.5 25.2 42.1C26.5 41.7 27.9 42.3 28.6 43.5C28.8 43.8 29.1 44 29.5 44H30C30.3 44 30.5 43.9 30.7 43.7C30.9 43.5 31 43.3 31 43V31H40C38.5 33.1 38.7 36 40.6 37.7C42.5 39.4 45.4 39.4 47.3 37.7C49.2 36 49.5 33.1 47.9 31H57.9V58H58ZM58 11C55.9 9.4 53 9.7 51.3 11.6C49.6 13.5 49.6 16.4 51.3 18.3C53 20.2 56 20.5 58 18.9V28.9H46C45.7 28.9 45.5 29 45.3 29.2C45.1 29.5 45 29.7 45 30V30.5C45 30.9 45.2 31.2 45.5 31.4C46.7 32.1 47.2 33.5 46.9 34.8C46.5 36.1 45.4 37 44 37C42.6 37 41.5 36.1 41.1 34.8C40.7 33.5 41.3 32.1 42.5 31.4C42.8 31.2 43 30.9 43 30.5V30C43 29.7 42.9 29.5 42.7 29.3C42.5 29.1 42.3 29 42 29H31V19C31 19 31.1 19 31.1 19.1C31.3 19.2 31.4 19.3 31.6 19.4L31.7 19.5C31.9 19.6 32.1 19.7 32.3 19.8C32.4 19.8 32.4 19.8 32.5 19.8C32.7 19.9 32.9 19.9 33 19.9C33.1 19.9 33.1 19.9 33.2 19.9C33.4 19.9 33.7 20 33.9 20C36.7 20 38.9 17.8 38.9 15C38.9 12.2 36.7 10 33.9 10C33.7 10 33.4 10 33.2 10.1C33.1 10.1 33.1 10.1 33 10.1C32.8 10.1 32.6 10.2 32.5 10.2C32.4 10.2 32.4 10.2 32.3 10.2C32.1 10.3 31.9 10.4 31.7 10.5L31.6 10.6C31.4 10.7 31.3 10.8 31.1 10.9C31.1 10.9 31 10.9 31 11V2H58V11ZM2 2H29V13C29 13.3 29.1 13.5 29.3 13.7C29.5 13.9 29.7 14 30 14H30.5C30.9 14 31.2 13.8 31.4 13.5C32.1 12.3 33.5 11.8 34.8 12.1C36.1 12.5 37 13.6 37 15C37 16.4 36.1 17.5 34.8 17.9C33.5 18.3 32.1 17.7 31.4 16.5C31.2 16.2 30.9 16 30.5 16H30C29.7 16 29.5 16.1 29.3 16.3C29.1 16.5 29 16.7 29 17V29H20C20 29 20 28.9 20.1 28.9C20.2 28.7 20.3 28.6 20.4 28.4L20.5 28.3C20.6 28.1 20.7 27.9 20.8 27.7C20.8 27.6 20.8 27.6 20.9 27.5C21 27.3 21 27.1 21 27C21 26.9 21 26.9 21 26.8C21 26.6 21.1 26.3 21.1 26.1C21.1 23.3 18.9 21.1 16.1 21.1C13.3 21.1 11.1 23.3 11.1 26.1C11.1 26.3 11.1 26.6 11.2 26.8C11.2 26.9 11.2 26.9 11.2 27C11.2 27.2 11.3 27.4 11.3 27.5C11.3 27.6 11.3 27.6 11.4 27.7C11.5 27.9 11.6 28.1 11.7 28.3L11.8 28.4C11.9 28.6 12 28.7 12.1 28.9C12.1 28.9 12.1 29 12.2 29H2V2Z" fill="#666DE9"/>
</svg>
