<svg width="61" height="61" viewBox="0 0 61 61" fill="none" xmlns="http://www.w3.org/2000/svg">
<path d="M59 60.0041H1C0.4 60.0041 0 59.604 0 59.0041V1.00405C0 0.604052 0.2 0.204052 0.6 0.104052C1 -0.0959482 1.4 0.0040518 1.7 0.304052L59.7 58.3041C60 58.604 60.1 59.0041 59.9 59.4041C59.8 59.8041 59.4 60.0041 59 60.0041ZM2 58.0041H56.6L2 3.40405V58.0041Z" fill="#666DE9"/>
<path d="M30 48.0041H13C12.4 48.0041 12 47.604 12 47.0041V30.0041C12 29.6041 12.2 29.2041 12.6 29.1041C13 28.9041 13.4 29.0041 13.7 29.3041L30.7 46.3041C31 46.604 31.1 47.0041 30.9 47.4041C30.8 47.8041 30.4 48.0041 30 48.0041ZM14 46.0041H27.6L14 32.4041V46.0041Z" fill="#666DE9"/>
<path d="M6.7 11.9041C6.4 11.9041 6.2 11.8041 6 11.6041C5.8 11.4041 5.7 11.1041 5.7 10.9041C5.7 10.7041 5.8 10.4041 6 10.2041L8.1 8.10405C8.5 7.70405 9.1 7.70405 9.5 8.10405C9.7 8.30405 9.8 8.60405 9.8 8.80405C9.8 9.00405 9.7 9.30405 9.5 9.50405L7.4 11.6041C7.2 11.8041 7 11.9041 6.7 11.9041Z" fill="#666DE9"/>
<path d="M8.8 16.8041C8.5 16.8041 8.3 16.7041 8.1 16.5041C7.9 16.3041 7.8 16.0041 7.8 15.8041C7.8 15.6041 7.9 15.3041 8.1 15.1041L11.6 11.6041C12 11.2041 12.6 11.2041 13 11.6041C13.2 11.8041 13.3 12.1041 13.3 12.3041C13.3 12.5041 13.2 12.8041 13 13.0041L9.5 16.5041C9.3 16.7041 9.1 16.8041 8.8 16.8041Z" fill="#666DE9"/>
<path d="M13.7 19.0041C13.4 19.0041 13.2 18.9041 13 18.7041C12.8 18.5041 12.7 18.3041 12.7 18.0041C12.7 17.7041 12.8 17.5041 13 17.3041L15.2 15.2041C15.6 14.8041 16.2 14.8041 16.6 15.2041C16.8 15.4041 16.9 15.6041 16.9 15.9041C16.9 16.2041 16.8 16.4041 16.6 16.6041L14.4 18.7041C14.2 18.9041 13.9 19.0041 13.7 19.0041Z" fill="#666DE9"/>
<path d="M15.9 23.9041C15.6 23.9041 15.4 23.8041 15.2 23.6041C15 23.4041 14.9 23.1041 14.9 22.9041C14.9 22.7041 15 22.4041 15.2 22.2041L18.7 18.7041C19.1 18.3041 19.7 18.3041 20.1 18.7041C20.3 18.9041 20.4 19.2041 20.4 19.4041C20.4 19.6041 20.3 19.9041 20.1 20.1041L16.6 23.6041C16.4 23.8041 16.2 23.9041 15.9 23.9041Z" fill="#666DE9"/>
<path d="M20.8 26.0041C20.5 26.0041 20.3 25.9041 20.1 25.7041C19.9 25.5041 19.8 25.2041 19.8 25.0041C19.8 24.8041 19.9 24.5041 20.1 24.3041L22.2 22.2041C22.6 21.8041 23.2 21.8041 23.6 22.2041C23.8 22.4041 23.9 22.7041 23.9 22.9041C23.9 23.1041 23.8 23.4041 23.6 23.6041L21.5 25.7041C21.3 25.9041 21.1 26.0041 20.8 26.0041Z" fill="#666DE9"/>
<path d="M22.9 31.0041C22.6 31.0041 22.4 30.9041 22.2 30.7041C22 30.5041 21.9 30.3041 21.9 30.0041C21.9 29.7041 22 29.5041 22.2 29.3041L25.8 25.8041C26.2 25.4041 26.8 25.4041 27.2 25.8041C27.4 26.0041 27.5 26.2041 27.5 26.5041C27.5 26.8041 27.4 27.0041 27.2 27.2041L23.6 30.7041C23.4 30.9041 23.2 31.0041 22.9 31.0041Z" fill="#666DE9"/>
<path d="M27.9 33.104C27.6 33.104 27.4 33.0041 27.2 32.8041C27 32.604 26.9 32.3041 26.9 32.1041C26.9 31.9041 27 31.6041 27.2 31.4041L29.3 29.3041C29.7 28.9041 30.3 28.9041 30.7 29.3041C30.9 29.5041 31 29.8041 31 30.0041C31 30.2041 30.9 30.5041 30.7 30.7041L28.6 32.8041C28.4 33.0041 28.2 33.104 27.9 33.104Z" fill="#666DE9"/>
<path d="M30 38.104C29.7 38.104 29.5 38.0041 29.3 37.8041C29.1 37.604 29 37.3041 29 37.104C29 36.8041 29.1 36.6041 29.3 36.4041L32.8 32.8041C33.2 32.404 33.8 32.404 34.2 32.8041C34.4 33.0041 34.5 33.3041 34.5 33.5041C34.5 33.8041 34.4 34.0041 34.2 34.2041L30.7 37.8041C30.5 38.0041 30.3 38.104 30 38.104Z" fill="#666DE9"/>
<path d="M35 40.2041C34.7 40.2041 34.5 40.1041 34.3 39.9041C34.1 39.7041 34 39.5041 34 39.2041C34 38.9041 34.1 38.7041 34.3 38.5041L36.4 36.4041C36.8 36.0041 37.4 36.0041 37.8 36.4041C38 36.6041 38.1 36.904 38.1 37.104C38.1 37.3041 38 37.604 37.8 37.8041L35.7 39.9041C35.5 40.1041 35.3 40.2041 35 40.2041Z" fill="#666DE9"/>
<path d="M37.1 45.104C36.8 45.104 36.6 45.0041 36.4 44.8041C36.2 44.604 36.1 44.3041 36.1 44.104C36.1 43.904 36.2 43.6041 36.4 43.4041L39.9 39.9041C40.3 39.5041 40.9 39.5041 41.3 39.9041C41.5 40.1041 41.6 40.404 41.6 40.604C41.6 40.8041 41.5 41.104 41.3 41.3041L37.8 44.8041C37.6 45.0041 37.4 45.104 37.1 45.104Z" fill="#666DE9"/>
<path d="M42 47.3041C41.8 47.3041 41.5 47.2041 41.3 47.0041C41.1 46.8041 41 46.5041 41 46.3041C41 46.104 41.1 45.8041 41.3 45.604L43.4 43.4041C43.8 43.0041 44.4 43.0041 44.8 43.4041C45 43.6041 45.1 43.904 45.1 44.104C45.1 44.3041 45 44.604 44.8 44.8041L42.7 47.0041C42.5 47.2041 42.3 47.3041 42 47.3041Z" fill="#666DE9"/>
<path d="M44.2 52.2041C43.9 52.2041 43.7 52.1041 43.5 51.9041C43.3 51.7041 43.2 51.4041 43.2 51.2041C43.2 51.0041 43.3 50.7041 43.5 50.5041L47 47.0041C47.4 46.604 48 46.604 48.4 47.0041C48.6 47.2041 48.7 47.5041 48.7 47.7041C48.7 47.9041 48.6 48.2041 48.4 48.4041L44.9 51.9041C44.7 52.1041 44.5 52.2041 44.2 52.2041Z" fill="#666DE9"/>
<path d="M49.1 54.3041C48.8 54.3041 48.6 54.2041 48.4 54.0041C48.2 53.8041 48.1 53.5041 48.1 53.3041C48.1 53.104 48.2 52.8041 48.4 52.604L50.5 50.5041C50.9 50.104 51.5 50.104 51.9 50.5041C52.1 50.7041 52.2 51.0041 52.2 51.2041C52.2 51.4041 52.1 51.7041 51.9 51.9041L49.8 54.0041C49.6 54.2041 49.4 54.3041 49.1 54.3041Z" fill="#666DE9"/>
</svg>
