<svg width="50" height="60" viewBox="0 0 50 60" fill="none" xmlns="http://www.w3.org/2000/svg">
<path fill-rule="evenodd" clip-rule="evenodd" d="M26 26C26 26.552 25.552 27 25 27C24.448 27 24 26.552 24 26C24 25.448 24.448 25 25 25C25.552 25 26 25.448 26 26Z" fill="#666DE9"/>
<path fill-rule="evenodd" clip-rule="evenodd" d="M29 24C29 24.552 28.552 25 28 25C27.448 25 27 24.552 27 24C27 23.448 27.448 23 28 23C28.552 23 29 23.448 29 24Z" fill="#666DE9"/>
<path fill-rule="evenodd" clip-rule="evenodd" d="M23 24C23 24.552 22.552 25 22 25C21.448 25 21 24.552 21 24C21 23.448 21.448 23 22 23C22.552 23 23 23.448 23 24Z" fill="#666DE9"/>
<path fill-rule="evenodd" clip-rule="evenodd" d="M20 22C20 22.552 19.552 23 19 23C18.448 23 18 22.552 18 22C18 21.448 18.448 21 19 21C19.552 21 20 21.448 20 22Z" fill="#666DE9"/>
<path fill-rule="evenodd" clip-rule="evenodd" d="M32 22C32 22.552 31.552 23 31 23C30.448 23 30 22.552 30 22C30 21.448 30.448 21 31 21C31.552 21 32 21.448 32 22Z" fill="#666DE9"/>
<path fill-rule="evenodd" clip-rule="evenodd" d="M35 20C35 20.552 34.552 21 34 21C33.448 21 33 20.552 33 20C33 19.448 33.448 19 34 19C34.552 19 35 19.448 35 20Z" fill="#666DE9"/>
<path fill-rule="evenodd" clip-rule="evenodd" d="M17 20C17 20.552 16.552 21 16 21C15.448 21 15 20.552 15 20C15 19.448 15.448 19 16 19C16.552 19 17 19.448 17 20Z" fill="#666DE9"/>
<path fill-rule="evenodd" clip-rule="evenodd" d="M26 22C26 22.552 25.552 23 25 23C24.448 23 24 22.552 24 22C24 21.448 24.448 21 25 21C25.552 21 26 21.448 26 22Z" fill="#666DE9"/>
<path fill-rule="evenodd" clip-rule="evenodd" d="M26 34C26 34.552 25.552 35 25 35C24.448 35 24 34.552 24 34C24 33.448 24.448 33 25 33C25.552 33 26 33.448 26 34Z" fill="#666DE9"/>
<path fill-rule="evenodd" clip-rule="evenodd" d="M26 37C26 37.552 25.552 38 25 38C24.448 38 24 37.552 24 37C24 36.448 24.448 36 25 36C25.552 36 26 36.448 26 37Z" fill="#666DE9"/>
<path fill-rule="evenodd" clip-rule="evenodd" d="M26 40C26 40.552 25.552 41 25 41C24.448 41 24 40.552 24 40C24 39.448 24.448 39 25 39C25.552 39 26 39.448 26 40Z" fill="#666DE9"/>
<path fill-rule="evenodd" clip-rule="evenodd" d="M26 43C26 43.552 25.552 44 25 44C24.448 44 24 43.552 24 43C24 42.448 24.448 42 25 42C25.552 42 26 42.448 26 43Z" fill="#666DE9"/>
<path fill-rule="evenodd" clip-rule="evenodd" d="M26 46C26 46.552 25.552 47 25 47C24.448 47 24 46.552 24 46C24 45.448 24.448 45 25 45C25.552 45 26 45.448 26 46Z" fill="#666DE9"/>
<path fill-rule="evenodd" clip-rule="evenodd" d="M26 49C26 49.552 25.552 50 25 50C24.448 50 24 49.552 24 49C24 48.448 24.448 48 25 48C25.552 48 26 48.448 26 49Z" fill="#666DE9"/>
<path fill-rule="evenodd" clip-rule="evenodd" d="M4 55C4 54.4477 4.44772 54 5 54H45C45.5523 54 46 54.4477 46 55V59C46 59.5523 45.5523 60 45 60H5C4.44772 60 4 59.5523 4 59V55ZM6 56V58H44V56H6Z" fill="#666DE9"/>
<path fill-rule="evenodd" clip-rule="evenodd" d="M24.4453 29.1679C24.7812 28.944 25.2188 28.944 25.5547 29.1679L37.4117 37.0719C39.6524 38.5673 41 41.0835 41 43.778V55C41 55.5523 40.5523 56 40 56H10C9.44771 56 9 55.5523 9 55V43.778C9 41.0835 10.3472 38.5675 12.5879 37.0722L24.4453 29.1679ZM25 31.2018L13.6981 38.7358C13.6979 38.7359 13.6982 38.7357 13.6981 38.7358C12.013 39.8605 11 41.7527 11 43.778V54H39V43.778C39 41.7527 37.9874 39.8608 36.3023 38.7361C36.3022 38.736 36.3025 38.7362 36.3023 38.7361L25 31.2018Z" fill="#666DE9"/>
<path fill-rule="evenodd" clip-rule="evenodd" d="M0 59C0 58.4477 0.447715 58 1 58H5C5.55228 58 6 58.4477 6 59C6 59.5523 5.55228 60 5 60H1C0.447715 60 0 59.5523 0 59Z" fill="#666DE9"/>
<path fill-rule="evenodd" clip-rule="evenodd" d="M44 59C44 58.4477 44.4477 58 45 58H49C49.5523 58 50 58.4477 50 59C50 59.5523 49.5523 60 49 60H45C44.4477 60 44 59.5523 44 59Z" fill="#666DE9"/>
<path fill-rule="evenodd" clip-rule="evenodd" d="M4 1C4 0.447715 4.44772 0 5 0H45C45.5523 0 46 0.447715 46 1V5C46 5.55228 45.5523 6 45 6H5C4.44772 6 4 5.55228 4 5V1ZM6 2V4H44V2H6Z" fill="#666DE9"/>
<path fill-rule="evenodd" clip-rule="evenodd" d="M9 5C9 4.44772 9.44771 4 10 4H40C40.5523 4 41 4.44772 41 5V16.222C41 18.9165 39.6528 21.4325 37.4121 22.9278L25.5547 30.8321C25.2188 31.056 24.7812 31.056 24.4453 30.8321L12.5883 22.9281C10.3476 21.4327 9 18.9165 9 16.222V5ZM11 6V16.222C11 18.2475 12.0128 20.1395 13.6981 21.2642L25 28.7982L36.3019 21.2642C37.9872 20.1395 39 18.2475 39 16.222V6H11Z" fill="#666DE9"/>
<path fill-rule="evenodd" clip-rule="evenodd" d="M0 1C0 0.447715 0.447715 0 1 0H5C5.55228 0 6 0.447715 6 1C6 1.55228 5.55228 2 5 2H1C0.447715 2 0 1.55228 0 1Z" fill="#666DE9"/>
<path fill-rule="evenodd" clip-rule="evenodd" d="M44 1C44 0.447715 44.4477 0 45 0H49C49.5523 0 50 0.447715 50 1C50 1.55228 49.5523 2 49 2H45C44.4477 2 44 1.55228 44 1Z" fill="#666DE9"/>
</svg>
