<svg width="60" height="60" viewBox="0 0 60 60" fill="none" xmlns="http://www.w3.org/2000/svg">
<path d="M32.4501 51.5438C32.0568 51.5438 31.7618 51.5438 31.6634 51.5438C30.5818 51.5438 25.6651 50.9437 17.7001 36.3438C12.1934 29.4438 5.60502 26.4437 2.95001 25.5437C1.18 24.9437 0 23.2437 0 21.3438C0.295001 13.6438 5.90002 9.54375 6.09669 9.34375C7.57169 8.34375 9.6367 9.84375 26.8451 30.1437C29.5001 33.2437 31.8601 35.9437 32.9418 37.1437C35.3018 39.6437 38.9401 39.2437 40.9068 38.7437C43.2668 38.2437 45.2335 38.1437 47.1018 38.3438C53.1002 38.9438 56.8369 40.5438 58.4102 43.0438C59.0985 44.1437 59.1969 45.5437 58.7052 46.7437C58.3119 47.8437 57.3285 48.7438 56.2469 49.0438C45.8235 51.3438 35.4001 51.5438 32.4501 51.5438ZM7.08002 11.1438C5.99835 12.0438 2.26167 15.5438 2.06501 21.2438C2.06501 22.2438 2.65501 23.2437 3.63835 23.5437C6.39169 24.5437 13.4717 27.7437 19.2734 35.0437L19.3717 35.1437C22.7151 41.3438 28.7134 49.8438 31.5651 49.5438H31.6634C31.7618 49.5438 43.6602 49.8437 55.9519 46.7437C56.6402 46.5437 56.9352 46.0438 57.0335 45.6437C57.2302 45.0438 57.2302 44.3438 56.8369 43.8438C56.1485 42.7438 53.9852 40.8438 46.9052 40.1437C45.2335 39.9437 43.3652 40.1437 41.3001 40.5437C38.9401 41.1437 34.4168 41.6437 31.4668 38.3438C30.3851 37.1437 28.1234 34.5438 25.3701 31.3438C19.8634 24.6438 9.53837 12.5438 7.08002 11.1438Z" fill="#666DE9"/>
<path d="M37.8585 46.0438C34.0235 46.0438 30.6801 44.6437 28.4184 42.0438C27.8284 41.4438 26.9434 40.3438 25.7634 38.9438C25.2718 38.4438 24.7801 37.8438 24.2884 37.1438C23.6001 36.3438 22.8134 35.3438 21.9284 34.3438C18.0934 29.6438 12.7834 23.2438 9.24337 19.7438C8.85003 19.3438 8.85003 18.7437 9.24337 18.3438C9.6367 17.9438 10.2267 17.9438 10.62 18.3438C14.1601 21.9438 19.5684 28.3438 23.5017 33.0438C24.3868 34.0438 25.1734 35.0438 25.8618 35.8438C26.3534 36.4438 26.8451 37.0438 27.3368 37.6438C28.4184 38.9438 29.3034 40.0438 29.8934 40.6438C31.7618 42.8438 34.6135 44.0438 37.8585 44.0438C38.9401 44.0438 40.2185 43.8438 41.7918 43.5438C42.2835 43.4438 42.8735 43.7438 42.9718 44.3438C43.0701 44.8438 42.7752 45.4438 42.1852 45.5438C40.4151 45.8438 39.0385 46.0438 37.8585 46.0438Z" fill="#666DE9"/>
<path d="M5.31002 26.4437C5.21169 26.4437 5.01502 26.4438 4.91668 26.3438C4.22835 26.0438 3.54001 25.7437 3.04834 25.5437C1.08167 24.7437 5.1285e-08 22.9438 0.0983337 21.1438C0.393335 13.5438 5.99835 9.44375 6.19502 9.24375C7.08002 8.64375 8.06336 8.94375 11.6034 12.5438C11.8 12.7438 11.8984 12.9438 11.8984 13.2438V13.6438C11.8984 18.5438 9.73503 23.1437 5.90002 26.2437C5.70335 26.3438 5.50669 26.4437 5.31002 26.4437ZM7.08002 11.1438C5.90002 12.0438 2.26167 15.5438 2.06501 21.2438C1.96667 22.2438 2.65501 23.2438 3.73668 23.6438C4.13001 23.7438 4.62168 23.9438 5.11335 24.2438C8.1617 21.5438 9.9317 17.7437 9.9317 13.6438C8.26003 11.9438 7.37503 11.3438 7.08002 11.1438Z" fill="#666DE9"/>
<path d="M11.8984 51.6437H7.96503C7.37503 51.6437 6.98169 51.2437 6.98169 50.6437V39.5438C6.98169 34.2438 5.01502 28.8438 1.67167 24.6438C1.37667 24.2438 1.37667 23.7437 1.67167 23.3438C2.06501 23.0437 2.55668 22.9438 3.04834 23.2438C3.24501 23.4438 3.54001 23.5437 3.73668 23.6438C3.73668 23.6438 3.73668 23.6438 3.83501 23.6438C6.98169 24.9438 9.9317 26.6438 12.5867 28.5438C12.8817 28.7438 12.98 29.0438 12.98 29.3438V50.6437C12.8817 51.2437 12.4884 51.6437 11.8984 51.6437ZM8.94837 49.6437H10.915V29.8438C9.14503 28.6438 7.37503 27.4438 5.31002 26.5438C7.57169 30.5438 8.94837 35.0438 8.94837 39.5438V49.6437Z" fill="#666DE9"/>
</svg>
