<svg width="60" height="60" viewBox="0 0 60 60" fill="none" xmlns="http://www.w3.org/2000/svg">
<path fill-rule="evenodd" clip-rule="evenodd" d="M0 3H60V9H0V3ZM2 5V7H58V5H2Z" fill="#666DE9"/>
<path fill-rule="evenodd" clip-rule="evenodd" d="M3 0H57V5H3V0ZM5 2V3H55V2H5Z" fill="#666DE9"/>
<path fill-rule="evenodd" clip-rule="evenodd" d="M0 49H20V60H0V49ZM2 51V58H18V51H2Z" fill="#666DE9"/>
<path fill-rule="evenodd" clip-rule="evenodd" d="M40 49H60V60H40V49ZM42 51V58H58V51H42Z" fill="#666DE9"/>
<path fill-rule="evenodd" clip-rule="evenodd" d="M1 7H10V14.5C10 16.9853 7.98528 19 5.5 19C3.01472 19 1 16.9853 1 14.5V7ZM3 9V14.5C3 15.8807 4.11928 17 5.5 17C6.88072 17 8 15.8807 8 14.5V9H3Z" fill="#666DE9"/>
<path fill-rule="evenodd" clip-rule="evenodd" d="M8 7H17V14.5C17 16.9853 14.9853 19 12.5 19C10.0147 19 8 16.9853 8 14.5L8 7ZM10 9V14.5C10 15.8807 11.1193 17 12.5 17C13.8807 17 15 15.8807 15 14.5V9H10Z" fill="#666DE9"/>
<path fill-rule="evenodd" clip-rule="evenodd" d="M15 7H24V14.5C24 16.9853 21.9853 19 19.5 19C17.0147 19 15 16.9853 15 14.5V7ZM17 9V14.5C17 15.8807 18.1193 17 19.5 17C20.8807 17 22 15.8807 22 14.5V9H17Z" fill="#666DE9"/>
<path fill-rule="evenodd" clip-rule="evenodd" d="M22 7H31V14.5C31 16.9853 28.9853 19 26.5 19C24.0147 19 22 16.9853 22 14.5V7ZM24 9V14.5C24 15.8807 25.1193 17 26.5 17C27.8807 17 29 15.8807 29 14.5V9H24Z" fill="#666DE9"/>
<path fill-rule="evenodd" clip-rule="evenodd" d="M29 7H38V14.5C38 16.9853 35.9853 19 33.5 19C31.0147 19 29 16.9853 29 14.5V7ZM31 9V14.5C31 15.8807 32.1193 17 33.5 17C34.8807 17 36 15.8807 36 14.5V9H31Z" fill="#666DE9"/>
<path fill-rule="evenodd" clip-rule="evenodd" d="M36 7H45V14.5C45 16.9853 42.9853 19 40.5 19C38.0147 19 36 16.9853 36 14.5V7ZM38 9V14.5C38 15.8807 39.1193 17 40.5 17C41.8807 17 43 15.8807 43 14.5V9H38Z" fill="#666DE9"/>
<path fill-rule="evenodd" clip-rule="evenodd" d="M43 7H52V14.5C52 16.9853 49.9853 19 47.5 19C45.0147 19 43 16.9853 43 14.5V7ZM45 9V14.5C45 15.8807 46.1193 17 47.5 17C48.8807 17 50 15.8807 50 14.5V9H45Z" fill="#666DE9"/>
<path fill-rule="evenodd" clip-rule="evenodd" d="M50 7H59V14.5C59 16.9853 56.9853 19 54.5 19C52.0147 19 50 16.9853 50 14.5V7ZM52 9V14.5C52 15.8807 53.1193 17 54.5 17C55.8807 17 57 15.8807 57 14.5V9H52Z" fill="#666DE9"/>
<path fill-rule="evenodd" clip-rule="evenodd" d="M2 12C2.55228 12 3 12.4477 3 13V50C3 50.5523 2.55228 51 2 51C1.44772 51 1 50.5523 1 50V13C1 12.4477 1.44772 12 2 12Z" fill="#666DE9"/>
<path fill-rule="evenodd" clip-rule="evenodd" d="M58 12C58.5523 12 59 12.4477 59 13V50C59 50.5523 58.5523 51 58 51C57.4477 51 57 50.5523 57 50V13C57 12.4477 57.4477 12 58 12Z" fill="#666DE9"/>
<path fill-rule="evenodd" clip-rule="evenodd" d="M19.5 17C20.8807 17 22 15.8807 22 14.5H24C24 15.8807 25.1193 17 26.5 17C27.8807 17 29 15.8807 29 14.5H31C31 15.8807 32.1193 17 33.5 17C34.8807 17 36 15.8807 36 14.5H38C38 15.8807 39.1193 17 40.5 17C40.5739 17 40.643 16.9903 40.7965 16.9687C40.8168 16.9659 40.8385 16.9628 40.8619 16.9596L42 16.8009V60H18V16.8009L19.1381 16.9596C19.1615 16.9628 19.1832 16.9659 19.2035 16.9687C19.357 16.9903 19.4261 17 19.5 17ZM37 17.3287C36.175 18.3482 34.9136 19 33.5 19C32.0864 19 30.825 18.3482 30 17.3287C29.175 18.3482 27.9136 19 26.5 19C25.0864 19 23.825 18.3482 23 17.3287C22.2737 18.2263 21.209 18.8389 20 18.9725V58H40V18.9725C38.791 18.8389 37.7264 18.2263 37 17.3287Z" fill="#666DE9"/>
<path fill-rule="evenodd" clip-rule="evenodd" d="M22 38H38V56H22V38ZM24 40V54H36V40H24Z" fill="#666DE9"/>
<path fill-rule="evenodd" clip-rule="evenodd" d="M23 16C23.5523 16 24 16.4477 24 17V33H36V17C36 16.4477 36.4477 16 37 16C37.5523 16 38 16.4477 38 17V35H22V17C22 16.4477 22.4477 16 23 16Z" fill="#666DE9"/>
<path fill-rule="evenodd" clip-rule="evenodd" d="M5 54C5 53.4477 5.44772 53 6 53H7C7.55228 53 8 53.4477 8 54C8 54.5523 7.55228 55 7 55H6C5.44772 55 5 54.5523 5 54Z" fill="#666DE9"/>
<path fill-rule="evenodd" clip-rule="evenodd" d="M1 54C1 53.4477 1.44772 53 2 53H3C3.55228 53 4 53.4477 4 54C4 54.5523 3.55228 55 3 55H2C1.44772 55 1 54.5523 1 54Z" fill="#666DE9"/>
<path fill-rule="evenodd" clip-rule="evenodd" d="M8 57C8 56.4477 8.44771 56 9 56H10C10.5523 56 11 56.4477 11 57C11 57.5523 10.5523 58 10 58H9C8.44771 58 8 57.5523 8 57Z" fill="#666DE9"/>
<path fill-rule="evenodd" clip-rule="evenodd" d="M0 57C0 56.4477 0.447715 56 1 56H2C2.55228 56 3 56.4477 3 57C3 57.5523 2.55228 58 2 58H1C0.447715 58 0 57.5523 0 57Z" fill="#666DE9"/>
<path fill-rule="evenodd" clip-rule="evenodd" d="M4 57C4 56.4477 4.44772 56 5 56H6C6.55228 56 7 56.4477 7 57C7 57.5523 6.55228 58 6 58H5C4.44772 58 4 57.5523 4 57Z" fill="#666DE9"/>
<path fill-rule="evenodd" clip-rule="evenodd" d="M13 54C13 53.4477 13.4477 53 14 53H15C15.5523 53 16 53.4477 16 54C16 54.5523 15.5523 55 15 55H14C13.4477 55 13 54.5523 13 54Z" fill="#666DE9"/>
<path fill-rule="evenodd" clip-rule="evenodd" d="M17 54C17 53.4477 17.4477 53 18 53H19C19.5523 53 20 53.4477 20 54C20 54.5523 19.5523 55 19 55H18C17.4477 55 17 54.5523 17 54Z" fill="#666DE9"/>
<path fill-rule="evenodd" clip-rule="evenodd" d="M9 54C9 53.4477 9.44771 53 10 53H11C11.5523 53 12 53.4477 12 54C12 54.5523 11.5523 55 11 55H10C9.44771 55 9 54.5523 9 54Z" fill="#666DE9"/>
<path fill-rule="evenodd" clip-rule="evenodd" d="M16 57C16 56.4477 16.4477 56 17 56H18C18.5523 56 19 56.4477 19 57C19 57.5523 18.5523 58 18 58H17C16.4477 58 16 57.5523 16 57Z" fill="#666DE9"/>
<path fill-rule="evenodd" clip-rule="evenodd" d="M12 57C12 56.4477 12.4477 56 13 56H14C14.5523 56 15 56.4477 15 57C15 57.5523 14.5523 58 14 58H13C12.4477 58 12 57.5523 12 57Z" fill="#666DE9"/>
<path fill-rule="evenodd" clip-rule="evenodd" d="M7 51C7 50.4477 7.44772 50 8 50H9C9.55228 50 10 50.4477 10 51C10 51.5523 9.55228 52 9 52H8C7.44772 52 7 51.5523 7 51Z" fill="#666DE9"/>
<path fill-rule="evenodd" clip-rule="evenodd" d="M3 51C3 50.4477 3.44772 50 4 50H5C5.55228 50 6 50.4477 6 51C6 51.5523 5.55228 52 5 52H4C3.44772 52 3 51.5523 3 51Z" fill="#666DE9"/>
<path fill-rule="evenodd" clip-rule="evenodd" d="M15 51C15 50.4477 15.4477 50 16 50H17C17.5523 50 18 50.4477 18 51C18 51.5523 17.5523 52 17 52H16C15.4477 52 15 51.5523 15 51Z" fill="#666DE9"/>
<path fill-rule="evenodd" clip-rule="evenodd" d="M11 51C11 50.4477 11.4477 50 12 50H13C13.5523 50 14 50.4477 14 51C14 51.5523 13.5523 52 13 52H12C11.4477 52 11 51.5523 11 51Z" fill="#666DE9"/>
<path fill-rule="evenodd" clip-rule="evenodd" d="M45 54C45 53.4477 45.4477 53 46 53H47C47.5523 53 48 53.4477 48 54C48 54.5523 47.5523 55 47 55H46C45.4477 55 45 54.5523 45 54Z" fill="#666DE9"/>
<path fill-rule="evenodd" clip-rule="evenodd" d="M41 54C41 53.4477 41.4477 53 42 53H43C43.5523 53 44 53.4477 44 54C44 54.5523 43.5523 55 43 55H42C41.4477 55 41 54.5523 41 54Z" fill="#666DE9"/>
<path fill-rule="evenodd" clip-rule="evenodd" d="M48 57C48 56.4477 48.4477 56 49 56H50C50.5523 56 51 56.4477 51 57C51 57.5523 50.5523 58 50 58H49C48.4477 58 48 57.5523 48 57Z" fill="#666DE9"/>
<path fill-rule="evenodd" clip-rule="evenodd" d="M40 57C40 56.4477 40.4477 56 41 56H42C42.5523 56 43 56.4477 43 57C43 57.5523 42.5523 58 42 58H41C40.4477 58 40 57.5523 40 57Z" fill="#666DE9"/>
<path fill-rule="evenodd" clip-rule="evenodd" d="M44 57C44 56.4477 44.4477 56 45 56H46C46.5523 56 47 56.4477 47 57C47 57.5523 46.5523 58 46 58H45C44.4477 58 44 57.5523 44 57Z" fill="#666DE9"/>
<path fill-rule="evenodd" clip-rule="evenodd" d="M53 54C53 53.4477 53.4477 53 54 53H55C55.5523 53 56 53.4477 56 54C56 54.5523 55.5523 55 55 55H54C53.4477 55 53 54.5523 53 54Z" fill="#666DE9"/>
<path fill-rule="evenodd" clip-rule="evenodd" d="M57 54C57 53.4477 57.4477 53 58 53H59C59.5523 53 60 53.4477 60 54C60 54.5523 59.5523 55 59 55H58C57.4477 55 57 54.5523 57 54Z" fill="#666DE9"/>
<path fill-rule="evenodd" clip-rule="evenodd" d="M49 54C49 53.4477 49.4477 53 50 53H51C51.5523 53 52 53.4477 52 54C52 54.5523 51.5523 55 51 55H50C49.4477 55 49 54.5523 49 54Z" fill="#666DE9"/>
<path fill-rule="evenodd" clip-rule="evenodd" d="M56 57C56 56.4477 56.4477 56 57 56H58C58.5523 56 59 56.4477 59 57C59 57.5523 58.5523 58 58 58H57C56.4477 58 56 57.5523 56 57Z" fill="#666DE9"/>
<path fill-rule="evenodd" clip-rule="evenodd" d="M52 57C52 56.4477 52.4477 56 53 56H54C54.5523 56 55 56.4477 55 57C55 57.5523 54.5523 58 54 58H53C52.4477 58 52 57.5523 52 57Z" fill="#666DE9"/>
<path fill-rule="evenodd" clip-rule="evenodd" d="M47 51C47 50.4477 47.4477 50 48 50H49C49.5523 50 50 50.4477 50 51C50 51.5523 49.5523 52 49 52H48C47.4477 52 47 51.5523 47 51Z" fill="#666DE9"/>
<path fill-rule="evenodd" clip-rule="evenodd" d="M43 51C43 50.4477 43.4477 50 44 50H45C45.5523 50 46 50.4477 46 51C46 51.5523 45.5523 52 45 52H44C43.4477 52 43 51.5523 43 51Z" fill="#666DE9"/>
<path fill-rule="evenodd" clip-rule="evenodd" d="M55 51C55 50.4477 55.4477 50 56 50H57C57.5523 50 58 50.4477 58 51C58 51.5523 57.5523 52 57 52H56C55.4477 52 55 51.5523 55 51Z" fill="#666DE9"/>
<path fill-rule="evenodd" clip-rule="evenodd" d="M51 51C51 50.4477 51.4477 50 52 50H53C53.5523 50 54 50.4477 54 51C54 51.5523 53.5523 52 53 52H52C51.4477 52 51 51.5523 51 51Z" fill="#666DE9"/>
<path fill-rule="evenodd" clip-rule="evenodd" d="M9.70711 21.2929C10.0976 21.6834 10.0976 22.3166 9.70711 22.7071L5.70711 26.7071C5.31658 27.0976 4.68342 27.0976 4.29289 26.7071C3.90237 26.3166 3.90237 25.6834 4.29289 25.2929L8.29289 21.2929C8.68342 20.9024 9.31658 20.9024 9.70711 21.2929Z" fill="#666DE9"/>
<path fill-rule="evenodd" clip-rule="evenodd" d="M7.70711 28.2929C8.09763 28.6834 8.09763 29.3166 7.70711 29.7071L5.70711 31.7071C5.31658 32.0976 4.68342 32.0976 4.29289 31.7071C3.90237 31.3166 3.90237 30.6834 4.29289 30.2929L6.29289 28.2929C6.68342 27.9024 7.31658 27.9024 7.70711 28.2929Z" fill="#666DE9"/>
<path fill-rule="evenodd" clip-rule="evenodd" d="M14.7071 21.2929C15.0976 21.6834 15.0976 22.3166 14.7071 22.7071L11.7071 25.7071C11.3166 26.0976 10.6834 26.0976 10.2929 25.7071C9.90237 25.3166 9.90237 24.6834 10.2929 24.2929L13.2929 21.2929C13.6834 20.9024 14.3166 20.9024 14.7071 21.2929Z" fill="#666DE9"/>
<path fill-rule="evenodd" clip-rule="evenodd" d="M14.7071 26.2929C15.0976 26.6834 15.0976 27.3166 14.7071 27.7071L5.70711 36.7071C5.31658 37.0976 4.68342 37.0976 4.29289 36.7071C3.90237 36.3166 3.90237 35.6834 4.29289 35.2929L13.2929 26.2929C13.6834 25.9024 14.3166 25.9024 14.7071 26.2929Z" fill="#666DE9"/>
<path fill-rule="evenodd" clip-rule="evenodd" d="M48.7071 21.2929C49.0976 21.6834 49.0976 22.3166 48.7071 22.7071L44.7071 26.7071C44.3166 27.0976 43.6834 27.0976 43.2929 26.7071C42.9024 26.3166 42.9024 25.6834 43.2929 25.2929L47.2929 21.2929C47.6834 20.9024 48.3166 20.9024 48.7071 21.2929Z" fill="#666DE9"/>
<path fill-rule="evenodd" clip-rule="evenodd" d="M46.7071 28.2929C47.0976 28.6834 47.0976 29.3166 46.7071 29.7071L44.7071 31.7071C44.3166 32.0976 43.6834 32.0976 43.2929 31.7071C42.9024 31.3166 42.9024 30.6834 43.2929 30.2929L45.2929 28.2929C45.6834 27.9024 46.3166 27.9024 46.7071 28.2929Z" fill="#666DE9"/>
<path fill-rule="evenodd" clip-rule="evenodd" d="M53.7071 21.2929C54.0976 21.6834 54.0976 22.3166 53.7071 22.7071L50.7071 25.7071C50.3166 26.0976 49.6834 26.0976 49.2929 25.7071C48.9024 25.3166 48.9024 24.6834 49.2929 24.2929L52.2929 21.2929C52.6834 20.9024 53.3166 20.9024 53.7071 21.2929Z" fill="#666DE9"/>
<path fill-rule="evenodd" clip-rule="evenodd" d="M53.7071 26.2929C54.0976 26.6834 54.0976 27.3166 53.7071 27.7071L44.7071 36.7071C44.3166 37.0976 43.6834 37.0976 43.2929 36.7071C42.9024 36.3166 42.9024 35.6834 43.2929 35.2929L52.2929 26.2929C52.6834 25.9024 53.3166 25.9024 53.7071 26.2929Z" fill="#666DE9"/>
</svg>
