<svg width="54" height="59" viewBox="0 0 54 59" fill="none" xmlns="http://www.w3.org/2000/svg">
<path fill-rule="evenodd" clip-rule="evenodd" d="M25.6037 0.890333C26.5614 -0.297336 28.3752 -0.296105 29.333 0.889992C29.4635 1.05178 29.5922 1.21002 29.7181 1.36472C31.1435 3.11665 32.2586 4.48728 32.7019 7.14177C32.702 7.14277 32.7022 7.14378 32.7024 7.14479L33.5104 11.8162C33.5157 11.8409 33.5199 11.8658 33.5233 11.8907L34.2174 15.904C34.768 19.2103 36.3618 23.4923 37.8931 26.5324C38.0437 26.8313 38.1791 27.1127 38.3085 27.3817C38.5656 27.9159 38.7993 28.4014 39.0818 28.8795C39.485 29.5618 39.9281 30.1137 40.5254 30.5296C42.4034 31.8372 44.7886 33.5371 46.8016 35.4955C48.7941 37.4341 50.5573 39.7531 50.9864 42.3289C50.9955 42.3832 51 42.4382 51 42.4933V45.4572C51 46.2503 50.3909 46.911 49.5996 46.975L37.1226 47.9777C37.0534 47.9877 37 48.0478 37 48.1203V49.5213C37 50.3285 36.3463 50.9823 35.539 50.9823H33.9002L33.1112 53.0431C32.8954 53.608 32.353 53.9823 31.747 53.9823H23.189C22.583 53.9823 22.0406 53.608 21.8248 53.0431L21.0358 50.9823H19.397C18.5921 50.9823 17.936 50.3299 17.936 49.5213V48.1193C17.936 48.0471 17.8836 47.987 17.8132 47.9766L5.40057 46.975C4.61052 46.9111 4 46.2526 4 45.4572V42.4933C4 42.4382 4.00455 42.3832 4.01359 42.3289C4.44211 39.7567 6.18566 37.4386 8.16347 35.4984C10.1609 33.5389 12.5302 31.8389 14.4106 30.5296C15.5056 29.7672 16.0698 28.6261 16.7904 27.1685C16.8921 26.9627 16.997 26.7507 17.1069 26.5324C18.6331 23.5025 20.1666 19.2189 20.7196 15.9037L20.7206 15.8979L21.437 11.7536C21.4407 11.7247 21.4456 11.696 21.4519 11.6674L22.2336 7.14479C22.2338 7.14378 22.234 7.14278 22.2341 7.14177C22.6775 4.48636 23.7933 3.11573 25.2202 1.36287C25.3457 1.20869 25.4736 1.05156 25.6037 0.890333ZM23.3776 12.2687L22.6924 16.2328C22.6922 16.2338 22.692 16.2348 22.6919 16.2358C22.0985 19.7901 20.4885 24.2649 18.8931 27.4321C18.7973 27.6224 18.7009 27.8198 18.6023 28.0219C17.9106 29.4391 17.1045 31.091 15.5534 32.1709C13.6768 33.4776 11.4306 35.0951 9.56404 36.9261C7.89712 38.5613 6.63417 40.2708 6.14047 41.9823H18V39.9823C18 39.43 18.4477 38.9823 19 38.9823C19.5523 38.9823 20 39.43 20 39.9823V48.9823H21.406C22.0129 48.9823 22.5523 49.3568 22.7694 49.9168L22.7709 49.9207L23.5602 51.9823H31.3758L32.1651 49.9207L32.1666 49.9168C32.3837 49.3568 32.9231 48.9823 33.53 48.9823H35V39.9823C35 39.43 35.4477 38.9823 36 38.9823C36.5523 38.9823 37 39.43 37 39.9823V41.9823H48.8589C48.3629 40.2738 47.0888 38.5653 45.4069 36.929C43.5239 35.0969 41.2616 33.4793 39.3826 32.1709C38.4689 31.5348 37.849 30.7247 37.3599 29.897C37.0341 29.3455 36.7375 28.7302 36.4595 28.1535C36.3388 27.9029 36.2215 27.6597 36.1069 27.4321C34.5167 24.275 32.8389 19.7986 32.2451 16.2355C32.2449 16.2345 32.2448 16.2335 32.2446 16.2325L31.5818 12.4008C30.5362 10.8722 29.0356 9.98225 27.436 9.98225C25.8807 9.98225 24.4187 10.8202 23.3776 12.2687ZM31.0047 9.06398C29.9568 8.38165 28.7455 7.98225 27.436 7.98225C26.1581 7.98225 24.972 8.36214 23.94 9.01475L24.2054 7.47958L24.2064 7.47371C24.5602 5.35171 25.3648 4.36001 26.8043 2.58581C26.9189 2.44455 27.0375 2.29832 27.1603 2.14617C27.3167 1.95218 27.6189 1.95072 27.777 2.14651C27.9001 2.29918 28.0191 2.44588 28.134 2.5876C29.5718 4.36069 30.3759 5.35241 30.7296 7.47371L31.0047 9.06398ZM49 43.9823H37V45.9811L49 45.0167V43.9823ZM18 45.9853V43.9823H6V45.0169L17.9914 45.9845L18 45.9853ZM48 0.98225C48.5523 0.98225 49 1.42997 49 1.98225V3.56804L51.4142 5.98225H53C53.5523 5.98225 54 6.42997 54 6.98225C54 7.53453 53.5523 7.98225 53 7.98225H51.4142L49 10.3965V11.9823C49 12.5345 48.5523 12.9823 48 12.9823C47.4477 12.9823 47 12.5345 47 11.9823V10.3965L44.5858 7.98225H43C42.4477 7.98225 42 7.53453 42 6.98225C42 6.42997 42.4477 5.98225 43 5.98225H44.5858L47 3.56804V1.98225C47 1.42997 47.4477 0.98225 48 0.98225ZM48 5.39646L46.4142 6.98225L48 8.56804L49.5858 6.98225L48 5.39646ZM1 7.98225C1 6.87797 1.89572 5.98225 3 5.98225C4.10428 5.98225 5 6.87797 5 7.98225C5 9.08653 4.10428 9.98225 3 9.98225C1.89572 9.98225 1 9.08653 1 7.98225ZM41 11.9823C41 10.878 41.8957 9.98225 43 9.98225C44.1043 9.98225 45 10.878 45 11.9823C45 13.0865 44.1043 13.9823 43 13.9823C41.8957 13.9823 41 13.0865 41 11.9823ZM12 16.9823C12 15.878 12.8957 14.9823 14 14.9823C15.1043 14.9823 16 15.878 16 16.9823C16 18.0865 15.1043 18.9823 14 18.9823C12.8957 18.9823 12 18.0865 12 16.9823ZM49 30.9823C49 29.878 49.8957 28.9823 51 28.9823C52.1043 28.9823 53 29.878 53 30.9823C53 32.0865 52.1043 32.9823 51 32.9823C49.8957 32.9823 49 32.0865 49 30.9823ZM0 32.9823C0 31.878 0.895715 30.9823 2 30.9823C3.10428 30.9823 4 31.878 4 32.9823C4 34.0865 3.10428 34.9823 2 34.9823C0.895715 34.9823 0 34.0865 0 32.9823ZM22 31.9823C22 31.43 22.4477 30.9823 23 30.9823H32C32.5523 30.9823 33 31.43 33 31.9823C33 32.5345 32.5523 32.9823 32 32.9823H23C22.4477 32.9823 22 32.5345 22 31.9823ZM22 36.9823C22 36.43 22.4477 35.9823 23 35.9823H32C32.5523 35.9823 33 36.43 33 36.9823C33 37.5345 32.5523 37.9823 32 37.9823H23C22.4477 37.9823 22 37.5345 22 36.9823ZM22 41.9823C22 41.43 22.4477 40.9823 23 40.9823H32C32.5523 40.9823 33 41.43 33 41.9823C33 42.5345 32.5523 42.9823 32 42.9823H23C22.4477 42.9823 22 42.5345 22 41.9823ZM23 45.9823C23 45.43 23.4477 44.9823 24 44.9823H31C31.5523 44.9823 32 45.43 32 45.9823V47.9823C32 48.5345 31.5523 48.9823 31 48.9823C30.4477 48.9823 30 48.5345 30 47.9823V46.9823H25V47.9823C25 48.5345 24.5523 48.9823 24 48.9823C23.4477 48.9823 23 48.5345 23 47.9823V45.9823ZM8 53.9823C8 52.878 8.89572 51.9823 10 51.9823C11.1043 51.9823 12 52.878 12 53.9823C12 55.0865 11.1043 55.9823 10 55.9823C8.89572 55.9823 8 55.0865 8 53.9823ZM47 54.9823C47 53.878 47.8957 52.9823 49 52.9823C50.1043 52.9823 51 53.878 51 54.9823C51 56.0865 50.1043 56.9823 49 56.9823C47.8957 56.9823 47 56.0865 47 54.9823ZM22.936 54.9823C23.4883 54.9823 23.936 55.43 23.936 55.9823V56.9823C23.936 57.5345 23.4883 57.9823 22.936 57.9823C22.3837 57.9823 21.936 57.5345 21.936 56.9823V55.9823C21.936 55.43 22.3837 54.9823 22.936 54.9823ZM25.936 54.9823C26.4883 54.9823 26.936 55.43 26.936 55.9823V57.9823C26.936 58.5345 26.4883 58.9823 25.936 58.9823C25.3837 58.9823 24.936 58.5345 24.936 57.9823V55.9823C24.936 55.43 25.3837 54.9823 25.936 54.9823ZM28.936 54.9823C29.4883 54.9823 29.936 55.43 29.936 55.9823V57.9823C29.936 58.5345 29.4883 58.9823 28.936 58.9823C28.3837 58.9823 27.936 58.5345 27.936 57.9823V55.9823C27.936 55.43 28.3837 54.9823 28.936 54.9823ZM31.936 54.9823C32.4883 54.9823 32.936 55.43 32.936 55.9823V56.9823C32.936 57.5345 32.4883 57.9823 31.936 57.9823C31.3837 57.9823 30.936 57.5345 30.936 56.9823V55.9823C30.936 55.43 31.3837 54.9823 31.936 54.9823Z" fill="#666DE9"/>
</svg>
