<svg width="60" height="60" viewBox="0 0 60 60" fill="none" xmlns="http://www.w3.org/2000/svg">
<path fill-rule="evenodd" clip-rule="evenodd" d="M0 1C0 0.447715 0.447715 0 1 0H59C59.5523 0 60 0.447715 60 1V59C60 59.5523 59.5523 60 59 60H1C0.447715 60 0 59.5523 0 59V1ZM2 2V58H58V2H2ZM14 7C11.2383 7 9 9.23829 9 12C9 14.7617 11.2383 17 14 17C16.7617 17 19 14.7617 19 12C19 9.23829 16.7617 7 14 7ZM7 12C7 8.13371 10.1337 5 14 5C17.5268 5 20.444 7.6075 20.9291 11H52C52.5523 11 53 11.4477 53 12C53 12.5523 52.5523 13 52 13H20.9291C20.444 16.3925 17.5268 19 14 19C10.1337 19 7 15.8663 7 12ZM24.0709 29C24.556 25.6075 27.4732 23 31 23C34.5268 23 37.444 25.6075 37.9291 29H52C52.5523 29 53 29.4477 53 30C53 30.5523 52.5523 31 52 31H37.9291C37.444 34.3925 34.5268 37 31 37C27.4732 37 24.556 34.3925 24.0709 31H8C7.44772 31 7 30.5523 7 30C7 29.4477 7.44772 29 8 29H24.0709ZM31 25C28.2383 25 26 27.2383 26 30C26 32.7617 28.2383 35 31 35C33.7617 35 36 32.7617 36 30C36 27.2383 33.7617 25 31 25ZM39.0709 47C39.556 43.6075 42.4732 41 46 41C49.8663 41 53 44.1337 53 48C53 51.8663 49.8663 55 46 55C42.4732 55 39.556 52.3925 39.0709 49H8C7.44772 49 7 48.5523 7 48C7 47.4477 7.44772 47 8 47H39.0709ZM46 43C43.2383 43 41 45.2383 41 48C41 50.7617 43.2383 53 46 53C48.7617 53 51 50.7617 51 48C51 45.2383 48.7617 43 46 43Z" fill="#666DE9"/>
</svg>
