<svg width="60" height="60" viewBox="0 0 60 60" fill="none" xmlns="http://www.w3.org/2000/svg">
<path d="M50.8121 8.5C50.6121 8.3 50.4121 8.1 50.1121 7.9L50.0121 7.8C46.3121 4.4 41.9121 2.1 37.1121 0.9C36.7121 0.8 36.2121 0.7 35.8121 0.6C33.8121 0.2 31.9121 0 29.9121 0C23.4121 0 17.1121 2.1 11.9121 6C10.7121 6.9 9.5121 7.9 8.5121 9C5.3121 12.3 2.9121 16.2 1.5121 20.5C-0.987903 28.1 -0.387903 36.5 3.3121 43.6C3.4121 44.1 3.7121 44.6 3.9121 45C4.0121 45.2 4.2121 45.5 4.3121 45.7C4.3121 45.8 4.4121 45.9 4.5121 46C8.0121 51.6 13.2121 55.8 19.4121 58.1C19.5121 58.1 19.6121 58.2 19.7121 58.2C20.2121 58.4 20.6121 58.5 21.1121 58.7C29.9121 61.4 39.5121 59.8 47.1121 54.5C47.5121 54.2 47.9121 53.9 48.3121 53.6C54.3121 48.9 58.3121 42 59.5121 34.4C59.7121 33 59.8121 31.5 59.8121 30C59.8121 22.5 57.0121 15.3 52.0121 9.8C51.6121 9.3 51.2121 8.9 50.8121 8.5ZM47.3121 8.1L46.0121 8.6L45.9121 8.5L37.3121 4.2C37.2121 4.2 37.1121 4.1 37.0121 4.1V2.9C40.7121 3.9 44.3121 5.7 47.3121 8.1ZM57.5121 34.8C57.5121 34.9 57.5121 35 57.4121 35.2C57.4121 35.4 57.3121 35.6 57.3121 35.8C57.2121 36 57.2121 36.3 57.1121 36.5C57.1121 36.7 57.0121 36.9 57.0121 37.1C56.9121 37.3 56.9121 37.6 56.8121 37.8C56.7121 38 56.7121 38.2 56.6121 38.4C56.5121 38.6 56.4121 38.9 56.4121 39.1C56.3121 39.3 56.3121 39.5 56.2121 39.7C56.1121 40 56.0121 40.2 55.9121 40.5C55.8121 40.7 55.8121 40.8 55.7121 41C55.6121 41.3 55.4121 41.6 55.3121 41.9C55.2121 42 55.2121 42.1 55.1121 42.3C54.9121 42.7 54.7121 43.1 54.5121 43.5C54.5121 43.6 54.4121 43.6 54.4121 43.7C54.2121 44 54.0121 44.3 53.8121 44.7C53.7121 44.8 53.6121 45 53.6121 45.1C53.4121 45.4 53.3121 45.6 53.1121 45.9C53.0121 46 52.9121 46.2 52.8121 46.3C52.6121 46.5 52.5121 46.8 52.3121 47C52.2121 47.1 52.1121 47.3 52.0121 47.4C51.8121 47.6 51.7121 47.8 51.5121 48C51.4121 48.1 51.3121 48.3 51.1121 48.4C50.9121 48.6 50.7121 48.8 50.6121 49C50.5121 49.1 50.3121 49.3 50.2121 49.4C50.0121 49.6 49.8121 49.8 49.6121 50C49.5121 50.1 49.3121 50.3 49.2121 50.4C49.0121 50.6 48.8121 50.8 48.6121 50.9C48.5121 51 48.3121 51.2 48.2121 51.3C48.0121 51.5 47.8121 51.6 47.6121 51.8C47.4121 51.9 47.3121 52 47.1121 52.2C47.0121 52.2 47.0121 52.3 46.9121 52.3L44.9121 45.5V45.4C44.9121 45.3 44.9121 45.3 44.9121 45.2L50.5121 35V34.9C50.5121 34.8 50.6121 34.8 50.7121 34.8H57.5121ZM43.3121 44H30.4121C30.4121 43.9 30.3121 43.8 30.3121 43.7L24.9121 34L31.2121 21L42.6121 22C42.7121 22 42.7121 22 42.8121 22L48.8121 33.9L43.3121 44ZM20.0121 51.3C19.9121 51.4 19.8121 51.4 19.7121 51.3L10.9121 43.6C10.8121 43.5 10.8121 43.5 10.8121 43.4L11.9121 33.9C11.9121 33.8 12.0121 33.7 12.2121 33.7L22.9121 34.8C23.0121 34.8 23.1121 34.9 23.1121 34.9L28.5121 44.7C28.6121 44.8 28.5121 45 28.4121 45L20.0121 51.3ZM4.0121 19.3C4.1121 19.1 4.2121 18.9 4.3121 18.7C4.5121 18.3 4.7121 17.9 4.9121 17.5C5.0121 17.3 5.1121 17.1 5.2121 16.9C5.4121 16.5 5.6121 16.1 5.8121 15.8C5.9121 15.6 6.0121 15.4 6.1121 15.2C6.4121 14.8 6.6121 14.4 6.9121 14C7.0121 13.9 7.1121 13.8 7.2121 13.6C7.6121 13.1 8.0121 12.6 8.4121 12.1C8.5121 12 8.6121 11.9 8.7121 11.7C9.0121 11.3 9.3121 11 9.7121 10.6C9.9121 10.4 10.0121 10.3 10.2121 10.1C10.5121 9.8 10.8121 9.5 11.1121 9.2C11.3121 9 11.5121 8.9 11.6121 8.7C11.7121 8.6 11.8121 8.5 11.9121 8.4L12.3121 9.5C12.3121 9.6 12.3121 9.6 12.3121 9.7L6.6121 18.8C6.6121 18.8 6.6121 18.8 6.5121 18.9L6.4121 19L3.9121 19.5C4.0121 19.5 4.0121 19.4 4.0121 19.3ZM8.1121 20.2C8.2121 20.1 8.3121 20 8.3121 19.9L13.9121 11H25.5121C25.5121 11.1 25.5121 11.2 25.6121 11.2L28.7121 19.5C28.8121 19.8 29.0121 20.1 29.3121 20.3L23.3121 32.7C23.2121 32.7 23.1121 32.7 23.1121 32.6L12.4121 31.5C12.2121 31.5 12.1121 31.5 11.9121 31.5L8.1121 20.2C8.1121 20.3 8.1121 20.3 8.1121 20.2ZM43.0121 19.9C43.0121 20 42.9121 20.1 42.7121 20.1L30.7121 19C30.6121 19 30.5121 18.9 30.5121 18.8L27.4121 10.5C27.4121 10.4 27.4121 10.2 27.5121 10.2L36.1121 6C36.2121 6 36.3121 6 36.3121 6L44.9121 10.3C45.0121 10.4 45.1121 10.5 45.0121 10.6L43.0121 19.9ZM34.9121 2.5V4.4L26.7121 8.5C26.4121 8.6 26.2121 8.8 26.0121 9.1H14.3121V9L13.7121 7.3C18.4121 3.8 24.1121 2 29.9121 2C31.6121 2 33.3121 2.2 34.9121 2.5ZM1.9121 30C1.9121 27.2 2.3121 24.4 3.2121 21.7L6.3121 21.1L10.2121 32.8C10.1121 33.1 10.0121 33.3 9.9121 33.6L8.9121 42.9L5.8121 44.1L5.7121 44C5.5121 43.6 5.2121 43.2 5.0121 42.8C3.0121 38.8 1.9121 34.4 1.9121 30ZM6.8121 45.8L9.4121 44.8C9.4121 44.9 9.5121 44.9 9.6121 45L18.4121 52.7C18.6121 52.8 18.7121 52.9 18.9121 53V55.6C14.0121 53.6 9.8121 50.2 6.8121 45.8ZM21.8121 56.8C21.5121 56.7 21.2121 56.6 20.9121 56.5V53.1C21.0121 53 21.1121 53 21.2121 52.9L29.6121 46.6C29.8121 46.4 30.0121 46.2 30.1121 46H42.9121L45.0121 53.2C45.0121 53.3 45.1121 53.4 45.1121 53.5C38.2121 58 29.7121 59.2 21.8121 56.8ZM57.7121 32.8H50.8121C50.7121 32.8 50.6121 32.8 50.5121 32.8H50.4121L44.6121 21.1C44.8121 20.8 44.9121 20.6 45.0121 20.3L47.1121 11C47.1121 10.8 47.2121 10.5 47.1121 10.3L49.1121 9.6C49.2121 9.7 49.3121 9.8 49.4121 9.9C49.8121 10.3 50.2121 10.7 50.6121 11.1C55.3121 16.3 57.9121 23 57.9121 30C57.9121 30.9 57.8121 31.9 57.7121 32.8Z" fill="#666DE9"/>
</svg>
