<svg width="41" height="57" viewBox="0 0 41 57" fill="none" xmlns="http://www.w3.org/2000/svg">
<path d="M16.2891 18.3094C14.8891 18.3094 13.5891 17.8094 12.4891 16.9094C11.1891 15.8094 10.3891 14.3095 10.2891 12.6095L9.88906 6.30945C9.78905 4.60945 10.3891 3.00945 11.4891 1.80945C12.6891 0.60945 14.2891 -0.0905504 15.9891 0.00944956L34.7891 0.60945C37.9891 0.70945 40.5891 3.40945 40.5891 6.60945V10.4094C40.5891 13.4094 38.2891 15.9094 35.2891 16.3094L16.8891 18.3094C16.6891 18.3094 16.4891 18.3094 16.2891 18.3094ZM15.7891 2.00945C14.6891 2.00945 13.6891 2.40945 12.8891 3.20945C12.1891 4.00945 11.7891 5.00945 11.8891 6.10945L12.2891 12.5094C12.3891 13.6095 12.8891 14.6094 13.7891 15.4094C14.5891 16.1094 15.6891 16.4094 16.6891 16.3094L35.0891 14.3095C37.0891 14.1095 38.5891 12.4094 38.5891 10.4094V6.60945C38.5891 4.40945 36.8891 2.70945 34.7891 2.60945L15.9891 2.00945C15.8891 2.00945 15.8891 2.00945 15.7891 2.00945Z" fill="#666DE9"/>
<path d="M8.68906 56.0094C6.28906 56.0094 3.88906 55.1095 2.18905 53.4095C0.289055 51.6095 -1.41095 48.4095 1.78905 43.7094C2.58906 42.4095 3.88906 41.1095 5.58906 39.9095L13.5891 34.3094V15.7094L14.8891 16.1094C15.4891 16.3095 16.0891 16.4094 16.7891 16.4094L35.0891 14.4094C35.3891 14.3094 35.8891 14.2095 36.1891 14.1095L37.5891 13.4094V26.9094C37.5891 30.2094 37.8891 33.2094 38.5891 36.1094C40.0891 42.6094 37.9891 45.0095 35.9891 45.8095C35.7891 45.9095 21.5891 51.8095 12.5891 55.3095C11.2891 55.8095 9.98906 56.0094 8.68906 56.0094ZM15.5891 18.2094V34.3094C15.5891 35.0094 15.2891 35.6095 14.7891 35.9095L6.78905 41.5094C5.28905 42.5094 4.18905 43.7094 3.48906 44.8094C1.48906 47.7094 1.58906 50.1094 3.58906 52.0094C5.68905 54.1094 8.88906 54.6095 11.7891 53.4095C20.7891 49.8095 35.0891 44.0094 35.1891 43.9095C37.5891 42.8095 37.0891 38.8095 36.5891 36.4095C35.8891 33.3095 35.5891 30.2094 35.5891 26.8094V16.2094C35.4891 16.2094 35.4891 16.2094 35.3891 16.2094L16.7891 18.2094C16.3891 18.3095 15.9891 18.3095 15.5891 18.2094Z" fill="#666DE9"/>
<path d="M8.68906 56.0094C6.28906 56.0094 3.88906 55.1095 2.18905 53.4095C0.289055 51.6095 -1.41095 48.4095 1.78905 43.7094C2.48905 42.5094 3.58906 41.4094 5.08906 40.3094L5.38906 40.1094H5.78905C10.7891 40.7094 14.5891 44.9095 14.5891 50.0094C14.5891 51.7094 14.1891 53.3094 13.3891 54.7094L13.0891 55.2094H12.6891C12.5891 55.2094 12.5891 55.2094 12.4891 55.3094C11.1891 55.8094 9.88906 56.0094 8.68906 56.0094ZM5.98906 42.1094C4.78905 43.0094 3.98906 43.8094 3.48906 44.8094C1.48906 47.7094 1.58906 50.1094 3.58906 52.0094C5.68905 54.1094 8.88906 54.6095 11.7891 53.4095C12.2891 52.4095 12.5891 51.2094 12.5891 50.0094C12.5891 46.1094 9.78905 42.8094 5.98906 42.1094Z" fill="#666DE9"/>
<path d="M21.0891 28.0094C20.0891 28.0094 18.9891 27.6094 18.1891 26.7094C17.2891 25.8095 16.0891 25.8095 15.1891 26.7094L13.7891 25.3094C15.4891 23.6094 17.8891 23.6094 19.5891 25.3094C20.4891 26.2094 21.6891 26.2094 22.5891 25.3094C24.2891 23.6094 26.6891 23.6094 28.3891 25.3094C29.2891 26.2094 30.4891 26.2094 31.3891 25.3094C33.0891 23.6094 35.4891 23.6094 37.1891 25.3094L35.7891 26.7094C34.8891 25.8095 33.6891 25.8095 32.7891 26.7094C31.0891 28.4095 28.6891 28.4095 26.9891 26.7094C26.0891 25.8095 24.8891 25.8095 23.9891 26.7094C23.1891 27.5094 22.0891 28.0094 21.0891 28.0094Z" fill="#666DE9"/>
<path d="M21.0891 24.0094C20.0891 24.0094 18.9891 23.6094 18.1891 22.7094C17.2891 21.8095 16.0891 21.8095 15.1891 22.7094L13.7891 21.3094C15.4891 19.6094 17.8891 19.6094 19.5891 21.3094C20.4891 22.2094 21.6891 22.2094 22.5891 21.3094C24.2891 19.6094 26.6891 19.6094 28.3891 21.3094C29.2891 22.2094 30.4891 22.2094 31.3891 21.3094C33.0891 19.6094 35.4891 19.6094 37.1891 21.3094L35.7891 22.7094C34.8891 21.8095 33.6891 21.8095 32.7891 22.7094C31.0891 24.4095 28.6891 24.4095 26.9891 22.7094C26.0891 21.8095 24.8891 21.8095 23.9891 22.7094C23.1891 23.5094 22.0891 24.0094 21.0891 24.0094Z" fill="#666DE9"/>
<path d="M28.7891 48.7094L28.3891 47.8094C27.8891 46.5094 27.5891 45.1094 27.5891 43.5094C27.5891 37.6094 31.5891 32.7094 36.8891 32.0094L37.7891 31.9094L37.9891 32.8094C38.1891 33.9094 38.3891 35.0094 38.5891 36.0094C40.0891 42.5094 37.9891 44.9095 35.9891 45.7094C35.9891 45.7094 33.3891 46.8094 29.6891 48.3094L28.7891 48.7094ZM36.1891 34.2094C32.3891 35.2094 29.5891 39.1094 29.5891 43.5094C29.5891 44.5094 29.6891 45.3094 29.8891 46.1094C33.0891 44.8094 35.1891 43.9095 35.1891 43.9095C37.6891 42.8095 37.0891 38.8095 36.5891 36.4095C36.4891 35.7094 36.2891 34.9095 36.1891 34.2094Z" fill="#666DE9"/>
</svg>
