<svg width="38" height="60" viewBox="0 0 38 60" fill="none" xmlns="http://www.w3.org/2000/svg">
<path d="M22.0482 8C22.6482 8 23.0482 7.6 23.0482 7C23.0482 6.4 23.4482 6 24.0482 6C24.6482 6 25.0482 5.6 25.0482 5C25.0482 4.4 24.6482 4 24.0482 4C22.3482 4 21.0482 5.3 21.0482 7C21.0482 7.6 21.4482 8 22.0482 8Z" fill="#666DE9"/>
<path d="M1.14824 14.2C0.048244 15.4 -0.351756 17.1 0.348244 18.6L3.34824 25.6C3.74824 26.4 4.34824 27.1 5.14824 27.5L7.64824 28.8C7.84824 28.9 8.04824 29.2 8.04824 29.4L10.0482 47.9C10.0482 48.1 10.0482 48.2 10.1482 48.4L12.7482 57.3C13.1482 58.8 14.5482 59.9 16.1482 59.9C17.0482 59.9 17.9482 59.6 18.5482 59C19.2482 58.4 19.6482 57.6 19.7482 56.7L20.4482 50.3C20.5482 49.8 20.6482 49.3 21.0482 48.8L23.2482 45.8C23.5482 45.3 23.7482 44.7 23.7482 44.1V42.8C23.7482 42.4 23.9482 42.1 24.3482 42L26.4482 41.5C27.2482 41.3 27.8482 40.8 28.2482 40L28.8482 38.8C28.9482 38.6 29.0482 38.4 29.0482 38.2L29.8482 35C29.9482 34.7 30.1482 34.5 30.3482 34.4L31.6482 34C32.5482 33.7 33.2482 32.9 33.4482 31.9L34.8482 25.3C35.1482 23.9 35.6482 22.5 36.2482 21.2L37.5482 18.5C37.8482 17.8 37.9482 17 37.6482 16.2C37.3482 15.5 36.8482 14.9 36.1482 14.6L29.0482 11.7C30.7482 9.8 31.3482 7.1 30.5482 4.7C29.7482 2.3 27.5482 0.5 25.0482 0.1C22.5482 -0.3 20.0482 0.7 18.4482 2.8L17.4482 1.8C16.4482 0.6 14.9482 0 13.3482 0H9.94824C8.34824 0 6.84824 0.6 5.74824 1.8L3.64824 4C2.34824 5.3 1.74824 7.3 2.04824 9.1L2.54824 12.2C2.54824 12.5 2.54824 12.7 2.34824 12.9L1.14824 14.2ZM25.0482 14V26C25.0482 26.6 24.6482 27 24.0482 27C23.4482 27 23.0482 26.6 23.0482 26V14H25.0482ZM24.0482 2C26.8482 2 29.0482 4.2 29.0482 7C29.0482 9.8 26.8482 12 24.0482 12C21.2482 12 19.0482 9.8 19.0482 7C19.0482 4.2 21.2482 2 24.0482 2ZM2.64824 15.6L3.74824 14.4C4.34824 13.8 4.64824 12.9 4.54824 12L4.04824 8.8C3.84824 7.6 4.24824 6.3 5.04824 5.4L7.14824 3.2C7.94824 2.4 8.94824 2 9.94824 2H13.3482C14.3482 2 15.3482 2.4 16.1482 3.2L17.5482 4.6C16.2482 8 17.8482 11.8 21.1482 13.3V26C21.1482 27.7 22.4482 29 24.1482 29C25.8482 29 27.1482 27.7 27.1482 26V13.3C27.2482 13.2 27.3482 13.2 27.4482 13.1C27.4482 13.1 27.4482 13.1 27.5482 13.1L35.6482 16.4C35.8482 16.5 36.0482 16.6 36.0482 16.8C36.1482 17 36.1482 17.3 36.0482 17.5L34.7482 20.2C34.0482 21.7 33.5482 23.2 33.1482 24.8L31.7482 31.4C31.6482 31.7 31.5482 31.9 31.2482 32L29.9482 32.5C29.0482 32.8 28.3482 33.6 28.1482 34.5L27.3482 37.7C27.3482 37.8 27.3482 37.8 27.2482 37.9L26.6482 39.2C26.5482 39.4 26.3482 39.6 26.1482 39.6L24.0482 40.1C22.8482 40.4 21.9482 41.5 21.9482 42.8V44.1C21.9482 44.3 21.8482 44.4 21.7482 44.6L19.5482 47.6C19.0482 48.3 18.7482 49.2 18.6482 50L17.9482 56.4C17.9482 56.8 17.7482 57.2 17.4482 57.5C17.0482 57.9 16.6482 58 16.2482 58C15.5482 58 14.9482 57.5 14.7482 56.8L12.1482 47.9V47.8L10.1482 29.2C10.0482 28.3 9.44825 27.4 8.64824 27L6.14824 25.7C5.74824 25.5 5.44824 25.2 5.24824 24.7L2.24824 17.7C1.84824 17 2.04824 16.2 2.64824 15.6Z" fill="#666DE9"/>
</svg>
