<svg width="60" height="60" viewBox="0 0 60 60" fill="none" xmlns="http://www.w3.org/2000/svg">
<path d="M34 51.1H26C25.7 51.1 25.3 50.9 25.2 50.6C25.1 50.3 25 50 25.1 49.6L29.1 40.6C29.3 40.2 29.6 40 30 40C30.4 40 30.8 40.2 30.9 40.6L34.9 49.6C35 49.9 35 50.3 34.8 50.6C34.6 50.9 34.3 51.1 34 51.1ZM27.5 49.1H32.4L30 43.6L27.5 49.1Z" fill="#666DE9"/>
<path d="M35 60H25C24.7 60 24.4 59.9 24.3 59.7C24.1 59.5 24 59.2 24.1 58.9L25.1 50C25.2 49.5 25.6 49.1 26.1 49.1H34.1C34.6 49.1 35 49.5 35.1 50L36.1 58.9C36.1 59.2 36 59.5 35.9 59.7C35.6 59.9 35.3 60 35 60ZM26.1 58H33.9L33.1 51.1H26.9L26.1 58Z" fill="#666DE9"/>
<path d="M34 51.1H33.9C33.5 51.1 33.2 50.8 33.1 50.5L29.1 41.5C28.9 41 29.1 40.5 29.5 40.2L40.5 34.2C40.8 34.1 41.1 34 41.4 34.2C41.7 34.3 41.9 34.6 42 34.9L43 38.9C43.1 39.2 43 39.5 42.8 39.7L34.8 50.7C34.6 50.9 34.3 51.1 34 51.1ZM31.3 41.5L34.2 48.1L40.9 38.9L40.3 36.6L31.3 41.5Z" fill="#666DE9"/>
<path d="M59 60H35C34.5 60 34.1 59.6 34 59.1L33 50.2C33 50 33 49.7 33.2 49.5L39.7 40.5C39.9 40.2 40.2 40.1 40.5 40.1H41.1C45.5 40.6 50.5 42.4 57 45.9C58.8 46.9 59.9 48.7 59.9 50.8V59C60 59.6 59.6 60 59 60ZM35.9 58H58V50.8C58 49.5 57.3 48.3 56.1 47.7C49.8 44.4 45.1 42.7 41 42.1L35 50.4L35.9 58Z" fill="#666DE9"/>
<path d="M25 60H1C0.4 60 0 59.6 0 59V50.8C0 48.7 1.1 46.9 2.9 45.9C9.4 42.5 14.4 40.6 18.8 40.1H19.4C19.7 40.1 20 40.3 20.2 40.5L26.7 49.5C27 49.7 27 50 27 50.2L26 59.1C25.9 59.6 25.5 60 25 60ZM2 58H24.1L25 50.4L19 42.1C14.9 42.6 10.1 44.4 3.9 47.7C2.7 48.3 2 49.5 2 50.8V58Z" fill="#666DE9"/>
<path d="M30 26C22.8 26 17 20.2 17 13C17 5.8 22.8 0 30 0C37.2 0 43 5.8 43 13C43 20.2 37.2 26 30 26ZM30 2C23.9 2 19 6.9 19 13C19 19.1 23.9 24 30 24C36.1 24 41 19.1 41 13C41 6.9 36.1 2 30 2Z" fill="#666DE9"/>
<path d="M37 32H23V22L24.4 22.7C26.1 23.5 28 24 30 24C31.9 24 33.9 23.5 35.6 22.7L37 22V32ZM25 30H35V25.1C31.8 26.3 28.2 26.3 25 25.1V30Z" fill="#666DE9"/>
<path d="M26 51.1C25.7 51.1 25.4 50.9 25.2 50.7L17.2 39.7C17 39.4 17 39.1 17 38.9L18 34.9C18.1 34.6 18.3 34.4 18.6 34.2C18.9 34.1 19.2 34.1 19.5 34.2L30.5 40.2C31 40.4 31.1 41 30.9 41.5L26.9 50.5C26.8 50.8 26.4 51.1 26.1 51.1H26ZM19.1 38.9L25.8 48.1L28.7 41.5L19.6 36.6L19.1 38.9Z" fill="#666DE9"/>
<path d="M28 25C27.4 25 27 24.6 27 24V15C27 13.3 25.7 12 24 12C23.4 12 23 11.6 23 11C23 10.4 23.4 10 24 10C26.8 10 29 12.2 29 15V24C29 24.6 28.6 25 28 25Z" fill="#666DE9"/>
<path d="M32 25C31.4 25 31 24.6 31 24V15C31 12.2 33.2 10 36 10C36.6 10 37 10.4 37 11C37 11.6 36.6 12 36 12C34.3 12 33 13.3 33 15V24C33 24.6 32.6 25 32 25Z" fill="#666DE9"/>
<path d="M34 19H26C25.4 19 25 18.6 25 18C25 17.4 25.4 17 26 17H34C34.6 17 35 17.4 35 18C35 18.6 34.6 19 34 19Z" fill="#666DE9"/>
</svg>
