<svg width="60" height="60" viewBox="0 0 60 60" fill="none" xmlns="http://www.w3.org/2000/svg">
<path d="M39.4985 2C29.2985 2 20.9985 9.4 20.9985 18.5C20.9985 21.7 21.9985 24.8 23.9985 27.5C24.0985 27.7 24.1985 27.9 24.1985 28.2C23.9985 30.8 23.3985 34.1 22.1985 36.6C24.4985 36.1 27.9985 35.1 30.6985 33.5C30.9985 33.3 31.2985 33.3 31.5985 33.4C34.0985 34.4 36.6985 35 39.4985 35C49.6985 35 57.9985 27.6 57.9985 18.5C57.9985 9.4 49.6985 2 39.4985 2ZM19.9985 39C19.5985 39 19.2985 38.8 19.0985 38.4C18.8985 38 18.9985 37.5 19.2985 37.2C20.7985 35.7 21.7985 32.6 22.1985 28.3C20.0985 25.3 18.9985 21.9 18.9985 18.4C18.9985 8.3 28.1985 0 39.4985 0C50.7985 0 59.9985 8.3 59.9985 18.5C59.9985 28.7 50.7985 37 39.4985 37C36.5985 37 33.8985 36.5 31.2985 35.5C26.6985 38 20.3985 38.9 20.0985 39H19.9985Z" fill="#666DE9"/>
<path d="M31.1985 35.3C30.8985 35.3 30.4985 35.1 30.2985 34.8C29.9985 34.3 30.1985 33.7 30.5985 33.4C31.8985 32.6 33.4985 31.6 33.8985 31.3C34.1985 30.9 34.7985 30.8 35.1985 31.1C35.4985 31.3 35.6985 31.6 35.6985 32C35.6985 32.6 35.6985 32.7 31.5985 35.2C31.5985 35.3 31.3985 35.3 31.1985 35.3Z" fill="#666DE9"/>
<path d="M26.6985 60H3.29849C2.29849 60 1.39849 59.3 1.09849 58.4C0.798493 57.4 1.19849 56.4 2.09849 55.8L6.29849 53.1C6.99849 52.7 7.99849 51 7.99849 50.2V47.5C7.09849 46.8 5.19849 44.9 4.29849 41.8C3.49849 41.1 2.99849 40.1 2.99849 39V35.5C2.99849 34.6 3.39849 33.5 3.99849 32.8V30C3.99849 30 3.69849 26.8 6.09849 24.2C7.99849 22 10.9985 21 14.9985 21C17.3985 21 19.3985 21.4 21.0985 22.1L20.2985 23.9C18.8985 23.3 17.0985 23 14.9985 23C11.5985 23 8.99849 23.8 7.49849 25.5C5.79849 27.4 5.99849 29.9 5.99849 29.9V33.6L5.69849 33.9C5.39849 34.1 4.99849 35 4.99849 35.4V39C4.99849 39.6 5.29849 40.1 5.79849 40.4L6.09849 40.6L6.19849 41C6.99849 44.4 9.49849 46.1 9.49849 46.2L9.99849 46.4V50.2C9.99849 51.7 8.59849 54 7.19849 54.8L3.09849 57.4C2.99849 57.5 2.99849 57.6 2.99849 57.8C2.99849 57.9 3.09849 58 3.29849 58H26.6985C26.7985 58 26.8985 57.9 26.9985 57.8C26.9985 57.7 26.9985 57.5 26.8985 57.5L22.6985 54.8C21.3985 54.1 19.9985 51.8 19.9985 50.3V46.5L20.3985 46.2C20.3985 46.2 22.9985 44.4 23.6985 41L23.7985 40.6L24.0985 40.4C24.5985 40.1 24.8985 39.6 24.8985 39V36.6H26.8985V39C26.8985 40.1 26.3985 41.1 25.5985 41.8C24.7985 44.9 22.7985 46.7 21.8985 47.5V50.2C21.8985 51 22.8985 52.6 23.5985 53L27.7985 55.7C28.6985 56.3 29.0985 57.3 28.7985 58.3C28.6985 59.3 27.7985 60 26.6985 60Z" fill="#666DE9"/>
<path d="M38.9985 27C36.1985 27 33.9985 24.8 33.9985 22C33.9985 21.4 34.3985 21 34.9985 21C35.5985 21 35.9985 21.4 35.9985 22C35.9985 23.7 37.2985 25 38.9985 25C40.6985 25 41.9985 23.7 41.9985 22C41.9985 20.3 40.6985 19 38.9985 19C36.1985 19 33.9985 16.8 33.9985 14C33.9985 11.2 36.1985 9 38.9985 9C41.7985 9 43.9985 11.2 43.9985 14C43.9985 14.6 43.5985 15 42.9985 15C42.3985 15 41.9985 14.6 41.9985 14C41.9985 12.3 40.6985 11 38.9985 11C37.2985 11 35.9985 12.3 35.9985 14C35.9985 15.7 37.2985 17 38.9985 17C41.7985 17 43.9985 19.2 43.9985 22C43.9985 24.8 41.7985 27 38.9985 27Z" fill="#666DE9"/>
<path d="M38.9985 29C38.3985 29 37.9985 28.6 37.9985 28V8C37.9985 7.4 38.3985 7 38.9985 7C39.5985 7 39.9985 7.4 39.9985 8V28C39.9985 28.6 39.5985 29 38.9985 29Z" fill="#666DE9"/>
</svg>
