<svg width="60" height="60" viewBox="0 0 60 60" fill="none" xmlns="http://www.w3.org/2000/svg">
<path fill-rule="evenodd" clip-rule="evenodd" d="M0 30C0 13.4307 13.4307 0 30 0C46.5693 0 60 13.4307 60 30C60 46.5693 46.5693 60 30 60C13.4307 60 0 46.5693 0 30ZM30 2C14.5353 2 2 14.5353 2 30C2 45.4647 14.5353 58 30 58C45.4647 58 58 45.4647 58 30C58 14.5353 45.4647 2 30 2Z" fill="#666DE9"/>
<path fill-rule="evenodd" clip-rule="evenodd" d="M30 9C18.4213 9 9 18.4213 9 30C9 41.5787 18.4213 51 30 51C41.5787 51 51 41.5787 51 30C51 18.4213 41.5787 9 30 9ZM7 30C7 17.3167 17.3167 7 30 7C42.6833 7 53 17.3167 53 30C53 42.6833 42.6833 53 30 53C17.3167 53 7 42.6833 7 30Z" fill="#666DE9"/>
<path fill-rule="evenodd" clip-rule="evenodd" d="M4 30C4 29.4477 4.44772 29 5 29H20C20.5523 29 21 29.4477 21 30C21 30.5523 20.5523 31 20 31H5C4.44772 31 4 30.5523 4 30Z" fill="#666DE9"/>
<path fill-rule="evenodd" clip-rule="evenodd" d="M39 30C39 29.4477 39.4477 29 40 29H55C55.5523 29 56 29.4477 56 30C56 30.5523 55.5523 31 55 31H40C39.4477 31 39 30.5523 39 30Z" fill="#666DE9"/>
<path fill-rule="evenodd" clip-rule="evenodd" d="M30 4C30.5523 4 31 4.44772 31 5V17C31 17.5523 30.5523 18 30 18C29.4477 18 29 17.5523 29 17V5C29 4.44772 29.4477 4 30 4Z" fill="#666DE9"/>
<path fill-rule="evenodd" clip-rule="evenodd" d="M30 42C30.5523 42 31 42.4477 31 43V55C31 55.5523 30.5523 56 30 56C29.4477 56 29 55.5523 29 55V43C29 42.4477 29.4477 42 30 42Z" fill="#666DE9"/>
<path fill-rule="evenodd" clip-rule="evenodd" d="M30 18C23.3723 18 18 23.3723 18 30C18 36.6277 23.3723 42 30 42C36.6277 42 42 36.6277 42 30C42 23.3723 36.6277 18 30 18ZM16 30C16 22.2677 22.2677 16 30 16C37.7323 16 44 22.2677 44 30C44 37.7323 37.7323 44 30 44C22.2677 44 16 37.7323 16 30Z" fill="#666DE9"/>
<path fill-rule="evenodd" clip-rule="evenodd" d="M27.7086 24.952C28.261 24.2998 29.082 23.8883 30 23.8883L27.7086 24.952ZM26.1818 23.6602C27.0974 22.5787 28.4682 21.8883 30 21.8883C32.7613 21.8883 35 24.127 35 26.8883C35 27.4406 34.5523 27.8883 34 27.8883C33.4477 27.8883 33 27.4406 33 26.8883C33 25.2316 31.6567 23.8883 30 23.8883M27.7086 24.952C27.1714 25.5876 27.2764 26.6141 27.9989 27.1759L33.2289 31.2449C34.7824 32.4532 35.1428 34.7715 33.8189 36.3386L33.8182 36.3394C32.9026 37.4209 31.5318 38.1113 30 38.1113C27.2387 38.1113 25 35.8726 25 33.1113C25 32.559 25.4477 32.1113 26 32.1113C26.5523 32.1113 27 32.559 27 33.1113C27 34.768 28.3433 36.1113 30 36.1113C30.918 36.1113 31.739 35.6998 32.2914 35.0476C32.8291 34.4107 32.7233 33.3853 32.0011 32.8237L26.7711 28.7547C25.2178 27.5466 24.8573 25.2265 26.1818 23.6602" fill="#666DE9"/>
<path fill-rule="evenodd" clip-rule="evenodd" d="M30 20C30.5523 20 31 20.4477 31 21V39C31 39.5523 30.5523 40 30 40C29.4477 40 29 39.5523 29 39V21C29 20.4477 29.4477 20 30 20Z" fill="#666DE9"/>
</svg>
