<svg width="45" height="59" viewBox="0 0 45 59" fill="none" xmlns="http://www.w3.org/2000/svg">
<path d="M10 9C9.9 9 9.7 9 9.6 8.9C9.1 8.7 8.9 8.1 9.1 7.6C9.2 7.3 9.3 7.1 9.4 6.8C10.8 3 12.8 0.3 25 0C25.5 0 26 0.4 26 1C26 1.6 25.6 2 25 2C13.2 2.3 12.3 4.8 11.3 7.5C11.2 7.8 11 8.1 10.9 8.4C10.8 8.8 10.4 9 10 9Z" fill="#666DE9"/>
<path d="M13.6 36.8C13.1 36.8 12.7 36.4 12.6 35.9C12.4 34.4 12.3 32.7 12.4 31.1C12.4 30.6 12.9 30.1 13.5 30.2C14.1 30.2 14.5 30.7 14.4 31.3C14.3 32.7 14.3 34.2 14.5 35.6C14.6 36.1 14.2 36.7 13.7 36.7C13.7 36.8 13.6 36.8 13.6 36.8Z" fill="#666DE9"/>
<path d="M18.8 58.4C17.5 58.4 16.8 57.7 16.5 57.4C16 57.1 16 56.9 15.9 54.6C15.7 51.5 15.2 45.2 13.7 40C13.7 40 13.1 38.4 12.7 36.2H11.3C5.1 36.3 0 31.2 0 25.1V14C0 8.7 4.8 4.7 9.5 3.8C10.3 3.7 11.2 3.3 12.1 2.6C12.9 2 14.1 1.5 16 1.1C18.1 0.6 20.7 0.1 23.2 0H35C37.9 0 39.9 2.1 40 5.3C40.1 6.9 39.4 8.4 38.4 9.4C40.3 10.1 41.8 11.9 42 14C42.1 15.5 41.6 17.1 40.6 18.2C40.6 18.3 40.5 18.3 40.5 18.4C41.3 18.7 42 19.2 42.6 19.9C43.6 21 44.2 22.6 44 24.1C43.8 25.9 42.7 27.5 41.1 28.4C42.3 29.4 43 30.9 43 32.6C43 35.4 41.5 37.5 39.2 38.1C39.1 38.1 39.1 38.1 39 38.1H25.2L25.9 42L26.7 45.7C27.9 50.4 25.4 56.1 21.3 58C20.8 58.2 20.3 58.4 19.7 58.5C19.4 58.4 19.1 58.4 18.8 58.4ZM18 56.1C18.2 56.3 18.5 56.6 19.3 56.4C19.8 56.3 20.2 56.2 20.5 56C23.4 54.7 25.9 50.1 24.8 46L24 42.3L23 37.2C22.9 36.9 23 36.6 23.2 36.4C23.4 36.2 23.7 36 24 36H38.9C40.5 35.6 41 33.9 41 32.5C41 30.6 39.4 29 37.5 29C36.9 29 36.5 28.6 36.5 28C36.5 27.4 36.9 27 37.5 27H38.3C40.2 27 41.8 25.6 42 23.8C42.1 22.8 41.8 21.8 41.1 21.1C40.4 20.4 39.5 20 38.5 20H36.5C35.9 20 35.5 19.6 35.5 19C35.5 18.4 35.9 18 36.5 18C37.5 18 38.4 17.6 39.1 16.9C39.8 16.2 40.1 15.2 40 14.2C39.8 12.4 38.2 11 36.3 11H35.2C34.7 11 34.3 10.6 34.2 10.1C34.2 9.6 34.5 9 35 8.9C36.8 8.6 38 7.1 38 5.3C37.9 3.7 37.1 2 35 2H23.2C20.9 2 18.5 2.6 16.4 3C14.4 3.5 13.6 3.9 13.2 4.2C12 5.1 10.9 5.6 9.8 5.8C6 6.5 2 9.7 2 14V25.1C2 30.2 6.2 34.3 11.3 34.3H13.6C14.1 34.3 14.5 34.7 14.6 35.2C15 37.6 15.6 39.5 15.6 39.5C17.1 44.9 17.6 51.4 17.8 54.5C17.9 55.1 18 55.7 18 56.1Z" fill="#666DE9"/>
<path d="M36 11H29C28.4 11 28 10.6 28 10C28 9.4 28.4 9 29 9H36C36.6 9 37 9.4 37 10C37 10.6 36.6 11 36 11Z" fill="#666DE9"/>
<path d="M37 20H31C30.4 20 30 19.6 30 19C30 18.4 30.4 18 31 18H37C37.6 18 38 18.4 38 19C38 19.6 37.6 20 37 20Z" fill="#666DE9"/>
<path d="M38 29H28C27.4 29 27 28.6 27 28C27 27.4 27.4 27 28 27H38C38.6 27 39 27.4 39 28C39 28.6 38.6 29 38 29Z" fill="#666DE9"/>
</svg>
