<svg width="49" height="60" viewBox="0 0 49 60" fill="none" xmlns="http://www.w3.org/2000/svg">
<path fill-rule="evenodd" clip-rule="evenodd" d="M19 1C19 0.447715 19.4477 0 20 0H29C29.5523 0 30 0.447715 30 1V6C30 6.55228 29.5523 7 29 7H20C19.4477 7 19 6.55228 19 6V1ZM21 2V5H28V2H21Z" fill="#666DE9"/>
<path fill-rule="evenodd" clip-rule="evenodd" d="M12 3C12 2.44772 12.4477 2 13 2H20C20.5523 2 21 2.44772 21 3V5H28V3C28 2.44772 28.4477 2 29 2H36C36.5523 2 37 2.44772 37 3V9C37 9.55228 36.5523 10 36 10H13C12.4477 10 12 9.55228 12 9V3ZM14 4V8H35V4H30V6C30 6.55228 29.5523 7 29 7H20C19.4477 7 19 6.55228 19 6V4H14Z" fill="#666DE9"/>
<path fill-rule="evenodd" clip-rule="evenodd" d="M5 7H14V8H35V7H44V55H5V7ZM37 9V10H12V9H7V53H42V9H37Z" fill="#666DE9"/>
<path fill-rule="evenodd" clip-rule="evenodd" d="M0 4.255C0 3.00972 1.00972 2 2.255 2H21V5H28V2H46.745C47.9903 2 49 3.00971 49 4.255V57.745C49 58.9903 47.9903 60 46.745 60H2.255C1.00971 60 0 58.9903 0 57.745V4.255ZM2.255 4C2.11428 4 2 4.11428 2 4.255V57.745C2 57.8857 2.11429 58 2.255 58H46.745C46.8857 58 47 57.8857 47 57.745V4.255C47 4.11429 46.8857 4 46.745 4H30V7H19V4H2.255Z" fill="#666DE9"/>
<path fill-rule="evenodd" clip-rule="evenodd" d="M12 42C12 41.4477 12.4477 41 13 41H18C18.5523 41 19 41.4477 19 42C19 42.5523 18.5523 43 18 43H13C12.4477 43 12 42.5523 12 42Z" fill="#666DE9"/>
<path fill-rule="evenodd" clip-rule="evenodd" d="M25 42C25 41.4477 25.4477 41 26 41H33C33.5523 41 34 41.4477 34 42C34 42.5523 33.5523 43 33 43H26C25.4477 43 25 42.5523 25 42Z" fill="#666DE9"/>
<path fill-rule="evenodd" clip-rule="evenodd" d="M22 43C21.73 43 21.48 42.899 21.29 42.71C21.1 42.52 21 42.27 21 42C21 41.74 21.11 41.479 21.29 41.29C21.66 40.92 22.33 40.92 22.71 41.29C22.89 41.479 23 41.74 23 42C23 42.27 22.9 42.52 22.71 42.71C22.61 42.8 22.5 42.87 22.38 42.92C22.26 42.97 22.13 43 22 43Z" fill="#666DE9"/>
<path fill-rule="evenodd" clip-rule="evenodd" d="M37 43C36.87 43 36.74 42.97 36.62 42.92C36.5 42.87 36.39 42.8 36.29 42.71C36.1 42.52 36 42.27 36 42C36 41.74 36.11 41.479 36.29 41.29C36.67 40.92 37.34 40.92 37.71 41.29C37.89 41.479 38 41.74 38 42C38 42.27 37.9 42.52 37.71 42.71C37.52 42.899 37.27 43 37 43Z" fill="#666DE9"/>
<path fill-rule="evenodd" clip-rule="evenodd" d="M31 47C31 46.4477 31.4477 46 32 46H37C37.5523 46 38 46.4477 38 47C38 47.5523 37.5523 48 37 48H32C31.4477 48 31 47.5523 31 47Z" fill="#666DE9"/>
<path fill-rule="evenodd" clip-rule="evenodd" d="M16 47C16 46.4477 16.4477 46 17 46H24C24.5523 46 25 46.4477 25 47C25 47.5523 24.5523 48 24 48H17C16.4477 48 16 47.5523 16 47Z" fill="#666DE9"/>
<path fill-rule="evenodd" clip-rule="evenodd" d="M28 48C27.73 48 27.48 47.899 27.29 47.71C27.1 47.52 27 47.27 27 47C27 46.87 27.03 46.74 27.08 46.62C27.13 46.49 27.2 46.39 27.29 46.29C27.66 45.92 28.33 45.92 28.71 46.29C28.89 46.479 29 46.74 29 47C29 47.27 28.9 47.52 28.71 47.71C28.52 47.899 28.27 48 28 48Z" fill="#666DE9"/>
<path fill-rule="evenodd" clip-rule="evenodd" d="M13 48C12.87 48 12.74 47.97 12.62 47.92C12.5 47.87 12.39 47.8 12.29 47.71C12.1 47.52 12 47.27 12 47C12 46.74 12.11 46.479 12.29 46.29C12.39 46.2 12.5 46.13 12.62 46.08C12.98 45.92 13.43 46.01 13.71 46.29C13.8 46.39 13.87 46.49 13.92 46.62C13.97 46.74 14 46.87 14 47C14 47.27 13.9 47.52 13.71 47.71C13.52 47.899 13.27 48 13 48Z" fill="#666DE9"/>
<path fill-rule="evenodd" clip-rule="evenodd" d="M25 16C20.0294 16 16 20.0302 16 25C16 29.9698 20.0294 34 25 34C29.9706 34 34 29.9698 34 25C34 20.0302 29.9706 16 25 16ZM14 25C14 18.9258 18.9247 14 25 14C31.0753 14 36 18.9258 36 25C36 31.0742 31.0753 36 25 36C18.9247 36 14 31.0742 14 25Z" fill="#666DE9"/>
<path fill-rule="evenodd" clip-rule="evenodd" d="M20.2929 24.2929C20.6834 23.9024 21.3166 23.9024 21.7071 24.2929L24.7071 27.2929C25.0976 27.6834 25.0976 28.3166 24.7071 28.7071C24.3166 29.0976 23.6834 29.0976 23.2929 28.7071L20.2929 25.7071C19.9024 25.3166 19.9024 24.6834 20.2929 24.2929Z" fill="#666DE9"/>
<path fill-rule="evenodd" clip-rule="evenodd" d="M29.6402 21.2318C30.0645 21.5853 30.1218 22.2159 29.7682 22.6402L24.7682 28.6402C24.4147 29.0645 23.7841 29.1218 23.3598 28.7682C22.9355 28.4147 22.8782 27.7841 23.2318 27.3598L28.2318 21.3598C28.5853 20.9355 29.2159 20.8782 29.6402 21.2318Z" fill="#666DE9"/>
</svg>
