<svg width="54" height="60" viewBox="0 0 54 60" fill="none" xmlns="http://www.w3.org/2000/svg">
<path d="M27 30C23.7 30 21 32.7 21 36V52C21 55.3 23.7 58 27 58C30.3 58 33 55.3 33 52V36C33 32.7 30.3 30 27 30ZM27 60C22.6 60 19 56.4 19 52V36C19 31.6 22.6 28 27 28C31.4 28 35 31.6 35 36V52C35 56.4 31.4 60 27 60Z" fill="#666DE9"/>
<path d="M27 50C25.9 50 25 50.9 25 52C25 53.1 25.9 54 27 54C28.1 54 29 53.1 29 52C29 50.9 28.1 50 27 50ZM27 56C24.8 56 23 54.2 23 52C23 49.8 24.8 48 27 48C29.2 48 31 49.8 31 52C31 54.2 29.2 56 27 56Z" fill="#666DE9"/>
<path d="M8 2C4.7 2 2 4.7 2 8V52C2 55.3 4.7 58 8 58C11.3 58 14 55.3 14 52V8C14 4.7 11.3 2 8 2ZM8 60C3.6 60 0 56.4 0 52V8C0 3.6 3.6 0 8 0C12.4 0 16 3.6 16 8V52C16 56.4 12.4 60 8 60Z" fill="#666DE9"/>
<path d="M8 50C6.9 50 6 50.9 6 52C6 53.1 6.9 54 8 54C9.1 54 10 53.1 10 52C10 50.9 9.1 50 8 50ZM8 56C5.8 56 4 54.2 4 52C4 49.8 5.8 48 8 48C10.2 48 12 49.8 12 52C12 54.2 10.2 56 8 56Z" fill="#666DE9"/>
<path d="M46 11C42.7 11 40 13.7 40 17V52C40 55.3 42.7 58 46 58C49.3 58 52 55.3 52 52V17C52 13.7 49.3 11 46 11ZM46 60C41.6 60 38 56.4 38 52V17C38 12.6 41.6 9 46 9C50.4 9 54 12.6 54 17V52C54 56.4 50.4 60 46 60Z" fill="#666DE9"/>
<path d="M46 50C44.9 50 44 50.9 44 52C44 53.1 44.9 54 46 54C47.1 54 48 53.1 48 52C48 50.9 47.1 50 46 50ZM46 56C43.8 56 42 54.2 42 52C42 49.8 43.8 48 46 48C48.2 48 50 49.8 50 52C50 54.2 48.2 56 46 56Z" fill="#666DE9"/>
</svg>
