<svg width="60" height="60" viewBox="0 0 60 60" fill="none" xmlns="http://www.w3.org/2000/svg">
<path d="M59 58H1C0.4 58 0 57.6 0 57C0 56.4 0.4 56 1 56H59C59.6 56 60 56.4 60 57C60 57.6 59.6 58 59 58Z" fill="#666DE9"/>
<path d="M14 58H2V42H14V58ZM4 56H12V44H4V56Z" fill="#666DE9"/>
<path d="M29 58H17V33H29V58ZM19 56H27V35H19V56Z" fill="#666DE9"/>
<path d="M44 58H32V25H44V58ZM34 56H42V27H34V56Z" fill="#666DE9"/>
<path d="M59 58H47V17H59V58ZM49 56H57V19H49V56Z" fill="#666DE9"/>
<path d="M8 28.3C7.7 28.3 7.3 28.1 7.1 27.8C6.8 27.3 7 26.7 7.5 26.4L46.5 3.9C47 3.6 47.6 3.8 47.9 4.3C48.2 4.8 48 5.4 47.5 5.7L8.5 28.2C8.3 28.3 8.2 28.3 8 28.3Z" fill="#666DE9"/>
<path d="M47 5.8L38.3 5C37.8 4.9 37.3 4.5 37.4 3.9C37.5 3.4 38 3 38.5 3L47.1 3.8C47.6 3.9 48.1 4.3 48 4.9C47.9 5.4 47.5 5.8 47 5.8Z" fill="#666DE9"/>
<path d="M43.4 13.7C43.3 13.7 43.1 13.7 43 13.6C42.5 13.4 42.3 12.8 42.5 12.3L46.1 4.4C46.3 3.9 46.9 3.7 47.4 3.9C47.9 4.1 48.1 4.7 47.9 5.2L44.3 13.1C44.1 13.5 43.8 13.7 43.4 13.7Z" fill="#666DE9"/>
</svg>
