<svg width="60" height="60" viewBox="0 0 60 60" fill="none" xmlns="http://www.w3.org/2000/svg">
<path d="M20 57C13.9 57 9 52.1 9 46V14C9 13.4 9.4 13 10 13C10.6 13 11 13.4 11 14V46C11 51 15 55 20 55C25 55 29 51 29 46V14C29 13.4 29.4 13 30 13C30.6 13 31 13.4 31 14V46C31 52.1 26.1 57 20 57Z" fill="#666DE9"/>
<path d="M50 47C49.4 47 49 46.6 49 46V14C49 9 45 5 40 5C35 5 31 9 31 14C31 14.6 30.6 15 30 15C29.4 15 29 14.6 29 14C29 7.9 33.9 3 40 3C46.1 3 51 7.9 51 14V46C51 46.6 50.6 47 50 47Z" fill="#666DE9"/>
<path d="M1 24C0.7 24 0.5 23.9 0.3 23.7C-0.1 23.3 -0.1 22.7 0.3 22.3L9.3 13.3C9.7 12.9 10.3 12.9 10.7 13.3C11.1 13.7 11.1 14.3 10.7 14.7L1.7 23.7C1.5 23.9 1.3 24 1 24Z" fill="#666DE9"/>
<path d="M19 24C18.7 24 18.5 23.9 18.3 23.7L9.3 14.7C8.9 14.3 8.9 13.7 9.3 13.3C9.7 12.9 10.3 12.9 10.7 13.3L19.7 22.3C20.1 22.7 20.1 23.3 19.7 23.7C19.5 23.9 19.3 24 19 24Z" fill="#666DE9"/>
<path d="M50 47C49.7 47 49.5 46.9 49.3 46.7C48.9 46.3 48.9 45.7 49.3 45.3L58.3 36.3C58.7 35.9 59.3 35.9 59.7 36.3C60.1 36.7 60.1 37.3 59.7 37.7L50.7 46.7C50.5 46.9 50.3 47 50 47Z" fill="#666DE9"/>
<path d="M50 47C49.7 47 49.5 46.9 49.3 46.7L40.3 37.7C39.9 37.3 39.9 36.7 40.3 36.3C40.7 35.9 41.3 35.9 41.7 36.3L50.7 45.3C51.1 45.7 51.1 46.3 50.7 46.7C50.5 46.9 50.3 47 50 47Z" fill="#666DE9"/>
</svg>
