<svg width="60" height="60" viewBox="0 0 60 60" fill="none" xmlns="http://www.w3.org/2000/svg">
<path fill-rule="evenodd" clip-rule="evenodd" d="M7 5C5.89528 5 5 5.89528 5 7C5 8.10472 5.89528 9 7 9C8.10472 9 9 8.10472 9 7C9 5.89528 8.10472 5 7 5ZM3 7C3 4.79072 4.79072 3 7 3C9.20928 3 11 4.79072 11 7C11 9.20928 9.20928 11 7 11C4.79072 11 3 9.20928 3 7Z" fill="#666DE9"/>
<path fill-rule="evenodd" clip-rule="evenodd" d="M16 5C14.8953 5 14 5.89528 14 7C14 8.10472 14.8953 9 16 9C17.1047 9 18 8.10472 18 7C18 5.89528 17.1047 5 16 5ZM12 7C12 4.79072 13.7907 3 16 3C18.2093 3 20 4.79072 20 7C20 9.20928 18.2093 11 16 11C13.7907 11 12 9.20928 12 7Z" fill="#666DE9"/>
<path fill-rule="evenodd" clip-rule="evenodd" d="M25 5C23.8953 5 23 5.89528 23 7C23 8.10472 23.8953 9 25 9C26.1047 9 27 8.10472 27 7C27 5.89528 26.1047 5 25 5ZM21 7C21 4.79072 22.7907 3 25 3C27.2093 3 29 4.79072 29 7C29 9.20928 27.2093 11 25 11C22.7907 11 21 9.20928 21 7Z" fill="#666DE9"/>
<path fill-rule="evenodd" clip-rule="evenodd" d="M2.872 2C2.39028 2 2 2.39028 2 2.872V12H58V2.872C58 2.39029 57.6097 2 57.128 2H2.872ZM0 2.872C0 1.28572 1.28572 0 2.872 0H57.128C58.7143 0 60 1.28571 60 2.872V14H0V2.872Z" fill="#666DE9"/>
<path fill-rule="evenodd" clip-rule="evenodd" d="M0 12H60V56.813C60 58.5733 58.5733 60 56.813 60H3.188C1.42701 60 0 58.5736 0 56.813V12ZM2 14V56.813C2 57.4684 2.53099 58 3.188 58H56.813C57.4687 58 58 57.4687 58 56.813V14H2Z" fill="#666DE9"/>
<path fill-rule="evenodd" clip-rule="evenodd" d="M30.5578 22.3344C30.2975 21.8887 29.655 21.8899 29.3961 22.3338L29.3909 22.3428L13.0901 48.9958C12.836 49.4436 13.1594 50 13.6743 50H46.3253C46.8417 50 47.1638 49.4435 46.91 48.9966L30.5632 22.3436L30.5578 22.3344ZM32.2787 21.3153C31.2451 19.5626 28.7072 19.5615 27.6743 21.3162L11.3717 47.9723L11.3664 47.9814C10.3281 49.7624 11.6119 52 13.6743 52H46.3253C48.3881 52 49.6732 49.7626 48.6329 47.9808L48.6274 47.9714L32.2787 21.3153Z" fill="#666DE9"/>
<path fill-rule="evenodd" clip-rule="evenodd" d="M30 28.3813C30.5523 28.3813 31 28.829 31 29.3813V40.0003C31 40.5526 30.5523 41.0003 30 41.0003C29.4477 41.0003 29 40.5526 29 40.0003V29.3813C29 28.829 29.4477 28.3813 30 28.3813Z" fill="#666DE9"/>
<path fill-rule="evenodd" clip-rule="evenodd" d="M31 44C31 44.552 30.552 45 30 45C29.448 45 29 44.552 29 44C29 43.448 29.448 43 30 43C30.552 43 31 43.448 31 44Z" fill="#666DE9"/>
</svg>
