<svg width="60" height="60" viewBox="0 0 60 60" fill="none" xmlns="http://www.w3.org/2000/svg">
<path d="M49.8852 20.0812C45.7852 20.0812 42.1852 17.6812 40.5852 13.8812C38.9852 10.0812 39.8852 5.78123 42.7852 2.88123C44.9852 0.781227 47.9852 -0.318773 51.0852 0.0812265C51.8852 0.181227 52.4852 0.681227 52.7852 1.38123C53.0852 2.08123 52.8852 2.88123 52.2852 3.48123L47.0852 8.68123C46.6852 9.08123 46.6852 9.68123 47.0852 10.0812L49.8852 12.8812C50.2852 13.2812 50.8852 13.2812 51.2852 12.8812L56.4852 7.68123C56.9852 7.18123 57.8852 6.98123 58.5852 7.18123C59.2852 7.38123 59.7852 8.08123 59.8852 8.78123C60.1852 11.5812 59.2852 14.4812 57.3852 16.5812C55.4852 18.6812 52.7852 20.0812 49.8852 20.0812ZM44.1852 4.38123C42.6852 5.88123 41.7852 7.98123 41.7852 10.1812C41.7852 12.3812 42.6852 14.3812 44.2852 15.8812C47.4852 18.8812 52.3852 18.7812 55.4852 15.6812C57.1852 13.9812 58.0852 11.4812 57.7852 9.08123L52.5852 14.2812C51.3852 15.3812 49.4852 15.3812 48.2852 14.2812L45.4852 11.4812C44.2852 10.2812 44.2852 8.38123 45.4852 7.18123L50.6852 1.98123C48.3852 1.78123 45.9852 2.58123 44.1852 4.38123Z" fill="#666DE9"/>
<path d="M18.8852 49.1812C18.4852 49.1812 18.0852 48.9812 17.9852 48.5812C17.7852 48.1812 17.8852 47.7812 18.1852 47.4812L47.4852 18.1812C47.8852 17.7812 48.4852 17.7812 48.8852 18.1812C49.2852 18.5812 49.2852 19.1812 48.8852 19.5812L19.5852 48.8812C19.3852 49.0812 19.1852 49.1812 18.8852 49.1812Z" fill="#666DE9"/>
<path d="M11.7852 42.0812C11.3852 42.0812 10.9852 41.8812 10.8852 41.4812C10.6852 41.0812 10.7852 40.6812 11.0852 40.3812L40.2852 11.1812C40.5852 10.8812 40.8852 10.7812 41.2852 10.8812C41.6852 10.9812 41.8852 11.2812 41.9852 11.5812C42.0852 11.8812 41.9852 12.2812 41.6852 12.5812L12.4852 41.7812C12.2852 41.9812 12.0852 42.0812 11.7852 42.0812Z" fill="#666DE9"/>
<path d="M22.1852 40.2812C21.8852 40.2812 21.6852 40.1812 21.4852 39.9812C20.2852 38.7812 20.2852 36.8812 21.4852 35.6812L35.6852 21.4812C36.8852 20.2812 38.7852 20.2812 39.9852 21.4812C40.2852 21.7812 40.3852 22.0812 40.2852 22.4812C40.1852 22.8812 39.8852 23.0812 39.5852 23.1812C39.2852 23.2812 38.8852 23.1812 38.5852 22.8812C38.1852 22.4812 37.5852 22.4812 37.1852 22.8812L22.8852 37.0812C22.6852 37.2812 22.5852 37.4812 22.5852 37.7812C22.5852 38.0812 22.6852 38.2812 22.8852 38.4812C23.1852 38.7812 23.2852 39.1812 23.0852 39.5812C22.8852 39.9812 22.5852 40.2812 22.1852 40.2812Z" fill="#666DE9"/>
<path d="M10.0852 59.9812C5.98523 59.9812 2.38522 57.5812 0.785225 53.7812C-0.814775 49.9812 0.0852249 45.6812 2.98522 42.7812C6.18523 39.5812 11.1852 38.8812 15.0852 41.1812C18.9852 43.4812 20.9852 48.0812 19.7852 52.4812C18.5852 56.8812 14.5852 59.9812 10.0852 59.9812ZM10.0852 41.8812C7.98523 41.8812 5.88522 42.6812 4.38522 44.2812C2.38522 46.2812 1.58522 49.2812 2.28522 52.0812C2.98522 54.7812 5.18522 56.9812 7.98522 57.6812C10.7852 58.3812 13.7852 57.5812 15.7852 55.5812C18.0852 53.2812 18.7852 49.7812 17.4852 46.7812C16.2852 43.7812 13.2852 41.8812 10.0852 41.8812Z" fill="#666DE9"/>
<path d="M10.0852 55.9812C7.18523 55.9812 4.78522 53.9812 4.18522 51.0812C3.58522 48.2812 5.18523 45.4812 7.78522 44.3812C10.3852 43.2812 13.4852 44.1812 15.0852 46.5812C16.6852 48.9812 16.3852 52.1812 14.2852 54.1812C13.1852 55.2812 11.6852 55.9812 10.0852 55.9812ZM10.0852 45.8812C8.18523 45.8812 6.48522 47.2812 6.18522 49.0812C5.78522 50.9812 6.78522 52.8812 8.58523 53.5812C10.3852 54.2812 12.3852 53.6812 13.4852 52.0812C14.5852 50.4812 14.3852 48.3812 12.9852 46.9812C12.1852 46.2812 11.0852 45.8812 10.0852 45.8812Z" fill="#666DE9"/>
</svg>
