<?xml version="1.0" encoding="UTF-8" standalone="no"?>
<svg
   xmlns:dc="http://purl.org/dc/elements/1.1/"
   xmlns:cc="http://creativecommons.org/ns#"
   xmlns:rdf="http://www.w3.org/1999/02/22-rdf-syntax-ns#"
   xmlns:svg="http://www.w3.org/2000/svg"
   xmlns="http://www.w3.org/2000/svg"
   xmlns:sodipodi="http://sodipodi.sourceforge.net/DTD/sodipodi-0.dtd"
   xmlns:inkscape="http://www.inkscape.org/namespaces/inkscape"
   width="431.75241"
   height="477.37332"
   viewBox="0 0 431.75246 477.37332"
   version="1.1"
   id="svg19"
   sodipodi:docname="hint.svg"
   style="fill:none"
   inkscape:version="0.92.3 (2405546, 2018-03-11)">
  <metadata
     id="metadata23">
    <rdf:RDF>
      <cc:Work
         rdf:about="">
        <dc:format>image/svg+xml</dc:format>
        <dc:type
           rdf:resource="http://purl.org/dc/dcmitype/StillImage" />
        <dc:title></dc:title>
      </cc:Work>
    </rdf:RDF>
  </metadata>
  <sodipodi:namedview
     pagecolor="#212121"
     bordercolor="#666666"
     borderopacity="1"
     objecttolerance="10"
     gridtolerance="10"
     guidetolerance="10"
     inkscape:pageopacity="0"
     inkscape:pageshadow="2"
     inkscape:window-width="2560"
     inkscape:window-height="1377"
     id="namedview21"
     showgrid="true"
     inkscape:zoom="1.4765958"
     inkscape:cx="211.26038"
     inkscape:cy="116.4906"
     inkscape:window-x="-8"
     inkscape:window-y="-8"
     inkscape:window-maximized="1"
     inkscape:current-layer="svg19"
     showguides="false">
    <inkscape:grid
       type="xygrid"
       id="grid4533"
       originx="283.69816"
       originy="222.98047" />
  </sodipodi:namedview>
  <defs
     id="defs17">
    <clipPath
       id="clip0_43_111605">
      <rect
         width="470"
         height="100"
         id="rect14"
         x="0"
         y="0"
         style="fill:#ffffff" />
    </clipPath>
  </defs>
  <path
     style="fill:#d4d4d4;fill-opacity:1"
     d="m 201.99353,476.7476 c -7.07297,-2.28856 -11.94066,-6.43852 -16.82842,-14.34708 -2.54828,-4.1232 -9.13067,-7.76715 -14.03049,-7.76715 -10.63787,0 -15.77241,-11.05914 -8.71208,-18.76469 l 3.42254,-3.73531 48.32746,-0.26356 c 54.45653,-0.297 53.53224,-0.41034 57.15783,7.0094 3.27533,6.70294 -0.69671,14.10666 -8.19245,15.27038 -10.70952,1.66266 -13.43747,3.45801 -20.48803,13.48378 -2.0225,2.87595 -4.96645,5.40225 -8.15725,7 -4.42912,2.21783 -6.40351,2.524 -17.49264,2.71262 -6.875,0.11694 -13.62791,-0.15233 -15.00647,-0.59839 z M 167.6193,425.61783 c -9.48774,-2.90294 -11.42619,-15.08205 -3.19899,-20.09899 2.90054,-1.76875 5.8893,-1.87821 51.37935,-1.88173 53.72562,-0.004 52.47786,-0.15338 55.71221,6.66251 1.59307,3.35716 1.63379,4.17215 0.38484,7.70346 -0.76819,2.17201 -2.66669,4.88988 -4.21888,6.0397 -2.76048,2.04489 -3.8534,2.09459 -50,2.27352 -25.94781,0.10061 -48.47414,-0.2137 -50.05853,-0.69847 z m -3.19899,-29.86993 c -8.05629,-4.91272 -6.47828,-16.49712 2.72196,-19.98221 l 2.64227,-1.0009 -1.46784,-7.81571 C 164.75146,347.96554 157.1024,334.69299 132.90801,305.50844 108.09795,275.58123 99.12804,257.08619 97.09156,231.65852 92.89235,179.22679 122.02121,131.16057 170.029,111.30273 c 32.16866,-13.306183 67.3805,-12.133393 98.471,3.27975 14.34141,7.10976 22.15326,12.86541 33.52858,24.70335 12.9122,13.4373 21.23393,27.06288 26.95174,44.12942 7.80024,23.28215 8.06662,51.11362 0.69601,72.71813 -5.22058,15.30238 -12.76913,27.20005 -32.67448,51.49999 -7.88435,9.625 -16.33379,20.57894 -18.77654,24.3421 -8.29549,12.77953 -13.6298,26.14461 -15.72858,39.4079 -0.59797,3.77883 -0.45601,4.25 1.28051,4.25 3.10567,0 7.07568,3.77705 8.31388,7.90978 0.95223,3.17827 0.85196,4.40791 -0.61078,7.49041 -3.1984,6.74011 -2.01752,6.60023 -55.68068,6.59607 -45.49005,-0.004 -48.47881,-0.11298 -51.37935,-1.88173 z M 133.69813,204.39286 c 1.20897,-1.10585 2.49388,-3.35723 2.85537,-5.00305 2.5997,-11.83636 11.9352,-27.16678 22.86638,-37.55033 6.75341,-6.41508 21.35176,-16.2061 24.16319,-16.2061 0.61869,0 2.31559,-1.10351 3.77091,-2.45225 5.41637,-5.01973 1.92089,-14.54775 -5.33704,-14.54775 -1.69069,0 -5.87364,1.40255 -9.29546,3.11678 -25.12621,12.58747 -44.83286,35.6848 -52.21986,61.20466 -2.06492,7.13371 -0.86827,11.17947 3.9195,13.25143 3.55404,1.53805 6.17267,1.02618 9.27701,-1.81339 z M 63.4,368.23337 c -2.71898,-2.71898 -3.4,-4.19118 -3.4,-7.34996 0,-5.37934 2.58117,-8.64428 21.62131,-27.34899 16.62868,-16.33573 18.5118,-17.53142 24.85304,-15.78052 5.73685,1.58402 8.97917,7.44848 7.39721,13.37947 -0.53522,2.00662 -7.04044,9.20862 -19.64574,21.75 -18.5854,18.49116 -18.90478,18.75 -23.13569,18.75 -3.54564,0 -4.88015,-0.59002 -7.69013,-3.4 z m 291.1,1.51113 c -1.65,-1.03477 -10.48763,-9.47059 -19.63918,-18.74626 -17.08071,-17.31239 -18.98074,-20.11986 -17.3204,-25.5924 1.75885,-5.79725 8.84019,-9.70113 14.06554,-7.7542 1.59172,0.59307 11.10637,9.26434 21.14365,19.26949 19.49998,19.43755 20.83543,21.4714 18.22945,27.7628 -2.73704,6.6078 -10.30571,8.93207 -16.47906,5.06057 z M 3.4,223.23338 c -2.7873,-2.7873 -3.4,-4.15686 -3.4,-7.6 0,-3.45401 0.61198,-4.81198 3.4455,-7.6455 l 3.44551,-3.44551 27.64245,0.29551 27.64245,0.2955 2.40491,2.79746 c 4.57971,5.32728 4.38462,10.89095 -0.55511,15.83067 l -2.87186,2.87187 H 33.97692 6.8 Z m 364,0 c -2.7873,-2.7873 -3.4,-4.15686 -3.4,-7.6 0,-3.44314 0.6127,-4.8127 3.4,-7.6 l 3.4,-3.4 h 26.96514 c 25.296,0 27.11986,0.1217 29.46464,1.96611 5.75109,4.52381 6.06808,12.92258 0.65949,17.47361 l -3.04272,2.56028 H 397.82327 370.8 Z M 99,113.52771 c -3.03453,-1.1882 -35.55411,-33.298291 -37.56773,-37.094671 -2.37108,-4.47032 -1.81617,-9.33845 1.4857,-13.03388 2.56969,-2.87598 3.52416,-3.265784 7.99667,-3.265784 h 5.07869 l 18.50202,18.502024 c 12.07067,12.070668 18.80461,19.557088 19.37253,21.537291 1.26437,4.4086 -0.70797,9.44773 -4.76576,12.17606 -3.63922,2.4469 -6.1235,2.73682 -10.10212,1.17896 z m 226,0.44781 c -3.04995,-1.20302 -6.99228,-5.78404 -7.55389,-8.77771 -0.31834,-1.69688 -0.0678,-4.42917 0.55667,-6.071753 1.21009,-3.18278 28.85591,-31.776078 35.39726,-36.610398 2.33013,-1.72206 5.14788,-2.880784 7,-2.878544 4.21963,0.005 8.9899,3.109244 10.54407,6.861324 2.65334,6.40573 1.39131,8.32064 -18.73258,28.423628 -15.89846,15.881943 -19.32021,18.835713 -22.24967,19.206703 -1.90402,0.24112 -4.13686,0.17216 -4.96186,-0.15325 z M 208.52701,64.360389 205,60.833379 V 33.749155 6.6649247 l 2.75,-3.07752 c 5.18405,-5.80146 15.64465,-4.30661997 18.27493,2.61153 C 226.56731,7.6255247 227,20.265125 227,34.682695 v 25.919134 l -2.78244,3.11409 c -2.14021,2.39531 -3.86509,3.23612 -7.47299,3.64278 -4.34882,0.49018 -4.94751,0.27173 -8.21756,-2.99831 z"
     id="path861"
     inkscape:connector-curvature="0" />
</svg>
